<svg width="100" height="100" viewBox="0 0 100 100" fill="none" xmlns="http://www.w3.org/2000/svg">
<path d="M17.7083 0H82.2917C92.0833 0 100 8.11966 100 18.1624V81.8376C100 91.8803 92.0833 100 82.2917 100H17.7083C7.91667 100 0 91.8803 0 81.8376V18.1624C0 8.11966 7.91667 0 17.7083 0Z" fill="#330000"/>
<path fill-rule="evenodd" clip-rule="evenodd" d="M35.5519 62.7137H51.1676L54.6098 72.1992C54.6937 72.4782 54.9876 72.6775 55.2814 72.6376H64.0547C64.4745 72.6376 64.6004 72.4383 64.4745 71.9999L49.1527 30.9492C49.1107 30.7499 48.9428 30.6304 48.607 30.6304H37.8607H37.7348C37.5249 30.6702 37.357 30.8695 37.3989 31.0688C37.3989 31.9456 37.315 32.8224 37.1471 33.6594C37.0281 33.9982 36.9302 34.3171 36.8385 34.6159C36.8007 34.7388 36.764 34.8584 36.7273 34.9746L23.2105 71.9202C23.0846 72.3985 23.2105 72.6376 23.6723 72.6376H31.5641C31.9419 72.6775 32.2777 72.4383 32.3616 72.0796L35.5519 62.7137ZM48.6489 54.6231H37.9866C38.6163 52.9492 39.246 51.076 39.8336 49.0434C40.2495 47.8097 40.6492 46.576 41.0428 45.3612C41.2849 44.6138 41.5248 43.8736 41.7646 43.1449C42.3523 41.4311 42.8141 39.7173 43.1919 38.0036H43.2758C43.4396 38.5367 43.6034 39.0947 43.7745 39.6774C43.9103 40.1401 44.0507 40.6184 44.1993 41.1123C44.5351 42.2681 44.9129 43.4238 45.3327 44.6594C45.5426 45.2771 45.742 45.8849 45.9414 46.4927C46.1408 47.1005 46.3402 47.7083 46.5501 48.326C46.9279 49.5217 47.3057 50.6775 47.6835 51.7536C48.0613 52.7898 48.3971 53.7862 48.6489 54.6231Z" fill="#FF9A00"/>
<path fill-rule="evenodd" clip-rule="evenodd" d="M69.8896 36.0507C70.8971 36.9674 72.2404 37.4855 73.6256 37.4456C75.0529 37.5254 76.4801 37.0072 77.4456 36.0507C78.453 35.0543 78.9568 33.7391 78.9148 32.384C78.9568 31.0688 78.453 29.7935 77.5295 28.8369C76.606 27.9203 75.3467 27.442 73.7096 27.442C72.3243 27.442 70.981 27.9203 69.9736 28.8369C68.9661 29.7536 68.4204 31.029 68.4624 32.384C68.4204 33.7391 68.9241 35.0543 69.8896 36.0507ZM68.9241 41.3514V72.0398C68.9241 72.4384 69.134 72.6775 69.5538 72.6775H77.7814C78.1592 72.6775 78.3271 72.4782 78.3271 72.0398V41.3514C78.3271 40.9927 78.1592 40.7935 77.7814 40.7935H69.4698C69.092 40.7935 68.9241 40.9529 68.9241 41.3514Z" fill="#FF9A00"/>
</svg>
