<svg width="100" height="100" viewBox="0 0 100 100" fill="none" xmlns="http://www.w3.org/2000/svg">
<path d="M17.7083 0H82.2917C92.0833 0 100 8.11966 100 18.1624V81.8376C100 91.8803 92.0833 100 82.2917 100H17.7083C7.91667 100 0 91.8803 0 81.8376V18.1624C0 8.11966 7.91667 0 17.7083 0Z" fill="#470137"/>
<path d="M52.5533 31.4206L40.1986 51.8678L53.3769 73.5543C53.4593 73.7195 53.5005 73.8847 53.4593 74.05C53.4181 74.2152 53.2534 74.0913 53.0063 74.1326H43.5756C42.9167 74.1326 42.4637 74.0913 42.1754 73.6782C41.3106 71.9433 40.4046 70.2497 39.5397 68.5148C38.6749 66.8211 37.7277 65.0862 36.7393 63.31C35.751 61.5338 34.7626 59.7576 33.7742 57.94H33.6919C32.827 59.7163 31.8798 61.4925 30.9327 63.2687C29.9855 65.0449 29.0383 66.8211 28.1323 68.5561C27.1851 70.291 26.2379 72.0672 25.2907 73.7608C25.126 74.1739 24.7965 74.2152 24.3435 74.2152H15.2834C15.1187 74.2152 14.9952 74.2978 14.9952 74.0913C14.954 73.926 14.9952 73.7608 15.0775 73.6369L27.8852 52.5701L15.407 31.3793C15.2834 31.2141 15.2422 31.0489 15.3246 30.9663C15.407 30.8423 15.5717 30.801 15.7364 30.801H25.0848C25.2907 30.801 25.4966 30.8423 25.6613 30.8836C25.8261 30.9663 25.9496 31.0902 26.0732 31.2554C26.8556 33.0316 27.7616 34.8079 28.7088 36.5841C29.6972 38.3603 30.6444 40.0952 31.6739 41.8301C32.6623 43.565 33.5683 45.2999 34.4331 47.0762H34.5155C35.3803 45.2586 36.2863 43.4824 37.1923 41.7475C38.0983 40.0126 39.0455 38.2777 39.9927 36.5428C40.9399 34.8079 41.8459 33.0316 42.7519 31.338C42.7931 31.1728 42.8755 31.0076 42.999 30.9249C43.1638 30.8423 43.3285 30.801 43.5344 30.8423H52.2238C52.4297 30.801 52.6357 30.9249 52.6768 31.1315C52.718 31.1728 52.6357 31.338 52.5533 31.4206V31.4206Z" fill="#FF61F6"/>
<path fill-rule="evenodd" clip-rule="evenodd" d="M62.7253 73.1411C65.4845 74.4217 68.532 75.0413 71.5795 75C73.7209 75 75.8212 74.7934 77.9215 74.4217C80.2277 74.0086 82.4927 73.3477 84.6342 72.4389C84.9225 72.315 85.046 72.0671 85.046 71.778C85.0397 71.6697 85.0333 71.5586 85.0268 71.4447C84.9912 70.8201 84.951 70.1159 84.8813 69.3822C84.8775 69.2988 84.8737 69.2162 84.87 69.1342C84.8329 68.3225 84.7989 67.579 84.7989 66.9037V27.579V27.4964C84.7578 27.3311 84.593 27.1659 84.3871 27.2072H76.0271C75.7389 27.2072 75.6153 27.3725 75.6153 27.6616V40.7148C75.3866 40.6957 75.1756 40.6854 74.9781 40.6758C74.7488 40.6646 74.5378 40.6543 74.3387 40.6322C73.968 40.5908 73.6797 40.5908 73.4738 40.5908C69.3968 40.5908 65.9375 41.3757 63.0547 42.9867C60.3367 44.4737 58.0717 46.7044 56.5068 49.3893C54.983 52.033 54.2006 55.0485 54.2418 58.1052C54.2418 61.8642 54.983 65.0036 56.5068 67.5233C57.9893 69.9605 60.1308 71.9432 62.7253 73.1411ZM75.6153 48.5632V66.7385C75.1211 66.9037 74.6681 66.9863 74.1328 66.945C73.5974 66.9863 73.0208 67.0276 72.4031 67.0276C71.25 67.0276 70.0969 66.8624 68.985 66.4906C67.9142 66.1602 66.9671 65.5819 66.1846 64.8383C65.3609 64.0122 64.7432 63.0208 64.3314 61.9055C63.8372 60.5424 63.5901 59.0966 63.6313 57.6508C63.6313 55.5028 64.0843 53.7266 64.9903 52.4048C65.8963 51.0829 67.0906 50.0503 68.4908 49.348C69.9322 48.6045 71.5383 48.274 73.1444 48.274C73.5974 48.274 74.0504 48.3153 74.5034 48.3566C74.874 48.398 75.2447 48.4806 75.6153 48.5632Z" fill="#FF61F6"/>
</svg>
