<svg width="100" height="100" viewBox="0 0 100 100" fill="none" xmlns="http://www.w3.org/2000/svg">
<path d="M17.7083 0H82.2917C92.0833 0 100 8.11966 100 18.1624V81.8376C100 91.8803 92.0833 100 82.2917 100H17.7083C7.91667 100 0 91.8803 0 81.8376V18.1624C0 8.11966 7.91667 0 17.7083 0Z" fill="#001E36"/>
<path fill-rule="evenodd" clip-rule="evenodd" d="M20.8333 28.0084V71.2768C20.8333 71.6552 21 71.8234 21.3333 71.8234H29.25H29.4167C29.7083 71.7813 29.9167 71.5291 29.875 71.2347V57.737H29.8751C30.6667 57.737 31.25 57.737 31.6667 57.7791C32.0833 57.8211 32.75 57.8211 33.75 57.8211C37.1667 57.8211 40.2917 57.4427 43.125 56.3914C45.8333 55.3823 48.1667 53.6162 49.8333 51.2615C51.5 48.9067 52.3333 45.9213 52.3333 42.305C52.3333 40.4128 52 38.6047 51.375 36.8387C50.7083 35.0306 49.6667 33.3907 48.3333 32.0451C46.75 30.4893 44.8333 29.3119 42.75 28.5971C40.4167 27.7141 37.5833 27.2936 34.1667 27.2936C32.9167 27.2936 31.6667 27.2936 30.375 27.3356C29.7514 27.3559 29.1472 27.3664 28.5625 27.3766C27.936 27.3875 27.3319 27.398 26.75 27.4197C26.2044 27.4401 25.6783 27.4506 25.1671 27.4608C24.6244 27.4717 24.0983 27.4822 23.5833 27.5038C22.625 27.5459 21.9583 27.5459 21.25 27.5459C20.9583 27.5459 20.8333 27.7141 20.8333 28.0084ZM29.9167 49.7898V35.6613C30.2083 35.6193 30.7917 35.5772 31.625 35.6193C32.4167 35.5772 33.375 35.5772 34.4583 35.5772C36.1667 35.5352 37.8333 35.7875 39.375 36.4182C40.5833 36.8807 41.5833 37.7217 42.2917 38.815C42.9583 39.9503 43.2917 41.2538 43.25 42.5573C43.25 44.4075 42.8333 45.8372 41.9583 46.8884C41.0417 47.9396 39.875 48.7385 38.5417 49.117C37 49.6216 35.375 49.8739 33.75 49.8739H31.5417C31.0776 49.8739 30.5776 49.8376 30.0417 49.7988C30.0002 49.7958 29.9585 49.7928 29.9167 49.7898Z" fill="#31A8FF"/>
<path d="M78.3333 47.2247C77.0833 46.552 75.75 46.0894 74.3333 45.7951C72.7917 45.4587 71.25 45.2484 69.6667 45.2484C68.8333 45.2064 67.9583 45.3325 67.1667 45.5428C66.625 45.6689 66.1667 45.9633 65.875 46.3838C65.6667 46.7202 65.5417 47.1406 65.5417 47.5191C65.5417 47.8975 65.7083 48.276 65.9583 48.6124C66.3333 49.0749 66.8333 49.4533 67.375 49.7477C68.3333 50.2523 69.3333 50.7148 70.3333 51.1353C72.5833 51.8922 74.75 52.9434 76.75 54.2049C78.125 55.0879 79.25 56.2653 80.0417 57.6949C80.7083 59.0405 81.0417 60.5122 81 62.026C81.0417 64.0023 80.4583 65.9786 79.375 67.6185C78.2083 69.3004 76.5833 70.6039 74.7083 71.3608C72.6667 72.2439 70.1667 72.7064 67.1667 72.7064C65.25 72.7064 63.375 72.5382 61.5 72.1598C60.0417 71.9075 58.5833 71.4449 57.25 70.8142C56.9583 70.646 56.75 70.3517 56.7917 70.0153V62.6987C56.7917 62.5726 56.8333 62.4044 56.9583 62.3203C57.0833 62.2362 57.2083 62.2783 57.3333 62.3624C58.9583 63.3295 60.6667 64.0023 62.5 64.4228C64.0833 64.8432 65.75 65.0535 67.4167 65.0535C69 65.0535 70.125 64.8432 70.875 64.4648C71.5417 64.1705 72 63.4556 72 62.6987C72 62.1101 71.6667 61.5634 71 61.0168C70.3333 60.4702 68.9583 59.8394 66.9167 59.0405C64.7917 58.2836 62.8333 57.2744 61 56.013C59.7083 55.0879 58.625 53.8685 57.8333 52.4388C57.1667 51.0932 56.8333 49.6215 56.875 48.1498C56.875 46.3417 57.375 44.6177 58.2917 43.0619C59.3333 41.3799 60.875 40.0344 62.6667 39.1934C64.625 38.1842 67.0833 37.7217 70.0417 37.7217C71.75 37.7217 73.5 37.8478 75.2083 38.1001C76.4583 38.2683 77.6667 38.6047 78.7917 39.0672C78.9583 39.1093 79.125 39.2775 79.2083 39.4457C79.25 39.6139 79.2917 39.7821 79.2917 39.9503V46.8042C79.2917 46.9724 79.2083 47.1406 79.0833 47.2247C78.7083 47.3088 78.5 47.3088 78.3333 47.2247Z" fill="#31A8FF"/>
</svg>
