<svg width="100" height="100" viewBox="0 0 100 100" fill="none" xmlns="http://www.w3.org/2000/svg">
<path d="M17.7086 1H82.2919C92.0836 1 100 8.91667 100 18.7083V80.7917C100 90.5833 92.0836 98.5 82.2919 98.5H17.7086C7.91691 98.5 0.000244141 90.5833 0.000244141 80.7917V18.7083C0.000244141 8.91667 7.91691 1 17.7086 1Z" fill="#00005B"/>
<path d="M40.167 59.3333H24.667L21.5003 69.1667C21.417 69.5417 21.0837 69.7916 20.7087 69.75H12.8753C12.417 69.75 12.292 69.5 12.417 69L25.8337 30.5416C25.9587 30.125 26.0837 29.75 26.2503 29.25C26.417 28.375 26.5003 27.4583 26.5003 26.5416C26.4587 26.3333 26.6253 26.125 26.8337 26.0833H26.9587H37.6253C37.917 26.0833 38.1253 26.2083 38.167 26.4166L53.3753 68.9166C53.5003 69.375 53.3753 69.5833 52.9587 69.5833H44.2503C43.9587 69.625 43.667 69.4166 43.5837 69.125L40.167 59.125V59.3333ZM27.0837 51.0416H37.667C37.417 50.1666 37.0837 49.125 36.7087 48.0416C36.3337 46.9166 35.9587 45.7083 35.5837 44.4583C35.167 43.1666 34.792 41.9166 34.3753 40.625C33.9587 39.3333 33.5837 38.125 33.2503 36.9166C32.917 35.75 32.6253 34.6666 32.3337 33.6666H32.2503C31.8753 35.4583 31.417 37.25 30.8337 39.0416C30.2087 41.0416 29.5837 43.125 28.917 45.2083C28.3753 47.3333 27.7087 49.2916 27.0837 51.0416Z" fill="#9999FF"/>
<path d="M77.917 55.5833H64.7087C64.8753 56.875 65.292 58.1666 66.0003 59.2916C66.7503 60.4166 67.792 61.2916 69.042 61.7916C70.7087 62.5 72.542 62.875 74.3753 62.8333C75.8337 62.7916 77.292 62.6666 78.7087 62.375C80.0003 62.2083 81.2503 61.875 82.417 61.4166C82.6253 61.25 82.7503 61.3333 82.7503 61.75V68.125C82.7503 68.2916 82.7087 68.4583 82.667 68.625C82.5837 68.75 82.5003 68.8333 82.3753 68.9166C81.042 69.5 79.667 69.9166 78.2087 70.1666C76.2503 70.5416 74.292 70.7083 72.292 70.6666C69.1253 70.6666 66.4587 70.1666 64.292 69.2083C62.2503 68.3333 60.4587 66.9583 59.042 65.25C57.7087 63.625 56.7503 61.7916 56.167 59.7916C55.5837 57.8333 55.292 55.7916 55.292 53.7083C55.292 51.4583 55.6253 49.25 56.3337 47.0833C57.0003 45 58.042 43.0833 59.4587 41.375C60.8337 39.7083 62.542 38.375 64.5003 37.4166C66.4587 36.4583 68.792 36.125 71.4587 36.125C73.667 36.0833 75.8753 36.5 77.917 37.4166C79.6253 38.1666 81.1253 39.2916 82.292 40.75C83.3753 42.1666 84.2503 43.75 84.792 45.5C85.3337 47.1666 85.5837 48.875 85.5837 50.5833C85.5837 51.5833 85.542 52.4583 85.5003 53.25C85.417 54.0416 85.3753 54.625 85.3337 55C85.292 55.2916 85.042 55.5416 84.7503 55.5416C84.5003 55.5416 84.042 55.5833 83.3753 55.625C82.7087 55.7083 81.917 55.75 80.9587 55.75C80.0003 55.75 79.0003 55.5833 77.917 55.5833ZM64.7087 49.5H73.5003C74.5837 49.5 75.3753 49.5 75.8753 49.4583C76.2087 49.4166 76.542 49.3333 76.8337 49.125V48.7083C76.8337 48.1666 76.7503 47.6666 76.5837 47.1666C75.8337 44.8333 73.6253 43.25 71.167 43.3333C68.8753 43.2083 66.7087 44.4166 65.6253 46.5C65.1253 47.4583 64.8337 48.4583 64.7087 49.5Z" fill="#9999FF"/>
</svg>
