<svg width="100" height="100" viewBox="0 0 100 100" fill="none" xmlns="http://www.w3.org/2000/svg">
<path d="M17.7083 1H82.2917C92.0833 1 100 8.91667 100 18.7083V80.7917C100 90.5833 92.0833 98.5 82.2917 98.5H17.7083C7.91667 98.5 0 90.5833 0 80.7917V18.7083C0 8.91667 7.91667 1 17.7083 1Z" fill="#330000"/>
<path d="M48.4584 59.4999H32.9584L29.7917 69.2916C29.7084 69.6666 29.375 69.9166 29 69.8749H21.1667C20.7084 69.8749 20.5834 69.6249 20.7084 69.1249L34.125 30.4999C34.25 30.0833 34.375 29.6249 34.5417 29.1249C34.7084 28.2499 34.7917 27.3333 34.7917 26.4166C34.75 26.2083 34.9167 25.9999 35.125 25.9583C35.1667 25.9583 35.2084 25.9583 35.25 25.9583H45.9167C46.25 25.9583 46.4167 26.0833 46.4584 26.2916L61.6667 69.2082C61.7917 69.6666 61.6667 69.8749 61.25 69.8749H52.5417C52.25 69.9166 51.9584 69.7082 51.875 69.4166L48.4584 59.4999ZM35.375 51.0416H45.9584C45.7084 50.1666 45.375 49.1249 45 48.0416C44.625 46.9166 44.25 45.7083 43.875 44.4583C43.4584 43.1666 43.0834 41.9166 42.6667 40.6249C42.25 39.3333 41.875 38.1249 41.5417 36.9166C41.2084 35.7499 40.9167 34.6666 40.625 33.6666H40.5417C40.1667 35.4583 39.7084 37.2499 39.125 39.0416C38.5 41.0416 37.875 43.1249 37.2084 45.2083C36.625 47.3333 36 49.2916 35.375 51.0416Z" fill="#FF9A00"/>
<path d="M70.7501 33.0833C69.3751 33.125 68.0418 32.5833 67.0418 31.625C66.0834 30.5833 65.5834 29.2083 65.6251 27.7917C65.5834 26.375 66.1251 25.0417 67.1251 24.0833C68.1251 23.125 69.4584 22.625 70.8334 22.625C72.4584 22.625 73.7084 23.125 74.6251 24.0833C75.5418 25.0833 76.0418 26.4167 76.0001 27.7917C76.0418 29.2083 75.5418 30.5833 74.5418 31.625C73.5834 32.625 72.1668 33.1667 70.7501 33.0833ZM66.0834 69.25V37.1667C66.0834 36.75 66.2501 36.5833 66.6251 36.5833H74.8751C75.2501 36.5833 75.4168 36.7917 75.4168 37.1667V69.25C75.4168 69.7083 75.2501 69.9167 74.8751 69.9167H66.7084C66.2918 69.9167 66.0834 69.6667 66.0834 69.25Z" fill="#FF9A00"/>
</svg>
