<svg width="100" height="100" viewBox="0 0 100 100" fill="none" xmlns="http://www.w3.org/2000/svg">
<rect width="100" height="100" rx="7.2178" transform="matrix(-1 0 0 1 100 0)" fill="#E9C800"/>
<path fill-rule="evenodd" clip-rule="evenodd" d="M73.4808 4.47083H26.5192C14.0883 4.47083 4.08075 14.5597 4.08075 27.0916V72.9083C4.48312 82.6905 6.03087 76.5064 8.97694 65.6733C12.4009 53.0829 23.5517 42.0788 37.1314 33.8319C47.4964 27.5373 59.098 23.5178 80.216 23.1354C92.1926 22.9185 91.1353 7.59177 73.4808 4.47083Z" fill="url(#paint0_linear_147648_347)"/>
<path fill-rule="evenodd" clip-rule="evenodd" d="M60.2814 23.9144C60.2814 31.605 54.0455 37.8395 46.3531 37.8395C38.6606 37.8395 32.4247 31.605 32.4247 23.9144C32.4247 16.2238 38.6606 9.98938 46.3531 9.98938C54.0455 9.98938 60.2814 16.2238 60.2814 23.9144Z" fill="white"/>
<path fill-rule="evenodd" clip-rule="evenodd" d="M38.268 34.2378C39.9654 35.0357 48.5053 33.3655 49.3804 34.1168C50.2678 34.8786 47.2331 37.754 48.9381 39.0242C52.9861 42.0398 63.6924 42.9247 73.3019 39.3789L76.9431 49.3897C71.6629 52.3016 63.7593 53.9889 53.6396 53.03L80.2202 79.7863L70.3707 88.6479L49.923 67.1755C41.651 81.6661 30.8346 87.3441 22.3254 92.5274L15.1756 81.25C48.9284 59.9417 30.2221 50.4043 38.4051 38.2304C39.0593 37.257 37.1576 35.1744 38.268 34.2378V34.2378Z" fill="white"/>
<defs>
<linearGradient id="paint0_linear_147648_347" x1="-8.96702" y1="-4.36333" x2="1.08635" y2="34.1595" gradientUnits="userSpaceOnUse">
<stop stop-color="white"/>
<stop offset="1" stop-color="white" stop-opacity="0.01"/>
</linearGradient>
</defs>
</svg>
