<svg width="100" height="100" viewBox="0 0 100 100" fill="none" xmlns="http://www.w3.org/2000/svg">
<path d="M0 50C0 22.3858 22.3858 0 50 0C77.6142 0 100 22.3858 100 50C100 77.6142 77.6142 100 50 100C22.3858 100 0 77.6142 0 50Z" fill="white"/>
<path fill-rule="evenodd" clip-rule="evenodd" d="M74.9982 63.7872C74.9807 62.2203 74.6408 60.6204 74.024 59.0231C73.7186 58.2295 73.4488 57.6048 72.8378 56.2417L72.8021 56.162L72.6327 55.7835C68.8838 47.4614 64.9407 39.211 60.8048 31.0324C60.7001 30.8268 60.6168 30.6624 60.4324 30.2982L60.4249 30.2833C59.7482 28.9465 59.4365 28.3423 59.0307 27.5994C58.2875 26.2486 57.5302 25.193 56.6153 24.3293C55.0056 22.7663 52.8268 21.8123 50.5633 21.6688L49.5782 21.6666C47.2006 21.7848 44.9495 22.7769 43.2938 24.4205C42.4267 25.2569 41.6995 26.2815 40.9738 27.5988C40.5664 28.3422 40.2314 28.9905 39.5926 30.2541L39.5171 30.4032C39.3712 30.6919 39.3077 30.8174 39.2255 30.9794C36.4732 36.4184 33.7871 41.9329 31.1653 47.5237C29.2478 51.6299 27.8933 54.5869 26.5904 57.541C25.7861 59.3729 25.3307 60.7431 25.1315 62.1981C24.7097 65.0051 25.3122 67.9664 26.7993 70.4009C28.08 72.5136 30.0008 74.2089 32.2364 75.19C33.9783 75.9569 35.8983 76.3037 37.7886 76.19C40.1771 76.0609 42.5758 75.2222 44.7982 73.8195C46.5739 72.7097 48.1931 71.3138 50.003 69.4174C51.6417 71.1396 53.1314 72.4496 54.7444 73.5214C56.9423 74.994 59.2994 75.9179 61.6774 76.1466C64.4419 76.4408 67.2965 75.7362 69.6065 74.1759C71.6402 72.8118 73.2463 70.801 74.1488 68.492C74.7344 66.9991 75.0255 65.3898 74.9982 63.7872ZM69.371 66.0545C68.8935 67.7327 67.7412 69.2037 66.2455 70.0463C64.9274 70.7971 63.3353 71.068 61.8156 70.8095C60.0056 70.5225 58.2258 69.5872 56.3739 68.0677C55.4659 67.3247 54.5894 66.4776 53.5924 65.3998C55.3797 63.0394 56.7084 60.976 57.7572 58.829C59.0516 56.1699 59.7817 53.687 59.8587 51.2213C59.9102 49.3695 59.5465 47.5852 58.7572 46.0532C57.6916 43.9424 55.7769 42.2808 53.5225 41.4728C51.4816 40.7303 49.2063 40.6592 47.1076 41.2684C45.0897 41.8499 43.2859 43.0833 42.0531 44.7546C40.9795 46.1962 40.3352 47.9879 40.1876 49.8576C39.9907 52.1932 40.4749 54.6233 41.5167 57.1959C42.6525 59.9527 44.2644 62.5969 46.4179 65.3932C45.6839 66.2035 44.8887 66.9818 44.0369 67.7266C42.1905 69.3178 40.44 70.3287 38.641 70.725C37.0592 71.0865 35.3933 70.8939 34.0076 70.1799C32.3564 69.3419 31.0836 67.757 30.606 65.9449C30.2467 64.6351 30.3076 63.1833 30.761 61.8218C31.0278 61.025 31.2968 60.3825 31.9305 58.9689L31.9838 58.8501C32.0995 58.592 32.1742 58.4246 32.2508 58.2512C35.9204 50.1024 39.8057 41.9699 43.8996 33.8619C43.9865 33.6901 44.056 33.5526 44.2122 33.2429L44.228 33.2117C44.9592 31.7623 45.2987 31.1026 45.731 30.3089C46.3109 29.2586 46.8216 28.576 47.4376 28.0993C48.176 27.5111 49.1026 27.196 50.0157 27.2171C50.9922 27.206 51.9468 27.5603 52.6853 28.1922C53.3445 28.7497 53.8488 29.4851 54.5228 30.7663C55.4918 32.6199 56.3351 34.2925 57.8798 37.3999L58.1558 37.955L58.1863 38.0163C61.6478 44.9962 64.9563 52.0035 68.1092 59.0372C68.152 59.1355 68.1853 59.2112 68.2657 59.3937L68.3247 59.5275C68.9174 60.8711 69.1604 61.4813 69.371 62.2379C69.7176 63.4949 69.7201 64.8363 69.3716 66.0524L69.371 66.0545ZM46.4179 65.3932C46.6173 65.1731 46.8122 64.9507 47.0025 64.7259L46.9814 66.1128C46.7896 65.8717 46.6018 65.6319 46.4179 65.3932ZM53.5924 65.3998C53.4106 65.6399 53.224 65.8831 53.0325 66.1298L52.9838 64.7303C53.1922 64.9632 53.3947 65.186 53.5924 65.3998ZM50.0002 61.004C50.3178 61.4478 50.5664 61.7715 50.8484 62.1096L50.015 62.8099L49.1513 62.1475C49.4478 61.7581 49.7306 61.3774 50.0002 61.004ZM50.0002 61.004C51.6799 58.6776 52.8492 56.6334 53.6414 54.5155C54.2399 52.8873 54.4889 51.4385 54.3397 50.1095C54.2211 49.07 53.7516 48.1186 53.0365 47.4982C51.5404 46.1819 49.1161 46.0381 47.4164 47.1552C46.7366 47.5963 46.2028 48.2653 45.922 49.04C45.6259 49.8199 45.5564 50.7543 45.682 51.84C45.8296 53.0126 46.1993 54.2246 46.7868 55.5667C47.404 56.9589 48.1931 58.3519 49.1665 59.8059L49.2212 59.8856L49.3148 60.0219C49.5849 60.415 49.8055 60.7321 50.0002 61.004Z" fill="#FF7977"/>
</svg>
