<svg width="100" height="100" viewBox="0 0 100 100" fill="none" xmlns="http://www.w3.org/2000/svg">
<path d="M45.5452 15.4635L14.476 28.3194C12.7483 29.0344 12.7662 31.4889 14.5048 32.178L45.7035 44.5501C48.4447 45.6373 51.4974 45.6373 54.2386 44.5501L85.4378 32.1776C87.1759 31.4889 87.1947 29.0349 85.466 28.3198L54.3978 15.463C51.5633 14.2902 48.3792 14.2902 45.5448 15.463" fill="#FCB400"/>
<path d="M52.7391 51.3054V82.2131C52.7391 83.6827 54.2214 84.6898 55.5879 84.1481L90.3528 70.654C90.7405 70.5003 91.0732 70.2336 91.3075 69.8886C91.5418 69.5436 91.6671 69.1361 91.667 68.719V37.8118C91.667 36.3417 90.1847 35.3351 88.8182 35.8768L54.0533 49.3709C53.6656 49.5247 53.3331 49.7914 53.0988 50.1364C52.8644 50.4814 52.7391 50.8889 52.7391 51.3059" fill="#18BFFF"/>
<path d="M44.6206 52.9006L34.3032 57.8822L33.2556 58.3886L11.4761 68.8243C10.0959 69.4903 8.33334 68.4842 8.33334 66.9505V37.9416C8.33334 37.3867 8.61785 36.9077 8.99938 36.5473C9.1559 36.3915 9.33348 36.2583 9.52694 36.1517C10.047 35.8394 10.7893 35.756 11.4205 36.0056L44.4473 49.0918C46.126 49.7579 46.2579 52.1102 44.6206 52.9011" fill="#F82B60"/>
<path d="M44.6206 52.9006L34.3032 57.8822L8.99939 36.5469C9.15594 36.3912 9.33352 36.2581 9.52694 36.1517C10.047 35.8394 10.7893 35.756 11.4205 36.0056L44.4473 49.0918C46.126 49.7579 46.2579 52.1102 44.6206 52.9011" fill="black" fill-opacity="0.25"/>
</svg>
