<svg width="100" height="100" viewBox="0 0 100 100" fill="none" xmlns="http://www.w3.org/2000/svg">
<path d="M13.1667 -0.00134277H86.8333C94.0833 -0.00134277 100 5.88616 100 13.1653V86.8362C100 94.0862 94.1125 99.9987 86.8333 99.9987H13.1667C5.91667 99.9987 0 94.1153 0 86.8362V13.132C0 5.88616 5.88333 -0.00134277 13.1667 -0.00134277Z" fill="#5468FF"/>
<path d="M60.4211 22.3226V18.8935C60.4202 17.7426 59.9624 16.6393 59.1482 15.8259C58.3341 15.0125 57.2303 14.5557 56.0794 14.556H45.9586C44.8078 14.5557 43.704 15.0125 42.8898 15.8259C42.0757 16.6393 41.6178 17.7426 41.6169 18.8935V22.4143C41.6169 22.806 41.9794 23.081 42.3753 22.9893C45.2383 22.1627 48.2037 21.7446 51.1836 21.7476C54.0711 21.7476 56.9294 22.1393 59.6919 22.8976C60.0586 22.9893 60.4211 22.7185 60.4211 22.3226ZM32.6836 26.8101L30.9544 25.081C30.5515 24.6778 30.0732 24.358 29.5466 24.1397C29.0201 23.9215 28.4557 23.8092 27.8857 23.8092C27.3157 23.8092 26.7513 23.9215 26.2248 24.1397C25.6982 24.358 25.2198 24.6778 24.8169 25.081L22.7503 27.1435C22.3462 27.545 22.0256 28.0225 21.8068 28.5485C21.588 29.0744 21.4754 29.6384 21.4754 30.2081C21.4754 30.7777 21.588 31.3417 21.8068 31.8676C22.0256 32.3936 22.3462 32.8711 22.7503 33.2726L24.4503 34.9726C24.7253 35.2435 25.1211 35.181 25.3628 34.9101C26.3657 33.5327 27.4732 32.2344 28.6753 31.0268C29.8875 29.8105 31.1974 28.6956 32.5919 27.6935C32.8953 27.5101 32.9253 27.0851 32.6836 26.8101ZM51.1536 37.6976V52.531C51.1536 52.956 51.6119 53.2601 52.0036 53.0476L65.1911 46.2226C65.4911 46.0726 65.5828 45.706 65.4328 45.406C62.6994 40.6101 57.6244 37.3351 51.7619 37.1226C51.4578 37.1226 51.1536 37.3643 51.1536 37.6976ZM51.1536 73.431C40.1578 73.431 31.2244 64.5101 31.2244 53.531C31.2244 42.5518 40.1578 33.6351 51.1536 33.6351C62.1536 33.6351 71.0836 42.5518 71.0836 53.531C71.0836 64.5101 62.1836 73.431 51.1536 73.431ZM51.1536 25.2643C35.5369 25.2643 22.8703 37.9143 22.8703 53.531C22.8703 69.1518 35.5369 81.7726 51.1536 81.7726C66.7703 81.7726 79.4369 69.1226 79.4369 53.5018C79.4369 37.881 66.7994 25.2643 51.1536 25.2643Z" fill="white"/>
</svg>
