<svg width="100" height="100" viewBox="0 0 100 100" fill="none" xmlns="http://www.w3.org/2000/svg">
<g clip-path="url(#clip0_755_12320)">
<g filter="url(#filter0_d_755_12320)">
<path d="M50.0001 93.7491C75.8884 93.7491 96.8751 72.7624 96.8751 46.8741C96.8751 20.9857 75.8884 -0.000915527 50.0001 -0.000915527C24.1117 -0.000915527 3.12506 20.9857 3.12506 46.8741C3.12506 72.7624 24.1117 93.7491 50.0001 93.7491Z" fill="black"/>
</g>
<path d="M50.0001 93.7491C75.8884 93.7491 96.8751 72.7624 96.8751 46.8741C96.8751 20.9857 75.8884 -0.000915527 50.0001 -0.000915527C24.1117 -0.000915527 3.12506 20.9857 3.12506 46.8741C3.12506 72.7624 24.1117 93.7491 50.0001 93.7491Z" fill="#E5E5E5"/>
<path style="mix-blend-mode:soft-light" d="M50.0001 93.7491C75.8884 93.7491 96.8751 72.7624 96.8751 46.8741C96.8751 20.9857 75.8884 -0.000915527 50.0001 -0.000915527C24.1117 -0.000915527 3.12506 20.9857 3.12506 46.8741C3.12506 72.7624 24.1117 93.7491 50.0001 93.7491Z" fill="url(#paint0_linear_755_12320)"/>
<path d="M50.0001 92.1866C75.0255 92.1866 95.3126 71.8995 95.3126 46.8741C95.3126 21.8487 75.0255 1.56158 50.0001 1.56158C24.9747 1.56158 4.68756 21.8487 4.68756 46.8741C4.68756 71.8995 24.9747 92.1866 50.0001 92.1866Z" stroke="black" stroke-opacity="0.097" stroke-width="3.125"/>
<path d="M32.2871 71.8741L54.8535 32.4935L57.9508 42.6705L40.6942 71.8741H49.5438L60.6057 52.8475L65.473 71.8741H73.4376L65.9154 43.5555L71.2252 34.2635H63.2606L60.1632 21.8741H52.6411L23.4376 71.8741H32.2871Z" fill="black"/>
</g>
<defs>
<filter id="filter0_d_755_12320" x="6.10352e-05" y="-1.56342" width="100" height="100" filterUnits="userSpaceOnUse" color-interpolation-filters="sRGB">
<feFlood flood-opacity="0" result="BackgroundImageFix"/>
<feColorMatrix in="SourceAlpha" type="matrix" values="0 0 0 0 0 0 0 0 0 0 0 0 0 0 0 0 0 0 127 0" result="hardAlpha"/>
<feOffset dy="1.5625"/>
<feGaussianBlur stdDeviation="1.5625"/>
<feComposite in2="hardAlpha" operator="out"/>
<feColorMatrix type="matrix" values="0 0 0 0 0 0 0 0 0 0 0 0 0 0 0 0 0 0 0.199474 0"/>
<feBlend mode="normal" in2="BackgroundImageFix" result="effect1_dropShadow_755_12320"/>
<feBlend mode="normal" in="SourceGraphic" in2="effect1_dropShadow_755_12320" result="shape"/>
</filter>
<linearGradient id="paint0_linear_755_12320" x1="50.0001" y1="-0.000915527" x2="50.0001" y2="93.7491" gradientUnits="userSpaceOnUse">
<stop stop-color="white" stop-opacity="0.5"/>
<stop offset="1" stop-opacity="0.5"/>
</linearGradient>
<clipPath id="clip0_755_12320">
<rect width="100" height="100" fill="white" transform="translate(0 -0.000854492)"/>
</clipPath>
</defs>
</svg>
