<svg width="100" height="100" viewBox="0 0 100 100" fill="none" xmlns="http://www.w3.org/2000/svg">
<path d="M0 50C0 22.3858 22.3858 0 50 0C77.6142 0 100 22.3858 100 50C100 77.6142 77.6142 100 50 100C22.3858 100 0 77.6142 0 50Z" fill="white"/>
<path fill-rule="evenodd" clip-rule="evenodd" d="M38.381 43.6834C37.1434 45.4649 36.5246 47.6102 36.5246 50.123H36.5171C36.5171 53.2884 37.4172 55.7374 39.2174 57.4626C41.0176 59.1879 43.3204 60.0505 46.1183 60.0505C47.9372 60.0505 49.4674 59.8704 50.7051 59.5029C52.6666 58.9553 54.6656 57.5752 56.7058 55.3549C56.8521 55.5387 57.1071 55.8912 57.4747 56.4238C57.8347 56.9526 58.0973 57.3014 58.2623 57.4889C58.4235 57.6689 58.6973 57.9615 59.0799 58.359C59.4624 58.7603 59.905 59.1804 60.415 59.6154C61.0339 59.8704 61.5627 59.8329 61.9977 59.5029C62.2528 59.2854 63.888 57.8714 66.9109 55.2461C67.2034 55.0286 67.3459 54.7736 67.3459 54.4848C67.3459 54.2297 67.2372 53.9372 67.0196 53.6109L65.767 51.9457C65.5119 51.6007 65.2419 51.0381 64.9794 50.2505C64.7018 49.4741 64.5668 48.6115 64.5668 47.6627V34.461C64.5668 34.3185 64.5518 33.8534 64.5143 33.0733C64.4768 32.2932 64.4243 31.7794 64.3493 31.5432C64.2818 31.3069 64.1693 30.8793 64.0192 30.268C63.8767 29.6454 63.7192 29.1729 63.5317 28.8428C63.3554 28.5128 63.1041 28.1452 62.7928 27.7252C62.4816 27.3089 62.1478 26.9151 61.7877 26.5513C59.4549 24.406 56.2183 23.3334 52.074 23.3334H50.7126C47.4797 23.5134 44.6481 24.3873 42.229 25.9512C39.8137 27.5151 38.2948 29.9154 37.676 33.1521C37.6384 33.2984 37.6197 33.4221 37.6197 33.5346C37.6197 34.0447 37.931 34.371 38.5461 34.521L44.8206 35.2861C45.4019 35.1774 45.7657 34.7573 45.9157 34.0297C46.167 32.8671 46.7296 31.9557 47.6034 31.2994C48.4773 30.6393 49.5162 30.2642 50.7163 30.1517H51.1401C52.7791 30.1517 53.9792 30.6993 54.7406 31.7944C55.2469 32.5895 55.5094 34.1572 55.5094 36.4825V37.4089C53.2892 37.5889 51.684 37.7314 50.7088 37.8439C47.836 38.2077 45.4169 38.8078 43.4554 39.6442C41.3064 40.5555 39.6187 41.9019 38.381 43.6834ZM46.9696 52.4408C46.2608 51.5782 45.9082 50.4455 45.9082 49.0278L45.9045 49.0316C45.9045 45.9037 47.5022 43.8859 50.7051 42.9783C51.7927 42.6895 53.3942 42.5395 55.5057 42.5395V43.9009C55.5057 45.0636 55.4982 45.9037 55.4794 46.4138C55.4607 46.9238 55.3519 47.5877 55.1531 48.4015C54.9506 49.2191 54.6506 49.9729 54.253 50.6668C53.4167 52.2307 52.2315 53.2096 50.7088 53.6109C50.6338 53.6109 50.4951 53.6297 50.2963 53.6672C50.0938 53.7009 49.9437 53.7159 49.8312 53.7159C48.6311 53.7159 47.6822 53.2921 46.9696 52.4408Z" fill="#221F1F"/>
<path d="M68.8161 66.595C68.8911 66.445 69.0036 66.3025 69.1424 66.1562C70.0538 65.5411 70.9276 65.1211 71.7677 64.9035C73.1441 64.5435 74.4906 64.341 75.7995 64.3035C76.1633 64.266 76.5121 64.2885 76.8346 64.3597C78.4736 64.5097 79.4599 64.7798 79.7825 65.1848C79.9325 65.3986 80 65.7249 80 66.1599V66.5425C80 67.8177 79.655 69.3178 78.9649 71.0431C78.271 72.7683 77.3072 74.1634 76.077 75.2173C75.8895 75.3673 75.7282 75.4349 75.5819 75.4349C75.5069 75.4349 75.4319 75.4161 75.3644 75.3823C75.1394 75.2698 75.0906 75.0711 75.1994 74.7823C76.5496 71.6169 77.2172 69.4191 77.2172 68.1814C77.2172 67.7801 77.1421 67.4876 76.9996 67.3076C76.6358 66.8763 75.6195 66.655 73.943 66.655C73.3279 66.655 72.6003 66.6925 71.7677 66.7675C70.8526 66.88 70.0163 66.985 69.2549 67.0938C69.0299 67.0938 68.8911 67.0563 68.8161 66.9813C68.7411 66.9063 68.7261 66.8388 68.7636 66.7638C68.7636 66.7263 68.7786 66.6738 68.8161 66.6025V66.595Z" fill="#FF9900"/>
<path d="M20.1125 65.6686C20.2925 65.3761 20.5813 65.3573 20.9826 65.6124C30.0738 70.8855 39.9675 73.5259 50.6601 73.5259C57.786 73.5259 64.8256 72.1944 71.7752 69.5391L72.5628 69.2128C72.9079 69.0628 73.1516 68.9578 73.2979 68.8865C73.8455 68.669 74.273 68.774 74.5843 69.2128C74.8919 69.6479 74.7906 70.0492 74.2843 70.413C73.628 70.8855 72.7916 71.4331 71.7715 72.0482C68.6473 73.9047 65.1556 75.3411 61.3002 76.3612C57.4484 77.3738 53.6867 77.8877 50.0113 77.8877C44.3368 77.8877 38.9736 76.8938 33.9217 74.9135C28.8586 72.9333 24.3355 70.1392 20.3338 66.5387C20.1125 66.3625 20 66.1749 20 65.9949C20 65.8824 20.0375 65.7774 20.1125 65.6686V65.6686Z" fill="#FF9900"/>
</svg>
