<svg width="100" height="100" viewBox="0 0 100 100" fill="none" xmlns="http://www.w3.org/2000/svg">
<g clip-path="url(#clip0_755_12331)">
<path d="M50 0C77.6167 0 100 22.3875 100 50C100 77.6125 77.6167 100 50 100C22.3875 100 0 77.6125 0 50C0 22.3875 22.3875 0 50 0ZM46.1667 80.325L67.1417 45.4208C67.3954 45.1031 67.5375 44.7107 67.5458 44.3042C67.5458 43.8014 67.3461 43.3191 66.9906 42.9636C66.635 42.6081 66.1528 42.4083 65.65 42.4083L53.7708 42.425L57.6208 19.6417L53.7583 19.6292L32.85 54.4917C32.85 54.4917 32.4333 55.2542 32.4333 55.7042C32.4333 56.75 33.2833 57.6 34.3292 57.6L46.125 57.5833L42.3708 80.325H46.1667Z" fill="#005AF0"/>
</g>
<defs>
<clipPath id="clip0_755_12331">
<rect width="100" height="100" fill="white"/>
</clipPath>
</defs>
</svg>
