<svg width="100" height="100" viewBox="0 0 100 100" fill="none" xmlns="http://www.w3.org/2000/svg">
<path fill-rule="evenodd" clip-rule="evenodd" d="M27.2427 89.5298L14.8064 85.0668V66.8389L27.2427 71.0762V89.5298ZM29.524 89.5298L41.9603 85.0676V66.8389L29.524 71.0762V89.5298ZM16.0844 65.4754L28.6709 61.9319L40.3421 65.6954L28.6709 69.6579L16.0844 65.4754ZM12.4363 64.0639L0 59.6025V41.3729L12.4363 45.6102V64.0639ZM14.7176 64.0639L27.1547 59.6025V41.3729L14.7176 45.6102V64.0639ZM1.27799 40.0086L13.8653 36.466L25.5365 40.2294L13.8653 44.192L1.27799 40.0095V40.0086ZM41.4557 64.0639L29.0186 59.6025V41.3729L41.4557 45.6102V64.0639ZM43.737 64.0639L56.1742 59.6025V41.3729L43.737 45.6102V64.0639ZM30.2983 40.0086L42.8848 36.466L54.5551 40.2294L42.8848 44.192L30.2983 40.0095V40.0086ZM56.2621 38.5962L43.825 34.1365V15.907L56.2621 20.1434V38.5962ZM58.5434 38.5962L70.9797 34.1365V15.907L58.5426 20.1434V38.5962H58.5434ZM45.1038 14.5435L57.6912 11L69.3615 14.7626L57.6912 18.726L45.1038 14.5435ZM85.2824 38.5962L72.8453 34.1365V15.907L85.2824 20.1434V38.5962ZM87.5629 38.5962L100 34.1365V15.907L87.5629 20.1434V38.5962ZM74.1233 14.5435L86.7106 11L98.3809 14.7626L86.7106 18.7252L74.1233 14.5427" fill="#FF9900"/>
</svg>
