<svg width="100" height="100" viewBox="0 0 100 100" fill="none" xmlns="http://www.w3.org/2000/svg">
<path d="M95.3326 87.4853C95.3697 94.3511 89.8327 99.9416 82.971 99.9787C82.461 99.9828 81.9467 99.954 81.4408 99.8923C75.0728 98.9502 70.4079 93.4091 70.5642 86.9752V13.0025C70.412 6.56047 75.0892 1.0193 81.4613 0.0854891C88.2777 -0.71257 94.4523 4.16629 95.2504 10.9827C95.3079 11.4846 95.3367 11.9864 95.3326 12.4924V87.4853Z" fill="#F9AB00"/>
<path d="M17.3864 75.2263C24.2274 75.2263 29.7727 80.7715 29.7727 87.6126C29.7727 94.4537 24.2274 99.999 17.3864 99.999C10.5453 99.999 5 94.4537 5 87.6126C5 80.7715 10.5453 75.2263 17.3864 75.2263ZM49.9751 37.6887C43.1011 38.0671 37.7698 43.8305 37.9302 50.7127V83.9802C37.9302 93.0098 41.904 98.4893 47.7249 99.6576C54.4426 101.019 60.9875 96.6792 62.3491 89.9616C62.5178 89.1388 62.6001 88.3037 62.596 87.4645V50.1368C62.6083 43.271 57.0548 37.6969 50.189 37.6846C50.1191 37.6846 50.0451 37.6846 49.9751 37.6887Z" fill="#E37400"/>
</svg>
