<svg width="100" height="100" viewBox="0 0 100 100" fill="none" xmlns="http://www.w3.org/2000/svg">
<path d="M50 100C77.6142 100 100 77.6142 100 50C100 22.3858 77.6142 0 50 0C22.3858 0 0 22.3858 0 50C0 77.6142 22.3858 100 50 100Z" fill="white"/>
<path fill-rule="evenodd" clip-rule="evenodd" d="M57.8259 26.4506L58.4611 25.5166L59.0963 24.596L60.5116 22.5264C60.6877 22.2711 60.6152 21.9284 60.3528 21.7604C60.0939 21.589 59.7383 21.6596 59.5692 21.9149L57.4082 25.063L56.7592 26.0105C54.7052 25.2344 52.4165 24.801 50 24.801C47.587 24.801 45.2948 25.2344 43.2408 26.0105L42.5953 25.063L41.9566 24.1324L40.4377 21.9149C40.2617 21.6596 39.9096 21.5924 39.6472 21.7604C39.3883 21.9284 39.3158 22.2711 39.4884 22.5264L40.9038 24.596L41.5389 25.5166L42.1776 26.4506C37.355 28.6378 34.0928 32.7805 34.0928 37.5211H65.9072C65.9072 32.7805 62.645 28.6378 57.8259 26.4506ZM41.4768 31.4365C41.4768 32.3538 42.2397 33.0963 43.1821 33.0963C44.1245 33.0963 44.8875 32.3538 44.8875 31.4365C44.8875 30.5193 44.1245 29.7802 43.1821 29.7802C42.2397 29.7802 41.4768 30.5193 41.4768 31.4365ZM55.1125 31.4365C55.1125 32.3538 55.8755 33.0963 56.8179 33.0963C57.7603 33.0963 58.5232 32.3538 58.5232 31.4365C58.5232 30.5193 57.7603 29.7802 56.8179 29.7802C55.8755 29.7802 55.1125 30.5193 55.1125 31.4365ZM34.0928 39.7318H34.3379H65.9072V64.0634C65.9072 65.9953 64.2985 67.5676 62.3101 67.5676H59.7107C59.8005 67.86 59.8522 68.1657 59.8522 68.4882V75.4934C59.8522 77.3245 58.323 78.8095 56.4381 78.8095C54.5567 78.8095 53.0309 77.3245 53.0309 75.4934V68.4882C53.0309 68.1657 53.0793 67.86 53.1656 67.5676H46.8344C46.9207 67.86 46.9725 68.1657 46.9725 68.4882V75.4934C46.9725 77.3245 45.4433 78.8095 43.5619 78.8095C41.6805 78.8095 40.1512 77.3245 40.1512 75.4934V68.4882C40.1512 68.1657 40.1995 67.86 40.2893 67.5676H37.6933C35.7049 67.5676 34.0928 65.9953 34.0928 64.0634V39.7318ZM28.4107 39.7318C26.5258 39.7318 25 41.2169 25 43.0479V57.243C25 59.0741 26.5258 60.5591 28.4107 60.5591C30.292 60.5591 31.8179 59.0741 31.8179 57.243V43.0479C31.8179 41.2169 30.292 39.7318 28.4107 39.7318ZM68.1821 43.0479C68.1821 41.2169 69.708 39.7318 71.5928 39.7318C73.4742 39.7318 75 41.2169 75 43.0479V57.243C75 59.0741 73.4742 60.5591 71.5928 60.5591C69.708 60.5591 68.1821 59.0741 68.1821 57.243V43.0479Z" fill="#A4C639"/>
</svg>
