<svg width="100" height="100" viewBox="0 0 100 100" fill="none" xmlns="http://www.w3.org/2000/svg">
<path d="M0 50C0 22.3858 22.3858 0 50 0C77.6142 0 100 22.3858 100 50C100 77.6142 77.6142 100 50 100C22.3858 100 0 77.6142 0 50Z" fill="white"/>
<path fill-rule="evenodd" clip-rule="evenodd" d="M60.9727 20C61.4962 23.5555 60.049 27.0387 58.1399 29.503C56.0974 32.1464 52.5769 34.1909 49.1659 34.0842C48.5432 30.6802 50.1375 27.1729 52.0774 24.8152C54.2054 22.2131 57.8525 20.2168 60.9727 20ZM71.2195 70.045C72.978 67.35 73.6349 65.9905 75 62.9479C65.0714 59.1721 63.4805 45.0569 73.3065 39.6394C70.3094 35.8809 66.0978 33.7021 62.1223 33.7021C59.2578 33.7021 57.2951 34.4497 55.5108 35.1293C54.0239 35.6956 52.6609 36.2147 51.0031 36.2147C49.2117 36.2147 47.6252 35.6459 45.9641 35.0503C44.1388 34.3958 42.2233 33.709 39.8463 33.709C35.385 33.709 30.6362 36.435 27.6255 41.0953C23.3934 47.659 24.1153 59.9982 30.9784 70.5097C33.4314 74.2717 36.709 78.4983 40.9959 78.5362C42.7746 78.5538 43.9583 78.0229 45.2392 77.4484C46.7053 76.7908 48.2988 76.0761 51.0579 76.0614C53.8332 76.0448 55.4015 76.7682 56.8482 77.4355C58.0962 78.0111 59.2536 78.545 61.0172 78.5258C65.3075 78.4914 68.7664 73.807 71.2195 70.045Z" fill="#0B0B0A"/>
</svg>
