<svg width="100" height="100" viewBox="0 0 100 100" fill="none" xmlns="http://www.w3.org/2000/svg">
<path d="M79.79 0H20.1975C9.03637 0 0 9.0375 0 20.2V79.8125C0 90.9625 9.03637 100 20.1975 100H79.8025C90.9511 100 100 90.9625 100 79.8V20.2C99.9875 9.0375 90.9511 0 79.79 0Z" fill="url(#paint0_linear_147648_1522)"/>
<path d="M49.5704 22.9751L51.5952 19.4751C52.845 17.2876 55.6322 16.5501 57.8194 17.8001C60.0066 19.0501 60.744 21.8376 59.4942 24.0251L39.9841 57.8001H54.0949C58.6693 57.8001 61.2315 63.1751 59.2442 66.9001H17.8744C15.3497 66.9001 13.325 64.8751 13.325 62.3501C13.325 59.8251 15.3497 57.8001 17.8744 57.8001H29.473L44.3211 32.0626L39.6842 24.0126C38.4343 21.8251 39.1717 19.0626 41.359 17.7876C43.5462 16.5376 46.3083 17.2751 47.5832 19.4626L49.5704 22.9751ZM32.0226 71.5876L27.6482 79.1751C26.3983 81.3626 23.6112 82.1001 21.424 80.8501C19.2367 79.6001 18.4993 76.8126 19.7492 74.6251L22.9988 69.0001C26.6733 67.8626 29.6604 68.7376 32.0226 71.5876ZM69.6929 57.8251H81.5289C84.0536 57.8251 86.0784 59.8501 86.0784 62.3751C86.0784 64.9001 84.0536 66.9251 81.5289 66.9251H74.9548L79.3917 74.6251C80.6416 76.8126 79.9041 79.5751 77.7169 80.8501C75.5297 82.1001 72.7675 81.3626 71.4927 79.1751C64.0186 66.2126 58.4068 56.5126 54.6823 50.0501C50.8703 43.4751 53.5949 36.8751 56.2821 34.6376C59.2692 39.7626 63.7312 47.5001 69.6929 57.8251Z" fill="white"/>
<defs>
<linearGradient id="paint0_linear_147648_1522" x1="49.9937" y1="0" x2="49.9937" y2="100" gradientUnits="userSpaceOnUse">
<stop stop-color="#0ED4FC"/>
<stop offset="1" stop-color="#0C57EF"/>
</linearGradient>
</defs>
</svg>
