<svg width="100" height="100" viewBox="0 0 100 100" fill="none" xmlns="http://www.w3.org/2000/svg">
<g clip-path="url(#clip0_755_12522)">
<path d="M76.5625 -0.000854492H23.4375C10.4933 -0.000854492 0 10.4925 0 23.4366V76.5616C0 89.5058 10.4933 99.9991 23.4375 99.9991H76.5625C89.5067 99.9991 100 89.5058 100 76.5616V23.4366C100 10.4925 89.5067 -0.000854492 76.5625 -0.000854492Z" fill="#F02E65"/>
<path fill-rule="evenodd" clip-rule="evenodd" d="M62.4789 75.312C57.8852 75.312 53.5789 74.0808 49.8731 71.9296C47.0922 73.5394 44.002 74.6163 40.7582 75.0698C34.152 75.9937 27.4493 74.2554 22.1247 70.2374C19.4856 68.2488 17.2643 65.7597 15.5876 62.9124C13.9109 60.0648 12.8118 56.9148 12.353 53.6425C11.8942 50.3702 12.0847 47.0394 12.9137 43.8405C13.7427 40.6417 15.1939 37.6379 17.1843 35.0003C19.1748 32.3626 21.6655 30.143 24.5141 28.4684C27.3627 26.7937 30.5133 25.6968 33.7862 25.2403C37.0589 24.7838 40.3895 24.9767 43.5875 25.8079C45.7949 26.3817 47.9094 27.2518 49.8746 28.3909C53.5805 26.2408 57.8859 25.0096 62.4789 25.0096C76.3699 25.0096 87.6301 36.27 87.6301 50.1609C87.6301 64.0515 76.3699 75.312 62.4789 75.312ZM45.6629 31.4568L45.6707 31.4502C42.1781 29.8831 38.2861 29.3119 34.4343 29.8506C29.0477 30.6039 24.1809 33.4662 20.9046 37.8078C17.6284 42.1495 16.211 47.6144 16.9643 53.0015C17.7176 58.3878 20.5799 63.2546 24.9215 66.5308C29.263 69.807 34.7283 71.2245 40.1148 70.471C45.5016 69.7179 50.3684 66.8558 53.6445 62.514C56.9207 58.1722 58.3383 52.7073 57.5848 47.3206C57.2375 44.8355 56.441 42.4609 55.2574 40.3023C53.1141 36.4084 49.7418 33.2859 45.6629 31.4568Z" fill="white"/>
<path d="M37.9486 41.4589C37.9184 41.5332 37.534 43.0437 37.1197 44.8351C36.69 46.6265 36.0089 49.4546 35.6247 51.1273C34.8837 54.1921 34.4395 56.2058 34.4395 56.4726C34.4395 56.546 34.8987 56.6058 35.4609 56.6058H36.483L36.9413 54.5621C37.2085 53.4519 37.8009 50.905 38.2745 48.9066C38.7484 46.9074 39.3254 44.4796 39.5481 43.5019C39.7696 42.5246 39.9918 41.6371 40.0363 41.5332C40.0813 41.4003 39.8289 41.3562 39.0592 41.3562C38.4815 41.3562 37.9776 41.4003 37.9486 41.4589ZM29.9974 47.8699L28.6353 49.3507L29.0355 49.8242C29.2569 50.0906 29.8646 50.7574 30.3828 51.305L31.3304 52.3117H34.0251L32.7521 50.9343C32.0556 50.1949 31.4781 49.4839 31.4781 49.3953C31.4781 49.2917 32.0115 48.6257 32.6631 47.9148C33.3142 47.1898 33.8474 46.5671 33.8474 46.4929C33.8474 46.4339 33.2847 46.3894 32.6038 46.3894H31.375L29.9974 47.8699ZM40.3617 46.4781C40.3617 46.523 40.6137 46.8039 40.9238 47.1148C42.0797 48.2699 42.8938 49.2476 42.8492 49.4394C42.8199 49.5433 42.2567 50.2386 41.5762 50.9644L40.3477 52.3117H41.7242L43.1012 52.2968L44.359 50.9203C45.0555 50.1507 45.618 49.4687 45.618 49.38C45.618 49.3066 45.0258 48.6105 44.2852 47.8261L42.9531 46.3894H41.6645C40.9391 46.3894 40.3617 46.4339 40.3617 46.4781Z" fill="white"/>
</g>
<defs>
<clipPath id="clip0_755_12522">
<rect width="100" height="100" fill="white" transform="translate(0 -0.000854492)"/>
</clipPath>
</defs>
</svg>
