<svg width="100" height="100" viewBox="0 0 100 100" fill="none" xmlns="http://www.w3.org/2000/svg">
<g clip-path="url(#clip0_755_12527)">
<path d="M48.2938 7.00383C53.6985 7.1593 58.5798 10.332 60.9188 15.2417L70.2005 34.7667L70.3497 34.3894C70.7183 33.4162 71.0205 32.4191 71.254 31.405L71.3837 30.8003C72.9478 22.98 80.5489 17.9187 88.3837 19.4659C90.2446 19.8377 92.014 20.5724 93.5908 21.6281C95.1676 22.6838 96.521 24.0399 97.5737 25.6188C98.6263 27.1977 99.3576 28.9685 99.7256 30.8301C100.094 32.6917 100.091 34.6076 99.7188 36.4683C97.6341 46.8792 92.2599 56.5413 84.5513 64.196L84.3071 64.4331L87.561 71.2745C91.3376 79.2159 87.4247 88.8148 79.2017 91.5085L78.8306 91.6245L78.5474 91.7101C77.2892 92.0643 75.9884 92.2448 74.6814 92.2464C71.9488 92.2466 69.2721 91.4723 66.9616 90.0134C64.6511 88.5545 62.8013 86.4707 61.6267 84.0034L59.1149 78.723L58.4813 78.88C55.086 79.6824 51.6423 80.1269 48.197 80.1952L47.2575 80.2046C43.9419 80.2046 40.5716 79.8191 37.2044 79.0718L36.5403 78.9171L34.1274 83.9902C32.5005 87.4109 29.5948 90.0556 26.0364 91.3542L25.6067 91.5034C23.7534 92.1146 21.7954 92.3437 19.8511 92.1769C17.9068 92.0101 16.0164 91.451 14.2942 90.5331C7.43486 86.887 4.81923 78.3511 8.16611 71.3007L11.1622 65.0003L10.9005 64.7464C6.79306 60.6945 3.53681 56.089 1.37666 51.1382L1.08876 50.4613L1.04736 50.3515C-1.92569 42.9593 1.64462 34.5448 9.03212 31.5538C14.8267 29.2081 21.2501 30.8925 25.2001 35.2952L25.2743 35.3804L34.8235 15.2937C35.9556 12.8742 37.7385 10.8173 39.9727 9.3532C42.2069 7.88905 44.8044 7.07533 47.4747 7.00305L47.879 6.99915L48.2938 7.00383Z" fill="white"/>
<path d="M34.0305 73.423L42.5836 55.4277C36.0508 54.0402 29.4777 49.9991 25.7602 45.0831L16.8164 63.8859C21.7863 68.1019 27.7535 71.4159 34.0305 73.423Z" fill="#1A007F"/>
<path d="M69.7246 44.5441C65.4277 49.8109 59.4609 53.7171 53.0762 55.239L61.6023 73.1804C67.8254 71.0788 73.6441 67.6847 78.6687 63.3343L69.7246 44.5441Z" fill="#4E000A"/>
<path d="M16.8164 63.8863L12.3445 73.2882C10.068 78.0698 11.7785 83.9562 16.466 86.448C21.4363 89.0878 27.5515 87.0273 29.9492 82.0027L34.0304 73.423C27.728 71.391 21.8813 68.1521 16.8164 63.8863Z" fill="#1A007F"/>
<path d="M87.4773 24.0167C86.2126 23.7635 84.9104 23.7619 83.6451 24.0121C82.3798 24.2622 81.1761 24.7592 80.1029 25.4747C79.0297 26.1902 78.108 27.11 77.3904 28.1818C76.6728 29.2536 76.1734 30.4562 75.9207 31.721C74.9777 36.4359 72.7688 40.8265 69.7246 44.5577L78.6551 63.3613C86.8984 56.2089 92.9863 46.4706 95.1688 35.5734C96.2328 30.2394 92.7844 25.0671 87.4773 24.0167Z" fill="#FF9396"/>
<path d="M53.0761 55.239C51.1636 55.6968 49.2104 55.9394 47.2573 55.9394C45.7354 55.9394 44.1597 55.7644 42.5835 55.4277C36.0507 54.0402 29.4776 49.9991 25.7601 45.0831C24.8304 43.8573 24.0765 42.5777 23.5511 41.271C21.5171 36.2468 15.7925 33.8226 10.7683 35.8429C5.74404 37.8769 3.32021 43.6015 5.34013 48.6253C7.64325 54.3362 11.7112 59.5761 16.8163 63.8862C21.8763 68.1517 27.7185 71.3909 34.0167 73.423C38.3405 74.8101 42.8257 75.578 47.244 75.578C52.1468 75.578 56.9823 74.7292 61.589 73.1804L53.0761 55.239Z" fill="#002DC8"/>
<path d="M83.3691 73.2476L78.6551 63.3343L69.7246 44.5441L69.7113 44.5577C69.7113 44.5577 69.7113 44.5441 69.7246 44.5441L56.7402 17.2277C55.9431 15.5518 54.6875 14.136 53.1189 13.1444C51.5502 12.1527 49.7328 11.6258 47.877 11.6245C44.0918 11.6245 40.6437 13.8066 39.0141 17.2281L25.7734 45.0831C29.491 49.9992 36.0641 54.0402 42.5969 55.4277L46.8801 46.43C47.2844 45.5812 48.4965 45.5812 48.9008 46.43L53.0898 55.239H53.1168H53.0895L61.616 73.1804L65.8051 81.9894C66.6015 83.6685 67.8587 85.0868 69.4302 86.0788C71.0017 87.0709 72.8228 87.596 74.6813 87.5929C75.557 87.5929 76.4324 87.4718 77.2945 87.2292C83.2078 85.5992 86.0094 78.7972 83.3691 73.2476Z" fill="#FF536A"/>
</g>
<defs>
<clipPath id="clip0_755_12527">
<rect width="100" height="85.5469" fill="white" transform="translate(0 6.99915)"/>
</clipPath>
</defs>
</svg>
