<svg width="100" height="100" viewBox="0 0 100 100" fill="none" xmlns="http://www.w3.org/2000/svg">
<path d="M78.2522 53.1001C66.2399 53.1001 56.5037 62.8366 56.5037 74.8478C56.5037 86.8598 66.2399 96.5971 78.2522 96.5971C90.2631 96.5971 100 86.8598 100 74.8478C100 62.8366 90.2631 53.1001 78.2522 53.1001ZM21.7482 53.1016C9.73733 53.1016 0 62.8366 0 74.849C0 86.8598 9.73733 96.5971 21.7482 96.5971C33.7597 96.5971 43.4974 86.8598 43.4974 74.849C43.4974 62.8366 33.7597 53.1016 21.7482 53.1016ZM71.7476 25.9144C71.7476 37.9256 62.0114 47.6644 50.0006 47.6644C37.9886 47.6644 28.252 37.9256 28.252 25.9144C28.252 13.904 37.9886 4.16663 50.0006 4.16663C62.0114 4.16663 71.7476 13.904 71.7476 25.9144Z" fill="url(#paint0_radial_147648_1439)"/>
<defs>
<radialGradient id="paint0_radial_147648_1439" cx="0" cy="0" r="1" gradientUnits="userSpaceOnUse" gradientTransform="translate(50 54.6819) scale(66.2633 61.2475)">
<stop stop-color="#FFB900"/>
<stop offset="0.6" stop-color="#F95D8F"/>
<stop offset="0.9991" stop-color="#F95353"/>
</radialGradient>
</defs>
</svg>
