<svg width="100" height="100" viewBox="0 0 100 100" fill="none" xmlns="http://www.w3.org/2000/svg">
<path d="M35.6962 85.1738C31.1941 81.0441 29.8798 72.3671 31.7555 66.0811C35.0079 70.0444 39.5143 71.2997 44.1821 72.0084C51.3881 73.1021 58.4652 72.6931 65.1592 69.3881C65.9248 69.0097 66.6325 68.5067 67.4692 67.9971C68.0975 69.8254 68.2608 71.6717 68.0415 73.5504C67.5082 78.1264 65.2388 81.6611 61.6292 84.3404C60.1858 85.4121 58.6585 86.3701 57.1678 87.3808C52.5885 90.4868 51.3495 94.1285 53.0701 99.4261C53.1111 99.5551 53.1478 99.6841 53.2401 99.9991C50.9018 98.9491 49.1941 97.4205 47.8928 95.4101C46.5181 93.2885 45.8641 90.9415 45.8298 88.4021C45.8125 87.1664 45.8125 85.9194 45.6468 84.7014C45.2425 81.7311 43.8531 80.4011 41.2351 80.3244C38.5485 80.2458 36.4232 81.9124 35.8597 84.5371C35.8167 84.7384 35.7543 84.9374 35.6919 85.1714L35.6962 85.1738Z" fill="#FF5D01"/>
<path d="M10 65.0336C10 65.0336 23.3316 58.5166 36.7005 58.5166L46.7801 27.2146C47.1574 25.7008 48.2594 24.672 49.5031 24.672C50.7471 24.672 51.8491 25.7008 52.2264 27.2146L62.3061 58.5166C78.1395 58.5166 89.0065 65.0336 89.0065 65.0336C89.0065 65.0336 66.3618 3.13218 66.3175 3.00798C65.6675 1.17784 64.5705 -0.000854492 63.0911 -0.000854492H35.9178C34.4385 -0.000854492 33.3856 1.17784 32.6914 3.00798C32.6425 3.12983 10 65.0336 10 65.0336Z" fill="white"/>
</svg>
