<svg width="100" height="100" viewBox="0 0 100 100" fill="none" xmlns="http://www.w3.org/2000/svg">
<path d="M0 50C0 22.3858 22.3858 0 50 0C77.6142 0 100 22.3858 100 50C100 77.6142 77.6142 100 50 100C22.3858 100 0 77.6142 0 50Z" fill="white"/>
<path d="M39.7744 42.9921C39.0299 42.1967 37.8698 42.2418 37.3638 43.2538L25.1542 67.6735C24.9279 68.126 24.952 68.6634 25.2179 69.0938C25.4839 69.5242 25.9538 69.7861 26.4597 69.7861H43.4632C44.0198 69.799 44.5317 69.4826 44.769 68.979C48.4354 61.3984 46.2141 49.8724 39.7744 42.9921Z" fill="url(#paint0_linear_147648_386)"/>
<path d="M48.7329 20.782C41.9039 31.6017 42.3545 43.5847 46.8526 52.5812L55.0515 68.979C55.2987 69.4735 55.8041 69.7858 56.3569 69.7858H73.3602C73.8662 69.7859 74.336 69.5239 74.602 69.0935C74.8679 68.6631 74.892 68.1257 74.6657 67.6733C74.6657 67.6733 51.7911 21.9175 51.2157 20.7727C50.7012 19.7478 49.3944 19.7339 48.7329 20.782Z" fill="#2681FF"/>
<defs>
<linearGradient id="paint0_linear_147648_386" x1="37.6775" y1="38.5778" x2="20.5595" y2="56.9655" gradientUnits="userSpaceOnUse">
<stop stop-color="#0052CC"/>
<stop offset="0.923" stop-color="#2684FF"/>
</linearGradient>
</defs>
</svg>
