<svg width="100" height="100" viewBox="0 0 100 100" fill="none" xmlns="http://www.w3.org/2000/svg">
<g clip-path="url(#clip0_755_12544)">
<path d="M50.0008 100.001C77.6154 100.001 100.002 77.6146 100.002 49.9999C100.002 22.3853 77.6154 -0.000854492 50.0008 -0.000854492C22.3861 -0.000854492 0 22.3853 0 49.9999C0 77.6146 22.3861 100.001 50.0008 100.001Z" fill="#60B57D"/>
<path d="M46.0235 23.1019C46.3075 23.338 46.4875 23.6763 46.5244 24.0439C46.5614 24.4114 46.4525 24.7788 46.2211 25.0668C45.9897 25.3548 45.6545 25.5403 45.2876 25.5834C44.9207 25.6265 44.5516 25.5237 44.2598 25.2972C40.5891 22.3492 37.5317 21.3753 35.6461 22.3382C33.4516 23.4574 32.6004 27.0581 33.0434 32.0827L33.1098 32.7613C33.1473 33.1046 33.1903 33.4538 33.2387 33.8089L33.3438 34.5273C33.4742 35.3671 33.6348 36.2367 33.8262 37.1327C36.4695 36.7226 39.3145 36.455 42.302 36.3437C43.5521 34.7339 44.8655 33.1742 46.2391 31.6683L46.9024 30.9534C48.561 29.1906 50.2246 27.6124 51.8617 26.2468L52.5152 25.7117C58.4899 20.9128 64.0508 19.014 67.6473 21.3492C70.7801 23.3816 71.6199 27.9855 70.4559 34.155C70.4245 34.3394 70.3566 34.5156 70.2564 34.6735C70.1561 34.8314 70.0254 34.9677 69.8719 35.0745C69.7183 35.1813 69.5451 35.2564 69.3622 35.2955C69.1793 35.3346 68.9905 35.3369 68.8067 35.3023C68.6229 35.2676 68.4479 35.1967 68.2918 35.0937C68.1357 34.9906 68.0018 34.8575 67.8977 34.7021C67.7936 34.5468 67.7215 34.3722 67.6856 34.1887C67.6498 34.0051 67.6508 33.8163 67.6887 33.6331C68.6633 28.4663 68.0215 24.9488 66.1145 23.7113C63.6348 22.1019 59.0277 23.9546 53.8332 28.282L53.2535 28.773C52.9581 29.0276 52.6656 29.2857 52.3762 29.5472L51.7863 30.0874C51.1789 30.6536 50.5836 31.2326 50.0008 31.8242L49.4012 32.4402C49.3012 32.5441 49.2012 32.6492 49.1008 32.7546L48.4992 33.398L47.8977 34.0585L47.2957 34.7367C47.0949 34.9656 46.8942 35.1972 46.6942 35.432L46.0926 36.1437L45.9758 36.2855C47.3766 36.2929 48.802 36.3335 50.2461 36.4085L50.8067 36.4398L51.9207 36.5109C52.8453 36.5757 53.7594 36.6538 54.6617 36.7449L55.7391 36.8601C55.9176 36.8804 56.0957 36.9011 56.2734 36.9222L57.3324 37.0554C58.2102 37.1714 59.0746 37.2995 59.9242 37.4398L60.9367 37.6132L61.9348 37.798L62.9172 37.9937C66.1672 38.664 69.1555 39.5124 71.7883 40.507L72.568 40.8097C79.4836 43.573 83.7453 47.3769 83.5266 51.5816C83.3453 55.0574 80.2297 57.9269 75.007 59.9827C74.8342 60.0544 74.6489 60.0909 74.4618 60.0902C74.2747 60.0894 74.0896 60.0514 73.9174 59.9783C73.7452 59.9052 73.5893 59.7985 73.4587 59.6645C73.3282 59.5305 73.2257 59.3718 73.1572 59.1977C73.0887 59.0236 73.0555 58.8376 73.0597 58.6506C73.0639 58.4635 73.1053 58.2792 73.1815 58.1083C73.2577 57.9375 73.3672 57.7835 73.5036 57.6554C73.6399 57.5274 73.8005 57.4278 73.9758 57.3624C78.282 55.6671 80.6051 53.5277 80.7141 51.4351C80.8539 48.7562 77.6484 45.9855 72.3129 43.7507L71.6488 43.4796C71.1996 43.3007 70.7359 43.1257 70.2594 42.955L69.5344 42.7015C69.2899 42.6183 69.0418 42.5359 68.7906 42.4546L68.0274 42.2144L67.2461 41.9808C67.1145 41.9425 66.982 41.9046 66.8488 41.8667L66.041 41.6441C65.9051 41.6077 65.7684 41.5714 65.6309 41.5355L64.7977 41.3245C63.9363 41.1126 63.0709 40.9176 62.202 40.7394L61.3063 40.5613L60.8531 40.4753L59.936 40.3113L59.0055 40.1558L58.5352 40.0816L57.5852 39.941C57.2664 39.8956 56.9457 39.8523 56.6231 39.8105L55.6485 39.6898L54.6629 39.5796C54.1637 39.527 53.6641 39.4788 53.1641 39.4351L52.1524 39.3519C51.8133 39.3261 51.4727 39.3027 51.1305 39.2808L50.0996 39.2206L49.0684 39.1734L48.0449 39.1382C46.8743 39.1051 45.7031 39.0962 44.532 39.1117L43.7274 39.1265L43.411 39.546C43.2134 39.8111 43.0174 40.0774 42.8231 40.3449L42.2387 41.1581C41.3498 42.4113 40.4946 43.6879 39.6738 44.9867L39.1317 45.8554C38.5627 46.7793 38.0116 47.7139 37.4785 48.6589C37.5266 48.7769 37.5754 48.8952 37.625 49.0136L38.0078 49.9175C38.0727 50.0687 38.1383 50.2199 38.2047 50.3714L38.6094 51.282L39.0289 52.1968L39.4633 53.1144L39.9125 54.0347L40.3758 54.9574L40.8504 55.8745L41.332 56.7785L41.8199 57.6691L42.066 58.1089L42.5629 58.9788C42.7293 59.2663 42.8969 59.5515 43.0649 59.8343L43.5719 60.6749C43.7418 60.9523 43.9121 61.2277 44.0836 61.5003L44.5992 62.3109L45.1184 63.1054C45.5454 63.7507 45.9825 64.3893 46.4293 65.021L46.9578 65.7577C47.3054 66.2363 47.6592 66.7103 48.0192 67.1796L48.5512 67.8632L49.0836 68.5292C49.1723 68.6386 49.2613 68.7472 49.35 68.855L49.882 69.4925L50.4133 70.1109C50.9284 70.702 51.4572 71.2811 51.9992 71.8476L52.5235 72.3855L53.0445 72.9027C53.2996 73.1515 53.5581 73.3969 53.8199 73.6386L54.3317 74.1019C54.5815 74.3237 54.8348 74.5415 55.0914 74.7554L55.5914 75.1624C58.991 77.8675 62.0031 78.9601 64.0031 77.9398C65.8809 76.9827 66.7774 74.1867 66.7109 70.2222L66.6941 69.6187C66.6859 69.4118 66.6753 69.205 66.6625 68.9984L66.6164 68.3617C66.5985 68.1438 66.5784 67.926 66.5563 67.7085L66.4813 67.0398C66.4676 66.9264 66.4534 66.8131 66.4387 66.6999L66.3426 66.0089L66.2316 65.3038L66.1067 64.5851C65.9935 63.9647 65.8686 63.3465 65.732 62.7308L65.557 61.9675L65.368 61.1929C65.3352 61.0628 65.3016 60.9324 65.268 60.8015L65.0574 60.0105L64.8328 59.2089L64.7149 58.8046L64.4688 57.989L64.2086 57.1644C64.075 56.7495 63.936 56.332 63.7918 55.9113L63.4961 55.0663L63.1863 54.214C62.9726 53.6365 62.752 53.0616 62.5246 52.4894L62.1723 51.6183L61.8063 50.7421L61.618 50.3023L61.2309 49.4191L60.8293 48.5316C60.7613 48.3835 60.6926 48.2351 60.6235 48.0867L60.2016 47.1945C60.1297 47.0452 60.0575 46.8961 59.9848 46.7472C59.9001 46.5806 59.8494 46.3988 59.8357 46.2124C59.822 46.026 59.8456 45.8387 59.905 45.6615C59.9644 45.4843 60.0585 45.3207 60.1817 45.1802C60.305 45.0398 60.4551 44.9252 60.6231 44.8433C60.7911 44.7614 60.9737 44.7138 61.1603 44.7032C61.3469 44.6926 61.5337 44.7192 61.7099 44.7816C61.8861 44.844 62.0481 44.9408 62.1865 45.0664C62.3249 45.192 62.4369 45.3439 62.516 45.5132L62.9832 46.4859C63.1363 46.8093 63.2871 47.1327 63.4348 47.4554L63.8715 48.4218C64.294 49.3722 64.6993 50.3302 65.0871 51.2952L65.461 52.2429C65.5223 52.4003 65.5824 52.5577 65.6422 52.7148L65.9922 53.6535C66.0492 53.8093 66.1055 53.9648 66.1613 54.1202L66.4875 55.0484C66.6968 55.6569 66.898 56.2681 67.091 56.882L67.3684 57.7863C70.6887 68.8835 70.2629 77.9093 65.2824 80.4488C61.2539 82.5035 55.5418 79.6495 49.7922 73.63L49.1973 72.9964C48.7936 72.5584 48.3971 72.1137 48.0082 71.6624L47.4153 70.9632C45.8348 69.071 44.2688 66.9566 42.752 64.6558L42.1856 63.7843C40.7241 61.4986 39.3687 59.1468 38.1238 56.7363L37.8672 56.2367C37.6975 55.9038 37.5298 55.57 37.3641 55.2351L36.877 54.2355C36.4974 53.4451 36.1294 52.6492 35.7731 51.848L35.5457 52.2976C35.4754 52.4382 35.4063 52.5788 35.3375 52.7195L34.932 53.5581L34.5426 54.3909L34.1684 55.2167C34.1074 55.3538 34.0473 55.491 33.9875 55.6273L33.6375 56.4425C33.5805 56.5777 33.5242 56.712 33.4684 56.8468L33.1418 57.6499C33.0887 57.7827 33.0363 57.9156 32.9848 58.048L32.6824 58.837C32.6336 58.9679 32.5852 59.0984 32.5379 59.2285L32.2598 60.0031L31.9981 60.7671C31.8711 61.146 31.7508 61.5214 31.6363 61.8921L31.4156 62.6277L31.2117 63.3507C31.1793 63.4702 31.1473 63.589 31.116 63.7074L30.9371 64.4105C30.799 64.973 30.6745 65.5388 30.5637 66.1074L30.4438 66.7597C29.6469 71.3808 30.1664 74.7886 32.141 76.0703C34.1301 77.3605 37.818 76.3788 42.3688 73.0937C42.5185 72.9821 42.6889 72.9015 42.8701 72.8564C43.0512 72.8113 43.2396 72.8027 43.4241 72.8311C43.6087 72.8595 43.7857 72.9243 43.945 73.0217C44.1042 73.1191 44.2425 73.2472 44.3518 73.3986C44.4611 73.55 44.5392 73.7216 44.5816 73.9034C44.6239 74.0853 44.6297 74.2737 44.5986 74.4578C44.5674 74.6419 44.5 74.8179 44.4002 74.9757C44.3004 75.1335 44.1702 75.2699 44.0172 75.3769C38.6238 79.2706 33.8559 80.5394 30.6082 78.4324C26.684 75.8859 26.4082 69.1523 29.0199 60.7753L29.291 59.9324C29.4778 59.3667 29.6774 58.7945 29.8895 58.2156L30.2168 57.3433C30.6805 56.1387 31.1788 54.9477 31.711 53.7718L32.1297 52.8617L32.566 51.9452C33.1347 50.7726 33.7315 49.6138 34.3559 48.4699C34.2715 48.2542 34.1879 48.039 34.1055 47.8242L33.741 46.8574C33.2776 45.6045 32.8482 44.3394 32.4535 43.0632L32.1746 42.1359C32.0049 41.5567 31.8434 40.9751 31.6903 40.3913C31.5164 40.4261 31.3445 40.4617 31.1738 40.4976L30.4082 40.666L29.661 40.8429C29.5379 40.873 29.416 40.9035 29.2945 40.9343L28.5758 41.123L27.8777 41.3199C27.6481 41.3867 27.4219 41.455 27.1996 41.5242L26.5422 41.7359C26.3266 41.8077 26.1145 41.8808 25.9063 41.955L25.2922 42.1812C21.0723 43.7878 18.502 45.896 18.382 48.1921C18.2731 50.2851 20.3617 52.6542 24.4695 54.787C24.6368 54.8704 24.7858 54.9863 24.9078 55.1278C25.0298 55.2693 25.1224 55.4337 25.1803 55.6114C25.2381 55.7891 25.26 55.9766 25.2447 56.1628C25.2294 56.349 25.1771 56.5304 25.091 56.6962C25.0049 56.8621 24.8866 57.0091 24.7431 57.1288C24.5996 57.2485 24.4337 57.3384 24.2551 57.3933C24.0765 57.4482 23.8887 57.4671 23.7027 57.4487C23.5168 57.4303 23.3363 57.3751 23.1719 57.2863C18.1903 54.6995 15.3887 51.5218 15.5703 48.046C15.8223 43.1999 21.9395 39.5011 31.0379 37.6335C29.1965 28.8347 30.1336 21.9886 34.366 19.83C37.4945 18.2331 41.5817 19.5343 46.0231 23.1023L46.0235 23.1019ZM53.7395 49.2937C54.2067 51.4562 52.8324 53.5867 50.6703 54.0546C48.5078 54.5218 46.3774 53.1476 45.9094 50.9851C45.443 48.823 46.8164 46.6925 48.9789 46.2245C51.141 45.7574 53.2715 47.1316 53.7395 49.2937ZM40.1074 39.2913L39.8535 39.3089C39.6594 39.323 39.466 39.3374 39.2738 39.3531L38.3578 39.432L37.4555 39.521C37.3063 39.5367 37.1578 39.5531 37.0098 39.5695L36.1285 39.6738L35.6938 39.7296L34.8352 39.8484L34.4945 39.9003L34.6149 40.3499C34.8074 41.0489 35.0116 41.7445 35.2274 42.4367L35.4985 43.2882L35.6399 43.7179L35.9336 44.5824C36.0145 44.8156 36.0969 45.0495 36.1809 45.2847C36.6313 44.5354 37.0923 43.7925 37.5637 43.0562L37.8684 42.5843C38.5908 41.4706 39.3374 40.3727 40.1074 39.2913Z" fill="white"/>
</g>
<defs>
<clipPath id="clip0_755_12544">
<rect width="100" height="100" fill="white" transform="translate(0 -0.000854492)"/>
</clipPath>
</defs>
</svg>
