<svg width="100" height="100" viewBox="0 0 100 100" fill="none" xmlns="http://www.w3.org/2000/svg">
<path d="M75.815 80.6728L65.8046 49.8596L92.0094 30.8213H59.6171L49.6056 0.0087108L49.6025 0.000348432H81.9997L92.0136 30.8178L92.0143 30.8171L92.0227 30.8125C97.838 48.6906 91.8484 69.0251 75.815 80.6725V80.6728ZM23.3934 80.6728L23.3854 80.6787L49.5972 99.7223L75.815 80.6735L49.6056 61.6296L23.3938 80.6728H23.3934ZM7.19308 30.8132C1.07113 49.6592 8.1774 69.6286 23.3885 80.6767L23.391 80.6669L33.4032 49.8554L7.20388 30.8206H39.5885L49.6004 0.00836237L49.6025 0H17.2035L7.19273 30.8132H7.19308Z" fill="#EB5424"/>
</svg>
