<svg width="100" height="100" viewBox="0 0 100 100" fill="none" xmlns="http://www.w3.org/2000/svg">
<path d="M22.7307 24.1395C23.9459 24.896 24.8016 25.826 25.31 26.9049C26.0665 28.641 26.9097 30.5259 27.8274 32.5721C28.745 34.6182 29.6751 36.6891 30.5928 38.7849C31.5104 40.8806 32.4033 42.9267 33.2465 44.9109C34.0898 46.895 34.8586 48.7179 35.5283 50.3672C36.1979 52.0165 36.7312 53.4178 37.128 54.5711C37.5248 55.7244 37.7232 56.4932 37.7232 56.8528C37.7232 57.4729 37.6364 58.0681 37.4752 58.6633C37.314 59.2586 37.0164 59.8042 36.5823 60.2878C36.1483 60.7715 35.5407 61.1683 34.7718 61.4535C33.9906 61.7387 32.9861 61.8876 31.7584 61.8876C30.4564 61.8876 29.4023 61.7139 28.5838 61.3667C27.7654 61.0195 27.0957 60.5855 26.5501 60.0398C26.0045 59.4942 25.558 58.9238 25.1984 58.3285C24.8388 57.7333 24.4668 57.1629 24.0823 56.6172C23.6979 56.0716 23.2639 55.6375 22.7803 55.2903C22.2966 54.9431 21.627 54.7695 20.7961 54.7695H17.3239C16.307 54.7695 15.5134 54.9431 14.9058 55.2903C14.3105 55.6375 13.8269 56.0716 13.4425 56.6172C13.058 57.1629 12.7108 57.7333 12.3884 58.3285C12.066 58.9238 11.6443 59.4942 11.1359 60.0398C10.6275 60.5855 9.97024 61.0195 9.15179 61.3667C8.33333 61.7139 7.24206 61.8876 5.86558 61.8876C3.84425 61.8876 2.35615 61.4411 1.41369 60.5359C0.47123 59.6306 0 58.5641 0 57.3365C0 56.8652 0.186012 56.0468 0.570436 54.8687C0.954861 53.6906 1.46329 52.2893 2.12054 50.6648C2.80258 49.0279 3.54663 47.2298 4.37748 45.2333C5.20833 43.2492 6.08879 41.1906 7.03125 39.0825C7.97371 36.962 8.91617 34.8538 9.84623 32.7333C10.7887 30.6127 11.6939 28.579 12.562 26.6321C13.0704 25.516 13.9137 24.6232 15.0794 23.9783C16.2574 23.3335 17.5595 22.9987 19.0104 22.9987C20.2753 22.9987 21.5154 23.3831 22.7307 24.1395ZM66.5923 24.3255C67.5347 25.1812 68.006 26.2725 68.006 27.6118C68.006 28.3682 67.8199 29.3603 67.4355 30.6003C67.0511 31.828 66.5675 33.2169 65.9722 34.7794C65.377 36.3295 64.6825 38.016 63.9137 39.8265C63.1324 41.6371 62.3512 43.4724 61.5575 45.3573C60.4787 47.9243 59.5362 50.2308 58.7674 52.2769C57.9861 54.3231 57.1925 56.0592 56.3864 57.4853C55.568 58.9114 54.6875 60.015 53.7326 60.7963C52.7778 61.5775 51.5873 61.962 50.186 61.962C48.7351 61.962 47.5322 61.6519 46.5774 61.0071C45.6225 60.3746 44.7545 59.4198 43.9732 58.1301C43.192 56.8528 42.4355 55.2283 41.6915 53.2814C40.9474 51.3345 40.0794 49.0155 39.0625 46.337C38.3061 44.3156 37.5248 42.3315 36.7312 40.397C35.9375 38.4624 35.2183 36.6767 34.561 35.0522C33.9162 33.4277 33.3829 31.9644 32.9613 30.6872C32.5521 29.4099 32.3413 28.4054 32.3413 27.6738C32.3413 26.0121 32.8993 24.8216 34.0278 24.0899C35.1438 23.3707 36.5451 23.0111 38.2068 23.0111C39.7197 23.0111 40.9102 23.1971 41.7535 23.5815C42.5967 23.9659 43.3408 24.462 43.9484 25.0696C44.3824 25.5036 44.8165 26.1361 45.2505 26.9669C45.6845 27.7978 46.0938 28.7154 46.4658 29.7075C46.8502 30.6995 47.2222 31.704 47.6066 32.7209C47.9911 33.7377 48.3383 34.6678 48.6607 35.5111C48.9831 36.3667 49.3056 37.0488 49.6156 37.5696C49.9256 38.0904 50.1984 38.3508 50.4588 38.3508C50.744 38.3508 51.0417 38.0904 51.3517 37.5696C51.6617 37.0488 51.9717 36.3667 52.3066 35.5359C52.629 34.705 52.9638 33.7873 53.311 32.7953C53.6582 31.8032 54.0179 30.8112 54.3899 29.8439C54.7619 28.8766 55.1711 27.9714 55.5804 27.1653C55.9896 26.3469 56.4236 25.7268 56.8576 25.2928C57.2545 24.896 57.6389 24.5612 58.0233 24.2883C58.4077 24.0155 58.817 23.7923 59.2758 23.6063C59.7222 23.4203 60.2431 23.2963 60.8259 23.1971C61.4087 23.1103 62.1032 23.0607 62.9464 23.0607C64.4221 23.0607 65.6498 23.4823 66.5923 24.3255ZM85.0074 24.1395C86.2227 24.896 87.0784 25.826 87.5868 26.9049C88.3433 28.641 89.1865 30.5259 90.1042 32.5721C91.0218 34.6182 91.9519 36.6891 92.8695 38.7849C93.7872 40.8806 94.6801 42.9267 95.5233 44.9109C96.3666 46.895 97.1354 48.7179 97.8051 50.3672C98.4747 52.0165 99.0079 53.4178 99.4048 54.5711C99.8016 55.7244 100 56.4932 100 56.8528C100 57.4729 99.9132 58.0681 99.752 58.6633C99.5908 59.2586 99.2932 59.8042 98.8591 60.2878C98.4251 60.7715 97.8175 61.1683 97.0486 61.4535C96.2674 61.7387 95.2629 61.8876 94.0352 61.8876C92.7331 61.8876 91.6791 61.7139 90.8606 61.3667C90.0422 61.0195 89.3725 60.5855 88.8269 60.0398C88.2812 59.4942 87.8348 58.9238 87.4752 58.3285C87.1156 57.7333 86.7436 57.1629 86.3591 56.6172C85.9747 56.0716 85.5407 55.6375 85.057 55.2903C84.5734 54.9431 83.9038 54.7695 83.0729 54.7695H79.6007C78.5838 54.7695 77.7902 54.9431 77.1825 55.2903C76.5873 55.6375 76.1037 56.0716 75.7192 56.6172C75.3348 57.1629 74.9876 57.7333 74.6652 58.3285C74.3428 58.9238 73.9211 59.4942 73.4127 60.0398C72.9043 60.5855 72.247 61.0195 71.4286 61.3667C70.6101 61.7139 69.5189 61.8876 68.1424 61.8876C66.121 61.8876 64.6329 61.4411 63.6905 60.5359C62.748 59.6306 62.2768 58.5641 62.2768 57.3365C62.2768 56.8652 62.4628 56.0468 62.8472 54.8687C63.2317 53.6906 63.7401 52.2893 64.3973 50.6648C65.0422 49.0403 65.7862 47.2298 66.6171 45.2457C67.4479 43.2616 68.3284 41.203 69.2708 39.0949C70.2133 36.9744 71.1558 34.8662 72.0858 32.7457C73.0283 30.6251 73.9335 28.5914 74.8016 26.6445C75.31 25.5284 76.1533 24.6356 77.319 23.9907C78.497 23.3459 79.7991 23.0111 81.25 23.0111C82.5521 22.9987 83.7922 23.3831 85.0074 24.1395Z" fill="#4B4B77"/>
<path d="M18.8863 77.5499C19.1839 77.5499 19.4691 77.3887 19.6055 77.1158C19.6055 77.1034 20.7836 74.9333 21.9493 72.3663C22.5321 71.0767 23.1274 69.7002 23.5738 68.4229C23.797 67.778 23.983 67.1704 24.1194 66.6124C24.2558 66.0419 24.3427 65.5211 24.3427 65.0499C24.3427 63.2022 23.6606 61.5528 22.5197 60.412C21.5649 59.4571 20.2752 58.8743 18.8739 58.8743C17.4726 58.8743 16.1829 59.4571 15.2281 60.412C14.0996 61.5404 13.4052 63.1897 13.4052 65.0499C13.4052 65.5335 13.492 66.0543 13.6284 66.6124C13.864 67.6044 14.2732 68.7329 14.732 69.8986C16.1333 73.3832 18.1423 77.1034 18.1423 77.1282C18.3035 77.3762 18.5763 77.5499 18.8863 77.5499ZM81.1631 77.5499C81.4607 77.5499 81.7459 77.3887 81.8823 77.1158C81.8823 77.1034 83.0604 74.9333 84.2261 72.3663C84.8089 71.0767 85.4042 69.7002 85.8506 68.4229C86.0738 67.778 86.2598 67.1704 86.3962 66.6124C86.5326 66.0419 86.6194 65.5211 86.6194 65.0499C86.6194 63.2022 85.9374 61.5528 84.7965 60.412C83.8417 59.4571 82.552 58.8743 81.1507 58.8743C79.7494 58.8743 78.4597 59.4571 77.5049 60.412C76.3764 61.5404 75.6819 63.1897 75.6819 65.0499C75.6819 65.5335 75.7687 66.0543 75.9052 66.6124C76.1408 67.6044 76.55 68.7329 77.0088 69.8986C78.4101 73.3832 80.4191 77.1034 80.4191 77.1282C80.5803 77.3762 80.8531 77.5499 81.1631 77.5499Z" fill="#E0C7C1"/>
</svg>
