<svg width="100" height="100" viewBox="0 0 100 100" fill="none" xmlns="http://www.w3.org/2000/svg">
<g clip-path="url(#clip0_755_12560)">
<path d="M99.0922 67.2251L77.7687 31.5376C76.7908 29.8973 74.3813 28.5554 72.414 28.5554H59.1014C56.0073 28.5554 54.7388 26.4471 56.2821 23.8704L63.5827 11.6841C64.162 10.717 64.1606 9.52634 63.5796 8.56023C62.9983 7.59413 61.9249 6.99915 60.7634 6.99915H42.1922C40.2246 6.99915 37.8101 8.33811 36.8257 9.97468L0.738799 69.9734C-0.245825 71.61 -0.246203 74.2883 0.737287 75.9251L10.0228 91.379C11.57 93.9536 14.1072 93.9567 15.6609 91.3855L22.9163 79.3799C24.4704 76.8086 27.0071 76.8114 28.5545 79.3863L35.1321 90.3338C36.1156 91.9707 38.5299 93.3098 40.4972 93.3098H83.4115C85.3779 93.3098 87.7927 91.9707 88.7763 90.3338L99.0813 73.1838C100.065 71.5469 100.07 68.8656 99.0922 67.2251ZM70.2944 65.5075C71.8321 68.0874 70.5584 70.1986 67.4642 70.1986H34.0841C30.9899 70.1986 29.724 68.0919 31.2712 65.517L47.974 37.719C49.5212 35.1441 52.0528 35.1444 53.6 37.7193L70.2944 65.5075Z" fill="white"/>
</g>
<defs>
<clipPath id="clip0_755_12560">
<rect width="100" height="86.3129" fill="white" transform="translate(0 6.99915)"/>
</clipPath>
</defs>
</svg>
