<svg width="100" height="100" viewBox="0 0 100 100" fill="none" xmlns="http://www.w3.org/2000/svg">
<path d="M49.9999 24.9991L75.9807 69.9991" stroke="white" stroke-width="1.25"/>
<path d="M24.0193 69.9991L50 24.9991" stroke="white" stroke-width="1.25"/>
<path d="M24.0193 79.9991C29.5421 79.9991 34.0193 75.522 34.0193 69.9991C34.0193 64.4763 29.5421 59.9991 24.0193 59.9991C18.4964 59.9991 14.0193 64.4763 14.0193 69.9991C14.0193 75.522 18.4964 79.9991 24.0193 79.9991Z" fill="#FF0000" stroke="white" stroke-width="1.25"/>
<path d="M49.9999 34.9991C55.5228 34.9991 59.9999 30.522 59.9999 24.9991C59.9999 19.4763 55.5228 14.9991 49.9999 14.9991C44.4771 14.9991 39.9999 19.4763 39.9999 24.9991C39.9999 30.522 44.4771 34.9991 49.9999 34.9991Z" fill="#00FF00" stroke="white" stroke-width="1.25"/>
<path d="M75.9806 79.9991C81.5034 79.9991 85.9806 75.522 85.9806 69.9991C85.9806 64.4763 81.5034 59.9991 75.9806 59.9991C70.4577 59.9991 65.9806 64.4763 65.9806 69.9991C65.9806 75.522 70.4577 79.9991 75.9806 79.9991Z" fill="#0000FF" stroke="white" stroke-width="1.25"/>
</svg>
