<svg width="100" height="100" viewBox="0 0 100 100" fill="none" xmlns="http://www.w3.org/2000/svg">
<path fill-rule="evenodd" clip-rule="evenodd" d="M90.8626 38.0002C86.7773 38.0002 84.4694 38.789 83.1442 40.6374C81.7598 42.568 81.4815 45.6155 81.4815 49.9077C81.4815 58.3335 82.7852 61.8556 90.8626 61.8556C91.8329 61.8556 95.1491 61.8371 97.0851 61.6008C97.8384 61.476 98.1757 60.8991 98.1757 60.383V59.4524C98.1757 58.7283 97.6286 58.1818 96.9024 58.1818H90.8623C86.305 58.1818 85.4831 57.1075 85.3663 51.0001V49.023C85.4051 42.773 86.2269 41.6741 90.8626 41.6741C95.1372 41.6741 95.9569 42.6494 96.0991 48.1517H89.3068V51.8663H98.2404C100 51.8663 100 50.6356 100 50.2316V49.0456C99.8725 40.4777 97.8226 38.0002 90.8626 38.0002ZM79.0994 38.3277L79.0023 38.3021C78.1703 38.1272 75.8967 38.0002 74.7694 38.0002C70.7803 38.0002 68.6721 39.6704 68.6721 42.8303V60.4232C68.6721 61.1473 69.1787 61.6533 69.9048 61.6533H71.3238C72.05 61.6533 72.5569 61.1476 72.5569 60.4232V43.1533C72.5569 42.3735 72.7542 41.6741 75.1345 41.6741L78.659 41.6711C79.0041 41.7122 79.3333 41.6169 79.5869 41.402C79.8638 41.1687 80.016 40.8281 80.016 40.444V39.5539C80.016 38.9699 79.6817 38.5229 79.0994 38.3277ZM62.0631 38.2836H60.6441C59.9182 38.2836 59.4111 38.7893 59.4111 39.5137V58.1821H53.5098C49.8595 58.1821 48.3785 57.9499 48.3785 52.1321V39.5137C48.3785 38.7896 47.8713 38.2836 47.1455 38.2836H45.7667C45.0408 38.2836 44.4934 38.8122 44.4934 39.5137V52.1321C44.4934 60.4006 47.4923 61.8556 53.7935 61.8556C56.0602 61.8556 59.1646 61.8556 62.1251 61.4387L62.1936 61.425C62.9249 61.2424 63.2959 60.8237 63.2959 60.1807V39.5137C63.2959 38.7896 62.7887 38.2836 62.0631 38.2836Z" fill="white"/>
<path fill-rule="evenodd" clip-rule="evenodd" d="M40.1167 38.8615C39.9346 38.4741 39.544 38.2432 39.072 38.2432H37.248C36.7182 38.2432 36.3222 38.4565 36.1136 38.8406L33.4103 42.7904L35.7769 46.0268L39.9087 40.0999C40.3622 39.5489 40.2052 39.0501 40.1167 38.8615Z" fill="#74BB11"/>
<path fill-rule="evenodd" clip-rule="evenodd" d="M25.865 38.7954L25.8626 38.7919C25.4505 38.2427 24.9022 38.2427 24.722 38.2427H22.9379C22.4808 38.2427 22.1066 38.4528 21.9111 38.8184C21.7099 39.1929 21.7526 39.6429 22.0309 40.0598L28.6399 49.2216L21.0401 59.8214C20.7746 60.2201 20.7373 60.6633 20.9379 61.0375C21.1345 61.4031 21.5091 61.6126 21.9653 61.6126H23.789C24.258 61.6126 24.6704 61.3692 24.8766 60.9857L33.3832 49.2639L25.865 38.7954Z" fill="#009CD9"/>
<path fill-rule="evenodd" clip-rule="evenodd" d="M41.024 59.9142L35.7217 52.6375L33.3894 55.8527L37.5826 61.4491L37.6917 61.4968C37.8581 61.5716 38.0382 61.611 38.2206 61.6124H40.004C40.4349 61.6124 40.8005 61.4211 41.0076 61.0868C41.2198 60.7441 41.2258 60.3171 41.024 59.9142Z" fill="#EB2084"/>
<path fill-rule="evenodd" clip-rule="evenodd" d="M14.0258 51.7043V57.8838C12.22 58.161 9.46753 58.2224 8.52948 58.2224C4.37976 58.2224 3.92504 57.0885 3.92504 54.6805C3.92504 52.4272 4.76833 51.704 7.39446 51.704L14.0258 51.7043ZM8.32685 38C7.04463 38 5.29606 38.0334 3.12048 38.295L3.02215 38.3168C2.38834 38.497 2.06741 38.9133 2.06741 39.554V40.4438C2.06741 41.2024 2.53971 41.6738 3.30017 41.6738H8.32715C12.3747 41.6738 14.0258 42.7704 14.0258 45.4585V48.071H7.39446C2.21163 48.071 0 50.0475 0 54.6802C0 59.8437 2.28911 61.8557 8.16475 61.8557C10.5447 61.8557 14.9257 61.6706 16.5449 61.1769C17.9103 60.7978 17.9103 59.7549 17.9103 59.4122V45.2163C17.9103 40.3606 14.7755 38 8.32715 38H8.32685Z" fill="white"/>
</svg>
