<svg width="100" height="100" viewBox="0 0 100 100" fill="none" xmlns="http://www.w3.org/2000/svg">
<path d="M68.582 34.4564L68.5597 34.2422L68.2127 34.2719L68.2347 34.4859L68.582 34.4564ZM70.9158 40.0693L70.9232 40.1875L71.167 40.1654C71.1595 40.0916 71.189 39.9734 71.2408 39.8258L71.2185 39.6115C71.1152 39.6189 71.0117 39.774 70.9158 40.0693ZM61.8093 47.1373C61.7947 46.9379 61.1742 46.1625 59.9482 44.7961C59.9261 44.5451 60.347 44.1684 61.2111 43.6736L63.6779 41.5244C64.2318 40.8227 64.5568 39.6854 64.6529 38.1049L64.6232 37.743C64.5273 36.65 63.7371 35.7711 62.2379 35.099C61.3515 34.5008 59.7562 34.1684 57.4519 34.1094C55.5465 34.2719 53.0576 34.9512 49.9926 36.1551C49.1506 36.7607 48.1906 37.3664 47.1123 37.9719L47.1269 38.1566C47.1935 38.1492 47.2969 38.1123 47.415 38.0311C47.5406 38.0162 47.6144 38.0754 47.6219 38.1936L47.8064 38.0975L47.8951 38.09L47.9025 38.1713C47.9099 38.2674 47.2451 38.7918 45.901 39.7297L46.0045 39.9217L45.9158 39.9291L45.6941 39.8479C45.7015 39.9143 45.6056 39.9586 45.4209 39.9734L45.4283 40.0547L45.6426 40.3205C45.5761 40.3279 45.4726 40.2984 45.3324 40.2467C45.022 40.2762 44.7193 40.4387 44.4166 40.7488L44.5422 40.2023C44.9926 38.26 45.3027 36.5391 45.4652 35.0473L45.4431 34.9512C45.133 34.7518 44.8301 34.4711 44.5494 34.1166C44.5568 33.8877 44.5568 33.7549 44.5494 33.7252L44.5273 33.6439L44.4386 33.6662C43.4638 35.1285 41.5879 37.6248 38.8035 41.1551C36.684 43.6662 35.5908 45.0621 35.5244 45.3428C34.6603 46.2363 34.2467 46.7756 34.291 46.9602C34.0621 47.1078 33.966 47.2555 34.0029 47.418C33.9365 47.4328 33.8922 47.4107 33.8773 47.3441C33.5082 47.9424 32.9615 48.3264 32.2304 48.4963L31.4623 48.6736C31.359 48.6957 31.3072 48.7695 31.3146 48.8951L31.3367 48.9912L31.6248 48.9246L31.647 49.0059L30.997 49.257L29.8449 49.5229L29.2392 49.5598C29.1506 49.6484 29.7193 49.5525 29.4978 49.6041L28.7445 49.7814C28.2865 49.8848 28.0355 49.8479 27.9912 49.6633L27.9025 49.6854C27.9174 49.7666 27.9246 49.8258 27.9099 49.8773L27.8656 49.6928L27.2599 49.833C27.2156 49.5525 26.3959 48.5332 24.808 46.7756C24.7785 46.4357 25.3396 45.9408 26.4845 45.2984L29.7193 42.4549C30.4431 41.5244 30.8715 40.0324 31.0119 37.9793L30.9676 37.4992C30.842 36.0518 29.7931 34.8848 27.8213 33.9838C26.6543 33.1936 24.5568 32.7725 21.5289 32.7061C19.0177 32.9203 15.7385 33.8139 11.706 35.3723C10.5982 36.1771 9.33533 36.9748 7.91736 37.765L7.93943 38.0162C8.03552 38.0088 8.16091 37.9572 8.31599 37.8686C8.47849 37.8537 8.56716 37.9275 8.58201 38.0754L8.83298 37.935L8.95857 37.9275L8.96599 38.0457C8.97341 38.1639 8.09451 38.8508 6.31462 40.1062L6.45486 40.3279L6.32947 40.3354L6.05603 40.2393C6.06345 40.3131 5.93787 40.3648 5.67947 40.3869L5.69412 40.5199L5.98962 40.8449C5.89373 40.8523 5.76072 40.8227 5.5908 40.7637C5.01482 40.8154 4.45349 41.2289 3.89959 42.0119L4.03982 42.2334C4.5199 41.7902 4.80056 41.5688 4.88181 41.5613L4.9113 41.9232C4.83005 41.9307 4.70447 41.9822 4.53474 42.0709L4.83748 42.5289C5.40937 41.9107 6.05708 41.3672 6.76521 40.9113C7.11228 41 7.29685 41.1107 7.30427 41.2289L7.57009 41.2068C9.47556 39.7961 11.359 38.777 13.2275 38.1492L13.2496 38.4002C12.9025 38.9172 12.6662 39.1832 12.5406 39.1979C12.5554 39.3752 12.6144 39.5303 12.7252 39.6633C12.7549 39.9809 11.9054 42.1227 10.1845 46.0813C6.27771 55.2836 2.99841 62.093 0.332397 66.4949C0.339624 66.5834 0.391382 66.7016 0.487476 66.8494C1.1447 66.6943 1.55837 66.5318 1.73552 66.3766L1.87595 66.3619L1.89802 66.6131L2.14177 66.5908L2.39294 66.4506C2.40037 66.5244 2.48162 66.5613 2.65134 66.5465L2.67361 66.7977C2.69568 67.0414 2.55544 67.4105 2.25994 67.9203C1.99412 68.223 1.70603 68.8582 1.4033 69.8258L1.41052 69.9439L1.65427 69.9217C2.71794 68.7326 3.52283 67.5656 4.07673 66.4283C7.17869 65.5199 9.54216 64.6264 11.1816 63.7475C12.8287 63.607 14.0842 63.1713 14.941 62.4549L14.9261 62.3221L14.3058 62.5066L14.1654 62.5215L14.1506 62.3885C15.3619 62.2039 16.1965 61.9379 16.6617 61.5688C19.0177 59.7518 20.7976 58.4668 22.0015 57.7061C24.4756 55.8893 26.0857 54.1166 26.8168 52.3959C26.9551 52.3658 27.093 52.3337 27.2304 52.2998C27.5775 52.2852 27.7695 52.2777 27.8213 52.2629C27.8064 52.1965 27.8361 52.1596 27.9025 52.1447C28.4564 52.0857 28.1906 52.1816 28.5451 52.1004L29.4756 51.8863C29.4166 51.901 29.3943 51.9307 29.4092 51.9896L29.5494 51.901C29.5199 51.901 29.4978 51.8938 29.4756 51.8863L29.6306 51.8494L29.5568 51.8937C29.6603 51.9084 29.7711 51.901 29.8967 51.8715L29.9631 52.1447L25.7312 58.873L24.7931 60.0473L24.3353 61.5834L24.424 61.5613L24.8818 61.3693L24.7342 61.9676L24.7785 62.1447L24.9039 62.2998C24.8449 62.3147 24.8228 62.3516 24.8375 62.418L24.8597 62.5141L25.0517 62.4697C25.3324 62.226 25.4506 62.0045 25.4062 61.8051C25.709 61.8566 25.9084 61.8789 26.0119 61.8494L26.034 61.9453C25.8494 61.9897 25.7533 62.1373 25.7385 62.3885L25.7607 62.4846L25.864 62.4623C27.4004 60.7857 31.167 55.0473 34.1877 51.1551C34.0916 50.7342 35.6646 50.1506 38.9142 49.3973L39.0177 49.3752C39.1359 49.8848 38.8847 51.1182 38.2644 53.0754C37.8656 54.257 37.6736 54.907 37.7031 55.0104C37.1861 56.5834 36.9424 57.4328 36.9719 57.5658L35.8197 61.3397C35.0738 63.2748 34.5052 65.3059 34.1064 67.4477C34.1728 67.4328 34.2761 67.4402 34.424 67.4771L34.5863 67.3367C34.6011 67.4033 34.6455 67.4254 34.7119 67.4105L34.6455 67.1373L35.1476 67.1227C35.2953 67.0857 35.4209 66.901 35.5244 66.5613C35.5021 66.0518 35.6056 65.7785 35.8345 65.7193C36.1447 64.5082 36.3367 63.9025 36.4033 63.8803C36.6912 62.6766 36.9054 61.9896 37.0457 61.8197C37.4816 60.2541 37.799 59.449 38.0058 59.3973L38.0502 59.5895L37.7326 60.4092C37.1787 62.8686 36.6174 64.8109 36.0488 66.2363L36.2113 66.9453L36.3146 66.9232C37.6883 63.9689 39.6676 58.1197 42.2451 49.3752C42.3191 48.607 42.6883 48.0088 43.3457 47.5879L43.1978 47.4328L43.1758 47.3516C43.4713 47.2852 43.6779 47.167 43.7961 47.0045C43.7814 46.9379 43.5228 46.842 43.0207 46.709L44.3058 41.1994C44.5863 40.9482 44.7488 40.8154 44.8006 40.8154L44.8228 41.0961C44.7562 41.1033 44.6529 41.1402 44.5347 41.2215L44.7785 41.5687C45.2215 41.0887 45.7015 40.675 46.226 40.3279C46.4918 40.4018 46.6248 40.4904 46.6396 40.5791L46.8316 40.5643C48.2939 39.4934 49.7267 38.7252 51.1373 38.26L51.1521 38.4445C50.8937 38.8359 50.7164 39.0354 50.6203 39.0428C50.6351 39.1758 50.672 39.2939 50.7385 39.3973C50.7607 39.641 50.1256 41.2658 48.8258 44.2791C45.8566 51.2584 43.3678 56.4209 41.3441 59.774C41.3515 59.8404 41.3959 59.9291 41.4771 60.0473C41.9719 59.9291 42.2894 59.8035 42.415 59.6854L42.5037 59.6779L42.5185 59.8627L42.7252 59.8479L42.9099 59.7518C42.9172 59.8035 42.9838 59.8258 43.1094 59.8184L43.124 60.0178C43.1388 60.1949 43.0355 60.4756 42.8064 60.8596C42.5924 61.0887 42.3707 61.5688 42.1343 62.2998L42.1418 62.3959L42.3338 62.3811C43.1388 61.4801 43.7517 60.5938 44.1728 59.7223C46.5287 59.0281 48.3234 58.3561 49.5642 57.6912C50.8271 57.5805 51.7799 57.2555 52.4299 56.709L52.4224 56.6131L51.9424 56.7533L51.839 56.7607L51.8316 56.6646C52.7474 56.5318 53.39 56.325 53.7371 56.0518C55.5244 54.6779 56.876 53.6957 57.7918 53.1197C60.6426 51.0443 61.9718 49.0502 61.8093 47.1373ZM61.322 47.2629L61.3885 48.0088C61.2998 48.1936 61.2039 48.2895 61.1152 48.2969L61.0045 47.0266C61.2111 47.1004 61.3146 47.1742 61.322 47.2629ZM5.3988 41.2512L5.27322 41.2584L5.25115 41.0295L5.76072 40.9852L5.76814 41.1033C5.68689 41.1107 5.5613 41.1551 5.3988 41.2512ZM2.90994 66.1477C2.61443 66.0148 2.34861 65.9631 2.1197 65.9852L2.09001 65.6232C2.07537 65.483 2.15662 65.3869 2.33376 65.35C2.49626 65.3354 2.59236 65.4535 2.60701 65.6898C3.03552 65.1654 3.27185 64.8996 3.31619 64.8922L3.58943 65.0029C3.50076 65.7416 3.27185 66.1182 2.90994 66.1477ZM29.5053 38.3264C29.3797 38.3412 29.1285 37.9498 28.7666 37.1742L28.7445 36.9453C28.9808 36.9232 29.2246 37.3072 29.483 38.0975L29.5053 38.3264ZM29.1506 35.5717L29.0472 35.8154L25.4357 34.3088C27.8433 34.39 29.0842 34.8109 29.1506 35.5717ZM13.8996 48.6662L13.39 48.7105L13.3677 48.4814L13.8773 48.4373L13.8996 48.6662ZM13.4859 40.8006L13.6115 40.7932L13.641 41.1551C13.5228 41.1625 13.3677 41.3396 13.1758 41.6795L13.1535 41.4283C13.3826 41.1551 13.5008 40.9482 13.4859 40.8006ZM12.415 43.3264L12.4594 43.8064L12.3338 43.8139L12.2894 43.3338L12.415 43.3264ZM11.8537 44.2275L12.0974 44.2053C12.0754 44.6041 11.9646 44.8184 11.7652 44.833L11.6396 44.8404C11.7947 44.5746 11.8685 44.3678 11.8537 44.2275ZM11.4328 45.483L11.573 45.4682L11.5804 45.5863L11.3515 45.9705L11.1078 45.9926L11.1004 45.8744C11.3441 45.8523 11.4549 45.7268 11.4328 45.483ZM11.0191 46.6131L10.9453 47.2186L10.8197 47.226L10.7681 46.6277L11.0191 46.6131ZM6.87595 58.393C6.71345 59.2201 6.53611 59.641 6.35154 59.6559L6.34412 59.5377C6.29978 59.1314 6.47712 58.7475 6.87595 58.393ZM6.11521 60.0398L6.12263 60.158C6.13728 60.3205 6.06345 60.4166 5.90095 60.4238L5.89373 60.3057C5.87888 60.1654 5.95271 60.0768 6.11521 60.0398ZM5.89373 63.4594L6.27771 63.4225L6.29236 63.5555C6.19646 63.5627 6.07087 63.6145 5.9158 63.7031L5.67205 63.7252C5.6572 63.5998 5.73845 63.5037 5.89353 63.4594H5.89373ZM16.8242 60.0842C14.6676 61.1477 13.3972 61.8715 13.0207 62.248C10.6869 63.0605 9.52732 63.5627 9.54939 63.7621C7.47419 64.582 6.10779 65.1877 5.45056 65.5643C5.29548 65.5791 5.0738 65.5199 4.77849 65.3869C4.74158 64.966 4.93357 64.6264 5.33962 64.3531C5.70154 64.3234 6.04861 64.3752 6.38103 64.5154C6.76521 64.316 7.43728 64.0945 8.39001 63.8582L8.36775 63.607L7.59978 63.6736C7.69568 63.5406 8.43416 63.1936 9.82263 62.6322L10.2068 62.5953L10.2142 62.7135C9.55681 62.7725 9.1949 62.9647 9.11365 63.3117C9.12849 63.4668 9.21716 63.5332 9.37966 63.5186C9.87439 63.2082 10.1181 63.0236 10.1107 62.9719C11.0488 62.7947 13.641 61.4357 17.8877 58.9025L17.9099 59.1314C17.9174 59.2422 17.5554 59.5523 16.8242 60.0842ZM10.3101 62.226C10.9306 62.1742 11.4623 61.9232 11.9054 61.4875C12.0826 61.4727 12.1787 61.5391 12.1861 61.6941C11.8832 61.7238 11.2998 61.9748 10.4506 62.4623L10.325 62.4697L10.3101 62.226ZM20.8197 54.1535L17.5627 56.7313C15.1402 58.3191 13.8404 59.1166 13.6558 59.1314C9.80056 61.2512 7.40037 62.3516 6.4697 62.4328L6.32947 62.4475C6.44763 62.0119 8.16091 58.5037 11.4845 51.901C12.9469 51.7754 15.2511 51.0961 18.39 49.8553L19.158 49.7887C20.7459 49.6484 21.9349 49.9586 22.7179 50.6973L22.7621 51.1771C22.1713 52.876 21.5215 53.8656 20.8197 54.1535ZM14.4535 50.5717L14.9779 50.5273L14.9851 50.6455L14.4609 50.6898L14.4535 50.5717ZM21.8168 49.3234L22.201 49.2865C22.5554 49.4564 22.74 49.6041 22.7549 49.7371L22.7621 49.8553C22.4224 49.8848 22.1049 49.7076 21.8168 49.3234ZM22.8582 43.393C22.5185 43.799 21.5879 44.4934 20.0664 45.4682C19.5642 45.5125 17.6957 46.2363 14.4609 47.6543C14.2992 47.5804 14.121 47.5499 13.9439 47.5658L13.9217 47.3367C13.8847 46.8715 14.0916 46.2881 14.5494 45.5791C14.8006 44.2496 15.0738 43.4889 15.3767 43.3043L18.0724 37.2408C18.0427 36.8641 18.6189 36.576 19.8006 36.3766L20.1845 36.3396L20.2142 36.6869C21.3736 36.5096 22.0974 36.4062 22.3781 36.384C24.5199 36.1994 25.6351 36.6352 25.7238 37.6766L25.9676 37.6543L25.9158 37.0414L26.1816 37.0191C26.8094 37.3664 27.1492 37.7873 27.1935 38.282C27.223 38.6219 27.0385 39.0428 26.6469 39.5451C26.4845 39.5598 26.3885 39.4416 26.3736 39.2053L26.1078 39.2275L26.0488 39.966C24.9631 41.5908 24.1728 42.4254 23.6853 42.4697C23.2422 43.0828 22.9689 43.3855 22.8582 43.393ZM24.5125 47.6396C24.291 47.4918 24.1136 47.4254 23.9808 47.4328L23.9511 47.0709L24.1949 47.0488L24.7342 47.3664C24.7562 47.5361 24.6824 47.6248 24.5125 47.6396ZM26.226 49.6705C26.4623 49.7666 26.6027 49.8699 26.6322 49.966L26.514 49.9955L26.5215 50.0029C26.4992 50.0029 26.4697 50.0104 26.4474 50.0178L26.2703 50.158L26.226 49.6705ZM26.3885 50.6898L26.3664 50.5938L26.6765 50.5199L26.6986 50.616L26.3885 50.6898ZM27.1343 51.5244C27.4519 51.4727 27.607 51.4506 28.1978 51.3176L28.2201 51.4137L27.0974 51.6721C27.1123 51.6203 27.1269 51.5688 27.1343 51.5244ZM28.2275 51.9896C27.7549 52.034 27.8582 51.9748 27.1049 52.1447L27.0826 52.0488L28.0207 51.7459L28.4713 51.6426L28.5154 51.8197C28.316 51.8641 28.4638 51.8641 28.2275 51.9896ZM29.2246 51.7533C29.1136 51.7828 29.0252 51.7312 28.9734 51.6057L29.2615 51.5391C29.3869 51.5096 29.4681 51.5613 29.4978 51.6869L29.2246 51.7533ZM31.9275 48.8434L31.9054 48.7475L32.3707 48.6367L32.415 48.8139L31.9275 48.8434ZM34.8154 66.5539C34.8449 66.4209 34.8523 66.325 34.8375 66.2584L34.941 66.2363C35.0664 66.2068 35.1402 66.2512 35.1699 66.3693L35.192 66.4652L34.8154 66.5539ZM36.839 49.6041L36.6322 49.5672C36.2998 49.7002 36.0191 49.7961 35.7902 49.8479L35.5982 49.8922C35.4875 49.9217 35.3988 49.8773 35.3545 49.7592L36.706 49.449L37.1492 49.2422L37.2969 49.4121C37.0826 49.4564 36.9275 49.5229 36.839 49.6041ZM37.8803 49.2717L37.8582 49.1758C37.9246 49.1609 38.0133 49.1094 38.1094 49.0133L39.0693 48.7918L39.0916 48.8877C38.582 49.0133 38.1758 49.1389 37.8803 49.2717ZM38.0281 47.3293C37.9615 47.3441 37.873 47.4033 37.7621 47.4918C37.7474 47.4254 37.6144 47.4254 37.3633 47.4846C37.3191 47.2998 38.0281 47.0414 39.4978 46.7016L39.7045 46.6572L39.7488 46.8346C38.7148 47.1373 38.1388 47.3072 38.0281 47.3293ZM40.6131 44.5377C40.5095 45.7119 40.0961 46.3768 39.3648 46.5465L39.3428 46.4506L38.6927 46.7016L38.4047 46.7682C38.257 46.8051 38.124 46.7977 38.0058 46.7607L37.9468 46.5021C37.9246 46.4062 38.8627 45.1062 40.7681 42.61L40.9896 42.6471C41.0709 42.9867 40.9453 43.6145 40.6131 44.5377ZM45.1845 40.6232L45.0961 40.6307L45.0812 40.4461L45.4652 40.4092L45.4726 40.5051C45.4062 40.5199 45.3101 40.5568 45.1845 40.6232ZM43.3013 59.5377C43.0797 59.4342 42.8802 59.39 42.7105 59.4047L42.6883 59.124C42.6808 59.0281 42.74 58.9615 42.8656 58.9246C42.9912 58.91 43.065 58.9984 43.0797 59.1906C43.3972 58.7844 43.5746 58.5775 43.6115 58.5775L43.8109 58.6588C43.7371 59.2201 43.5672 59.5154 43.3013 59.5377ZM63.4933 38.415C63.3972 38.4225 63.2127 38.127 62.9246 37.5287L62.9099 37.3441C63.0945 37.3293 63.2865 37.6174 63.4785 38.2082L63.4933 38.415ZM63.2275 36.3027L63.1388 36.4947L60.4062 35.35C62.2304 35.4092 63.1758 35.7268 63.2275 36.3027ZM51.6396 46.2512L51.2554 46.2881L51.2408 46.1033L51.6248 46.0738L51.6396 46.2512ZM51.322 40.2762L51.4254 40.2688L51.4474 40.5494C51.3515 40.5568 51.2334 40.6898 51.0929 40.9482L51.0783 40.7637C51.2482 40.5494 51.3293 40.3869 51.322 40.2762ZM50.517 42.1965L50.5465 42.5584L50.4431 42.5658L50.4135 42.2039L50.517 42.1965ZM50.0812 42.8834L50.2732 42.8686C50.2511 43.1787 50.1699 43.3412 50.0295 43.3561L49.9261 43.3633C50.0369 43.1566 50.0886 42.9941 50.0812 42.8834ZM49.7711 43.8287L49.8597 43.8213L49.867 43.9172L49.6972 44.2127L49.5051 44.2275L49.4978 44.1314C49.6972 44.1166 49.7857 44.0133 49.7711 43.8287ZM49.4609 44.6854L49.3943 45.158L49.3056 45.1654L49.2687 44.7002L49.4609 44.6854ZM46.3072 53.6439C46.1816 54.2645 46.0488 54.582 45.9084 54.5967L45.901 54.5154C45.8789 54.2053 46.0117 53.91 46.3072 53.6439ZM45.7238 54.8922L45.731 54.9734C45.7459 55.1063 45.6869 55.1803 45.5539 55.1875L45.5465 55.0916C45.539 54.9955 45.5982 54.9291 45.7238 54.8922ZM45.5613 57.4918L45.8566 57.4697L45.864 57.5656C45.7976 57.573 45.6941 57.61 45.576 57.6766L45.384 57.6912C45.3765 57.5879 45.4357 57.5215 45.5613 57.4918ZM53.8553 54.9291C52.2304 55.7342 51.2629 56.2807 50.9601 56.5613C49.1875 57.1816 48.3088 57.5658 48.3234 57.7209C46.7504 58.3486 45.7164 58.799 45.2289 59.0871C45.1107 59.0945 44.9408 59.0502 44.7193 58.9469C44.6898 58.6293 44.8375 58.3707 45.1476 58.1787C45.4283 58.1566 45.6941 58.1936 45.9379 58.2969C46.2334 58.1492 46.7429 57.9867 47.4668 57.8022L47.4519 57.6174L46.8463 57.6617C46.9203 57.5584 47.4888 57.2924 48.5451 56.8641L48.8404 56.842L48.8478 56.9232C48.3457 56.9676 48.065 57.1152 48.0058 57.3811C48.0133 57.4992 48.0871 57.5584 48.2127 57.5436C48.582 57.2998 48.7592 57.1596 48.7592 57.1152C49.4681 56.9897 51.4328 55.9557 54.6603 54.0207L54.675 54.2053C54.6824 54.2865 54.4092 54.5229 53.8553 54.9291ZM48.907 56.5539C49.3869 56.5096 49.7931 56.325 50.133 56C50.2584 55.9852 50.3324 56.0443 50.3396 56.1625C50.1181 56.1846 49.6824 56.3693 49.025 56.7238L48.9217 56.7313L48.907 56.5539ZM56.898 50.4166L54.4387 52.3959C52.5996 53.5996 51.6027 54.2053 51.4474 54.2201C48.5228 55.8301 46.706 56.6646 45.9896 56.7238L45.8863 56.7313C45.9748 56.3988 47.2822 53.7326 49.808 48.7252C50.9084 48.6293 52.6513 48.1049 55.0443 47.1596L55.6426 47.1078C56.8463 47.0045 57.7474 47.2408 58.3383 47.8094L58.3677 48.1713C57.9172 49.4416 57.4299 50.1875 56.898 50.4166ZM52.0679 47.6986L52.4519 47.6617L52.4594 47.7578L52.0754 47.7947L52.0679 47.6986ZM57.6588 46.7459L57.9543 46.7238C58.2275 46.8566 58.3678 46.975 58.3752 47.0709L58.3826 47.1521C58.124 47.1742 57.8803 47.0414 57.6588 46.7459ZM58.4342 42.2482C58.1758 42.5584 57.4742 43.09 56.3295 43.8287C55.9453 43.8656 54.5273 44.4121 52.0754 45.4756C51.9572 45.4312 51.8242 45.4166 51.6838 45.424L51.6691 45.2393C51.6396 44.8848 51.7947 44.4416 52.1344 43.9025C52.3263 42.8834 52.5406 42.3146 52.7621 42.1816L54.8226 37.573C54.8006 37.2998 55.2363 37.0783 56.1226 36.9084L56.4179 36.8863L56.4402 37.167C57.3117 37.0266 57.8582 36.9453 58.0797 36.9232C59.7045 36.7828 60.5539 37.1078 60.6203 37.9055L60.8123 37.8906L60.7754 37.4475L60.9676 37.4328C61.4402 37.6912 61.6912 38.0016 61.7209 38.3707C61.7429 38.6367 61.6099 38.9615 61.3293 39.3383C61.2039 39.3529 61.1301 39.2645 61.1152 39.0725L60.9232 39.0871L60.864 39.641C60.0443 40.8893 59.4461 41.5318 59.0693 41.5613C58.7371 42.0119 58.5303 42.2408 58.4342 42.2482ZM59.2984 45.3205L59.2761 45.0398L59.4681 45.0252L59.8818 45.2762C59.8892 45.3943 59.8301 45.4609 59.7045 45.4756C59.5273 45.3648 59.3943 45.3131 59.2984 45.3205ZM24.9187 63.26L24.7267 63.3043L24.5642 63.4445C24.5937 63.5627 24.6676 63.607 24.7931 63.5775C24.9187 63.548 24.9705 63.4742 24.941 63.3561L24.9187 63.26ZM24.1877 61.8051L24.2097 61.901C24.3353 61.8715 24.3869 61.7977 24.3574 61.6795L24.3353 61.5834C24.2172 61.6131 24.1654 61.6869 24.1877 61.8051ZM29.3869 49.4342L29.6086 49.3826L29.5642 49.1906L29.3428 49.2422L29.3869 49.4342ZM96.4033 55.0621C94.158 55.5643 93.8773 55.4756 93.4047 55.5125L93.4195 55.6973L93.6263 55.6824L93.7371 55.675L93.7076 55.6529L93.9511 55.5568C96.1742 55.3131 96.4328 55.4018 96.4105 55.1506L96.4033 55.0621ZM84.3131 56.6646L84.3279 56.8494H84.3574L84.3428 56.6646H84.3131ZM82.9246 51.7977L82.7252 51.7312C82.5627 52.167 82.4814 52.4254 82.4888 52.4992L82.4963 52.5805C82.6513 52.573 82.7918 52.3072 82.9246 51.7977ZM96.8611 55.0252L96.876 55.2098L97.2008 55.2687L97.1861 55.0842L96.8611 55.0252ZM81.5804 56.8936L81.0783 56.8346L80.9896 57.0266L80.997 57.1227L83.9881 56.8715L83.9734 56.6869L81.5804 56.8936ZM80.2215 50.3428L80.2142 50.2467L80.1107 50.2541L79.9261 50.3723L80.0295 50.5494C80.1699 50.5348 80.2363 50.4682 80.2215 50.3428ZM98.2791 53.6662L98.4195 53.6514C98.5008 53.6439 98.5377 53.5775 98.5303 53.4594L98.449 53.282C97.9394 53.3264 97.7031 53.3486 97.2894 53.5775L97.282 53.4816L96.6691 53.5406C96.6543 53.3561 96.6027 53.26 96.5215 53.2674L96.2039 53.2969C95.8345 53.3264 95.6572 53.3117 95.4726 53.452C95.4652 53.3855 95.4431 53.3561 95.4062 53.3561L95.0517 53.3855L94.8449 53.5037C94.8375 53.4373 94.8154 53.4076 94.7783 53.4076L94.6529 53.5186L94.6455 53.4225L94.1506 53.3855L94.0324 53.393L94.0472 53.5775L94.2984 53.6439L94.5347 53.6293C94.616 53.6811 94.7045 53.6957 94.808 53.6883L95.0148 53.585L95.022 53.6662C93.8627 53.9543 93.8699 53.9025 93.0722 54.0355C92.9838 53.9764 92.9172 53.9469 92.8728 53.9543L92.8582 53.9689C92.7695 53.9615 92.7178 53.9025 92.7105 53.8064L93.124 53.7549C93.1535 53.7549 93.1758 53.7844 93.4047 53.8287C93.7371 53.6662 93.7517 53.5996 93.9291 53.585L93.9142 53.4002C92.7769 53.6219 93.2347 53.4742 91.8093 53.5996L91.7429 53.607L91.7281 53.4225C93.5597 53.201 92.9468 53.3264 93.5746 53.1492C93.582 53.2156 93.6041 53.2451 93.641 53.2451C93.7083 53.1764 93.7968 53.1322 93.8922 53.1197L94.0178 53.1123C94.6601 53.0605 94.8744 53.1861 96.1447 52.8316L96.1521 52.9129L96.359 52.8094L96.551 52.7947C96.5361 52.61 96.8168 52.5805 96.9129 52.573L96.898 52.3736C94.6676 52.8242 94.0842 52.6986 93.4638 52.876L93.4564 52.7947C92.873 52.898 92.8508 52.8537 92.7031 52.8611C92.6588 52.8686 92.5924 52.9055 92.5183 52.9793C92.5111 52.9129 92.4888 52.8832 92.4445 52.8832C92.4224 52.8832 92.415 52.8906 92.4076 52.8906L90.517 53.2008C90.5095 53.1492 90.4875 53.1197 90.4431 53.127C89.4609 53.3338 89.7267 53.3707 88.4121 53.4889C88.3529 53.4963 88.2719 53.5258 88.1683 53.5924C88.1609 53.5406 88.1314 53.5111 88.065 53.5184L87.2599 53.585L86.7209 53.7178C86.7134 53.6662 86.684 53.6367 86.6174 53.6439C86.3146 53.7252 86.0488 53.777 85.8345 53.7918H85.8197C85.6869 53.8064 85.8863 53.7549 85.7828 53.7105L85.6203 53.8064C85.384 53.8287 85.5095 53.7918 84.6972 53.799C83.2719 53.9764 83.4269 53.9984 83.2719 54.0059L82.74 53.9689C82.7474 54.0207 82.7179 54.0576 82.6588 54.0576C82.0531 53.9764 81.7429 53.8803 81.7355 53.7695C81.8168 53.1936 81.9572 52.898 82.1566 52.8832L82.2599 52.876L82.1713 53.068L82.2748 53.0605C82.4668 52.9572 82.5554 52.8611 82.548 52.7725L82.5332 52.573L82.3412 52.5879L82.3263 52.4033C82.3117 52.2629 82.3338 52.1373 82.3855 52.034L82.8213 51.3324L82.8361 51.517L83.0427 51.5021L83.0281 51.3176L82.9099 51.1477C83.065 51.0148 83.1832 50.9408 83.2791 50.9336L83.2719 50.8375L82.9912 50.8598L82.9689 50.5791C83.5303 49.4121 83.7961 48.7326 83.7814 48.5406L83.9808 48.6219C84.1064 48.6145 84.1654 48.5406 84.158 48.4076L83.966 48.4225L83.9586 48.3412C83.9451 48.2064 83.9707 48.0705 84.0324 47.9498C84.3353 47.6322 84.4756 47.3146 84.4461 46.9822C84.5052 46.9748 84.5347 47.0045 84.5422 47.0709C84.8006 46.9232 85 46.5318 85.1476 45.8818C85.6056 45.0547 86.2554 43.4004 87.1049 40.9262C88.7297 36.5539 88.6633 36.0887 88.8922 35.0547L88.7002 35.0693C88.7148 35.2023 88.6853 35.3279 88.6263 35.4461C88.4933 35.3943 88.39 35.3648 88.3162 35.3723L88.3088 35.291C88.2791 34.9143 88.4343 34.4639 88.7888 33.932L88.8773 33.9246L89.0398 34.5598L89.2318 34.5451C89.2246 34.5008 89.2761 34.2496 89.3797 33.7844C89.3722 33.6883 89.2984 33.6293 89.1506 33.6219L88.966 33.74C88.9513 33.607 88.9586 33.26 88.9808 32.7061L88.8847 32.7135C88.7222 32.551 88.641 32.418 88.6336 32.3072L87.5775 32.4105C87.5701 32.3367 87.5332 32.226 87.4594 32.0857C87.4519 31.9896 87.6883 31.8936 88.1758 31.7977L88.39 31.8789L88.5894 31.7607C88.5967 31.8271 88.6336 31.8566 88.7074 31.8494L88.9068 31.7312C88.9142 31.7977 88.9511 31.8271 89.0252 31.8197L89.1211 31.8125L89.1062 31.5982C88.9586 31.6131 88.5672 31.6131 87.9469 31.5908L87.7474 31.7238L87.74 31.6057C82.7844 32.0117 79.9705 32.2408 79.2984 32.3072C79.2097 32.3146 78.8627 32.3072 78.2496 32.2924C78.257 32.3736 78.1832 32.418 78.0355 32.4328L77.8213 32.3367L77.0974 32.5215C76.9275 32.5361 76.6396 32.5287 76.2408 32.4846C76.1301 32.573 75.997 32.6248 75.8345 32.6396C75.7459 32.6469 76.8906 32.5805 77.9541 32.5066C77.8433 32.5953 77.6736 32.6469 77.4373 32.6691C77.2748 32.684 77.1344 32.6617 77.0162 32.5953C76.8537 32.6691 76.3295 32.7873 75.4506 32.9645L75.2363 32.8834L71.7799 33.415C71.6469 33.3486 71.4918 33.3264 71.3146 33.3412C71.1299 33.3561 70.8197 33.4225 70.3914 33.5406L68.7222 34.2348L68.8478 34.4416C68.9291 34.4342 69.0472 34.39 69.1875 34.3088L69.7785 34.3604L69.7045 34.9143C69.158 35.158 68.8404 35.5199 68.7517 35.9779C67.932 36.3396 67.5258 36.5982 67.5258 36.7533L67.5332 36.8494L67.6588 36.842L67.8802 36.7238L68.1388 37.034L68.1758 37.4623C68.1904 37.5953 66.8093 40.4979 64.0472 46.1699C61.6543 51.6352 60.3988 54.6264 60.2806 55.1654C59.4609 55.3943 58.9881 55.7268 58.8478 56.1699C58.8627 56.3102 59.1062 56.4062 59.5789 56.4432L59.6011 56.6572L59.3869 57.0117L59.4238 57.4402C59.4461 57.6617 60.0443 57.8316 61.2185 57.9498C61.2111 57.876 61.2482 57.8316 61.3293 57.8242C61.3515 58.09 61.2777 58.607 61.1078 59.3752L61.2334 59.3678C61.7207 58.7031 61.9498 58.2451 61.9275 57.9941L62.031 57.9867C62.1492 57.9793 62.2748 58.1123 62.4224 58.4002C62.2748 58.4594 61.7578 59.6336 60.8715 61.9307L60.997 62.1373L61.1226 62.1301C62.2082 59.3826 62.8877 57.8611 63.1683 57.573C64.5937 57.4475 67.0605 57.1965 70.5613 56.8197L70.7828 56.6869C70.7902 56.7607 70.8345 56.7977 70.9158 56.7902L71.1447 56.7682L71.3664 56.6352C71.3736 56.709 71.4179 56.7459 71.4992 56.7385L74.1506 56.5096C74.8523 56.4506 75.1845 56.2363 75.1551 55.8744C75.1476 55.7785 75.5613 55.6676 76.3959 55.5494C76.4771 55.542 76.5953 55.5643 76.7578 55.616C76.7504 55.5494 77.1713 55.483 78.0133 55.4092C78.0355 54.966 78.1758 54.7297 78.4269 54.7076L78.4047 54.4934C78.1683 54.5154 77.9025 54.5746 77.5924 54.6779C77.0385 54.6484 76.684 54.6041 76.5361 54.5523C76.3885 54.6336 76.2777 54.6779 76.1965 54.6854L74.35 54.7445L74.1285 54.8627C74.1211 54.7961 74.0767 54.7666 73.9955 54.774L73.8922 54.7814L73.6558 54.8996C73.6484 54.833 73.4564 54.7814 73.0722 54.7297L72.8361 54.8699L72.3781 54.9068L72.3707 54.7887C74.7488 54.5303 75.9232 54.2053 75.8935 53.8213C76.0488 53.8064 76.1301 53.8803 76.1447 54.0355L76.839 53.8582L76.8168 53.6439L71.1226 53.799C71.1299 53.873 71.0929 53.9172 71.0119 53.9246L70.3176 53.8656C70.1402 53.8803 69.9926 53.932 69.8744 54.0207L69.616 53.9246C68.8996 53.9838 68.3678 54.0725 68.0133 54.1832C67.5258 54.1463 66.9867 54.1535 66.3885 54.2053L65.1107 54.316L64.5199 54.2496C64.4904 53.873 65.2215 52.0191 66.7281 48.6957C67.164 47.573 67.5627 46.8715 67.9469 46.6057C68.0281 46.5982 68.1463 46.6277 68.3088 46.6941L69.2172 46.384L69.6824 46.4578C70.4652 46.3914 71.3736 46.1699 72.415 45.7857C72.6736 45.7637 72.8656 45.7785 73.0058 45.8375L73.7002 45.675L75.7681 45.4979C76.6469 45.424 77.5996 45.2318 78.6336 44.9143L78.6115 44.7002C78.2275 44.7371 78.0281 44.6707 78.0133 44.5154C77.9912 44.2275 77.7105 44.1094 77.1713 44.1535L77.1492 43.9395L77.7179 43.777L79.2097 43.6514L79.1875 43.4373C79.1285 43.4445 78.8258 43.4373 78.2644 43.415L78.2422 43.1861L78.8183 43.1344C78.9734 43.1197 79.0398 43.0457 79.0252 42.898C78.2496 42.9203 77.8582 42.8834 77.8508 42.7799C72.4445 43.0457 69.7342 43.0975 69.7193 42.9275C69.6381 42.935 69.5273 42.9867 69.3797 43.0754L69.2392 42.8537C70.6721 39.8109 71.514 38.2748 71.7578 38.2525C71.765 38.3707 71.706 38.5627 71.573 38.8213L71.5804 38.9172L71.8093 38.8951C72.3781 37.5361 72.8582 36.8346 73.257 36.8051C74.9556 36.6572 73.0207 36.5465 76.6543 35.9779C76.8021 36.0443 76.9054 36.0738 76.9793 36.0664C78.4047 35.7785 80.3914 35.4756 82.9394 35.1654L82.9246 34.9512L81.5656 35.0768L81.5509 34.8627C81.7134 34.8479 81.8463 34.7961 81.9572 34.7076L81.9644 34.8258C82.0385 34.8184 82.1418 34.7666 82.2748 34.6779C82.5111 34.6559 82.6883 34.6779 82.8138 34.7445C83.2865 34.6189 83.6705 34.5451 83.9511 34.5154L84.8006 34.4342C85.0074 34.3014 85.1033 34.1832 85.0961 34.0725L85.0886 33.9764C84.8744 33.9984 84.6306 33.9838 84.3428 33.932C84.3353 33.8139 84.3943 33.7326 84.5347 33.6957L86.1152 33.548L86.839 33.3633C86.8463 33.4445 86.8834 33.4742 86.9424 33.4742C87.0162 33.4668 87.1197 33.415 87.2525 33.3264C87.2894 33.3338 87.3338 33.3338 87.3707 33.3412C87.2748 33.5406 87.1638 33.8287 87.0531 34.2053L86.8463 34.2201C86.8316 34.0797 86.7947 33.9543 86.7281 33.8434L86.6248 33.8508C84.7045 39.1979 83.8478 41.6869 82.0754 45.7932C81.7504 46.842 81.4771 47.4254 81.2408 47.551C81.2482 47.6691 81.322 47.7281 81.4476 47.7135C81.4918 48.2305 81.3736 48.74 81.0857 49.2422C80.2658 51.6057 79.7193 52.898 79.4387 53.1344L79.6232 54.2496C79.6306 54.3678 79.5717 54.4342 79.4461 54.449L79.2541 54.4639C79.2244 54.1535 79.1136 54.0059 78.9142 54.0281L78.8109 54.0355C78.5597 54.427 78.3678 54.8773 78.2422 55.4018L78.4342 55.3869C78.6927 55.2172 78.8109 55.0178 78.7887 54.7887L79.1728 54.7518L79.3943 54.833C79.2172 55.1137 79.1359 55.3354 79.1506 55.5051L79.2541 55.6824L79.0029 56.2732L79.0103 56.3693C79.2318 56.3471 79.4756 56.4209 79.7342 56.576C79.9113 56.5613 80.1033 56.4801 80.3176 56.3396C80.539 56.3176 81.3662 56.3102 82.7918 56.3102L83.508 56.0664C84.3797 56.059 84.5199 56.0813 85.2732 56.0148L85.5834 55.9852L85.7459 55.8744L85.7533 55.9705C86.5435 55.9039 86.5953 55.9557 87.2156 56.0295L87.223 56.1256L86.7873 56.1625L86.8019 56.3471C86.9349 56.3324 87.0531 56.2953 87.1492 56.2143C87.2599 56.2068 87.3263 56.2658 87.3338 56.3988C87.1566 56.4137 86.9572 56.4578 86.7355 56.5318L86.5435 56.4652C86.2408 56.5465 86.3072 56.5688 86.1004 56.5834L85.7976 56.5244C85.8051 56.576 85.7754 56.6129 85.7238 56.6129C85.731 56.7313 85.7976 56.7902 85.9084 56.7828L86.2185 56.7533L87.8359 56.6129L88.449 56.4801C88.4564 56.5318 88.4785 56.5613 88.5303 56.5539L88.8256 56.4432L89.3797 56.3988C89.808 56.3619 89.8006 56.3324 90.731 56.1846C90.7238 56.1256 90.7459 56.1033 90.7902 56.0961L90.7976 56.1771C92.3117 55.9187 92.4076 55.9039 92.6513 55.8227L92.6734 55.867C93.0502 55.7785 92.8359 55.8006 92.9394 55.7268C92.9469 55.7932 92.9689 55.8227 93.0058 55.8227L93.2717 55.8006L93.257 55.6012L92.7178 55.5938L92.7105 55.5791C92.6883 55.5863 92.6734 55.5863 92.6513 55.5938H92.5775V55.6086C92.2156 55.6824 92.2082 55.6307 91.9718 55.6529L90.6203 55.7268L90.6129 55.6307L91.3662 55.5273L91.6394 55.5051L91.7947 55.3943L91.8019 55.4904C92.8656 55.4018 93.2422 55.6676 98.1609 54.6189C98.4267 54.5967 98.4047 54.3752 98.5746 53.9172C98.4845 53.9234 98.3945 53.9028 98.316 53.8582C97.9099 54.0133 97.6957 53.9395 96.9129 54.065C96.8463 54.0725 96.7947 54.0133 96.7724 53.8951L96.765 53.8139L97.5183 53.8359C97.6588 53.8213 97.932 53.799 98.3383 53.5701C98.3383 53.6367 98.1904 53.6736 98.2791 53.6662ZM61.9129 54.2496L61.5656 54.2791C61.551 54.1389 61.7355 53.607 62.1195 52.6986L62.3486 52.6766C62.356 52.8906 62.2156 53.415 61.9129 54.2496ZM62.3338 52.5658L62.3263 52.4697C62.3189 52.3516 62.3929 52.2703 62.5554 52.2334L62.5627 52.3293C62.5701 52.4697 62.4963 52.551 62.3338 52.5658ZM66.9498 56.133L66.9572 56.2289L66.381 56.2807L66.3736 56.1846L66.9498 56.133ZM66.2554 56.0738C66.2629 56.192 66.0857 56.325 65.7015 56.4578L64.9926 56.4062L64.7636 56.4283L64.7416 56.2143L66.2554 56.0738ZM70.9232 34.5895L70.576 34.6189L70.5687 34.5008C70.5613 34.3826 70.6277 34.3014 70.7754 34.2645L70.901 34.257L71.1373 34.3529C71.1447 34.4934 71.0783 34.5746 70.9232 34.5895ZM76.2039 33.5555L76.3146 33.548L76.3293 33.7621L76.0117 33.7918C76.0045 33.6736 76.0635 33.5924 76.2039 33.5555ZM74.8744 34.0207L74.35 33.9615L74.3426 33.8656C75.0295 33.8064 75.2584 33.7326 75.6795 33.6145C75.6869 33.6957 75.7607 33.7252 75.8935 33.7105L75.9084 33.9246L75.7015 33.9469C75.539 33.9615 75.3988 33.9395 75.2806 33.873C75.1551 33.9543 75.022 34.0059 74.8744 34.0207ZM75.5318 35.9336L75.5244 35.8375L76.3736 35.7562L76.381 35.8523L75.5318 35.9336ZM76.4402 35.1949L76.4328 35.0768L76.8463 35.0398L76.8537 35.158L76.4402 35.1949ZM76.5361 33.7475L76.4254 33.7549L76.5215 33.5258L77.4668 33.4373L77.4742 33.5555C77.2304 33.5775 76.9129 33.6439 76.5361 33.7475ZM77.0162 35.7857L77.0013 35.5717L77.415 35.5348C77.5554 35.5199 77.6293 35.5863 77.6367 35.7342L77.0162 35.7857ZM79.5199 32.3736L78.9881 32.5215L78.8922 32.5287C78.641 32.551 78.316 32.5436 77.932 32.5066C78.6189 32.4623 79.2761 32.4105 79.5199 32.3736ZM78.9511 34.7371L78.9586 34.833L78.2275 34.8996L78.2201 34.8035L78.9511 34.7371ZM80.1476 35.3057C80.1402 35.2172 80 35.158 79.7119 35.1285L78.9808 35.3354L78.4195 35.3574C78.2939 35.2687 78.2275 35.2098 78.2201 35.1654L78.8701 35.2023L80.3324 34.966L81.0783 34.9955L81.0857 35.1137C80.7164 35.1506 80.4062 35.2172 80.1476 35.3057ZM87.6736 33.3633C87.7621 33.3707 87.8213 33.3707 87.8433 33.3707C88.1019 33.1197 88.39 32.9203 88.7222 32.7799C88.4564 33.9469 88.0428 34.8109 87.4742 35.3723L87.0605 35.1211C87.4076 34.2422 87.6144 33.6588 87.6736 33.3633ZM86.4033 35.5422L86.5066 35.5348C86.3662 35.8006 86.2408 35.9408 86.1373 35.9482L86.1152 35.6676C86.1816 35.6676 86.2777 35.6232 86.4033 35.5422ZM85.5834 37.4992C85.7828 36.7016 85.9748 36.2512 86.1521 36.133L86.1595 36.2289C86.056 36.9676 85.8935 37.359 85.6795 37.3885L85.7164 37.8537C85.539 38.1049 85.4578 38.2969 85.4652 38.4445L85.3619 38.452L85.3027 37.8094C85.4209 37.7947 85.517 37.6912 85.5834 37.4992ZM85.2658 38.5627C85.2732 38.6736 85.1994 38.932 85.0517 39.3309L84.9482 39.3383L84.9261 39.0576C85.0664 38.7326 85.1845 38.5701 85.2658 38.5627ZM79.3058 55.8596L79.2984 55.7785L79.4904 55.7637L79.5125 56.0443C79.4092 56.0518 79.3353 55.9926 79.3058 55.8596ZM87.8213 56.0812C87.8138 56.0148 87.7843 55.9852 87.7179 55.9926L87.2379 56.0369L87.2304 55.9408H87.2748L88.4121 55.8449L88.4195 55.9408C88.0871 55.9557 87.8877 56.0074 87.8213 56.0812ZM87.2525 55.8449C87.2969 55.867 87.2748 55.8893 87.2525 55.9039C87.2304 55.8967 87.201 55.8744 87.2525 55.8449ZM87.3117 54.5154L86.6765 54.5672L86.6691 54.4711L87.2451 54.4195L87.7474 54.2939C87.7549 54.3529 87.7843 54.3752 87.8508 54.3678C88.449 54.2645 88.39 54.235 88.6779 54.2127C88.774 54.2053 88.8332 54.2645 88.8404 54.3826L87.3117 54.5154ZM89.5347 54.3234C89.1803 54.2865 89.158 54.257 88.907 54.2791L88.8996 54.1979L89.4681 54.1463L89.4756 54.2275C89.4166 54.235 89.6306 54.2496 89.5347 54.3234ZM89.5791 54.2201L89.5717 54.1389L89.8818 54.1094L89.8892 54.1906L89.5791 54.2201ZM90.2658 54.1609L90.2586 54.0797C90.3101 54.0725 90.384 54.0355 90.4801 53.9615C90.6351 53.9469 90.7164 54.0502 90.7312 54.1684L90.2658 54.1609ZM91.1447 54.0502L91.1373 53.9543L91.514 53.9246L91.5215 54.0207L91.1447 54.0502ZM91.6691 54.0059C91.6617 53.8951 91.706 53.8287 91.8021 53.8139L91.9275 53.9764C91.9203 53.9246 91.9424 53.8951 91.9867 53.8877L92.0828 54.065L91.6691 54.0059ZM86.0931 56.4137L86.0783 56.2289L86.0191 56.2363L86.034 56.4209L86.0931 56.4137ZM99.0695 53.0531C99.1285 53.0162 99.158 52.9793 99.0178 52.9572C98.9511 53.0311 99.0916 53.0531 98.9439 53.0605L98.9511 53.127C98.966 53.1123 99.0029 53.09 99.0324 53.068L98.9511 53.1344V53.1418L98.7961 53.3412L99.1062 53.2305H99.1433L99.1285 53.0457L99.0695 53.0531ZM99.6086 53.4742L99.5494 53.4816L99.5642 53.6662L100 53.6293C99.9926 53.5111 99.7045 53.4742 99.6086 53.4742ZM98.9365 53.1492L98.9439 53.1418V53.1344C98.9439 53.1344 98.9365 53.1418 98.9365 53.1492Z" fill="black"/>
<path d="M70.5834 39.4785L70.5908 39.5967L70.8346 39.5746C70.8271 39.5008 70.8566 39.3826 70.9084 39.2348L70.8863 39.0207C70.7828 39.0281 70.6795 39.1832 70.5834 39.4785ZM68.2496 33.8656L68.2275 33.6514L67.8803 33.6809L67.9025 33.8951L68.2496 33.8656ZM61.4771 46.5465C61.4623 46.3471 60.842 45.5717 59.616 44.2053C59.5938 43.9543 60.0148 43.5775 60.8789 43.0828L63.3457 40.9336C63.8996 40.2318 64.2244 39.0945 64.3205 37.5141L64.291 37.1521C64.1949 36.059 63.4047 35.1803 61.9055 34.5082C61.0191 33.91 59.4238 33.5775 57.1197 33.5184C55.2143 33.6809 52.7252 34.3604 49.6604 35.5643C48.8184 36.1699 47.8582 36.7754 46.7799 37.3811L46.7947 37.5658C46.8611 37.5584 46.9645 37.5215 47.0828 37.4402C47.2082 37.4254 47.2822 37.4846 47.2895 37.6027L47.4742 37.5066L47.5627 37.4992L47.5701 37.5805C47.5775 37.6766 46.9129 38.2008 45.5687 39.1389L45.6721 39.3309L45.5834 39.3383L45.3619 39.257C45.3693 39.3234 45.2732 39.3678 45.0887 39.3826L45.0961 39.4639L45.3102 39.7297C45.2438 39.7371 45.1404 39.7076 45 39.6559C44.6898 39.6854 44.3869 39.8479 44.0842 40.158L44.2098 39.6115C44.6604 37.6691 44.9705 35.9482 45.133 34.4564L45.1107 34.3604C44.8006 34.1609 44.4979 33.8803 44.2172 33.5258C44.2246 33.2969 44.2246 33.1639 44.2172 33.1344L44.1949 33.0531L44.1064 33.0754C43.1314 34.5377 41.2555 37.034 38.4713 40.5643C36.3516 43.0754 35.2584 44.4711 35.192 44.7518C34.3279 45.6455 33.9143 46.1846 33.9586 46.3693C33.7297 46.517 33.6336 46.6646 33.6707 46.8271C33.6041 46.842 33.5598 46.8197 33.5451 46.7533C33.1758 47.3516 32.6293 47.7355 31.898 47.9055L31.1299 48.0826C31.0266 48.1049 30.9748 48.1787 30.9822 48.3043L31.0045 48.4002L31.2924 48.3338L31.3146 48.415L30.6646 48.6662L29.5125 48.932L28.907 48.9689C28.8184 49.0576 29.3869 48.9615 29.1654 49.0133L28.4121 49.1906C27.9543 49.2939 27.7031 49.257 27.6588 49.0725L27.5701 49.0945C27.585 49.1758 27.5924 49.2348 27.5775 49.2865L27.5332 49.102L26.9275 49.2422C26.8834 48.9615 26.0635 47.9424 24.4756 46.1846C24.4461 45.8449 25.0074 45.35 26.1521 44.7076L29.3869 41.8641C30.1107 40.9336 30.5391 39.4416 30.6795 37.3885L30.6352 36.9084C30.5096 35.4609 29.4609 34.2939 27.4889 33.393C26.3221 32.6027 24.2246 32.1816 21.1965 32.1152C18.6854 32.3293 15.4062 33.223 11.3736 34.7814C10.2658 35.5863 9.00293 36.384 7.58496 37.1742L7.60703 37.4254C7.70313 37.418 7.82871 37.3664 7.98379 37.2777C8.14629 37.2629 8.23496 37.3367 8.24961 37.4846L8.50078 37.3441L8.62637 37.3367L8.63359 37.4549C8.64102 37.573 7.76211 38.26 5.98223 39.5154L6.12266 39.7371L5.99707 39.7445L5.72383 39.6484C5.73125 39.7223 5.60566 39.774 5.34707 39.7961L5.36191 39.9291L5.65723 40.2541C5.56133 40.2615 5.42832 40.2318 5.25859 40.1729C4.68242 40.2244 4.12109 40.6381 3.56719 41.4209L3.70762 41.6426C4.1877 41.1994 4.46816 40.9779 4.54941 40.9705L4.5791 41.3324C4.49785 41.3396 4.37227 41.3914 4.20234 41.4801L4.50527 41.9379C5.0772 41.3198 5.72483 40.7764 6.43281 40.3205C6.77988 40.4092 6.96465 40.5199 6.97187 40.6381L7.23789 40.616C9.14336 39.2053 11.0266 38.1861 12.8951 37.5584L12.9174 37.8094C12.5701 38.3264 12.3338 38.5924 12.2082 38.607C12.223 38.7844 12.2822 38.9395 12.393 39.0725C12.4225 39.39 11.573 41.5318 9.85234 45.4904C5.94531 54.6928 2.66621 61.5021 0 65.9039C0.00742187 65.9926 0.0591797 66.1107 0.155078 66.2584C0.8125 66.1033 1.22598 65.941 1.40332 65.7857L1.54355 65.7711L1.56582 66.0221L1.80938 66L2.06055 65.8598C2.06797 65.9336 2.14922 65.9705 2.31914 65.9557L2.34121 66.2068C2.36328 66.4506 2.22305 66.8197 1.92754 67.3293C1.66172 67.6322 1.37363 68.2674 1.0709 69.235L1.07832 69.3529L1.32207 69.3309C2.38555 68.1418 3.19063 66.9748 3.74453 65.8375C6.84648 64.9291 9.20977 64.0353 10.8494 63.1566C12.4963 63.0162 13.7518 62.5805 14.6086 61.8641L14.5938 61.7312L13.9734 61.9158L13.833 61.9307L13.8184 61.7977C15.0295 61.6131 15.8641 61.3471 16.3295 60.9779C18.6854 59.1609 20.4652 57.876 21.6691 57.1152C24.1434 55.2984 25.7533 53.5258 26.4846 51.8051C26.6174 51.7754 26.7504 51.7459 26.898 51.709C27.2451 51.6943 27.4373 51.6869 27.4889 51.6721C27.4742 51.6057 27.5037 51.5687 27.5701 51.5539C28.124 51.4949 27.8582 51.5908 28.2127 51.5096L29.1434 51.2955L29.2984 51.2584L29.2246 51.3027C29.3279 51.3176 29.4387 51.3102 29.5643 51.2807L29.6307 51.5539L25.3988 58.282L24.4609 59.4564L24.0029 60.9926L24.0916 60.9705L24.5494 60.7785L24.4018 61.3768L24.4461 61.5539L24.5717 61.709C24.5125 61.7238 24.4904 61.7607 24.5051 61.8271L24.5273 61.9232L24.7193 61.8789C25 61.6352 25.1182 61.4137 25.0738 61.2143C25.3766 61.2658 25.576 61.2881 25.6795 61.2586L25.7016 61.3545C25.517 61.3988 25.4209 61.5465 25.4062 61.7977L25.4283 61.8936L25.5318 61.8715C27.068 60.1949 30.8346 54.4564 33.8553 50.5643C33.7592 50.1434 35.3324 49.5598 38.582 48.8064L38.6854 48.7844C38.8035 49.2939 38.5525 50.5273 37.932 52.4846C37.5332 53.6662 37.3412 54.316 37.3707 54.4195C36.8537 55.9926 36.61 56.842 36.6396 56.9748L35.4875 60.7488C34.7414 62.684 34.1729 64.7148 33.774 66.8566C33.8404 66.842 33.9439 66.8494 34.0916 66.8863L34.2541 66.7459C34.2687 66.8125 34.3131 66.8346 34.3797 66.8197L34.3131 66.5465L34.8154 66.5318C34.9631 66.4949 35.0887 66.3102 35.192 65.9705C35.1699 65.4609 35.2732 65.1877 35.5021 65.1285C35.8123 63.9174 36.0045 63.3117 36.0709 63.2895C36.359 62.0857 36.573 61.3988 36.7135 61.2289C37.1492 59.6633 37.4668 58.8582 37.6736 58.8064L37.718 58.9984L37.4004 59.8184C36.8463 62.2777 36.2852 64.2201 35.7164 65.6455L35.8789 66.3545L35.9822 66.3324C37.3561 63.3781 39.3354 57.5287 41.9129 48.7844C41.9867 48.0162 42.3561 47.418 43.0133 46.9971L42.8656 46.842L42.8434 46.7607C43.1389 46.6941 43.3457 46.5762 43.4639 46.4137C43.449 46.3471 43.1906 46.2512 42.6883 46.1182L43.9734 40.6086C44.2541 40.3574 44.4166 40.2246 44.4682 40.2246L44.4904 40.5051C44.424 40.5125 44.3205 40.5494 44.2023 40.6307L44.4461 40.9779C44.8893 40.4979 45.3693 40.0842 45.8936 39.7371C46.1596 39.8109 46.2924 39.8996 46.3072 39.9881L46.4992 39.9734C47.9615 38.9025 49.3943 38.1344 50.8051 37.6691L50.8197 37.8537C50.5613 38.2451 50.384 38.4445 50.2881 38.452C50.3027 38.585 50.3396 38.7031 50.4062 38.8064C50.4283 39.0502 49.7932 40.675 48.4934 43.6883C45.5244 50.6676 43.0354 55.8301 41.0117 59.1832C41.0191 59.2496 41.0635 59.3383 41.1447 59.4564C41.6396 59.3383 41.9572 59.2127 42.0828 59.0945L42.1713 59.0871L42.1861 59.2717L42.393 59.257L42.5775 59.1609C42.585 59.2127 42.6514 59.2348 42.777 59.2275L42.7918 59.427C42.8064 59.6041 42.7031 59.8848 42.4742 60.2687C42.26 60.4979 42.0385 60.9779 41.8021 61.709L41.8094 61.8051L42.0016 61.7902C42.8064 60.8893 43.4195 60.0029 43.8404 59.1314C46.1965 58.4373 47.9912 57.765 49.2318 57.1004C50.4949 56.9896 51.4475 56.6646 52.0975 56.1182L52.09 56.0221L51.61 56.1625L51.5066 56.1699L51.4992 56.0738C52.415 55.9408 53.0576 55.7342 53.4047 55.4609C55.192 54.0871 56.5436 53.1049 57.4594 52.5287C60.3102 50.4535 61.6396 48.4594 61.4771 46.5465ZM60.9896 46.6721L61.0561 47.418C60.9676 47.6027 60.8715 47.6986 60.7828 47.7061L60.6721 46.4357C60.8789 46.5096 60.9822 46.5834 60.9896 46.6721ZM5.06641 40.6604L4.94102 40.6676L4.91875 40.4387L5.42832 40.3943L5.43574 40.5125C5.35449 40.5199 5.22891 40.5643 5.06641 40.6604ZM2.57754 65.5568C2.28223 65.4238 2.01621 65.3723 1.7873 65.3943L1.75781 65.0324C1.74297 64.8922 1.82422 64.7961 2.00156 64.7592C2.16387 64.7445 2.25996 64.8627 2.2748 65.099C2.70312 64.5746 2.93945 64.3088 2.98379 64.3014L3.25703 64.4121C3.16836 65.1506 2.93945 65.5273 2.57754 65.5568ZM29.1729 37.7355C29.0473 37.7504 28.7961 37.359 28.4344 36.5834L28.4121 36.3545C28.6484 36.3324 28.8922 36.7164 29.1506 37.5066L29.1729 37.7355ZM28.8184 34.9809L28.7148 35.2246L25.1033 33.7178C27.5111 33.799 28.752 34.2201 28.8184 34.9809ZM13.5672 48.0754L13.0576 48.1197L13.0355 47.8906L13.5451 47.8463L13.5672 48.0754ZM13.1535 40.2098L13.2791 40.2023L13.3088 40.5643C13.1906 40.5717 13.0355 40.7488 12.8434 41.0887L12.8213 40.8375C13.0502 40.5643 13.1684 40.3574 13.1535 40.2098ZM12.0826 42.7355L12.127 43.2156L12.0016 43.223L11.9572 42.743L12.0826 42.7355ZM11.5215 43.6367L11.7652 43.6145C11.743 44.0133 11.6322 44.2275 11.4328 44.2422L11.3072 44.2496C11.4623 43.9838 11.5361 43.777 11.5215 43.6367ZM11.1004 44.8922L11.2408 44.8773L11.248 44.9955L11.0191 45.3797L10.7754 45.4018L10.7682 45.2836C11.0119 45.2615 11.1227 45.1359 11.1004 44.8922ZM10.6869 46.0223L10.6131 46.6277L10.4875 46.6352L10.4357 46.0369L10.6869 46.0223ZM6.54355 57.8021C6.38105 58.6293 6.20391 59.0502 6.01914 59.065L6.01191 58.9469C5.96758 58.5406 6.14473 58.1566 6.54355 57.8021ZM5.78281 59.449L5.79023 59.5672C5.80508 59.7297 5.73125 59.8258 5.56875 59.833L5.56133 59.7148C5.54648 59.5746 5.62031 59.4859 5.78281 59.449ZM5.56133 62.8686L5.94531 62.8316L5.96016 62.9646C5.86406 62.9719 5.73848 63.0236 5.5834 63.1123L5.33965 63.1344C5.325 63.0088 5.40625 62.9129 5.56133 62.8686ZM16.4918 59.4934C14.3354 60.5568 13.065 61.2807 12.6883 61.6572C10.3545 62.4697 9.19492 62.9719 9.21719 63.1713C7.1418 63.9912 5.77539 64.5967 5.11816 64.9734C4.96309 64.9881 4.7416 64.9291 4.44609 64.7961C4.40918 64.3752 4.60117 64.0354 5.00742 63.7621C5.36934 63.7326 5.71641 63.7844 6.04883 63.9246C6.43281 63.7252 7.10488 63.5037 8.05762 63.2674L8.03555 63.0162L7.26738 63.0826C7.36328 62.9498 8.10195 62.6027 9.49043 62.0414L9.87441 62.0045L9.88184 62.1227C9.22461 62.1816 8.86269 62.3736 8.78144 62.7209C8.79609 62.876 8.88477 62.9424 9.04727 62.9275C9.54219 62.6174 9.78574 62.4328 9.77852 62.3811C10.7164 62.2039 13.3088 60.8449 17.5555 58.3117L17.5775 58.5406C17.585 58.6514 17.223 58.9615 16.4918 59.4934ZM9.97793 61.6352C10.5982 61.5834 11.1301 61.3324 11.573 60.8967C11.7504 60.8818 11.8465 60.9482 11.8537 61.1033C11.551 61.133 10.9676 61.384 10.1182 61.8715L9.99258 61.8789L9.97793 61.6352ZM20.4875 53.5627L17.2305 56.1477C14.808 57.7355 13.5082 58.5332 13.316 58.548C9.46094 60.6676 7.06055 61.7682 6.13008 61.8494L5.98965 61.8641C6.10781 61.4283 7.82129 57.9203 11.1447 51.3176C12.607 51.192 14.9113 50.5125 18.0502 49.2719L18.8184 49.2053C20.4062 49.065 21.5953 49.3752 22.3781 50.1137L22.4225 50.5937C21.8391 52.2852 21.1891 53.2748 20.4875 53.5627ZM14.1211 49.9809L14.6455 49.9365L14.6529 50.0547L14.1285 50.099L14.1211 49.9809ZM21.4846 48.7326L21.8686 48.6957C22.223 48.8656 22.4076 49.0133 22.4225 49.1463L22.4299 49.2645C22.09 49.2939 21.7725 49.1166 21.4846 48.7326ZM22.5258 42.8021C22.1861 43.2082 21.2555 43.9025 19.7342 44.8773C19.2318 44.9217 17.3633 45.6455 14.1285 47.0635C13.9668 46.9896 13.7886 46.959 13.6115 46.9748L13.5895 46.7459C13.5525 46.2807 13.7592 45.6973 14.2172 44.9883C14.4682 43.6588 14.7416 42.898 15.0443 42.7135L17.74 36.65C17.7105 36.2732 18.2865 35.9852 19.4682 35.7857L19.8523 35.7488L19.8818 36.0961C21.0414 35.9187 21.765 35.8154 22.0457 35.7932C24.1877 35.6086 25.3027 36.0443 25.3914 37.0857L25.6352 37.0635L25.5834 36.4506L25.8494 36.4283C26.4771 36.7754 26.8168 37.1965 26.8611 37.6912C26.8906 38.0311 26.7061 38.452 26.3146 38.9543C26.1521 38.9689 26.0561 38.8508 26.0414 38.6145L25.7754 38.6367L25.7164 39.3752C24.6307 41 23.8404 41.8346 23.3531 41.8789C22.91 42.4918 22.6367 42.7947 22.5258 42.8021ZM24.1803 47.0488C23.9586 46.901 23.7814 46.8346 23.6484 46.842L23.6189 46.4801L23.8627 46.4578L24.4018 46.7756C24.424 46.9453 24.35 47.034 24.1803 47.0488ZM25.8938 49.0797C26.1301 49.1758 26.2703 49.2791 26.2998 49.3752L26.1816 49.4047L26.1891 49.4121C26.167 49.4121 26.1373 49.4195 26.1152 49.427L25.9379 49.5672L25.8938 49.0797ZM26.0561 50.099L26.034 50.0029L26.3441 49.9291L26.3664 50.0252L26.0561 50.099ZM26.8021 50.9336C27.1197 50.8818 27.2748 50.8598 27.8656 50.7268L27.8877 50.8227L26.7652 51.0812C26.7799 51.0295 26.7947 50.9779 26.8021 50.9336ZM27.8951 51.3988C27.4225 51.4432 27.5258 51.384 26.7725 51.5539L26.7504 51.4578L27.6957 51.1551L28.1463 51.0518L28.1906 51.2289C27.9838 51.2732 28.1314 51.2732 27.8951 51.3988ZM28.8922 51.1625C28.7814 51.192 28.6928 51.1404 28.641 51.0148L28.9291 50.9482C29.0547 50.9187 29.1359 50.9705 29.1654 51.0961L28.8922 51.1625ZM31.5953 48.2525L31.573 48.1566L32.0385 48.0457L32.0828 48.223L31.5953 48.2525ZM34.483 65.9631C34.5125 65.8301 34.5199 65.7342 34.5051 65.6676L34.6086 65.6455C34.7342 65.616 34.808 65.6603 34.8375 65.7785L34.8598 65.8744L34.483 65.9631ZM36.5066 49.0133L36.2998 48.9764C35.9676 49.1094 35.6869 49.2053 35.4578 49.257L35.2658 49.3014C35.1551 49.3309 35.0664 49.2865 35.0221 49.1684L36.3736 48.8582L36.8168 48.6514L36.9646 48.8213C36.7504 48.8656 36.5953 48.932 36.5066 49.0133ZM37.548 48.6809L37.5258 48.585C37.5924 48.5701 37.6809 48.5186 37.777 48.4225L38.7371 48.2008L38.7592 48.2969C38.2496 48.4225 37.8434 48.548 37.548 48.6809ZM37.6957 46.7385C37.6293 46.7533 37.5406 46.8123 37.4299 46.901C37.415 46.8346 37.2822 46.8346 37.0311 46.8936C36.9867 46.709 37.6957 46.4506 39.1654 46.1107L39.3723 46.0664L39.4166 46.2437C38.3826 46.5465 37.8064 46.7164 37.6957 46.7385ZM40.2807 43.9469C40.1773 45.1211 39.7637 45.7857 39.0324 45.9557L39.0104 45.8598L38.3604 46.1107L38.0725 46.1773C37.9246 46.2143 37.7918 46.2068 37.6736 46.1699L37.6145 45.9113C37.5924 45.8154 38.5303 44.5154 40.4357 42.0191L40.6572 42.0561C40.7385 42.3959 40.6131 43.0236 40.2807 43.9469ZM44.8523 40.0324L44.7637 40.0398L44.7488 39.8553L45.133 39.8184L45.1402 39.9143C45.0738 39.9291 44.9779 39.966 44.8523 40.0324ZM42.9689 58.9469C42.7475 58.8434 42.548 58.799 42.3781 58.8139L42.3561 58.5332C42.3486 58.4373 42.4076 58.3707 42.5332 58.3338C42.6588 58.3191 42.7326 58.4076 42.7475 58.5996C43.065 58.1936 43.2422 57.9867 43.2791 57.9867L43.4785 58.068C43.4047 58.6293 43.235 58.9246 42.9689 58.9469ZM63.1609 37.8242C63.065 37.8316 62.8803 37.5361 62.5924 36.9379L62.5775 36.7533C62.7621 36.7385 62.9543 37.0266 63.1463 37.6174L63.1609 37.8242ZM62.8951 35.7119L62.8064 35.9039L60.0738 34.7592C61.898 34.8184 62.8434 35.1359 62.8951 35.7119ZM51.3072 45.6603L50.9232 45.6973L50.9084 45.5125L51.2924 45.4756L51.3072 45.6603ZM50.9896 39.6854L51.093 39.6779L51.1152 39.9586C51.0191 39.966 50.901 40.099 50.7607 40.3574L50.7459 40.1729C50.9158 39.9586 50.9971 39.7961 50.9896 39.6854ZM50.1846 41.6057L50.2143 41.9676L50.1107 41.975L50.0812 41.6131L50.1846 41.6057ZM49.7488 42.2924L49.9408 42.2777C49.9188 42.5879 49.8375 42.7504 49.6973 42.765L49.5938 42.7725C49.7045 42.5658 49.7563 42.4033 49.7488 42.2924ZM49.4387 43.2379L49.5273 43.2305L49.5348 43.3264L49.3648 43.6219L49.1729 43.6367L49.1654 43.5406C49.3648 43.5258 49.4535 43.4225 49.4387 43.2379ZM49.1285 44.0945L49.0621 44.5672L48.9734 44.5746L48.9365 44.1094L49.1285 44.0945ZM45.9748 53.0531C45.8494 53.6736 45.7164 53.9912 45.576 54.0059L45.5687 53.9246C45.5465 53.6145 45.6795 53.3189 45.9748 53.0531ZM45.3914 54.3014L45.3988 54.3826C45.4137 54.5154 45.3545 54.5893 45.2215 54.5967L45.2143 54.5008C45.2068 54.4047 45.2658 54.3383 45.3914 54.3014ZM45.2289 56.901L45.5244 56.8789L45.5316 56.9748C45.4652 56.9822 45.3619 57.0191 45.2437 57.0857L45.0518 57.1004C45.0443 56.9971 45.1033 56.9307 45.2289 56.901ZM53.5229 54.3383C51.898 55.1434 50.9305 55.6898 50.6277 55.9705C48.8553 56.5908 47.9764 56.9748 47.9912 57.1299C46.418 57.7578 45.384 58.2082 44.8967 58.4963C44.7785 58.5037 44.6086 58.4594 44.3869 58.3561C44.3574 58.0385 44.5051 57.7799 44.8154 57.5879C45.0961 57.5658 45.3619 57.6027 45.6057 57.7061C45.901 57.5584 46.4105 57.3959 47.1344 57.2111L47.1197 57.0266L46.5215 57.0783C46.5953 56.9748 47.1639 56.709 48.2201 56.2807L48.5154 56.2584L48.5229 56.3396C48.0207 56.384 47.74 56.5318 47.6809 56.7977C47.6883 56.9158 47.7621 56.9748 47.8877 56.9602C48.257 56.7164 48.4342 56.576 48.4342 56.5318C49.1434 56.4062 51.1078 55.3723 54.3354 53.4373L54.35 53.6219C54.35 53.6957 54.0768 53.932 53.5229 54.3383ZM48.5746 55.9631C49.0547 55.9187 49.4609 55.7342 49.8006 55.4092C49.9262 55.4018 50 55.4535 50.0074 55.5717C49.7857 55.5937 49.35 55.7785 48.6928 56.133L48.5895 56.1402L48.5746 55.9631ZM56.5658 49.8258L54.1064 51.8051C52.2674 53.0088 51.2703 53.6145 51.1152 53.6293C48.1906 55.2393 46.3736 56.0738 45.6572 56.133L45.5539 56.1402C45.6426 55.808 46.9498 53.1418 49.4756 48.1344C50.576 48.0385 52.3191 47.5141 54.7119 46.5687L55.3102 46.517C56.5141 46.4137 57.415 46.65 58.0059 47.2186L58.0355 47.5805C57.585 48.8508 57.0975 49.5967 56.5658 49.8258ZM51.7355 47.1078L52.1197 47.0709L52.127 47.167L51.743 47.2039L51.7355 47.1078ZM57.3264 46.1551L57.6219 46.133C57.8951 46.2658 58.0355 46.384 58.0428 46.4801L58.0502 46.5613C57.7918 46.5834 57.548 46.4506 57.3264 46.1551ZM58.102 41.6572C57.8434 41.9676 57.1418 42.4992 55.9971 43.2379C55.6131 43.2748 54.1949 43.8213 51.743 44.8848C51.6248 44.8404 51.4918 44.8258 51.3516 44.833L51.3367 44.6484C51.3072 44.2939 51.4623 43.8508 51.8021 43.3117C51.9941 42.2924 52.2082 41.7238 52.4299 41.5908L54.4904 36.9822C54.4682 36.709 54.9039 36.4875 55.7902 36.3176L56.0857 36.2955L56.1078 36.576C56.9793 36.4357 57.5258 36.3545 57.7475 36.3324C59.3723 36.192 60.2215 36.517 60.2881 37.3146L60.4801 37.2998L60.4432 36.8566L60.6352 36.842C61.1078 37.1004 61.359 37.4105 61.3885 37.7799C61.4105 38.0457 61.2777 38.3707 60.9971 38.7475C60.8715 38.7621 60.7977 38.6736 60.7828 38.4814L60.5908 38.4963L60.5318 39.0502C59.7119 40.2984 59.1137 40.9408 58.7371 40.9705C58.4047 41.4209 58.1978 41.65 58.102 41.6572ZM58.966 44.7297L58.9439 44.449L59.1359 44.4344L59.5494 44.6854C59.5568 44.8035 59.4978 44.8701 59.3723 44.8848C59.1949 44.774 59.0621 44.7223 58.966 44.7297ZM24.5863 62.6691L24.3943 62.7135L24.2318 62.8537C24.2615 62.9719 24.3354 63.0162 24.4609 62.9867C24.5863 62.9572 24.6381 62.8834 24.6086 62.7652L24.5863 62.6691ZM23.8553 61.2143L23.8773 61.3102C24.0029 61.2807 24.0547 61.2068 24.0252 61.0887L24.0029 60.9926C23.8848 61.0221 23.833 61.0961 23.8553 61.2143ZM29.0842 51.3914L29.2246 51.3027C29.1949 51.3027 29.1729 51.2953 29.1506 51.2881C29.099 51.3027 29.0768 51.3396 29.0842 51.3914ZM29.0547 48.8434L29.2762 48.7918L29.2318 48.5996L29.0104 48.6514L29.0547 48.8434ZM81.2482 56.3027L80.7459 56.2437L80.6572 56.4357L80.6646 56.5318L83.6559 56.2807L83.641 56.0961L81.2482 56.3027ZM83.9809 56.0738L83.9955 56.2584H84.025L84.0104 56.0738H83.9809ZM96.5287 54.4342L96.5436 54.6189L96.8686 54.6779L96.8537 54.4934L96.5287 54.4342ZM96.0709 54.4711C93.8258 54.9734 93.5451 54.8848 93.0725 54.9217L93.0871 55.1062L93.2939 55.0916L93.4047 55.0842L93.3752 55.0621L93.6189 54.966C95.842 54.7223 96.1004 54.8109 96.0783 54.5598L96.0709 54.4711ZM82.5924 51.2068L82.393 51.1404C82.2305 51.576 82.1492 51.8346 82.1566 51.9084L82.1639 51.9896C82.3191 51.9822 82.4594 51.7164 82.5924 51.2068ZM79.8893 49.752L79.8818 49.6559L79.7785 49.6633L79.5938 49.7814L79.6973 49.9586C79.8375 49.9439 79.9039 49.8773 79.8893 49.752ZM85.7607 55.8227L85.7459 55.6381L85.6869 55.6455L85.7016 55.8301L85.7607 55.8227ZM97.9469 53.0754L98.0871 53.0605C98.1684 53.0531 98.2053 52.9867 98.1979 52.8686L98.1166 52.6912C97.607 52.7355 97.3707 52.7578 96.9572 52.9867L96.9498 52.8906L96.3367 52.9498C96.3221 52.765 96.2703 52.6691 96.1891 52.6766L95.8715 52.7061C95.5022 52.7355 95.325 52.7209 95.1402 52.8611C95.133 52.7947 95.1107 52.765 95.0738 52.765L94.7193 52.7947L94.5125 52.9129C94.5051 52.8463 94.483 52.8168 94.4461 52.8168L94.3205 52.9275L94.3131 52.8316L93.8184 52.7947L93.7002 52.8021L93.7148 52.9867L93.966 53.0531L94.2023 53.0385C94.2836 53.09 94.3723 53.1049 94.4756 53.0975L94.6824 52.9941L94.6898 53.0754C93.5303 53.3633 93.5377 53.3117 92.74 53.4445C92.6514 53.3855 92.585 53.3561 92.5406 53.3633L92.5258 53.3781C92.4373 53.3707 92.3856 53.3117 92.3781 53.2156L92.7918 53.1639C92.8213 53.1639 92.8434 53.1936 93.0723 53.2379C93.4047 53.0754 93.4195 53.0088 93.5967 52.9941L93.582 52.8094C92.4445 53.0311 92.9025 52.8832 91.4771 53.0088L91.4105 53.0162L91.3959 52.8316C93.2275 52.61 92.6144 52.7355 93.2422 52.5584C93.2496 52.6248 93.2719 52.6543 93.3088 52.6543C93.3761 52.5856 93.4644 52.5414 93.5598 52.5287L93.6854 52.5215C94.3279 52.4697 94.5422 52.5953 95.8125 52.2408L95.8197 52.3221L96.0266 52.2186L96.2186 52.2039C96.2039 52.0191 96.4846 51.9896 96.5805 51.9822L96.5658 51.7828C94.3354 52.2334 93.7518 52.1078 93.1314 52.2852L93.124 52.2039C92.5406 52.3072 92.5186 52.2629 92.3707 52.2703C92.3264 52.2777 92.26 52.3146 92.1861 52.3885C92.1787 52.3221 92.1566 52.2924 92.1123 52.2924C92.09 52.2924 92.0828 52.2998 92.0754 52.2998L90.1846 52.61C90.1773 52.5584 90.1551 52.5287 90.1107 52.5361C89.1285 52.743 89.3943 52.7799 88.0797 52.898C88.0207 52.9055 87.9395 52.935 87.8361 53.0014C87.8287 52.9498 87.799 52.9203 87.7326 52.9275L86.9275 52.9941L86.3885 53.127C86.3811 53.0754 86.3516 53.0457 86.2852 53.0531C85.9822 53.1344 85.7164 53.1861 85.5022 53.2008H85.4875C85.3545 53.2156 85.5539 53.1639 85.4506 53.1197L85.2881 53.2156C85.0518 53.2379 85.1773 53.2008 84.3648 53.2082C82.9395 53.3855 83.0945 53.4076 82.9395 53.415L82.4076 53.3781C82.415 53.4299 82.3855 53.4668 82.3264 53.4668C81.7209 53.3855 81.4107 53.2895 81.4033 53.1787C81.4846 52.6027 81.6248 52.3072 81.8242 52.2924L81.9277 52.2852L81.8391 52.4771L81.9424 52.4697C82.1344 52.3662 82.223 52.2703 82.2156 52.1816L82.201 51.9822L82.0088 51.9971L81.9941 51.8123C81.9793 51.6721 82.0016 51.5465 82.0531 51.4432L82.4889 50.7414L82.5037 50.9262L82.7105 50.9113L82.6957 50.7268L82.5775 50.5568C82.7326 50.4238 82.8508 50.35 82.9469 50.3426L82.9395 50.2467L82.6588 50.2687L82.6367 49.9881C83.1981 48.8213 83.4639 48.1418 83.449 47.9498L83.6484 48.0311C83.774 48.0236 83.833 47.9498 83.8258 47.8168L83.6336 47.8316L83.6264 47.7504C83.6127 47.6155 83.6383 47.4796 83.7002 47.359C84.0029 47.0414 84.1434 46.7238 84.1137 46.3914C84.1729 46.384 84.2023 46.4137 84.2098 46.4801C84.4684 46.3324 84.6678 45.9408 84.8154 45.291C85.2732 44.4639 85.9232 42.8094 86.7725 40.3354C88.3975 35.9631 88.3309 35.4979 88.5598 34.4639L88.3678 34.4785C88.3826 34.6115 88.3531 34.7371 88.2939 34.8553C88.1609 34.8035 88.0576 34.774 87.9838 34.7814L87.9764 34.7002C87.9469 34.3234 88.102 33.873 88.4564 33.3412L88.5451 33.3338L88.7076 33.9689L88.8996 33.9543C88.8922 33.91 88.9439 33.6588 89.0473 33.1936C89.0398 33.0975 88.966 33.0385 88.8184 33.0311L88.6338 33.1492C88.6189 33.0162 88.6264 32.6691 88.6484 32.1152L88.5523 32.1227C88.39 31.9602 88.3088 31.8271 88.3014 31.7164L87.2451 31.8197C87.2379 31.7459 87.201 31.6352 87.127 31.4947C87.1197 31.3988 87.3561 31.3027 87.8434 31.2068L88.0576 31.2881L88.257 31.1699C88.2645 31.2363 88.3014 31.2658 88.3752 31.2584L88.5746 31.1402C88.582 31.2068 88.6189 31.2363 88.6928 31.2289L88.7889 31.2215L88.774 31.0074C88.6264 31.0221 88.235 31.0221 87.6145 31L87.415 31.133L87.4076 31.0148C82.452 31.4209 79.6381 31.65 78.966 31.7164C78.8773 31.7238 78.5303 31.7164 77.9174 31.7016C77.9246 31.7828 77.8508 31.8271 77.7031 31.842L77.4889 31.7459L76.7652 31.9307C76.5953 31.9453 76.3072 31.9379 75.9084 31.8936C75.7977 31.9822 75.6646 32.034 75.5022 32.0488C75.4137 32.0561 76.5584 31.9896 77.6219 31.9158C77.5111 32.0045 77.3412 32.0561 77.1049 32.0783C76.9424 32.093 76.8021 32.0709 76.684 32.0045C76.5215 32.0783 75.9971 32.1965 75.1182 32.3736L74.9041 32.2924L71.4477 32.8242C71.3147 32.7578 71.1596 32.7355 70.9822 32.7504C70.7977 32.765 70.4875 32.8316 70.0592 32.9498L68.39 33.6439L68.5154 33.8508C68.5967 33.8434 68.7148 33.799 68.8553 33.7178L69.4461 33.7695L69.3723 34.3234C68.8258 34.5672 68.5082 34.9291 68.4195 35.3869C67.5998 35.7488 67.1936 36.0074 67.1936 36.1625L67.201 36.2584L67.3264 36.2512L67.548 36.133L67.8064 36.4432L67.8434 36.8715C67.8582 37.0045 66.4771 39.9068 63.7148 45.5791C61.3221 51.0443 60.0664 54.0355 59.9482 54.5746C59.1285 54.8035 58.6559 55.1359 58.5154 55.5791C58.5303 55.7193 58.774 55.8154 59.2467 55.8523L59.2687 56.0664L59.0547 56.4209L59.0916 56.8494C59.1137 57.0709 59.7119 57.2408 60.8863 57.359C60.8789 57.2852 60.9158 57.2408 60.9971 57.2334C61.0191 57.4992 60.9453 58.0162 60.7754 58.7844L60.901 58.777C61.3885 58.1123 61.6174 57.6543 61.5953 57.4033L61.6986 57.3959C61.8168 57.3885 61.9424 57.5215 62.09 57.8094C61.9424 57.8686 61.4254 59.0428 60.5391 61.3396L60.6646 61.5465L60.7902 61.5391C61.876 58.7918 62.5555 57.2703 62.8359 56.9822C64.2615 56.8566 66.7281 56.6057 70.2289 56.2289L70.4506 56.0959C70.4578 56.1699 70.5021 56.2068 70.5834 56.1994L70.8125 56.1771L71.034 56.0443C71.0414 56.1182 71.0857 56.1551 71.167 56.1477L73.8184 55.9187C74.5199 55.8596 74.8523 55.6455 74.8227 55.2836C74.8154 55.1875 75.2289 55.0768 76.0635 54.9586C76.1447 54.9512 76.2629 54.9734 76.4254 55.025C76.418 54.9586 76.8391 54.8922 77.6811 54.8184C77.7031 54.3752 77.8434 54.1389 78.0945 54.1166L78.0725 53.9025C77.8361 53.9246 77.5701 53.9838 77.26 54.0871C76.7061 54.0576 76.3516 54.0133 76.2039 53.9615C76.0561 54.0428 75.9453 54.0871 75.8641 54.0945L74.0178 54.1535L73.7961 54.2717C73.7887 54.2053 73.7445 54.1758 73.6633 54.1832L73.5598 54.1904L73.3234 54.3088C73.316 54.2422 73.124 54.1904 72.74 54.1389L72.5037 54.2791L72.0459 54.316L72.0385 54.1979C74.4166 53.9395 75.5908 53.6145 75.5613 53.2305C75.7164 53.2156 75.7977 53.2895 75.8123 53.4445L76.5066 53.2674L76.4846 53.0531L70.7902 53.2082C70.7977 53.282 70.7607 53.3264 70.6795 53.3338L69.9852 53.2748C69.808 53.2895 69.6604 53.3412 69.5422 53.4299L69.2836 53.3338C68.5672 53.393 68.0354 53.4814 67.6809 53.5924C67.1936 53.5555 66.6543 53.5627 66.0561 53.6145L64.7785 53.7252L64.1877 53.6588C64.158 53.282 64.8893 51.4283 66.3959 48.1049C66.8316 46.9822 67.2305 46.2807 67.6145 46.0148C67.6957 46.0074 67.8139 46.0369 67.9764 46.1033L68.8848 45.7932L69.35 45.867C70.133 45.8006 71.0414 45.5791 72.0828 45.1949C72.3412 45.1729 72.5332 45.1877 72.6736 45.2467L73.3678 45.0842L75.4357 44.9068C76.3146 44.833 77.2674 44.641 78.3014 44.3234L78.2791 44.1094C77.8951 44.1463 77.6957 44.0797 77.6811 43.9246C77.6588 43.6367 77.3781 43.5184 76.8391 43.5627L76.8168 43.3486L77.3855 43.1861L78.8773 43.0605L78.8553 42.8465C78.7961 42.8537 78.4934 42.8465 77.932 42.8242L77.91 42.5953L78.4859 42.5436C78.641 42.5289 78.7076 42.4549 78.6928 42.3072C77.9174 42.3293 77.5258 42.2924 77.5186 42.1891C72.1123 42.4549 69.4018 42.5066 69.3871 42.3367C69.3059 42.3441 69.1949 42.3959 69.0473 42.4846L68.907 42.2629C70.3396 39.2201 71.1816 37.6838 71.4254 37.6617C71.4328 37.7799 71.3736 37.9719 71.248 38.2305L71.2555 38.3264L71.4846 38.3043C72.0531 36.9453 72.5332 36.2437 72.932 36.2143C74.6307 36.0664 72.6957 35.9557 76.3295 35.3869C76.4771 35.4535 76.5805 35.483 76.6543 35.4756C78.0797 35.1875 80.0664 34.8848 82.6144 34.5746L82.5996 34.3604L81.2408 34.4859L81.226 34.2717C81.3885 34.257 81.5215 34.2053 81.6322 34.1166L81.6396 34.2348C81.7135 34.2275 81.8168 34.1758 81.9498 34.0871C82.1861 34.065 82.3633 34.0871 82.4889 34.1535C82.9615 34.0281 83.3457 33.9541 83.6264 33.9246L84.4756 33.8434C84.6824 33.7105 84.7785 33.5924 84.7711 33.4814L84.7637 33.3855C84.5494 33.4076 84.3059 33.393 84.0178 33.3412C84.0104 33.223 84.0693 33.1418 84.2098 33.1049L85.7902 32.9572L86.5141 32.7725C86.5215 32.8537 86.5584 32.8832 86.6174 32.8832C86.6912 32.876 86.7947 32.8242 86.9275 32.7355C86.9646 32.743 87.0088 32.743 87.0457 32.7504C86.9498 32.9498 86.8391 33.2379 86.7281 33.6145L86.5215 33.6293C86.5066 33.4889 86.4697 33.3633 86.4033 33.2525L86.2998 33.26C84.3797 38.607 83.5229 41.0961 81.7504 45.2023C81.4254 46.2512 81.1521 46.8346 80.9158 46.9602C80.9232 47.0783 80.9971 47.1373 81.1227 47.1227C81.167 47.6396 81.0488 48.1492 80.7607 48.6514C79.9408 51.0148 79.3943 52.3072 79.1137 52.5436L79.2984 53.6588C79.3057 53.777 79.2467 53.8434 79.1211 53.8582L78.9291 53.873C78.8996 53.5627 78.7887 53.415 78.5895 53.4373L78.4859 53.4445C78.2348 53.8359 78.0428 54.2865 77.9174 54.8109L78.1094 54.7961C78.3678 54.6264 78.4859 54.427 78.4639 54.1979L78.8478 54.1609L79.0693 54.2422C78.8922 54.5229 78.8109 54.7445 78.8258 54.9143L78.9291 55.0916L78.6779 55.6824L78.6853 55.7785C78.907 55.7562 79.1506 55.8301 79.4092 55.9852C79.5863 55.9705 79.7785 55.8893 79.9926 55.7488C80.2143 55.7268 81.0414 55.7193 82.4668 55.7193L83.1832 55.4756C84.0547 55.4682 84.1949 55.4904 84.9482 55.4238L85.2584 55.3943L85.4209 55.2836L85.4283 55.3797C86.2186 55.3131 86.2703 55.3648 86.8906 55.4387L86.898 55.5348L86.4623 55.5717L86.4771 55.7562C86.61 55.7414 86.7281 55.7045 86.8242 55.6232C86.935 55.616 87.0014 55.675 87.0088 55.808C86.8316 55.8227 86.6322 55.867 86.4105 55.9408L86.2186 55.8744C85.9158 55.9557 85.9822 55.9777 85.7754 55.9926L85.4727 55.9336C85.4801 55.9852 85.4506 56.0221 85.3988 56.0221C85.4062 56.1402 85.4727 56.1994 85.5834 56.192L85.8936 56.1625L87.5111 56.0221L88.124 55.8893C88.1314 55.9408 88.1535 55.9705 88.2053 55.9631L88.5008 55.8523L89.0547 55.808C89.483 55.7711 89.4756 55.7414 90.4062 55.5937C90.3988 55.5348 90.4209 55.5125 90.4652 55.5051L90.4727 55.5863C91.9867 55.3279 92.0826 55.3131 92.3264 55.2318L92.3486 55.2762C92.7252 55.1875 92.5111 55.2098 92.6145 55.1359C92.6219 55.2023 92.6439 55.2318 92.6809 55.2318L92.9469 55.2098L92.932 55.0103L92.393 55.0029L92.3856 54.9881C92.3633 54.9955 92.3486 54.9955 92.3264 55.0029H92.2525V55.0178C91.8906 55.0916 91.8832 55.0398 91.6469 55.0621L90.2953 55.1359L90.2881 55.0398L91.0414 54.9365L91.3147 54.9143L91.4697 54.8035L91.4771 54.8996C92.5406 54.8109 92.9172 55.0768 97.8359 54.0281C98.102 54.0059 98.0797 53.7844 98.2496 53.3264C98.1595 53.3326 98.0697 53.312 97.9912 53.2674C97.585 53.4225 97.3707 53.3486 96.5879 53.4742C96.5215 53.4816 96.4697 53.4225 96.4475 53.3043L96.44 53.223L97.1934 53.2451C97.3338 53.2305 97.607 53.2082 98.0133 52.9793C98.0133 53.0457 97.8582 53.0826 97.9467 53.0754H97.9469ZM61.5805 53.6588L61.2334 53.6883C61.2186 53.548 61.4033 53.0162 61.7873 52.1078L62.0162 52.0857C62.0236 52.2998 61.8832 52.8242 61.5805 53.6588ZM62.0016 51.9748L61.9941 51.8789C61.9867 51.7607 62.0605 51.6795 62.223 51.6426L62.2305 51.7385C62.2379 51.8789 62.1639 51.9602 62.0016 51.9748ZM66.6174 55.542L66.6248 55.6381L66.0488 55.6898L66.0414 55.5937L66.6174 55.542ZM65.9232 55.483C65.9307 55.6012 65.7533 55.7342 65.3693 55.867L64.6602 55.8154L64.4313 55.8375L64.4092 55.6232L65.9232 55.483ZM70.5908 33.9984L70.2438 34.0281L70.2363 33.91C70.2289 33.7918 70.2955 33.7105 70.4432 33.6736L70.5688 33.6662L70.8051 33.7621C70.8123 33.9025 70.7459 33.9838 70.5908 33.9984ZM75.8715 32.9645L75.9822 32.9572L75.9971 33.1713L75.6795 33.2008C75.6721 33.0826 75.7311 33.0016 75.8715 32.9645ZM74.542 33.4299L74.0178 33.3707L74.0104 33.2748C74.6973 33.2156 74.9262 33.1418 75.3471 33.0236C75.3545 33.1049 75.4283 33.1344 75.5613 33.1197L75.576 33.3338L75.3693 33.3561C75.2068 33.3707 75.0664 33.3486 74.9482 33.282C74.8227 33.3633 74.6898 33.415 74.542 33.4299ZM75.1994 35.3428L75.192 35.2467L76.0414 35.1654L76.0488 35.2615L75.1994 35.3428ZM76.1078 34.6041L76.1004 34.4859L76.5141 34.449L76.5215 34.5672L76.1078 34.6041ZM76.2039 33.1566L76.093 33.1639L76.1891 32.935L77.1344 32.8463L77.1418 32.9645C76.898 32.9867 76.5805 33.0531 76.2039 33.1566ZM76.684 35.1949L76.6691 34.9809L77.0828 34.9439C77.223 34.9291 77.2969 34.9955 77.3043 35.1434L76.684 35.1949ZM79.1875 31.7828L78.6559 31.9307L78.5598 31.9379C78.3088 31.9602 77.9838 31.9527 77.5996 31.9158C78.2865 31.8715 78.9439 31.8197 79.1875 31.7828ZM78.6189 34.1463L78.6264 34.2422L77.8951 34.3088L77.8877 34.2127L78.6189 34.1463ZM79.8154 34.7148C79.808 34.6264 79.6676 34.5672 79.3797 34.5377L78.6484 34.7445L78.0871 34.7666C77.9615 34.6779 77.8951 34.6189 77.8877 34.5746L78.5377 34.6115L80 34.3752L80.7459 34.4047L80.7533 34.5229C80.384 34.5598 80.0738 34.6264 79.8154 34.7148ZM87.3412 32.7725C87.4299 32.7799 87.4889 32.7799 87.5111 32.7799C87.7695 32.5287 88.0576 32.3293 88.39 32.1891C88.124 33.3561 87.7105 34.2201 87.1418 34.7814L86.7281 34.5303C87.0754 33.6514 87.2822 33.068 87.3412 32.7725ZM86.0709 34.9512L86.1742 34.9439C86.034 35.2098 85.9084 35.35 85.8051 35.3574L85.7828 35.0768C85.8494 35.0768 85.9453 35.0324 86.0709 34.9512ZM85.2512 36.9084C85.4506 36.1107 85.6426 35.6604 85.8197 35.5422L85.8271 35.6381C85.7238 36.3766 85.5613 36.7682 85.3471 36.7977L85.384 37.2629C85.2068 37.5141 85.1256 37.7061 85.1328 37.8537L85.0295 37.8611L84.9705 37.2186C85.0887 37.2039 85.1846 37.1004 85.2512 36.9084ZM84.9336 37.9719C84.9408 38.0826 84.867 38.3412 84.7193 38.74L84.616 38.7475L84.5938 38.4668C84.7342 38.1418 84.8523 37.9793 84.9334 37.9719H84.9336ZM78.9734 55.2687L78.966 55.1875L79.158 55.1728L79.1803 55.4535C79.0768 55.4609 79.0029 55.4018 78.9734 55.2687ZM87.4889 55.4904C87.4814 55.4238 87.452 55.3943 87.3855 55.4018L86.9055 55.4461L86.898 55.35H86.9424L88.0797 55.2541L88.0871 55.35C87.7549 55.3648 87.5555 55.4166 87.4889 55.4904ZM86.9203 55.2541C86.9647 55.2762 86.9424 55.2984 86.9203 55.3131C86.898 55.3057 86.8686 55.2836 86.9203 55.2541ZM86.9793 53.9246L86.3441 53.9764L86.3367 53.8803L86.9129 53.8287L87.415 53.7031C87.4225 53.7621 87.452 53.7844 87.5186 53.777C88.1168 53.6736 88.0576 53.6439 88.3457 53.6219C88.4416 53.6145 88.5008 53.6736 88.5082 53.7918L86.9793 53.9246ZM89.2023 53.7326C88.8479 53.6957 88.8258 53.6662 88.5746 53.6883L88.5672 53.607L89.1359 53.5555L89.1434 53.6367C89.0842 53.6439 89.2984 53.6588 89.2023 53.7326ZM89.2467 53.6293L89.2393 53.548L89.5494 53.5184L89.5568 53.5996L89.2467 53.6293ZM89.9336 53.5701L89.9262 53.4889C89.9779 53.4816 90.0518 53.4445 90.1477 53.3707C90.3027 53.3561 90.384 53.4594 90.3988 53.5775L89.9336 53.5701ZM90.8125 53.4594L90.8051 53.3633L91.1816 53.3338L91.1891 53.4299L90.8125 53.4594ZM91.3367 53.415C91.3295 53.3043 91.3736 53.2379 91.4697 53.223L91.5953 53.3855C91.5879 53.3338 91.61 53.3043 91.6543 53.2969L91.7504 53.4742L91.3367 53.415ZM98.6041 52.5584L98.6115 52.551V52.5436C98.6115 52.5436 98.6041 52.551 98.6041 52.5584ZM98.7371 52.4623C98.7961 52.4254 98.8258 52.3885 98.6854 52.3664C98.6189 52.4402 98.7592 52.4623 98.6115 52.4697L98.6189 52.5361C98.6336 52.5215 98.6707 52.4992 98.7002 52.4771L98.6189 52.5436V52.551L98.4639 52.7504L98.774 52.6396H98.8109L98.7961 52.4549L98.7371 52.4623ZM99.2762 52.8834L99.2172 52.8906L99.2318 53.0754L99.6676 53.0385C99.6604 52.9203 99.3723 52.8834 99.2762 52.8834Z" fill="#F9DC3E"/>
</svg>
