<svg width="100" height="100" viewBox="0 0 100 100" fill="none" xmlns="http://www.w3.org/2000/svg">
<path d="M100 50C100 77.6142 77.6142 100 50 100C22.3858 100 0 77.6142 0 50C0 22.3858 22.3858 0 50 0C77.6142 0 100 22.3858 100 50Z" fill="#7000E3"/>
<path d="M62.106 31.25C57.2946 31.25 52.8712 33.5067 50.0775 37.3196C47.2062 33.5067 42.7054 31.25 37.9717 31.25C29.6681 31.25 22.9167 38.02 22.9167 46.3462C22.9167 59.964 41.0756 77.0833 50 77.0833C58.9244 77.0833 77.0833 59.964 77.0833 46.3462C77.0833 38.02 70.3319 31.25 62.106 31.25Z" fill="#FF671D"/>
</svg>
