<svg width="100" height="100" viewBox="0 0 100 100" fill="none" xmlns="http://www.w3.org/2000/svg">
<path fill-rule="evenodd" clip-rule="evenodd" d="M51.4583 24.3854C32.9919 24.3854 23.3305 40.0452 17.9332 55.3482C17.2806 57.1982 15.2519 58.169 13.4018 57.5165C11.5518 56.864 10.581 54.8352 11.2335 52.9852C16.7111 37.4548 27.9248 17.2812 51.4583 17.2812C63.7594 17.2812 72.5824 25.4257 78.2896 35.2103C84.0124 45.0217 87.0661 57.1727 87.7314 66.989C87.779 67.6914 87.6168 68.3922 87.2654 69.0023C83.9645 74.732 78.4732 78.466 72.2138 80.753C65.9708 83.034 58.7393 83.966 51.4906 83.9687C38.9863 84.1889 27.0089 78.937 18.6993 69.5891C17.8264 68.6071 17.5669 67.2234 18.0246 65.9918L21.3542 67.2292C18.0246 65.9918 18.0243 65.9924 18.0246 65.9918L18.0323 65.9709L18.0498 65.9246L18.1128 65.7589C18.1672 65.617 18.246 65.4135 18.3475 65.1572C18.5505 64.6449 18.845 63.9196 19.2173 63.0517C19.9585 61.3234 21.0231 58.9943 22.3007 56.6427C23.5616 54.3221 25.1109 51.8277 26.8511 49.8626C28.4354 48.0734 30.902 45.8861 34.0592 45.8647L34.0833 45.8645C36.3159 45.8645 38.1499 46.8868 39.47 47.8695C40.8007 48.86 42.0091 50.1188 42.9775 51.1436C43.0887 51.2612 43.1966 51.3757 43.3017 51.4872C44.2036 52.4434 44.8933 53.1747 45.5485 53.7222C45.6222 53.7838 45.6898 53.8381 45.7515 53.8859C45.9646 53.6681 46.2189 53.3827 46.5116 53.0199C47.5527 51.7292 48.722 49.9111 49.8537 47.9647C50.9703 46.0439 51.9868 44.109 52.7277 42.6455C53.097 41.9163 53.3949 41.3098 53.5995 40.8878C53.7017 40.677 53.7804 40.5126 53.8329 40.4023L53.8916 40.2787L53.9085 40.243C54.7412 38.4669 56.8565 37.7012 58.6326 38.5337C60.4089 39.3664 61.1739 41.4813 60.3413 43.2576L57.125 41.75C60.3413 43.2576 60.3414 43.2572 60.3413 43.2576L60.3404 43.2595L60.3388 43.2629L60.3336 43.2739L60.3151 43.3131L60.2468 43.457C60.1877 43.5812 60.1018 43.7605 59.9919 43.9872C59.7722 44.4402 59.4561 45.0837 59.0659 45.8545C58.288 47.391 57.2041 49.4561 55.9953 51.5353C54.8014 53.5889 53.4199 55.7708 52.0411 57.4801C51.3573 58.3278 50.5822 59.1757 49.744 59.8424C49.0031 60.4317 47.6962 61.3021 46.0208 61.3021C43.8055 61.3021 42.06 60.0651 40.9931 59.1736C39.9877 58.3334 38.9832 57.2654 38.1394 56.3684C38.0281 56.25 37.9195 56.1346 37.8141 56.023C36.8138 54.9645 35.9962 54.14 35.2279 53.568C34.558 53.0693 34.2143 52.9852 34.1135 52.9714C34.1107 52.9726 34.1058 52.9744 34.0988 52.9769C33.9865 53.0178 33.3374 53.2537 32.1697 54.5723C30.9489 55.9509 29.6988 57.907 28.543 60.0343C27.404 62.1307 26.4347 64.2469 25.7462 65.852C25.6577 66.0584 25.574 66.2559 25.4955 66.443C32.3368 73.2604 41.6753 77.0437 51.3931 76.8652L51.4583 76.8646C58.178 76.8646 64.5384 75.9939 69.7758 74.0803C74.5956 72.3193 78.272 69.7525 80.5566 66.3446C79.8004 57.6213 77.0162 47.1271 72.1531 38.7897C67.0634 30.0639 60.1572 24.3854 51.4583 24.3854ZM45.1676 54.3907C45.1678 54.3893 45.1831 54.3789 45.213 54.3635C45.1823 54.3844 45.1674 54.392 45.1676 54.3907Z" fill="#1D2D35"/>
</svg>
