<svg width="100" height="100" viewBox="0 0 100 100" fill="none" xmlns="http://www.w3.org/2000/svg">
<path fill-rule="evenodd" clip-rule="evenodd" d="M87.4284 20.408L55.8502 1.66426C54.0156 0.574981 51.9214 0.00012207 49.7877 0.00012207C47.6541 0.00012207 45.5599 0.574981 43.7252 1.66426L12.1409 20.408C10.2637 21.5281 8.71042 23.1175 7.63376 25.0198C6.55709 26.9222 5.99413 29.0721 6.00024 31.258V68.7455C5.98864 70.9263 6.54356 73.0728 7.61065 74.9747C8.67775 76.8766 10.2205 78.4689 12.0877 79.5955L43.6659 98.3393C45.5005 99.4285 47.5947 100.003 49.7284 100.003C51.862 100.003 53.9562 99.4285 55.7909 98.3393L87.3752 79.5955C89.2425 78.4689 90.7852 76.8766 91.8523 74.9747C92.9194 73.0728 93.4743 70.9263 93.4627 68.7455V31.258C93.4802 29.0826 92.9338 26.9397 91.8768 25.0383C90.8198 23.1368 89.2883 21.5416 87.4315 20.408H87.4284ZM62.969 78.9455V81.633C62.967 81.7987 62.9237 81.9612 62.8429 82.1058C62.7621 82.2505 62.6465 82.3726 62.5065 82.4611L60.9065 83.3768C60.6565 83.508 60.444 83.3768 60.444 83.0236V80.3768C59.3145 80.9318 58.0217 81.0573 56.8065 80.7299C56.6127 80.5986 56.5377 80.3486 56.6315 80.1049L57.2034 77.6674C57.2511 77.4612 57.3626 77.2753 57.5221 77.1361C57.5676 77.091 57.6204 77.0541 57.6784 77.0268C57.7587 76.9954 57.848 76.9954 57.9284 77.0268C59.0437 77.3263 60.2321 77.1759 61.2377 76.608C61.9521 76.2591 62.5587 75.7234 62.9933 75.0577C63.428 74.392 63.6744 73.6211 63.7065 72.8268C63.7065 71.458 62.9565 70.8893 61.144 70.8736C58.8502 70.8736 56.769 70.4361 56.6752 67.0486C56.7015 65.6025 57.0474 64.1801 57.6882 62.8834C58.3289 61.5868 59.2487 60.4479 60.3815 59.5486V56.8236C60.3877 56.6576 60.4328 56.4953 60.5131 56.3499C60.5935 56.2044 60.7068 56.0799 60.844 55.9861L62.3877 55.0049C62.6377 54.8736 62.8502 55.0049 62.8502 55.3674V58.0924C63.7959 57.6625 64.8516 57.5358 65.8721 57.7299C66.0909 57.8549 66.1784 58.1299 66.0721 58.3549L65.5315 60.7705C65.4703 61.021 65.3161 61.2389 65.1002 61.3799C65.0377 61.4174 64.944 61.4049 64.869 61.3799C63.8741 61.1621 62.8336 61.3319 61.9596 61.8549C61.3221 62.1299 60.7761 62.5806 60.3854 63.1545C59.9947 63.7284 59.7755 64.4016 59.7534 65.0955C59.7534 66.3299 60.4034 66.7049 62.5877 66.7518C65.5096 66.7518 66.7659 68.0736 66.8002 71.008C66.7727 72.5254 66.4151 74.0186 65.7524 75.3839C65.0898 76.7492 64.1378 77.9539 62.9627 78.9143L62.969 78.9455ZM79.5096 74.4143C79.5285 74.528 79.5158 74.6446 79.4728 74.7516C79.4298 74.8585 79.3582 74.9515 79.2659 75.0205L71.3127 79.8705C71.2377 79.933 71.1252 79.9424 71.0409 79.8924C70.9565 79.8424 70.9159 79.7361 70.9377 79.6424V77.5799C70.9432 77.4696 70.9803 77.3632 71.0445 77.2735C71.1088 77.1837 71.1976 77.1143 71.3002 77.0736L79.1627 72.3643C79.2377 72.3018 79.3502 72.2924 79.4346 72.3424C79.519 72.3924 79.5596 72.4986 79.5377 72.5924V74.4111L79.5096 74.4143ZM85.0252 28.3143L55.144 46.7705C51.4159 48.9768 48.6752 51.3893 48.6752 55.8768V92.683C48.6752 95.3705 49.7784 97.058 51.4315 97.6205C50.8851 97.7225 50.331 97.7779 49.7752 97.7861C48.0202 97.7822 46.2986 97.3062 44.7909 96.408L13.2127 77.6674C11.6752 76.7448 10.4048 75.4372 9.52682 73.8737C8.6489 72.3102 8.19382 70.5448 8.20649 68.7518V31.258C8.19233 29.4625 8.64665 27.6944 9.52459 26.1281C10.4025 24.5619 11.6737 23.2516 13.2127 22.3268L44.7909 3.58301C47.8534 1.77051 51.6534 1.77051 54.7159 3.58301L86.294 22.3268C88.8971 23.9018 90.669 26.5455 91.144 29.5143C90.119 27.2861 87.7596 26.7018 85.0127 28.2799H85.0221L85.0252 28.3143Z" fill="white"/>
</svg>
