<svg width="100" height="100" viewBox="0 0 100 100" fill="none" xmlns="http://www.w3.org/2000/svg">
<path d="M0 50C0 22.3858 22.3858 0 50 0C77.6142 0 100 22.3858 100 50C100 77.6142 77.6142 100 50 100C22.3858 100 0 77.6142 0 50Z" fill="#1769FF"/>
<path fill-rule="evenodd" clip-rule="evenodd" d="M49.3133 41.7603C49.3133 39.833 48.8085 38.181 47.8019 36.7982C46.1242 34.5461 43.2801 33.3922 39.26 33.3334H23.3333V65.8469H38.1844C39.8589 65.8469 41.408 65.7046 42.8411 65.4107C44.2741 65.1137 45.5128 64.5723 46.5632 63.7773C47.4977 63.0843 48.2754 62.2305 48.8963 61.2189C49.8778 59.6907 50.367 57.9614 50.367 56.0341C50.367 54.1655 49.9374 52.5754 49.0844 51.27C48.2221 49.9614 46.9552 49.0055 45.2744 48.3991C46.3814 47.8423 47.2186 47.2235 47.7893 46.5491C48.8085 45.3427 49.3133 43.7433 49.3133 41.7603ZM71.5367 38.8956H57.4131V34.8492H71.5367V38.8956ZM59.0594 51.4463C59.2914 49.8809 59.859 48.6404 60.759 47.7247C61.6589 46.809 62.9321 46.3512 64.5627 46.3512C66.0678 46.3512 67.3253 46.7812 68.3476 47.6443C69.3573 48.5136 69.928 49.7758 70.044 51.4463H59.0594ZM70.2918 42.2924C71.9945 43.041 73.3962 44.229 74.5 45.85C75.5066 47.2792 76.1525 48.9374 76.4473 50.8214C76.6198 51.9227 76.6888 53.519 76.6605 55.5948H58.9026C59.0092 58.0047 59.8496 59.6969 61.4551 60.6652C62.4272 61.2684 63.5968 61.5716 64.9703 61.5716C66.4159 61.5716 67.5981 61.2034 68.5044 60.4703C69.0029 60.0712 69.442 59.5205 69.8182 58.8152H76.325C76.1525 60.2382 75.3623 61.6891 73.9638 63.1617C71.7812 65.4973 68.7239 66.6667 64.7947 66.6667C61.5492 66.6667 58.6862 65.6829 56.2121 63.7092C53.7254 61.7386 52.4899 58.5275 52.4899 54.0851C52.4899 49.9181 53.6094 46.7224 55.8452 44.4981C58.0873 42.28 60.9879 41.1632 64.5595 41.1632C66.6825 41.1632 68.5922 41.5406 70.2918 42.2924ZM29.9028 60.2042V51.5329H38.0182C39.4293 51.5453 40.53 51.7309 41.3139 52.0836C42.7156 52.7178 43.4118 53.8778 43.4118 55.5731C43.4118 57.5716 42.6905 58.9204 41.2449 59.6319C40.4516 60.0124 39.3353 60.2042 37.9053 60.2042H29.9028ZM29.9028 38.9792V46.1532H37.9179C39.3447 46.1532 40.508 45.884 41.4049 45.3457C42.2954 44.8075 42.7439 43.8546 42.7439 42.4935C42.7439 40.9745 42.1543 39.9753 40.9753 39.4865C39.953 39.1493 38.6548 38.9792 37.0775 38.9792H29.9028Z" fill="white"/>
</svg>
