<svg width="100" height="100" viewBox="0 0 100 100" fill="none" xmlns="http://www.w3.org/2000/svg">
<path d="M30.5796 42.0202L49.9994 22.6012L69.4296 42.0305L80.7294 30.7307L49.9994 0L19.2798 30.7204L30.5796 42.0202Z" fill="#F3BA2F"/>
<path d="M22.5998 49.9975L11.3002 38.6979L-1.38017e-06 49.9981L11.2996 61.2977L22.5998 49.9975Z" fill="#F3BA2F"/>
<path d="M30.5796 57.9783L49.9994 77.3974L69.4288 57.9688L80.7349 69.2623L80.7293 69.2686L49.9994 99.9985L19.279 69.2789L19.2632 69.2631L30.5796 57.9783Z" fill="#F3BA2F"/>
<path d="M88.6998 61.303L100 50.0028L88.7004 38.7032L77.4002 50.0034L88.6998 61.303Z" fill="#F3BA2F"/>
<path d="M61.4612 49.9933H61.4659L49.9994 38.5269L41.5256 47.0008H41.5248L40.5517 47.9746L38.5433 49.9831L38.5275 49.9989L38.5433 50.0155L49.9994 61.4716L61.4659 50.0052L61.4714 49.9989L61.4612 49.9933Z" fill="#F3BA2F"/>
</svg>
