<svg width="100" height="100" viewBox="0 0 100 100" fill="none" xmlns="http://www.w3.org/2000/svg">
<path d="M0 50C0 22.3858 22.3858 0 50 0C77.6142 0 100 22.3858 100 50C100 77.6142 77.6142 100 50 100C22.3858 100 0 77.6142 0 50Z" fill="white"/>
<path fill-rule="evenodd" clip-rule="evenodd" d="M26.1401 29.0787C26.4416 28.729 26.8822 28.5306 27.3438 28.5365L72.9453 28.5443C73.4069 28.5384 73.8475 28.7368 74.1489 29.0865C74.4503 29.4361 74.5817 29.9011 74.5078 30.3568L67.875 71.0756C67.7512 71.8397 67.0866 72.398 66.3125 72.3881H34.4922C33.4609 72.3795 32.5847 71.6317 32.4141 70.6146L25.7813 30.349C25.7074 29.8933 25.8387 29.4283 26.1401 29.0787ZM45.1172 57.6381H55.2734L57.7344 43.2709H42.3672L45.1172 57.6381Z" fill="#2684FF"/>
<path d="M72.3984 43.2709H57.7344L55.2734 57.6381H45.1172L33.125 71.8724C33.5051 72.2011 33.9897 72.3839 34.4922 72.3881H66.3203C67.0944 72.398 67.759 71.8397 67.8828 71.0756L72.3984 43.2709Z" fill="url(#paint0_linear_147648_408)"/>
<defs>
<linearGradient id="paint0_linear_147648_408" x1="63.0334" y1="38.3106" x2="46.094" y2="62.3624" gradientUnits="userSpaceOnUse">
<stop offset="0.18" stop-color="#0052CC"/>
<stop offset="1" stop-color="#2684FF"/>
</linearGradient>
</defs>
</svg>
