<svg width="100" height="100" viewBox="0 0 100 100" fill="none" xmlns="http://www.w3.org/2000/svg">
<path d="M50 100C77.6142 100 100 77.6142 100 50C100 22.3858 77.6142 0 50 0C22.3858 0 0 22.3858 0 50C0 77.6142 22.3858 100 50 100Z" fill="#F7931A"/>
<path fill-rule="evenodd" clip-rule="evenodd" d="M70.7995 42.2215C71.7795 35.6708 66.7918 32.1492 59.9718 29.8L62.1841 20.9261L56.7826 19.58L54.6287 28.22C53.2087 27.8661 51.7503 27.5323 50.301 27.2015L52.4703 18.5046L47.0718 17.1584L44.8579 26.0292C43.6826 25.7615 42.5287 25.4969 41.4087 25.2184L41.4149 25.1908L33.9656 23.3308L32.5287 29.1C32.5287 29.1 36.5364 30.0184 36.4518 30.0754C38.6395 30.6215 39.0349 32.0692 38.9687 33.2169L36.4487 43.3261C36.5995 43.3646 36.7949 43.42 37.0103 43.5061C36.9508 43.4914 36.8901 43.4762 36.8282 43.4607L36.8273 43.4605C36.702 43.429 36.5721 43.3965 36.4395 43.3646L32.9072 57.5261C32.6395 58.1908 31.961 59.1877 30.4318 58.8092C30.4856 58.8877 26.5056 57.8292 26.5056 57.8292L23.8241 64.0123L30.8533 65.7646C31.6379 65.9612 32.4131 66.1634 33.1802 66.3634L33.1812 66.3637C33.6923 66.4969 34.1998 66.6293 34.7041 66.7584L32.4687 75.7338L37.8641 77.08L40.0779 68.2C41.5518 68.6 42.9826 68.9692 44.3826 69.3169L42.1764 78.1554L47.5779 79.5015L49.8133 70.5431C59.0241 72.2861 65.9503 71.5831 68.8656 63.2523C71.2149 56.5446 68.7487 52.6754 63.9026 50.1523C67.4318 49.3384 70.0903 47.0169 70.7995 42.2215ZM58.4579 59.5277C56.9265 65.6817 47.2938 63.1375 42.8864 61.9733C42.4898 61.8686 42.1356 61.775 41.8333 61.7L44.7995 49.8092C45.1675 49.9011 45.6172 50.002 46.1266 50.1163C50.6851 51.1392 60.0272 53.2354 58.4579 59.5277ZM47.0425 44.5981C50.7171 45.5788 58.7325 47.7178 60.1287 42.1246C61.5545 36.4035 53.7641 34.6789 49.9595 33.8367C49.5315 33.742 49.154 33.6584 48.8456 33.5815L46.1564 44.3661C46.4104 44.4295 46.7085 44.509 47.0425 44.5981Z" fill="white"/>
</svg>
