<svg width="100" height="100" viewBox="0 0 100 100" fill="none" xmlns="http://www.w3.org/2000/svg">
<path d="M50.7481 0H51.1751L49.8246 0.131747C58.229 0.177858 66.6434 2.21334 74.015 6.26126C83.5746 11.4488 91.3501 19.8279 95.7493 29.7451C98.6258 36.2171 100.142 43.3051 99.9895 50.3898C100.029 61.8847 95.6963 73.284 88.2419 82.0419C77.4774 83.3989 66.3289 84.2223 55.7233 81.4161C49.4307 79.8582 43.8366 75.8202 40.255 70.4581C36.6172 64.0519 37.8618 55.1854 43.3765 50.2053C47.2162 46.7404 52.7574 45.255 57.8252 46.3814C62.3104 47.2937 66.2958 50.202 68.5963 54.1314C70.8439 52.9555 73.0749 51.7501 75.3258 50.5808C73.7403 47.9261 71.784 45.4592 69.3378 43.539C65.2233 40.298 60.0066 38.5392 54.7766 38.3943C49.8147 38.335 44.8396 39.8105 40.7582 42.6299C32.4696 48.2357 28.3684 59.3584 31.235 68.9397C33.0655 75.4414 37.8651 80.7837 43.4659 84.4067C47.9213 87.2558 53.0818 88.8005 58.2555 89.7326C65.3656 90.9842 72.6247 90.5231 79.7746 89.917C79.0563 90.6515 77.9772 90.6087 77.0338 90.7767C69.404 91.9031 61.5358 91.9394 53.9954 90.1772C46.7627 88.5107 39.8744 84.9601 34.7371 79.5684C27.1867 71.4561 25.4191 58.2715 31.3508 48.7759C34.4491 43.7201 38.9939 39.3725 44.6443 37.3073C50.8143 35.0182 57.8417 35.0413 63.9787 37.4292C64.9883 35.1006 66.0873 32.8115 67.077 30.4763C56.9546 26.3592 44.8627 27.4263 35.6705 33.3418C30.6391 36.5794 26.4982 41.1082 23.486 46.2496C20.1295 52.1618 19.0438 59.2168 20.0699 65.8996C21.4237 74.9111 26.3724 83.3462 33.6282 88.9125C37.1568 91.6857 41.3275 93.5533 45.6208 94.8147C51.1685 96.455 56.9579 97.1697 62.7341 97.3014C63.5517 97.3146 64.3726 97.3476 65.1869 97.4497C64.025 98.0491 62.6778 97.868 61.4167 97.9042C54.5548 98.0458 47.6399 96.9853 41.205 94.5941C36.3094 92.7595 31.6884 90.0225 28.0572 86.2413C24.2473 82.4767 21.0431 78.0203 19.1861 72.981C17.0047 67.0162 16.3228 60.4585 17.4913 54.2038C18.9081 46.7635 23.1781 40.074 28.7689 35.0215C35.4752 28.925 44.5549 25.4633 53.6445 25.6115C53.6478 23.0557 53.6412 20.4965 53.6511 17.9406C45.8061 17.9439 37.9578 19.9827 31.1754 23.9219C22.2116 29.1094 15.1676 37.4457 11.4305 47.0566C8.68639 54.2565 7.66025 62.2799 9.52385 69.8257C11.6556 79.0414 17.5377 87.2426 25.4158 92.4861C26.6438 93.382 28.0473 94.0045 29.2522 94.9366C28.6961 94.9004 28.1301 94.8345 27.6302 94.571C25.0914 93.3622 22.718 91.8373 20.4638 90.1641C16.4056 87.1108 12.5791 83.6558 9.67612 79.4695C6.04491 74.4533 3.18165 68.8376 1.59941 62.8398C0.0966168 57.2933 -0.244326 51.4899 0.152889 45.7754C1.10951 33.5229 6.90885 21.7448 15.9951 13.4283C23.3867 6.59062 32.8933 2.05525 42.8965 0.668614C45.495 0.253612 48.1364 0.293136 50.7481 0Z" fill="#673398"/>
</svg>
