<svg width="100" height="100" viewBox="0 0 100 100" fill="none" xmlns="http://www.w3.org/2000/svg">
<path d="M11.4263 99.6064C9.55492 99.1132 7.94015 98.3878 6.45085 97.3711C5.19365 96.513 3.35614 94.7387 2.65735 93.7084C1.80389 92.4501 0.822869 90.2951 0.423058 88.8006C0.0152689 87.2762 0.00865965 86.6691 0.00134235 50.0767C-0.00593262 13.669 0.00234504 12.8684 0.402042 11.3038C1.81555 5.77069 6.19264 1.56084 11.8379 0.304937C13.461 -0.0561646 85.9689 -0.119322 87.7197 0.238851C92.4596 1.20846 96.1855 4.05918 98.3415 8.36568C100.056 11.7894 99.9024 8.02181 99.9809 48.6721C100.031 74.5364 99.9848 85.3948 99.82 86.7476C99.0481 93.0779 94.6893 97.9879 88.4173 99.5923C86.8129 100.003 86.2548 100.009 49.8281 99.9974C14.6079 99.9868 12.7991 99.9683 11.4263 99.6064Z" fill="#F37C22"/>
<path fill-rule="evenodd" clip-rule="evenodd" d="M75.2639 74.6917C71.9701 78.0568 68.4591 79.8526 63.9787 80.4637C61.4025 80.8151 36.2481 80.7229 34.2092 80.3546C29.9249 79.5806 25.6397 76.8401 22.7803 73.0454C21.2794 71.0535 20.5508 69.6501 19.8287 67.3599C18.9547 64.588 18.8583 62.534 18.9457 48.5465C19.0155 37.3814 19.0728 35.4378 19.3682 34.225C20.9407 27.7681 25.2517 22.7316 31.2516 20.3417C34.506 19.0455 36.6279 18.8495 46.1873 18.9625C52.2797 19.0345 54.0985 19.1184 54.9108 19.365C58.304 20.3951 61.2771 22.2334 63.9423 24.9493C67.6833 28.7615 69.5766 32.9854 69.5839 37.535C69.5876 39.9162 69.9693 40.7933 71.3553 41.6055C72.229 42.1175 72.5387 42.1715 75.3069 42.2944C76.9588 42.3677 78.5083 42.5352 78.7501 42.6667C79.536 43.0939 80.2248 44.1184 80.4677 45.2217C80.6354 45.9829 80.6821 48.998 80.6261 55.4358C80.5519 63.9655 80.5179 64.6728 80.113 66.1255C79.1382 69.6224 77.6467 72.2574 75.2639 74.6917ZM37.5417 42.0653C35.2512 41.4339 34.3953 38.1476 36.0788 36.448C37.1548 35.3617 37.4522 35.3203 44.1872 35.3203C50.2336 35.3203 50.4368 35.3335 51.325 35.7822C52.6084 36.4305 53.1661 37.3447 53.1661 38.8002C53.1661 40.1148 52.6424 41.036 51.4741 41.7763C50.8468 42.1738 50.4719 42.1985 44.5479 42.2333C40.8898 42.2548 37.9757 42.1849 37.5417 42.0653ZM37.2547 64.1811C36.2715 63.7527 35.3559 62.5627 35.1977 61.5075C35.0469 60.5023 35.5521 59.1204 36.3264 58.4196C37.3025 57.5363 37.7309 57.5068 49.7346 57.4974L49.9114 57.4972C60.3534 57.489 61.7938 57.4879 62.7282 58.1749C62.8777 58.2848 63.0142 58.4123 63.1726 58.5602L63.1892 58.5758C64.843 60.1199 64.4942 62.8691 62.5013 63.9978L60.4533 64.3308L49.7794 64.4558C40.3999 64.5656 37.7429 64.3939 37.2547 64.1811Z" fill="white"/>
</svg>
