<svg width="100" height="100" viewBox="0 0 100 100" fill="none" xmlns="http://www.w3.org/2000/svg">
<path d="M0.000244141 87.1059C0.000244141 94.2277 5.77329 100 12.8944 100H87.1057C94.228 100 100 94.227 100 87.1059V12.8945C100 5.77226 94.2272 0 87.1061 0H12.8948C5.77251 0 0.000244141 5.77305 0.000244141 12.8941V87.1055V87.1059Z" fill="#563D7C"/>
<path d="M41.4682 44.2336V30.0723H53.9335C55.121 30.0723 56.2655 30.1711 57.3679 30.3691C58.4702 30.5668 59.4456 30.9199 60.2937 31.4289C61.1413 31.9379 61.8199 32.6445 62.3288 33.5488C62.8374 34.4535 63.0921 35.6125 63.0921 37.0254C63.0921 39.5695 62.3288 41.407 60.8023 42.5375C59.2761 43.6684 57.3257 44.2336 54.9511 44.2336H41.4682ZM28.1545 19.7266V80.2734H57.4952C60.2089 80.2734 62.8519 79.9344 65.4242 79.2559C67.9964 78.5773 70.2859 77.5316 72.2929 76.1184C74.2996 74.7051 75.8968 72.8816 77.084 70.6488C78.2715 68.4156 78.8648 65.7727 78.8648 62.7199C78.8648 58.932 77.9461 55.6957 76.109 53.0105C74.2714 50.325 71.4871 48.4453 67.7558 47.3711C70.4695 46.0711 72.5191 44.4031 73.9043 42.368C75.289 40.3328 75.9816 37.7891 75.9816 34.7359C75.9816 31.9094 75.5152 29.5352 74.5824 27.6129C73.6496 25.691 72.3351 24.1504 70.639 22.9914C68.9433 21.8324 66.9081 20.9984 64.5335 20.4898C62.1593 19.9809 59.5304 19.7266 56.6472 19.7266H28.1545ZM41.4682 69.9277V53.307H55.9687C58.8519 53.307 61.1699 53.9711 62.9226 55.3C64.6749 56.6285 65.5515 58.8473 65.5515 61.9566C65.5515 63.5398 65.2828 64.8398 64.7456 65.8574C64.2085 66.875 63.4878 67.6809 62.5831 68.2742C61.6788 68.868 60.6327 69.2918 59.4456 69.5465C58.2581 69.8004 57.0148 69.9277 55.7144 69.9277H41.4682Z" fill="white"/>
</svg>
