<svg width="100" height="100" viewBox="0 0 100 100" fill="none" xmlns="http://www.w3.org/2000/svg">
<path d="M92.0498 32.2591L88.9601 23.9203L91.0864 19.1362C91.3522 18.505 91.2193 17.8073 90.7542 17.309L84.9402 11.4286C82.3821 8.87043 78.5947 7.97342 75.1728 9.16943L73.5449 9.73422L64.6412 0.0996678L49.5914 0H49.4917L34.3422 0.13289L25.4718 9.83389L23.8771 9.2691C20.4219 8.03987 16.6013 8.93688 14.0432 11.5615L8.12957 17.5415C7.7309 17.9402 7.63123 18.505 7.83056 19.0033L10.0565 23.9867L7 32.3256L8.99336 39.8671L18.0299 74.186C19.0598 78.1395 21.4518 81.5947 24.8073 83.9867C24.8073 83.9867 35.7708 91.7276 46.5681 98.7375C47.5316 99.3688 48.5282 99.8007 49.5914 99.8007C50.6545 99.8007 51.6512 99.3688 52.6146 98.7375C64.7741 90.7641 74.3754 83.9535 74.3754 83.9535C77.6977 81.5615 80.0897 78.1063 81.1196 74.1528L90.0897 39.8339L92.0498 32.2591Z" fill="#F15A22"/>
<path style="mix-blend-mode:lighten" opacity="0.15" d="M18.4618 75.6478L7 33.0565L10.3555 24.7176L8.0299 18.5382L13.5781 12.8904C15.4053 11.2625 18.9934 10.6977 20.6545 11.6611L29.3256 16.6445L40.6213 19.2691L49.4252 15.6146L50.1561 91.2625C50.0233 102.159 50.7209 100.997 42.7143 95.8472L22.9468 82.5914C20.8206 80.5648 19.1927 78.2724 18.4618 75.6478Z" fill="url(#paint0_linear_755_12646)"/>
<path style="mix-blend-mode:darken" opacity="0.4" d="M74.176 83.8026L57.3653 95.2976C52.681 97.8557 50.4218 100.381 50.0564 99.1514C49.7574 98.1879 49.9899 95.364 49.8903 90.9786L49.6909 16.9919C49.7241 16.261 50.2225 15.0318 51.0863 15.1647L59.6577 17.7561L72.0165 15.8291L80.1893 9.81585C81.053 9.1514 82.3155 9.21785 83.1128 9.98197L90.4218 16.9587C91.0863 17.6564 91.1195 19.0185 90.7208 19.8823L88.6942 23.6365L92.0497 32.3075L80.4883 75.2976C78.6942 80.6464 76.1693 82.0418 74.176 83.8026Z" fill="url(#paint1_linear_755_12646)"/>
<path d="M51.5182 61.3958C51.1195 61.2297 50.6876 61.0968 50.5547 61.0968H50.0232H49.4916C49.3587 61.0968 48.9268 61.2297 48.5281 61.3958L44.2092 63.1898C43.8105 63.3559 43.1461 63.6549 42.7474 63.8543L36.2358 67.243C35.8371 67.4423 35.8039 67.8078 36.1693 68.0735L41.9168 72.1267C42.2823 72.3925 42.8471 72.8244 43.1793 73.1234L45.7374 75.3161C46.0697 75.6151 46.6012 76.0802 46.9335 76.3792L49.3919 78.5719C49.7242 78.8709 50.2557 78.8709 50.5879 78.5719L53.1129 76.3792C53.4451 76.0802 53.9766 75.6151 54.3089 75.3161L56.867 73.0902C57.1992 72.7912 57.764 72.3593 58.1295 72.0935L63.877 68.0071C64.2424 67.7413 64.2092 67.3759 63.8105 67.1765L57.2989 63.8543C56.9002 63.6549 56.2358 63.3559 55.8371 63.1898L51.5182 61.3958Z" fill="white"/>
<path d="M82.6856 33.7399C82.8185 33.308 82.8185 33.1419 82.8185 33.1419C82.8185 32.71 82.7852 31.9791 82.7188 31.5472L82.3866 30.5838C82.1872 30.1851 81.855 29.5539 81.5892 29.1884L77.8351 23.6402C77.6025 23.2748 77.1706 22.71 76.8716 22.3446L72.0211 16.2648C71.7553 15.9326 71.4896 15.6336 71.4563 15.6668H71.3899C71.3899 15.6668 71.0244 15.7333 70.5925 15.7997L63.1839 17.2615C62.752 17.3612 62.0543 17.4941 61.6224 17.5605L61.4896 17.5937C61.0577 17.6602 60.36 17.6269 59.9281 17.4941L53.7155 15.5007C53.2836 15.3678 52.5859 15.1685 52.1872 15.0688C52.1872 15.0688 50.9248 14.7698 49.8949 14.803C48.865 14.803 47.6025 15.0688 47.6025 15.0688C47.1706 15.1685 46.4729 15.3678 46.0743 15.5007L39.8616 17.4941C39.4298 17.6269 38.7321 17.6602 38.3002 17.5937L38.1673 17.5605C37.7354 17.4941 37.0377 17.3279 36.6058 17.2615L29.1307 15.8661C28.6989 15.7665 28.3334 15.7333 28.3334 15.7333H28.267C28.2337 15.7333 27.968 15.999 27.7022 16.3313L22.8517 22.411C22.5859 22.7432 22.154 23.3412 21.8882 23.7067L18.1341 29.2548C17.9015 29.6203 17.5361 30.2515 17.3367 30.6502L17.0045 31.6137C16.9381 32.0455 16.8716 32.7764 16.9048 33.2083C16.9048 33.2083 16.9048 33.3412 17.0377 33.8063C17.2703 34.6037 17.8351 35.3346 17.8351 35.3346C18.1008 35.6668 18.5992 36.2316 18.8982 36.5306L29.8949 48.225C30.1939 48.5572 30.2935 49.1552 30.1274 49.5539L27.8351 54.9691C27.669 55.3678 27.6357 56.0323 27.8018 56.4642L28.4331 58.1585C28.9646 59.5871 29.8616 60.8495 31.0577 61.813L33.2836 63.607C33.6158 63.8728 34.2138 63.9725 34.6125 63.7731L41.6557 60.4176C42.0543 60.2183 42.6523 59.8196 42.9846 59.5206L48.0344 54.9691C48.7653 54.3047 48.7985 53.1751 48.1341 52.4442L37.5361 45.3014C37.1706 45.0688 37.0377 44.5372 37.2371 44.1386L41.8882 35.3678C42.0876 34.9691 42.1208 34.3379 41.9547 33.9392L41.3899 32.6436C41.2238 32.2449 40.7254 31.7798 40.3268 31.6137L26.6723 26.4974C26.2736 26.3313 26.2736 26.1651 26.7055 26.1319L35.5095 25.3014C35.9414 25.2681 36.6391 25.3346 37.0709 25.4343L44.9115 27.6269C45.3434 27.7598 45.6092 28.1917 45.5427 28.6236L42.8185 43.5406C42.752 43.9725 42.752 44.5705 42.8517 44.9027C42.9513 45.2349 43.3832 45.5339 43.8151 45.6336L49.2636 46.7964C49.6955 46.896 50.3932 46.896 50.8251 46.7964L55.9082 45.6336C56.34 45.5339 56.7719 45.2017 56.8716 44.9027C56.9713 44.6037 57.0045 43.9725 56.9048 43.5406L54.2138 28.6236C54.1474 28.1917 54.4131 27.7266 54.845 27.6269L62.6856 25.4343C63.1175 25.3014 63.8151 25.2681 64.247 25.3014L73.051 26.1319C73.4829 26.1651 73.5161 26.3313 73.0842 26.4974L59.4297 31.6801C59.0311 31.8462 58.5327 32.2781 58.3666 32.71L57.8018 34.0057C57.6357 34.4044 57.6357 35.0688 57.8683 35.4343L62.5527 44.205C62.752 44.6037 62.6191 45.102 62.2537 45.3678L51.6557 52.5439C50.958 53.2416 51.0244 54.4044 51.7553 55.0688L56.8052 59.6203C57.1374 59.9193 57.7354 60.318 58.1341 60.4841L65.2105 63.8396C65.6092 64.0389 66.2072 63.9392 66.5394 63.6735L68.7653 61.8462C69.9613 60.8828 70.8583 59.6203 71.3567 58.1917L71.9879 56.4974C72.154 56.0987 72.1208 55.401 71.9547 55.0024L69.6623 49.5871C69.4962 49.1884 69.5959 48.5904 69.8949 48.2582L80.8915 36.5638C81.1906 36.2316 81.6557 35.7 81.9547 35.3678C81.8882 35.2681 82.4862 34.5372 82.6856 33.7399Z" fill="white"/>
<defs>
<linearGradient id="paint0_linear_755_12646" x1="7" y1="4435.38" x2="4326.8" y2="4435.38" gradientUnits="userSpaceOnUse">
<stop stop-color="white"/>
<stop offset="0.1413" stop-color="white" stop-opacity="0.9576"/>
<stop offset="1" stop-color="white" stop-opacity="0.7"/>
</linearGradient>
<linearGradient id="paint1_linear_755_12646" x1="48.0364" y1="4513.4" x2="4285.57" y2="4513.4" gradientUnits="userSpaceOnUse">
<stop stop-color="#F1F1F2"/>
<stop offset="0.0919144" stop-color="#E4E5E6"/>
<stop offset="0.2357" stop-color="#D9DADB"/>
<stop offset="0.438" stop-color="#D2D4D5"/>
<stop offset="1" stop-color="#D0D2D3"/>
</linearGradient>
</defs>
</svg>
