<svg width="100" height="100" viewBox="0 0 100 100" fill="none" xmlns="http://www.w3.org/2000/svg">
<path d="M0 50C0 22.3858 22.3858 0 50 0C77.6142 0 100 22.3858 100 50C100 77.6142 77.6142 100 50 100C22.3858 100 0 77.6142 0 50Z" fill="white"/>
<path fill-rule="evenodd" clip-rule="evenodd" d="M49.1871 47.9367L27.4185 37.9594C26.9717 37.7544 26.9717 37.4192 27.4185 37.2142L49.1871 27.2371C49.6342 27.0321 50.366 27.0321 50.8131 27.2371L72.5815 37.2142C73.0283 37.4192 73.0283 37.7544 72.5815 37.9594L50.8131 47.9367C50.366 48.1415 49.6342 48.1415 49.1871 47.9367ZM72.5815 49.3605L67.3675 46.98C66.9204 46.7759 66.1888 46.7759 65.7415 46.98L50.8131 53.7961C50.366 54.0002 49.6342 54.0002 49.1871 53.7961L34.2585 46.98C33.8113 46.7759 33.0796 46.7759 32.6325 46.98L27.4185 49.3605C26.9717 49.5646 26.9717 49.8988 27.4185 50.103L49.1871 60.0419C49.6342 60.2461 50.366 60.2461 50.8131 60.0419L72.5815 50.103C73.0283 49.8988 73.0283 49.5646 72.5815 49.3605ZM72.5815 62.0823L67.3675 59.7019C66.9204 59.4978 66.1888 59.4978 65.7415 59.7019L50.8131 66.518C50.366 66.7219 49.6342 66.7219 49.1871 66.518L34.2585 59.7019C33.8113 59.4978 33.0796 59.4978 32.6325 59.7019L27.4185 62.0823C26.9717 62.2865 26.9717 62.6205 27.4185 62.8248L49.1871 72.7636C49.6342 72.9678 50.366 72.9678 50.8131 72.7636L72.5815 62.8248C73.0283 62.6205 73.0283 62.2865 72.5815 62.0823Z" fill="black"/>
</svg>
