<svg width="100" height="100" viewBox="0 0 100 100" fill="none" xmlns="http://www.w3.org/2000/svg">
<path d="M100 73.3413V57.5079C100 61.2371 95.9167 64.6621 89.1 67.3704L50 57.5079V73.3413L89.1 83.2038C95.9167 80.4996 100 77.0746 100 73.3413Z" fill="#D32F2F"/>
<path d="M89.1 51.5496C95.9167 48.8246 100 45.4163 100 41.683V25.8288C100 17.1038 77.6042 9.99963 50 9.99963C22.375 9.99963 0 17.0996 0 25.8246V41.683C0 50.4205 22.3875 57.5121 50 57.5121V41.6913L89.1 51.5496ZM50 89.1663V73.3413C22.375 73.3413 0 66.2371 0 57.5163V73.3413C0 82.0788 22.375 89.1663 50 89.1663Z" fill="#D32F2F"/>
</svg>
