<svg width="100" height="100" viewBox="0 0 100 100" fill="none" xmlns="http://www.w3.org/2000/svg">
<path d="M79.027 41.1324C79.7362 49.394 66.7345 57.2571 49.9875 58.6938C33.2405 60.1306 19.0894 54.5966 18.3811 46.3355C17.6719 38.0726 30.6736 30.2099 47.4206 28.7732C64.1676 27.3368 78.3187 32.8695 79.027 41.1324Z" fill="#BBE6FB"/>
<path opacity="0.4" d="M47.9122 29.7421C41.5239 29.6382 34.0486 32.1747 28.4864 34.5499C27.9074 36.2181 27.5958 37.9925 27.5958 39.8318C27.5958 49.6318 36.4448 57.5772 47.361 57.5772C58.2772 57.5772 67.1262 49.6318 67.1262 39.8318C67.1262 36.7303 66.2379 33.8165 64.6802 31.2796C60.2302 30.5879 54.1097 29.8429 47.9122 29.7421Z" fill="white"/>
<path d="M47.3608 29.7403C43.8241 29.5245 37.7282 31.3696 32.6451 33.2102C31.8728 35.033 31.4438 37.0276 31.4438 39.1208C31.4438 47.7074 39.229 54.6683 47.4646 54.6683C55.6461 54.6683 62.8846 47.6962 63.4854 39.1208C63.6806 36.3283 62.7194 33.6969 61.3847 31.4283C56.1148 30.5001 50.5222 29.9333 47.3608 29.7403Z" fill="white"/>
<path d="M38.285 37.9933C38.7189 37.0325 39.3761 36.5619 40.0128 35.7565C39.9421 35.5657 39.7871 34.942 39.7871 34.7258C39.7871 33.7605 40.5702 32.9769 41.536 32.9769C41.7639 32.9769 41.9815 33.0222 42.1807 33.1014C45.0753 30.8954 48.886 29.9337 52.7154 30.7898C53.0651 30.8686 53.4081 30.9639 53.7448 31.0687C49.9601 30.5439 45.6941 31.8845 42.7923 34.2266C42.881 34.4356 43.1268 35.0334 43.1268 35.2738C43.1268 36.2396 42.5017 36.4746 41.536 36.4746C41.3166 36.4746 41.1071 36.4325 40.9132 36.3587C40.2577 37.2389 39.4545 38.9157 39.0614 39.9638C40.666 41.3992 42.1158 41.9195 44.0052 42.6256C44.0003 42.5356 44.0702 42.4523 44.0702 42.3605C44.0702 39.4489 46.6334 37.0826 49.5455 37.0826C52.1549 37.0826 54.3156 38.9801 54.7374 41.4695C56.0394 40.6412 57.2984 40.0063 58.2579 38.7787C58.0341 38.5055 57.7927 37.7323 57.7927 37.3517C57.7927 36.4755 58.5037 35.765 59.3799 35.765C59.504 35.765 59.6231 35.7829 59.739 35.8097C60.2262 34.8086 60.5938 33.7475 60.8288 32.6532C56.2754 29.2822 47.4653 29.7421 47.4653 29.7421C47.4653 29.7421 40.4547 29.3763 35.7087 31.6892C36.0253 33.9776 36.9382 36.1531 38.285 37.9933Z" fill="white"/>
<path d="M60.0486 36.68C60.3706 36.9701 60.5461 37.2249 60.6844 37.4729C61.1102 38.2385 60.2559 38.9392 59.3797 38.9392C59.2906 38.9392 59.2047 38.9272 59.1191 38.9128C58.1319 40.4557 56.4027 42.4342 54.8666 43.43C57.2221 43.816 59.4433 44.7593 61.211 46.2171C62.4982 43.9109 63.4854 40.5806 63.4854 37.7519C63.4854 35.5987 62.5349 34.0204 61.0999 32.8626C61.0247 34.016 60.4091 35.6292 60.0486 36.68Z" fill="white"/>
<path d="M40.9276 51.2872C41.7125 49.1197 43.6431 47.4402 45.4694 45.9627C45.2021 45.5969 44.8014 44.6912 44.6344 44.2622C42.4069 43.5848 40.436 42.3168 38.9074 40.6383C38.8962 40.6871 38.8824 40.7345 38.8707 40.7833C38.5828 42.0733 38.53 43.3659 38.6733 44.6267C39.7398 44.8255 40.547 45.7599 40.547 46.8842C40.547 47.5508 39.9627 48.517 39.5092 48.9375C40.0021 50.0013 40.3384 50.5144 40.9276 51.2872Z" fill="white"/>
<path d="M40.7894 53.1067C39.8532 52.1759 39.2058 50.3191 38.5982 49.1532C38.4845 49.1707 38.368 49.1828 38.2489 49.1828C36.9792 49.1828 35.649 48.1172 35.9498 46.8841C36.1164 46.2018 36.5874 45.7554 37.3544 45.3829C37.1798 43.9694 37.1323 41.9376 37.4605 40.4681C37.5545 40.0477 37.7538 39.8507 37.8858 39.4504C36.4849 37.4002 35.5796 34.7094 35.5796 32.0395C35.5796 31.9419 35.5845 31.8457 35.5867 31.749C33.2191 32.9363 31.4438 34.807 31.4438 37.7517C31.4438 44.2653 35.1954 50.6549 40.7773 53.1596C40.7813 53.1421 40.7849 53.1242 40.7894 53.1067Z" fill="white"/>
<path d="M54.5151 44.102C53.7938 46.1535 51.8434 47.627 49.5452 47.627C48.3158 47.627 47.1879 47.203 46.2915 46.4982C44.4438 47.9372 42.7674 50.4651 41.9154 52.6581C42.2978 53.0696 42.5642 53.4081 42.9931 53.773C44.2857 54.1097 46.0659 53.773 47.4651 53.773C53.0931 53.773 58.0777 51.2693 60.9356 46.8788C59.0354 45.5629 56.794 44.3106 54.5151 44.102Z" fill="white"/>
<path d="M38.1406 38.7545C38.5744 37.7937 39.1184 36.9045 39.7547 36.099C39.6839 35.9087 39.6427 35.7032 39.6427 35.4869C39.6427 34.5216 40.4258 33.7381 41.3916 33.7381C41.6195 33.7381 41.8371 33.7833 42.0363 33.8626C44.9309 31.6566 48.7416 30.6949 52.571 31.5509C52.9207 31.6297 53.2637 31.7251 53.6004 31.8299C49.8157 31.3051 45.9052 32.4652 43.0034 34.8077C43.0921 35.0164 43.1404 35.2465 43.1404 35.4869C43.1404 36.4527 42.3573 37.2358 41.3916 37.2358C41.1722 37.2358 40.9627 37.1937 40.7688 37.1198C40.1133 38.0001 39.5774 38.9725 39.1843 40.0211C40.5624 41.5063 42.2539 42.6807 44.1429 43.3867C44.1384 43.2968 44.129 43.2077 44.129 43.1159C44.129 40.2043 46.489 37.8438 49.4011 37.8438C52.0105 37.8438 54.1712 39.7413 54.593 42.2307C55.895 41.4024 57.0519 40.3386 58.011 39.1109C57.7871 38.8378 57.6483 38.4935 57.6483 38.1129C57.6483 37.2367 58.3593 36.5261 59.2355 36.5261C59.3596 36.5261 59.4787 36.544 59.5946 36.5709C60.0818 35.5698 60.4493 34.5086 60.6844 33.4144C56.131 30.0434 47.3209 30.5032 47.3209 30.5032C47.3209 30.5032 40.3103 30.1374 35.5643 32.4504C35.8809 34.7388 36.7938 36.9143 38.1406 38.7545Z" fill="#1287B1"/>
<path d="M60.2943 36.9395C60.6162 37.2296 60.8226 37.6456 60.8226 38.113C60.8226 38.9892 60.1116 39.7002 59.2354 39.7002C59.1463 39.7002 59.0604 39.6882 58.9748 39.6738C57.9876 41.2167 56.6793 42.5322 55.1427 43.5279C57.4136 43.883 59.5511 44.8465 61.3183 46.3043C62.6055 43.998 63.3411 41.3416 63.3411 38.5129C63.3411 36.3597 62.3906 34.7814 60.9556 33.6236C60.8804 34.777 60.6547 35.8887 60.2943 36.9395Z" fill="#1287B1"/>
<path d="M41.1698 51.808C41.9546 49.6405 43.3184 47.6956 45.1447 46.2185C44.8774 45.8522 44.6572 45.4524 44.4902 45.0235C42.2622 44.3461 40.2918 43.0781 38.7632 41.3995C38.752 41.4483 38.7377 41.4958 38.7265 41.5446C38.4381 42.8345 38.3853 44.1271 38.529 45.3879C39.5951 45.5867 40.4028 46.5211 40.4028 47.6454C40.4028 48.3121 40.1167 48.9116 39.6631 49.332C40.0746 50.2042 40.5806 51.0352 41.1698 51.808Z" fill="#1287B1"/>
<path d="M40.7832 53.0803C39.847 52.1495 39.0612 51.0803 38.4541 49.9149C38.3399 49.9323 38.2235 49.944 38.1049 49.944C36.8351 49.944 35.8058 48.9146 35.8058 47.6453C35.8058 46.7355 36.3359 45.9511 37.1028 45.5786C36.9287 44.1655 36.9878 42.6988 37.3164 41.2293C37.4104 40.8093 37.525 40.3992 37.6571 39.9985C36.2562 37.9488 35.4355 35.4706 35.4355 32.8007C35.4355 32.7031 35.44 32.6068 35.4422 32.5106C33.0746 33.6975 31.2993 35.5686 31.2993 38.5129C31.2993 45.027 35.1892 50.6286 40.7711 53.1332C40.7751 53.1157 40.7787 53.0978 40.7832 53.0803Z" fill="#1287B1"/>
<path d="M54.3708 44.8632C53.6495 46.9147 51.6992 48.3882 49.401 48.3882C48.1715 48.3882 47.0437 47.9642 46.1473 47.2595C44.2995 48.6985 42.9048 50.66 42.0532 52.8535C42.4351 53.2649 42.8435 53.6527 43.2724 54.0171C44.5655 54.3538 45.9216 54.5343 47.3208 54.5343C52.9488 54.5343 57.8967 51.6285 60.7546 47.2384C58.8544 45.9221 56.6498 45.0719 54.3708 44.8632Z" fill="#1287B1"/>
<path d="M54.5557 43.5038L59.4266 42.3419L54.5374 42.0925L58.5164 39.0515L54.0014 40.67L57.0697 36.4179L52.8319 39.2346L54.3135 34.2572L51.4032 38.3597L51.337 33.1754L49.422 37.7934L47.8254 33.1204L47.9118 38.6253L45.1524 33.6908L46.6456 38.9302L42.1696 35.6751L45.6758 40.0808L40.119 38.0374L44.5046 41.2821L38.881 41.4549L44.6308 42.9387L38.8761 44.183L44.5565 44.5949L39.7662 47.6623L44.6989 45.8741L41.2764 50.2086L45.6011 46.7207L44.0438 52.5372L47.3826 47.8038L46.9147 53.3942L48.81 48.3263L50.4231 53.653L50.8154 48.3102L53.2098 52.8685L51.795 47.6547L56.1796 51.0512L53.3491 46.7207L58.1595 48.5949L54.4814 44.9804L59.4136 45.3681L54.5557 43.5038Z" fill="white"/>
<path opacity="0.3" d="M2.69958 52.8243C17.8061 37.7182 29.8712 33.0546 40.8209 30.9256C42.2698 30.644 42.5438 27.4781 42.5438 27.4781C42.5438 27.4781 42.7466 29.8099 43.7607 30.1139C44.7744 30.4184 46.0921 26.464 46.0921 26.464C46.0921 26.464 44.8756 30.0127 46.0921 30.2155C47.309 30.4184 49.5392 26.7684 49.5392 26.7684C49.5392 26.7684 48.6272 29.9111 49.2356 30.1139C49.8432 30.3167 52.8847 25.552 52.8847 25.552C52.8847 25.552 51.0597 28.6946 52.7835 28.9991C54.5077 29.3031 57.0222 26.854 57.0222 26.854C57.0222 26.854 55.045 29.0949 55.9261 29.4043C59.6777 30.7228 62.7133 25.847 62.7133 25.847C62.7133 25.847 62.0099 27.9849 60.1849 30.3167C64.1384 31.3304 67.0751 25.3742 67.0751 25.3742L64.1384 31.3304C65.6594 32.1421 71.7432 25.1463 71.7432 25.1463C71.7432 25.1463 68.6001 30.6212 66.7751 31.736C67.7888 32.5473 71.4387 29.3031 71.4387 29.3031C71.4387 29.3031 68.4985 32.9525 69.6138 33.1554C71.2359 34.4735 77.2172 26.3628 77.2172 26.3628C77.2172 26.3628 74.8858 31.1276 71.4387 34.8791C74.3199 36.3204 81.476 27.0725 81.476 27.0725C81.476 27.0725 81.2732 30.0127 76.1023 34.6763C79.9551 34.1695 84.9231 26.8696 84.9231 26.8696C84.9231 26.8696 83.0981 32.3445 78.7381 36.1968C82.521 35.8033 88.5721 26.464 88.5721 26.464C88.5721 26.464 86.2408 32.9525 81.476 36.7041C86.7481 37.87 94.3519 30.0127 94.3519 30.0127C94.3519 30.0127 91.3611 35.5892 87.4573 37.87C91.8173 39.5427 97.799 32.6485 97.799 32.6485C97.799 32.6485 91.8173 41.875 82.2873 41.4693C79.1603 41.3363 69.702 31.9827 49.438 32.7502C22.6725 33.7643 16.9953 45.1192 2.69958 52.8243Z" fill="white"/>
<path d="M3.31873 51.6771C18.4252 36.571 30.4899 31.9079 41.4396 29.7784C42.8889 29.4968 43.163 26.3313 43.163 26.3313C43.163 26.3313 43.3653 28.6636 44.3799 28.9672C45.3936 29.2712 46.7112 25.3177 46.7112 25.3177C46.7112 25.3177 45.4947 28.8664 46.7112 29.0688C47.9282 29.2712 50.1583 25.6217 50.1583 25.6217C50.1583 25.6217 49.2463 28.7643 49.8539 28.9672C50.4623 29.17 53.5038 24.4048 53.5038 24.4048C53.5038 24.4048 51.6788 27.5478 53.4026 27.8519C55.1259 28.1563 57.6413 25.7072 57.6413 25.7072C57.6413 25.7072 55.6641 27.9481 56.5452 28.2575C60.2968 29.5756 63.3315 24.7003 63.3315 24.7003C63.3315 24.7003 62.6282 26.8382 60.8041 29.17C64.7576 30.1841 67.6943 24.227 67.6943 24.227L64.7576 30.1841C66.2785 30.9949 72.3614 24 72.3614 24C72.3614 24 69.2192 29.474 67.3943 30.5893C68.4079 31.4006 72.0579 28.1563 72.0579 28.1563C72.0579 28.1563 69.1176 31.8062 70.2329 32.0086C71.855 33.3272 77.8363 25.216 77.8363 25.216C77.8363 25.216 75.5041 29.9813 72.0579 33.7324C74.939 35.1741 82.0952 25.9257 82.0952 25.9257C82.0952 25.9257 81.8923 28.8664 76.7215 33.53C80.5742 33.0227 85.5422 25.7229 85.5422 25.7229C85.5422 25.7229 83.7173 31.1978 79.3573 35.0505C83.1402 34.6569 89.1913 25.3177 89.1913 25.3177C89.1913 25.3177 86.8599 31.8062 82.0952 35.5573C87.3672 36.7232 94.9711 28.8664 94.9711 28.8664C94.9711 28.8664 91.9802 34.442 88.0764 36.7232C92.4364 38.396 98.4182 31.5018 98.4182 31.5018C98.4182 31.5018 92.4364 40.7282 82.9055 40.3226C79.7795 40.1891 70.3211 30.8355 50.0567 31.6034C23.2917 32.6171 17.614 43.972 3.31873 51.6771Z" fill="white"/>
<path opacity="0.3" d="M2.30371 54.4765C10.2877 58.4815 17.588 53.8685 26.7885 56.4613C33.7834 58.4332 42.3002 60.8639 53.8575 59.1907C65.4153 57.5184 75.3008 52.4998 80.0159 43.5268C81.4858 39.5227 87.467 44.4397 87.467 44.4397C87.467 44.4397 83.1079 42.6147 83.2096 43.4766C83.3107 44.3381 89.7487 47.3289 89.7487 47.3289C89.7487 47.3289 83.9188 45.504 84.2738 46.8727C84.6289 48.2414 91.5728 53.7163 91.5728 53.7163C91.5728 53.7163 83.7159 47.7346 83.0573 48.5454C82.3978 49.3567 86.4028 52.652 86.4028 52.652C86.4028 52.652 79.762 48.5454 77.4298 49.7565C75.7526 50.6265 84.3244 56.2514 84.3244 56.2514C84.3244 56.2514 78.7479 51.9925 77.4298 53.1078C76.1121 54.2236 83.7159 63.3479 83.7159 63.3479C83.7159 63.3479 75.0975 54.0203 74.2365 54.4765C73.3742 54.9328 76.6185 59.394 76.6185 59.394C76.6185 59.394 72.3605 54.73 71.1951 55.5412C70.0292 56.3525 77.278 68.4678 77.278 68.4678C77.278 68.4678 69.4207 56.0485 66.1764 58.126C71.2712 69.3041 69.3701 70.9012 69.3701 70.9012C69.3701 70.9012 68.72 59.4974 62.3743 59.7992C59.1806 59.9514 63.8948 68.3155 63.8948 68.3155C63.8948 68.3155 59.5558 60.6763 56.6661 60.8285C61.9919 70.9075 60.0935 75.0069 60.0935 75.0069C60.0935 75.0069 60.9742 66.3988 53.7509 61.6085C56.4879 64.041 52.0334 75.0069 52.0334 75.0069C52.0334 75.0069 55.952 58.8478 49.1433 61.9286C48.0674 62.4144 49.0672 69.9887 49.0672 69.9887C49.0672 69.9887 47.6985 61.3197 45.6461 61.7764C44.4493 62.0419 38.0418 73.7904 38.0418 73.7904C38.0418 73.7904 43.2888 61.0918 41.6921 61.6242C40.5289 62.0123 38.3462 67.2513 38.3462 67.2513C38.3462 67.2513 39.4105 62.0804 38.3462 61.7764C37.282 61.4719 31.3504 67.2513 31.3504 67.2513C31.3504 67.2513 35.761 62.0804 35.0003 61.0157C33.8479 59.4025 32.497 59.3268 30.8942 59.9514C28.5619 60.8603 25.4197 65.1218 25.4197 65.1218C25.4197 65.1218 28.5521 60.807 28.0045 59.1907C27.1256 56.5939 18.1199 64.2094 18.1199 64.2094C18.1199 64.2094 23.4425 59.1907 22.226 58.126C21.0096 57.0618 14.4037 57.3908 12.341 57.385C6.25809 57.3662 4.15016 55.9393 2.30371 54.4765Z" fill="white"/>
<path d="M2 53.5639C9.98398 57.5689 17.2838 52.9559 26.4843 55.5492C33.4792 57.5201 41.9965 59.9513 53.5542 58.2781C65.112 56.6054 74.9966 51.5867 79.7117 42.6146C81.1816 38.6101 87.1629 43.5266 87.1629 43.5266C87.1629 43.5266 82.8037 41.7021 82.9054 42.564C83.0066 43.4254 89.4445 46.4163 89.4445 46.4163C89.4445 46.4163 83.6146 44.5918 83.9697 45.9605C84.3247 47.3288 91.2695 52.8037 91.2695 52.8037C91.2695 52.8037 83.4118 46.8215 82.7532 47.6332C82.0945 48.4441 86.0991 51.739 86.0991 51.739C86.0991 51.739 79.4578 47.6332 77.1261 48.8435C75.4484 49.7139 84.0202 55.3383 84.0202 55.3383C84.0202 55.3383 78.4437 51.0799 77.1261 52.1952C75.8079 53.3109 83.4127 62.4353 83.4127 62.4353C83.4127 62.4353 74.7938 53.1077 73.9324 53.5639C73.0709 54.0206 76.3152 58.4809 76.3152 58.4809C76.3152 58.4809 72.0564 53.8173 70.8909 54.6286C69.725 55.4395 76.9738 67.5551 76.9738 67.5551C76.9738 67.5551 69.1165 55.1355 65.8723 57.2138C70.967 68.3915 69.0659 69.9886 69.0659 69.9886C69.0659 69.9886 68.4158 58.5848 62.0701 58.887C58.8764 59.0392 63.5906 67.4029 63.5906 67.4029C63.5906 67.4029 59.2516 59.7632 56.3624 59.9155C61.6887 69.9948 59.7894 74.0943 59.7894 74.0943C59.7894 74.0943 60.6701 65.4857 53.4468 60.6954C56.1838 63.1284 51.7293 74.0943 51.7293 74.0943C51.7293 74.0943 55.6487 57.9351 48.8401 61.016C47.7642 61.5022 48.7639 69.0761 48.7639 69.0761C48.7639 69.0761 47.3943 60.4075 45.3424 60.8638C44.1451 61.1293 37.7376 72.8778 37.7376 72.8778C37.7376 72.8778 42.9846 60.1792 41.388 60.712C40.2248 61.0993 38.0421 66.3382 38.0421 66.3382C38.0421 66.3382 39.1068 61.1678 38.0421 60.8638C36.9778 60.5597 31.0467 66.3382 31.0467 66.3382C31.0467 66.3382 35.4573 61.1678 34.6962 60.1031C33.5437 58.4899 32.1929 58.4147 30.5905 59.0392C28.2578 59.9477 25.1156 64.2092 25.1156 64.2092C25.1156 64.2092 28.2479 59.894 27.7008 58.2781C26.8214 55.6817 17.8162 63.2967 17.8162 63.2967C17.8162 63.2967 23.1388 58.2781 21.9219 57.2138C20.7054 56.1491 14.0995 56.4787 12.0368 56.4724C5.95393 56.4531 3.84645 55.0267 2 53.5639Z" fill="white"/>
</svg>
