<svg width="100" height="100" viewBox="0 0 100 100" fill="none" xmlns="http://www.w3.org/2000/svg">
<g clip-path="url(#clip0_755_12740)">
<path d="M50 50.0009L71.6512 62.5006L50 100.001C77.6143 100.001 99.9999 77.615 99.9999 50.0009C99.9999 40.8909 97.5515 32.3575 93.2944 25.0007H49.9995L50 50.0009Z" fill="url(#paint0_linear_755_12740)"/>
<path d="M49.9997 0.000488281C31.4933 0.000488281 15.3476 10.062 6.7019 25.0066L28.3486 62.5006L49.9997 50.0009V25.0007H93.2946C84.6474 10.0598 68.5039 0.000488281 49.9997 0.000488281Z" fill="url(#paint1_linear_755_12740)"/>
<path d="M0.000295276 50.0009C0.000295276 77.615 22.3852 100.001 50.0001 100.001L71.6513 62.5006L50.0001 50.0009L28.349 62.5006L6.70233 25.0066C2.44762 32.3613 0 40.8916 0 50.0001" fill="url(#paint2_linear_755_12740)"/>
<path d="M75.0003 50.0009C75.0003 63.808 63.8072 75.0011 50 75.0011C36.1929 75.0011 24.9998 63.808 24.9998 50.0009C24.9998 36.1939 36.1929 25.0007 50 25.0007C63.8072 25.0007 75.0003 36.1939 75.0003 50.0009Z" fill="white"/>
<path d="M70.3128 50.0008C70.3128 61.219 61.2183 70.3135 50 70.3135C38.7818 70.3135 29.6873 61.219 29.6873 50.0008C29.6873 38.7826 38.7818 29.6881 50 29.6881C61.2183 29.6881 70.3128 38.7826 70.3128 50.0008Z" fill="url(#paint3_linear_755_12740)"/>
</g>
<defs>
<linearGradient id="paint0_linear_755_12740" x1="75.1065" y1="24.8975" x2="74.9997" y2="100.001" gradientUnits="userSpaceOnUse">
<stop stop-color="#AFCCFB"/>
<stop offset="1" stop-color="#8BB5F8"/>
</linearGradient>
<linearGradient id="paint1_linear_755_12740" x1="42.7485" y1="0.762273" x2="46.8812" y2="67.9538" gradientUnits="userSpaceOnUse">
<stop stop-color="#1972E7"/>
<stop offset="1" stop-color="#1969D5"/>
</linearGradient>
<linearGradient id="paint2_linear_755_12740" x1="35.8256" y1="25.0066" x2="35.8256" y2="100.001" gradientUnits="userSpaceOnUse">
<stop stop-color="#659CF6"/>
<stop offset="1" stop-color="#4285F4"/>
</linearGradient>
<linearGradient id="paint3_linear_755_12740" x1="49.7929" y1="29.7654" x2="50" y2="70.3135" gradientUnits="userSpaceOnUse">
<stop stop-color="#3680F0"/>
<stop offset="1" stop-color="#2678EC"/>
</linearGradient>
<clipPath id="clip0_755_12740">
<rect width="100" height="100" fill="white" transform="translate(0 0.000488281)"/>
</clipPath>
</defs>
</svg>
