<svg width="100" height="100" viewBox="0 0 100 100" fill="none" xmlns="http://www.w3.org/2000/svg">
<path fill-rule="evenodd" clip-rule="evenodd" d="M49.4063 -0.00109863C26.1122 -0.00109863 6.56425 15.9903 1.06269 37.6101C1.02541 37.7674 1.00006 37.9278 1.00006 38.0951C1.00006 39.4098 2.06419 40.4757 3.37683 40.4757H23.4894C24.4471 40.4757 25.2667 39.9029 25.645 39.0852C29.7772 30.0718 38.8574 23.8069 49.4063 23.8069C63.8383 23.8069 75.544 35.5359 75.544 49.9995C75.544 64.4636 63.8383 76.1922 49.4063 76.1922C38.8574 76.1922 29.7807 69.9265 25.6485 60.9105L25.645 60.9157C25.2667 60.0965 24.4471 59.5245 23.4894 59.5245H3.37683C2.06419 59.5245 1.00006 60.5874 1.00006 61.9057C1.00006 62.0684 1.02541 62.2239 1.05921 62.3798C6.55928 84.001 26.1077 99.9989 49.4063 99.9989C76.9633 99.9989 99.3071 77.6102 99.3071 49.9995C99.3071 22.3856 76.9633 -0.00109863 49.4063 -0.00109863ZM37.5238 49.9995C37.5238 43.4264 42.8452 38.0951 49.4063 38.0951C55.967 38.0951 61.286 43.4264 61.286 49.9995C61.286 56.573 55.967 61.9057 49.4063 61.9057C42.8452 61.9057 37.5238 56.573 37.5238 49.9995Z" fill="white"/>
</svg>
