<svg width="100" height="100" viewBox="0 0 100 100" fill="none" xmlns="http://www.w3.org/2000/svg">
<path d="M9.94253 -7.62939e-05H1.16893C0.523451 -7.62939e-05 0.000183105 0.523191 0.000183105 1.16867V98.8312C0.000183105 99.4767 0.523451 99.9999 1.16893 99.9999H9.94253C10.588 99.9999 11.1113 99.4767 11.1113 98.8312V1.16867C11.1113 0.523191 10.588 -7.62939e-05 9.94253 -7.62939e-05Z" fill="white"/>
<path d="M32.1654 -7.62939e-05H23.3918C22.7464 -7.62939e-05 22.2231 0.523191 22.2231 1.16867V98.8312C22.2231 99.4767 22.7464 99.9999 23.3918 99.9999H32.1654C32.8109 99.9999 33.3342 99.4767 33.3342 98.8312V1.16867C33.3342 0.523191 32.8109 -7.62939e-05 32.1654 -7.62939e-05Z" fill="white"/>
<path d="M54.3883 -7.62939e-05H45.6147C44.9693 -7.62939e-05 44.446 0.523191 44.446 1.16867V98.8312C44.446 99.4767 44.9693 99.9999 45.6147 99.9999H54.3883C55.0338 99.9999 55.5571 99.4767 55.5571 98.8312V1.16867C55.5571 0.523191 55.0338 -7.62939e-05 54.3883 -7.62939e-05Z" fill="white"/>
<path d="M76.6066 -7.62939e-05H67.833C67.1875 -7.62939e-05 66.6642 0.523191 66.6642 1.16867V98.8312C66.6642 99.4767 67.1875 99.9999 67.833 99.9999H76.6066C77.2521 99.9999 77.7753 99.4767 77.7753 98.8312V1.16867C77.7753 0.523191 77.2521 -7.62939e-05 76.6066 -7.62939e-05Z" fill="white"/>
<path d="M98.8368 38.8899H90.0632C89.4177 38.8899 88.8944 39.4132 88.8944 40.0586V59.9434C88.8944 60.5889 89.4177 61.1121 90.0632 61.1121H98.8368C99.4823 61.1121 100.006 60.5889 100.006 59.9434V40.0586C100.006 39.4132 99.4823 38.8899 98.8368 38.8899Z" fill="white"/>
</svg>
