<svg width="100" height="100" viewBox="0 0 100 100" fill="none" xmlns="http://www.w3.org/2000/svg">
<path d="M49.9996 -0.000366211C22.4309 -0.000366211 0 22.4305 0 50C0 77.5719 22.4309 100.002 49.9996 100.002C77.5691 100.002 100 77.5719 100 50C100 22.4305 77.5691 -0.000366211 49.9996 -0.000366211Z" fill="white"/>
<path d="M48.1711 50.8992C47.7219 51.8727 47.2262 52.9664 46.7129 54.1305C44.8984 58.2414 42.8891 63.2438 42.1551 66.4485C41.8914 67.5899 41.7281 69.0043 41.7312 70.5727C41.7312 71.193 41.7644 71.8449 41.8172 72.509C44.3824 73.4516 47.1531 73.9699 50.0465 73.975C52.6805 73.9699 55.2109 73.5348 57.5793 72.7473C57.0227 72.2383 56.4914 71.6957 56.0078 71.0844C52.7969 66.9899 51.0055 60.9891 48.1711 50.8992Z" fill="#91DC47"/>
<path d="M36.3164 30.5563C30.184 34.8781 26.1711 42.0063 26.1559 50.0844C26.1711 58.0418 30.0633 65.0778 36.0414 69.4176C37.5078 63.3094 41.1836 57.7164 46.6957 46.5055C46.3684 45.6063 45.9953 44.6219 45.5778 43.5879C44.0508 39.7574 41.8469 35.309 39.8801 33.2946C38.8774 32.2422 37.6606 31.3328 36.3164 30.5563Z" fill="#91DC47"/>
<path d="M70.857 77.4867C67.693 77.0903 65.0817 76.6117 62.7973 75.8059C58.9551 77.7137 54.6281 78.7914 50.0465 78.7914C34.1934 78.7914 21.3422 65.9422 21.3402 50.0844C21.3402 41.4801 25.1309 33.7668 31.1277 28.5063C29.5238 28.1188 27.8512 27.8926 26.1426 27.8957C17.7199 27.975 8.82892 32.6363 5.12735 45.225C4.78126 47.0574 4.86368 48.443 4.86368 50.0852C4.86368 75.0402 25.0945 95.2711 50.0477 95.2711C65.3297 95.2711 78.8297 87.6778 87.0051 76.0645C82.5832 77.1664 78.3309 77.6934 74.6895 77.7047C73.3246 77.7047 72.0434 77.6317 70.857 77.4867Z" fill="#63B132"/>
<path d="M62.3664 68.7313C62.6453 68.8695 63.2777 69.0953 64.1578 69.3449C70.0785 64.9985 73.9261 57.9973 73.9414 50.0844H73.939C73.9168 36.8926 63.2414 26.2188 50.0465 26.1926C47.4238 26.1977 44.9043 26.6305 42.5453 27.4121C47.3965 32.9418 49.7293 40.8442 51.9859 49.4883C51.9871 49.4922 51.989 49.4953 51.9898 49.4985C51.9941 49.5055 52.7117 51.8988 53.9437 55.0742C55.1672 58.2453 56.9101 62.1711 58.8109 65.0321C60.059 66.9492 61.4316 68.327 62.3664 68.7313Z" fill="#90B4FE"/>
<path d="M50.0477 4.89847C34.9133 4.89847 21.5258 12.3489 13.3258 23.7727C17.5934 21.1 21.9508 20.136 25.7535 20.1703C31.0059 20.1856 35.1352 21.8141 37.1164 22.9282C37.5949 23.2039 38.0492 23.5008 38.4942 23.8059C42.0293 22.2489 45.9356 21.3782 50.0465 21.3782C65.9016 21.3801 78.7547 34.2293 78.7571 50.0844H78.7547C78.7547 58.0782 75.4852 65.3059 70.2145 70.5106C71.5082 70.6555 72.8879 70.7457 74.2969 70.7387C79.3012 70.741 84.7102 69.6367 88.7653 66.2262C91.4094 63.9989 93.6246 60.7375 94.8531 55.8477C95.0934 53.959 95.2317 52.0391 95.2317 50.0852C95.2317 25.1313 75.0028 4.89847 50.0477 4.89847Z" fill="#5881D8"/>
</svg>
