<svg width="100" height="100" viewBox="0 0 100 100" fill="none" xmlns="http://www.w3.org/2000/svg">
<path d="M81.1132 40.2865C78.97 33.5662 74.7572 27.6954 69.0769 23.5133C63.3966 19.3312 56.5397 17.0519 49.4861 17.001C43.5225 16.9668 37.6623 18.5582 32.5352 21.6041C27.408 24.6501 23.2077 29.0354 20.3855 34.2891C15.1986 35.2186 10.4438 37.7793 6.81302 41.5983C3.18224 45.4174 0.865056 50.2955 0.198717 55.5227C-0.467622 60.7499 0.551666 66.0534 3.10823 70.6611C5.66478 75.2689 9.62518 78.9405 14.413 81.1416L15.0343 81.4232H15.0757V74.3821C11.7912 72.366 9.21997 69.3726 7.72227 65.8217C6.22458 62.2707 5.87551 58.3401 6.724 54.5808C7.5725 50.8215 9.57602 47.4219 12.4538 44.8585C15.3315 42.2951 18.9392 40.6964 22.7712 40.2865L24.5108 40.1042L25.2729 38.5386C27.4367 33.9528 30.8648 30.0801 35.154 27.3756C39.4433 24.6712 44.4155 23.2474 49.4861 23.2718C55.528 23.3144 61.3823 25.3758 66.1179 29.1283C70.8534 32.8808 74.1985 38.1088 75.6211 43.981L76.2175 46.3501H78.7027C82.7088 46.4323 86.524 48.0777 89.3333 50.935C92.1426 53.7923 93.7232 57.6348 93.7375 61.6418C93.7375 67.4818 90.3661 72.2615 84.6255 74.6803V81.357L85.0397 81.2244C94.2677 78.2009 100 70.6959 100 61.6418C99.962 56.4014 98.0285 51.3519 94.5567 47.4264C91.085 43.5009 86.3096 40.9647 81.1132 40.2865Z" fill="#3448C5"/>
<path d="M37.3417 80.6117L38.7168 81.9868C38.7539 82.025 38.7791 82.0732 38.7892 82.1255C38.7993 82.1778 38.7939 82.2319 38.7737 82.2812C38.7534 82.3305 38.7192 82.3728 38.6753 82.4029C38.6313 82.433 38.5795 82.4496 38.5262 82.4507H27.6746C26.3564 82.4507 25.0923 81.927 24.1602 80.9949C23.2281 80.0628 22.7044 78.7986 22.7044 77.4805V56.4068C22.7044 56.3343 22.6756 56.2647 22.6243 56.2135C22.5731 56.1622 22.5036 56.1334 22.4311 56.1334H20.1116C20.0577 56.134 20.0047 56.1185 19.9595 56.089C19.9143 56.0596 19.8788 56.0174 19.8576 55.9677C19.8363 55.9181 19.8302 55.8633 19.84 55.8103C19.8499 55.7572 19.8752 55.7082 19.9128 55.6695L29.1243 46.4581C29.1497 46.4323 29.18 46.4118 29.2134 46.3978C29.2468 46.3838 29.2827 46.3766 29.3189 46.3766C29.3552 46.3766 29.391 46.3838 29.4244 46.3978C29.4579 46.4118 29.4882 46.4323 29.5136 46.4581L38.7168 55.6695C38.7539 55.7077 38.7791 55.7559 38.7892 55.8082C38.7993 55.8605 38.7939 55.9147 38.7737 55.964C38.7534 56.0132 38.7192 56.0555 38.6753 56.0856C38.6313 56.1157 38.5795 56.1323 38.5262 56.1334H36.1737C36.1004 56.1334 36.03 56.1619 35.9774 56.2129C35.9248 56.264 35.8942 56.3335 35.892 56.4068V77.116C35.8954 78.4268 36.4164 79.6832 37.3417 80.6117ZM57.6947 80.6117L59.0781 81.9868C59.1157 82.0255 59.141 82.0745 59.1508 82.1275C59.1607 82.1806 59.1546 82.2354 59.1333 82.285C59.1121 82.3346 59.0766 82.3768 59.0314 82.4063C58.9862 82.4358 58.9332 82.4512 58.8793 82.4507H48.0525C46.7343 82.4507 45.4701 81.927 44.538 80.9949C43.6059 80.0628 43.0823 78.7986 43.0823 77.4805V61.7332C43.0823 61.6599 43.0538 61.5895 43.0027 61.5369C42.9517 61.4843 42.8822 61.4537 42.8089 61.4515H40.4646C40.4114 61.4505 40.3596 61.4339 40.3156 61.4038C40.2717 61.3737 40.2375 61.3314 40.2172 61.2821C40.197 61.2328 40.1916 61.1787 40.2017 61.1264C40.2118 61.0741 40.237 61.0258 40.2741 60.9876L49.4773 51.7928C49.5027 51.767 49.533 51.7465 49.5664 51.7325C49.5999 51.7185 49.6357 51.7113 49.6719 51.7113C49.7082 51.7113 49.744 51.7185 49.7775 51.7325C49.8109 51.7465 49.8412 51.767 49.8666 51.7928L59.0781 60.9711C59.1157 61.0098 59.141 61.0588 59.1508 61.1118C59.1607 61.1649 59.1546 61.2197 59.1333 61.2693C59.1121 61.3189 59.0766 61.3611 59.0314 61.3906C58.9862 61.4201 58.9332 61.4355 58.8793 61.435H56.5267C56.4534 61.4371 56.3839 61.4677 56.3329 61.5203C56.2818 61.5729 56.2533 61.6433 56.2533 61.7166V77.116C56.2545 78.4256 56.7724 79.6819 57.6947 80.6117ZM78.056 80.6117L79.4311 81.9868C79.4682 82.025 79.4934 82.0732 79.5035 82.1255C79.5136 82.1778 79.5082 82.2319 79.488 82.2812C79.4677 82.3305 79.4335 82.3728 79.3896 82.4029C79.3456 82.433 79.2938 82.4496 79.2406 82.4507H68.3806C67.0625 82.4507 65.7983 81.927 64.8662 80.9949C63.9341 80.0628 63.4104 78.7986 63.4104 77.4805V67.0182C63.4104 66.9457 63.3816 66.8761 63.3304 66.8249C63.2791 66.7736 63.2096 66.7448 63.1371 66.7448H60.8176C60.7627 66.7454 60.7088 66.7294 60.663 66.6989C60.6173 66.6683 60.5818 66.6247 60.5612 66.5737C60.5406 66.5228 60.5359 66.4667 60.5477 66.413C60.5594 66.3593 60.5871 66.3104 60.6271 66.2726L69.8386 57.0695C69.8633 57.0439 69.8929 57.0236 69.9256 57.0097C69.9584 56.9958 69.9935 56.9887 70.0291 56.9887C70.0646 56.9887 70.0998 56.9958 70.1326 57.0097C70.1653 57.0236 70.1949 57.0439 70.2196 57.0695L79.4311 66.2726C79.4711 66.3104 79.4988 66.3593 79.5105 66.413C79.5223 66.4667 79.5176 66.5228 79.497 66.5737C79.4764 66.6247 79.4409 66.6683 79.3952 66.6989C79.3494 66.7294 79.2955 66.7454 79.2406 66.7448H76.8797C76.8072 66.7448 76.7377 66.7736 76.6864 66.8249C76.6352 66.8761 76.6063 66.9457 76.6063 67.0182V77.116C76.6097 78.4268 77.1307 79.6832 78.056 80.6117Z" fill="#3448C5"/>
</svg>
