<svg width="100" height="100" viewBox="0 0 100 100" fill="none" xmlns="http://www.w3.org/2000/svg">
<path d="M51.9463 36.7209C58.4801 44.3669 61.1678 54.5615 59.1752 64.4318C69.4161 60.3539 73.4013 53.4957 74.6061 46.6375C74.6061 46.6375 78.0816 33.6162 83.5496 28.2409C72.8452 29.8627 71.7794 25.6459 51.9463 36.7209Z" fill="#19B99A"/>
<path d="M35.5422 50.02C33.4106 43.3935 29.7035 37.3694 24.7452 32.4575C24.7452 32.4575 39.6664 36.3963 48.2855 64.2461C40.1761 61.7901 36.7007 53.7735 35.5422 50.02ZM54.0315 68.2313C54.2632 66.8875 58.2484 53.4028 50.3707 42.4667C37.2568 27.9162 17.4236 25.8773 17.4236 25.8773C21.2697 33.3379 21.4088 40.3351 25.6256 54.5612C30.7229 69.2971 49.6293 70.2702 51.0195 70.3166C52.2706 72.3091 55.19 74.9968 61.8628 76.387L62.6043 72.8652C56.8582 71.6604 54.773 69.4361 54.0315 68.2313Z" fill="#19B99A"/>
<path d="M19.5551 21.6141C11.2141 25.5529 7.87766 35.1451 7.87766 49.8346C7.87766 64.2461 11.2141 73.8847 19.5551 78.1015L18.6284 81.716C5.7924 77.2211 0 67.2118 0 49.881C0 32.4111 5.7924 22.4019 18.6284 17.9996L19.5551 21.6141Z" fill="white"/>
<path d="M81.3718 17.9996C94.2077 22.4019 100 32.4111 100 49.8346C100 67.1655 94.2077 77.1748 81.3718 81.6233L80.3523 78.0089C88.6933 73.792 92.0298 64.1534 92.0298 49.742C92.0298 35.0524 88.6933 25.4602 80.3523 21.5678L81.3718 17.9996Z" fill="white"/>
</svg>
