<svg width="100" height="100" viewBox="0 0 100 100" fill="none" xmlns="http://www.w3.org/2000/svg">
<path d="M0 50C0 22.3858 22.3858 0 50 0C77.6142 0 100 22.3858 100 50C100 77.6142 77.6142 100 50 100C22.3858 100 0 77.6142 0 50Z" fill="white"/>
<path fill-rule="evenodd" clip-rule="evenodd" d="M76.638 42.6221L76.638 42.6222C76.6414 42.6388 76.6448 42.6556 76.6473 42.6732C76.6602 42.7669 76.6667 42.8637 76.6667 42.9622V58.7044C76.6667 58.8013 76.6602 58.8982 76.6473 58.9951C76.645 59.0096 76.642 59.0244 76.6389 59.0395L76.6356 59.0561C76.6334 59.0675 76.6312 59.0789 76.6295 59.0903C76.6182 59.1533 76.6069 59.2146 76.5908 59.276C76.5847 59.2992 76.5768 59.3219 76.5689 59.3442L76.5653 59.3545L76.5593 59.3717L76.5553 59.3842L76.5477 59.407C76.5324 59.4531 76.5168 59.5002 76.4987 59.5472C76.4842 59.5828 76.4665 59.6183 76.4487 59.6538C76.4261 59.7039 76.4019 59.7523 76.3728 59.8023C76.3599 59.825 76.3455 59.8476 76.3312 59.8702L76.3203 59.8874L76.3098 59.9041C76.2808 59.9509 76.2501 59.9945 76.2162 60.0381C76.192 60.072 76.1661 60.1043 76.1403 60.1349C76.1048 60.1753 76.0677 60.2173 76.0289 60.2544L76.0274 60.256C75.9989 60.2861 75.9719 60.3146 75.9417 60.3416C75.8997 60.3787 75.8578 60.4143 75.8158 60.4482L75.7852 60.4717C75.7621 60.4896 75.7393 60.5072 75.7157 60.5241C75.7092 60.5281 75.7032 60.5329 75.6971 60.5378C75.6911 60.5426 75.685 60.5475 75.6785 60.5515L52.0653 76.2937C51.6923 76.5423 51.2628 76.6667 50.8333 76.6667C50.4039 76.6667 49.9744 76.5423 49.6014 76.2937L25.9897 60.5515C25.9833 60.5475 25.9772 60.5426 25.9712 60.5378C25.9651 60.5329 25.9591 60.5281 25.9526 60.5241C25.9171 60.4998 25.8848 60.474 25.8525 60.4482C25.8089 60.4143 25.7669 60.3787 25.7266 60.3416C25.6959 60.3142 25.6668 60.2851 25.6378 60.2544C25.599 60.2173 25.5619 60.1753 25.528 60.1349C25.5005 60.1043 25.4747 60.072 25.4505 60.0381C25.4182 59.9945 25.3875 59.9509 25.3584 59.9041C25.3358 59.8702 25.3148 59.8363 25.2939 59.8023C25.2664 59.7523 25.2422 59.7039 25.218 59.6538C25.2126 59.642 25.207 59.6301 25.2015 59.6183C25.1903 59.5946 25.1792 59.5709 25.1695 59.5472C25.1492 59.4978 25.1328 59.4484 25.1167 59.4002L25.1167 59.4001L25.1114 59.3842L25.1009 59.3521L25.1009 59.3521C25.0926 59.3272 25.0843 59.302 25.0775 59.276C25.0614 59.2146 25.0501 59.1533 25.0388 59.0903L25.0334 59.0648C25.0284 59.0411 25.0234 59.0176 25.021 58.9951C25.0081 58.8982 25 58.8013 25 58.7044V42.9622C25 42.8637 25.0081 42.7669 25.021 42.6732C25.0234 42.6482 25.0284 42.6249 25.0335 42.6015L25.0335 42.6015L25.0388 42.5764L25.0388 42.5763C25.0501 42.5134 25.0614 42.4504 25.0775 42.3907C25.0843 42.3647 25.0926 42.3395 25.1009 42.3145L25.1114 42.2825C25.1292 42.2276 25.1469 42.1743 25.1695 42.121C25.1837 42.0848 25.201 42.0485 25.2168 42.0153L25.218 42.0129C25.2422 41.9612 25.2664 41.9128 25.2939 41.8659C25.3148 41.8304 25.3358 41.7965 25.3584 41.7626C25.3875 41.7158 25.4182 41.6706 25.4505 41.627C25.4747 41.5947 25.5005 41.5624 25.528 41.5317C25.5619 41.4897 25.599 41.4494 25.6378 41.4106L25.6552 41.3931C25.6785 41.3695 25.702 41.3457 25.7266 41.3251C25.7669 41.2879 25.8089 41.2524 25.8525 41.2185C25.8848 41.1927 25.9171 41.1668 25.9526 41.1426C25.959 41.1386 25.9651 41.1338 25.9711 41.1289L25.9711 41.1289L25.9711 41.1289L25.9711 41.1289L25.9712 41.1289C25.9772 41.124 25.9833 41.1192 25.9897 41.1152L49.6014 25.373C50.349 24.8757 51.3193 24.8757 52.0653 25.373L75.6785 41.1152C75.685 41.1192 75.6911 41.124 75.6971 41.1289C75.7032 41.1337 75.7092 41.1386 75.7157 41.1426C75.7392 41.1594 75.762 41.177 75.7851 41.1949L75.7851 41.1949L75.7852 41.1949L75.7852 41.1949L75.7852 41.195L75.8158 41.2185C75.8578 41.2524 75.8997 41.2879 75.9417 41.3251C75.9636 41.3435 75.9839 41.3644 76.0042 41.3854L76.0163 41.3979L76.0289 41.4106C76.0677 41.4494 76.1048 41.4897 76.1403 41.5317C76.1661 41.5624 76.192 41.5947 76.2162 41.627C76.2501 41.6706 76.2808 41.7158 76.3098 41.7626L76.3274 41.7906C76.343 41.8153 76.3588 41.8402 76.3728 41.8659C76.4019 41.9128 76.4261 41.9612 76.4487 42.0129C76.4665 42.0468 76.4842 42.0839 76.4987 42.121C76.5197 42.1743 76.5375 42.2276 76.5553 42.2825C76.5595 42.2958 76.5642 42.3091 76.5689 42.3224C76.5767 42.3448 76.5847 42.3674 76.5908 42.3907C76.6069 42.4504 76.6182 42.5134 76.6295 42.5764L76.6321 42.5918L76.6349 42.6067L76.638 42.622L76.638 42.6221ZM70.4489 42.9655L53.0534 31.3695V41.7239L62.6795 48.1628L70.4489 42.9655ZM48.6133 31.3695V41.7239L38.9887 48.1628L31.2178 42.9655L48.6133 31.3695ZM34.9959 50.8333L29.4401 47.1182V54.5485L34.9959 50.8333ZM48.6133 70.2971L31.2178 58.7012L38.9887 53.5055L48.6133 59.9428V70.2971ZM42.9816 50.8333L50.8333 56.0856L58.6867 50.8333L50.8333 45.5811L42.9816 50.8333ZM53.0534 70.2971V59.9428L62.6795 53.5055L70.4489 58.7012L53.0534 70.2971ZM66.6724 50.8333L72.2266 54.5485V47.1182L66.6724 50.8333Z" fill="#0B0B0A"/>
</svg>
