<svg width="100" height="100" viewBox="0 0 100 100" fill="none" xmlns="http://www.w3.org/2000/svg">
<path d="M34.7893 99.9938C34.7884 99.9934 34.7876 99.9931 34.7868 99.9927C22.9027 97.257 12.3794 89.5228 9.09609 77.3736C5.81043 65.2149 10.2815 52.9574 17.5847 43.2114C21.2363 38.3422 25.5072 33.9721 29.9498 29.8235C34.0854 25.9608 38.6414 22.4114 42.3877 18.1602C46.2512 13.7745 51.0802 5.92991 47.4148 0.000488281C54.0698 4.97273 59.4373 13.2817 58.54 21.8407C57.8232 28.6699 52.6994 35.6231 57.7181 42.0721C60.84 46.0813 67.1597 45.2405 69.494 41.3687L69.3224 41.5533C69.7223 40.9172 70.0149 40.2197 70.1887 39.4887C70.2008 38.8953 70.0957 38.2325 69.7746 37.4533L70.3859 37.787C82.0869 43.8538 91.5327 54.4506 91.268 68.22C90.9486 84.9569 75.3552 96.6696 60.2639 100C67.4055 97.1871 73.7725 91.6145 74.6396 83.6019C75.4398 76.2095 71.4771 69.8358 66.1108 65.1219C61.0092 60.6367 54.9215 57.745 49.3731 53.9188C46.1745 51.7134 41.32 47.286 43.0283 42.7965C40.8058 44.7096 39.0514 47.386 38.3592 50.2433C36.9766 55.9433 40.4905 60.3829 44.1228 64.3134C47.7966 68.2824 47.5123 75.0949 41.3154 76.4515C38.6632 77.0285 35.8545 75.9654 34.2508 73.7776C32.5257 71.4245 32.9055 69.0181 33.6018 66.3873C27.8097 70.4874 23.1528 76.7262 23.1691 84.0747C23.1825 90.8138 28.7917 97.4001 34.7868 99.9927C34.7877 99.9929 34.7887 99.9931 34.7897 99.9934L34.7893 99.9938Z" fill="#EE4323"/>
</svg>
