<svg width="100" height="100" viewBox="0 0 100 100" fill="none" xmlns="http://www.w3.org/2000/svg">
<path d="M0 23.0769C0 10.3319 10.3319 0 23.0769 0H76.9231C89.6681 0 100 10.3319 100 23.0769V76.9231C100 89.6681 89.6681 100 76.9231 100H23.0769C10.3319 100 0 89.6681 0 76.9231V23.0769Z" fill="#0052FF"/>
<path d="M49.9058 68.75C46.3662 68.6785 42.9187 67.6113 39.9604 65.6714C37.0021 63.7314 34.6532 60.9975 33.184 57.7844C31.7149 54.5714 31.1853 51.0098 31.6563 47.5097C32.1272 44.0096 33.5795 40.7133 35.846 38.0004C38.1125 35.2874 41.101 33.2681 44.4674 32.1749C47.8338 31.0817 51.4413 30.959 54.8746 31.821C58.3079 32.683 61.4273 34.4947 63.8737 37.0474C66.3201 39.6001 67.9941 42.79 68.7029 46.25H87.5C86.5355 36.6776 81.9197 27.8411 74.6072 21.5681C67.2947 15.2951 57.8448 12.0654 48.2121 12.5471C38.5795 13.0287 29.5008 17.1848 22.8538 24.1558C16.2068 31.1268 12.5 40.3794 12.5 50C12.5 59.6206 16.2068 68.8732 22.8538 75.8442C29.5008 82.8152 38.5795 86.9713 48.2121 87.4529C57.8448 87.9346 67.2947 84.7049 74.6072 78.4319C81.9197 72.1589 86.5355 63.3224 87.5 53.75H68.7029C68.7029 61.25 57.4246 68.75 49.9058 68.75Z" fill="white"/>
</svg>
