<svg width="100" height="100" viewBox="0 0 100 100" fill="none" xmlns="http://www.w3.org/2000/svg">
<path d="M0 50C0 22.3858 22.3858 0 50 0C77.6142 0 100 22.3858 100 50C100 77.6142 77.6142 100 50 100C22.3858 100 0 77.6142 0 50Z" fill="white"/>
<path d="M26.8088 61.5882C26.2929 62.4295 25.7135 63.4057 25.2215 64.1835C24.781 64.9278 25.0175 65.8876 25.7532 66.3422L36.0707 72.6914C36.4329 72.915 36.8696 72.9838 37.283 72.8823C37.6964 72.7809 38.0517 72.5176 38.2691 72.1517C38.6818 71.4612 39.2135 70.5644 39.7929 69.6041C43.8802 62.8581 47.9913 63.6835 55.404 67.2232L65.6342 72.0882C66.0216 72.2727 66.4672 72.2923 66.8695 72.1428C67.2717 71.9933 67.5962 71.6873 67.7691 71.2946L72.6818 60.1835C73.0289 59.3899 72.6757 58.4646 71.8882 58.1041C69.7294 57.0882 65.4358 55.0644 61.5707 53.1993C47.6659 46.4454 35.8485 46.8819 26.8088 61.5882Z" fill="url(#paint0_linear_147648_462)"/>
<path d="M73.0707 36.374C73.5866 35.5327 74.1659 34.5565 74.658 33.7787C75.0984 33.0344 74.862 32.0745 74.1262 31.62L63.8088 25.2708C63.4437 25.0249 62.9928 24.9416 62.564 25.0409C62.1351 25.1402 61.7667 25.4132 61.5469 25.7946C61.1342 26.4851 60.6024 27.3819 60.0231 28.3422C55.9358 35.0882 51.8247 34.2628 44.412 30.7232L34.2135 25.8819C33.8261 25.6975 33.3805 25.6778 32.9783 25.8273C32.5761 25.9768 32.2515 26.2828 32.0786 26.6755L27.1659 37.7867C26.8188 38.5802 27.172 39.5055 27.9596 39.866C30.1183 40.8819 34.412 42.9057 38.277 44.7708C52.2135 51.5168 64.031 51.0644 73.0707 36.374Z" fill="url(#paint1_linear_147648_462)"/>
<defs>
<linearGradient id="paint0_linear_147648_462" x1="90.3235" y1="68.1582" x2="78.7696" y2="41.6519" gradientUnits="userSpaceOnUse">
<stop offset="0.18" stop-color="#0052CC"/>
<stop offset="1" stop-color="#2684FF"/>
</linearGradient>
<linearGradient id="paint1_linear_147648_462" x1="3942.98" y1="-38823.5" x2="3808.46" y2="-39439" gradientUnits="userSpaceOnUse">
<stop offset="0.18" stop-color="#0052CC"/>
<stop offset="1" stop-color="#2684FF"/>
</linearGradient>
</defs>
</svg>
