<svg width="100" height="100" viewBox="0 0 100 100" fill="none" xmlns="http://www.w3.org/2000/svg">
<mask id="mask0_147648_468" style="mask-type:luminance" maskUnits="userSpaceOnUse" x="1" y="3" width="98" height="97">
<path fill-rule="evenodd" clip-rule="evenodd" d="M50 100C76.6938 100 98.3333 78.3605 98.3333 51.6667C98.3333 24.973 76.6938 3.33337 50 3.33337C23.3063 3.33337 1.66667 24.973 1.66667 51.6667C1.66667 78.3605 23.3063 100 50 100V100Z" fill="white"/>
</mask>
<g mask="url(#mask0_147648_468)">
<path d="M-0.00570679 100.002H100.006V-0.00134277H-0.00570679V100.002Z" fill="white"/>
</g>
<mask id="mask1_147648_468" style="mask-type:luminance" maskUnits="userSpaceOnUse" x="0" y="0" width="100" height="100">
<path fill-rule="evenodd" clip-rule="evenodd" d="M23.7528 92.565C9.49821 83.7564 0 67.9874 0 50C0 22.3858 22.3858 0 50 0C77.6142 0 100 22.3858 100 50C100 77.6142 77.6142 100 50 100C48.6748 100 47.3616 99.9484 46.0624 99.8472L50.9809 86.3339C51.7946 84.0979 54.5112 81.1026 56.9068 78.4588C58.2783 76.9493 59.4604 75.6436 59.9118 74.8762C62.0894 71.1678 68.7313 60.0278 68.7983 59.915C70.1632 57.9576 72.3536 54.6109 73.7038 52.4266L81.0792 40.4441C82.4283 38.2538 82.5304 35.5048 81.3066 34.3184C81.0916 34.1111 80.8396 33.9536 80.5587 33.8514C79.2064 33.3592 77.4097 34.1571 76.0866 35.8368L68.6724 46.1754C67.8149 47.2649 66.8558 48.1584 65.9274 49.0233C65.1551 49.7428 64.3579 50.4882 63.644 51.3191L62.8866 52.2049C62.7944 52.3109 62.666 52.3761 62.5263 52.3854C62.3866 52.3946 62.2541 52.3772 62.133 52.3331C61.8686 52.2369 61.4428 51.935 61.5583 50.9934C61.5834 50.8776 62.8813 45.423 59.4392 43.9697L59.2888 43.9126C57.4284 43.2354 55.9466 44.3988 54.3021 46.3551C54.0547 46.6489 53.5488 46.6766 53.2936 46.5837C52.7894 46.375 52.5666 45.9279 52.6836 45.4081C53.2704 42.7836 52.1883 40.3291 50.1108 39.5729L49.9509 39.5196C48.1428 38.9394 45.9611 39.6825 44.6528 41.3326C44.6044 41.3921 44.548 41.4398 44.4815 41.4732C44.2216 41.7211 43.7756 42.066 43.2904 41.8894C42.7708 41.7003 42.6472 41.0677 42.6004 40.6076L42.5419 40.0369C42.4855 39.4717 42.4129 38.8196 42.3301 38.1191C42.0701 35.83 41.7456 32.9801 41.7976 31.0869L42.5951 17.6331C42.6504 15.6681 41.7464 13.9935 40.3468 13.4841C39.9519 13.3404 39.5365 13.2955 39.1111 13.3492C37.1324 13.6037 35.433 15.8468 35.2401 18.4572L33.7716 32.0596C33.6699 33.4364 33.7018 35.3601 33.7335 37.2196C33.7571 38.5997 33.7794 39.9031 33.7467 40.956L33.6188 45.2944C33.5731 46.7556 33.1066 47.8032 32.2299 48.4078C31.7466 48.748 30.1199 49.9171 28.3608 51.5573C28.1676 51.7378 27.9721 51.9093 27.7805 52.079C26.482 53.2295 25.3622 54.2235 25.2544 57.5231C25.1976 59.0729 25.2694 60.6483 25.4928 62.9623C25.7261 65.3918 26.4439 66.9159 27.2056 68.529C28.2907 70.8279 30.4208 74.2449 28.9864 78.1856C28.9749 78.2171 25.5164 87.7196 23.7528 92.565V92.565Z" fill="white"/>
</mask>
<g mask="url(#mask1_147648_468)">
<path d="M-0.00570679 100.001H100.006V-0.00146484H-0.00570679V100.001Z" fill="#0043FF"/>
</g>
</svg>
