<svg width="100" height="100" viewBox="0 0 100 100" fill="none" xmlns="http://www.w3.org/2000/svg">
<path d="M50 100C77.6142 100 100 77.6142 100 50C100 22.3858 77.6142 0 50 0C22.3858 0 0 22.3858 0 50C0 77.6142 22.3858 100 50 100Z" fill="#8BA651"/>
<path fill-rule="evenodd" clip-rule="evenodd" d="M78.3331 46.684C78.3331 44.3874 77.3445 30.7348 77.3445 30.7348C77.3445 28.5704 76.5425 27.1201 75.5352 26.1315C74.5504 25.128 73.0997 24.3222 70.9357 24.3222C70.9357 24.3222 57.2827 23.3336 54.9827 23.3336L54.7646 23.3335C51.5848 23.3314 49.3905 23.33 45.3477 27.3765C44.3134 28.4089 37.9142 34.808 31.8152 40.907C26.0579 46.6642 20.5681 52.154 20.1112 52.6092C19.1736 53.5468 16.0024 57.2459 21.4116 62.6547L29.9704 71.2136L30.454 71.6971L39.0128 80.2594C44.4254 85.6719 48.1245 82.4935 49.0621 81.5559C49.9997 80.6179 72.2879 58.3296 74.2948 56.3227C78.337 52.2794 78.3354 50.0889 78.3332 46.9098L78.3331 46.684ZM54.5152 54.0468L62.1513 57.6733L59.3428 62.6986L52.2798 58.0864C52.1159 57.9783 51.9301 57.9225 51.7439 57.9225C51.58 57.9225 51.417 57.9635 51.2679 58.0488C50.9516 58.2312 50.7691 58.5771 50.7953 58.9412L51.3794 67.2952H45.7262H45.7C45.7219 67.2242 46.1649 58.9374 46.1649 58.9374C46.1911 58.5733 46.0087 58.227 45.6924 58.045C45.3722 57.8625 44.982 57.8777 44.6809 58.0821L37.8147 62.7463L34.7499 57.8706L42.4527 54.0464C42.7838 53.8906 42.9958 53.5552 42.9958 53.1874C42.9958 52.8191 42.7838 52.4842 42.4527 52.3284L34.8132 48.7019L37.6213 43.6774L44.6809 48.293C44.982 48.4941 45.3722 48.516 45.6924 48.3302C46.0087 48.1478 46.1907 47.8023 46.1649 47.4374L45.5847 39.0834H51.2417L50.7953 47.4374C50.7691 47.8019 50.9516 48.1478 51.2679 48.3302C51.5876 48.516 51.9821 48.4941 52.2798 48.293L59.146 43.6289L62.2108 48.5055L54.5152 52.3288C54.1841 52.4851 53.9721 52.8195 53.9721 53.1878C53.9721 53.5561 54.1841 53.891 54.5152 54.0468ZM63.9622 34.4116C63.9622 36.4075 65.5776 38.0263 67.5773 38.0263C69.5656 38.0263 71.1806 36.4075 71.1806 34.4116C71.1806 32.4157 69.5656 30.8007 67.5773 30.8007C65.5772 30.8007 63.9622 32.4157 63.9622 34.4116Z" fill="white"/>
</svg>
