<svg width="102" height="102" viewBox="0 0 102 102" fill="none" xmlns="http://www.w3.org/2000/svg">
<path d="M51 101C78.6142 101 101 78.6139 101 50.9996C101 23.3854 78.6142 0.999634 51 0.999634C23.3858 0.999634 1 23.3854 1 50.9996C1 78.6139 23.3858 101 51 101Z" fill="white" fill-opacity="0.965067" stroke="#FFFFFE" stroke-width="0.377953" stroke-linecap="round"/>
<path d="M84.0203 59.9351L59.9034 84.0037C59.8069 84.1002 59.6622 84.1484 59.5658 84.1002L26.6222 75.2734C26.4775 75.2252 26.381 75.1287 26.381 75.0323L17.506 42.1369C17.4577 41.9922 17.506 41.8957 17.6025 41.7992L41.7193 17.7306C41.8158 17.6342 41.9605 17.5859 42.0569 17.6342L75.0006 26.4609C75.1453 26.5092 75.2417 26.6056 75.2417 26.7021L84.0685 59.5975C84.165 59.7422 84.1167 59.8386 84.0203 59.9351ZM51.7037 33.7442L19.3389 42.378C19.2906 42.378 19.2424 42.4745 19.2906 42.5227L42.9734 66.1573C43.0216 66.2055 43.1181 66.2055 43.1181 66.109L51.8001 33.7924C51.8484 33.7924 51.7519 33.696 51.7037 33.7442Z" fill="black"/>
</svg>
