<svg width="100" height="100" viewBox="0 0 100 100" fill="none" xmlns="http://www.w3.org/2000/svg">
<path d="M94.0943 29.111C94.0937 27.4461 93.7376 25.9749 93.0175 24.7126C92.3102 23.4707 91.2509 22.43 89.8301 21.6072C78.1017 14.8446 66.3619 8.10261 54.6374 1.33306C51.4765 -0.49178 48.4117 -0.424908 45.2743 1.42613C40.606 4.1789 17.2337 17.5694 10.2691 21.6035C7.40086 23.2642 6.00517 25.8053 6.00448 29.1079C6 42.708 6.00448 56.3081 6 69.9082C6 71.5366 6.3416 72.9795 7.02996 74.2229C7.73763 75.502 8.81171 76.5713 10.2653 77.4127C17.2303 81.4467 40.6057 94.8362 45.2729 97.59C48.4117 99.4421 51.4765 99.5083 54.6384 97.6831C66.3633 90.9132 78.1038 84.1712 89.8339 77.4086C91.2875 76.5675 92.3615 75.4976 93.0692 74.2194C93.7565 72.9757 94.0988 71.5332 94.0988 69.9045C94.0988 69.9045 94.0988 42.7115 94.0943 29.111Z" fill="#A179DC"/>
<path d="M50.1843 49.3755L7.03003 74.2228C7.7377 75.502 8.81178 76.5712 10.2654 77.4126C17.2304 81.4466 40.6058 94.8361 45.273 97.5899C48.4118 99.442 51.4765 99.5082 54.6385 97.683C66.3634 90.9131 78.1038 84.1711 89.8339 77.4085C91.2875 76.5674 92.3616 75.4975 93.0693 74.2193L50.1843 49.3755Z" fill="#280068"/>
<path d="M94.0945 29.111C94.0938 27.4461 93.7378 25.9749 93.0177 24.7126L50.1843 49.3759L93.0694 74.2195C93.7567 72.9758 94.0983 71.5332 94.099 69.9045C94.099 69.9045 94.099 42.7115 94.0945 29.111Z" fill="#390091"/>
<path d="M75.5919 40.0869V44.7314H80.2364V40.0869H82.5586V44.7314H87.2031V47.0536H82.5586V51.6977H87.2031V54.02H82.5586V58.6644H80.2364V54.02H75.5919V58.6644H73.2696V54.02H68.6255V51.6977H73.2696V47.0536H68.6255V44.7314H73.2696V40.0869H75.5919ZM80.2364 47.0533H75.5919V51.6977H80.2364V47.0533Z" fill="white"/>
<path d="M50.279 16.7618C62.3931 16.7618 72.9695 23.3408 78.6346 33.1199L78.5794 33.0258L64.3261 41.2324C61.5182 36.4779 56.3705 33.2691 50.4648 33.203L50.2786 33.2019C41.2734 33.2019 33.9726 40.5027 33.9726 49.5079C33.9697 52.3463 34.7112 55.1358 36.1232 57.598C38.9339 62.5048 44.2178 65.8143 50.279 65.8143C56.3777 65.8143 61.6916 62.4628 64.4878 57.5036L64.4199 57.6225L78.6515 65.867C73.0484 75.5634 62.6168 82.122 50.6437 82.2527L50.279 82.2547C38.1266 82.2547 27.5202 75.6351 21.8692 65.8043C19.1106 61.005 17.5322 55.4412 17.5322 49.5079C17.5322 31.4229 32.193 16.7615 50.2786 16.7615L50.279 16.7618Z" fill="white"/>
</svg>
