<svg width="100" height="100" viewBox="0 0 100 100" fill="none" xmlns="http://www.w3.org/2000/svg">
<path d="M50 100C77.6142 100 100 77.6142 100 50C100 22.3858 77.6142 0 50 0C22.3858 0 0 22.3858 0 50C0 77.6142 22.3858 100 50 100Z" fill="#0064DD"/>
<path fill-rule="evenodd" clip-rule="evenodd" d="M63.9025 27.7249L74.5 25.5V76.0461H64.2379V71.9683C61.0855 75.0946 57.8659 76.25 53.5732 76.25C49.2135 76.25 45.4573 74.8228 42.3048 71.9683C38.1462 68.2305 36 63.3372 36 57.6284C36 52.3952 38.0123 47.7059 41.7683 44.0359C45.122 40.7057 49.2135 39.0067 53.7745 39.0067C58.1342 39.0067 61.4879 40.5018 63.9025 43.6281V27.7249ZM46.5977 57.5604C46.5977 62.6576 50.4879 66.5314 55.9208 66.5314C60.4819 66.5314 64.305 62.7256 64.305 57.6963C64.305 52.4632 60.4819 48.5214 55.5184 48.5214C50.4879 48.5214 46.5977 52.6671 46.5977 57.5604Z" fill="#FFFFFE"/>
</svg>
