<svg width="100" height="100" viewBox="0 0 100 100" fill="none" xmlns="http://www.w3.org/2000/svg">
<g clip-path="url(#clip0_755_12813)">
<path d="M26.878 27.0585L20.4526 20.6331V66.968L20.5431 69.1399C20.5431 70.1354 20.7241 71.3119 21.0861 72.4883L71.9458 90.4069L84.6155 84.796L26.878 27.0585Z" fill="#00C4B3"/>
<path d="M84.6152 84.796L71.9455 90.4069L21.1763 72.4883C22.1717 76.1987 24.2532 80.3616 26.6061 82.7146L43.1672 99.1851L80.0903 99.2756L84.6152 84.796Z" fill="#22D3C5"/>
<path d="M20.6335 20.6331L0.905039 50.4974C-0.723921 52.2168 0.090559 55.8368 2.71499 58.5517L14.1177 70.0449L21.267 72.5788C20.9955 71.4024 20.724 70.2259 20.724 69.2304L20.6335 67.0585V20.6331Z" fill="#0075C9"/>
<path d="M72.3078 21.1761C71.1314 20.9046 69.9549 20.7236 68.9594 20.6331L66.697 20.5426H20.4526L84.6155 84.7055L90.2264 72.0358L72.3078 21.1761Z" fill="#0075C9"/>
<path d="M82.534 26.606C80.1811 24.2531 76.1087 22.0811 72.3078 21.1761L90.2264 72.0358L84.6155 84.7055L98.3712 80.2711V42.5336L82.534 26.606Z" fill="#00A8E1"/>
<path d="M69.7738 14.1173L58.2806 2.71457C55.6562 0.0901356 52.0363 -0.724344 50.2263 0.904615L20.3621 20.6331H66.6064L68.8689 20.7236C69.8643 20.7236 71.0408 20.9046 72.2173 21.2666L69.7738 14.1173Z" fill="#00C4B3"/>
</g>
<defs>
<clipPath id="clip0_755_12813">
<rect width="100" height="100" fill="white" transform="translate(0 -0.000366211)"/>
</clipPath>
</defs>
</svg>
