<svg width="100" height="100" viewBox="0 0 100 100" fill="none" xmlns="http://www.w3.org/2000/svg">
<g clip-path="url(#clip0_755_12821)">
<path fill-rule="evenodd" clip-rule="evenodd" d="M81.2483 70.9859L72.9271 65.5114L65.9928 77.0808L57.9271 74.745L50.8103 85.5844L51.1753 88.9786L89.7884 81.8618L87.5622 57.7742L81.2483 70.9859ZM45.2264 60.5844L51.4308 59.745C52.4162 60.183 53.1096 60.3654 54.3505 60.6574C55.5359 61.048 56.7888 61.1912 58.0317 61.0782C59.2747 60.9652 60.4812 60.5984 61.5768 60.0005C62.3067 59.6355 63.876 58.1757 64.4965 57.4092L89.8979 52.7742L92.4527 84.1611L49.022 91.9713L45.2264 60.5844ZM92.3797 49.2706L89.8614 49.7815L85.0439 0.000488281L3.03662 9.48954L13.1461 91.6063L22.7082 90.1465C21.9417 89.0516 20.7374 87.7377 18.6936 86.0589C15.8833 83.6866 16.8687 79.7085 18.5476 77.1903C20.7374 72.9202 32.1242 67.5187 31.4673 60.6939C31.2483 58.2487 30.8468 55.0005 28.5476 52.8107C28.4746 53.7231 28.6206 54.6355 28.6206 54.6355C28.6206 54.6355 27.6717 53.3946 27.1972 51.7523C26.7593 51.1319 26.3943 50.9494 25.8833 50.11C25.5184 51.0589 25.5914 52.1903 25.5914 52.1903C25.5914 52.1903 24.7884 50.3655 24.679 48.8326C24.3546 49.4569 24.1562 50.139 24.095 50.8399C24.095 50.8399 23.1096 47.9202 23.3651 46.4238C22.8906 45.0735 21.5403 42.4092 21.9052 36.3144C24.4235 38.0662 29.9344 37.6647 32.0512 34.4895C32.7811 33.4311 33.2556 30.5844 31.6863 24.9275C30.7009 21.3144 28.2191 15.9494 27.2702 13.9056L27.1607 13.9786C27.856 16.2144 28.5009 18.4656 29.095 20.7304C30.3724 25.8399 30.7374 27.5917 30.1169 29.9275C29.6425 31.9713 28.4746 33.2852 25.5184 34.7815C22.5622 36.2414 18.6206 32.6282 18.3651 32.4457C15.8274 30.4375 13.9674 27.6985 13.0366 24.599C12.7811 22.5917 14.168 21.4238 14.8614 19.7815C14.1399 20.0051 13.4329 20.2732 12.7447 20.5844C12.7447 20.5844 14.095 19.1976 15.7374 18.0297C16.4673 17.5552 16.8322 17.2633 17.5622 16.6428H15.6644C15.6644 16.6428 17.4162 15.7304 19.241 15.037C17.8906 14.964 16.6133 15.037 16.6133 15.037C16.6133 15.037 20.5184 13.2852 23.6206 12.0078C25.7374 11.1319 27.8176 11.3873 28.9855 13.0662C30.4819 15.256 32.0877 16.4603 35.5184 17.1903C37.5987 16.2779 38.2191 15.8034 40.8468 15.0735C43.1461 12.5187 44.9709 12.2268 44.9709 12.2268C44.9709 12.2268 44.0585 13.0297 43.8395 14.3436C45.1534 13.3217 46.5768 12.4457 46.5768 12.4457C46.5768 12.4457 46.0293 13.1392 45.4819 14.2341L45.6279 14.4165C46.6986 13.7985 47.8079 13.2499 48.949 12.7742L47.8541 14.2341C48.9855 14.2341 51.3213 14.3071 52.2337 14.4165C57.5987 14.526 58.6936 8.68662 60.7373 7.95669C63.2921 7.04428 64.46 6.49684 68.8395 10.8034C72.5987 14.453 75.5549 21.0954 74.095 22.5917C72.8541 23.7961 70.4454 22.1173 67.7811 18.7596C66.2537 16.8799 65.2244 14.6457 64.7884 12.2633C64.387 10.037 62.7446 8.72311 62.7446 8.72311C62.7446 8.72311 63.6936 10.8399 63.6936 12.7377C63.6936 13.7596 63.803 17.5552 65.4454 19.7085C65.2994 20.037 65.2264 21.2779 65.0439 21.5333C63.1461 19.1976 59.022 17.5187 58.3651 17.0808C60.6279 18.9056 65.8103 23.1757 67.8541 27.2633C69.7154 31.1319 68.5841 34.672 69.5695 35.5844C69.8249 35.8399 73.6206 40.5479 74.3505 42.9567C75.6279 47.0808 74.4235 51.4238 72.7447 54.1246L68.1096 54.8545C67.4162 54.672 66.9782 54.5625 66.3578 54.1976C66.7851 53.447 67.1278 52.6514 67.3797 51.8253L67.1242 51.3508C65.5186 53.4552 63.5084 55.2172 61.2118 56.5333C60.0423 57.1472 58.762 57.5215 57.4459 57.6343C56.1299 57.7471 54.8045 57.5962 53.5476 57.1903C49.1574 55.6871 45.0405 53.4808 41.3578 50.6574C41.3578 50.6574 41.3578 51.4603 41.5768 51.6428C42.9636 53.2487 46.2118 56.1319 49.3505 58.1392L42.6717 58.8691L45.8468 83.4676C44.4235 83.6866 44.2045 83.7961 42.6717 84.0151C41.7013 80.0544 39.2953 76.595 35.9198 74.3071C33.1277 72.7303 29.8447 72.2612 26.7228 72.9932L26.5403 73.2122C28.803 72.9932 31.5038 73.3216 34.2775 75.0735C37.0147 76.7888 39.2045 81.2779 40.0074 83.9056C41.0658 87.3362 41.7593 90.9859 38.9855 94.8545C37.0147 97.6282 31.2118 99.1611 26.5768 95.8764C27.7811 97.8837 29.4965 99.526 31.7593 99.818C35.1169 100.292 38.3286 99.7085 40.5184 97.4457C42.4162 95.5114 43.4016 91.4603 43.1461 87.2268L46.1023 86.7888L47.1972 94.4165L96.4673 88.4676L92.4162 49.3071L92.3797 49.2706ZM62.4527 28.5406C62.2702 28.8691 62.0877 29.0516 62.3797 30.0735V30.1465L62.4527 30.2925L62.5987 30.5844C63.1826 31.7888 63.8395 32.9202 64.8979 33.5041C65.1899 33.4311 65.4454 33.3946 65.7738 33.3946C66.7592 33.3582 67.4162 33.5041 67.8176 33.7231V32.7742C67.7447 31.2779 68.1096 28.6866 65.2264 27.3363C64.1315 26.8253 62.5622 26.9713 62.0512 27.6282L62.3067 27.7012C63.0731 27.9567 62.5622 28.2122 62.4162 28.5406H62.4527ZM70.5914 42.6647C67.5109 42.3422 64.4016 42.8857 61.6133 44.2341C60.5914 45.037 61.0658 46.4238 61.8322 46.9713C63.949 48.5771 65.8468 49.6355 67.7811 49.38C68.9855 49.2341 70.0439 47.2998 70.8103 45.5844C71.3213 44.38 71.3213 43.1027 70.5549 42.6647H70.5914ZM49.4235 30.4384C50.1169 29.7815 46.0658 28.9421 42.9636 31.0589C40.6644 32.6282 40.5914 36.0224 42.7811 37.9202L43.3651 38.3581C45.1945 37.4779 47.154 36.8987 49.168 36.6428C49.6425 36.1319 50.1899 35.183 50.0439 33.5406C49.8614 31.2779 48.1461 31.6428 49.4235 30.4384Z" fill="white"/>
</g>
<defs>
<clipPath id="clip0_755_12821">
<rect width="100" height="100" fill="white" transform="translate(0 0.000488281)"/>
</clipPath>
</defs>
</svg>
