<svg width="100" height="100" viewBox="0 0 100 100" fill="none" xmlns="http://www.w3.org/2000/svg">
<path d="M50 0.000488281C77.6143 0.000488281 100 22.3862 100 50.0005C100 77.6148 77.6143 100 50 100C22.3857 100 0 77.6148 0 50.0005C0 22.3862 22.3857 0.000488281 50 0.000488281Z" fill="black"/>
<path d="M48.8784 74.4652C47.596 74.1195 46.277 74.8618 45.9017 76.1275L45.885 76.1865L42.5647 88.4912L42.5497 88.5505C42.237 89.8332 43.0037 91.1385 44.286 91.4842C45.568 91.8305 46.887 91.0882 47.2624 89.8222L47.279 89.7635L50.599 77.4588L50.6144 77.3992C50.637 77.3068 50.654 77.2138 50.6657 77.1212L50.6754 77.0285L50.5967 76.6298L50.4817 76.0558L50.409 75.6975C50.2534 75.3972 50.037 75.1325 49.7734 74.9202C49.51 74.7082 49.205 74.5532 48.8784 74.4652ZM25.7414 61.7935C25.6808 61.9142 25.6295 62.0415 25.5886 62.1745L25.5656 62.2548L22.2453 74.5595L22.23 74.6192C21.9175 75.9018 22.6842 77.2068 23.9664 77.5528C25.2484 77.8988 26.5676 77.1568 26.9429 75.8908L26.9593 75.8318L29.9699 64.6748C28.3931 63.8398 26.9779 62.8765 25.7414 61.7935ZM17.8236 47.6435C16.5414 47.2975 15.2222 48.0395 14.847 49.3055L14.8304 49.3645L11.5101 61.6692L11.4949 61.7285C11.1824 63.0112 11.949 64.3162 13.2312 64.6622C14.5133 65.0082 15.8324 64.2662 16.2078 63.0002L16.2242 62.9412L19.5445 50.6365L19.5597 50.5772C19.8722 49.2945 19.1058 47.9895 17.8236 47.6435ZM92.2734 44.8492C90.991 44.5032 89.6717 45.2452 89.2967 46.5112L89.28 46.5702L85.9597 58.8748L85.9444 58.9342C85.632 60.2168 86.3987 61.5218 87.6807 61.8678C88.963 62.2138 90.282 61.4718 90.6574 60.2058L90.6737 60.1468L93.994 47.8422L94.0094 47.7828C94.3217 46.5002 93.5554 45.1952 92.2734 44.8492ZM10.5927 28.4181C7.81207 33.4818 6.04147 39.0378 5.37927 44.7768C5.69604 45.1378 6.11274 45.3972 6.57674 45.5215C7.85897 45.8678 9.17811 45.1255 9.55331 43.8595L9.56991 43.8008L12.8902 31.496L12.9054 31.4366C13.2179 30.1538 12.4513 28.8487 11.1691 28.5028C10.981 28.4521 10.7875 28.4236 10.5927 28.4181ZM83.8634 28.5028C82.5814 28.1567 81.262 28.8989 80.8867 30.1649L80.8704 30.2237L77.55 42.5285L77.5347 42.5878C77.2224 43.8705 77.9887 45.1758 79.271 45.5215C80.553 45.8678 81.8724 45.1255 82.2477 43.8595L82.264 43.8008L85.5844 31.496L85.5997 31.4366C85.912 30.1538 85.1454 28.8487 83.8634 28.5028Z" fill="white"/>
<path d="M25.0429 16.8027C23.7608 16.4566 22.4417 17.1988 22.0663 18.4648L22.0499 18.5236L18.7296 30.8283L18.7143 30.8876C18.4018 32.1704 19.1684 33.4755 20.4507 33.8215C21.7327 34.1675 23.0518 33.4252 23.4272 32.1593L23.4436 32.1005L26.7639 19.7958L26.7792 19.7365C27.0917 18.4537 26.3251 17.1486 25.0429 16.8027ZM67.7054 19.1287C66.423 18.7826 65.104 19.5247 64.7287 20.7908L64.712 20.8496L62.481 29.1171C63.9264 29.831 65.3057 30.6714 66.603 31.6285L66.8177 31.7886L69.4264 22.1218L69.4414 22.0624C69.754 20.7796 68.9877 19.4745 67.7054 19.1287ZM45.9894 5.25525C44.432 5.39288 42.8824 5.61178 41.3477 5.91108L41.022 5.97595L37.9274 17.4478L37.912 17.5072C37.5997 18.79 38.3664 20.0951 39.6484 20.441C40.9307 20.787 42.2497 20.0449 42.625 18.7788L42.6414 18.7201L45.9617 6.41538L45.977 6.35602C46.0654 5.99488 46.0697 5.61828 45.9894 5.25525ZM76.542 13.7548L75.8897 16.1728L75.8744 16.232C75.562 17.5148 76.3287 18.8199 77.6107 19.1658C78.8927 19.5119 80.212 18.7697 80.5874 17.5037L80.6037 17.4449L80.675 17.1826C79.454 16.0407 78.1704 14.9675 76.8304 13.9679L76.542 13.7548ZM57.224 5.65642L56.0464 10.0203L56.0314 10.0796C55.7187 11.3624 56.4854 12.6675 57.7677 13.0134C59.0497 13.3595 60.3687 12.6173 60.7444 11.3513L60.7607 11.2925L62 6.69938C60.5414 6.29608 59.0634 5.96722 57.5714 5.71402L57.224 5.65642Z" fill="white"/>
<path d="M32.3028 82.0848C32.678 80.8188 33.9973 80.0768 35.2793 80.4225C36.5617 80.7681 37.328 82.0734 37.0157 83.3564L37.0003 83.4158L34.624 92.2218L34.292 92.0995C32.8612 91.5651 31.4588 90.9581 30.0903 90.2801L32.2862 82.1435L32.3028 82.0848Z" fill="white"/>
<path d="M48.047 28.3032C33.5073 28.3032 22.1973 37.4565 22.1973 48.8395C22.1973 59.5902 32.6041 66.4545 48.737 66.1108C50.109 66.0815 50.5057 67.0032 50.952 68.2452C51.3987 69.4872 52.5987 76.0328 53.555 81.0395C54.411 85.5205 55.2807 90.0178 55.9447 94.5325C66.4797 93.1398 76.221 87.9362 83.3587 80.0875L75.7457 51.6965C73.848 44.8398 71.63 38.5218 65.761 33.9318C61.0393 30.2394 55.0407 28.3032 48.047 28.3032Z" fill="white"/>
<path d="M51.172 36.5238C52.898 36.5238 54.297 37.9228 54.297 39.6488C54.297 41.3748 52.898 42.7738 51.172 42.7738C49.446 42.7738 48.047 41.3748 48.047 39.6488C48.047 37.9228 49.446 36.5238 51.172 36.5238Z" fill="black"/>
</svg>
