<svg width="100" height="100" viewBox="0 0 100 100" fill="none" xmlns="http://www.w3.org/2000/svg">
<path d="M50 100C77.6142 100 100 77.6142 100 50C100 22.3858 77.6142 0 50 0C22.3858 0 0 22.3858 0 50C0 77.6142 22.3858 100 50 100Z" fill="black"/>
<path fill-rule="evenodd" clip-rule="evenodd" d="M20 61.6667H35V33.3334H29.2308V41.5946H20V61.6667ZM29.2299 56.9456H25.7692V46.3186H29.2299V56.9456Z" fill="white"/>
<path d="M38.3333 61.6667H45V41.6667H38.3333V61.6667Z" fill="white"/>
<path fill-rule="evenodd" clip-rule="evenodd" d="M46.6667 68.3334H61.6667V41.6667H46.6667V61.3757H55.9012V63.6949H46.6667V68.3334ZM55.9012 56.74H52.4368V46.3052H55.9012V56.74Z" fill="white"/>
<path d="M38.3333 40H45V33.3334H38.3333V40Z" fill="white"/>
<path fill-rule="evenodd" clip-rule="evenodd" d="M65 68.3334H80V41.6667H65V61.3757H74.2331V63.6949H65V68.3334ZM74.2331 56.74H70.7678V46.3052H74.2331V56.74Z" fill="white"/>
</svg>
