<svg width="100" height="100" viewBox="0 0 100 100" fill="none" xmlns="http://www.w3.org/2000/svg">
<path d="M84.7099 16.8723C78.1397 13.813 71.2038 11.6427 64.0791 10.4167C63.1041 12.1893 62.222 14.0131 61.4363 15.8804C53.8471 14.7172 46.1295 14.7172 38.5403 15.8804C37.7542 14.0132 36.8721 12.1895 35.8975 10.4167C28.7683 11.653 21.8277 13.8285 15.251 16.8883C2.19454 36.5351 -1.34487 55.6939 0.424836 74.5808C8.07103 80.3265 16.6293 84.6962 25.7277 87.5C27.7763 84.6976 29.5891 81.7246 31.1469 78.6126C28.1882 77.4887 25.3325 76.1021 22.613 74.4688C23.3287 73.9408 24.0287 73.3969 24.7052 72.8689C32.6185 76.6538 41.2554 78.6163 50.0001 78.6163C58.7448 78.6163 67.3818 76.6538 75.2951 72.8689C75.9793 73.4369 76.6794 73.9808 77.3872 74.4688C74.6624 76.1047 71.8015 77.494 68.8376 78.6206C70.3934 81.7312 72.2064 84.7017 74.2568 87.5C83.3629 84.7075 91.9278 80.3398 99.5754 74.5888V74.5888C101.652 52.6861 96.0281 33.7033 84.7099 16.8723ZM33.3885 62.9655C28.4569 62.9655 24.3827 58.4138 24.3827 52.8141C24.3827 47.2145 28.3154 42.6227 33.3728 42.6227C38.4302 42.6227 42.473 47.2145 42.3865 52.8141C42.2999 58.4138 38.4145 62.9655 33.3885 62.9655ZM66.6117 62.9655C61.6723 62.9655 57.6138 58.4138 57.6138 52.8141C57.6138 47.2145 61.5464 42.6227 66.6117 42.6227C71.677 42.6227 75.6883 47.2145 75.6018 52.8141C75.5153 58.4138 71.6377 62.9655 66.6117 62.9655Z" fill="#5865F2"/>
</svg>
