<svg width="100" height="100" viewBox="0 0 100 100" fill="none" xmlns="http://www.w3.org/2000/svg">
<path d="M74.1711 55.2259C83.9361 55.2259 91.8522 47.9695 91.8522 39.0182C91.8522 30.067 83.9361 22.8106 74.1711 22.8106C64.4061 22.8106 56.49 30.067 56.49 39.0182C56.49 47.9695 64.4061 55.2259 74.1711 55.2259Z" fill="#B03931"/>
<path d="M94.3188 26.4151C97.4565 26.4151 100 24.0835 100 21.2074C100 18.3312 97.4565 15.9996 94.3188 15.9996C91.1812 15.9996 88.6377 18.3312 88.6377 21.2074C88.6377 24.0835 91.1812 26.4151 94.3188 26.4151Z" fill="#B03931"/>
<path d="M2.19995 17.7779C0.968874 17.9301 0.00408778 18.9128 0 20.1021L0.0776987 80.8286C0.0776987 81.7483 0.326473 83.6449 2.91364 83.6449L26.1701 83.5521C32.8179 83.5402 37.2705 83.4266 39.9221 83.0913C39.9376 83.0915 39.9696 83.0914 39.9851 83.0912C42.5227 82.7388 45.2107 82.0893 48.1334 81.1403C53.2143 79.5517 57.7198 77.2046 61.5937 74.0696C65.3866 71.0327 68.3259 67.437 70.3917 63.3922C72.4574 59.3474 73.4987 55.0707 73.491 50.6371C73.48 44.4656 71.6131 38.6868 67.8673 33.4879C64.1211 28.2887 59.0077 24.3071 52.7149 21.6702C46.3176 18.9581 37.9762 17.7223 27.628 17.7407L2.51466 17.7775C2.4067 17.7781 2.30428 17.765 2.19995 17.7779ZM15.7167 30.2737L26.5425 30.2578C31.6019 30.2488 35.2013 30.4025 37.243 30.6829C39.3127 30.9672 41.5795 31.5673 43.98 32.4945C46.3592 33.4011 48.4333 34.5114 50.2155 35.8934C55.1186 39.7055 57.4299 44.2171 57.4405 50.1905C57.4513 56.3068 55.2177 61.071 50.4416 65.0666C48.9725 66.2792 47.3387 67.3075 45.5362 68.1585C43.8326 68.9519 41.6103 69.6358 38.8042 70.2249C36.1577 70.7543 32.1399 71.0556 26.9095 71.0649L15.769 71.0812L15.7167 30.2737Z" fill="#B03931"/>
</svg>
