<svg width="100" height="100" viewBox="0 0 100 100" fill="none" xmlns="http://www.w3.org/2000/svg">
<path fill-rule="evenodd" clip-rule="evenodd" d="M49.2308 24.8317H92.3077V42.2676H49.2308V24.8317Z" fill="white"/>
<path fill-rule="evenodd" clip-rule="evenodd" d="M10.2564 81.7548C6.46256 81.7548 3.15744 79.6896 1.38308 76.6265C0.477173 78.1838 -3.95195e-05 79.9532 2.45466e-09 81.7548C2.45465e-09 87.4194 4.5918 92.0112 10.2564 92.0112H20.5128V81.7548H10.2564Z" fill="#3ECC5F"/>
<path fill-rule="evenodd" clip-rule="evenodd" d="M56.3999 27.5888L92.3076 25.3447V20.2165C92.3076 14.5518 87.7158 9.96004 82.0512 9.96004H35.8973L34.6153 7.73953C34.045 6.75235 32.6209 6.75235 32.0512 7.73953L30.7691 9.96004L29.4871 7.73953C28.9173 6.75235 27.4927 6.75235 26.923 7.73953L25.6409 9.96004L24.3589 7.73953C23.7891 6.75235 22.3645 6.75235 21.7948 7.73953L20.5127 9.96004C20.5014 9.96004 20.4912 9.96158 20.4794 9.96158L18.3553 7.83799C17.5502 7.03235 16.1748 7.40056 15.8794 8.50158L15.1773 11.119L12.5148 10.4052C11.4132 10.1103 10.4066 11.1175 10.7019 12.2185L11.4148 14.8816L8.79836 15.5826C7.69682 15.878 7.3281 17.2539 8.13374 18.0595L10.2578 20.1836C10.2578 20.1944 10.2563 20.2052 10.2563 20.2165L8.03579 21.4985C7.04862 22.0682 7.04862 23.4929 8.03579 24.0626L10.2563 25.3447L8.03579 26.6267C7.04862 27.1965 7.04862 28.6211 8.03579 29.1908L10.2563 30.4729L8.03579 31.7549C7.04862 32.3247 7.04862 33.7493 8.03579 34.319L10.2563 35.6011L8.03579 36.8831C7.04862 37.4529 7.04862 38.8775 8.03579 39.4472L10.2563 40.7293L8.03579 42.0113C7.04862 42.5811 7.04862 44.0057 8.03579 44.5754L10.2563 45.8575L8.03579 47.1395C7.04862 47.7093 7.04862 49.1339 8.03579 49.7036L10.2563 50.9857L8.03579 52.2677C7.04862 52.8375 7.04862 54.2621 8.03579 54.8318L10.2563 56.1139L8.03579 57.3959C7.04862 57.9657 7.04862 59.3903 8.03579 59.96L10.2563 61.2421L8.03579 62.5241C7.04862 63.0939 7.04862 64.5185 8.03579 65.0883L10.2563 66.3703L8.03579 67.6524C7.04862 68.2221 7.04862 69.6467 8.03579 70.2165L10.2563 71.4985L8.03579 72.7806C7.04862 73.3503 7.04862 74.7749 8.03579 75.3447L10.2563 76.6267L8.03579 77.9088C7.04862 78.4785 7.04862 79.9031 8.03579 80.4729L10.2563 81.7549C10.2563 87.4195 14.8481 92.0113 20.5127 92.0113H82.0512C87.7158 92.0113 92.3076 87.4195 92.3076 81.7549V40.7293L56.3999 38.4852C55.0139 38.3984 53.713 37.7867 52.7621 36.7745C51.8113 35.7623 51.282 34.4257 51.282 33.037C51.282 30.1544 53.523 27.7688 56.3999 27.5888Z" fill="#3ECC5F"/>
<path fill-rule="evenodd" clip-rule="evenodd" d="M71.7949 92.0112H87.1795V71.4983H71.7949V92.0112Z" fill="#3ECC5F"/>
<path fill-rule="evenodd" clip-rule="evenodd" d="M97.4359 79.1907C97.3236 79.1907 97.2164 79.2096 97.1082 79.2235C97.0887 79.1465 97.0703 79.0691 97.0487 78.9922C97.5952 78.7637 98.0457 78.3531 98.3237 77.83C98.6017 77.307 98.6901 76.7039 98.5738 76.1231C98.4575 75.5423 98.1437 75.0197 97.6857 74.644C97.2278 74.2684 96.6539 74.0629 96.0616 74.0624C95.5016 74.0645 94.9579 74.2512 94.5149 74.5937C94.4581 74.5358 94.4009 74.4783 94.3431 74.4214C94.6781 73.9809 94.8602 73.4431 94.8616 72.8896C94.8612 72.2989 94.6569 71.7263 94.2831 71.2688C93.9093 70.8113 93.389 70.4969 92.8102 70.3788C92.2313 70.2607 91.6295 70.3461 91.1063 70.6205C90.5831 70.8949 90.1708 71.3416 89.939 71.885C89.8631 71.8635 89.7867 71.8455 89.7108 71.826C89.7246 71.7178 89.7436 71.6107 89.7436 71.4983C89.7436 70.8183 89.4735 70.1661 88.9926 69.6852C88.5117 69.2044 87.8595 68.9342 87.1795 68.9342C86.4995 68.9342 85.8473 69.2044 85.3664 69.6852C84.8855 70.1661 84.6154 70.8183 84.6154 71.4983C84.6154 71.6107 84.6344 71.7178 84.6482 71.826C84.5723 71.8455 84.4959 71.8635 84.42 71.885C84.189 71.3406 83.7769 70.8928 83.2534 70.6175C82.73 70.3423 82.1275 70.2565 81.548 70.3748C80.9686 70.493 80.4478 70.808 80.0741 71.2664C79.7004 71.7247 79.4966 72.2982 79.4975 72.8896C79.4975 73.4665 79.6944 73.9927 80.0159 74.4214C78.1098 76.284 76.9231 78.8794 76.9231 81.7548C76.9231 87.4194 81.5149 92.0112 87.1795 92.0112C91.9687 92.0112 95.9795 88.724 97.1082 84.286C97.2164 84.2999 97.3236 84.3189 97.4359 84.3189C98.116 84.3189 98.7682 84.0487 99.249 83.5679C99.7299 83.087 100 82.4348 100 81.7548C100 81.0747 99.7299 80.4225 99.249 79.9417C98.7682 79.4608 98.116 79.1907 97.4359 79.1907Z" fill="#44D860"/>
<path fill-rule="evenodd" clip-rule="evenodd" d="M76.9231 61.2419H92.3077V50.9855H76.9231V61.2419Z" fill="#3ECC5F"/>
<path fill-rule="evenodd" clip-rule="evenodd" d="M97.4359 57.3961C97.7759 57.3961 98.102 57.261 98.3425 57.0206C98.5829 56.7802 98.718 56.4541 98.718 56.1141C98.718 55.774 98.5829 55.4479 98.3425 55.2075C98.102 54.9671 97.7759 54.832 97.4359 54.832C97.38 54.832 97.3262 54.8417 97.2723 54.8484C97.2621 54.8099 97.2534 54.7715 97.2426 54.733C97.5155 54.6185 97.7404 54.413 97.8791 54.1516C98.0178 53.8901 98.0618 53.5887 98.0037 53.2985C97.9455 53.0083 97.7888 52.7472 97.5601 52.5593C97.3314 52.3715 97.0447 52.2685 96.7487 52.2679C96.4569 52.2679 96.1908 52.3689 95.9754 52.5335C95.9472 52.5043 95.9185 52.4756 95.8892 52.4474C96.0503 52.2335 96.1487 51.97 96.1487 51.6812C96.1486 51.3858 96.0465 51.0994 95.8596 50.8706C95.6726 50.6417 95.4124 50.4845 95.1229 50.4254C94.8334 50.3664 94.5324 50.4092 94.2707 50.5465C94.0091 50.6839 93.803 50.9073 93.6872 51.1792C93.2383 51.0522 92.7742 50.9872 92.3077 50.9858C89.4759 50.9858 87.1795 53.2823 87.1795 56.1141C87.1795 58.9458 89.4759 61.2423 92.3077 61.2423C92.7867 61.2423 93.2477 61.1715 93.6872 61.0489C93.803 61.3208 94.0091 61.5442 94.2707 61.6816C94.5324 61.8189 94.8334 61.8617 95.1229 61.8027C95.4124 61.7436 95.6726 61.5864 95.8596 61.3575C96.0465 61.1287 96.1486 60.8423 96.1487 60.5469C96.1487 60.2582 96.0503 59.9946 95.8892 59.7807C95.9185 59.7525 95.9472 59.7238 95.9754 59.6946C96.1908 59.8592 96.4569 59.9602 96.7487 59.9602C97.045 59.9602 97.3322 59.8575 97.5613 59.6697C97.7905 59.4819 97.9475 59.2205 98.0057 58.93C98.0639 58.6395 98.0197 58.3378 97.8806 58.0762C97.7414 57.8146 97.516 57.6092 97.2426 57.4951C97.2534 57.4571 97.2621 57.4182 97.2723 57.3797C97.3262 57.3864 97.38 57.3961 97.4359 57.3961Z" fill="#44D860"/>
<path fill-rule="evenodd" clip-rule="evenodd" d="M30.7692 26.6265C30.4292 26.6265 30.1031 26.4915 29.8627 26.251C29.6223 26.0106 29.4872 25.6845 29.4872 25.3445C29.4872 23.2235 27.7621 21.4983 25.641 21.4983C23.52 21.4983 21.7949 23.2235 21.7949 25.3445C21.7949 25.6845 21.6598 26.0106 21.4194 26.251C21.1789 26.4915 20.8528 26.6265 20.5128 26.6265C20.1728 26.6265 19.8467 26.4915 19.6063 26.251C19.3658 26.0106 19.2308 25.6845 19.2308 25.3445C19.2308 21.8096 22.1062 18.9342 25.641 18.9342C29.1759 18.9342 32.0513 21.8096 32.0513 25.3445C32.0513 25.6845 31.9162 26.0106 31.6758 26.251C31.4354 26.4915 31.1093 26.6265 30.7692 26.6265Z" fill="black"/>
<path fill-rule="evenodd" clip-rule="evenodd" d="M51.282 92.0112H82.0513C87.7159 92.0112 92.3077 87.4194 92.3077 81.7548V45.8573H61.5385C55.8738 45.8573 51.282 50.4491 51.282 56.1137V92.0112Z" fill="#FFFF50"/>
<path fill-rule="evenodd" clip-rule="evenodd" d="M84.6258 61.755H58.9642C58.8282 61.755 58.6978 61.701 58.6016 61.6048C58.5054 61.5087 58.4514 61.3782 58.4514 61.2422C58.4514 61.1062 58.5054 60.9758 58.6016 60.8796C58.6978 60.7834 58.8282 60.7294 58.9642 60.7294H84.6258C84.7618 60.7294 84.8922 60.7834 84.9884 60.8796C85.0845 60.9758 85.1386 61.1062 85.1386 61.2422C85.1386 61.3782 85.0845 61.5087 84.9884 61.6048C84.8922 61.701 84.7618 61.755 84.6258 61.755ZM84.6258 72.0114H58.9642C58.8282 72.0114 58.6978 71.9574 58.6016 71.8612C58.5054 71.7651 58.4514 71.6346 58.4514 71.4986C58.4514 71.3626 58.5054 71.2322 58.6016 71.136C58.6978 71.0398 58.8282 70.9858 58.9642 70.9858H84.6258C84.7618 70.9858 84.8922 71.0398 84.9884 71.136C85.0845 71.2322 85.1386 71.3626 85.1386 71.4986C85.1386 71.6346 85.0845 71.7651 84.9884 71.8612C84.8922 71.9574 84.7618 72.0114 84.6258 72.0114ZM84.6258 82.2679H58.9642C58.8282 82.2679 58.6978 82.2138 58.6016 82.1177C58.5054 82.0215 58.4514 81.891 58.4514 81.755C58.4514 81.619 58.5054 81.4886 58.6016 81.3924C58.6978 81.2962 58.8282 81.2422 58.9642 81.2422H84.6258C84.7618 81.2422 84.8922 81.2962 84.9884 81.3924C85.0845 81.4886 85.1386 81.619 85.1386 81.755C85.1386 81.891 85.0845 82.0215 84.9884 82.1177C84.8922 82.2138 84.7618 82.2679 84.6258 82.2679ZM84.6258 56.7222H58.9642C58.8282 56.7222 58.6978 56.6682 58.6016 56.572C58.5054 56.4758 58.4514 56.3454 58.4514 56.2094C58.4514 56.0734 58.5054 55.9429 58.6016 55.8468C58.6978 55.7506 58.8282 55.6966 58.9642 55.6966H84.6258C84.7618 55.6966 84.8922 55.7506 84.9884 55.8468C85.0845 55.9429 85.1386 56.0734 85.1386 56.2094C85.1386 56.3454 85.0845 56.4758 84.9884 56.572C84.8922 56.6682 84.7618 56.7222 84.6258 56.7222ZM84.6258 66.8832H58.9642C58.8282 66.8832 58.6978 66.8292 58.6016 66.733C58.5054 66.6369 58.4514 66.5064 58.4514 66.3704C58.4514 66.2344 58.5054 66.104 58.6016 66.0078C58.6978 65.9116 58.8282 65.8576 58.9642 65.8576H84.6258C84.7618 65.8576 84.8922 65.9116 84.9884 66.0078C85.0845 66.104 85.1386 66.2344 85.1386 66.3704C85.1386 66.5064 85.0845 66.6369 84.9884 66.733C84.8922 66.8292 84.7618 66.8832 84.6258 66.8832ZM84.6258 77.1397H58.9642C58.8282 77.1397 58.6978 77.0856 58.6016 76.9895C58.5054 76.8933 58.4514 76.7628 58.4514 76.6268C58.4514 76.4908 58.5054 76.3604 58.6016 76.2642C58.6978 76.168 58.8282 76.114 58.9642 76.114H84.6258C84.7618 76.114 84.8922 76.168 84.9884 76.2642C85.0845 76.3604 85.1386 76.4908 85.1386 76.6268C85.1386 76.7628 85.0845 76.8933 84.9884 76.9895C84.8922 77.0856 84.7618 77.1397 84.6258 77.1397ZM92.3078 29.7607C92.3017 29.7607 92.2965 29.7576 92.2904 29.7581C90.7058 29.812 89.956 31.3971 89.2945 32.7956C88.6042 34.2571 88.0704 35.2074 87.1955 35.1786C86.2268 35.1438 85.6729 34.0494 85.0863 32.8915C84.4124 31.5612 83.6432 30.0525 82.0283 30.1089C80.4663 30.1622 79.714 31.5417 79.0504 32.7586C78.3442 34.055 77.8637 34.8432 76.937 34.8068C75.9488 34.7709 75.4237 33.8812 74.816 32.8515C74.1386 31.7048 73.3555 30.4156 71.7719 30.4597C70.2365 30.5125 69.4822 31.6827 68.8165 32.7161C68.1124 33.8084 67.6191 34.474 66.6806 34.4345C65.6688 34.3986 65.1463 33.6602 64.5417 32.8053C63.8627 31.8448 63.0975 30.7576 61.5186 30.8104C60.017 30.8617 59.2627 31.8207 58.5975 32.6658C57.9658 33.4679 57.4724 34.1027 56.4288 34.0627C56.2928 34.0578 56.1604 34.1072 56.0608 34.1999C55.9612 34.2926 55.9024 34.4211 55.8975 34.5571C55.8927 34.6931 55.942 34.8255 56.0347 34.9251C56.1274 35.0248 56.2559 35.0835 56.3919 35.0884C57.9391 35.1402 58.7227 34.1653 59.4032 33.3002C60.0068 32.533 60.5278 31.8709 61.5534 31.8361C62.5411 31.794 63.0042 32.4079 63.7047 33.3976C64.3699 34.3381 65.1247 35.4048 66.6437 35.4597C68.235 35.513 69.0006 34.3238 69.6786 33.2715C70.2847 32.3309 70.8078 31.5191 71.8068 31.4848C72.7263 31.4504 73.2268 32.1771 73.9324 33.3725C74.5975 34.4991 75.3509 35.7756 76.9001 35.832C78.5027 35.8873 79.2765 34.4884 79.9509 33.2499C80.535 32.1791 81.0863 31.1679 82.0632 31.134C82.9827 31.1125 83.4622 31.952 84.1714 33.3545C84.834 34.6638 85.5852 36.1468 87.1586 36.2038L87.2452 36.2053C88.8165 36.2053 89.5622 34.6284 90.2222 33.234C90.8063 31.9981 91.3591 30.834 92.3078 30.7863V29.7607Z" fill="black"/>
<path fill-rule="evenodd" clip-rule="evenodd" d="M41.0256 92.0112H61.5385V71.4983H41.0256V92.0112Z" fill="#3ECC5F"/>
<path d="M92.1841 38.7918L52.2978 49.4793C51.7506 49.6259 51.4259 50.1883 51.5725 50.7355L55.4703 65.2823C55.6169 65.8294 56.1793 66.1541 56.7265 66.0075L96.6128 55.32C97.1599 55.1734 97.4846 54.611 97.338 54.0639L93.4402 39.517C93.2936 38.9699 92.7312 38.6452 92.1841 38.7918Z" fill="#D8D8D8"/>
<path d="M64.3358 57.4426L62.9077 57.8253C62.6341 57.8986 62.4718 58.1798 62.5451 58.4534L62.9277 59.8814C63.001 60.155 63.2822 60.3174 63.5558 60.2441L64.9839 59.8614C65.2575 59.7881 65.4198 59.5069 65.3465 59.2333L64.9639 57.8052C64.8906 57.5317 64.6094 57.3693 64.3358 57.4426Z" fill="#4A4A4A"/>
<path d="M67.2024 56.6743L65.7743 57.0569C65.5007 57.1303 65.3384 57.4115 65.4117 57.685L65.7943 59.1131C65.8676 59.3867 66.1488 59.549 66.4224 59.4757L67.8505 59.0931C68.124 59.0198 68.2864 58.7386 68.2131 58.465L67.8304 57.0369C67.7571 56.7633 67.4759 56.601 67.2024 56.6743Z" fill="#4A4A4A"/>
<path d="M70.0689 55.9064L68.6409 56.2891C68.3673 56.3624 68.2049 56.6436 68.2782 56.9172L68.6609 58.3453C68.7342 58.6188 69.0154 58.7812 69.289 58.7079L70.717 58.3252C70.9906 58.2519 71.153 57.9707 71.0797 57.6971L70.697 56.2691C70.6237 55.9955 70.3425 55.8331 70.0689 55.9064Z" fill="#4A4A4A"/>
<path d="M72.9355 55.1383L71.5074 55.521C71.2339 55.5943 71.0715 55.8755 71.1448 56.1491L71.5275 57.5772C71.6008 57.8507 71.882 58.0131 72.1555 57.9398L73.5836 57.5571C73.8572 57.4838 74.0195 57.2026 73.9462 56.929L73.5636 55.501C73.4903 55.2274 73.2091 55.065 72.9355 55.1383Z" fill="#4A4A4A"/>
<path d="M75.8021 54.3701L74.374 54.7528C74.1004 54.8261 73.9381 55.1073 74.0114 55.3808L74.394 56.8089C74.4673 57.0825 74.7485 57.2448 75.0221 57.1715L76.4502 56.7889C76.7238 56.7156 76.8861 56.4344 76.8128 56.1608L76.4302 54.7327C76.3569 54.4592 76.0757 54.2968 75.8021 54.3701Z" fill="#4A4A4A"/>
<path d="M78.6687 53.6024L77.2406 53.985C76.967 54.0583 76.8047 54.3395 76.878 54.6131L77.2606 56.0412C77.3339 56.3148 77.6151 56.4771 77.8887 56.4038L79.3168 56.0212C79.5904 55.9479 79.7527 55.6667 79.6794 55.3931L79.2967 53.965C79.2234 53.6914 78.9422 53.5291 78.6687 53.6024Z" fill="#4A4A4A"/>
<path d="M81.5352 52.8341L80.1072 53.2167C79.8336 53.29 79.6712 53.5712 79.7445 53.8448L80.1272 55.2729C80.2005 55.5464 80.4817 55.7088 80.7553 55.6355L82.1834 55.2528C82.4569 55.1795 82.6193 54.8983 82.546 54.6248L82.1633 53.1967C82.09 52.9231 81.8088 52.7608 81.5352 52.8341Z" fill="#4A4A4A"/>
<path d="M84.4018 52.066L82.9737 52.4486C82.7002 52.5219 82.5378 52.8031 82.6111 53.0767L82.9938 54.5048C83.0671 54.7783 83.3483 54.9407 83.6218 54.8674L85.0499 54.4847C85.3235 54.4114 85.4859 54.1302 85.4126 53.8567L85.0299 52.4286C84.9566 52.155 84.6754 51.9927 84.4018 52.066Z" fill="#4A4A4A"/>
<path d="M87.2685 51.2977L85.8404 51.6803C85.5668 51.7536 85.4045 52.0348 85.4778 52.3084L85.8604 53.7365C85.9337 54.0101 86.2149 54.1724 86.4885 54.0991L87.9166 53.7165C88.1901 53.6432 88.3525 53.362 88.2792 53.0884L87.8965 51.6603C87.8232 51.3867 87.542 51.2244 87.2685 51.2977Z" fill="#4A4A4A"/>
<path fill-rule="evenodd" clip-rule="evenodd" d="M55.2939 59.8662L61.3798 58.2355C61.5111 58.2003 61.6511 58.2187 61.7689 58.2867C61.8867 58.3547 61.9726 58.4667 62.0078 58.5981L62.3904 60.0257C62.4256 60.157 62.4071 60.297 62.3391 60.4148C62.2711 60.5326 62.1591 60.6185 62.0277 60.6537L55.9419 62.2844C55.8105 62.3196 55.6706 62.3012 55.5528 62.2332C55.435 62.1652 55.349 62.0532 55.3138 61.9218L54.9312 60.4937C54.896 60.3624 54.9144 60.2224 54.9824 60.1046C55.0504 59.9868 55.1624 59.9009 55.2938 59.8657L55.2939 59.8662ZM88.7962 50.8892L94.8825 49.2584C95.0139 49.2232 95.1539 49.2417 95.2717 49.3097C95.3895 49.3777 95.4754 49.4897 95.5106 49.621L95.8931 51.0486C95.9283 51.18 95.9099 51.32 95.8419 51.4378C95.7739 51.5556 95.6619 51.6415 95.5305 51.6767L89.4437 53.3077C89.3123 53.3429 89.1723 53.3244 89.0546 53.2564C88.9368 53.1884 88.8508 53.0764 88.8156 52.945L88.433 51.517C88.3978 51.3856 88.4162 51.2456 88.4842 51.1278C88.5522 51.01 88.6642 50.9241 88.7956 50.8889L88.7962 50.8892Z" fill="#4A4A4A"/>
<path fill-rule="evenodd" clip-rule="evenodd" d="M53.7428 54.0774L56.066 53.4549C56.1974 53.4197 56.3374 53.4381 56.4552 53.5061C56.5729 53.5741 56.6589 53.6862 56.6941 53.8175L57.0766 55.2451C57.1118 55.3765 57.0934 55.5165 57.0254 55.6343C56.9574 55.752 56.8454 55.838 56.714 55.8732L54.3908 56.4957C54.2594 56.5309 54.1195 56.5125 54.0017 56.4445C53.8839 56.3765 53.7979 56.2644 53.7627 56.1331L53.3802 54.7055C53.345 54.5741 53.3635 54.4341 53.4315 54.3163C53.4995 54.1986 53.6115 54.1126 53.7428 54.0774Z" fill="#4A4A4A"/>
<path d="M58.933 52.6865L57.5049 53.0691C57.2314 53.1424 57.069 53.4236 57.1423 53.6972L57.525 55.1253C57.5983 55.3988 57.8795 55.5612 58.153 55.4879L59.5811 55.1052C59.8547 55.0319 60.017 54.7507 59.9437 54.4772L59.5611 53.0491C59.4878 52.7755 59.2066 52.6132 58.933 52.6865Z" fill="#4A4A4A"/>
<path d="M61.7995 51.9182L60.3714 52.3008C60.0978 52.3741 59.9355 52.6553 60.0088 52.9289L60.3914 54.357C60.4647 54.6306 60.7459 54.7929 61.0195 54.7196L62.4476 54.337C62.7211 54.2637 62.8835 53.9825 62.8102 53.7089L62.4275 52.2808C62.3542 52.0072 62.073 51.8449 61.7995 51.9182Z" fill="#4A4A4A"/>
<path d="M64.666 51.1505L63.238 51.5331C62.9644 51.6064 62.802 51.8876 62.8753 52.1612L63.258 53.5893C63.3313 53.8628 63.6125 54.0252 63.8861 53.9519L65.3142 53.5692C65.5877 53.4959 65.7501 53.2147 65.6768 52.9412L65.2941 51.5131C65.2208 51.2395 64.9396 51.0772 64.666 51.1505Z" fill="#4A4A4A"/>
<path d="M67.5327 50.3822L66.1047 50.7648C65.8311 50.8381 65.6687 51.1193 65.742 51.3929L66.1247 52.821C66.198 53.0946 66.4792 53.2569 66.7528 53.1836L68.1809 52.801C68.4544 52.7276 68.6168 52.4464 68.5435 52.1729L68.1608 50.7448C68.0875 50.4712 67.8063 50.3089 67.5327 50.3822Z" fill="#4A4A4A"/>
<path d="M70.3993 49.6141L68.9712 49.9967C68.6977 50.07 68.5353 50.3512 68.6086 50.6248L68.9913 52.0529C69.0646 52.3265 69.3458 52.4888 69.6193 52.4155L71.0474 52.0329C71.321 51.9596 71.4834 51.6784 71.4101 51.4048L71.0274 49.9767C70.9541 49.7031 70.6729 49.5408 70.3993 49.6141Z" fill="#4A4A4A"/>
<path d="M73.2658 48.8458L71.8378 49.2284C71.5642 49.3017 71.4018 49.5829 71.4751 49.8565L71.8578 51.2846C71.9311 51.5582 72.2123 51.7205 72.4859 51.6472L73.9139 51.2645C74.1875 51.1912 74.3499 50.91 74.2766 50.6365L73.8939 49.2084C73.8206 48.9348 73.5394 48.7725 73.2658 48.8458Z" fill="#4A4A4A"/>
<path d="M76.1324 48.078L74.7043 48.4607C74.4308 48.534 74.2684 48.8152 74.3417 49.0888L74.7244 50.5169C74.7977 50.7904 75.0789 50.9528 75.3524 50.8795L76.7805 50.4968C77.0541 50.4235 77.2164 50.1423 77.1431 49.8687L76.7605 48.4407C76.6872 48.1671 76.406 48.0047 76.1324 48.078Z" fill="#4A4A4A"/>
<path d="M78.999 47.3098L77.5709 47.6924C77.2973 47.7658 77.135 48.0469 77.2083 48.3205L77.5909 49.7486C77.6642 50.0222 77.9454 50.1845 78.219 50.1112L79.6471 49.7286C79.9207 49.6553 80.083 49.3741 80.0097 49.1005L79.6271 47.6724C79.5538 47.3988 79.2726 47.2365 78.999 47.3098Z" fill="#4A4A4A"/>
<path d="M81.8651 46.5416L80.437 46.9242C80.1634 46.9975 80.0011 47.2787 80.0744 47.5523L80.457 48.9804C80.5303 49.254 80.8115 49.4163 81.0851 49.343L82.5132 48.9604C82.7868 48.8871 82.9491 48.6059 82.8758 48.3323L82.4932 46.9042C82.4199 46.6306 82.1387 46.4683 81.8651 46.5416Z" fill="#4A4A4A"/>
<path d="M84.7317 45.7737L83.3036 46.1564C83.03 46.2297 82.8677 46.5109 82.941 46.7845L83.3236 48.2125C83.3969 48.4861 83.6781 48.6485 83.9517 48.5752L85.3798 48.1925C85.6533 48.1192 85.8157 47.838 85.7424 47.5644L85.3597 46.1364C85.2864 45.8628 85.0052 45.7004 84.7317 45.7737Z" fill="#4A4A4A"/>
<path d="M87.5982 45.0056L86.1702 45.3883C85.8966 45.4616 85.7342 45.7428 85.8075 46.0164L86.1902 47.4445C86.2635 47.718 86.5447 47.8804 86.8183 47.8071L88.2463 47.4244C88.5199 47.3511 88.6823 47.0699 88.609 46.7963L88.2263 45.3683C88.153 45.0947 87.8718 44.9323 87.5982 45.0056Z" fill="#4A4A4A"/>
<path d="M90.4648 44.2374L89.0367 44.62C88.7632 44.6934 88.6008 44.9746 88.6741 45.2481L89.0568 46.6762C89.1301 46.9498 89.4113 47.1121 89.6848 47.0388L91.1129 46.6562C91.3865 46.5829 91.5488 46.3017 91.4755 46.0281L91.0929 44.6C91.0196 44.3264 90.7384 44.1641 90.4648 44.2374Z" fill="#4A4A4A"/>
<path d="M93.3314 43.4697L91.9034 43.8523C91.6298 43.9256 91.4674 44.2068 91.5407 44.4804L91.9234 45.9085C91.9967 46.1821 92.2779 46.3444 92.5515 46.2711L93.9796 45.8884C94.2531 45.8151 94.4155 45.5339 94.3422 45.2604L93.9595 43.8323C93.8862 43.5587 93.605 43.3964 93.3314 43.4697Z" fill="#4A4A4A"/>
<path fill-rule="evenodd" clip-rule="evenodd" d="M93.2445 43.1454L90.9208 43.768C90.7894 43.8032 90.6494 43.7848 90.5317 43.7168C90.4139 43.6487 90.3279 43.5367 90.2927 43.4054L89.9101 41.9773C89.8749 41.8459 89.8933 41.7059 89.9613 41.5881C90.0293 41.4704 90.1413 41.3844 90.2727 41.3492L92.5964 40.7266C92.7277 40.6914 92.8677 40.7098 92.9855 40.7778C93.1033 40.8458 93.1892 40.9578 93.2244 41.0892L93.6071 42.5173C93.6423 42.6487 93.6239 42.7886 93.5558 42.9064C93.4878 43.0242 93.3758 43.1102 93.2445 43.1454Z" fill="#4A4A4A"/>
<path d="M88.0542 44.5361L89.4823 44.1534C89.7559 44.0801 89.9182 43.7989 89.8449 43.5254L89.4623 42.0973C89.389 41.8237 89.1078 41.6613 88.8342 41.7346L87.4061 42.1173C87.1325 42.1906 86.9702 42.4718 87.0435 42.7454L87.4262 44.1735C87.4995 44.447 87.7807 44.6094 88.0542 44.5361Z" fill="#4A4A4A"/>
<path d="M85.1879 45.3044L86.616 44.9217C86.8896 44.8484 87.0519 44.5672 86.9786 44.2936L86.5959 42.8656C86.5226 42.592 86.2414 42.4296 85.9679 42.5029L84.5398 42.8856C84.2662 42.9589 84.1039 43.2401 84.1772 43.5137L84.5598 44.9418C84.6331 45.2153 84.9143 45.3777 85.1879 45.3044Z" fill="#4A4A4A"/>
<path d="M82.3213 46.0721L83.7493 45.6894C84.0229 45.6161 84.1853 45.3349 84.112 45.0614L83.7293 43.6333C83.656 43.3597 83.3748 43.1974 83.1012 43.2707L81.6732 43.6533C81.3996 43.7266 81.2372 44.0078 81.3105 44.2814L81.6932 45.7095C81.7665 45.9831 82.0477 46.1454 82.3213 46.0721Z" fill="#4A4A4A"/>
<path d="M79.4547 46.8403L80.8828 46.4577C81.1563 46.3844 81.3187 46.1032 81.2454 45.8296L80.8627 44.4015C80.7894 44.1279 80.5082 43.9656 80.2347 44.0389L78.8066 44.4216C78.533 44.4949 78.3706 44.7761 78.444 45.0496L78.8266 46.4777C78.8999 46.7513 79.1811 46.9136 79.4547 46.8403Z" fill="#4A4A4A"/>
<path d="M76.5881 47.6086L78.0162 47.2259C78.2898 47.1526 78.4521 46.8714 78.3788 46.5978L77.9962 45.1697C77.9229 44.8962 77.6417 44.7338 77.3681 44.8071L75.94 45.1898C75.6664 45.2631 75.5041 45.5443 75.5774 45.8179L75.96 47.2459C76.0333 47.5195 76.3145 47.6819 76.5881 47.6086Z" fill="#4A4A4A"/>
<path d="M73.7215 48.3768L75.1496 47.9941C75.4232 47.9208 75.5855 47.6396 75.5122 47.3661L75.1296 45.938C75.0563 45.6644 74.7751 45.5021 74.5015 45.5754L73.0734 45.958C72.7998 46.0313 72.6375 46.3125 72.7108 46.5861L73.0935 48.0142C73.1668 48.2877 73.448 48.4501 73.7215 48.3768Z" fill="#4A4A4A"/>
<path d="M70.855 49.1445L72.283 48.7619C72.5566 48.6886 72.719 48.4074 72.6457 48.1338L72.263 46.7057C72.1897 46.4321 71.9085 46.2698 71.6349 46.3431L70.2068 46.7257C69.9333 46.799 69.7709 47.0802 69.8442 47.3538L70.2269 48.7819C70.3002 49.0555 70.5814 49.2178 70.855 49.1445Z" fill="#4A4A4A"/>
<path d="M67.9884 49.9127L69.4165 49.5301C69.69 49.4568 69.8524 49.1756 69.7791 48.902L69.3964 47.4739C69.3231 47.2004 69.0419 47.038 68.7683 47.1113L67.3403 47.494C67.0667 47.5673 66.9043 47.8485 66.9776 48.122L67.3603 49.5501C67.4336 49.8237 67.7148 49.9861 67.9884 49.9127Z" fill="#4A4A4A"/>
<path d="M65.1218 50.681L66.5499 50.2983C66.8235 50.225 66.9858 49.9438 66.9125 49.6702L66.5298 48.2422C66.4565 47.9686 66.1753 47.8062 65.9018 47.8795L64.4737 48.2622C64.2001 48.3355 64.0378 48.6167 64.1111 48.8903L64.4937 50.3184C64.567 50.5919 64.8482 50.7543 65.1218 50.681Z" fill="#4A4A4A"/>
<path d="M62.2552 51.4492L63.6832 51.0666C63.9568 50.9933 64.1192 50.7121 64.0459 50.4385L63.6632 49.0104C63.5899 48.7368 63.3087 48.5745 63.0351 48.6478L61.607 49.0304C61.3335 49.1037 61.1711 49.3849 61.2444 49.6585L61.6271 51.0866C61.7004 51.3602 61.9816 51.5225 62.2552 51.4492Z" fill="#4A4A4A"/>
<path d="M59.3885 52.217L60.8166 51.8344C61.0902 51.7611 61.2525 51.4799 61.1792 51.2063L60.7966 49.7782C60.7233 49.5046 60.4421 49.3423 60.1685 49.4156L58.7404 49.7983C58.4668 49.8716 58.3045 50.1528 58.3778 50.4263L58.7604 51.8544C58.8337 52.128 59.1149 52.2903 59.3885 52.217Z" fill="#4A4A4A"/>
<path d="M56.5219 52.9851L57.95 52.6025C58.2236 52.5292 58.3859 52.248 58.3126 51.9744L57.93 50.5463C57.8567 50.2727 57.5755 50.1104 57.3019 50.1837L55.8738 50.5664C55.6003 50.6397 55.4379 50.9209 55.5112 51.1944L55.8939 52.6225C55.9672 52.8961 56.2484 53.0584 56.5219 52.9851Z" fill="#4A4A4A"/>
<path d="M53.6559 53.7529L55.084 53.3702C55.3576 53.2969 55.5199 53.0157 55.4466 52.7422L55.064 51.3141C54.9907 51.0405 54.7095 50.8782 54.4359 50.9515L53.0078 51.3341C52.7342 51.4074 52.5719 51.6886 52.6452 51.9622L53.0278 53.3903C53.1011 53.6638 53.3823 53.8262 53.6559 53.7529Z" fill="#4A4A4A"/>
<path d="M88.0542 44.5361L89.4823 44.1534C89.7559 44.0801 89.9182 43.7989 89.8449 43.5254L89.4623 42.0973C89.389 41.8237 89.1078 41.6613 88.8342 41.7346L87.4061 42.1173C87.1325 42.1906 86.9702 42.4718 87.0435 42.7454L87.4262 44.1735C87.4995 44.447 87.7807 44.6094 88.0542 44.5361Z" fill="#4A4A4A"/>
<path d="M85.1879 45.3044L86.616 44.9217C86.8896 44.8484 87.0519 44.5672 86.9786 44.2936L86.5959 42.8656C86.5226 42.592 86.2414 42.4296 85.9679 42.5029L84.5398 42.8856C84.2662 42.9589 84.1039 43.2401 84.1772 43.5137L84.5598 44.9418C84.6331 45.2153 84.9143 45.3777 85.1879 45.3044Z" fill="#4A4A4A"/>
<path d="M82.3213 46.0721L83.7493 45.6894C84.0229 45.6161 84.1853 45.3349 84.112 45.0614L83.7293 43.6333C83.656 43.3597 83.3748 43.1974 83.1012 43.2707L81.6732 43.6533C81.3996 43.7266 81.2372 44.0078 81.3105 44.2814L81.6932 45.7095C81.7665 45.9831 82.0477 46.1454 82.3213 46.0721Z" fill="#4A4A4A"/>
<path d="M79.4547 46.8403L80.8828 46.4577C81.1563 46.3844 81.3187 46.1032 81.2454 45.8296L80.8627 44.4015C80.7894 44.1279 80.5082 43.9656 80.2347 44.0389L78.8066 44.4216C78.533 44.4949 78.3706 44.7761 78.444 45.0496L78.8266 46.4777C78.8999 46.7513 79.1811 46.9136 79.4547 46.8403Z" fill="#4A4A4A"/>
<path d="M76.5881 47.6086L78.0162 47.2259C78.2898 47.1526 78.4521 46.8714 78.3788 46.5978L77.9962 45.1697C77.9229 44.8962 77.6417 44.7338 77.3681 44.8071L75.94 45.1898C75.6664 45.2631 75.5041 45.5443 75.5774 45.8179L75.96 47.2459C76.0333 47.5195 76.3145 47.6819 76.5881 47.6086Z" fill="#4A4A4A"/>
<path d="M73.7215 48.3768L75.1496 47.9941C75.4232 47.9208 75.5855 47.6396 75.5122 47.3661L75.1296 45.938C75.0563 45.6644 74.7751 45.5021 74.5015 45.5754L73.0734 45.958C72.7998 46.0313 72.6375 46.3125 72.7108 46.5861L73.0935 48.0142C73.1668 48.2877 73.448 48.4501 73.7215 48.3768Z" fill="#4A4A4A"/>
<path d="M70.855 49.1445L72.283 48.7619C72.5566 48.6886 72.719 48.4074 72.6457 48.1338L72.263 46.7057C72.1897 46.4321 71.9085 46.2698 71.6349 46.3431L70.2068 46.7257C69.9333 46.799 69.7709 47.0802 69.8442 47.3538L70.2269 48.7819C70.3002 49.0555 70.5814 49.2178 70.855 49.1445Z" fill="#4A4A4A"/>
<path d="M67.9884 49.9127L69.4165 49.5301C69.69 49.4568 69.8524 49.1756 69.7791 48.902L69.3964 47.4739C69.3231 47.2004 69.0419 47.038 68.7683 47.1113L67.3403 47.494C67.0667 47.5673 66.9043 47.8485 66.9776 48.122L67.3603 49.5501C67.4336 49.8237 67.7148 49.9861 67.9884 49.9127Z" fill="#4A4A4A"/>
<path d="M65.1218 50.681L66.5499 50.2983C66.8235 50.225 66.9858 49.9438 66.9125 49.6702L66.5298 48.2422C66.4565 47.9686 66.1753 47.8062 65.9018 47.8795L64.4737 48.2622C64.2001 48.3355 64.0378 48.6167 64.1111 48.8903L64.4937 50.3184C64.567 50.5919 64.8482 50.7543 65.1218 50.681Z" fill="#4A4A4A"/>
<path d="M62.2552 51.4492L63.6832 51.0666C63.9568 50.9933 64.1192 50.7121 64.0459 50.4385L63.6632 49.0104C63.5899 48.7368 63.3087 48.5745 63.0351 48.6478L61.607 49.0304C61.3335 49.1037 61.1711 49.3849 61.2444 49.6585L61.6271 51.0866C61.7004 51.3602 61.9816 51.5225 62.2552 51.4492Z" fill="#4A4A4A"/>
<path d="M59.3885 52.217L60.8166 51.8344C61.0902 51.7611 61.2525 51.4799 61.1792 51.2063L60.7966 49.7782C60.7233 49.5046 60.4421 49.3423 60.1685 49.4156L58.7404 49.7983C58.4668 49.8716 58.3045 50.1528 58.3778 50.4263L58.7604 51.8544C58.8337 52.128 59.1149 52.2903 59.3885 52.217Z" fill="#4A4A4A"/>
<path d="M56.5219 52.9851L57.95 52.6025C58.2236 52.5292 58.3859 52.248 58.3126 51.9744L57.93 50.5463C57.8567 50.2727 57.5755 50.1104 57.3019 50.1837L55.8738 50.5664C55.6003 50.6397 55.4379 50.9209 55.5112 51.1944L55.8939 52.6225C55.9672 52.8961 56.2484 53.0584 56.5219 52.9851Z" fill="#4A4A4A"/>
<path d="M53.6559 53.7529L55.084 53.3702C55.3576 53.2969 55.5199 53.0157 55.4466 52.7422L55.064 51.3141C54.9907 51.0405 54.7095 50.8782 54.4359 50.9515L53.0078 51.3341C52.7342 51.4074 52.5719 51.6886 52.6452 51.9622L53.0278 53.3903C53.1011 53.6638 53.3823 53.8262 53.6559 53.7529Z" fill="#4A4A4A"/>
<path fill-rule="evenodd" clip-rule="evenodd" d="M54.5108 56.9432L57.8197 56.0565C57.9511 56.0213 58.0911 56.0398 58.2088 56.1078C58.3266 56.1758 58.4126 56.2878 58.4478 56.4192L58.8304 57.8472C58.8656 57.9786 58.8472 58.1186 58.7792 58.2364C58.7112 58.3542 58.5992 58.4401 58.4678 58.4753L55.1589 59.3619C55.0275 59.3971 54.8875 59.3787 54.7698 59.3107C54.652 59.2427 54.566 59.1307 54.5308 58.9993L54.1483 57.5717C54.1131 57.4404 54.1315 57.3004 54.1995 57.1826C54.2675 57.0648 54.3795 56.9789 54.5109 56.9437L54.5108 56.9432Z" fill="#4A4A4A"/>
<path d="M60.776 55.264L59.3479 55.6466C59.0744 55.7199 58.912 56.0011 58.9853 56.2747L59.368 57.7028C59.4413 57.9764 59.7225 58.1387 59.9961 58.0654L61.4241 57.6827C61.6977 57.6094 61.8601 57.3282 61.7868 57.0547L61.4041 55.6266C61.3308 55.353 61.0496 55.1907 60.776 55.264Z" fill="#4A4A4A"/>
<path d="M63.6425 54.4956L62.2145 54.8782C61.9409 54.9516 61.7785 55.2327 61.8518 55.5063L62.2345 56.9344C62.3078 57.208 62.589 57.3703 62.8626 57.297L64.2907 56.9144C64.5642 56.8411 64.7266 56.5599 64.6533 56.2863L64.2706 54.8582C64.1973 54.5846 63.9161 54.4223 63.6425 54.4956Z" fill="#4A4A4A"/>
<path d="M66.5091 53.7279L65.081 54.1105C64.8075 54.1838 64.6451 54.465 64.7184 54.7386L65.1011 56.1667C65.1744 56.4402 65.4556 56.6026 65.7291 56.5293L67.1572 56.1466C67.4308 56.0733 67.5932 55.7921 67.5199 55.5186L67.1372 54.0905C67.0639 53.8169 66.7827 53.6546 66.5091 53.7279Z" fill="#4A4A4A"/>
<path d="M69.3757 52.9595L67.9476 53.3422C67.674 53.4155 67.5117 53.6967 67.585 53.9703L67.9677 55.3983C68.041 55.6719 68.3222 55.8343 68.5957 55.761L70.0238 55.3783C70.2974 55.305 70.4597 55.0238 70.3864 54.7502L70.0038 53.3221C69.9305 53.0486 69.6493 52.8862 69.3757 52.9595Z" fill="#4A4A4A"/>
<path d="M72.2423 52.1914L70.8142 52.5741C70.5406 52.6474 70.3783 52.9286 70.4516 53.2022L70.8342 54.6302C70.9075 54.9038 71.1887 55.0662 71.4623 54.9929L72.8904 54.6102C73.164 54.5369 73.3263 54.2557 73.253 53.9821L72.8704 52.554C72.797 52.2805 72.5159 52.1181 72.2423 52.1914Z" fill="#4A4A4A"/>
<path d="M75.1089 51.4232L73.6808 51.8058C73.4072 51.8791 73.2448 52.1603 73.3182 52.4339L73.7008 53.862C73.7741 54.1356 74.0553 54.2979 74.3289 54.2246L75.757 53.842C76.0305 53.7687 76.1929 53.4875 76.1196 53.2139L75.7369 51.7858C75.6636 51.5122 75.3824 51.3499 75.1089 51.4232Z" fill="#4A4A4A"/>
<path d="M77.9754 50.6554L76.5473 51.0381C76.2738 51.1114 76.1114 51.3926 76.1847 51.6662L76.5674 53.0943C76.6407 53.3678 76.9219 53.5302 77.1955 53.4569L78.6235 53.0742C78.8971 53.0009 79.0595 52.7197 78.9862 52.4462L78.6035 51.0181C78.5302 50.7445 78.249 50.5821 77.9754 50.6554Z" fill="#4A4A4A"/>
<path d="M80.8415 49.8873L79.4134 50.2699C79.1399 50.3432 78.9775 50.6244 79.0508 50.898L79.4335 52.3261C79.5068 52.5997 79.788 52.762 80.0615 52.6887L81.4896 52.3061C81.7632 52.2327 81.9256 51.9516 81.8522 51.678L81.4696 50.2499C81.3963 49.9763 81.1151 49.814 80.8415 49.8873Z" fill="#4A4A4A"/>
<path d="M83.7082 49.119L82.2801 49.5016C82.0065 49.5749 81.8442 49.8561 81.9175 50.1297L82.3001 51.5578C82.3734 51.8314 82.6546 51.9937 82.9282 51.9204L84.3563 51.5378C84.6298 51.4645 84.7922 51.1833 84.7189 50.9097L84.3362 49.4816C84.2629 49.208 83.9817 49.0457 83.7082 49.119Z" fill="#4A4A4A"/>
<path d="M86.5745 48.3513L85.1464 48.7339C84.8728 48.8072 84.7105 49.0884 84.7838 49.362L85.1664 50.7901C85.2397 51.0636 85.5209 51.226 85.7945 51.1527L87.2226 50.77C87.4962 50.6967 87.6585 50.4155 87.5852 50.142L87.2026 48.7139C87.1293 48.4403 86.8481 48.278 86.5745 48.3513Z" fill="#4A4A4A"/>
<path d="M89.4411 47.583L88.013 47.9657C87.7394 48.039 87.5771 48.3202 87.6504 48.5938L88.033 50.0218C88.1063 50.2954 88.3875 50.4578 88.6611 50.3845L90.0892 50.0018C90.3628 49.9285 90.5251 49.6473 90.4518 49.3737L90.0691 47.9457C89.9958 47.6721 89.7146 47.5097 89.4411 47.583Z" fill="#4A4A4A"/>
<path fill-rule="evenodd" clip-rule="evenodd" d="M90.9697 47.1738L94.0993 46.3353C94.2307 46.3001 94.3707 46.3185 94.4885 46.3865C94.6062 46.4545 94.6922 46.5665 94.7274 46.6979L95.11 48.126C95.1452 48.2573 95.1268 48.3973 95.0588 48.5151C94.9908 48.6329 94.8788 48.7188 94.7474 48.754L91.6173 49.5928C91.486 49.628 91.346 49.6095 91.2282 49.5415C91.1104 49.4735 91.0245 49.3615 90.9893 49.2301L90.6067 47.8025C90.5715 47.6712 90.59 47.5312 90.658 47.4134C90.726 47.2956 90.838 47.2097 90.9694 47.1745L90.9697 47.1738Z" fill="#4A4A4A"/>
<path d="M57.5232 62.4732L56.0951 62.8559C55.8215 62.9292 55.6592 63.2104 55.7325 63.4839L56.1151 64.912C56.1884 65.1856 56.4696 65.3479 56.7432 65.2746L58.1713 64.892C58.4448 64.8187 58.6072 64.5375 58.5339 64.2639L58.1512 62.8358C58.0779 62.5623 57.7967 62.3999 57.5232 62.4732Z" fill="#4A4A4A"/>
<path d="M60.3897 61.7048L58.9617 62.0875C58.6881 62.1608 58.5257 62.442 58.599 62.7156L58.9817 64.1437C59.055 64.4172 59.3362 64.5796 59.6098 64.5063L61.0378 64.1236C61.3114 64.0503 61.4738 63.7691 61.4005 63.4955L61.0178 62.0675C60.9445 61.7939 60.6633 61.6315 60.3897 61.7048Z" fill="#4A4A4A"/>
<path d="M63.2563 60.9371L61.8282 61.3198C61.5547 61.3931 61.3923 61.6743 61.4656 61.9478L61.8483 63.3759C61.9216 63.6495 62.2028 63.8118 62.4763 63.7385L63.9044 63.3559C64.178 63.2826 64.3403 63.0014 64.267 62.7278L63.8844 61.2997C63.8111 61.0262 63.5299 60.8638 63.2563 60.9371Z" fill="#4A4A4A"/>
<path d="M66.1228 60.1688L64.6947 60.5514C64.4212 60.6247 64.2588 60.9059 64.3321 61.1795L64.7148 62.6076C64.7881 62.8812 65.0693 63.0435 65.3429 62.9702L66.7709 62.5876C67.0445 62.5143 67.2069 62.2331 67.1336 61.9595L66.7509 60.5314C66.6776 60.2578 66.3964 60.0955 66.1228 60.1688Z" fill="#4A4A4A"/>
<path fill-rule="evenodd" clip-rule="evenodd" d="M67.5609 59.7833L81.3513 56.0882C81.4827 56.053 81.6227 56.0714 81.7405 56.1394C81.8583 56.2074 81.9442 56.3194 81.9794 56.4508L82.3622 57.8794C82.3974 58.0107 82.379 58.1507 82.311 58.2685C82.243 58.3863 82.131 58.4722 81.9996 58.5074L68.2091 62.2026C68.0778 62.2378 67.9378 62.2194 67.82 62.1514C67.7022 62.0833 67.6163 61.9713 67.5811 61.84L67.1983 60.4114C67.1631 60.28 67.1815 60.14 67.2495 60.0222C67.3175 59.9045 67.4295 59.8185 67.5609 59.7833ZM82.7893 55.7029L84.5761 55.2241C84.7074 55.1889 84.8474 55.2073 84.9652 55.2753C85.083 55.3433 85.1689 55.4554 85.2041 55.5867L85.5869 57.0153C85.6221 57.1467 85.6037 57.2867 85.5357 57.4044C85.4677 57.5222 85.3557 57.6082 85.2243 57.6434L83.4376 58.1221C83.3062 58.1573 83.1662 58.1389 83.0484 58.0709C82.9307 58.0029 82.8447 57.8909 82.8095 57.7595L82.4267 56.3309C82.3915 56.1996 82.4099 56.0596 82.478 55.9418C82.546 55.824 82.658 55.7381 82.7893 55.7029Z" fill="#4A4A4A"/>
<path d="M87.4426 54.4562L86.0145 54.8388C85.7409 54.9121 85.5786 55.1933 85.6519 55.4669L86.0345 56.895C86.1079 57.1686 86.389 57.3309 86.6626 57.2576L88.0907 56.875C88.3643 56.8017 88.5266 56.5205 88.4533 56.2469L88.0707 54.8188C87.9974 54.5452 87.7162 54.3829 87.4426 54.4562Z" fill="#4A4A4A"/>
<path d="M90.3091 53.6881L88.881 54.0707C88.6075 54.144 88.4451 54.4252 88.5184 54.6988L88.9011 56.1269C88.9744 56.4005 89.2556 56.5628 89.5291 56.4895L90.9572 56.1069C91.2308 56.0336 91.3931 55.7524 91.3198 55.4788L90.9372 54.0507C90.8639 53.7771 90.5827 53.6148 90.3091 53.6881Z" fill="#4A4A4A"/>
<path d="M95.6837 52.2482L94.2556 52.6309C93.982 52.7042 93.8197 52.9854 93.893 53.2589L94.2756 54.687C94.3489 54.9606 94.6301 55.1229 94.9037 55.0496L96.3318 54.667C96.6054 54.5937 96.7677 54.3125 96.6944 54.0389L96.3118 52.6108C96.2385 52.3373 95.9573 52.1749 95.6837 52.2482Z" fill="#4A4A4A"/>
<path d="M91.3486 54.5139L91.2052 53.9789C91.17 53.8475 91.1884 53.7076 91.2564 53.5898C91.3244 53.472 91.4365 53.386 91.5678 53.3508L92.9959 52.9682C93.1273 52.933 93.2673 52.9514 93.3851 53.0194C93.5028 53.0874 93.5888 53.1994 93.624 53.3308L93.7673 53.8658L91.3486 54.5139Z" fill="#4A4A4A"/>
<path d="M93.8638 54.2238L94.0071 54.7587C94.0423 54.8901 94.0239 55.0301 93.9559 55.1479C93.8879 55.2657 93.7759 55.3516 93.6445 55.3868L92.2164 55.7695C92.0851 55.8047 91.9451 55.7862 91.8273 55.7182C91.7095 55.6502 91.6236 55.5382 91.5884 55.4069L91.445 54.8719L93.8638 54.2238Z" fill="#4A4A4A"/>
<path d="M92.0953 39.384L52.8594 49.8972C52.5626 49.9768 52.3864 50.2819 52.466 50.5787C52.5455 50.8755 52.8506 51.0517 53.1474 50.9721L92.3833 40.4589C92.6802 40.3794 92.8563 40.0743 92.7768 39.7774C92.6972 39.4806 92.3921 39.3045 92.0953 39.384Z" fill="#4A4A4A"/>
<path opacity="0.136" d="M55.258 49.4469L53.714 49.8606C53.5162 49.9136 53.3988 50.1169 53.4518 50.3147L53.4519 50.3152C53.5049 50.513 53.7082 50.6304 53.906 50.5774L55.45 50.1637C55.6478 50.1107 55.7652 49.9074 55.7122 49.7096L55.7121 49.7091C55.6591 49.5113 55.4558 49.3939 55.258 49.4469Z" fill="#D8D8D8"/>
<path opacity="0.136" d="M58.3509 48.6182L56.8069 49.0319C56.6091 49.0849 56.4917 49.2882 56.5447 49.486L56.5448 49.4865C56.5978 49.6843 56.8011 49.8017 56.9989 49.7487L58.5429 49.3349C58.7407 49.2819 58.8581 49.0786 58.8051 48.8808L58.805 48.8803C58.752 48.6826 58.5487 48.5652 58.3509 48.6182Z" fill="#D8D8D8"/>
<path opacity="0.136" d="M60.7305 47.9806L59.1865 48.3943C58.9887 48.4473 58.8713 48.6506 58.9243 48.8484L58.9245 48.8489C58.9775 49.0467 59.1808 49.164 59.3786 49.111L60.9226 48.6973C61.1204 48.6443 61.2377 48.441 61.1847 48.2432L61.1846 48.2427C61.1316 48.0449 60.9283 47.9276 60.7305 47.9806Z" fill="#D8D8D8"/>
<path opacity="0.136" d="M63.1097 47.3431L61.5657 47.7568C61.3679 47.8098 61.2505 48.0131 61.3035 48.2109L61.3036 48.2114C61.3566 48.4092 61.5599 48.5265 61.7577 48.4735L63.3017 48.0598C63.4995 48.0068 63.6169 47.8035 63.5639 47.6057L63.5637 47.6052C63.5107 47.4074 63.3074 47.2901 63.1097 47.3431Z" fill="#D8D8D8"/>
<path opacity="0.136" d="M65.4893 46.7054L63.9453 47.1191C63.7475 47.1721 63.6301 47.3755 63.6831 47.5732L63.6833 47.5737C63.7363 47.7715 63.9396 47.8889 64.1374 47.8359L65.6813 47.4222C65.8791 47.3692 65.9965 47.1659 65.9435 46.9681L65.9434 46.9676C65.8904 46.7698 65.6871 46.6524 65.4893 46.7054Z" fill="#D8D8D8"/>
<path opacity="0.136" d="M68.4633 45.9088L66.9194 46.3225C66.7216 46.3755 66.6042 46.5788 66.6572 46.7766L66.6573 46.7771C66.7103 46.9749 66.9136 47.0922 67.1114 47.0392L68.6554 46.6255C68.8532 46.5725 68.9706 46.3692 68.9176 46.1714L68.9174 46.1709C68.8644 45.9731 68.6611 45.8558 68.4633 45.9088Z" fill="#D8D8D8"/>
<path opacity="0.136" d="M70.8424 45.2712L69.2984 45.685C69.1007 45.738 68.9833 45.9413 69.0363 46.1391L69.0364 46.1396C69.0894 46.3373 69.2927 46.4547 69.4905 46.4017L71.0345 45.988C71.2323 45.935 71.3497 45.7317 71.2967 45.5339L71.2965 45.5334C71.2435 45.3356 71.0402 45.2182 70.8424 45.2712Z" fill="#D8D8D8"/>
<path opacity="0.136" d="M73.2222 44.6332L71.6782 45.0469C71.4804 45.0999 71.363 45.3032 71.416 45.501L71.4162 45.5015C71.4692 45.6993 71.6725 45.8167 71.8703 45.7637L73.4143 45.35C73.612 45.297 73.7294 45.0937 73.6764 44.8959L73.6763 44.8954C73.6233 44.6976 73.42 44.5802 73.2222 44.6332Z" fill="#D8D8D8"/>
<path opacity="0.136" d="M75.6013 43.9957L74.0573 44.4094C73.8595 44.4624 73.7421 44.6657 73.7951 44.8635L73.7953 44.864C73.8483 45.0618 74.0516 45.1792 74.2494 45.1262L75.7933 44.7125C75.9911 44.6595 76.1085 44.4562 76.0555 44.2584L76.0554 44.2579C76.0024 44.0601 75.7991 43.9427 75.6013 43.9957Z" fill="#D8D8D8"/>
<path opacity="0.136" d="M78.5759 43.1989L77.0319 43.6126C76.8341 43.6656 76.7167 43.8689 76.7697 44.0667L76.7699 44.0672C76.8229 44.265 77.0262 44.3824 77.224 44.3294L78.768 43.9157C78.9657 43.8627 79.0831 43.6594 79.0301 43.4616L79.03 43.4611C78.977 43.2633 78.7737 43.1459 78.5759 43.1989Z" fill="#D8D8D8"/>
<path opacity="0.136" d="M80.955 42.5614L79.4111 42.9751C79.2133 43.0281 79.0959 43.2314 79.1489 43.4292L79.149 43.4297C79.202 43.6275 79.4053 43.7449 79.6031 43.6919L81.1471 43.2782C81.3449 43.2252 81.4623 43.0219 81.4093 42.8241L81.4091 42.8236C81.3561 42.6258 81.1528 42.5084 80.955 42.5614Z" fill="#D8D8D8"/>
<path opacity="0.136" d="M83.3347 41.9238L81.7907 42.3375C81.5929 42.3905 81.4755 42.5938 81.5285 42.7916L81.5287 42.7921C81.5816 42.9899 81.785 43.1073 81.9827 43.0543L83.5267 42.6406C83.7245 42.5876 83.8419 42.3842 83.7889 42.1865L83.7888 42.186C83.7358 41.9882 83.5325 41.8708 83.3347 41.9238Z" fill="#D8D8D8"/>
<path opacity="0.136" d="M86.3086 41.1271L84.7646 41.5408C84.5668 41.5938 84.4495 41.7971 84.5025 41.9949L84.5026 41.9954C84.5556 42.1932 84.7589 42.3106 84.9567 42.2576L86.5007 41.8439C86.6985 41.7909 86.8159 41.5876 86.7629 41.3898L86.7627 41.3893C86.7097 41.1915 86.5064 41.0741 86.3086 41.1271Z" fill="#D8D8D8"/>
<path opacity="0.136" d="M88.688 40.4896L87.144 40.9033C86.9462 40.9563 86.8288 41.1596 86.8818 41.3574L86.8819 41.3579C86.9349 41.5557 87.1382 41.6731 87.336 41.6201L88.88 41.2064C89.0778 41.1534 89.1952 40.9501 89.1422 40.7523L89.1421 40.7518C89.0891 40.554 88.8857 40.4366 88.688 40.4896Z" fill="#D8D8D8"/>
<path opacity="0.136" d="M91.0675 39.8516L89.5235 40.2653C89.3258 40.3183 89.2084 40.5216 89.2614 40.7194L89.2615 40.7199C89.3145 40.9177 89.5178 41.0351 89.7156 40.9821L91.2596 40.5683C91.4574 40.5153 91.5748 40.312 91.5218 40.1142L91.5216 40.1137C91.4686 39.916 91.2653 39.7986 91.0675 39.8516Z" fill="#D8D8D8"/>
<path fill-rule="evenodd" clip-rule="evenodd" d="M71.7949 79.1907C71.6826 79.1907 71.5754 79.2096 71.4672 79.2235C71.4477 79.1465 71.4292 79.0691 71.4077 78.9922C71.9542 78.7637 72.4047 78.3531 72.6827 77.83C72.9607 77.307 73.0491 76.7039 72.9328 76.1231C72.8165 75.5423 72.5027 75.0197 72.0447 74.644C71.5867 74.2684 71.0128 74.0629 70.4205 74.0624C69.8605 74.0645 69.3169 74.2512 68.8738 74.5937C68.8171 74.5358 68.7598 74.4783 68.702 74.4214C69.0371 73.9809 69.2191 73.4431 69.2205 72.8896C69.2202 72.2989 69.0158 71.7263 68.642 71.2688C68.2683 70.8113 67.748 70.4969 67.1691 70.3788C66.5903 70.2607 65.9884 70.3461 65.4653 70.6205C64.9421 70.8949 64.5298 71.3416 64.2979 71.885C64.222 71.8635 64.1456 71.8455 64.0697 71.826C64.0836 71.7178 64.1026 71.6107 64.1026 71.4983C64.1026 70.8183 63.8324 70.1661 63.3516 69.6852C62.8707 69.2044 62.2185 68.9342 61.5385 68.9342C60.8584 68.9342 60.2062 69.2044 59.7254 69.6852C59.2445 70.1661 58.9744 70.8183 58.9744 71.4983C58.9744 71.6107 58.9933 71.7178 59.0072 71.826C58.9313 71.8455 58.8549 71.8635 58.779 71.885C58.548 71.3406 58.1358 70.8928 57.6124 70.6175C57.0889 70.3423 56.4864 70.2565 55.907 70.3748C55.3275 70.493 54.8068 70.808 54.433 71.2664C54.0593 71.7247 53.8556 72.2982 53.8564 72.8896C53.8564 73.4665 54.0533 73.9927 54.3749 74.4214C52.4687 76.284 51.282 78.8794 51.282 81.7548C51.282 87.4194 55.8738 92.0112 61.5385 92.0112C66.3277 92.0112 70.3385 88.724 71.4672 84.286C71.5754 84.2999 71.6826 84.3189 71.7949 84.3189C72.4749 84.3189 73.1271 84.0487 73.608 83.5679C74.0888 83.087 74.359 82.4348 74.359 81.7548C74.359 81.0747 74.0888 80.4225 73.608 79.9417C73.1271 79.4608 72.4749 79.1907 71.7949 79.1907Z" fill="#44D860"/>
<path fill-rule="evenodd" clip-rule="evenodd" d="M41.0256 61.2419H61.5385V50.9855H41.0256V61.2419Z" fill="#3ECC5F"/>
<path fill-rule="evenodd" clip-rule="evenodd" d="M66.6667 57.3961C67.0067 57.3961 67.3328 57.261 67.5732 57.0206C67.8137 56.7802 67.9487 56.4541 67.9487 56.1141C67.9487 55.774 67.8137 55.4479 67.5732 55.2075C67.3328 54.9671 67.0067 54.832 66.6667 54.832C66.6108 54.832 66.5569 54.8417 66.5031 54.8484C66.4928 54.8099 66.4841 54.7715 66.4734 54.733C66.7463 54.6185 66.9711 54.413 67.1098 54.1516C67.2486 53.8901 67.2926 53.5887 67.2344 53.2985C67.1763 53.0083 67.0196 52.7472 66.7909 52.5593C66.5621 52.3715 66.2755 52.2685 65.9795 52.2679C65.6877 52.2679 65.4216 52.3689 65.2062 52.5335C65.178 52.5043 65.1492 52.4756 65.12 52.4474C65.281 52.2335 65.3795 51.97 65.3795 51.6812C65.3794 51.3858 65.2773 51.0994 65.0903 50.8706C64.9034 50.6417 64.6432 50.4845 64.3537 50.4254C64.0642 50.3664 63.7631 50.4092 63.5015 50.5465C63.2399 50.6839 63.0338 50.9073 62.918 51.1792C62.4691 51.0522 62.005 50.9872 61.5385 50.9858C58.7067 50.9858 56.4103 53.2823 56.4103 56.1141C56.4103 58.9458 58.7067 61.2423 61.5385 61.2423C62.0175 61.2423 62.4785 61.1715 62.918 61.0489C63.0338 61.3208 63.2399 61.5442 63.5015 61.6816C63.7631 61.8189 64.0642 61.8617 64.3537 61.8027C64.6432 61.7436 64.9034 61.5864 65.0903 61.3575C65.2773 61.1287 65.3794 60.8423 65.3795 60.5469C65.3795 60.2582 65.281 59.9946 65.12 59.7807C65.1493 59.7525 65.178 59.7238 65.2062 59.6946C65.4216 59.8592 65.6877 59.9602 65.9795 59.9602C66.2758 59.9602 66.5629 59.8575 66.7921 59.6697C67.0212 59.4819 67.1783 59.2205 67.2365 58.93C67.2947 58.6395 67.2505 58.3378 67.1113 58.0762C66.9722 57.8146 66.7468 57.6092 66.4734 57.4951C66.4841 57.4571 66.4928 57.4182 66.5031 57.3797C66.5569 57.3864 66.6108 57.3961 66.6667 57.3961Z" fill="#44D860"/>
<path fill-rule="evenodd" clip-rule="evenodd" d="M71.7949 19.5755C71.7128 19.5755 71.6256 19.5653 71.5436 19.5499C71.4611 19.5339 71.3804 19.5098 71.3026 19.4781C71.2256 19.4473 71.1538 19.4063 71.0815 19.3602C71.0149 19.314 70.9487 19.2576 70.8867 19.2012C70.8308 19.1397 70.7744 19.0781 70.7282 19.0063C70.682 18.9345 70.641 18.8627 70.6097 18.7858C70.5468 18.6292 70.5139 18.4622 70.5128 18.2935C70.5128 18.2114 70.5231 18.1243 70.5385 18.0422C70.5538 17.9602 70.5795 17.8832 70.6097 17.8012C70.641 17.7243 70.682 17.6525 70.7282 17.5807C70.7744 17.514 70.8308 17.4473 70.8867 17.3858C70.9487 17.3294 71.0149 17.273 71.0815 17.2268C71.1538 17.1807 71.2256 17.1396 71.3026 17.1089C71.379 17.0781 71.4615 17.0525 71.5436 17.0371C71.7077 17.0012 71.8769 17.0012 72.0462 17.0371C72.1277 17.0525 72.2103 17.0781 72.2872 17.1089C72.3636 17.1396 72.4359 17.1807 72.5077 17.2268C72.5744 17.273 72.6405 17.3294 72.7026 17.3858C72.759 17.4473 72.8154 17.514 72.8615 17.5807C72.9077 17.6525 72.9487 17.7243 72.9795 17.8012C73.0103 17.8832 73.0359 17.9602 73.0513 18.0422C73.0661 18.1243 73.0769 18.2114 73.0769 18.2935C73.0769 18.632 72.9379 18.9653 72.7026 19.2012C72.6405 19.2576 72.5744 19.314 72.5077 19.3602C72.4359 19.4063 72.3636 19.4473 72.2872 19.4781C72.1309 19.5419 71.9637 19.575 71.7949 19.5755ZM82.0513 18.9345C81.7128 18.9345 81.3846 18.7961 81.1431 18.5602C81.0861 18.4987 81.0332 18.4336 80.9846 18.3653C80.9385 18.2935 80.8974 18.2217 80.8661 18.1448C80.8032 17.9882 80.7703 17.8212 80.7692 17.6525C80.7692 17.314 80.9077 16.9858 81.1431 16.7448C81.2051 16.6884 81.2713 16.632 81.3379 16.5858C81.4102 16.5396 81.482 16.4986 81.559 16.4679C81.6354 16.4371 81.7179 16.4114 81.8 16.3961C81.9641 16.3602 82.1385 16.3602 82.3026 16.3961C82.3841 16.4114 82.4667 16.4371 82.5436 16.4679C82.62 16.4986 82.6923 16.5396 82.7641 16.5858C82.8308 16.632 82.8969 16.6884 82.959 16.7448C83.1944 16.9858 83.3333 17.314 83.3333 17.6525C83.3333 17.7345 83.3226 17.8217 83.3077 17.9038C83.2923 17.9858 83.2667 18.0679 83.2359 18.1448C83.2 18.2217 83.1641 18.2935 83.1179 18.3653C83.0718 18.432 83.0154 18.4986 82.959 18.5602C82.8969 18.6166 82.8308 18.673 82.7641 18.7191C82.6923 18.7653 82.62 18.8063 82.5436 18.8371C82.3873 18.9009 82.2201 18.9339 82.0513 18.9345Z" fill="black"/>
</svg>
