<svg width="100" height="100" viewBox="0 0 100 100" fill="none" xmlns="http://www.w3.org/2000/svg">
<path d="M0 50C0 22.3858 22.3858 0 50 0C77.6142 0 100 22.3858 100 50C100 77.6142 77.6142 100 50 100C22.3858 100 0 77.6142 0 50Z" fill="#F26798"/>
<path fill-rule="evenodd" clip-rule="evenodd" d="M76.6667 49.9631C76.6667 51.7665 76.4831 53.5674 76.1225 55.3229C75.7708 57.0366 75.25 58.7192 74.5677 60.3276C73.901 61.9075 73.0742 63.43 72.1079 64.8499C71.1561 66.2608 70.0597 67.5845 68.8552 68.7911C67.6481 69.9925 66.3199 71.0859 64.9097 72.0418C63.4851 73.0013 61.9604 73.8269 60.3795 74.4967C58.7688 75.1754 57.0824 75.6955 55.3701 76.0465C53.6123 76.4081 51.8048 76.5927 49.9988 76.5927C48.1914 76.5927 46.3841 76.4081 44.6288 76.0465C42.9139 75.6955 41.2276 75.1754 39.6181 74.4967C38.0373 73.8269 36.5111 73.0013 35.0866 72.0418C33.6764 71.086 32.3482 69.9925 31.1437 68.7911C29.9379 67.5845 28.8415 66.2608 27.8883 64.8499C26.9273 63.43 26.0991 61.9074 25.4298 60.3276C24.7474 58.7192 24.2253 57.0365 23.8724 55.3229C23.5157 53.5674 23.3333 51.7665 23.3333 49.9631C23.3333 48.1583 23.5156 46.3535 23.8726 44.6019C24.2254 42.8881 24.7475 41.203 25.4299 39.5972C26.0992 38.0161 26.9274 36.4922 27.8884 35.0723C28.8416 33.6602 29.938 32.3391 31.1438 31.1311C32.3483 29.9296 33.6765 28.8388 35.0867 27.8844C36.5112 26.9208 38.0374 26.0952 39.6182 25.4242C41.2277 24.7441 42.9139 24.2227 44.6289 23.8743C46.3842 23.5155 48.1915 23.3334 49.9989 23.3334C51.8049 23.3334 53.6123 23.5155 55.3702 23.8743C57.0825 24.2228 58.7688 24.7442 60.3796 25.4242C61.9604 26.0951 63.4852 26.9208 64.9098 27.8844C66.32 28.8388 67.6483 29.9296 68.8553 31.1311C70.0598 32.3391 71.1562 33.6602 72.1081 35.0723C73.0742 36.4922 73.901 38.0162 74.5677 39.5972C75.25 41.203 75.7708 42.8881 76.1225 44.6019C76.4831 46.3535 76.6667 48.1583 76.6667 49.9631ZM40.2821 29.394C33.9315 32.3886 29.1917 38.232 27.7137 45.2743L27.7356 45.2745C28.5139 45.2817 37.9192 45.3686 48.7383 42.4981C44.7967 35.5052 40.5856 29.7985 40.2821 29.394ZM27.2437 49.2376C27.6473 49.2531 38.8993 49.5053 50.6251 45.9999C51.2774 47.2768 51.9013 48.5719 52.4728 49.8643C52.1734 49.95 51.8712 50.0385 51.5744 50.1373C39.2847 54.1057 33.0525 65.1463 33.0604 65.1581C29.4326 61.131 27.2254 55.8051 27.2254 49.9631C27.2254 49.7944 27.231 49.6295 27.2366 49.4632C27.2391 49.3885 27.2416 49.3134 27.2437 49.2376ZM65.0387 32.8956C61.0293 29.3653 55.7647 27.2239 49.9988 27.2239C48.1484 27.2239 46.3527 27.4476 44.6326 27.861L44.6696 27.9106L44.6697 27.9106L44.6697 27.9107C45.2092 28.6322 49.3587 34.1821 53.1461 41.1263C61.6687 37.9358 64.9291 33.0594 65.0366 32.8987L65.0387 32.8956ZM53.9973 53.6414C54.0065 53.6385 54.0158 53.6355 54.025 53.6324C57.2296 61.949 58.5525 68.9132 58.8898 70.9001C56.1566 72.061 53.1525 72.7022 49.9988 72.7022C44.7173 72.7022 39.8681 70.8909 36.0019 67.8886C36.0494 67.7857 40.4373 58.3593 53.874 53.6818C53.9055 53.6703 53.9375 53.6602 53.9697 53.6501C53.9789 53.6472 53.9881 53.6443 53.9973 53.6414ZM62.7248 68.8222C67.8382 65.3766 71.4699 59.905 72.483 53.5673C72.0142 53.4165 65.6428 51.4023 58.2921 52.5791C61.2792 60.7761 62.4929 67.4518 62.7248 68.8222ZM56.4119 47.8124C55.9393 46.7031 55.4274 45.5994 54.8988 44.5149C63.8327 40.8715 67.4958 35.6454 67.5845 35.5188L67.5858 35.517C70.7811 39.3904 72.7123 44.338 72.7644 49.7289C72.7581 49.7276 72.749 49.7257 72.7374 49.7233C72.1396 49.599 64.5776 48.0262 56.9041 48.9904C56.744 48.6004 56.5799 48.2103 56.4119 47.8124Z" fill="white"/>
</svg>
