<svg width="100" height="100" viewBox="0 0 100 100" fill="none" xmlns="http://www.w3.org/2000/svg">
<path d="M0 50C0 22.3858 22.3858 0 50 0C77.6142 0 100 22.3858 100 50C100 77.6142 77.6142 100 50 100C22.3858 100 0 77.6142 0 50Z" fill="#2E2882"/>
<path fill-rule="evenodd" clip-rule="evenodd" d="M81.6667 33.3682L69.1237 43.2914L50.8333 32.1335L63.5267 21.6666L81.6667 33.3682ZM38.14 21.6667L50.8328 32.1335L32.543 43.2914L32.543 43.2913L32.543 43.2914L20 33.3682L38.14 21.6667ZM32.543 43.2914L32.543 43.2914L50.8331 54.4497L69.124 43.2917L81.6664 53.2155L63.5265 64.9171L50.8333 54.4498L38.14 64.9173L20 53.2157L32.543 43.2914ZM63.601 67.1382L50.8706 56.7016L38.1403 67.1382L32.6925 63.6243V67.5636L50.8706 78.3333L69.0488 67.5636V63.6243L63.601 67.1382Z" fill="#FEB0A5"/>
</svg>
