<svg width="100" height="100" viewBox="0 0 100 100" fill="none" xmlns="http://www.w3.org/2000/svg">
<path d="M54.8237 33.2793C53.154 31.6095 51.3822 29.8192 49.8098 28.0334C48.3395 29.7032 46.7857 31.2245 45.2319 32.7783C44.8562 33.1494 44.5501 33.5854 44.3275 34.0631C43.9842 34.8145 43.8729 35.654 44.0121 36.4704C44.0121 36.5539 44.0121 36.6373 44.0121 36.7208C44.1558 37.1707 44.3692 37.5928 44.6475 37.9732C44.6939 38.0381 44.731 38.103 44.7634 38.1726C45.7839 39.4435 48.205 41.7811 49.5594 43.0845L57.5835 51.4425L59.9907 53.9843C61.9759 56.0437 63.7662 58.2793 65.3386 60.668V60.668C65.5288 60.9973 65.8302 61.2385 66.192 61.3544H66.359C66.7486 61.2895 67.0686 61.0112 67.1939 60.6355V60.6355C67.7134 58.9565 67.9777 57.2125 67.9777 55.4546C67.9314 51.3869 66.6419 47.4351 64.2857 44.1234C61.5074 40.2412 58.3534 36.6466 54.8609 33.3952L54.8237 33.2793Z" fill="white"/>
<path d="M57.064 60.1901C55.0742 57.7644 53.154 55.5427 50.1299 52.3191C47.5742 55.2458 45.2319 57.5 43.2932 59.7913C39.8794 63.4879 40.1067 69.2486 43.8034 72.6623C47.5 76.076 53.2607 75.8488 56.6744 72.1521C59.5733 69.0167 59.9026 64.2857 57.4676 60.7746C57.347 60.5658 57.2125 60.371 57.064 60.1901Z" fill="white"/>
<path d="M45.2644 48.3535C45.487 48.0984 45.487 47.7227 45.2644 47.4676L39.3646 41.4332L38.0937 40.2319C37.0733 41.4193 36.1178 42.6624 35.2366 43.9611C33.808 46.0204 32.7458 48.3117 32.0965 50.7282V50.7282C31.3868 53.5112 31.4518 56.4379 32.2959 59.1837L32.4119 59.4342C32.5603 59.731 32.7273 60.0139 32.9128 60.2876V60.2876C32.9128 60.2876 33.5993 61.3915 34.1976 61.4425H34.4156C34.6197 61.3961 34.7867 61.2523 34.8655 61.0575C35.4221 59.8887 36.1178 58.7987 36.9388 57.7969L39.0956 55.1716V55.1716L45.2644 48.3535Z" fill="white"/>
<path fill-rule="evenodd" clip-rule="evenodd" d="M0.0181914 49.9904C0.0274678 22.3837 22.4162 0.00891492 50.0275 0.0181914C77.6295 0.0274678 99.9996 22.4069 99.9996 50.0089V50.0275C99.9904 77.6342 77.6017 100.009 49.9904 99.9996C22.3837 99.9904 0.00891492 77.597 0.0181914 49.9904ZM23.4323 55.3757C23.4509 69.9026 35.2134 81.6791 49.7403 81.7162C64.295 81.7162 76.0993 69.9258 76.1132 55.3757C76.1132 43.0241 67.8943 34.8052 60.6215 27.5325L60.5346 27.4455C55.7193 22.6304 51.1328 18.0441 49.7727 12.8757C48.4048 18.0517 43.8043 22.6522 38.9765 27.4799L38.9239 27.5325L38.8546 27.602C31.6219 34.8531 23.4323 43.0635 23.4323 55.3757Z" fill="white"/>
</svg>
