<svg width="100" height="100" viewBox="0 0 100 100" fill="none" xmlns="http://www.w3.org/2000/svg">
<path d="M50.3192 99.15C77.4821 99.15 99.5019 77.1301 99.5019 49.9673C99.5019 22.8044 77.4821 0.784607 50.3192 0.784607C23.1564 0.784607 1.13654 22.8044 1.13654 49.9673C1.13654 77.1301 23.1564 99.15 50.3192 99.15Z" fill="#DE5833"/>
<mask id="mask0_147648_529" style="mask-type:luminance" maskUnits="userSpaceOnUse" x="0" y="0" width="100" height="100">
<path fill-rule="evenodd" clip-rule="evenodd" d="M99.6962 49.8308C99.6962 77.0577 77.5471 99.2096 50.3173 99.2096C23.0933 99.2096 0.944229 77.0567 0.944229 49.8308C0.944229 22.6067 23.0942 0.456726 50.3173 0.456726C77.5462 0.456726 99.6962 22.6067 99.6962 49.8308Z" fill="white"/>
</mask>
<g mask="url(#mask0_147648_529)">
<path d="M70.474 123.229C68.7423 115.262 58.6837 97.2298 54.8683 89.6048C51.0558 81.9779 47.2356 71.2298 48.975 64.2952C49.2904 63.0336 45.6712 53.4221 46.7115 52.7423C54.8038 47.4644 56.9346 53.3182 60.175 50.9519C61.8423 49.7279 64.1077 51.9586 64.6837 49.9327C66.7587 42.6567 61.7933 29.9711 56.25 24.4269C54.4375 22.6202 51.6625 21.4846 48.5288 20.8817C47.3231 19.2346 45.3798 17.6509 42.6269 16.1904C39.5615 14.5586 32.8952 12.4038 29.4375 11.8298C27.0413 11.4356 26.5 12.1057 25.4769 12.2731C26.4308 12.3577 30.9567 14.5942 31.8375 14.724C30.9567 15.3192 28.3692 14.6971 26.7183 15.4375C25.8865 15.8144 25.2644 17.2423 25.2702 17.9182C29.9913 17.4413 37.3606 17.9029 41.7125 19.8413C38.249 20.2356 32.9817 20.675 30.7163 21.8654C24.1317 25.3346 21.2231 33.4375 22.9567 43.1471C24.6913 52.8346 32.3202 88.1952 34.7471 100.002C37.175 111.794 29.5471 119.414 24.6942 121.496L29.8942 121.845L28.1625 125.66C34.3971 126.351 41.3308 124.276 41.3308 124.276C39.9481 128.088 30.5846 129.48 30.5846 129.48C30.5846 129.48 35.0952 130.862 42.3712 128.088C49.6577 125.316 54.1625 123.581 54.1625 123.581L57.6279 132.593L64.2183 126.01L66.9923 132.943C67.0058 132.942 72.2077 131.205 70.474 123.229Z" fill="#D5D7D8"/>
<path d="M72.5683 121.612C70.8423 113.642 60.7836 95.6096 56.9644 87.9788C53.1471 80.3481 49.3346 69.6019 51.0702 62.6702C51.3923 61.4115 51.3981 56.2586 52.4442 55.575C60.5317 50.2923 59.9558 55.3981 63.2009 53.0317C64.874 51.8096 66.2134 50.3336 66.7952 48.3086C68.8759 41.0279 63.9048 28.3471 58.3596 22.8C56.5529 20.9932 53.775 19.8557 50.6452 19.2557C49.4413 17.6038 47.5 16.024 44.751 14.5615C39.5673 11.8096 33.1413 10.7096 27.1875 11.7894C28.1394 11.8759 30.3183 13.8452 31.1952 13.975C29.8673 14.875 26.3365 14.7586 26.3596 16.7596C31.0865 16.2865 36.2663 17.0336 40.6231 18.9682C37.1596 19.3625 33.9356 20.2182 31.6702 21.4134C25.0798 24.8779 23.3471 31.8096 25.0798 41.5231C26.8173 51.2317 34.4471 86.5932 36.8644 98.375C39.2942 110.163 31.6702 117.787 26.8173 119.869L32.0173 120.214L30.2856 124.035C36.5202 124.728 43.4538 122.651 43.4538 122.651C42.0711 126.472 32.7077 127.849 32.7077 127.849C32.7077 127.849 37.2135 129.233 44.4942 126.46C51.7836 123.687 56.2913 121.952 56.2913 121.952L59.7567 130.964L66.3461 124.375L69.1259 131.312C69.1106 131.319 74.3067 129.585 72.5683 121.612Z" fill="white"/>
<path d="M32.7125 42.0105C32.7125 39.998 34.3404 38.3692 36.3558 38.3692C38.3654 38.3692 39.9952 39.998 39.9952 42.0105C39.9952 44.024 38.3654 45.6509 36.3558 45.6509C34.3404 45.6519 32.7125 44.024 32.7125 42.0105Z" fill="#2D4F8E"/>
<path d="M37.026 40.7971C37.026 40.2731 37.45 39.8519 37.9683 39.8519C38.4904 39.8519 38.9144 40.2731 38.9144 40.7971C38.9144 41.3192 38.4904 41.7433 37.9683 41.7433C37.451 41.7442 37.026 41.3192 37.026 40.7971Z" fill="white"/>
<path d="M57.5644 39.851C57.5644 38.1269 58.9692 36.726 60.6913 36.726C62.4231 36.726 63.8221 38.1269 63.8221 39.851C63.8221 41.5827 62.4231 42.9836 60.6913 42.9836C58.9692 42.9836 57.5644 41.5827 57.5644 39.851Z" fill="#2D4F8E"/>
<path d="M61.274 38.8106C61.274 38.3654 61.6385 38 62.0798 38C62.5404 38 62.8933 38.3654 62.8933 38.8106C62.8933 39.2615 62.5404 39.6202 62.0798 39.6202C61.6385 39.6202 61.274 39.2615 61.274 38.8106Z" fill="white"/>
<path d="M37.3904 31.4596C37.3904 31.4596 34.6462 30.2182 31.9779 31.8952C29.3144 33.5702 29.4125 35.2827 29.4125 35.2827C29.4125 35.2827 27.9962 32.1259 31.7712 30.5788C35.55 29.0317 37.3904 31.4596 37.3904 31.4596Z" fill="url(#paint0_linear_147648_529)"/>
<path d="M62.575 31.2096C62.575 31.2096 60.6029 30.0827 59.0721 30.1019C55.9269 30.1432 55.0702 31.5327 55.0702 31.5327C55.0702 31.5327 55.5981 28.2202 59.6202 28.8846C61.801 29.2471 62.575 31.2096 62.575 31.2096Z" fill="url(#paint1_linear_147648_529)"/>
</g>
<path d="M47.5 56.0529C47.8644 53.85 53.5567 49.6827 57.5875 49.4308C61.6269 49.176 62.8856 49.2337 66.251 48.4279C69.626 47.6221 78.3038 45.4587 80.7058 44.349C83.1134 43.2375 93.3058 44.899 86.1202 48.9048C83.0125 50.6442 74.6365 53.8385 68.6471 55.6231C62.6673 57.4125 59.0413 53.9154 57.051 56.8548C55.4683 59.1933 56.7298 62.3952 63.8769 63.0596C73.5279 63.9539 82.7808 58.7125 83.799 61.4971C84.8221 64.2808 75.5058 67.7548 69.8327 67.8654C64.1663 67.9721 52.7452 64.1192 51.0298 62.926C49.3125 61.7356 47.025 58.9548 47.5 56.0529Z" fill="#FDD20A"/>
<path d="M51.8683 85.1846C51.8683 85.1846 38.3087 77.9528 38.0875 80.8865C37.8587 83.825 38.0875 95.799 39.6673 96.7048C41.25 97.6067 52.5481 90.8317 52.5481 90.8317L51.8683 85.1846Z" fill="#65BC46"/>
<path d="M57.0635 84.7288C57.0635 84.7288 66.3279 77.724 68.3654 78.1759C70.3952 78.6365 70.8481 93.0894 69.0394 93.7807C67.2308 94.4442 56.6279 90.1144 56.6279 90.1144L57.0635 84.7288Z" fill="#65BC46"/>
<path d="M48.5856 85.9509C48.5856 90.6932 47.9039 92.7288 49.9414 93.1807C51.9692 93.6355 55.8106 93.1807 57.1702 92.2788C58.526 91.3769 57.3933 85.2798 56.9471 84.1394C56.4885 83.0105 48.5856 83.9163 48.5856 85.9509Z" fill="#43A244"/>
<path d="M49.4481 84.8961C49.4481 89.6394 48.7683 91.675 50.8029 92.126C52.8279 92.5865 56.6721 92.126 58.0327 91.224C59.3885 90.3192 58.2548 84.225 57.8058 83.0836C57.351 81.9558 49.4481 82.8654 49.4481 84.8961Z" fill="#65BC46"/>
<defs>
<linearGradient id="paint0_linear_147648_529" x1="29.1523" y1="35.2824" x2="37.3911" y2="35.2824" gradientUnits="userSpaceOnUse">
<stop offset="0.0056" stop-color="#6176B9"/>
<stop offset="0.691" stop-color="#394A9F"/>
</linearGradient>
<linearGradient id="paint1_linear_147648_529" x1="55.0706" y1="31.5325" x2="62.5751" y2="31.5325" gradientUnits="userSpaceOnUse">
<stop offset="0.0056" stop-color="#6176B9"/>
<stop offset="0.691" stop-color="#394A9F"/>
</linearGradient>
</defs>
</svg>
