<svg width="100" height="100" viewBox="0 0 100 100" fill="none" xmlns="http://www.w3.org/2000/svg">
<path d="M22.8322 79.1005L13.153 81.3088V18.6241L22.8322 20.8367V79.1005Z" fill="#F68536"/>
<path d="M34.9087 82.8003L22.8322 86.2323V13.7865L34.9087 17.2142V82.8003ZM50.4004 86.6017L34.9087 92.2712V7.7476L50.4004 13.4144V86.6017ZM91.8225 79.2894L50.4004 100V0.000488281L91.8225 20.7115V79.2894Z" fill="#F68536"/>
<path d="M42.1433 4.12963L50.4003 0.000488281V100L42.1433 95.8727V4.12963ZM28.5168 10.9421L34.9087 7.7463V92.2547L28.5168 89.0589V10.9421ZM17.7406 16.331L22.8322 13.7852V86.2158L17.7406 83.6684V16.331ZM13.153 18.6242L9.00024 20.7005V79.3017L13.153 81.3768V18.6242Z" fill="#9D5025"/>
</svg>
