<svg width="100" height="100" viewBox="0 0 100 100" fill="none" xmlns="http://www.w3.org/2000/svg">
<path d="M90.2706 74.4117C88.9297 75.1086 87.5469 75.7217 86.1301 76.2476C81.6441 77.9173 76.8938 78.7642 72.1071 78.7475C53.6311 78.7475 37.5379 66.0526 37.5379 49.725C37.5619 47.5387 38.1681 45.3982 39.294 43.5239C40.42 41.6497 42.025 40.1093 43.944 39.0613C27.2257 39.7644 22.929 57.1857 22.929 67.3807C22.929 96.2861 49.5297 99.1766 55.2717 99.1766C58.3576 99.1766 63.0059 98.2782 65.8183 97.3798L66.3261 97.2235C77.089 93.504 86.2643 86.2299 92.3409 76.5992C92.5175 76.3066 92.5933 75.9641 92.5566 75.6243C92.52 75.2845 92.3729 74.9661 92.138 74.7178C91.903 74.4696 91.5932 74.3052 91.2559 74.25C90.9186 74.1947 90.5725 74.2515 90.2706 74.4117V74.4117Z" fill="url(#paint0_linear_147648_1640)"/>
<path opacity="0.35" d="M90.2706 74.4117C88.9297 75.1086 87.5469 75.7217 86.1301 76.2476C81.6441 77.9173 76.8938 78.7642 72.1071 78.7475C53.6311 78.7475 37.5379 66.0526 37.5379 49.725C37.5619 47.5387 38.1681 45.3982 39.294 43.5239C40.42 41.6497 42.025 40.1093 43.944 39.0613C27.2257 39.7644 22.929 57.1857 22.929 67.3807C22.929 96.2861 49.5297 99.1766 55.2717 99.1766C58.3576 99.1766 63.0059 98.2782 65.8183 97.3798L66.3261 97.2235C77.089 93.504 86.2643 86.2299 92.3409 76.5992C92.5175 76.3066 92.5933 75.9641 92.5566 75.6243C92.52 75.2845 92.3729 74.9661 92.138 74.7178C91.903 74.4696 91.5932 74.3052 91.2559 74.25C90.9186 74.1947 90.5725 74.2515 90.2706 74.4117V74.4117Z" fill="url(#paint1_radial_147648_1640)"/>
<path d="M41.2878 94.2549C37.8109 92.0954 34.797 89.2674 32.4209 85.9348C29.7074 82.2208 27.8396 77.958 26.9486 73.4455C26.0575 68.9331 26.1648 64.2803 27.2628 59.8136C28.3609 55.347 30.4231 51.1748 33.3048 47.5898C36.1865 44.0048 39.8178 41.0939 43.9439 39.0613C45.1939 38.4753 47.2642 37.4597 50.0375 37.4988C51.989 37.5139 53.9107 37.9801 55.6521 38.861C57.3936 39.7419 58.9078 41.0137 60.0763 42.5768C61.6479 44.6903 62.5094 47.2475 62.5371 49.8812C62.5371 49.8031 72.1071 18.7885 31.2881 18.7885C14.1402 18.7885 0.0390522 35.038 0.0390522 49.3344C-0.0291546 56.8863 1.5854 64.3586 4.76547 71.2087C9.9734 82.2983 19.0718 91.0897 30.3336 95.9141C41.5953 100.739 54.2364 101.26 65.8573 97.3798C61.786 98.6656 57.4841 99.0521 53.2487 98.5126C49.0134 97.9731 44.9457 96.5204 41.3268 94.2549H41.2878Z" fill="url(#paint2_linear_147648_1640)"/>
<path opacity="0.41" d="M41.2878 94.2549C37.8109 92.0954 34.797 89.2674 32.4209 85.9348C29.7074 82.2208 27.8396 77.958 26.9486 73.4455C26.0575 68.9331 26.1648 64.2803 27.2628 59.8136C28.3609 55.347 30.4231 51.1748 33.3048 47.5898C36.1865 44.0048 39.8178 41.0939 43.9439 39.0613C45.1939 38.4753 47.2642 37.4597 50.0375 37.4988C51.989 37.5139 53.9107 37.9801 55.6521 38.861C57.3936 39.7419 58.9078 41.0137 60.0763 42.5768C61.6479 44.6903 62.5094 47.2475 62.5371 49.8812C62.5371 49.8031 72.1071 18.7885 31.2881 18.7885C14.1402 18.7885 0.0390522 35.038 0.0390522 49.3344C-0.0291546 56.8863 1.5854 64.3586 4.76547 71.2087C9.9734 82.2983 19.0718 91.0897 30.3336 95.9141C41.5953 100.739 54.2364 101.26 65.8573 97.3798C61.786 98.6656 57.4841 99.0521 53.2487 98.5126C49.0134 97.9731 44.9457 96.5204 41.3268 94.2549H41.2878Z" fill="url(#paint3_radial_147648_1640)"/>
<path d="M59.5294 58.1232C59.1778 58.5138 58.2013 59.0997 58.2013 60.3106C58.2013 61.3262 58.8654 62.3418 60.0763 63.1621C65.662 67.0682 76.2476 66.5214 76.2867 66.5214C80.4508 66.5186 84.538 65.399 88.1223 63.2793C91.7308 61.1687 94.7249 58.1515 96.8078 54.5269C98.8908 50.9023 99.9901 46.7963 99.9969 42.6159C100.114 33.8661 96.872 28.046 95.583 25.468C87.2629 9.29659 69.4119 2.44775e-07 49.9984 2.44775e-07C36.859 -0.00129901 24.2471 5.16976 14.8905 14.3948C5.53391 23.6198 0.184774 36.1572 0 49.2953C0.195306 35.038 14.3746 23.5149 31.249 23.5149C32.6162 23.5149 40.4284 23.6321 47.6548 27.421C52.7316 29.9438 56.9358 33.9303 59.7247 38.866C62.1074 43.0065 62.5371 48.2798 62.5371 50.3891C62.5371 52.4984 61.4825 55.5842 59.4903 58.1623L59.5294 58.1232Z" fill="url(#paint4_radial_147648_1640)"/>
<path d="M59.5294 58.1232C59.1778 58.5138 58.2013 59.0997 58.2013 60.3106C58.2013 61.3262 58.8654 62.3418 60.0763 63.1621C65.662 67.0682 76.2476 66.5214 76.2867 66.5214C80.4508 66.5186 84.538 65.399 88.1223 63.2793C91.7308 61.1687 94.7249 58.1515 96.8078 54.5269C98.8908 50.9023 99.9901 46.7963 99.9969 42.6159C100.114 33.8661 96.872 28.046 95.583 25.468C87.2629 9.29659 69.4119 2.44775e-07 49.9984 2.44775e-07C36.859 -0.00129901 24.2471 5.16976 14.8905 14.3948C5.53391 23.6198 0.184774 36.1572 0 49.2953C0.195306 35.038 14.3746 23.5149 31.249 23.5149C32.6162 23.5149 40.4284 23.6321 47.6548 27.421C52.7316 29.9438 56.9358 33.9303 59.7247 38.866C62.1074 43.0065 62.5371 48.2798 62.5371 50.3891C62.5371 52.4984 61.4825 55.5842 59.4903 58.1623L59.5294 58.1232Z" fill="url(#paint5_radial_147648_1640)"/>
<defs>
<linearGradient id="paint0_linear_147648_1640" x1="22.929" y1="69.1385" x2="92.6143" y2="69.1385" gradientUnits="userSpaceOnUse">
<stop stop-color="#0C59A4"/>
<stop offset="1" stop-color="#114A8B"/>
</linearGradient>
<radialGradient id="paint1_radial_147648_1640" cx="0" cy="0" r="1" gradientUnits="userSpaceOnUse" gradientTransform="translate(61.4043 69.6638) scale(37.2645 35.4012)">
<stop offset="0.7" stop-opacity="0"/>
<stop offset="0.9" stop-opacity="0.5"/>
<stop offset="1"/>
</radialGradient>
<linearGradient id="paint2_linear_147648_1640" x1="59.6466" y1="38.905" x2="16.1714" y2="86.2864" gradientUnits="userSpaceOnUse">
<stop stop-color="#1B9DE2"/>
<stop offset="0.2" stop-color="#1595DF"/>
<stop offset="0.7" stop-color="#0680D7"/>
<stop offset="1" stop-color="#0078D4"/>
</linearGradient>
<radialGradient id="paint3_radial_147648_1640" cx="0" cy="0" r="1" gradientUnits="userSpaceOnUse" gradientTransform="translate(27.5597 77.7073) rotate(-81.3844) scale(56.0084 45.2492)">
<stop offset="0.8" stop-opacity="0"/>
<stop offset="0.9" stop-opacity="0.5"/>
<stop offset="1"/>
</radialGradient>
<radialGradient id="paint4_radial_147648_1640" cx="0" cy="0" r="1" gradientUnits="userSpaceOnUse" gradientTransform="translate(10.113 18.4822) rotate(92.2906) scale(79.1233 168.516)">
<stop stop-color="#35C1F1"/>
<stop offset="0.1" stop-color="#34C1ED"/>
<stop offset="0.2" stop-color="#2FC2DF"/>
<stop offset="0.3" stop-color="#2BC3D2"/>
<stop offset="0.7" stop-color="#36C752"/>
</radialGradient>
<radialGradient id="paint5_radial_147648_1640" cx="0" cy="0" r="1" gradientUnits="userSpaceOnUse" gradientTransform="translate(93.7705 30.1944) rotate(73.7398) scale(38.0066 30.907)">
<stop stop-color="#66EB6E"/>
<stop offset="1" stop-color="#66EB6E" stop-opacity="0"/>
</radialGradient>
</defs>
</svg>
