<svg width="100" height="100" viewBox="0 0 100 100" fill="none" xmlns="http://www.w3.org/2000/svg">
<path d="M100 52.1971C100 43.8285 94.8015 36.4744 86.9824 33.6427C87.3206 31.8674 87.4897 30.0922 87.4897 28.2749C87.4897 12.679 74.8101 -0.000686646 59.2565 -0.000686646C50.1271 -0.000686646 41.6738 4.35266 36.3484 11.7069C33.7279 9.6781 30.5159 8.57922 27.1769 8.57922C18.8928 8.57922 12.1726 15.2994 12.1726 23.5834C12.1726 25.4009 12.5107 27.1761 13.1025 28.8243C5.32563 31.6139 0.000183105 39.0949 0.000183105 47.4211C0.000183105 55.832 5.2411 63.1861 13.0602 66.0181C12.7221 67.751 12.553 69.5683 12.553 71.3856C12.553 86.9395 25.1905 99.5767 40.7441 99.5767C49.8735 99.5767 58.3265 95.1812 63.6096 87.8268C66.2301 89.8979 69.4423 91.0391 72.7813 91.0391C81.0652 91.0391 87.7856 84.319 87.7856 76.0348C87.7856 74.2175 87.4474 72.4423 86.8556 70.7938C94.6324 68.0045 100 60.5235 100 52.1971Z" fill="white"/>
<path d="M39.306 42.9L61.1995 52.8746L83.2622 33.517C83.6002 31.9109 83.727 30.3471 83.727 28.6563C83.727 15.047 72.6535 3.9734 59.0439 3.9734C50.8868 3.9734 43.3212 7.98862 38.7143 14.7088L35.0373 33.7706L39.306 42.9Z" fill="#FED10A"/>
<path d="M16.6533 66.0605C16.3152 67.6666 16.1884 69.3148 16.1884 71.0054C16.1884 84.6573 27.3043 95.7307 40.9559 95.7307C49.1554 95.7307 56.8054 91.6732 61.4126 84.9108L65.0472 65.9337L60.1867 56.6352L38.2086 46.6182L16.6533 66.0605Z" fill="#24BBB1"/>
<path d="M16.525 28.1904L31.5293 31.7406L34.826 14.7077C32.7972 13.1439 30.2614 12.2986 27.6409 12.2986C21.132 12.2986 15.8065 17.5817 15.8065 24.1329C15.8065 25.5276 16.0601 26.9225 16.525 28.1904Z" fill="#EF5098"/>
<path d="M15.2172 31.7823C8.53926 33.9799 3.84779 40.4044 3.84779 47.4627C3.84779 54.3519 8.1166 60.4805 14.4987 62.9319L35.547 43.9125L31.7007 35.6707L15.2172 31.7823Z" fill="#1BA9F5"/>
<path d="M65.2163 84.9096C67.2874 86.4734 69.7811 87.361 72.3593 87.361C78.8682 87.361 84.1936 82.0777 84.1936 75.5267C84.1936 74.0897 83.9401 72.6948 83.4751 71.4269L68.5132 67.9187L65.2163 84.9096Z" fill="#93C83E"/>
<path d="M68.2576 63.989L84.7411 67.835C91.4615 65.6372 96.1105 59.2129 96.1105 52.1123C96.1105 45.2654 91.8418 39.0945 85.4596 36.6854L63.9042 55.5781L68.2576 63.989Z" fill="#0077CC"/>
</svg>
