<svg width="100" height="100" viewBox="0 0 100 100" fill="none" xmlns="http://www.w3.org/2000/svg">
<path d="M50 0.000488281C77.6141 0.000488281 100 22.3864 100 50.0005C100 77.6145 77.6141 100 50 100C22.3859 100 0 77.6145 0 50.0005C0 22.3864 22.3859 0.000488281 50 0.000488281Z" fill="#E05C43"/>
<path fill-rule="evenodd" clip-rule="evenodd" d="M50.9883 18.8505C57.4304 18.7232 61.9828 20.4701 65.9 26.0302C74.4422 47.2091 43.9101 58.1396 42.6859 58.5693L42.6476 58.5818C42.6476 58.5818 41.7258 64.3341 50.482 64.113C61.2578 64.113 72.5867 55.7607 76.8961 52.2302C77.3969 51.8185 78.0348 51.6111 78.682 51.6495C79.3292 51.6879 79.938 51.9693 80.3867 52.4373L83.6133 55.7888C84.0667 56.2564 84.3258 56.8787 84.3381 57.53C84.3504 58.1813 84.1151 58.813 83.6797 59.2974C80.875 62.4201 74.2937 68.831 64.3859 72.9724C64.3859 72.9724 47.8547 80.6271 36.714 73.3787C30.0711 69.0583 28.2437 63.8857 27.5008 58.5052C27.5047 58.5052 19.4351 58.0958 14.2531 56.0724C9.06951 54.0474 14.2914 47.9388 14.2914 47.9388C14.2914 47.9388 15.8851 45.413 18.9164 47.9388C21.95 50.4607 27.6117 49.3232 27.6117 49.3232C28.1164 45.3396 28.9555 40.0826 31.4273 34.5341C36.6086 22.9052 44.5437 18.9755 50.9883 18.8505ZM54.7797 30.5029C51.3664 27.2138 41.5109 33.7857 41.1304 48.8232C41.1304 48.8232 44.0398 49.7091 50.482 45.2841C56.9273 40.8615 58.1929 33.7857 54.7797 30.5029Z" fill="white"/>
</svg>
