<svg width="100" height="100" viewBox="0 0 100 100" fill="none" xmlns="http://www.w3.org/2000/svg">
<path fill-rule="evenodd" clip-rule="evenodd" d="M84.6006 -0.00012207H14.0759C8.3596 -0.00012207 6.25 2.10948 6.25 7.82844V76.8364C6.25 77.4837 6.2761 78.0847 6.33327 78.6418C6.46342 79.8901 6.48792 81.0997 7.6489 82.477C7.76233 82.6118 8.94765 83.4939 8.94765 83.4939C9.58521 83.8066 10.0206 84.0368 10.7396 84.3264L45.4671 98.8758C47.2698 99.7024 48.0237 100.025 49.3331 99.9985V99.9987C49.3348 99.9987 49.3365 99.9987 49.3381 99.9987C49.34 99.9987 49.3417 99.9987 49.3433 99.9987V99.9985C50.6527 100.025 51.4067 99.7024 53.2096 98.8758L87.9369 84.3264C88.656 84.0368 89.0912 83.8066 89.729 83.4939C89.729 83.4939 90.9144 82.6118 91.0275 82.477C92.1885 81.0997 92.2131 79.8901 92.3431 78.6418C92.4004 78.0847 92.4267 77.4837 92.4267 76.8364V7.82844C92.4267 2.10948 90.3169 -0.00012207 84.6006 -0.00012207Z" fill="#2F2D2E"/>
<path fill-rule="evenodd" clip-rule="evenodd" d="M29.7658 71.1771L29.8931 71.0817L30.0035 70.9862V70.8271V70.6679V70.5087V70.3654V70.2062V70.0473V69.8879V69.7287V69.5696V69.4262V69.2673V69.1079V68.9489V68.7896V68.6304V68.471V68.3281V68.1687V68.0096V67.8504V67.6912V67.5321V67.3729V67.2298V67.0704V66.9112V66.7521V66.5929V66.4337V66.2904V66.1312V65.9721V65.8139H29.8452H29.6871H29.5279H29.3698H29.2115H29.0531H28.894H28.7356H28.5775H28.4192H28.26H28.1019H27.9438H27.7852H27.6263H27.4681H27.3098H27.1515H26.9923H26.834H26.6758H26.5177H26.3585H26.2002H26.0419H25.8838H25.7246H25.5663H25.4079H25.25H25.0917H24.9325H24.7742V65.9721V66.1154V66.2748V66.4337V66.5929V66.7362V66.8954V67.0546V67.2137V67.3571V67.5162V67.6754V67.8346V67.9779V68.1371H24.9325H25.0756H25.234H25.3921H25.5506H25.6935H25.8519H26.01H26.1683H26.3117H26.4698H26.6281H26.7865H26.9296H27.0879V68.2962V68.4554V68.6146V68.7737V68.9489V69.1079V69.2673V69.4262V69.5854L26.9613 69.6652L26.85 69.7287L26.7077 69.7925L26.5804 69.8562L26.4379 69.9198L26.2956 69.9517L26.1375 69.9994L25.9783 70.031L25.82 70.0629L25.6619 70.0789L25.4877 70.0948L25.3125 70.1108H25.1225H24.9483L24.7742 70.0948L24.6158 70.0789L24.4577 70.0473L24.2985 70.0152L24.1402 69.9675L23.9819 69.9198L23.8388 69.8562L23.6967 69.7925L23.554 69.7287L23.4267 69.6492L23.3004 69.5696L23.1742 69.4742L23.0467 69.3785L22.9363 69.2831L22.8406 69.1717L22.7302 69.0602L22.6346 68.9489L22.54 68.8215L22.4604 68.6942L22.381 68.5669L22.3023 68.4235L22.2388 68.28L22.175 68.121L22.1281 67.9937L22.0804 67.8504L22.0485 67.7073L22.0167 67.564L21.9848 67.4208L21.969 67.2614L21.9531 67.1181L21.9381 66.9592V66.7998V66.7681V66.5929L21.9531 66.4337L21.969 66.2748L22.0008 66.0994L22.0327 65.9564L22.0644 65.7979L22.1121 65.6389L22.175 65.4956L22.2227 65.3523L22.2863 65.2092L22.366 65.0817L22.4446 64.9385L22.5242 64.8112L22.6029 64.6996L22.6983 64.5723L22.8088 64.4608L22.9044 64.3496L23.0148 64.254L23.1263 64.1585L23.2367 64.0631L23.3642 63.9835L23.4904 63.9037L23.6177 63.8242L23.7602 63.7606L23.9025 63.6969L24.0448 63.6492L24.1881 63.6014L24.3304 63.5696L24.4885 63.5379L24.6319 63.5219L24.79 63.506H24.9483H25.1225L25.2975 63.5219L25.4717 63.5379L25.63 63.5535L25.7883 63.5854L25.9465 63.6173L26.0898 63.6492L26.2319 63.6969L26.3744 63.7446L26.5017 63.7925L26.6281 63.8562L26.7554 63.9198L26.8975 63.9994L27.0242 64.0787L27.1515 64.1585L27.2779 64.2381L27.4044 64.3335L27.5317 64.4133L27.6579 64.5246L27.7852 64.6202L27.88 64.4929L27.9913 64.3812L28.086 64.254L28.1973 64.1267L28.2919 63.9994L28.3873 63.8879L28.4979 63.7606L28.5933 63.6333L28.704 63.506L28.7994 63.3944L28.894 63.2671L29.0054 63.1398L29.1 63.0285L29.1956 62.901L29.306 62.7737L29.4015 62.6465L29.5119 62.535L29.6075 62.4075L29.481 62.3121L29.3538 62.2006L29.2273 62.1052L29.1 62.0096L28.9735 61.93L28.8473 61.8346L28.704 61.755L28.5775 61.6754L28.4352 61.5958L28.3079 61.5162L28.1656 61.4525L28.0231 61.3729L27.88 61.3092L27.7377 61.2454L27.5954 61.1819L27.4521 61.1342L27.3256 61.0865L27.1833 61.0546L27.0402 61.0069L26.8975 60.975L26.7554 60.9431L26.6123 60.9115L26.454 60.8796L26.2956 60.8477L26.1525 60.8319L25.9783 60.7998L25.82 60.7842H25.6619L25.4877 60.7681L25.3125 60.7521H25.1383H24.9642H24.806H24.6319L24.4727 60.7681L24.3142 60.7842L24.1563 60.7998L23.9979 60.8158L23.8388 60.8477L23.6804 60.8635L23.5223 60.8954L23.3798 60.9431L23.2208 60.975L23.0785 61.0227L22.9363 61.0546L22.7929 61.1181L22.6346 61.1662L22.5083 61.2137L22.35 61.2935L22.2069 61.3571L22.0644 61.4208L21.9223 61.5002L21.779 61.5798L21.6365 61.6596L21.5102 61.7392L21.3827 61.8185L21.2565 61.9142L21.1292 61.9937L21.0027 62.0892L20.8921 62.1848L20.7648 62.2962L20.6543 62.3917L20.543 62.5033L20.4324 62.6144L20.3369 62.7258L20.2264 62.8373L20.1309 62.949L20.0363 63.0762L19.9408 63.2035L19.8463 63.3308L19.7666 63.4581L19.6872 63.5854L19.6084 63.7129L19.5289 63.8402L19.4493 63.9835L19.3866 64.1267L19.3229 64.27L19.2593 64.4133L19.1965 64.5565L19.1328 64.7156L19.085 64.859L19.0372 65.0181L18.9905 65.1612L18.9586 65.3206L18.9108 65.4796L18.879 65.6229L18.8632 65.7821L18.8315 65.9404L18.8153 66.1154L18.8004 66.2748V66.4337L18.7846 66.6087V66.7681V66.7998V66.9592V67.1342L18.8004 67.2933L18.8153 67.4525L18.8315 67.6119L18.8471 67.755L18.879 67.9142L18.895 68.0575L18.9268 68.2165L18.9746 68.36L19.0063 68.5192L19.0532 68.6621L19.085 68.8054L19.1487 68.9489L19.1965 69.0762L19.2593 69.2194L19.3229 69.3625L19.3866 69.5058L19.4493 69.6492L19.5289 69.7764L19.6084 69.9198L19.6872 70.0473L19.7666 70.1744L19.8612 70.3019L19.9408 70.4292L20.0363 70.5406L20.1309 70.6679L20.2264 70.7792L20.3369 70.8908L20.4484 71.0023L20.5588 71.0975L20.6703 71.2092L20.7807 71.3046L20.8921 71.4002L21.0188 71.4956L21.145 71.591L21.2723 71.6867L21.3988 71.766L21.526 71.8458L21.6685 71.9252L21.7948 72.0042L21.9381 72.0837L22.0804 72.1475L22.2227 72.211L22.366 72.2746L22.5242 72.3383L22.6665 72.386L22.8088 72.4496L22.9521 72.4975L23.1104 72.5294L23.2527 72.5771L23.4119 72.6089L23.554 72.6406L23.7123 72.6725L23.8706 72.7044L24.0298 72.7204L24.1881 72.7362L24.3463 72.7521L24.5204 72.7681L24.6785 72.7839H24.8379H25.0119H25.1863H25.3604L25.5344 72.7681L25.6935 72.7521L25.8677 72.7362L26.026 72.7204L26.2002 72.7044L26.3585 72.6883L26.5177 72.6567L26.6758 72.6248L26.8181 72.5931L26.9775 72.5612L27.1196 72.5133L27.2779 72.4658L27.4202 72.4179L27.5633 72.37L27.706 72.3223L27.8481 72.2585L28.0075 72.195L28.1496 72.1312L28.3079 72.0677L28.4502 71.9879L28.5933 71.9252L28.7356 71.8458L28.8781 71.766L29.0215 71.6867L29.1477 71.6069L29.275 71.5275L29.4015 71.4319L29.5279 71.3523L29.6552 71.2569L29.7658 71.1771ZM79.8619 69.5379L79.8777 69.3785L79.8938 69.2035V69.0283V68.9964V68.8214L79.8777 68.6464L79.8619 68.4873L79.83 68.3281L79.7983 68.1687L79.7665 68.0254L79.7196 67.8823L79.6719 67.7392L79.6083 67.6119L79.5285 67.4683L79.45 67.341L79.3544 67.1979L79.2598 67.0704L79.1485 66.9592L79.0379 66.8317L78.9106 66.7204L78.7844 66.6087L78.6577 66.5294L78.5304 66.4337L78.4042 66.3542L78.2619 66.2748L78.1185 66.195L77.9602 66.1154L77.8019 66.0519L77.6438 65.9721L77.4688 65.9096L77.3265 65.8617L77.1842 65.8139L77.0248 65.7662L76.8825 65.7185L76.7244 65.6706L76.566 65.6229L76.4067 65.5912L76.2325 65.5433L76.0744 65.4956L75.9004 65.4637L75.7263 65.4158L75.5521 65.3683L75.3769 65.3206L75.2185 65.2885L75.0765 65.2408L74.9331 65.2092L74.8067 65.1612L74.6802 65.1296L74.4902 65.066L74.315 65.0023L74.1569 64.9385L74.0304 64.8589L73.8873 64.7794L73.7767 64.6679L73.7131 64.5723L73.6346 64.3973L73.6183 64.1904V64.1585L73.6346 63.9994L73.6971 63.8562L73.7925 63.7129L73.935 63.5854L74.0465 63.5219L74.1729 63.4581L74.315 63.4262L74.4744 63.3944L74.6485 63.3625H74.8385H74.9969L75.1392 63.3785L75.2983 63.3944L75.4565 63.4104L75.6148 63.4423L75.7729 63.4742L75.9321 63.506L76.0904 63.5535L76.2485 63.6014L76.4229 63.6492L76.5502 63.7129L76.6925 63.7606L76.8187 63.8242L76.9621 63.8879L77.0885 63.9514L77.2308 64.0152L77.3583 64.095L77.5004 64.1585L77.6277 64.2539L77.7544 64.3335L77.8965 64.4133L78.024 64.5085L78.1185 64.3812L78.1981 64.2539L78.2925 64.1267L78.3881 63.9994L78.4827 63.8562L78.5623 63.7289L78.6577 63.6014L78.7525 63.4742L78.8319 63.3469L78.9265 63.2194L79.0221 63.0921L79.1017 62.9648L79.1962 62.8217L79.2917 62.6942L79.3863 62.5669L79.4658 62.4396L79.5604 62.3121L79.4342 62.2167L79.3077 62.1212L79.1804 62.0254L79.0538 61.946L78.9106 61.8506L78.7844 61.7708L78.6419 61.6912L78.4985 61.6119L78.3723 61.5481L78.2298 61.4685L78.0708 61.4048L77.9283 61.341L77.786 61.2775L77.6438 61.2298L77.4846 61.1662L77.3423 61.1342L77.1998 61.0864L77.0408 61.0387L76.8983 61.0069L76.7402 60.975L76.5821 60.9431L76.4387 60.9114L76.2804 60.8796L76.1063 60.8635L75.9479 60.8319L75.7729 60.8158H75.6148L75.4406 60.7998L75.2665 60.7842H75.0923H74.9181H74.7429H74.5848L74.4267 60.7998L74.2683 60.8158L74.1092 60.8319L73.951 60.8477L73.8085 60.8796L73.6504 60.9114L73.5073 60.9431L73.3646 60.975L73.2383 61.0069L73.095 61.0546L72.9369 61.1181L72.7785 61.1662L72.6354 61.2298L72.4931 61.3092L72.3506 61.3729L72.2075 61.4525L72.0813 61.5321L71.9546 61.6275L71.8273 61.7231L71.7169 61.8027L71.5896 61.9142L71.479 62.0417L71.3677 62.1529L71.2573 62.2802L71.1615 62.4075L71.0669 62.535L70.9875 62.6781L70.9087 62.8217L70.8452 62.9648L70.7815 63.1079L70.7188 63.2512L70.6869 63.3944L70.6392 63.5379L70.6073 63.681L70.5754 63.8242L70.5594 63.9835L70.5437 64.1267L70.5277 64.2858V64.445V64.4769V64.6521L70.5437 64.8271L70.5594 64.9862L70.5754 65.1454L70.6073 65.2885L70.6392 65.4479L70.6869 65.5752L70.7335 65.7185L70.7815 65.8458L70.8452 65.9564L70.9246 66.0994L71.0033 66.2269L71.0831 66.3383L71.1775 66.4496L71.2729 66.561L71.3835 66.6725L71.495 66.7839L71.6054 66.8796L71.7327 66.9592L71.8592 67.0546L72.0015 67.1342L72.1288 67.2137L72.2871 67.2933L72.4294 67.3729L72.5885 67.4367L72.7469 67.5002L72.905 67.5639L73.0792 67.6277L73.2225 67.6754L73.3646 67.7231L73.5073 67.7708L73.6652 67.8029L73.8085 67.8504L73.9669 67.8981L74.125 67.9302L74.2842 67.9779L74.4423 68.0096L74.6167 68.0575L74.775 68.0892L74.949 68.1371L75.1081 68.1687L75.2665 68.2164L75.4087 68.2483L75.5521 68.2962L75.6783 68.3281L75.789 68.36L75.979 68.4394L76.1381 68.5031L76.2804 68.5669L76.4067 68.6304L76.5342 68.7258L76.6446 68.8214L76.7244 68.9327L76.7881 69.0921L76.8038 69.2831V69.3148L76.7881 69.4742L76.7402 69.6173L76.6765 69.7446L76.5821 69.8562L76.4548 69.9517L76.3442 70.0152L76.2169 70.0629L76.0744 70.0948L75.9321 70.1267L75.7729 70.1585L75.5988 70.1744H75.4087H75.2504L75.0765 70.1585H74.9181L74.759 70.1267L74.5848 70.1108L74.4267 70.0789L74.2683 70.0473L74.1092 70.0152L73.9669 69.9675L73.8085 69.9198L73.6504 69.8719L73.5073 69.8083L73.3646 69.7606L73.2225 69.6969L73.0792 69.6333L72.9369 69.5696L72.8106 69.4898L72.6671 69.4262L72.5408 69.3467L72.3985 69.2512L72.2712 69.1717L72.1288 69.0762L72.0015 68.9806L71.8592 68.8852L71.7327 68.7896L71.6371 68.9169L71.5267 69.0283L71.4312 69.1558L71.3208 69.2831L71.2252 69.3944L71.1306 69.5219L71.0194 69.6492L70.9246 69.7606L70.8131 69.8879L70.7188 69.9994L70.6073 70.1267L70.5127 70.2539L70.4173 70.3654L70.3067 70.4927L70.211 70.6202L70.1006 70.7317L70.0052 70.8589L70.1315 70.9702L70.2429 71.0658L70.3694 71.1612L70.4969 71.2569L70.6231 71.3523L70.7496 71.4479L70.8769 71.5275L71.0033 71.6069L71.1467 71.6867L71.2729 71.766L71.4154 71.8458L71.5585 71.9096L71.7008 71.9879L71.8433 72.0517L71.9865 72.1154L72.1448 72.1792L72.2871 72.2269L72.4454 72.2746L72.5885 72.3383L72.7469 72.386L72.905 72.4337L73.0475 72.4658L73.2065 72.5133L73.3646 72.5452L73.5229 72.5771L73.6812 72.6089L73.8404 72.6406L73.9987 72.6567L74.1569 72.6883L74.331 72.7044L74.4902 72.7204L74.6485 72.7362H74.8225L74.9808 72.7521H75.1392H75.3142H75.4883H75.6465L75.8048 72.7362L75.979 72.7204L76.1381 72.7044L76.2804 72.6883L76.4387 72.6725L76.5979 72.6406L76.7402 72.6089L76.8825 72.5771L77.0408 72.5452L77.1842 72.4975L77.3423 72.4496L77.5004 72.4021L77.6587 72.3383L77.8179 72.2746L77.9602 72.195L78.1025 72.1312L78.2458 72.0517L78.3723 71.9562L78.4985 71.8777L78.6258 71.7823L78.7365 71.6867L78.8638 71.5752L78.9583 71.4796L79.0698 71.3681L79.1642 71.2569L79.244 71.1296L79.3385 71.0023L79.4181 70.8748L79.4977 70.7475L79.5604 70.6044L79.6242 70.4769L79.6877 70.3335L79.7356 70.1744L79.7665 70.031L79.814 69.8719L79.846 69.7127L79.8619 69.5379ZM68.6054 72.5612H68.7644H68.9229V72.4021V72.2585V72.0994V71.9404V71.7823V71.6387V71.4796V71.3206V71.1771V71.0181V70.8589V70.7156V70.5564V70.3973V70.2381V70.0948V69.9356H68.7644H68.6054H68.4471H68.289H68.1308H67.9715H67.8131H67.6552H67.4969H67.3217H67.1635H67.0054H66.8471H66.6877H66.5296H66.3712H66.2131H66.054H65.8956H65.7375H65.5794H65.4208H65.2619H65.1035H64.9454H64.7871H64.6277H64.4696H64.3115H64.1373H63.9781H63.8198H63.6617H63.5033H63.3444H63.186H63.0277H62.8694H62.7102V69.7765V69.6014V69.4421V69.2831V69.1079V68.9489V68.7896V68.6146V68.4554V68.2962V68.121V67.9619H62.8694H63.0277H63.186H63.3444H63.5033H63.6617H63.8198H63.9781H64.1215H64.2796H64.4379H64.596H64.7552H64.9135H65.0719H65.2298H65.3892H65.5473H65.7056H65.864H66.0229H66.1812H66.3396H66.4979H66.6571H66.8152H66.9575H67.1158H67.2748H67.4331H67.5915H67.7496H67.9087H68.0671H68.2252V67.8029V67.6594V67.5002V67.341V67.1979V67.0387V66.8796V66.7204V66.5771V66.4177V66.2587V66.1154V65.9564V65.7979V65.6548V65.4956H68.0671H67.9087H67.7496H67.5915H67.4331H67.2748H67.1158H66.9575H66.8152H66.6571H66.4979H66.3396H66.1812H66.0229H65.864H65.7056H65.5473H65.3892H65.2298H65.0719H64.9135H64.7552H64.596H64.4379H64.2796H64.1215H63.9781H63.8198H63.6617H63.5033H63.3444H63.186H63.0277H62.8694H62.7102V65.3364V65.1773V65.0181V64.8589V64.6996V64.5406V64.3973V64.2381V64.0787V63.9198V63.7606V63.6014H62.8694H63.0277H63.186H63.3444H63.5033H63.6617H63.8037H63.9621H64.1215H64.2796H64.4379H64.596H64.7552H64.9135H65.0719H65.2298H65.3892H65.5473H65.7056H65.8479H66.0071H66.1654H66.3235H66.4817H66.641H66.7992H66.9575H67.1158H67.2748H67.4331H67.5915H67.7496H67.8929H68.051H68.2092H68.3677H68.5267H68.685H68.8433V63.4423V63.2989V63.1398V62.9806V62.8217V62.6781V62.5189V62.3598V62.2167V62.0575V61.8981V61.755V61.5958V61.4364V61.2775V61.1342V60.975H68.685H68.5267H68.3677H68.2092H68.051H67.8929H67.7335H67.5754H67.4173H67.259H67.1H66.9417H66.7833H66.6252H66.4817H66.3235H66.1654H66.0071H65.8479H65.6898H65.5315H65.3733H65.214H65.0556H64.8975H64.7394H64.581H64.4219H64.2637H64.1054H63.9473H63.7879H63.6296H63.4715H63.3133H63.1542H62.9958H62.8375H62.6794H62.5204H62.3619H62.2037H62.0454H61.9023H61.744H61.5858H61.4275H61.2685H61.11H60.9519H60.7937H60.6344H60.4762H60.3179H60.1598H60.0008H59.8423H59.6842V61.1342V61.2935V61.4525V61.6119V61.7708V61.93V62.0892V62.2485V62.4075V62.5669V62.7258V62.8852V63.0442V63.2035V63.3625V63.5219V63.681V63.8402V63.9835V64.1425V64.3019V64.4608V64.6202V64.7794V64.9385V65.0977V65.2569V65.4158V65.5752V65.7344V65.8935V66.0519V66.211V66.3702V66.5294V66.6883V66.8477V67.0067V67.166V67.3252V67.4844V67.6435V67.8029V67.9619V68.121V68.28V68.4394V68.5985V68.7577V68.9169V69.0762V69.2352V69.3944V69.5535V69.6969V69.8562V70.0152V70.1744V70.3335V70.4927V70.6519V70.8112V70.9702V71.1296V71.2887V71.4479V71.6069V71.766V71.9252V72.0837V72.2427V72.4021V72.5612H59.8423H60.0008H60.1598H60.3179H60.4762H60.6344H60.7937H60.9519H61.11H61.2842H61.4427H61.6017H61.7598H61.9183H62.0762H62.2356H62.394H62.5521H62.7102H62.8694H63.0277H63.186H63.3444H63.5033H63.6617H63.8198H63.9781H64.1373H64.3115H64.4696H64.6277H64.7871H64.9454H65.1035H65.2619H65.4208H65.5794H65.7375H65.8956H66.054H66.2131H66.3712H66.5296H66.6877H66.8471H67.0054H67.1635H67.3217H67.4969H67.6552H67.8131H67.9715H68.1308H68.289H68.4471H68.6054ZM57.186 72.5612H57.0277H56.8694H56.6946H56.5363H56.3779H56.2198H56.0604H55.9023H55.7281H55.57H55.4115H55.2525H55.0942H54.936H54.7619H54.6027H54.4444H54.286V72.4021V72.2427V72.0837V71.9244V71.7642V71.6052V71.4458V71.2867V71.1275V70.9685V70.8092V70.6494V70.49V70.3308V70.1717V70.0125V69.8523V69.6929V69.5339V69.3748V69.2156V69.0564V68.8965V68.7373V68.5779V68.4187V68.2596V68.1004V67.9402V67.781V67.6219V67.4629V67.3037V67.1446V66.9844V66.8252V66.666V66.5069V66.3477V66.1875V66.0285V65.8692V65.71L54.2067 65.8373L54.1121 65.9817L54.0323 66.1089L53.9379 66.2362L53.8583 66.3794L53.7627 66.5069L53.6842 66.6342L53.6044 66.7783L53.51 66.9056L53.4302 67.0329L53.335 67.1604L53.2562 67.3046L53.1608 67.4319L53.0821 67.5592L53.0025 67.7025L52.9069 67.8306L52.8283 67.9581L52.7327 68.1012L52.6542 68.2287L52.5588 68.356L52.48 68.5002L52.4004 68.6277L52.305 68.755L52.2263 68.8983L52.1308 69.0265L52.0521 69.1537L51.9567 69.2812L51.8769 69.4244L51.7983 69.5525L51.7029 69.68L51.6244 69.8233L51.5288 69.9506L51.4492 70.0779L51.3546 70.2223L51.275 70.3496H51.2123L51.1169 70.2062L51.0371 70.0779L50.9425 69.9346L50.8629 69.8073L50.7683 69.6642L50.6888 69.5358L50.5944 69.3925L50.5146 69.2652L50.4192 69.1221L50.3404 68.9948L50.245 68.8504L50.1665 68.7231L50.071 68.5798L49.9913 68.4525L49.8967 68.3083L49.8171 68.181L49.7225 68.0377L49.6271 67.9104L49.5475 67.7662L49.4529 67.6389L49.3733 67.4956L49.2788 67.3683L49.1992 67.2239L49.1046 67.0967L49.025 66.9535L48.9296 66.8262L48.8508 66.6829L48.7554 66.5546L48.6767 66.4114L48.5813 66.2839L48.5017 66.1406L48.4071 66.0135L48.3273 65.8692L48.2327 65.7419V65.901V66.0602V66.2196V66.3794V66.5387V66.6977V66.8571V67.0162V67.1762V67.3356V67.4787V67.6379V67.7971V67.9562V68.1164V68.2756V68.4348V68.5937V68.7531V68.9123V69.0723V69.2317V69.3908V69.55V69.7092V69.8683V70.0283V70.1875V70.3467V70.5058V70.665V70.825V70.9685V71.1275V71.2867V71.4458V71.6052V71.7642V71.9244V72.0837V72.2427V72.4021V72.5612H48.0746H47.9156H47.7571H47.599H47.4408H47.2817H47.1233H46.9652H46.8067H46.6477H46.4894H46.331H46.1729H46.0138H45.8556H45.6973H45.539H45.3798H45.2217V72.4021V72.2427V72.0837V71.9252V71.766V71.6069V71.4479V71.2887V71.1296V70.9702V70.8112V70.6519V70.4927V70.3335V70.1744V70.0152V69.8562V69.6969V69.5535V69.3944V69.2352V69.0762V68.9169V68.7577V68.5985V68.4394V68.28V68.121V67.9619V67.8029V67.6435V67.4844V67.3252V67.166V67.0067V66.8477V66.6883V66.5294V66.3702V66.211V66.0519V65.8935V65.7344V65.5752V65.4158V65.2569V65.0977V64.9385V64.7794V64.6202V64.4608V64.3019V64.1425V63.9835V63.8402V63.681V63.5219V63.3625V63.2035V63.0442V62.8852V62.7258V62.5669V62.4075V62.2485V62.0892V61.93V61.7708V61.6119V61.4525V61.2935V61.1342V60.975H45.3798H45.539H45.6815H45.8394H45.9979H46.1569H46.2994H46.4575H46.6169H46.775H46.9173H47.0756H47.2348H47.3929H47.5352H47.6933H47.8527H48.011H48.1533H48.3115H48.4706L48.5494 61.1025L48.629 61.2454L48.7233 61.3719L48.8031 61.5152L48.8827 61.6425L48.9613 61.786L49.0408 61.9123L49.1356 62.0556L49.215 62.1829L49.2948 62.3102L49.3733 62.4525L49.4529 62.58L49.5475 62.7231L49.6271 62.8506L49.7067 62.9927L49.7852 63.12L49.8808 63.2473L49.9604 63.39L50.039 63.5171L50.1185 63.6604L50.1973 63.7877L50.2929 63.93L50.3725 64.0575L50.4508 64.2006L50.5306 64.3271L50.6092 64.4544L50.7048 64.5975L50.7844 64.725L50.8629 64.8683L50.9425 64.9948L51.0213 65.1381L51.1169 65.2654L51.1965 65.4075L51.275 65.535L51.3546 65.4075L51.4342 65.2654L51.5288 65.1381L51.6081 64.9948L51.6869 64.8683L51.7665 64.725L51.861 64.5975L51.9406 64.4544L52.0204 64.3271L52.099 64.2006L52.1944 64.0575L52.2731 63.93L52.3527 63.7877L52.4321 63.6604L52.5267 63.5171L52.6063 63.39L52.686 63.2473L52.7646 63.12L52.8444 62.9927L52.9388 62.8506L53.0183 62.7231L53.0979 62.58L53.1767 62.4525L53.2721 62.3102L53.3508 62.1829L53.4302 62.0556L53.51 61.9123L53.6044 61.786L53.6842 61.6425L53.7627 61.5152L53.8423 61.3719L53.9379 61.2454L54.0165 61.1025L54.096 60.975H54.2544H54.4127H54.5558H54.7142H54.8723H55.0306H55.1738H55.3321H55.4902H55.6485H55.7919H55.95H56.1083H56.2667H56.4098H56.5681H56.7263H56.8844H57.0277H57.186H57.3442V61.1342V61.2935V61.4525V61.6119V61.7708V61.93V62.0892V62.2485V62.4075V62.5669V62.7258V62.8852V63.0442V63.2035V63.3625V63.5219V63.681V63.8402V63.9835V64.1425V64.3019V64.4608V64.6202V64.7794V64.9385V65.0977V65.2569V65.4158V65.5752V65.7344V65.8935V66.0519V66.211V66.3702V66.5294V66.6883V66.8477V67.0067V67.166V67.3252V67.4844V67.6435V67.8029V67.9619V68.121V68.28V68.4394V68.5985V68.7577V68.9169V69.0762V69.2352V69.3944V69.5535V69.6969V69.8562V70.0152V70.1744V70.3335V70.4927V70.6519V70.8112V70.9702V71.1296V71.2887V71.4479V71.6069V71.766V71.9252V72.0837V72.2427V72.4021V72.5612H57.186ZM38.7517 67.6427L38.7994 67.7869L38.8629 67.9302H38.7048H38.5456H38.3875H38.2292H38.0708H37.9127H37.7535H37.5952H37.4531H37.2937H37.1354H36.9773H36.819H36.66H36.5017H36.3433H36.1852L36.2479 67.7869L36.2956 67.6427L36.3594 67.4835L36.4231 67.3402L36.4698 67.196L36.5333 67.0527L36.5971 66.8935L36.66 66.7494L36.7075 66.606L36.7713 66.4629L36.8348 66.3187L36.8817 66.1594L36.9454 66.0162L37.009 65.8721L37.0569 65.7287L37.1196 65.5854L37.1833 65.4254L37.2469 65.2821L37.2937 65.1389L37.3575 64.9948L37.4213 64.8354L37.469 64.6912L37.5315 64.5481L37.5952 64.6912L37.6431 64.8354L37.7056 64.9948L37.7694 65.1389L37.8173 65.2821L37.8808 65.4254L37.9435 65.5854L37.9913 65.7287L38.055 65.8721L38.1188 66.0162L38.1654 66.1594L38.2292 66.3187L38.2771 66.4629L38.3396 66.606L38.4033 66.7494L38.4513 66.8935L38.5148 67.0527L38.5775 67.196L38.6252 67.3402L38.689 67.4835L38.7517 67.6427ZM43.776 72.5612H43.6169H43.4744H43.3165H43.1571H42.999H42.8406H42.6983H42.539H42.3808H42.2227H42.0644H41.9052H41.7629H41.6046H41.4462H41.2871H41.129H40.9867H40.8283H40.6694L40.6065 72.4179L40.5588 72.2746L40.4952 72.1312L40.4315 71.9721L40.3846 71.8298L40.321 71.6867L40.2573 71.5433L40.2104 71.4002L40.1469 71.2569L40.0831 71.1135L40.0354 70.9702L39.9727 70.8112L39.909 70.6679L39.861 70.5246L39.7973 70.3814H39.6392H39.481H39.3227H39.1646H39.0213H38.8629H38.7048H38.5456H38.3875H38.2292H38.0708H37.9127H37.7535H37.5952H37.4531H37.2937H37.1354H36.9773H36.819H36.66H36.5017H36.3433H36.1852H36.0271H35.8835H35.7256H35.5671H35.4079H35.2498L35.1871 70.5246L35.1394 70.6679L35.0756 70.8112L35.0119 70.9702L34.9652 71.1135L34.9015 71.2569L34.8377 71.4002L34.79 71.5433L34.7273 71.6867L34.6635 71.8298L34.6158 71.9721L34.5531 72.1312L34.4894 72.2746L34.4417 72.4179L34.3779 72.5612H34.2198H34.0617H33.9033H33.7442H33.5858H33.4117H33.2535H33.0952H32.936H32.7779H32.6198H32.4613H32.3021H32.1442H31.9858H31.8117H31.6525H31.4942H31.3358H31.1777L31.2404 72.4179L31.3042 72.2746L31.3677 72.1312L31.4304 71.9721L31.4783 71.8298L31.5421 71.6867L31.6056 71.5433L31.6683 71.4002L31.7321 71.2569L31.7956 71.0975L31.8583 70.9544L31.9221 70.8112L31.9698 70.6679L32.0335 70.5246L32.096 70.3814L32.1598 70.2223L32.2233 70.0789L32.2863 69.9356L32.35 69.7925L32.4135 69.6492L32.4613 69.5058L32.524 69.3467L32.5877 69.2035L32.6515 69.0602L32.7142 68.9169L32.7779 68.7737L32.8417 68.6304L32.9044 68.471L32.9521 68.3281L33.0158 68.1848L33.0794 68.0414L33.1423 67.8981L33.2058 67.755L33.2694 67.5958L33.3323 67.4525L33.3958 67.3092L33.4435 67.166L33.5073 67.0229L33.57 66.8796L33.6338 66.7204L33.6975 66.5771L33.76 66.4337L33.8238 66.2904L33.8875 66.1475L33.9352 66.0039L33.9979 65.8617L34.0617 65.7025L34.1252 65.5594L34.1879 65.4158L34.2515 65.2727L34.3152 65.1296L34.3779 64.9862L34.4256 64.8271L34.4894 64.6839L34.5531 64.5406L34.6158 64.3973L34.6796 64.2539L34.7431 64.1108L34.806 63.9514L34.8696 63.8083L34.9173 63.6652L34.9808 63.5219L35.0437 63.3785L35.1073 63.2352L35.171 63.0762L35.2338 62.9329L35.2975 62.7896L35.3613 62.6464L35.4079 62.5033L35.4717 62.3598L35.5354 62.2006L35.5992 62.0575L35.6619 61.9142L35.7256 61.7708L35.7892 61.6275L35.8519 61.4846L35.8998 61.3252L35.9633 61.1819L36.0271 61.0387L36.0896 60.8954H36.2479H36.3913H36.5494H36.7075H36.8669H37.009H37.1673H37.3256H37.4848H37.6273H37.7852H37.9435H38.1027H38.245H38.4033H38.5615H38.7208H38.8629H39.0213L39.0848 61.0387L39.1485 61.1819L39.2115 61.3252L39.275 61.4846L39.3227 61.6275L39.3854 61.7708L39.4492 61.9142L39.5127 62.0575L39.5765 62.2006L39.6392 62.3598L39.7029 62.5033L39.7667 62.6464L39.8133 62.7896L39.8771 62.9329L39.9408 63.0762L40.0046 63.2352L40.0673 63.3785L40.1308 63.5219L40.1946 63.6652L40.2573 63.8083L40.305 63.9514L40.3685 64.1108L40.4315 64.2539L40.4952 64.3973L40.5588 64.5406L40.6225 64.6839L40.6852 64.8271L40.7488 64.9862L40.7967 65.1296L40.8594 65.2727L40.9229 65.4158L40.9867 65.5594L41.0504 65.7025L41.1129 65.8617L41.1767 66.0039L41.2402 66.1475L41.2871 66.2904L41.3508 66.4337L41.4146 66.5771L41.4773 66.7204L41.5408 66.8796L41.6046 67.0229L41.6683 67.166L41.731 67.3092L41.7788 67.4525L41.8423 67.5958L41.9052 67.755L41.9688 67.8981L42.0325 68.0414L42.096 68.1848L42.159 68.3281L42.2227 68.471L42.2702 68.6304L42.3331 68.7737L42.3967 68.9169L42.4604 69.0602L42.5231 69.2035L42.5869 69.3467L42.6506 69.5058L42.7144 69.6492L42.761 69.7925L42.8248 69.9356L42.8885 70.0789L42.9513 70.2223L43.0148 70.3814L43.0785 70.5246L43.1421 70.6679L43.2046 70.8112L43.2527 70.9544L43.3165 71.0975L43.379 71.2569L43.4425 71.4002L43.5063 71.5433L43.569 71.6867L43.6325 71.8298L43.6963 71.9721L43.7442 72.1312L43.8067 72.2746L43.8704 72.4179L43.934 72.5612H43.776Z" fill="white"/>
<path d="M24.7958 34.7595H31.664V29.4468H24.7958V18.6013H31.9373V13.2887H18.9636V51.6301H32.046V46.3174H24.7958V34.7595Z" fill="white"/>
<path d="M73.9885 35.9101V44.5645C73.9885 46.0985 73.2796 46.8099 71.8087 46.8099H70.7179C69.1919 46.8099 68.4829 46.0985 68.4829 44.5645V20.3539C68.4829 18.8203 69.1919 18.1087 70.7179 18.1087H71.6992C73.171 18.1087 73.88 18.8203 73.88 20.3539V27.8587H79.6027V20.0253C79.6027 15.2605 77.3133 12.9598 72.5721 12.9598H69.7367C64.9952 12.9598 62.6506 15.3148 62.6506 20.0805V44.838C62.6506 49.6039 64.9952 51.9587 69.7367 51.9587H72.626C77.3687 51.9587 79.7121 49.6039 79.7121 44.838V35.9101H73.9885Z" fill="white"/>
<path d="M53.7354 51.6306H59.5685V13.2891H53.7354V51.6306Z" fill="white"/>
<path fill-rule="evenodd" clip-rule="evenodd" d="M34.8613 13.2886H44.0185C48.761 13.2886 51.1046 15.6436 51.1046 20.4092V30.5977C51.1046 35.3624 48.761 37.7172 44.0185 37.7172H40.6938V51.6302H34.8613V13.2886ZM43.0925 32.5693C44.5644 32.5693 45.2723 31.8568 45.2723 30.3231V20.6827C45.2723 19.1492 44.5644 18.4374 43.0925 18.4374H40.6938V32.5693H43.0925Z" fill="white"/>
<path fill-rule="evenodd" clip-rule="evenodd" d="M32.7229 86.299H66.1112L49.0694 91.919L32.7229 86.299Z" fill="white"/>
</svg>
