<svg width="100" height="100" viewBox="0 0 100 100" fill="none" xmlns="http://www.w3.org/2000/svg">
<path d="M15.6808 69.294C7.91954 61.0692 3.37832 49.707 3.38983 36.1506C3.37937 24.1614 7.14611 13.8561 13.6218 6.01454L13.6116 6.01847H0V69.2953H15.6714L15.6808 69.294ZM87.3676 69.2995C90.7112 65.7182 93.7071 61.5008 96.4218 56.6776L81.3559 49.1449C76.0646 57.7469 68.3268 65.6646 57.6271 65.7171C42.0546 65.6646 35.9361 52.3482 35.9699 35.2087H94.1619C94.2396 33.2736 94.2396 32.3739 94.1619 31.4425C94.5417 21.2455 91.8393 12.6744 86.9232 5.99963L86.8979 6.01847H100V69.2953H87.3391L87.3676 69.2995ZM36.9115 20.5194C37.5557 12.7594 43.6739 7.54101 50.8475 7.52506C58.0699 7.54101 63.2883 12.7594 63.4652 20.5194H36.9115Z" fill="#A90432"/>
<path d="M8.28622 80.0298V77.3935H0.188293V93.0241H8.28622V90.3876H3.20148V86.2447H8.0979V83.6079H3.20148V80.0298H8.28622ZM22.0339 86.4328C24.0526 86.133 25.1611 84.1329 25.2354 82.1016C25.1611 78.7782 23.0069 77.4032 19.9623 77.3935H15.8192V93.0241H18.8324V86.8097L22.5988 93.0241H26.3653L22.0339 86.4328ZM18.8324 79.8414H19.209C20.8529 79.9034 22.0867 80.2785 22.0339 82.2896C22.0867 84.1329 20.8948 84.6327 19.209 84.5495H18.8324V79.8414ZM35.7815 77.3935H32.7683V93.0241H40.113V90.3876H35.7815V77.3935ZM55.5555 89.8226L56.8738 93.0241H60.0753L54.2373 77.0166H51.789L45.5744 93.0241H48.7759L50.0941 89.8226H55.5555ZM54.8022 87.3746H51.0357L52.7307 81.5366L54.8022 87.3746ZM65.725 93.0241H68.9265V82.478L77.2128 93.4007H79.4727V77.3935H76.2711V87.9396L67.9849 77.0166H65.725V93.0241ZM92.6553 84.7379V87.1861H96.0452C95.9745 89.1538 94.3644 90.8207 92.467 90.7642C89.4706 90.8207 87.9857 87.9247 87.9472 85.3028C87.9857 82.716 89.4496 79.695 92.467 79.6534C94.0505 79.695 95.3892 80.7783 96.0452 82.1016L98.6817 80.7831C97.5222 78.3409 95.1799 76.9865 92.467 77.0166C87.7974 76.9865 84.8069 80.8409 84.7457 85.3028C84.8069 89.6539 87.7139 93.5292 92.2787 93.5891C97.2086 93.5292 99.4881 89.5914 99.435 85.1145V84.7379H92.6553Z" fill="#231F20"/>
</svg>
