<svg width="100" height="100" viewBox="0 0 100 100" fill="none" xmlns="http://www.w3.org/2000/svg">
<g clip-path="url(#clip0_755_13026)">
<path d="M50 99.9991C77.6142 99.9991 100 77.6134 100 49.9991C100 22.3849 77.6142 -0.000854492 50 -0.000854492C22.3858 -0.000854492 0 22.3849 0 49.9991C0 77.6134 22.3858 99.9991 50 99.9991Z" fill="#FFCF00"/>
<path d="M27.0645 22.9347L54.1293 49.9991L27.0645 77.0636L20.4355 70.4347L40.8707 49.9991L20.4355 29.5636L27.0645 22.9347ZM57.0645 22.9347L84.1293 49.9991L57.0645 77.0636L50.4355 70.4347L70.8707 49.9991L50.4355 29.5636L57.0645 22.9347Z" fill="#191919"/>
</g>
<defs>
<clipPath id="clip0_755_13026">
<rect width="100" height="100" fill="white" transform="translate(0 -0.000854492)"/>
</clipPath>
</defs>
</svg>
