<svg width="100" height="100" viewBox="0 0 100 100" fill="none" xmlns="http://www.w3.org/2000/svg">
<path d="M0 50C0 22.3858 22.3858 0 50 0C77.6142 0 100 22.3858 100 50C100 77.6142 77.6142 100 50 100C22.3858 100 0 77.6142 0 50Z" fill="white"/>
<path d="M50.0783 20L49.6762 21.3669V61.0314L50.0783 61.4328L68.4901 50.5496L50.0783 20Z" fill="#343434"/>
<path d="M50.0785 20L31.6667 50.5496L50.0785 61.4329V42.181V20Z" fill="#8C8C8C"/>
<path d="M50.0783 64.9189L49.8517 65.1952V79.3245L50.0783 79.9866L68.5011 54.0412L50.0783 64.9189Z" fill="#3C3C3B"/>
<path d="M50.0785 79.9864V64.9187L31.6667 54.041L50.0785 79.9864Z" fill="#8C8C8C"/>
<path d="M50.0783 61.4328L68.4898 50.5497L50.0783 42.1811V61.4328Z" fill="#141414"/>
<path d="M31.6668 50.5498L50.0783 61.4328V42.1811L31.6668 50.5498Z" fill="#393939"/>
</svg>
