<svg width="100" height="100" viewBox="0 0 100 100" fill="none" xmlns="http://www.w3.org/2000/svg">
<path d="M50 100C77.6142 100 100 77.6142 100 50C100 22.3858 77.6142 0 50 0C22.3858 0 0 22.3858 0 50C0 77.6142 22.3858 100 50 100Z" fill="white"/>
<path fill-rule="evenodd" clip-rule="evenodd" d="M73.6367 30.4396C73.1912 28.0451 71.7733 26.8652 70.4913 26.4012C69.1081 25.8993 66.3036 25.3794 62.7797 24.9624C59.9447 24.6272 56.6126 24.6539 54.5999 24.7164C54.3583 23.0552 53.1978 21.5377 51.8992 21.0124C48.4395 19.6142 43.0938 19.952 41.7213 20.3382C40.6306 20.6442 39.4236 21.2714 38.7517 22.2378C38.3011 22.8833 38.0096 23.7104 38.0073 24.8658C38.0073 25.5198 38.0255 27.0602 38.0421 28.4288C38.0558 29.5724 38.0705 30.6153 38.0751 30.9367L38.0751 30.9368L38.0765 31.038C38.0759 32.2603 37.0891 33.2551 35.8662 33.2567H30.2566C29.0602 33.2567 28.1458 33.4586 27.4475 33.7771C26.7481 34.0959 26.2527 34.5259 25.8763 35.0344C25.127 36.0441 24.997 37.2903 25.0001 38.562C25.0001 38.562 25.0111 39.6012 25.2605 41.6125C25.4677 43.1688 27.1488 54.0406 28.7456 57.3471C29.3646 58.6335 29.777 59.1693 30.9933 59.7363C33.7032 60.9011 39.8931 62.197 42.7942 62.5681C43.2741 62.6297 43.7243 62.7026 44.1465 62.771C46.2722 63.1152 47.6871 63.3442 48.5908 61.4419C48.5944 61.4363 48.8078 60.8747 49.1012 60.0508C50.0416 57.1899 50.1725 54.6514 50.1725 52.8145C50.1725 52.6278 50.4455 52.6192 50.4455 52.8145C50.4455 52.8867 50.4447 52.969 50.4439 53.0604V53.0605C50.4295 54.6118 50.3909 58.7693 53.6518 59.932C55.015 60.4173 57.8428 60.85 60.7161 61.1881C63.3141 61.4879 65.1996 62.5144 65.1996 69.2064C65.1996 73.2777 64.3479 73.8359 59.8951 73.8359L59.5639 73.8361C56.201 73.8389 54.9098 73.8399 54.9098 71.0508C54.9098 68.9221 56.8282 68.9449 58.4557 68.9642C58.6072 68.966 58.7562 68.9678 58.9009 68.9678C59.3785 68.9678 59.3373 68.7433 59.2412 68.219L59.2412 68.2189C59.1846 67.9102 59.109 67.4975 59.109 66.9655C59.109 66.3602 59.2688 65.8632 59.3889 65.4897L59.3889 65.4897C59.5521 64.9822 59.6418 64.7031 59.1571 64.691C53.2827 64.5287 49.8261 64.6843 49.8261 72.0604C49.8261 78.7566 52.3785 80 60.7161 80C67.2532 80 69.5576 79.7851 72.2568 71.3767C72.7911 69.7167 74.0828 64.6511 74.8645 56.1457C75.3586 50.7678 74.3984 34.5363 73.6367 30.4396ZM62.2413 48.3806C61.4337 48.3522 60.6569 48.4034 59.9325 48.5203C60.1363 46.8673 60.8159 44.839 63.2233 44.9239C65.8882 45.016 66.2616 47.5447 66.2712 49.2576C65.1474 48.7546 63.7564 48.434 62.2413 48.3806ZM29.9976 31.621H29.9939C28.6164 31.621 27.4656 31.8567 26.5166 32.2866C26.4734 32.3056 26.1703 32.4561 25.9454 32.5678L25.9394 32.5708C25.9456 32.5474 25.9589 32.5246 25.9802 32.507L36.878 21.6572C36.8994 21.6358 36.9209 21.6252 36.9423 21.6216L36.7505 21.9833C36.3491 22.7885 36.1187 23.7496 36.1187 24.8519V24.8677C36.1187 26.1591 36.1818 30.6763 36.1865 31.0176L36.1868 31.038C36.1861 31.3582 35.9276 31.621 35.6062 31.621H29.9976Z" fill="#20C05C"/>
</svg>
