<svg width="100" height="100" viewBox="0 0 100 100" fill="none" xmlns="http://www.w3.org/2000/svg">
<path d="M7.59394 75.7638C7.59394 84.5336 14.7584 90.8439 25.9909 90.8439H60.3204C67.702 90.8439 74.2247 84.9614 74.2247 78.2233C74.2247 72.3408 69.198 67.7436 62.6737 67.7436H23.3159C19.6789 67.7436 17.9674 65.2825 19.4666 62.1812H68.8779C85.5617 62.1812 100 49.5606 100 33.8371C100 20.5762 89.0909 10.4167 74.3325 10.4167H48.7695C40.9632 10.4167 33.7971 15.0155 30.4819 22.0738L25.1335 33.517H85.9896C87.7011 33.517 88.8769 34.8006 88.8769 36.2998C88.8769 37.7957 87.7011 39.0777 85.9896 39.0777H10.8014L0 62.1812H11.7649C8.44969 69.3473 7.59394 72.8748 7.59394 75.7638Z" fill="#DA3940"/>
</svg>
