<svg width="100" height="100" viewBox="0 0 100 100" fill="none" xmlns="http://www.w3.org/2000/svg">
<path d="M100 50C100 22.3829 77.6171 0 50 0C22.3829 0 0 22.3829 0 50C0 74.961 18.2812 95.6446 42.1875 99.3946V64.4531H29.4921V50H42.1875V38.9844C42.1875 26.455 49.6485 19.5312 61.0742 19.5312C66.5429 19.5312 72.2656 20.5078 72.2656 20.5078V32.8125H65.9571C59.746 32.8125 57.8125 36.67 57.8125 40.625V50H71.6796L69.4629 64.4531H57.8125V99.3946C81.7187 95.6446 100 74.961 100 50Z" fill="#1877F2"/>
<path d="M69.4629 64.4531L71.6796 50H57.8125V40.625C57.8125 36.67 59.7461 32.8125 65.9571 32.8125H72.2656V20.5078C72.2656 20.5078 66.5429 19.5312 61.0742 19.5312C49.6486 19.5312 42.1875 26.455 42.1875 38.9844V50H29.4921V64.4531H42.1875V99.3946C44.7363 99.795 47.3438 100 50 100C52.6563 100 55.2638 99.795 57.8125 99.3946V64.4531H69.4629Z" fill="white"/>
</svg>
