<svg width="100" height="100" viewBox="0 0 100 100" fill="none" xmlns="http://www.w3.org/2000/svg">
<path d="M50 100C77.6142 100 100 77.6142 100 50C100 22.3858 77.6142 0 50 0C22.3858 0 0 22.3858 0 50C0 77.6142 22.3858 100 50 100Z" fill="#4E99C7"/>
<path d="M65.0375 63.0345H54.7378V75.2413C54.7378 77.8695 52.6166 80 50 80C47.3833 80 45.2621 77.8695 45.2621 75.2413V63.0345H34.9625C33.1423 63.0345 31.6667 61.5524 31.6667 59.7242V38.207C31.6667 38.1368 31.6729 38.0683 31.6771 37.9994C31.8972 28.0218 40.0132 20 50 20C59.9868 20 68.1028 28.0218 68.3229 37.9994C68.3271 38.0683 68.3333 38.1368 68.3333 38.207V59.7242C68.3333 61.5524 66.8577 63.0345 65.0375 63.0345" fill="#FFFFFE"/>
</svg>
