<svg width="100" height="100" viewBox="0 0 100 100" fill="none" xmlns="http://www.w3.org/2000/svg">
<path d="M74.9823 20.9773C68.7958 23.0421 65.8171 26.746 63.7877 32.5144C63.2639 34.055 61.9545 35.7592 60.4816 36.9063L65.5552 42.3473L49.4506 31.0724L5 0.000488281C5 0.000488281 8.20779 20.846 9.32071 28.5156C10.1063 33.9237 11.4483 36.3492 15.7035 38.8076L17.4056 39.7253L24.7377 43.5927L20.3843 41.3311L40.4819 52.3111L40.3513 52.6063L18.7149 42.5766C19.8606 46.5098 22.0864 54.0811 23.0356 57.4244C24.0503 61.0295 25.196 62.3408 28.6984 63.6189L35.1466 65.9789L39.14 64.4056L34.0665 67.7815L8.69877 100C25.556 84.3334 39.8274 78.7615 50.269 74.2057C63.5913 68.4369 71.6106 64.7334 76.8477 51.4263C80.5794 42.085 83.4926 30.1218 87.1913 25.5002L95.08 15.4053C95.08 15.4053 78.7465 19.7318 74.9823 20.9773Z" fill="white"/>
</svg>
