<svg width="100" height="100" viewBox="0 0 100 100" fill="none" xmlns="http://www.w3.org/2000/svg">
<path d="M0 50C0 22.3858 22.3858 0 50 0C77.6142 0 100 22.3858 100 50C100 77.6142 77.6142 100 50 100C22.3858 100 0 77.6142 0 50Z" fill="#333333"/>
<path d="M40 80C45.5228 80 50 75.5228 50 70V60H40C34.4772 60 30 64.4772 30 70C30 75.5228 34.4772 80 40 80Z" fill="#0ACF83"/>
<path d="M30 50C30 44.4772 34.4772 40 40 40H50V60H40C34.4772 60 30 55.5228 30 50Z" fill="#A259FF"/>
<path d="M30 30C30 24.4772 34.4772 20 40 20H50V40H40C34.4772 40 30 35.5228 30 30Z" fill="#F24E1E"/>
<path d="M50 20H60C65.5228 20 70 24.4772 70 30C70 35.5228 65.5228 40 60 40H50V20Z" fill="#FF7262"/>
<path d="M70 50C70 55.5228 65.5228 60 60 60C54.4772 60 50 55.5228 50 50C50 44.4772 54.4772 40 60 40C65.5228 40 70 44.4772 70 50Z" fill="#1ABCFE"/>
</svg>
