<svg width="100" height="100" viewBox="0 0 100 100" fill="none" xmlns="http://www.w3.org/2000/svg">
<path d="M95.4033 33.5769C93.2972 28.5092 89.0249 23.0375 85.6794 21.3079C88.065 25.9277 89.721 30.8891 90.5882 36.0157L90.597 36.097C85.1166 22.4397 75.8266 16.9243 68.235 4.93035C67.8511 4.32377 67.4671 3.71595 67.0932 3.07435C66.8793 2.70791 66.7079 2.37773 66.5591 2.07382C66.2443 1.46418 66.0017 0.819903 65.8362 0.154041C65.8365 0.123314 65.8254 0.0935817 65.8051 0.0705145C65.7848 0.0474473 65.7567 0.03266 65.7262 0.0289736C65.6963 0.0207783 65.6648 0.0207783 65.6349 0.0289736C65.6286 0.0289736 65.6186 0.0402296 65.6111 0.0427309C65.6036 0.0452323 65.5874 0.0564883 65.5761 0.061491L65.5949 0.0289736C53.4196 7.15779 49.2861 20.3524 48.9109 26.9559C44.047 27.2894 39.3965 29.0811 35.5663 32.0974C35.1668 31.759 34.7493 31.4426 34.3156 31.1494C33.2113 27.2835 33.1642 23.1921 34.1793 19.3018C29.708 21.4677 25.735 24.5383 22.5118 28.3191H22.4893C20.5682 25.8841 20.7033 17.8548 20.8134 16.1776C20.2451 16.406 19.7026 16.694 19.195 17.0368C17.4991 18.2472 15.9138 19.6053 14.4575 21.0953C12.7979 22.7778 11.2822 24.5964 9.92629 26.5319V26.5394V26.5307C6.81029 30.9476 4.59994 35.9379 3.42281 41.2135L3.35778 41.5337C3.26648 41.9602 2.93755 44.0963 2.88127 44.5603C2.88127 44.5966 2.87377 44.6304 2.87001 44.6666C2.44572 46.872 2.1828 49.1054 2.08334 51.349V51.5991C2.10477 63.7288 6.67279 75.4097 14.8856 84.3359C23.0985 93.2622 34.3594 98.7852 46.4453 99.8146C58.5313 100.844 70.564 97.305 80.1681 89.8962C89.7723 82.4874 96.2499 71.7473 98.3224 59.796C98.4037 59.1706 98.47 58.5516 98.5425 57.92C99.5409 49.6679 98.4601 41.2972 95.3983 33.5694L95.4033 33.5769ZM39.5359 71.5223C39.7623 71.6311 39.9749 71.7486 40.2075 71.8524L40.2413 71.8737C40.0062 71.7611 39.771 71.644 39.5359 71.5223V71.5223ZM90.5983 36.1108V36.0645L90.607 36.1158L90.5983 36.1108Z" fill="url(#paint0_linear_147648_1535)"/>
<path d="M95.4037 33.5782C93.2976 28.5105 89.0253 23.0388 85.6797 21.3091C88.0654 25.929 89.7213 30.8904 90.5886 36.017V36.0633L90.5974 36.1146C94.3341 46.8066 93.7937 58.5292 89.0891 68.8321C83.5336 80.7522 70.0914 92.97 49.0426 92.3697C26.3054 91.7256 6.26971 74.8478 2.5302 52.7485C1.84859 49.2629 2.5302 47.4957 2.87289 44.6629C2.40545 46.8633 2.14459 49.1026 2.09372 51.3515V51.6016C2.11514 63.7313 6.68316 75.4122 14.896 84.3385C23.1089 93.2647 34.3698 98.7877 46.4557 99.8171C58.5416 100.846 70.5743 97.3075 80.1785 89.8987C89.7826 82.49 96.2603 71.7498 98.3328 59.7985C98.414 59.1732 98.4803 58.5541 98.5529 57.9225C99.5513 49.6705 98.4705 41.2997 95.4087 33.572L95.4037 33.5782Z" fill="url(#paint1_radial_147648_1535)"/>
<path d="M95.4037 33.5782C93.2976 28.5105 89.0253 23.0388 85.6797 21.3091C88.0654 25.929 89.7213 30.8904 90.5886 36.017V36.0633L90.5974 36.1146C94.3341 46.8066 93.7937 58.5292 89.0891 68.8321C83.5336 80.7522 70.0914 92.97 49.0426 92.3697C26.3054 91.7256 6.26971 74.8478 2.5302 52.7485C1.84859 49.2629 2.5302 47.4957 2.87289 44.6629C2.40545 46.8633 2.14459 49.1026 2.09372 51.3515V51.6016C2.11514 63.7313 6.68316 75.4122 14.896 84.3385C23.1089 93.2647 34.3698 98.7877 46.4557 99.8171C58.5416 100.846 70.5743 97.3075 80.1785 89.8987C89.7826 82.49 96.2603 71.7498 98.3328 59.7985C98.414 59.1732 98.4803 58.5541 98.5529 57.9225C99.5513 49.6705 98.4705 41.2997 95.4087 33.572L95.4037 33.5782Z" fill="url(#paint2_radial_147648_1535)"/>
<path d="M71.8408 39.2688C71.9459 39.3426 72.0434 39.4164 72.1422 39.4902C70.9246 37.3311 69.4089 35.3544 67.6398 33.6183C52.5692 18.5477 63.6915 0.950763 65.5662 0.0502808L65.585 0.0227661C53.4097 7.15158 49.2762 20.3462 48.901 26.9497C49.4663 26.9109 50.0266 26.8634 50.6044 26.8634C54.9241 26.8717 59.1644 28.0237 62.8945 30.2022C66.6246 32.3807 69.7113 35.5081 71.8408 39.2663V39.2688Z" fill="url(#paint3_radial_147648_1535)"/>
<path d="M50.6296 42.2826C50.5495 43.4883 46.2898 47.6467 44.8002 47.6467C31.0178 47.6467 28.7791 55.9849 28.7791 55.9849C29.3895 63.0062 34.2821 68.7918 40.1965 71.8434C40.4667 71.9835 40.7405 72.1098 41.0144 72.2336C41.4889 72.4438 41.9633 72.638 42.4377 72.8165C44.4675 73.5347 46.5935 73.9449 48.7448 74.0334C72.9078 75.1665 77.5853 45.1429 60.1497 36.4257C64.2626 35.8906 68.4277 36.9019 71.8372 39.2635C69.7077 35.5053 66.6209 32.3779 62.8909 30.1994C59.1608 28.0209 54.9204 26.869 50.6008 26.8606C50.0255 26.8606 49.4627 26.9081 48.8974 26.9469C44.0335 27.2804 39.383 29.0721 35.5528 32.0884C36.2919 32.7137 37.1261 33.5492 38.8833 35.2814C42.1726 38.5218 50.6083 41.8786 50.6271 42.2726L50.6296 42.2826Z" fill="url(#paint4_radial_147648_1535)"/>
<path d="M50.6296 42.2826C50.5495 43.4883 46.2898 47.6467 44.8002 47.6467C31.0178 47.6467 28.7791 55.9849 28.7791 55.9849C29.3895 63.0062 34.2821 68.7918 40.1965 71.8434C40.4667 71.9835 40.7405 72.1098 41.0144 72.2336C41.4889 72.4438 41.9633 72.638 42.4377 72.8165C44.4675 73.5347 46.5935 73.9449 48.7448 74.0334C72.9078 75.1665 77.5853 45.1429 60.1497 36.4257C64.2626 35.8906 68.4277 36.9019 71.8372 39.2635C69.7077 35.5053 66.6209 32.3779 62.8909 30.1994C59.1608 28.0209 54.9204 26.869 50.6008 26.8606C50.0255 26.8606 49.4627 26.9081 48.8974 26.9469C44.0335 27.2804 39.383 29.0721 35.5528 32.0884C36.2919 32.7137 37.1261 33.5492 38.8833 35.2814C42.1726 38.5218 50.6083 41.8786 50.6271 42.2726L50.6296 42.2826Z" fill="url(#paint5_radial_147648_1535)"/>
<path d="M33.2949 30.4887C33.6876 30.7389 34.0115 30.9565 34.2954 31.1528C33.1911 27.2869 33.144 23.1955 34.1591 19.3052C29.6878 21.4711 25.7148 24.5417 22.4916 28.3226C22.728 28.3163 29.7592 28.19 33.2949 30.4887V30.4887Z" fill="url(#paint6_radial_147648_1535)"/>
<path d="M2.52143 52.751C6.26218 74.8504 26.2967 91.7344 49.0338 92.3722C70.0826 92.9676 83.5273 80.7485 89.0803 68.8346C93.7849 58.5317 94.3254 46.8092 90.5886 36.1171V36.0708C90.5886 36.0346 90.5811 36.0133 90.5886 36.0246L90.5973 36.1059C92.317 47.3331 86.6065 58.2052 77.6779 65.5716L77.6504 65.6342C60.2536 79.8043 43.6072 74.1812 40.2429 71.8875C40.0078 71.775 39.7726 71.6578 39.5375 71.5361C29.3958 66.6885 25.2048 57.4535 26.1053 49.5243C23.6979 49.5598 21.3319 48.8964 19.2938 47.6145C17.2558 46.3325 15.6333 44.4871 14.6229 42.3017C17.2853 40.6707 20.321 39.7487 23.4408 39.6235C26.5605 39.4983 29.6604 40.174 32.445 41.5863C38.1846 44.1916 44.7157 44.4483 50.6422 42.3017C50.6234 41.9077 42.1877 38.5497 38.8984 35.3104C37.1412 33.5783 36.307 32.7441 35.5679 32.1175C35.1684 31.7791 34.7509 31.4626 34.3172 31.1695C34.0296 30.9731 33.7056 30.7605 33.3167 30.5054C29.781 28.2066 22.7498 28.3329 22.5171 28.3392H22.4946C20.5736 25.9041 20.7087 17.8748 20.8187 16.1977C20.2504 16.4261 19.7079 16.7141 19.2004 17.0569C17.5045 18.2672 15.9191 19.6253 14.4628 21.1153C12.7973 22.7931 11.2754 24.6075 9.91289 26.5395V26.547V26.5382C6.79689 30.9551 4.58653 35.9454 3.4094 41.2211C3.38564 41.3199 1.66347 48.8489 2.51267 52.7535L2.52143 52.751Z" fill="url(#paint7_radial_147648_1535)"/>
<path d="M67.6386 33.6154C69.4082 35.3534 70.9239 37.3323 72.141 39.4935C72.4074 39.6949 72.6563 39.895 72.8676 40.0889C83.8573 50.2193 78.0992 64.5395 77.6702 65.5525C86.5975 58.1973 92.3031 47.3177 90.5896 36.0867C85.1067 22.4169 75.8067 16.9014 68.2277 4.90752C67.8437 4.30095 67.4597 3.69312 67.0858 3.05153C66.8719 2.68508 66.7006 2.3549 66.5518 2.05099C66.237 1.44136 65.9944 0.797076 65.8289 0.131213C65.8291 0.100487 65.818 0.0707545 65.7977 0.0476873C65.7774 0.0246201 65.7493 0.00983286 65.7188 0.00614642C65.6889 -0.00204881 65.6574 -0.00204881 65.6275 0.00614642C65.6213 0.00614642 65.6113 0.0174024 65.6038 0.0199038C65.5962 0.0224051 65.58 0.0336612 65.5687 0.0386638C63.694 0.92789 52.5743 18.5361 67.6448 33.5941L67.6386 33.6154Z" fill="url(#paint8_radial_147648_1535)"/>
<path d="M72.8664 40.0944C72.655 39.9006 72.4061 39.7005 72.1397 39.4991C72.0409 39.4253 71.9434 39.3515 71.8383 39.2777C68.4288 36.9161 64.2637 35.9048 60.1508 36.44C77.5852 45.1571 72.9076 75.1732 48.746 74.0476C46.5946 73.9592 44.4687 73.549 42.4388 72.8307C41.9644 72.6531 41.49 72.4588 41.0156 72.2479C40.7417 72.1228 40.4678 71.9978 40.1976 71.8577L40.2314 71.879C43.6007 74.1789 60.2421 79.7982 77.6389 65.6256L77.6664 65.5631C78.1004 64.55 83.8585 50.2299 72.8639 40.0994L72.8664 40.0944Z" fill="url(#paint9_radial_147648_1535)"/>
<path d="M28.7803 55.9776C28.7803 55.9776 31.0177 47.6394 44.8013 47.6394C46.2909 47.6394 50.5544 43.4809 50.6307 42.2752C44.7042 44.4219 38.1731 44.1651 32.4335 41.5598C29.6489 40.1476 26.549 39.4718 23.4293 39.5971C20.3096 39.7223 17.2738 40.6443 14.6114 42.2752C15.6218 44.4606 17.2443 46.3061 19.2824 47.588C21.3204 48.87 23.6864 49.5334 26.0938 49.4978C25.1958 57.4233 29.3856 66.657 39.526 71.5096C39.7524 71.6184 39.965 71.736 40.1976 71.8398C34.2782 68.7819 29.3906 62.9988 28.7803 55.9813V55.9776Z" fill="url(#paint10_radial_147648_1535)"/>
<path d="M95.4032 33.5769C93.2971 28.5092 89.0248 23.0375 85.6792 21.3079C88.0649 25.9277 89.7208 30.8891 90.5881 36.0157L90.5969 36.097C85.1164 22.4397 75.8264 16.9243 68.2349 4.93035C67.8509 4.32377 67.467 3.71595 67.093 3.07435C66.8791 2.70791 66.7078 2.37773 66.559 2.07382C66.2442 1.46418 66.0016 0.819903 65.8361 0.154041C65.8363 0.123314 65.8252 0.0935817 65.8049 0.0705145C65.7846 0.0474473 65.7565 0.03266 65.726 0.0289736C65.6961 0.0207783 65.6646 0.0207783 65.6347 0.0289736C65.6285 0.0289736 65.6185 0.0402296 65.611 0.0427309C65.6035 0.0452323 65.5872 0.0564883 65.5759 0.061491L65.5947 0.0289736C53.4194 7.15779 49.286 20.3524 48.9108 26.9559C49.4761 26.9171 50.0364 26.8696 50.6142 26.8696C54.9338 26.878 59.1742 28.0299 62.9042 30.2084C66.6343 32.3869 69.721 35.5143 71.8506 39.2725C68.441 36.9109 64.2759 35.8996 60.1631 36.4347C77.5974 45.1519 72.9199 75.168 48.7582 74.0424C46.6068 73.9539 44.4809 73.5437 42.4511 72.8255C41.9766 72.6479 41.5022 72.4536 41.0278 72.2426C40.7539 72.1176 40.48 71.9925 40.2099 71.8524L40.2436 71.8737C40.0085 71.7611 39.7734 71.644 39.5383 71.5223C39.7646 71.6311 39.9772 71.7486 40.2099 71.8524C34.2904 68.7933 29.4028 63.0102 28.7925 55.9939C28.7925 55.9939 31.0299 47.6557 44.8136 47.6557C46.3031 47.6557 50.5667 43.4972 50.643 42.2916C50.6242 41.8976 42.1884 38.5396 38.8992 35.3004C37.142 33.5682 36.3078 32.734 35.5686 32.1074C35.1692 31.769 34.7517 31.4526 34.318 31.1594C33.2136 27.2935 33.1665 23.2021 34.1816 19.3118C29.7103 21.4777 25.7373 24.5483 22.5141 28.3291H22.4916C20.5706 25.8941 20.7057 17.8648 20.8157 16.1876C20.2474 16.416 19.7049 16.704 19.1974 17.0468C17.5015 18.2572 15.9161 19.6153 14.4598 21.1053C12.8003 22.7878 11.2846 24.6064 9.92864 26.5419V26.5494V26.5407C6.81264 30.9576 4.60229 35.9479 3.42516 41.2235L3.36013 41.5437C3.26883 41.9702 2.85986 44.1363 2.80108 44.6016C2.427 46.8376 2.18811 49.0942 2.08569 51.359V51.6091C2.10712 63.7388 6.67514 75.4197 14.888 84.3459C23.1009 93.2722 34.3617 98.7952 46.4477 99.8246C58.5336 100.854 70.5663 97.315 80.1705 89.9062C89.7746 82.4974 96.2523 71.7573 98.3247 59.806C98.406 59.1806 98.4723 58.5616 98.5449 57.93C99.5433 49.6779 98.4624 41.3072 95.4007 33.5794L95.4032 33.5769ZM90.5944 36.067L90.6031 36.1183L90.5944 36.067Z" fill="url(#paint11_linear_147648_1535)"/>
<defs>
<linearGradient id="paint0_linear_147648_1535" x1="88.9874" y1="15.5122" x2="8.51554" y2="93.1537" gradientUnits="userSpaceOnUse">
<stop offset="0.048" stop-color="#FFF44F"/>
<stop offset="0.111" stop-color="#FFE847"/>
<stop offset="0.225" stop-color="#FFC830"/>
<stop offset="0.368" stop-color="#FF980E"/>
<stop offset="0.401" stop-color="#FF8B16"/>
<stop offset="0.462" stop-color="#FF672A"/>
<stop offset="0.534" stop-color="#FF3647"/>
<stop offset="0.705" stop-color="#E31587"/>
</linearGradient>
<radialGradient id="paint1_radial_147648_1535" cx="0" cy="0" r="1" gradientUnits="userSpaceOnUse" gradientTransform="translate(85.8736 11.2788) scale(101.054 101.054)">
<stop offset="0.129" stop-color="#FFBD4F"/>
<stop offset="0.186" stop-color="#FFAC31"/>
<stop offset="0.247" stop-color="#FF9D17"/>
<stop offset="0.283" stop-color="#FF980E"/>
<stop offset="0.403" stop-color="#FF563B"/>
<stop offset="0.467" stop-color="#FF3750"/>
<stop offset="0.71" stop-color="#F5156C"/>
<stop offset="0.782" stop-color="#EB0878"/>
<stop offset="0.86" stop-color="#E50080"/>
</radialGradient>
<radialGradient id="paint2_radial_147648_1535" cx="0" cy="0" r="1" gradientUnits="userSpaceOnUse" gradientTransform="translate(48.3535 52.5509) scale(101.054 101.054)">
<stop offset="0.3" stop-color="#960E18"/>
<stop offset="0.351" stop-color="#B11927" stop-opacity="0.74"/>
<stop offset="0.435" stop-color="#DB293D" stop-opacity="0.343"/>
<stop offset="0.497" stop-color="#F5334B" stop-opacity="0.094"/>
<stop offset="0.53" stop-color="#FF3750" stop-opacity="0"/>
</radialGradient>
<radialGradient id="paint3_radial_147648_1535" cx="0" cy="0" r="1" gradientUnits="userSpaceOnUse" gradientTransform="translate(60.8599 -11.2333) scale(73.2017)">
<stop offset="0.132" stop-color="#FFF44F"/>
<stop offset="0.252" stop-color="#FFDC3E"/>
<stop offset="0.506" stop-color="#FF9D12"/>
<stop offset="0.526" stop-color="#FF980E"/>
</radialGradient>
<radialGradient id="paint4_radial_147648_1535" cx="0" cy="0" r="1" gradientUnits="userSpaceOnUse" gradientTransform="translate(37.0973 78.8147) scale(48.1133 48.1133)">
<stop offset="0.353" stop-color="#3A8EE6"/>
<stop offset="0.472" stop-color="#5C79F0"/>
<stop offset="0.669" stop-color="#9059FF"/>
<stop offset="1" stop-color="#C139E6"/>
</radialGradient>
<radialGradient id="paint5_radial_147648_1535" cx="0" cy="0" r="1" gradientUnits="userSpaceOnUse" gradientTransform="translate(53.241 43.876) rotate(-13.5916) scale(25.5138 29.8703)">
<stop offset="0.206" stop-color="#9059FF" stop-opacity="0"/>
<stop offset="0.278" stop-color="#8C4FF3" stop-opacity="0.064"/>
<stop offset="0.747" stop-color="#7716A8" stop-opacity="0.45"/>
<stop offset="0.975" stop-color="#6E008B" stop-opacity="0.6"/>
</radialGradient>
<radialGradient id="paint6_radial_147648_1535" cx="0" cy="0" r="1" gradientUnits="userSpaceOnUse" gradientTransform="translate(47.1023 7.52643) scale(34.6185 34.6185)">
<stop stop-color="#FFE226"/>
<stop offset="0.121" stop-color="#FFDB27"/>
<stop offset="0.295" stop-color="#FFC82A"/>
<stop offset="0.502" stop-color="#FFA930"/>
<stop offset="0.732" stop-color="#FF7E37"/>
<stop offset="0.792" stop-color="#FF7139"/>
</radialGradient>
<radialGradient id="paint7_radial_147648_1535" cx="0" cy="0" r="1" gradientUnits="userSpaceOnUse" gradientTransform="translate(74.6175 -14.9853) scale(147.704 147.704)">
<stop offset="0.113" stop-color="#FFF44F"/>
<stop offset="0.456" stop-color="#FF980E"/>
<stop offset="0.622" stop-color="#FF5634"/>
<stop offset="0.716" stop-color="#FF3647"/>
<stop offset="0.904" stop-color="#E31587"/>
</radialGradient>
<radialGradient id="paint8_radial_147648_1535" cx="0" cy="0" r="1" gradientUnits="userSpaceOnUse" gradientTransform="translate(62.3408 -6.79624) rotate(83.976) scale(108.24 71.0368)">
<stop stop-color="#FFF44F"/>
<stop offset="0.06" stop-color="#FFE847"/>
<stop offset="0.168" stop-color="#FFC830"/>
<stop offset="0.304" stop-color="#FF980E"/>
<stop offset="0.356" stop-color="#FF8B16"/>
<stop offset="0.455" stop-color="#FF672A"/>
<stop offset="0.57" stop-color="#FF3647"/>
<stop offset="0.737" stop-color="#E31587"/>
</radialGradient>
<radialGradient id="paint9_radial_147648_1535" cx="0" cy="0" r="1" gradientUnits="userSpaceOnUse" gradientTransform="translate(47.1026 20.0337) scale(92.1994 92.1994)">
<stop offset="0.137" stop-color="#FFF44F"/>
<stop offset="0.48" stop-color="#FF980E"/>
<stop offset="0.592" stop-color="#FF5634"/>
<stop offset="0.655" stop-color="#FF3647"/>
<stop offset="0.904" stop-color="#E31587"/>
</radialGradient>
<radialGradient id="paint10_radial_147648_1535" cx="0" cy="0" r="1" gradientUnits="userSpaceOnUse" gradientTransform="translate(70.8653 25.036) scale(100.917 100.917)">
<stop offset="0.094" stop-color="#FFF44F"/>
<stop offset="0.231" stop-color="#FFE141"/>
<stop offset="0.509" stop-color="#FFAF1E"/>
<stop offset="0.626" stop-color="#FF980E"/>
</radialGradient>
<linearGradient id="paint11_linear_147648_1535" x1="88.0117" y1="15.0994" x2="19.55" y2="83.5736" gradientUnits="userSpaceOnUse">
<stop offset="0.167" stop-color="#FFF44F" stop-opacity="0.8"/>
<stop offset="0.266" stop-color="#FFF44F" stop-opacity="0.634"/>
<stop offset="0.489" stop-color="#FFF44F" stop-opacity="0.217"/>
<stop offset="0.6" stop-color="#FFF44F" stop-opacity="0"/>
</linearGradient>
</defs>
</svg>
