<svg width="100" height="100" viewBox="0 0 100 100" fill="none" xmlns="http://www.w3.org/2000/svg">
<path d="M61.4054 36.118L51.4046 45.4297L42.1213 26.6969L46.917 15.9259C48.1291 13.7774 50.1114 13.749 51.3235 15.9259L61.4054 36.118Z" fill="#FFA000"/>
<path d="M51.4088 45.4256L14 80.2197L42.1256 26.6969L51.4088 45.4256Z" fill="#F57F17"/>
<path d="M72.3712 21.877C74.163 20.1703 76.0075 20.746 76.4736 23.1702L86.1988 79.7496L53.9424 99.1148C52.8114 99.7472 49.8116 99.9945 49.8116 99.9945C49.8116 99.9945 47.0833 99.6621 46.0375 99.0864L14 80.2198L72.3712 21.877Z" fill="#FFCA28"/>
<path d="M42.1255 26.697L14 80.2197L26.5345 1.98888C27.0047 -0.435314 28.379 -0.682597 29.6194 1.46593L42.1255 26.697Z" fill="#FFA000"/>
</svg>
