<svg width="100" height="100" viewBox="0 0 100 100" fill="none" xmlns="http://www.w3.org/2000/svg">
<path d="M0 50C0 22.3858 22.3858 0 50 0C77.6142 0 100 22.3858 100 50C100 77.6142 77.6142 100 50 100C22.3858 100 0 77.6142 0 50Z" fill="white"/>
<path d="M79.782 49.5804C79.782 56.7129 73.8942 62.4976 66.6178 62.4976C59.3344 62.4976 53.4431 56.7129 53.4431 49.5804C53.4431 42.4513 59.3344 36.6666 66.6178 36.6666C73.8942 36.6666 79.782 42.4513 79.782 49.5804" fill="#FF007F"/>
<path d="M46.3355 49.5804C46.3355 56.7129 40.4441 62.4976 33.1607 62.4976C25.8879 62.4976 20 56.7129 20 49.5804C20 42.4513 25.8879 36.6666 33.1607 36.6666C40.4441 36.6666 46.3355 42.4513 46.3355 49.5804" fill="#0960D5"/>
</svg>
