<svg width="100" height="100" viewBox="0 0 100 100" fill="none" xmlns="http://www.w3.org/2000/svg">
<path fill-rule="evenodd" clip-rule="evenodd" d="M69.928 17.3428H81.4428C91.6848 17.3428 100 25.6579 100 35.9V76.3893C100 86.6313 91.6848 94.9465 81.4428 94.9465H80.5354C75.264 94.1219 72.9778 92.541 71.2118 91.2049L56.5716 79.1676C56.2048 78.8709 55.7474 78.7091 55.2757 78.7091C54.804 78.7091 54.3465 78.8709 53.9798 79.1676L49.2235 83.0785L35.8282 72.0643C35.4619 71.7671 35.0045 71.6049 34.5328 71.6049C34.0612 71.6049 33.6038 71.7671 33.2375 72.0643L14.628 88.4352C10.8827 91.4814 8.4053 90.9187 6.79878 90.742C2.64911 87.3366 0 82.1699 0 76.3893V35.9C0 25.6579 8.31517 17.3428 18.5584 17.3428H30.0476L30.0269 17.3891L29.6396 18.5181L29.519 18.9054L28.9977 21.2184L28.9259 21.624L28.6969 23.9406L28.6664 24.5764L28.6616 24.7993L28.6835 25.8613L28.7359 26.4837L28.865 27.4581L29.0294 28.3351L29.2243 29.1426L29.4776 30.0171L30.1353 31.8684L30.3521 32.4238L31.497 34.8427L31.9014 35.5857L33.2253 37.8585L33.732 38.6782L35.5797 41.3991L35.8464 41.7597L38.2507 44.8887L39.0278 45.8521L41.7731 49.0615L42.3371 49.679L44.6001 52.1137L45.4965 53.0418L46.9776 54.5132L46.6804 54.7616L46.4953 54.9285C45.9922 55.3974 45.5148 55.8956 45.0678 56.4193C44.853 56.6726 44.6482 56.9343 44.4539 57.2037C44.1576 57.6152 43.8925 58.0484 43.661 58.4996C43.5427 58.7339 43.4366 58.9742 43.3431 59.2194C43.1021 59.8461 42.9571 60.5056 42.9132 61.1755L42.9046 61.7541C42.9257 62.5698 43.0919 63.3753 43.3955 64.1328C43.7031 64.9007 44.1517 65.6042 44.7182 66.207C45.1299 66.6455 45.5988 67.0279 46.1128 67.3422C46.5501 67.6101 47.0166 67.8306 47.5013 67.9987C48.555 68.3558 49.6731 68.4829 50.7801 68.3714H50.7862C51.7307 68.2798 52.6487 68.0072 53.4901 67.5687C53.8531 67.3763 54.199 67.1534 54.523 66.9C55.4507 66.178 56.1696 65.2221 56.6057 64.1303C56.9468 63.279 57.1136 62.3691 57.099 61.4532L57.0722 60.9746C57.0104 60.3422 56.8595 59.7218 56.624 59.1317C56.522 58.8748 56.4061 58.6235 56.2769 58.379C56.0371 57.9287 55.7643 57.4968 55.4608 57.0868C55.3219 56.8991 55.1782 56.7151 55.0297 56.535C54.5353 55.9449 54.0032 55.3875 53.4365 54.8664L53.0358 54.5253L53.7142 53.8554L56.6301 50.8105L57.6386 49.7033L59.2061 47.9397L60.2256 46.7473L61.6798 44.9764L62.664 43.7389L64.1097 41.8059L64.8393 40.806L65.8746 39.2579L66.7369 37.9389L68.3617 35.1095L69.291 33.2533L69.3178 33.196L70.0291 31.4738C70.0385 31.4515 70.0466 31.4288 70.0535 31.4056L70.8196 29.0159L70.9 28.6676L71.2325 26.7651L71.297 26.2499L71.3165 25.9344L71.3397 24.7432L71.3336 24.5216L71.2727 23.4546L71.1972 22.6264L70.8196 20.2379C70.8135 20.2062 70.8074 20.1746 70.7977 20.1429L70.3129 18.3768L70.146 17.886L69.928 17.3428ZM75.4016 67.8342C74.2406 67.8506 73.1317 68.3191 72.3106 69.1402C71.4896 69.9612 71.0211 71.0701 71.0047 72.2311C71.0217 73.3919 71.4904 74.5003 72.3114 75.321C73.1324 76.1417 74.2409 76.6102 75.4016 76.6268C76.5624 76.6099 77.6709 76.1414 78.492 75.3208C79.313 74.5001 79.7822 73.3919 79.7998 72.2311C79.7831 71.07 79.3143 69.9611 78.4931 69.1401C77.6718 68.3191 76.5628 67.8506 75.4016 67.8342Z" fill="url(#paint0_radial_755_13076)"/>
<path fill-rule="evenodd" clip-rule="evenodd" d="M42.6318 94.0089L54.5631 83.9398C54.7818 83.7569 55.0577 83.6565 55.3428 83.656C55.6279 83.6556 55.9041 83.7551 56.1234 83.9374L68.2277 94.0089C68.9633 94.6082 69.8841 94.9358 70.8329 94.937H40.0424C40.9875 94.937 41.9022 94.6094 42.6318 94.0089ZM50.059 58.065L50.176 58.0991C50.2137 58.1174 50.2454 58.143 50.2795 58.1661L50.3769 58.2526C50.6181 58.4743 50.852 58.7069 51.0773 58.9456C51.2356 59.1149 51.3903 59.2891 51.5389 59.4694C51.7277 59.6971 51.9043 59.9359 52.0651 60.1843C52.1345 60.2939 52.199 60.4048 52.2599 60.5205C52.3123 60.6204 52.3598 60.7239 52.4012 60.8286C52.4743 61.0113 52.5291 61.2038 52.5462 61.3999L52.5425 61.7677C52.518 62.0997 52.415 62.4211 52.242 62.7054C52.069 62.9898 51.8309 63.2291 51.5474 63.4035C51.1792 63.6262 50.7653 63.7624 50.3367 63.8017L49.8824 63.8151L49.4988 63.781C49.3194 63.7549 49.1428 63.712 48.9714 63.6531C48.7969 63.5937 48.6294 63.5153 48.472 63.4193L48.1724 63.2001C47.8193 62.8987 47.5789 62.4865 47.4903 62.0308C47.4755 61.9542 47.4637 61.8769 47.455 61.7994L47.444 61.4486C47.4501 61.3536 47.4647 61.2598 47.4854 61.166C47.5378 60.9614 47.6133 60.7629 47.7083 60.5741C47.8314 60.3378 47.9714 60.11 48.1273 59.8932C48.3868 59.5425 48.6681 59.2087 48.969 58.8933C49.1626 58.6887 49.3611 58.4901 49.5682 58.2989L49.7156 58.1661C49.8179 58.0991 49.8191 58.0991 49.936 58.065H50.059ZM49.3051 9.16549L49.3526 9.16183V50.1652L49.2503 49.9764C47.9005 47.4796 46.6439 44.9335 45.4831 42.3433C44.5415 40.2466 43.6886 38.1112 42.9265 35.9428C42.3183 34.2156 41.8039 32.4567 41.3858 30.6738C41.063 29.2573 40.8146 27.8201 40.7122 26.3683C40.6725 25.7488 40.6607 25.1278 40.6769 24.5072C40.6867 23.9664 40.7086 23.4268 40.7427 22.8873C40.7963 22.0396 40.8828 21.1931 41.007 20.3527C41.1057 19.6913 41.2275 19.0324 41.3773 18.3807C41.4966 17.8631 41.6355 17.3491 41.7938 16.8436C42.0228 16.1129 42.2968 15.3991 42.616 14.7024C42.7329 14.4515 42.8583 14.2018 42.9899 13.957C43.7816 12.4906 44.8558 11.1398 46.2626 10.2373C47.1767 9.64229 48.2199 9.27477 49.3051 9.16549ZM54.6216 9.26902L57.3803 10.0558C58.658 10.5272 59.8882 11.1411 61.0184 11.9084C62.5591 12.9482 63.8869 14.2728 64.9306 15.8108C65.542 16.7219 66.0487 17.7048 66.4446 18.7315C67.0182 20.2503 67.3739 21.8422 67.4993 23.4597C67.5359 23.8836 67.5566 24.3087 67.5651 24.7337C67.5748 25.1284 67.5724 25.5242 67.5407 25.9188C67.4628 26.8019 67.2971 27.6752 67.045 28.5253C66.8427 29.221 66.604 29.9057 66.3301 30.5764C65.989 31.4107 65.6102 32.2292 65.1949 33.0282C64.2766 34.8028 63.2181 36.5019 62.0854 38.1449C60.6812 40.1643 59.1844 42.1176 57.5996 43.9986C55.8789 46.0506 54.0845 48.0397 52.2197 49.9618C53.485 47.589 54.666 45.1723 55.7604 42.716C56.3694 41.347 56.9431 39.9634 57.4826 38.5664C58.0758 37.0317 58.6117 35.4763 59.0867 33.9015C59.4399 32.7213 59.7517 31.5289 60.0087 30.3231C60.2292 29.289 60.4022 28.244 60.5093 27.1928C60.5995 26.3159 60.6324 25.4341 60.6104 24.5547C60.6021 24.0164 60.5822 23.4783 60.5507 22.9409C60.4216 20.7789 60.0928 18.6231 59.4619 16.5489C59.223 15.7625 58.9325 14.9927 58.5922 14.2445C57.7847 12.4857 56.6581 10.8427 55.1332 9.64294L54.6216 9.26902Z" fill="white"/>
<defs>
<radialGradient id="paint0_radial_755_13076" cx="0" cy="0" r="1" gradientUnits="userSpaceOnUse" gradientTransform="translate(53.0955 55.8067) scale(72.4412 72.4412)">
<stop stop-color="#BA7BF0"/>
<stop offset="0.45" stop-color="#996BEC"/>
<stop offset="1" stop-color="#5046E4"/>
</radialGradient>
</defs>
</svg>
