<svg width="100" height="100" viewBox="0 0 100 100" fill="none" xmlns="http://www.w3.org/2000/svg">
<path d="M0 50C0 22.3858 22.3858 0 50 0C77.6142 0 100 22.3858 100 50C100 77.6142 77.6142 100 50 100C22.3858 100 0 77.6142 0 50Z" fill="white"/>
<path fill-rule="evenodd" clip-rule="evenodd" d="M36.7578 23.3334H65.2903C69.4658 23.3334 70.6013 25.7408 69.7221 30.2592C68.5501 36.1109 64.7775 54.6291 64.4479 55.9254C64.045 57.4809 63.3491 60.0364 59.6863 60.0364H51.1156C50.9691 60.0364 50.8593 60.0364 50.6395 60.2957C50.4197 60.5549 36.8677 76.5176 36.8677 76.5176C35.6957 77.7028 34.0475 77.5176 33.4248 77.2584C32.8021 76.9992 31.6667 76.3325 31.6667 74.0733V28.2222C31.6667 26.3333 32.8387 23.3334 36.7578 23.3334ZM62.3235 37.4072L63.6055 31.1481C63.8253 30.1111 63.0195 29.2962 62.2137 29.2962H39.102C38.2595 29.2962 37.5636 30 37.5636 30.8518V67.1105C37.5636 67.2216 37.6369 67.2586 37.7101 67.1476C37.7101 67.1476 46.1343 56.481 47.0867 55.2959C48.039 54.1107 48.3686 54.0737 49.9802 54.0366H57.6719C58.5509 54.0366 59.137 53.3329 59.2102 52.7774C59.3202 52.2589 60.309 47.3701 60.4922 46.4071C60.6753 45.4812 59.9428 44.6294 59.0637 44.6294H49.6505C48.4052 44.6294 47.3796 43.5924 47.3796 42.3331V40.9628C47.3796 39.7035 48.4052 38.6665 49.6505 38.6665H60.7852C61.5543 38.6665 62.177 38.0739 62.3235 37.4072Z" fill="#FA4778"/>
</svg>
