<svg width="100" height="100" viewBox="0 0 100 100" fill="none" xmlns="http://www.w3.org/2000/svg">
<path d="M50 0.000488281C22.384 0.000488281 0 22.3845 0 50.0005C0 77.6165 22.384 100 50 100C77.616 100 100 77.6165 100 50.0005C100 22.3845 77.616 0.000488281 50 0.000488281ZM10.744 50.5205L49.48 89.2565C28.208 88.9805 11.02 71.7925 10.744 50.5205ZM58.788 88.2765L11.724 41.2125C15.716 23.7605 31.336 10.7365 50 10.7365C63.044 10.7365 74.604 17.1005 81.744 26.8925L76.308 31.6885C70.516 23.3845 60.892 17.9485 50 17.9485C36.132 17.9485 24.32 26.7565 19.856 39.0845L60.916 80.1405C70.888 76.5285 78.556 68.1125 81.124 57.6885H64.108V50.0005H89.268C89.264 68.6645 76.24 84.2845 58.788 88.2765Z" fill="#744C9E"/>
</svg>
