<svg width="100" height="100" viewBox="0 0 100 100" fill="none" xmlns="http://www.w3.org/2000/svg">
<g clip-path="url(#clip0_755_13088)">
<path d="M63.4531 32.1617H66.5046L75.1981 23.4682L75.6256 19.7796C59.4501 5.50285 34.7571 7.04119 20.4804 23.2167C16.5109 27.7102 13.6312 33.0545 12.0635 38.839C13.0318 38.4408 14.1049 38.3779 15.1151 38.6546L32.4978 35.7875C32.4978 35.7875 33.3822 34.3246 33.8391 34.4168C41.5727 25.9245 54.5878 24.9353 63.516 32.1617H63.4531Z" fill="#EA4335"/>
<path d="M87.5801 38.839C85.5807 31.4827 81.4813 24.8682 75.7765 19.8089L63.5788 32.0066C68.7303 36.215 71.6645 42.557 71.5387 49.2091V51.3762C77.5369 51.3762 82.395 56.2385 82.395 62.2325C82.395 68.2308 77.5327 73.0889 71.5387 73.0889H49.8219L47.6548 75.2853V88.3087L49.8219 90.4758H71.5387C83.9879 90.5722 95.0328 82.5033 98.7298 70.6158C102.418 58.7241 97.8915 45.8139 87.5801 38.839Z" fill="#4285F4"/>
<path d="M28.0756 90.3542H49.7925V72.9715H28.0756C26.5289 72.9715 24.999 72.6404 23.5906 71.9948L20.5391 72.938L11.7869 81.6314L11.024 84.6829C15.9325 88.3884 21.9223 90.3794 28.0756 90.3542Z" fill="#34A853"/>
<path d="M28.0756 33.9599C16.0121 34.0312 5.32759 41.7564 1.47966 53.187C-2.36827 64.6176 1.46708 77.2344 11.0282 84.5865L23.6241 71.9907C18.1582 69.5218 15.7312 63.0918 18.2001 57.6259C20.669 52.16 27.099 49.7331 32.5649 52.2019C34.9709 53.2918 36.899 55.2199 37.9889 57.6259L50.5848 45.0301C45.2237 38.0258 36.8949 33.9306 28.0756 33.9599Z" fill="#FBBC05"/>
</g>
<defs>
<clipPath id="clip0_755_13088">
<rect width="100" height="80.4753" fill="white" transform="translate(0 10.0005)"/>
</clipPath>
</defs>
</svg>
