<svg width="100" height="100" viewBox="0 0 100 100" fill="none" xmlns="http://www.w3.org/2000/svg">
<path d="M50.0004 0C22.3896 0 0 22.952 0 51.2659C0 73.9165 14.3266 93.1331 34.1933 99.9119C36.6922 100.386 37.6096 98.7998 37.6096 97.4457C37.6096 96.2232 37.5632 92.1848 37.5417 87.9011C23.6315 91.0022 20.6963 81.8524 20.6963 81.8524C18.4219 75.9268 15.1447 74.3511 15.1447 74.3511C10.6082 71.1693 15.4866 71.2347 15.4866 71.2347C20.5076 71.5963 23.1513 76.5176 23.1513 76.5176C27.6108 84.355 34.8483 82.0892 37.7015 80.7793C38.1503 77.4659 39.4461 75.2043 40.876 73.9241C29.7702 72.6278 18.0956 68.2319 18.0956 48.5883C18.0956 42.9912 20.0489 38.418 23.2474 34.8278C22.7282 33.5366 21.0168 28.3224 23.7317 21.2609C23.7317 21.2609 27.9304 19.8831 37.4854 26.5158C41.4738 25.3799 45.7512 24.8103 50.0004 24.7908C54.2496 24.8103 58.5303 25.3799 62.5262 26.5158C72.0695 19.8831 76.2625 21.2609 76.2625 21.2609C78.9841 28.3224 77.2718 33.5366 76.7526 34.8278C79.9586 38.418 81.8986 42.9912 81.8986 48.5883C81.8986 68.2786 70.2016 72.6142 59.0677 73.8833C60.8611 75.4743 62.4591 78.5941 62.4591 83.3771C62.4591 90.2365 62.4012 95.7572 62.4012 97.4457C62.4012 98.81 63.3012 100.409 65.8356 99.9051C85.6916 93.1187 100 73.9088 100 51.2659C100 22.952 77.6137 0 50.0004 0" fill="white"/>
<path d="M19.0851 73.2548C18.9752 73.5069 18.5851 73.5826 18.2297 73.4094C17.8678 73.2438 17.6645 72.9 17.7818 72.647C17.8893 72.3873 18.2802 72.315 18.6413 72.489C19.0041 72.6546 19.2107 73.0018 19.0851 73.2548" fill="#161514"/>
<path d="M21.1066 75.5479C20.8686 75.7723 20.4033 75.6681 20.0876 75.3134C19.7611 74.9595 19.7 74.4862 19.9413 74.2584C20.1868 74.034 20.638 74.1391 20.9653 74.493C21.2917 74.851 21.3554 75.3209 21.1066 75.5479" fill="#161514"/>
<path d="M23.0744 78.4714C22.7686 78.6874 22.2686 78.4849 21.9595 78.0335C21.6537 77.5821 21.6537 77.0408 21.9661 76.8239C22.276 76.607 22.7686 76.802 23.0818 77.2501C23.3868 77.709 23.3868 78.2503 23.0744 78.4714" fill="#161514"/>
<path d="M25.7702 81.2957C25.4967 81.6025 24.914 81.5201 24.4876 81.1015C24.0512 80.6922 23.9297 80.1113 24.2041 79.8045C24.481 79.4969 25.0669 79.5835 25.4967 79.9987C25.9297 80.4072 26.062 80.9922 25.7702 81.2957" fill="#161514"/>
<path d="M29.4893 82.9356C29.3686 83.3332 28.8074 83.5139 28.2422 83.3449C27.6777 83.1709 27.3083 82.7053 27.4223 82.3035C27.5397 81.9034 28.1033 81.7151 28.6727 81.8958C29.2364 82.069 29.6066 82.5313 29.4893 82.9356" fill="#161514"/>
<path d="M33.5736 83.24C33.5876 83.6586 33.1083 84.0057 32.5149 84.0133C31.9182 84.0268 31.4355 83.688 31.4289 83.2761C31.4289 82.8533 31.8975 82.5095 32.4942 82.4994C33.0876 82.4877 33.5736 82.8239 33.5736 83.24" fill="#161514"/>
<path d="M37.3744 82.5817C37.4455 82.9903 37.0331 83.4097 36.4438 83.5215C35.8645 83.6291 35.3281 83.3769 35.2545 82.9718C35.1826 82.5532 35.6025 82.1337 36.181 82.0253C36.7711 81.921 37.2992 82.1665 37.3744 82.5817" fill="#161514"/>
</svg>
