<svg width="100" height="100" viewBox="0 0 100 100" fill="none" xmlns="http://www.w3.org/2000/svg">
<path d="M6.81818 87.5184H22.7273V48.882L0 31.8365V80.7002C0 84.4672 3.05114 87.5184 6.81818 87.5184Z" fill="#4285F4"/>
<path d="M77.2727 87.5184H93.1818C96.9489 87.5184 100 84.4672 100 80.7002V31.8365L77.2727 48.882V87.5184Z" fill="#34A853"/>
<path d="M77.2727 19.3366V48.882L100 31.8366V22.7456C100 14.3195 90.3807 9.50701 83.6364 14.5638L77.2727 19.3366Z" fill="#FBBC04"/>
<path fill-rule="evenodd" clip-rule="evenodd" d="M22.7273 48.882V19.3365L50 39.7911L77.2727 19.3365V48.882L50 69.3365L22.7273 48.882Z" fill="#EA4335"/>
<path d="M0 22.7456V31.8366L22.7273 48.882V19.3366L16.3636 14.5638C9.61932 9.50701 0 14.3195 0 22.7456Z" fill="#C5221F"/>
</svg>
