<svg width="100" height="100" viewBox="0 0 100 100" fill="none" xmlns="http://www.w3.org/2000/svg">
<path d="M56.5714 49.4762L66.32 60.6191L79.4286 68.9962L81.7143 49.5505L79.4286 30.5334L66.0686 37.8934L56.5714 49.4762Z" fill="#00832D"/>
<path d="M0 67.1905V83.7619C0 87.5505 3.06857 90.619 6.85714 90.619H23.4286L26.8571 78.0933L23.4286 67.1905L12.0571 63.7619L0 67.1905Z" fill="#0066DA"/>
<path d="M23.4286 8.33331L0 31.7619L12.0571 35.1905L23.4286 31.7619L26.8 21.0019L23.4286 8.33331Z" fill="#E94235"/>
<path d="M23.4286 31.7619H0V67.1905H23.4286V31.7619Z" fill="#2684FC"/>
<path d="M94.3943 18.2534L79.4286 30.5334V68.9962L94.4572 81.3219C96.7086 83.0819 100 81.4762 100 78.6191V20.9048C100 18.0076 96.6343 16.4191 94.3943 18.2534ZM56.5714 49.4762V67.1905H23.4286V90.6191H72.5714C76.36 90.6191 79.4286 87.5505 79.4286 83.7619V68.9962L56.5714 49.4762Z" fill="#00AC47"/>
<path d="M72.5714 8.33331H23.4286V31.7619H56.5714V49.4762L79.4286 30.5333V15.1905C79.4286 11.4019 76.36 8.33331 72.5714 8.33331Z" fill="#FFBA00"/>
</svg>
