<svg width="100" height="100" viewBox="0 0 100 100" fill="none" xmlns="http://www.w3.org/2000/svg">
<path d="M0 50C0 22.3858 22.3858 0 50 0C77.6142 0 100 22.3858 100 50C100 77.6142 77.6142 100 50 100C22.3858 100 0 77.6142 0 50Z" fill="white"/>
<path d="M50 36.7112C54.0685 36.7112 56.813 38.4686 58.3778 39.9371L64.4926 33.9667C60.7371 30.476 55.85 28.3334 50 28.3334C41.526 28.3334 34.2074 33.1963 30.6445 40.2741L37.65 45.7149C39.4074 40.4908 44.2704 36.7112 50 36.7112V36.7112Z" fill="#EA4335"/>
<path d="M70.8 50.4815C70.8 48.7 70.6556 47.4 70.3426 46.0519H50V54.0926H61.9407C61.7 56.0908 60.4 59.1 57.5111 61.1222L64.3481 66.4185C68.4407 62.6389 70.8 57.0778 70.8 50.4815V50.4815Z" fill="#4285F4"/>
<path d="M37.6741 54.2853C37.2167 52.9371 36.9519 51.4927 36.9519 50.0001C36.9519 48.5075 37.2167 47.0631 37.65 45.7149L30.6445 40.2742C29.1759 43.2112 28.3333 46.5094 28.3333 50.0001C28.3333 53.4908 29.1759 56.789 30.6445 59.726L37.6741 54.2853V54.2853Z" fill="#FBBC05"/>
<path d="M50 71.6668C55.85 71.6668 60.7611 69.7408 64.3481 66.4186L57.5111 61.1223C55.6815 62.3982 53.2259 63.289 50 63.289C44.2704 63.289 39.4074 59.5094 37.6741 54.2853L30.6685 59.726C34.2315 66.8038 41.5259 71.6668 50 71.6668V71.6668Z" fill="#34A853"/>
</svg>
