<svg width="100" height="100" viewBox="0 0 100 100" fill="none" xmlns="http://www.w3.org/2000/svg">
<path d="M50 100C77.6142 100 100 77.6142 100 50C100 22.3858 77.6142 0 50 0C22.3858 0 0 22.3858 0 50C0 77.6142 22.3858 100 50 100Z" fill="white"/>
<path d="M70.0971 60.094C77.2563 56.125 82.724 53.0934 83.2213 52.8173C84.705 51.9948 86.2593 49.8957 83.2213 48.2179C82.2449 47.6776 76.9243 44.739 70.0887 40.9617L60.6872 50.5575L70.0971 60.094V60.094Z" fill="#FFE300"/>
<path d="M60.6867 50.5574L30.6169 81.2474C31.2959 81.3347 32.1127 81.1526 33.0521 80.6317C34.997 79.5535 55.8841 67.973 70.0971 60.0929L60.6867 50.5574V50.5574Z" fill="#FF4E54"/>
<path d="M60.6867 50.5574L70.0882 40.9616C70.0882 40.9616 35.1441 21.6509 33.0521 20.4949C32.248 20.0505 31.3713 19.8953 30.5953 20.0704L60.6867 50.5574V50.5574Z" fill="#00F085"/>
<path d="M60.6867 50.5574L30.5948 20.0708C29.3519 20.3516 28.3333 21.4412 28.3333 23.6313V77.5897C28.3333 79.6522 29.1346 81.1028 30.6164 81.2475L60.6867 50.5574V50.5574Z" fill="#00E0FF"/>
</svg>
