<svg width="100" height="100" viewBox="0 0 100 100" fill="none" xmlns="http://www.w3.org/2000/svg">
<path d="M93.2908 24.9983C88.9021 17.3978 82.5901 11.0863 74.9893 6.69824C67.3884 2.31014 58.7664 0 49.9898 0C41.2132 0 32.5912 2.31014 24.9904 6.69824C17.3895 11.0863 11.0776 17.3978 6.68887 24.9983L9.68894 78.9995L93.2908 24.9983Z" fill="url(#paint0_linear_147648_1652)"/>
<path d="M28.3494 62.4992L6.69888 24.9984C2.31042 32.5994 5.57448e-05 41.2217 1.00875e-09 49.9986C-5.57428e-05 58.7755 2.3102 67.3978 6.69856 74.9989C11.0869 82.6 17.3988 88.912 24.9997 93.3006C32.6007 97.6892 41.2229 99.9998 49.9998 100L99.0009 49.9989L28.3494 62.4992Z" fill="url(#paint1_linear_147648_1652)"/>
<path d="M71.6503 62.4992L49.9998 100C58.7759 99.998 67.3969 97.6862 74.9964 93.2969C82.596 88.9076 88.9064 82.5954 93.2936 74.9946C97.6808 67.3938 99.9901 58.7721 99.9896 49.9961C99.9892 41.22 97.6788 32.5987 93.2908 24.9984H49.9998L71.6503 62.4992Z" fill="url(#paint2_linear_147648_1652)"/>
<path d="M49.9998 74.9994C53.2829 74.9994 56.5339 74.3528 59.5671 73.0964C62.6003 71.84 65.3564 69.9985 67.6779 67.677C69.9994 65.3554 71.8409 62.5994 73.0973 59.5662C74.3537 56.533 75.0004 53.282 75.0004 49.9989C75.0004 46.7158 74.3537 43.4648 73.0973 40.4316C71.8409 37.3984 69.9994 34.6424 67.6779 32.3208C65.3564 29.9993 62.6003 28.1578 59.5671 26.9014C56.5339 25.645 53.2829 24.9984 49.9998 24.9984C43.3693 24.9984 37.0103 27.6323 32.3218 32.3208C27.6332 37.0094 24.9993 43.3683 24.9993 49.9989C24.9993 56.6295 27.6332 62.9884 32.3218 67.677C37.0103 72.3655 43.3693 74.9994 49.9998 74.9994Z" fill="white"/>
<path d="M49.9998 69.7994C52.6001 69.7994 55.1748 69.2872 57.5771 68.2921C59.9794 67.2971 62.1622 65.8386 64.0009 63.9999C65.8395 62.1613 67.298 59.9785 68.2931 57.5762C69.2881 55.1739 69.8003 52.5992 69.8003 49.9989C69.8003 47.3987 69.2881 44.8239 68.2931 42.4216C67.298 40.0193 65.8395 37.8365 64.0009 35.9979C62.1622 34.1593 59.9794 32.7008 57.5771 31.7057C55.1748 30.7106 52.6001 30.1985 49.9998 30.1985C44.7484 30.1985 39.7121 32.2846 35.9988 35.9979C32.2855 39.7112 30.1994 44.7475 30.1994 49.9989C30.1994 55.2503 32.2855 60.2866 35.9988 63.9999C39.7121 67.7133 44.7484 69.7994 49.9998 69.7994V69.7994Z" fill="#1A73E8"/>
<defs>
<linearGradient id="paint0_linear_147648_1652" x1="6.69887" y1="31.2485" x2="93.2908" y2="31.2485" gradientUnits="userSpaceOnUse">
<stop stop-color="#D93025"/>
<stop offset="1" stop-color="#EA4335"/>
</linearGradient>
<linearGradient id="paint1_linear_147648_1652" x1="55.4099" y1="96.8699" x2="12.109" y2="21.8683" gradientUnits="userSpaceOnUse">
<stop stop-color="#1E8E3E"/>
<stop offset="1" stop-color="#34A853"/>
</linearGradient>
<linearGradient id="paint2_linear_147648_1652" x1="42.6997" y1="100" x2="86.0006" y2="25.1284" gradientUnits="userSpaceOnUse">
<stop stop-color="#FCC934"/>
<stop offset="1" stop-color="#FBBC04"/>
</linearGradient>
</defs>
</svg>
