<svg width="100" height="100" viewBox="0 0 100 100" fill="none" xmlns="http://www.w3.org/2000/svg">
<path d="M39.5833 75H14.5833V93.1818C14.5833 96.9489 17.6345 100 21.4015 100H39.5833V75Z" fill="#00832D"/>
<path d="M39.5833 0H21.4015C17.6345 0 14.5833 3.05114 14.5833 6.81818V75H39.5833V25H62.3106V0H39.5833Z" fill="#FFBA00"/>
<path d="M87.3106 75H62.3106V100H80.4924C84.2595 100 87.3106 96.9489 87.3106 93.1818V75Z" fill="#0066DA"/>
<path d="M62.3106 75H39.5833V100H62.3106V75Z" fill="#00AC47"/>
<path d="M62.3106 25V75H87.3106V25H62.3106Z" fill="#2684FC"/>
<path d="M62.3106 0V25H87.3106L62.3106 0Z" fill="#EA4335"/>
<path d="M62.3106 25H39.5833V75H62.3106V25Z" fill="white"/>
</svg>
