<svg width="100" height="100" viewBox="0 0 100 100" fill="none" xmlns="http://www.w3.org/2000/svg">
<path d="M76.3158 23.6842H23.6842V76.3158H76.3158V23.6842Z" fill="white"/>
<path d="M34.4802 64.5131C32.5131 63.1842 31.1513 61.2434 30.4079 58.6776L34.9737 56.796C35.3881 58.375 36.1118 59.5986 37.1447 60.4671C38.171 61.3355 39.421 61.7631 40.8816 61.7631C42.375 61.7631 43.6579 61.3092 44.7302 60.4013C45.8026 59.4934 46.3421 58.3355 46.3421 56.9342C46.3421 55.4999 45.7763 54.3289 44.6447 53.421C43.5131 52.5131 42.0921 52.0592 40.3947 52.0592H37.7566V47.5394H40.125C41.5855 47.5394 42.8158 47.1447 43.8158 46.3552C44.8158 45.5657 45.3158 44.4868 45.3158 43.1118C45.3158 41.8881 44.8684 40.9144 43.9737 40.1842C43.0789 39.4539 41.9473 39.0855 40.5723 39.0855C39.2302 39.0855 38.1644 39.4407 37.375 40.1578C36.586 40.8769 35.9929 41.7847 35.6513 42.796L31.1316 40.9144C31.7302 39.2171 32.8289 37.7171 34.4408 36.421C36.0526 35.125 38.1118 34.4736 40.6118 34.4736C42.4605 34.4736 44.125 34.8289 45.5987 35.546C47.0723 36.2631 48.2302 37.2565 49.0658 38.5197C49.9013 39.7894 50.3158 41.2105 50.3158 42.7894C50.3158 44.4013 49.9276 45.7631 49.1513 46.8815C48.375 48 47.421 48.8552 46.2894 49.4539V49.7236C47.7506 50.326 49.0198 51.3155 49.9605 52.5855C50.9144 53.8684 51.3947 55.4013 51.3947 57.1907C51.3947 58.9802 50.9408 60.5789 50.0329 61.9802C49.125 63.3815 47.8684 64.4868 46.2763 65.2894C44.6776 66.0921 42.8815 66.5 40.8881 66.5C38.5789 66.5065 36.4473 65.8421 34.4802 64.5131V64.5131ZM62.5263 41.8552L57.5131 45.4802L55.0065 41.6776L64 35.1907H67.4473V65.7894H62.5263V41.8552Z" fill="#4285F4"/>
<path d="M76.3158 76.3158H23.6842V100H76.3158V76.3158Z" fill="#34A853"/>
<path d="M76.3158 0H7.89474C3.53289 0 0 3.53289 0 7.89474V76.3158H23.6842V23.6842H76.3158V0Z" fill="#4285F4"/>
<path d="M0 76.3158V92.1053C0 96.4671 3.53289 100 7.89474 100H23.6842V76.3158H0Z" fill="#188038"/>
<path d="M100 23.6842H76.3158V76.3158H100V23.6842Z" fill="#FBBC04"/>
<path d="M100 23.6842V7.89474C100 3.53289 96.4671 0 92.1053 0H76.3158V23.6842H100Z" fill="#1967D2"/>
<path d="M76.3158 100L100 76.3158H76.3158V100Z" fill="#EA4335"/>
</svg>
