<svg width="100" height="100" viewBox="0 0 100 100" fill="none" xmlns="http://www.w3.org/2000/svg">
<path d="M7.56014 82.825L11.9702 90.4424C12.8866 92.0461 14.2039 93.3061 15.7503 94.2225L31.5006 66.9602H0C0 68.7357 0.458169 70.5112 1.37455 72.1148L7.56014 82.825Z" fill="#0066DA"/>
<path d="M50 34.8868L34.2497 7.62451C32.7033 8.54089 31.386 9.80091 30.4696 11.4046L1.37455 61.8055C0.475022 63.3746 0.00119767 65.1515 0 66.9601H31.5006L50 34.8868Z" fill="#00AC47"/>
<path d="M84.2497 94.2225C85.7961 93.3061 87.1134 92.0461 88.0298 90.4424L89.8625 87.2924L98.6255 72.1148C99.5418 70.5112 100 68.7357 100 66.9602H68.4972L75.2005 80.1332L84.2497 94.2225Z" fill="#EA4335"/>
<path d="M50 34.8869L65.7503 7.62457C64.2039 6.70819 62.4284 6.25 60.5957 6.25H39.4044C37.5716 6.25 35.7961 6.76546 34.2497 7.62457L50 34.8869Z" fill="#00832D"/>
<path d="M68.4994 66.9602H31.5006L15.7503 94.2225C17.2967 95.1389 19.0722 95.5971 20.9049 95.5971H79.0951C80.9278 95.5971 82.7033 95.0816 84.2497 94.2225L68.4994 66.9602Z" fill="#2684FC"/>
<path d="M84.0779 36.605L69.5304 11.4046C68.614 9.80091 67.2967 8.54089 65.7503 7.62451L50 34.8868L68.4994 66.9601H99.9427C99.9427 65.1846 99.4845 63.4092 98.5682 61.8055L84.0779 36.605Z" fill="#FFBA00"/>
</svg>
