<svg width="100" height="100" viewBox="0 0 100 100" fill="none" xmlns="http://www.w3.org/2000/svg">
<path fill-rule="evenodd" clip-rule="evenodd" d="M53.478 2.17884C53.7098 2.64198 53.848 3.14627 53.8849 3.66287C53.9217 4.17947 53.8564 4.69827 53.6926 5.18961C53.5289 5.68096 53.27 6.13523 52.9306 6.52647C52.5912 6.91771 52.1781 7.23824 51.7148 7.46976L12.7609 26.9467L49.9998 45.5661L87.2315 26.9495L73.0059 19.8516L51.7375 30.4745C51.2731 30.7164 50.7652 30.8635 50.2434 30.9071C49.7216 30.9507 49.1964 30.8899 48.6983 30.7284C48.2003 30.5669 47.7393 30.3077 47.3425 29.9662C46.9456 29.6246 46.6207 29.2075 46.3868 28.739C46.1528 28.2706 46.0145 27.7602 45.9799 27.2378C45.9453 26.7153 46.015 26.1912 46.1851 25.696C46.3552 25.2007 46.6222 24.7444 46.9705 24.3534C47.3189 23.9625 47.7416 23.6448 48.2139 23.419L71.2427 11.9159C71.7896 11.6428 72.3925 11.5007 73.0038 11.5007C73.615 11.5007 74.2179 11.6428 74.7648 11.9159L97.8176 23.4175C98.473 23.7448 99.0243 24.248 99.4097 24.871C99.7952 25.4939 99.9995 26.2119 99.9998 26.9444C100 27.677 99.7963 28.3951 99.4114 29.0183C99.0265 29.6416 98.4756 30.1453 97.8204 30.4731L51.8139 53.4763C51.2309 53.7678 50.6111 53.9009 50.0026 53.8938C49.3728 53.9024 48.7502 53.7598 48.1871 53.4778L2.17907 30.4731C1.52418 30.1454 0.97344 29.642 0.588534 29.019C0.203627 28.3961 -0.000244141 27.6783 -0.000244141 26.946C-0.000244141 26.2137 0.203627 25.4959 0.588534 24.873C0.97344 24.2501 1.52418 23.7466 2.17907 23.419L48.1871 0.415665C49.1225 -0.0520716 50.2054 -0.129083 51.1977 0.201568C52.1899 0.53222 53.0101 1.24346 53.478 2.17884ZM0.478159 71.1746C0.709697 70.7113 1.03022 70.2981 1.42142 69.9587C1.81262 69.6193 2.26685 69.3603 2.75816 69.1965C3.24947 69.0326 3.76824 68.9671 4.28486 69.0038C4.80147 69.0404 5.30582 69.1784 5.76909 69.41L50.0125 91.5331L94.2559 69.41C95.1915 68.9422 96.2747 68.8652 97.267 69.196C98.2594 69.5268 99.0797 70.2382 99.5475 71.1738C100.015 72.1095 100.092 73.1926 99.7615 74.185C99.4307 75.1773 98.7193 75.9977 97.7837 76.4655L51.7757 99.4688C51.2282 99.7425 50.6246 99.885 50.0125 99.885C49.4004 99.885 48.7968 99.7425 48.2493 99.4688L2.24133 76.4655C1.778 76.2338 1.36484 75.9131 1.02546 75.5218C0.686081 75.1304 0.42713 74.676 0.263396 74.1846C0.0996626 73.6931 0.0343555 73.1742 0.071205 72.6575C0.108055 72.1408 0.246339 71.6378 0.478159 71.1746Z" fill="white"/>
<path fill-rule="evenodd" clip-rule="evenodd" d="M0.478318 48.1686C0.946181 47.2332 1.76643 46.522 2.75865 46.1913C3.75087 45.8606 4.8338 45.9377 5.76924 46.4054L50.0126 68.5271L94.2561 46.4054C95.1898 45.9519 96.2646 45.8849 97.2475 46.2188C98.2303 46.5527 99.0419 47.2606 99.5062 48.189C99.9705 49.1173 100.05 50.1913 99.7276 51.178C99.4052 52.1647 98.7067 52.9844 97.7838 53.4595L51.7758 76.4628C51.2283 76.7362 50.6247 76.8785 50.0126 76.8785C49.4006 76.8785 48.797 76.7362 48.2495 76.4628L2.24149 53.4595C1.30611 52.9916 0.594873 52.1714 0.264221 51.1792C-0.0664308 50.1869 0.0105811 49.104 0.478318 48.1686Z" fill="white"/>
</svg>
