<svg width="100" height="100" viewBox="0 0 100 100" fill="none" xmlns="http://www.w3.org/2000/svg">
<path fill-rule="evenodd" clip-rule="evenodd" d="M58.9723 11.4448L79.507 23.3013C80.0999 22.674 80.7802 22.1356 81.527 21.7028C85.7856 19.2545 91.2177 20.7081 93.6914 24.9671C96.1397 29.226 94.6861 34.6578 90.4271 37.1315C89.6859 37.5583 88.8872 37.8764 88.0555 38.0758V61.7974C88.8781 61.9972 89.6681 62.3131 90.4018 62.7355C94.6861 65.2093 96.1397 70.6413 93.666 74.9003C91.2177 79.1589 85.7602 80.6126 81.5013 78.1646C80.6762 77.6912 79.9329 77.0878 79.3001 76.3776L58.8904 88.1611C59.1893 89.0662 59.3411 90.0133 59.34 90.9664C59.34 95.8628 55.3619 99.8669 50.4398 99.8669C45.5177 99.8669 41.5397 95.8881 41.5397 90.9664C41.5397 90.0915 41.6654 89.2464 41.8997 88.4482L21.3705 76.5953C20.7842 77.2101 20.1134 77.7385 19.3784 78.1646C15.0941 80.6126 9.66198 79.1589 7.21361 74.9003C4.76559 70.6413 6.21927 65.2093 10.4779 62.7355C11.2115 62.313 12.0015 61.9971 12.8242 61.7971V38.0758C11.9924 37.8764 11.1937 37.5583 10.4525 37.1315C6.19358 34.6835 4.7399 29.226 7.18827 24.9671C9.63663 20.7081 15.0937 19.2545 19.3527 21.7028C20.0953 22.1333 20.7723 22.6682 21.3629 23.2912L41.9035 11.4316C41.6614 10.6098 41.5389 9.7574 41.5397 8.90064C41.5397 3.97926 45.5177 0.000488281 50.4398 0.000488281C55.3619 0.000488281 59.34 3.97891 59.34 8.90064C59.34 9.78527 59.2115 10.639 58.9723 11.4448ZM56.8329 15.0979L77.4166 26.9822C77.0889 28.1279 76.9949 29.3279 77.1402 30.5107C77.2856 31.6935 77.6673 32.8349 78.2627 33.8672C79.5157 36.0469 81.5568 37.4919 83.8222 38.055V61.8061C83.7066 61.8342 83.5917 61.8651 83.4775 61.8978L56.5937 15.3358C56.675 15.258 56.7548 15.1785 56.8329 15.0979ZM44.2915 15.341L17.4081 61.9023C17.2918 61.8687 17.1749 61.8374 17.0574 61.8085V38.055C19.3228 37.4919 21.3639 36.0469 22.6169 33.8672C23.2135 32.833 23.5956 31.6891 23.7404 30.5039C23.8852 29.3187 23.7897 28.1164 23.4595 26.969L44.0373 15.0882C44.1203 15.174 44.205 15.2587 44.2915 15.341ZM52.9267 17.4501L79.8039 64.001C79.1882 64.5885 78.6605 65.2617 78.237 65.9998C77.8146 66.7334 77.4987 67.5234 77.2989 68.3461H23.5814C23.3813 67.5234 23.0652 66.7334 22.6426 65.9998C22.2177 65.2668 21.6909 64.5977 21.0782 64.0125L47.9606 17.4522C48.7665 17.6843 49.6011 17.8016 50.4398 17.8008C51.3033 17.8008 52.1376 17.6786 52.9267 17.4501ZM57.0218 84.9705L77.4718 73.1633C77.4105 72.9706 77.3558 72.7758 77.3076 72.5793H23.57C23.5415 72.695 23.5106 72.8095 23.4776 72.9238L44.0276 84.7889C44.8575 83.926 45.8534 83.2399 46.9554 82.772C48.0573 82.3041 49.2426 82.064 50.4398 82.0662C51.6789 82.0641 52.9047 82.3214 54.0383 82.8216C55.1719 83.3218 56.1882 84.0538 57.0218 84.9705Z" fill="#E535AB"/>
</svg>
