<svg width="100" height="100" viewBox="0 0 100 100" fill="none" xmlns="http://www.w3.org/2000/svg">
<g clip-path="url(#clip0_755_13135)">
<path d="M18.0267 24.2299C18.0267 24.2299 19.7341 30.8149 19.9777 33.0103C20.2218 35.2051 15.5878 40.0829 15.5878 42.5218C15.5878 44.9611 16.5619 49.3509 21.9283 51.5463C27.2947 53.7414 28.0256 59.3505 28.0256 62.7659C28.0256 66.1802 26.0747 72.7646 26.0747 72.7646C26.0747 72.7646 24.8558 89.1052 31.4402 92.0318C38.0246 94.9581 36.5619 94.9581 38.0246 94.9581C39.4876 94.9581 50.2192 99.3495 56.5601 97.6418C62.9015 95.9346 64.6075 93.9837 64.6075 93.9837C64.6075 93.9837 70.9492 94.4711 72.9002 88.8608C74.852 83.2518 76.0709 71.5454 75.3388 66.1796C74.607 60.8132 73.632 53.7417 78.0213 51.3025C82.4126 48.8633 87.0458 45.9376 86.314 43.498C85.5822 41.0588 81.6811 37.6443 81.6811 37.6443C81.6811 37.6443 80.7052 31.5475 81.4364 30.084C82.1676 28.6207 86.5581 24.9614 84.1189 22.2792C81.6814 19.5968 77.2901 19.5968 77.2901 19.5968L71.681 20.0838C71.681 20.0838 62.1694 11.5482 49.731 12.0359C37.2931 12.5235 29.4881 20.0838 29.4881 20.0838C29.4881 20.0838 25.3423 18.6206 21.6836 20.0838C18.0249 21.5477 17.2955 20.0836 18.0267 24.2299Z" fill="#FBA919"/>
<path d="M40.3121 60.5426C40.3121 60.5426 35.4822 67.9274 31.9395 73.1683C31.3914 73.9791 35.4822 74.0352 35.4822 74.0352L40.3121 60.5423V60.5426ZM42.6116 45.2316C42.6116 45.2316 41.1555 48.8639 40.3581 50.7893C39.4926 52.8826 36.1917 53.9239 36.1917 53.9239C36.1917 53.9239 37.9026 52.1293 37.9026 47.5831C37.9026 45.676 40.365 44.9175 40.365 44.9175L42.6116 45.2316Z" fill="#E78724"/>
<path d="M41.141 47.2852C41.141 47.2852 38.158 50.836 32.6199 48.8473C27.0803 46.8594 26.5124 39.7571 26.5124 37.7687C26.5124 35.7802 37.0226 39.7571 38.4434 40.6095C39.864 41.4619 42.5613 44.8701 41.141 47.2852ZM20.2198 9.34409C20.2198 9.34409 25.3328 8.34899 28.7409 11.048C32.1508 13.7465 33.1439 15.8773 33.1439 15.8773L27.3985 20.4314C27.3985 20.4314 24.6225 19.1445 23.7704 15.4513C22.9182 11.7583 23.4864 10.0544 20.2198 9.34409Z" fill="#E78724"/>
<path d="M39.6495 37.029C37.4483 33.9042 33.8205 32.5412 30.9238 32.3154C25.9849 31.9291 23.6402 33.6752 23.6402 33.6752C23.6402 33.6752 31.7288 34.0176 34.0602 37.0796C38.4004 42.7788 44.7323 43.2417 45.7448 41.99C44.5739 42.0484 43.2861 41.4683 41.9074 40.1649C41.0463 39.3494 40.3482 38.0209 39.6495 37.029ZM25.9948 48.078C25.9948 48.078 17.0203 44.9927 18.726 41.8688C20.4299 38.7437 19.0736 37.041 19.0736 37.041C19.0736 37.041 14.0623 40.7819 15.339 44.7588C16.124 47.1995 17.4405 48.9668 24.6701 52.3549C28.1379 58.796 25.3862 70.3896 25.551 70.4439C25.8257 70.5352 30.4199 68.1733 30.1063 57.3266C30.0104 53.996 29.7442 49.4489 25.9948 48.0783V48.078ZM37.7552 14.9017C33.9922 16.8134 28.8368 19.4759 28.8368 19.4759L30.866 20.491C30.6721 20.8046 30.5788 20.9918 30.5788 20.9918L32.6614 21.9386C32.6614 21.9386 37.7453 25.6214 40.86 27.9894C39.8216 24.7908 36.7729 19.7668 36.7729 19.7668C36.7729 19.7668 35.9092 17.4586 37.7552 14.9017ZM50.2568 92.8311C38.6899 92.8311 34.7723 86.9593 34.7723 86.9593L36.5799 91.3611C37.2629 93.2653 44.5518 99.1911 50.2393 99.1911" fill="#E78724"/>
<path d="M36.0396 82.9917C36.0396 82.9917 37.1039 89.4953 41.3651 89.4953C44.986 89.4953 46.0528 84.0016 46.0528 82.8661L36.0396 82.9917ZM28.9487 73.1831C29.3274 72.1409 30.6529 67.9274 31.0787 64.0929C31.589 59.5002 31.403 52.7832 31.403 52.7832C31.403 52.7832 30.2661 57.1862 29.2719 57.8977C28.2782 58.6074 26.4313 63.4361 26.4313 63.4361C26.4313 63.4361 25.442 70.625 24.9712 73.0412C26.2744 73.3019 27.3712 72.5344 28.9487 73.1831ZM18.6588 44.6879C18.6588 44.6879 21.0727 43.8349 21.7836 38.5804C22.4936 33.325 20.9309 28.7799 20.9309 28.7799C20.9309 28.7799 21.0727 36.0235 20.2209 37.4443C19.3682 38.864 18.6588 39.2904 17.664 41.1373C16.6692 42.9845 18.0898 44.1194 18.6588 44.6879Z" fill="#E78724"/>
<path d="M21.5412 10.5871L21.0483 10.275C19.5952 10.3241 21.5412 10.5871 21.5412 10.5871Z" fill="#FDC168"/>
<path d="M39.7199 13.3457C39.7199 13.3457 37.4483 12.9673 36.3114 11.2631C35.1745 9.55858 31.9558 6.14926 26.8242 6.11148C21.693 6.07311 16.6163 7.47538 16.6163 7.47538L21.0478 10.2756C21.5166 10.2601 22.3361 10.2665 23.6913 10.3119C29.253 10.4967 30.1092 15.9977 30.1092 15.9977L49.7095 13.2986" fill="#FBA919"/>
<path d="M41.6144 43.7297C41.6144 43.7297 38.9627 46.3811 34.8905 45.5284C30.8185 44.6766 28.3561 42.8773 28.1669 39.7522C27.9777 36.6274 29.0199 35.3966 29.0199 35.3966C29.0199 35.3966 33.5644 36.8178 35.7435 38.7118C37.9214 40.6052 39.5312 43.6352 41.6144 43.7297Z" fill="white"/>
<path d="M38.4053 42.7825C38.4053 42.7825 36.1056 43.8329 33.5353 42.9773C30.1707 41.8549 29.9467 38.3557 29.9467 38.3557C29.9467 38.3557 27.8824 44.4132 33.6696 45.5792C38.3112 46.5142 41.0564 43.8244 41.0564 43.8244L38.4053 42.7823V42.7825Z" fill="#C9C9C9"/>
<path d="M40.0395 12.0606C39.7922 6.86594 44.0507 2.7286 45.5265 2.55219C45.6079 3.4325 45.444 6.86623 46.9192 7.92207C47.3487 5.11754 48.801 2.02529 54.5359 -0.000366211C53.3077 3.25725 54.3717 5.98593 54.8788 7.25073C58.7947 3.69638 61.4333 4.28345 61.4333 4.28345C61.4333 4.28345 58.7122 8.97879 59.7767 12.0597C51.9153 11.4433 40.0779 12.8947 40.0395 12.0606ZM23.3733 19.9737C21.4973 18.4174 22.8955 16.9733 22.7473 15.2051C22.6668 14.2644 22.5924 13.3768 22.2823 12.8871C20.556 10.1616 16.4841 9.33451 16.4434 9.32579L14.5322 8.95147L15.7973 7.4716C15.9612 7.27979 21.1564 2.3226 29.1966 4.91846C34.8208 6.73225 38.9843 12.883 39.1392 13.1315L36.3192 14.4576C36.2861 14.4053 32.9945 8.62364 28.1695 7.06792C24.2693 5.80952 20.6743 7.00689 19.1349 7.79158C20.7717 8.44491 22.9115 9.63502 24.201 11.6708C24.8093 12.6325 24.9122 13.843 25.0113 15.0154C25.1421 16.5673 25.2641 18.0323 26.4063 18.9812L23.3733 19.9737ZM18.3635 42.6904C18.3635 42.6904 20.7266 39.7598 21.4267 34.0577C21.7017 31.8115 21.2131 27.3815 20.4316 25.6772C20.5737 29.8672 19.5086 34.0577 19.5086 34.0577C19.5086 34.0577 18.7905 41.838 18.3635 42.6904Z" fill="#463014"/>
<path d="M30.825 17.014C30.8235 17.0079 30.0665 13.6994 27.9676 12.0292C25.0067 9.67396 21.3916 10.9268 21.3567 10.9379L20.8318 9.3162C21.0068 9.25953 25.1389 7.95753 28.947 10.6345C32.778 13.3265 33.2378 15.7669 33.2776 16.0363L30.825 17.014ZM25.7858 40.5886C25.7858 40.5886 24.546 38.8138 24.7689 36.8619C24.88 35.8979 25.3269 34.9084 26.1241 34.5573C27.6063 33.9063 28.2631 35.5861 28.2631 35.5861C28.2631 35.5861 26.1773 36.1008 25.7858 40.5886Z" fill="#463014"/>
<path d="M39.399 43.294C39.4507 43.3905 39.4774 43.4449 39.4774 43.4449C39.4774 43.4449 35.6101 46.3471 31.6471 43.4019C29.5256 41.8238 29.7261 37.921 30.3759 36.2659C32.0662 36.6489 33.4996 37.3391 34.6975 38.1453C33.1834 36.7939 31.8581 35.7991 31.8616 35.7762L30.1405 35.2891L26.7954 34.142C26.7527 34.3971 25.5327 40.1161 29.0545 44.0128C30.6151 45.7408 37.933 49.6102 41.4078 42.9938L39.399 43.2937V43.294Z" fill="#463014"/>
<path d="M39.0369 43.7193C41.214 47.033 46.7074 45.1392 46.6129 41.6361C46.6129 41.6361 42.9423 43.6617 39.6992 39.9318C37.8058 37.7545 31.739 31.7504 23.5114 33.7456C29.1931 34.9953 36.7157 40.1858 39.0369 43.7193Z" fill="#463014"/>
<path d="M22.743 53.0715C23.2667 53.3741 25.1139 55.2873 25.115 58.1482C25.115 59.583 24.9723 66.7905 24.2621 71.1937C25.3301 71.8878 26.0741 72.0354 27.1378 72.7428C27.6702 67.6432 28.0521 60.252 27.8742 57.2682C27.6708 53.867 25.8494 51.5844 24.1606 50.6111C23.6317 50.3068 23.0792 50.0078 22.5227 49.707C19.6301 48.144 16.6387 46.5269 16.6387 43.7663C16.6387 41.6064 17.4786 40.931 18.3673 40.2149L18.4632 40.1373C19.0532 39.6606 19.7205 39.1201 20.116 38.2328C21.1951 35.8067 21.3715 29.6259 20.116 28.0571C19.49 27.2754 17.8131 24.6464 18.2952 22.8797C18.4789 22.2054 18.9035 21.7055 19.5949 21.3516C20.3264 20.9767 21.3148 20.7869 22.5314 20.7869C24.9209 20.7869 27.5714 21.5143 28.9388 21.9473C33.8251 23.4961 39.7213 27.9612 41.4113 29.2929C41.4598 29.3301 41.4883 29.3519 41.4935 29.3554L42.5749 30.1075L41.8986 28.9758C41.8568 28.9052 37.5733 21.8616 29.9138 19.2791C28.4238 18.7766 25.4963 17.9335 22.6191 17.9335C20.9065 17.9335 19.4528 18.2329 18.3022 18.822C16.8994 19.5395 15.9496 20.6843 15.5549 22.1316C14.5877 25.6793 17.7378 29.6291 17.8451 29.7556C18.2124 30.4112 18.3682 35.1737 17.5196 37.0796C17.4033 37.3429 17.083 37.6013 16.6782 37.9282C16.5512 38.0308 16.4094 38.1375 16.2591 38.2514C15.062 39.155 13.252 40.52 13.252 43.6666C13.252 47.9719 17.6155 50.3062 21.1221 52.1831C21.6976 52.4926 22.2466 52.7856 22.743 53.0715Z" fill="#463014"/>
<path d="M23.3733 19.9737C21.4973 18.4174 22.8955 16.9733 22.7473 15.2051C22.6668 14.2644 22.5924 13.3768 22.2823 12.8871C20.556 10.1616 16.4841 9.33451 16.4434 9.32579L14.5322 8.95147L15.7973 7.4716C15.9612 7.27979 21.1564 2.3226 29.1966 4.91846C34.8208 6.73225 38.9843 12.883 39.1392 13.1315L36.3192 14.4576C36.2861 14.4053 32.9945 8.62364 28.1695 7.06792C24.2693 5.80952 20.6743 7.00689 19.1349 7.79158C20.7717 8.44491 22.9115 9.63502 24.201 11.6708C24.8093 12.6325 24.9122 13.843 25.0113 15.0154C25.1421 16.5673 25.2641 18.0323 26.4063 18.9812L23.3733 19.9737Z" fill="#463014"/>
<path d="M23.3123 20.2925L23.1911 20.192C21.8002 19.0376 22.0469 17.9007 22.2858 16.8004C22.3945 16.2926 22.509 15.7678 22.4625 15.2293C22.3867 14.324 22.3137 13.4698 22.0411 13.0388C20.3976 10.4435 16.4254 9.61234 16.3861 9.60421L13.9995 9.13601L15.5817 7.28618C15.6107 7.25131 18.9465 3.88412 24.596 3.88412C26.1363 3.88412 27.7141 4.14046 29.2838 4.6476C35.1538 6.54015 39.3411 12.9176 39.3807 12.9807L39.5501 13.2515L36.2143 14.8203L36.0806 14.6082C35.7214 13.9961 32.5585 8.77999 28.0841 7.33675C26.9852 6.98219 25.8274 6.80287 24.6439 6.80287C22.5003 6.80287 20.7621 7.38703 19.837 7.77937C21.3828 8.47542 23.2577 9.64693 24.4434 11.5177C25.0886 12.5366 25.1932 13.7819 25.2955 14.9854C25.4211 16.4816 25.5396 17.8888 26.5894 18.7601L26.9855 19.0885L23.3123 20.2925Z" fill="#463014"/>
<path d="M30.825 17.014C30.8235 17.0079 30.0665 13.6994 27.9676 12.0292C25.0067 9.67396 21.3916 10.9268 21.3567 10.9379L20.8318 9.3162C21.0068 9.25953 25.1389 7.95753 28.947 10.6345C32.778 13.3265 33.2378 15.7669 33.2776 16.0363L30.825 17.014Z" fill="#463014"/>
<path d="M30.6212 17.4008L30.5474 17.0753C30.5399 17.0433 29.7973 13.8482 27.79 12.2521C26.6458 11.3413 25.2662 10.8786 23.6916 10.8786C22.4625 10.8786 21.5491 11.1721 21.4494 11.2067L21.1782 11.2968L20.4741 9.13368L20.7441 9.04649C20.865 9.00784 21.9618 8.66577 23.5131 8.66577C25.5597 8.66577 27.4947 9.26649 29.1111 10.4017C33.0384 13.1612 33.5179 15.7131 33.5586 15.9948L33.5932 16.2174L30.6212 17.4008ZM23.6919 10.3116C25.374 10.3116 26.9149 10.8289 28.1442 11.8066C29.9266 13.2263 30.7651 15.7323 31.0185 16.6309L32.9506 15.8608C32.7756 15.1787 32.0055 13.1315 28.7842 10.867C27.243 9.78381 25.4702 9.23511 23.5134 9.23511C22.4396 9.23511 21.6055 9.40599 21.1934 9.51004L21.5418 10.5871C21.9458 10.4784 22.7235 10.3116 23.6919 10.3116ZM41.1869 87.9352C40.3476 87.9352 39.4911 87.6306 38.8976 87.1168C38.4431 86.725 36.9063 85.3135 36.2286 83.5842C35.9757 82.9376 36.0324 82.4203 36.3994 82.048C36.6523 81.7928 37.1774 81.488 38.2432 81.488L39.0014 81.4868C39.905 81.4856 41.4261 81.4856 42.7263 81.4856H43.9731C44.784 81.4856 45.3652 81.6612 45.6991 82.003C46.1284 82.4438 45.9909 83.0047 45.8706 83.3C45.6619 83.8173 44.7973 85.5003 43.3337 87.0651C42.8098 87.626 42.0472 87.9352 41.1869 87.9352ZM42.0666 43.9139L39.0366 43.7192C39.0366 43.7192 39.8111 45.0846 40.313 46.8504C40.8797 48.8479 39.7948 51.7672 39.7948 51.7672C39.7948 51.7672 43.8351 47.1928 42.0666 43.9139ZM38.2841 95.9361C27.4993 95.1072 23.7049 84.9165 23.7049 82.794L26.5214 82.7952L25.1133 82.794H26.5214C26.5356 83.7115 29.4015 92.4288 38.4998 93.1287L38.2841 95.9361Z" fill="#463014"/>
<path d="M35.2535 77.6779C35.0849 76.704 35.0675 75.7801 35.273 74.8725C34.4534 74.2563 32.9828 74.0276 31.8793 73.6699C30.977 73.0988 26.3592 74.2552 23.0095 70.201C18.812 65.1243 19.6952 62.0934 19.6952 62.0934C18.619 63.289 17.5759 62.8333 15.9357 68.4087C14.2928 73.9852 16.7067 77.8726 21.2056 81.7754C23.3309 83.6188 26.3354 84.3785 28.9199 84.6691C28.0541 83.8002 30.3986 83.713 32.0145 83.1085C31.8857 81.8036 32.1017 80.537 33.0744 79.5172C33.6609 78.9023 34.4156 78.5349 35.1989 78.242C35.2425 78.1408 35.2794 78.0473 35.3209 77.9502C35.2934 77.8608 35.2708 77.7698 35.2535 77.6779Z" fill="white"/>
<path d="M31.993 83.0745C31.8994 82.8004 31.8288 82.5214 31.7596 82.2404C31.6849 81.9338 31.3129 81.0642 31.7712 82.057C31.6535 81.8027 31.5765 81.5409 31.5198 81.277C24.2338 81.2677 17.8953 76.2651 19.12 65.7483C18.1662 64.482 16.8305 68.3017 16.8305 68.3017C16.8305 68.3017 13.1828 78.8927 22.6032 82.9975C25.7419 84.3663 28.5159 85.3478 29.1704 84.9516C30.5337 85.2286 31.7642 84.2783 32.2257 83.6531C32.1394 83.4613 32.0604 83.2689 31.993 83.0745Z" fill="#C9C9C9"/>
<path d="M35.1221 76.153C35.1335 75.2654 35.3148 74.4055 35.7441 73.549C35.774 73.49 35.8086 73.4333 35.8408 73.3758C33.0372 73.3516 29.8083 73.0834 27.0587 71.9828C24.0365 70.7738 20.2561 66.6382 19.6065 61.779C19.6065 61.779 13.9149 66.1709 15.5872 75.5717C17.1571 84.3989 24.544 87.2767 32.9683 87.7635C32.9729 87.7065 32.0209 85.7401 32.3217 84.5361C27.538 84.8836 22.1887 83.0356 19.6065 78.7866C17.2423 74.8975 17.9055 68.2579 18.8771 67.2848C21.2471 74.7632 29.7752 76.2835 35.1221 76.153Z" fill="#463014"/>
<path d="M36.0048 70.7994C34.4889 75.248 31.3926 78.8485 31.3926 78.8485C31.3926 78.8485 35.652 78.6547 35.8871 77.9011C36.0612 77.3454 39.7332 68.7493 41.1428 58.6791C39.8169 60.8574 36.1347 70.4184 36.0048 70.7994Z" fill="#463014"/>
<path d="M60.1374 60.5426C60.1374 60.5426 64.9661 67.9274 68.51 73.1683C69.0581 73.9791 64.9661 74.0352 64.9661 74.0352L60.1374 60.5423V60.5426ZM57.8374 45.2316C57.8374 45.2316 59.2934 48.8639 60.0897 50.7893C60.9558 52.8826 64.2561 53.9239 64.2561 53.9239C64.2561 53.9239 62.5455 52.1293 62.5455 47.5831C62.5455 45.676 60.0834 44.9175 60.0834 44.9175L57.8374 45.2316Z" fill="#E78724"/>
<path d="M59.308 47.2852C59.308 47.2852 62.2907 50.836 67.8306 48.8473C73.3705 46.8588 73.9378 39.7571 73.9378 37.7687C73.9378 35.7802 63.4276 39.7571 62.0067 40.6095C60.5862 41.4619 57.888 44.8701 59.308 47.2852ZM80.2295 9.34409C80.2295 9.34409 75.1165 8.34899 71.7069 11.048C68.2988 13.7465 67.304 15.8773 67.304 15.8773L73.0496 20.4314C73.0496 20.4314 75.8268 19.144 76.6789 15.451C77.5308 11.7583 76.9629 10.0541 80.2295 9.34409Z" fill="#E78724"/>
<path d="M60.7998 37.029C63.001 33.9042 66.6277 32.5412 69.5255 32.3154C74.4647 31.9291 76.8083 33.6752 76.8083 33.6752C76.8083 33.6752 68.7196 34.0176 66.3876 37.0796C62.0471 42.7788 55.7176 43.2417 54.7051 41.99C55.8757 42.0484 57.1643 41.4683 58.5419 40.1649C59.4027 39.3494 60.1014 38.0209 60.7998 37.029ZM74.4545 48.078C74.4545 48.078 83.4281 44.9927 81.7236 41.8688C80.0197 38.7437 81.3749 37.041 81.3749 37.041C81.3749 37.041 86.3873 40.7819 85.1094 44.7585C84.3244 47.1992 83.0079 48.9665 75.7783 52.3546C72.3105 58.7957 75.0622 70.3893 74.8983 70.4436C74.6233 70.5349 70.0297 68.173 70.3433 57.3263C70.4386 53.9957 70.7051 49.4486 74.4545 48.078ZM62.6944 14.9017C66.4562 16.8134 71.6125 19.4759 71.6125 19.4759L69.5839 20.491C69.7775 20.8046 69.871 20.9918 69.871 20.9918L67.7884 21.9386C67.7884 21.9386 62.7042 25.6214 59.5893 27.9894C60.6268 24.7911 63.6755 19.7671 63.6755 19.7671C63.6755 19.7671 64.541 17.4586 62.6944 14.9017ZM50.1931 92.8311C61.758 92.8311 65.6759 86.9593 65.6759 86.9593L63.8693 91.3611C63.1864 93.2653 55.8966 99.1911 50.2108 99.1911" fill="#E78724"/>
<path d="M64.4096 82.9917C64.4096 82.9917 63.3441 89.4953 59.0842 89.4953C55.4641 89.4953 54.3967 84.0016 54.3967 82.8661L64.4096 82.9917ZM71.5005 73.1831C71.1218 72.1409 69.7963 67.9274 69.3694 64.0929C68.859 59.5002 69.0462 52.7832 69.0462 52.7832C69.0462 52.7832 70.1825 57.1862 71.1759 57.8977C72.171 58.6074 74.0168 63.4361 74.0168 63.4361C74.0168 63.4361 75.0058 70.625 75.4766 73.0412C74.174 73.3019 73.0783 72.5344 71.5005 73.1831ZM81.7913 44.6879C81.7913 44.6879 79.3762 43.8349 78.6665 38.5804C77.9565 33.325 79.5189 28.7799 79.5189 28.7799C79.5189 28.7799 79.3762 36.0235 80.2289 37.4443C81.0816 38.8646 81.7913 39.2904 82.7858 41.1373C83.7791 42.9839 82.3589 44.1194 81.7913 44.6879Z" fill="#E78724"/>
<path d="M78.9077 10.5871L79.4015 10.275C80.8549 10.3241 78.9077 10.5871 78.9077 10.5871Z" fill="#FDC168"/>
<path d="M60.7283 13.3457C60.7283 13.3457 63.0012 12.9673 64.137 11.2631C65.2733 9.55858 68.4935 6.14926 73.6253 6.11119C78.7566 6.07282 83.8332 7.47509 83.8332 7.47509L79.4015 10.2753C78.9327 10.2599 78.1131 10.2663 76.7568 10.3116C71.196 10.4964 70.3398 15.9974 70.3398 15.9974L50.7401 13.2983" fill="#FBA919"/>
<path d="M58.8348 43.7297C58.8348 43.7297 61.4865 46.3811 65.5579 45.5284C69.6301 44.6766 72.0923 42.8773 72.2818 39.7522C72.4707 36.6274 71.4297 35.3966 71.4297 35.3966C71.4297 35.3966 66.8837 36.8178 64.706 38.7118C62.5281 40.6058 60.9186 43.6352 58.8348 43.7297Z" fill="white"/>
<path d="M62.0431 42.7825C62.0431 42.7825 64.3436 43.8329 66.9131 42.9773C70.2785 41.8549 70.5026 38.3557 70.5026 38.3557C70.5026 38.3557 72.5657 44.4132 66.7785 45.5792C62.1378 46.5142 59.392 43.8244 59.392 43.8244L62.0431 42.7823V42.7825Z" fill="#C9C9C9"/>
<path d="M77.0756 19.9737C78.9516 18.4174 77.5545 16.9733 77.7027 15.2051C77.7818 14.2644 77.8562 13.3768 78.1666 12.8871C79.8929 10.1616 83.9648 9.33451 84.0067 9.32579L85.9184 8.95147L84.6528 7.4716C84.4888 7.27979 79.2936 2.3226 71.252 4.91846C65.629 6.73225 61.4658 12.883 61.3109 13.1315L64.13 14.4576C64.164 14.4053 67.4559 8.62364 72.2808 7.06792C76.181 5.80952 79.7755 7.00689 81.3143 7.79158C79.6784 8.44491 77.5377 9.63502 76.2482 11.6708C75.6399 12.6325 75.5379 13.843 75.4391 15.0154C75.3083 16.5673 75.1851 18.0323 74.0426 18.9812L77.0756 19.9737ZM82.0845 42.6904C82.0845 42.6904 79.7226 39.7598 79.0225 34.0577C78.7475 31.8114 79.2352 27.3814 80.0164 25.6772C79.8743 29.8672 80.9406 34.0577 80.9406 34.0577C80.9406 34.0577 81.6587 41.838 82.0845 42.6904Z" fill="#463014"/>
<path d="M69.6246 17.014C69.6258 17.0079 70.3828 13.6994 72.482 12.0292C75.4426 9.67396 79.058 10.9268 79.0917 10.9379L79.618 9.3162C79.4425 9.25953 75.311 7.95753 71.5017 10.6345C67.6707 13.3265 67.2121 15.7669 67.1711 16.0363L69.6246 17.014ZM74.6635 40.5886C74.6635 40.5886 75.9033 38.8138 75.6792 36.8619C75.5693 35.8979 75.1226 34.9084 74.3249 34.5573C72.843 33.9063 72.1859 35.5861 72.1859 35.5861C72.1859 35.5861 74.272 36.1008 74.6635 40.5886Z" fill="#463014"/>
<path d="M61.0506 43.294C60.9989 43.3905 60.9721 43.4449 60.9721 43.4449C60.9721 43.4449 64.8377 46.3471 68.801 43.4019C70.9237 41.8238 70.7232 37.921 70.0722 36.2659C68.3828 36.6489 66.9497 37.3391 65.7509 38.1453C67.2653 36.7939 68.5909 35.7991 68.5862 35.7761L70.3085 35.2891L73.653 34.1425C73.696 34.3977 74.9157 40.1166 71.3928 44.0136C69.8321 45.7414 62.5142 49.6108 59.0406 42.9944L61.0506 43.2937V43.294Z" fill="#463014"/>
<path d="M61.4115 43.7193C59.2345 47.033 53.7425 45.1392 53.8373 41.6361C53.8373 41.6361 57.5067 43.6617 60.7498 39.9318C62.6429 37.7545 68.7112 31.7504 76.9382 33.7456C71.2568 34.9953 63.7342 40.1858 61.4115 43.7193Z" fill="#463014"/>
<path d="M77.7074 53.0715C77.1832 53.3741 75.3351 55.2873 75.3351 58.1482C75.3339 59.583 75.4769 66.7905 76.1881 71.1937C75.1197 71.8878 74.3757 72.0354 73.312 72.7428C72.7796 67.6432 72.3966 60.252 72.5759 57.2682C72.779 53.867 74.5995 51.5844 76.288 50.6111C76.817 50.3068 77.3697 50.0078 77.9275 49.707C80.82 48.144 83.8114 46.5269 83.8114 43.7663C83.8114 41.6064 82.971 40.931 82.0822 40.2149L81.9875 40.1373C81.3975 39.6606 80.7288 39.1201 80.3344 38.2328C79.255 35.8067 79.078 29.6259 80.3332 28.0571C80.9593 27.2754 82.6373 24.6464 82.1552 22.8797C81.9703 22.2054 81.5454 21.7055 80.8543 21.3516C80.1225 20.9767 79.1359 20.7869 77.9179 20.7869C75.5298 20.7869 72.8778 21.5143 71.5116 21.9473C66.6253 23.4961 60.7294 27.9612 59.038 29.2929C58.9897 29.3301 58.9618 29.3519 58.9566 29.3554L57.8743 30.1075L58.5506 28.9758C58.5936 28.9052 62.8763 21.8616 70.5354 19.2791C72.0257 18.7766 74.9529 17.9335 77.8301 17.9335C79.543 17.9335 80.995 18.2329 82.147 18.822C83.5502 19.5395 84.4994 20.6843 84.8946 22.1316C85.8618 25.6793 82.7114 29.6291 82.6039 29.7556C82.2368 30.4112 82.0814 35.1737 82.9285 37.0796C83.0454 37.3429 83.3653 37.6013 83.7713 37.9282C83.8981 38.0308 84.0387 38.1375 84.1901 38.2514C85.3875 39.155 87.1966 40.52 87.1966 43.6666C87.1966 47.9719 82.8332 50.3062 79.3277 52.1831C78.752 52.4926 78.2024 52.7856 77.7074 53.0715Z" fill="#463014"/>
<path d="M72.502 19.4671C71.808 18.2916 70.0329 16.0218 65.9423 14.0272C61.3769 11.8022 56.0934 10.6728 50.2358 10.6702V10.6688H50.2131V10.6693C44.3547 10.6723 39.07 11.8019 34.506 14.0266C30.4152 16.0215 28.6412 18.291 27.9466 19.4666L27.6484 19.8609L31.1516 20.6407L31.2627 20.5003L31.3214 20.3719C31.3754 20.1402 31.8451 18.8903 35.7505 16.9858C39.9259 14.9494 44.7959 13.9168 50.2236 13.915C55.6525 13.9168 60.5204 14.9494 64.6953 16.9858C68.6013 18.8903 69.0724 20.1402 69.1259 20.3716L69.1843 20.5003L69.2941 20.6407L72.7982 19.8609L72.502 19.4671Z" fill="#463014"/>
<path d="M77.0756 19.9737C78.9516 18.4174 77.5545 16.9733 77.7027 15.2051C77.7818 14.2644 77.8562 13.3768 78.1666 12.8871C79.8929 10.1616 83.9648 9.33451 84.0067 9.32579L85.9184 8.95147L84.6528 7.4716C84.4888 7.27979 79.2936 2.3226 71.252 4.91846C65.629 6.73225 61.4658 12.883 61.3109 13.1315L64.13 14.4576C64.164 14.4053 67.4559 8.62364 72.2808 7.06792C76.181 5.80952 79.7755 7.00689 81.3143 7.79158C79.6784 8.44491 77.5377 9.63502 76.2482 11.6708C75.6399 12.6325 75.5379 13.843 75.4391 15.0154C75.3083 16.5673 75.1851 18.0323 74.0426 18.9812L77.0756 19.9737Z" fill="#463014"/>
<path d="M73.4655 19.0899L73.8602 18.7612C74.9108 17.8899 75.0285 16.4827 75.1555 14.9866C75.2572 13.7828 75.3621 12.5372 76.007 11.5188C77.1922 9.64867 79.0682 8.47687 80.6134 7.77995C79.6884 7.38819 77.9499 6.80403 75.8059 6.80403C74.6219 6.80403 73.4664 6.98306 72.367 7.33791C67.8913 8.78115 64.7287 13.9973 64.3707 14.6093L64.2364 14.8215L60.9006 13.2527L61.0704 12.9818C61.1096 12.9188 65.296 6.5416 71.1661 4.64876C72.7358 4.14161 74.3136 3.88557 75.855 3.88557C81.5045 3.88557 84.8406 7.25363 84.8691 7.28763L86.4515 9.13746L84.064 9.60536C84.0245 9.6135 80.0525 10.4444 78.4079 13.0403C78.1353 13.4715 78.0638 14.3248 77.9865 15.2307C77.9414 15.7695 78.0545 16.2944 78.1646 16.8018C78.4032 17.9021 78.65 19.0402 77.2582 20.1934L77.1373 20.294L73.4655 19.0899Z" fill="#463014"/>
<path d="M69.6246 17.014C69.6258 17.0079 70.3828 13.6994 72.482 12.0292C75.4426 9.67396 79.058 10.9268 79.0917 10.9379L79.618 9.3162C79.4425 9.25953 75.311 7.95753 71.5017 10.6345C67.6707 13.3265 67.2121 15.7669 67.1711 16.0363L69.6246 17.014Z" fill="#463014"/>
<path d="M66.8578 16.2174L66.8909 15.9948C66.9325 15.7132 67.4123 13.1618 71.3387 10.4017C72.954 9.26651 74.8895 8.66608 76.9361 8.66608C78.4883 8.66608 79.5851 9.00727 79.7066 9.0465L79.976 9.13369L79.2724 11.2968L79.0007 11.2067C78.899 11.1724 77.9861 10.8786 76.7577 10.8786C75.1833 10.8786 73.8046 11.3407 72.6604 12.2521C70.6528 13.8488 69.91 17.0439 69.903 17.0753L69.8292 17.4002L66.8578 16.2174ZM78.9077 10.5871L79.2573 9.51005C78.8449 9.40543 78.01 9.23512 76.9361 9.23512C74.9796 9.23512 73.2062 9.7844 71.6659 10.867C68.4435 13.1321 67.6733 15.1787 67.4986 15.8608L69.4322 16.6309C69.685 15.7318 70.5226 13.2257 72.3059 11.8066C73.5364 10.8286 75.0755 10.3116 76.7574 10.3116C77.7246 10.3116 78.5037 10.4784 78.908 10.5871H78.9077ZM57.1166 87.0651C55.6533 85.5006 54.7876 83.817 54.5783 83.3C54.4586 83.0053 54.3226 82.4438 54.7515 82.0027C55.086 81.6612 55.6658 81.4856 56.4764 81.4856H57.724C59.0243 81.4856 60.5446 81.4856 61.4487 81.4868L62.2072 81.488C63.2721 81.488 63.7969 81.7925 64.0495 82.048C64.4168 82.4197 64.4741 82.9367 64.221 83.5843C63.5438 85.3138 62.0064 86.7253 61.5522 87.1168C60.957 87.6306 60.1025 87.9352 59.2632 87.9352C58.4029 87.9352 57.6406 87.626 57.1166 87.0651ZM58.3832 43.9139L61.4115 43.7192C61.4115 43.7192 60.6381 45.0846 60.1362 46.8504C59.5695 48.8479 60.6544 51.7672 60.6544 51.7672C60.6544 51.7672 56.6139 47.1928 58.3832 43.9139Z" fill="#463014"/>
<path d="M50.2251 33.096C48.2939 33.096 45.7759 33.0431 43.8865 31.6853C43.8865 31.6853 46.3603 36.0218 50.2219 36.0218L50.2251 35.4731L50.2283 36.0218C54.0901 36.0218 56.5633 31.6856 56.5633 31.6856C54.6742 33.0429 52.1545 33.096 50.2251 33.096Z" fill="#E78724"/>
<path d="M55.5423 33.0751C53.6053 34.2475 51.8752 34.6537 50.2251 34.6898C48.5743 34.6537 46.8451 34.2475 44.9078 33.0751C44.9078 33.0751 47.7289 36.5175 50.2108 36.544V36.546C50.2152 36.546 50.2195 36.5448 50.2248 36.5448C50.2291 36.5448 50.2335 36.546 50.2387 36.546V36.544C52.7201 36.5175 55.5423 33.0751 55.5423 33.0751ZM62.1654 95.9361L61.9494 93.1281C71.0454 92.4285 73.9116 83.7112 73.9264 82.7935H76.7431C76.7443 84.9159 72.9487 95.1072 62.1654 95.9361Z" fill="#463014"/>
<path d="M65.1955 77.6779C65.3649 76.704 65.3815 75.7801 65.176 74.8725C65.9967 74.2563 67.4661 74.0276 68.5696 73.6699C69.472 73.0988 74.0909 74.2552 77.4409 70.201C81.6381 65.1243 80.7538 62.0934 80.7538 62.0934C81.8308 63.289 82.873 62.8333 84.5145 68.4087C86.1574 73.9852 83.7423 77.8726 79.2434 81.7754C77.1183 83.6188 74.1136 84.3785 71.5291 84.6691C72.3948 83.8002 70.0503 83.713 68.4353 83.1085C68.5644 81.8036 68.3476 80.537 67.3749 79.5172C66.7895 78.9023 66.0336 78.5349 65.2513 78.242C65.2071 78.1408 65.1693 78.0473 65.1289 77.9502C65.1548 77.8615 65.1789 77.772 65.1955 77.6779Z" fill="white"/>
<path d="M68.455 83.0745C68.5498 82.8004 68.6189 82.5214 68.6884 82.2404C68.7643 81.9338 69.1363 81.0642 68.6771 82.057C68.7951 81.8027 68.8718 81.5409 68.9288 81.277C76.2147 81.2677 82.5533 76.2651 81.3274 65.7483C82.2812 64.482 83.6178 68.3017 83.6178 68.3017C83.6178 68.3017 87.2654 78.8927 77.8451 82.9975C74.7064 84.3663 71.9329 85.3478 71.2782 84.9516C69.9137 85.2286 68.6829 84.2783 68.2225 83.6531C68.3086 83.4613 68.3893 83.2689 68.455 83.0745Z" fill="#C9C9C9"/>
<path d="M65.3259 76.153C65.3158 75.2654 65.1333 74.4055 64.7055 73.549C64.675 73.49 64.6404 73.4333 64.6084 73.3758C67.4118 73.3516 70.6409 73.0834 73.3905 71.9828C76.4124 70.7738 80.1929 66.6382 80.8427 61.779C80.8427 61.779 86.5343 66.1709 84.8621 75.5717C83.2909 84.3989 75.905 87.2767 67.4809 87.7635C67.4763 87.7065 68.4287 85.7401 68.1276 84.5361C72.9098 84.8836 78.2593 83.0356 80.843 78.7866C83.2058 74.8975 82.5432 68.2579 81.5713 67.2848C79.2021 74.7632 70.6732 76.2835 65.3259 76.153Z" fill="#463014"/>
<path d="M68.7277 78.3672C67.7213 77.2791 65.8709 75.9824 61.6042 75.9824L50.2393 75.9754H50.2114C46.9361 75.9777 38.8451 75.9824 38.8451 75.9824C34.5793 75.9824 32.7289 77.2794 31.7219 78.3672C30.2551 79.9509 30.0249 82.1535 31.0398 84.9069C33.7362 92.2356 37.5256 99.6814 50.2108 99.6919V99.693C50.2155 99.693 50.2196 99.6919 50.2248 99.6919C50.2292 99.6919 50.2335 99.693 50.2387 99.693V99.6919C62.9228 99.6808 66.7122 92.2356 69.4095 84.9069C70.4244 82.1535 70.1936 79.9509 68.7277 78.3672ZM66.7529 84.3931C65.4684 88.0732 62.0155 96.9809 50.2245 96.9963C38.4321 96.9809 34.9806 88.0735 33.6958 84.3931C32.9849 82.3511 33.039 80.8402 33.862 79.9017C34.4244 79.26 35.7159 78.4942 38.6594 78.4942L41.7345 78.4931C44.0031 78.4911 46.8515 78.4887 50.2248 78.4873C53.5969 78.4887 56.4468 78.4911 58.7148 78.4931L61.7888 78.4942C64.7331 78.4942 66.0243 79.2598 66.587 79.9017C67.4092 80.841 67.4638 82.3511 66.7526 84.3931H66.7529Z" fill="#463014"/>
<path d="M64.4438 70.7994C65.9597 75.248 69.0561 78.8485 69.0561 78.8485C69.0561 78.8485 64.7967 78.6547 64.5613 77.9011C64.3883 77.3454 60.7163 68.7493 59.3068 58.6791C60.6314 60.8574 64.3136 70.4184 64.4438 70.7994Z" fill="#463014"/>
</g>
<defs>
<clipPath id="clip0_755_13135">
<rect width="74.4" height="100" fill="white" transform="translate(12.9998 -0.000366211)"/>
</clipPath>
</defs>
</svg>
