<svg width="100" height="100" viewBox="0 0 100 100" fill="none" xmlns="http://www.w3.org/2000/svg">
<path d="M-0.000244141 0.000488281H99.9998V100H-0.000244141V0.000488281Z" fill="#CF4547"/>
<path d="M34.6004 50.6662C34.5534 50.7348 34.4711 50.9483 34.3497 51.3106C34.2283 51.673 34.0814 52.1254 33.909 52.67C33.7366 53.2145 33.5486 53.8256 33.3488 54.4994C33.1471 55.1732 32.9394 55.8627 32.7279 56.5639C32.5144 57.2671 32.3107 57.9546 32.1148 58.6303C31.9189 59.3041 31.7427 59.9152 31.5879 60.4598C31.4332 61.0043 31.3039 61.4607 31.2001 61.8309C31.0963 62.1991 31.0336 62.4165 31.0101 62.4851C30.9533 62.7025 30.8612 62.9454 30.7339 63.2118C30.6066 63.4781 30.4577 63.7289 30.2854 63.9678C30.113 64.2068 29.923 64.4046 29.7154 64.5613C29.5078 64.718 29.2943 64.7963 29.0769 64.7963C28.7086 64.7963 28.4403 64.673 28.2738 64.4281C28.1073 64.1833 28.0231 63.7328 28.0231 63.0786V62.7926C28.0231 62.6966 28.0289 62.5948 28.0407 62.487C28.0524 62.2696 28.1386 61.8602 28.2992 61.2589C28.4599 60.6595 28.6538 59.9818 28.8771 59.2238C29.1004 58.4658 29.3432 57.6843 29.6018 56.8714C29.8603 56.0605 30.0934 55.3338 30.301 54.6933C29.6899 55.3749 29.0298 56.0527 28.3149 56.7284C27.6019 57.4042 26.8694 58.0094 26.1231 58.5481C25.3749 59.0867 24.6208 59.5274 23.8608 59.8663C23.1008 60.2071 22.3702 60.3775 21.669 60.3775C20.864 60.3775 20.1706 60.1993 19.5889 59.8467C19.0071 59.4922 18.5272 59.0279 18.1472 58.456C17.7673 57.8841 17.4852 57.2357 17.3011 56.513C17.117 55.7902 17.0249 55.0674 17.0249 54.3447V54.0783C17.0249 53.996 17.0308 53.9157 17.0425 53.8334C17.1111 52.525 17.2991 51.1813 17.6027 49.8044C17.9083 48.4274 18.3079 47.0563 18.8034 45.695C19.299 44.3317 19.8709 42.9998 20.5212 41.6973C21.1715 40.3947 21.8786 39.1647 22.6444 38.0071C23.4103 36.8495 24.2232 35.782 25.087 34.8065C25.9507 33.8311 26.8361 32.9928 27.7449 32.2915C28.6538 31.5903 29.5724 31.0419 30.4989 30.6462C31.4253 30.2506 32.344 30.0527 33.2528 30.0527C34.3007 30.0527 35.3134 30.3387 36.2908 30.9106C37.2682 31.4826 38.1829 32.411 39.0349 33.692C39.2308 33.978 39.3542 34.2679 39.4051 34.5617C39.4561 34.8555 39.4835 35.1317 39.4835 35.3902C39.4835 36.0033 39.3366 36.4871 39.0428 36.8416C38.749 37.1962 38.4003 37.3724 37.9988 37.3724C37.6305 37.3724 37.2878 37.1785 36.9724 36.7887C36.6551 36.4009 36.3025 35.8446 35.9108 35.1219C35.5426 34.4677 35.1371 33.9937 34.6944 33.6999C34.2518 33.406 33.7699 33.2611 33.2528 33.2611C32.4478 33.2611 31.586 33.596 30.6712 34.264C29.7565 34.9319 28.8496 35.8153 27.9526 36.9121C27.0555 38.009 26.1936 39.2626 25.371 40.6748C24.5483 42.0851 23.8197 43.5306 23.187 45.0094C22.5543 46.4883 22.051 47.9475 21.6768 49.3852C21.3027 50.8229 21.1166 52.1157 21.1166 53.2615C21.1166 53.6434 21.1421 54.0352 21.195 54.4367C21.2479 54.8383 21.3439 55.2045 21.4888 55.5316C21.6318 55.8588 21.8277 56.1291 22.0764 56.3386C22.3232 56.5502 22.6366 56.6559 23.0166 56.6559C23.4416 56.6559 23.9254 56.513 24.466 56.227C25.0066 55.941 25.5688 55.5669 26.1486 55.1027C26.7303 54.6385 27.314 54.1135 27.9016 53.5279C28.4892 52.9422 29.0357 52.3487 29.5411 51.7494C30.0464 51.15 30.4969 50.5741 30.8867 50.0218C31.2784 49.4694 31.5723 48.9895 31.7662 48.5802L33.3723 43.7755C33.5682 43.2584 33.8248 42.8901 34.1401 42.6707C34.4574 42.4533 34.7826 42.3436 35.1156 42.3436C35.2762 42.3436 35.4368 42.3711 35.5994 42.4259C35.76 42.4808 35.9049 42.565 36.0303 42.6825C36.1576 42.7981 36.2575 42.9489 36.3319 43.133C36.4063 43.3171 36.4436 43.5326 36.4436 43.7774C36.4436 44.4316 36.3868 45.0447 36.2712 45.6186C36.1556 46.1925 36.0087 46.7507 35.8305 47.2953C35.6522 47.8398 35.4544 48.3902 35.235 48.9406C35.0196 49.489 34.8061 50.0649 34.6004 50.6662ZM56.3695 54.6737C55.8622 55.3554 55.2727 56.0194 54.6008 56.6677C53.927 57.316 53.2336 57.8919 52.5207 58.3953C51.8077 58.8987 51.1045 59.3041 50.4151 59.6116C49.7236 59.9192 49.1027 60.0719 48.5504 60.0719C47.998 60.0719 47.5495 59.8878 47.2028 59.5196C46.858 59.1513 46.6857 58.5246 46.6857 57.6373C46.6857 57.0105 46.7777 56.2799 46.9618 55.4494C46.6622 55.9821 46.288 56.5208 45.8395 57.0653C45.391 57.6098 44.8778 58.1074 44.3019 58.5579C43.7261 59.0084 43.0816 59.3727 42.3687 59.6508C41.6557 59.9309 40.8781 60.07 40.0378 60.07C39.6578 60.07 39.2915 60.023 38.9409 59.927C38.5903 59.831 38.2828 59.6684 38.0184 59.4373C37.7539 59.2062 37.5404 58.8967 37.3798 58.5069C37.2192 58.1191 37.1389 57.6314 37.1389 57.0457C37.1389 57.032 37.1624 56.8244 37.2075 56.4229C37.2525 56.0213 37.3994 55.3867 37.6482 54.521C37.895 53.6552 38.2789 52.5348 38.796 51.1578C39.315 49.7809 40.0456 48.112 40.9878 46.1475C41.2287 45.6304 41.5088 45.2582 41.8241 45.033C42.1415 44.8077 42.4823 44.6961 42.8505 44.6961C43.0111 44.6961 43.1776 44.7196 43.3519 44.7666C43.5243 44.8155 43.6849 44.89 43.8357 44.9918C43.9846 45.0937 44.106 45.2229 44.1981 45.3796C44.2902 45.5363 44.3372 45.7165 44.3372 45.9222C44.3372 46.0593 44.3195 46.1886 44.2843 46.31C44.2275 46.5431 44.1041 46.8448 43.9121 47.2208C43.7221 47.5969 43.5008 48.0259 43.2481 48.5097C42.9955 48.9935 42.7271 49.5145 42.4451 50.0747C42.163 50.6329 41.9005 51.2127 41.6596 51.8121C41.4187 52.4114 41.2111 53.0225 41.0387 53.6415C40.8663 54.2624 40.7684 54.8657 40.7449 55.4513C40.7449 55.6962 40.8017 55.9214 40.9173 56.1271C41.0328 56.3308 41.2228 56.4346 41.4872 56.4346C42.2355 56.4346 42.9484 56.1898 43.6281 55.6981C44.3078 55.2085 44.9346 54.5973 45.5104 53.8687C46.0863 53.1401 46.6073 52.3566 47.0735 51.5163C47.5397 50.678 47.9294 49.9121 48.2389 49.2168C48.4583 48.7525 48.6503 48.255 48.8167 47.7242C48.9832 47.1934 49.1654 46.7018 49.3613 46.2513C49.5571 45.8008 49.7804 45.4267 50.0351 45.127C50.2877 44.8273 50.605 44.6765 50.985 44.6765C51.3983 44.6765 51.7274 44.8332 51.9683 45.1466C52.2092 45.46 52.3307 45.836 52.3307 46.2709C52.3307 46.5157 52.2543 46.8546 52.0976 47.2835C51.9409 47.7125 51.747 48.2041 51.51 48.7565C51.2749 49.3088 51.0183 49.8984 50.7422 50.5252C50.466 51.152 50.2094 51.7905 49.9743 52.4369C49.7373 53.0852 49.5434 53.7179 49.3867 54.3388C49.232 54.9597 49.1536 55.5356 49.1536 56.0664C49.1536 56.558 49.4063 56.8028 49.9136 56.8028C50.2701 56.8028 50.7128 56.6794 51.2436 56.4346C51.7744 56.1898 52.3287 55.845 52.9104 55.4024C53.4922 54.9597 54.072 54.4387 54.6537 53.8374C55.2354 53.238 55.7506 52.5897 56.1991 51.8943L56.3695 54.6737Z" fill="white" stroke="white" stroke-width="0.264085" stroke-miterlimit="10"/>
<path d="M56.9062 53.6514C56.7789 53.9647 56.6555 54.3291 56.534 54.7463C56.4126 55.1615 56.3538 55.5337 56.3538 55.8608C56.3538 56.0645 56.3891 56.229 56.4576 56.3524C56.5262 56.4758 56.6594 56.5365 56.8553 56.5365C57.0962 56.5365 57.3978 56.4523 57.7621 56.2799C58.1245 56.1095 58.5162 55.8843 58.9354 55.6042C59.3565 55.326 59.7933 55.0048 60.2477 54.6425C60.7022 54.2821 61.1546 53.906 61.6032 53.5182C62.0517 53.1284 62.4807 52.7406 62.8901 52.3527C63.2994 51.9629 63.6637 51.6065 63.9869 51.2794C64.079 51.1834 64.1887 51.1148 64.314 51.0756C64.4394 51.0345 64.5491 51.0149 64.6411 51.0149C64.8703 51.0149 65.0623 51.1109 65.2111 51.3009C65.36 51.4909 65.4344 51.7436 65.4344 52.057C65.4344 52.3429 65.3541 52.6642 65.1935 53.0187C65.0329 53.3732 64.7508 53.7219 64.3473 54.0607C63.6109 54.8658 62.8685 55.6277 62.1203 56.3505C61.3721 57.0732 60.6277 57.7098 59.8854 58.2622C59.143 58.8145 58.4066 59.2533 57.676 59.5823C56.9454 59.9094 56.2344 60.072 55.5429 60.072C55.0709 60.072 54.6772 59.9976 54.3599 59.8468C54.0426 59.6959 53.7899 59.4922 53.5999 59.2337C53.4099 58.9751 53.2747 58.6676 53.1944 58.3131C53.1141 57.9586 53.073 57.5844 53.073 57.1888C53.073 56.5209 53.1572 55.8353 53.3237 55.1341C53.4902 54.4329 53.688 53.7885 53.9192 53.2028C54.3227 52.1392 54.7301 51.0835 55.1453 50.0336C55.5586 48.9837 55.9386 48.022 56.2853 47.1504L61.515 33.9604C61.7227 33.4296 62.0008 33.0536 62.3534 32.8361C62.704 32.6187 63.0585 32.509 63.415 32.509C63.7715 32.509 64.0966 32.6246 64.3904 32.8557C64.6842 33.0869 64.8311 33.4629 64.8311 33.98C64.8311 34.2249 64.7822 34.4854 64.6842 34.7576C64.5863 35.0299 64.4629 35.3237 64.314 35.6371C64.0261 36.2776 63.6833 37.0611 63.2877 37.9875C62.8901 38.914 62.465 39.9227 62.0106 41.0138C61.5562 42.1048 61.09 43.2388 60.6121 44.418C60.1341 45.5971 59.668 46.7449 59.2136 47.8634C58.7591 48.9818 58.3341 50.0414 57.9365 51.0423C57.5349 52.0452 57.1922 52.9149 56.9062 53.6514Z" fill="white" stroke="white" stroke-width="0.264085" stroke-miterlimit="10"/>
<path d="M81.3684 49.9493C81.529 49.8396 81.6799 49.7515 81.817 49.6829C81.9541 49.6144 82.0873 49.5811 82.2146 49.5811C82.4673 49.5811 82.6573 49.6947 82.7846 49.918C82.9119 50.1432 82.9746 50.4194 82.9746 50.7465C82.9746 51.101 82.8982 51.4614 82.7415 51.8297C82.5867 52.1979 82.3537 52.5035 82.0422 52.7503C80.8102 53.8413 79.7114 54.8363 78.7457 55.7354C77.7781 56.6344 76.8673 57.4081 76.0094 58.0564C75.1515 58.7048 74.3151 59.2042 73.4983 59.5588C72.6815 59.9133 71.806 60.0896 70.8737 60.0896C69.9981 60.0896 69.3224 59.8976 68.8444 59.5176C68.3665 59.1357 68.1275 58.6107 68.1275 57.9428V57.79C68.1275 57.743 68.1334 57.6843 68.1452 57.6157C68.1902 57.2063 68.3704 56.7363 68.6799 56.2054C68.9913 55.6746 69.3654 55.1223 69.8022 54.5484C70.239 53.9745 70.7052 53.3966 71.2008 52.811C71.6963 52.2253 72.1527 51.6691 72.5738 51.1441C72.993 50.6192 73.3416 50.1393 73.6178 49.7025C73.894 49.2657 74.0331 48.9132 74.0331 48.6389C74.0331 48.4744 73.9743 48.3451 73.8607 48.2511C73.7451 48.1551 73.5551 48.1081 73.2907 48.1081C72.8304 48.1081 72.3564 48.2276 71.8667 48.4666C71.377 48.7055 70.8932 49.0248 70.4173 49.4263C69.9394 49.8279 69.4732 50.2882 69.0188 50.8072C68.5643 51.3263 68.1393 51.863 67.7417 52.4232C67.3441 52.9834 66.9817 53.5436 66.6546 54.1096C66.3275 54.6757 66.0474 55.1967 65.8182 55.6746C65.7497 55.8254 65.6517 56.037 65.5244 56.3093C65.3971 56.5815 65.26 56.889 65.1111 57.2298C64.9603 57.5707 64.8036 57.9213 64.6352 58.2817C64.4687 58.644 64.3159 58.9849 64.1788 59.3041C64.0397 59.6253 63.9163 59.9094 63.8066 60.164C63.6969 60.4167 63.6186 60.589 63.5735 60.685C63.5148 60.8084 63.4208 61.0395 63.2876 61.3804C63.1544 61.7212 63.0036 62.1188 62.8292 62.5771C62.6569 63.0335 62.4747 63.5134 62.2867 64.0187C62.0967 64.5241 61.9184 65.0001 61.7519 65.4506C61.5855 65.9011 61.4385 66.2948 61.3112 66.6356C61.1839 66.9764 61.1036 67.2075 61.0684 67.3309C60.9528 67.6854 60.8176 68.0184 60.6629 68.3338C60.5082 68.6472 60.3299 68.9233 60.1282 69.1623C59.9264 69.4013 59.6973 69.5913 59.4367 69.7343C59.1782 69.8772 58.8864 69.9478 58.5651 69.9478C58.1499 69.9478 57.8091 69.8479 57.5368 69.652C57.2665 69.4542 57.1313 69.0761 57.1313 68.5179C57.1313 68.2456 57.1666 67.9655 57.2352 67.6796C57.3037 67.3936 57.3919 67.1096 57.4937 66.8314C57.5975 66.5514 57.7033 66.2791 57.813 66.0147C57.9227 65.7483 58.0226 65.4936 58.1146 65.2469C58.7355 63.8836 59.3702 62.5164 60.0146 61.1473C60.659 59.7762 61.2779 58.4207 61.8695 57.0771C62.463 55.7354 63.0114 54.4152 63.5187 53.1205C64.024 51.8258 64.4452 50.5839 64.7782 49.3989C64.8702 49.1541 64.9975 48.8054 65.1581 48.3549C65.3188 47.9044 65.5029 47.4618 65.7105 47.025C65.9181 46.5882 66.1512 46.2101 66.4098 45.8909C66.6683 45.5696 66.9484 45.411 67.2461 45.411C67.7064 45.411 68.0394 45.5168 68.247 45.7283C68.4547 45.9398 68.5585 46.2493 68.5585 46.6587C68.5585 46.741 68.5467 46.8702 68.5232 47.0465C68.4997 47.2228 68.4703 47.4108 68.437 47.6087C68.4018 47.8065 68.3646 47.9945 68.3254 48.1708C68.2842 48.3471 68.247 48.4764 68.2137 48.5586C68.6388 48.0944 69.0991 47.6361 69.5946 47.1777C70.0902 46.7214 70.6014 46.3081 71.1322 45.9398C71.6611 45.5716 72.2017 45.2719 72.754 45.0388C73.3064 44.8077 73.8587 44.6921 74.4111 44.6921C74.7911 44.6921 75.1671 44.747 75.5413 44.8567C75.9154 44.9664 76.2484 45.125 76.5422 45.3366C76.836 45.5481 77.0749 45.8145 77.2591 46.1338C77.4432 46.455 77.5352 46.8252 77.5352 47.2483C77.5352 47.8084 77.3942 48.4039 77.1121 49.0385C76.8301 49.6731 76.4756 50.3097 76.0505 50.9502C75.6235 51.5907 75.1632 52.2155 74.6696 52.8208C74.1741 53.428 73.7118 53.9803 73.279 54.4779C72.848 54.9754 72.4857 55.3985 72.1919 55.7451C71.8981 56.0938 71.7453 56.3288 71.7335 56.4503C71.7335 56.6148 71.7864 56.746 71.8883 56.8499C71.9901 56.9537 72.1644 57.0026 72.4073 57.0026C72.6032 57.0026 72.8911 56.8929 73.2711 56.6755C73.6511 56.4581 74.1839 56.0801 74.8675 55.5414C75.5511 55.0028 76.4207 54.28 77.4745 53.3731C78.5283 52.4682 79.8269 51.3263 81.3684 49.9493Z" fill="white" stroke="white" stroke-width="0.264085" stroke-miterlimit="10"/>
</svg>
