<svg width="100" height="100" viewBox="0 0 100 100" fill="none" xmlns="http://www.w3.org/2000/svg">
<path d="M50 100C77.6142 100 100 77.6142 100 50C100 22.3858 77.6142 0 50 0C22.3858 0 0 22.3858 0 50C0 77.6142 22.3858 100 50 100Z" fill="#FF90E8"/>
<path d="M45.6588 75.1984C31.0124 75.1984 22.3969 63.4509 22.3969 48.8381C22.3969 33.6525 31.8741 21.3318 49.9666 21.3318C68.6334 21.3318 74.9516 33.9388 75.2388 41.1019H61.7413C61.4541 37.0906 58.0078 31.0736 49.6794 31.0736C40.7766 31.0736 35.0328 38.8097 35.0328 48.265C35.0328 57.7203 40.7766 65.4566 49.6794 65.4566C57.7206 65.4566 61.1669 59.1531 62.6028 52.8494H49.6794V47.6922H76.7969V74.0525H64.9V57.4341C64.0384 63.4509 60.3053 75.1984 45.6588 75.1984Z" fill="black"/>
</svg>
