<svg width="100" height="100" viewBox="0 0 100 100" fill="none" xmlns="http://www.w3.org/2000/svg">
<path d="M19.7989 62.1446L80.8086 41.7726C79.5897 34.1464 78.7208 29.0518 77.7144 25.1637C76.6298 20.9818 75.7703 19.8628 75.4328 19.4753C74.2564 18.1289 72.7918 17.0648 71.1477 16.3623C70.6726 16.1591 69.3412 15.6872 65.0342 15.9466C60.4773 16.2216 54.4951 17.153 45.0217 18.6533C35.5514 20.1535 29.5723 21.1193 25.156 22.2632C20.9772 23.3478 19.8552 24.2104 19.4676 24.548C18.1236 25.7263 17.061 27.189 16.3577 28.833C16.1546 29.3081 15.6826 30.6396 15.942 34.9496C16.2171 39.5066 17.1485 45.4919 18.6487 54.9653C19.0675 57.622 19.4457 59.9974 19.7989 62.1446Z" fill="url(#paint0_linear_755_13195)"/>
<path fill-rule="evenodd" clip-rule="evenodd" d="M2.9774 57.4469C0.076942 39.119 -1.37642 29.955 1.76784 22.5976C3.4069 18.7604 5.88962 15.3418 9.03149 12.596C15.0543 7.33578 24.2152 5.88554 42.5368 2.98196C60.8648 0.0752422 70.0287 -1.37499 77.3861 1.76926C81.2213 3.40886 84.6377 5.89157 87.3815 9.03292C92.6448 15.0589 94.0951 24.2228 96.9955 42.5539C99.8991 60.8818 101.349 70.0489 98.2051 77.4032C96.5671 81.2402 94.0854 84.6588 90.9445 87.4048C84.9217 92.6681 75.7578 94.1184 57.433 97.0219C39.1113 99.9255 29.9473 101.376 22.593 98.2315C18.7579 96.5918 15.3416 94.1091 12.5977 90.9679C7.33435 84.9419 5.88099 75.7779 2.9774 57.4469ZM35.2982 89.9958C40.2052 89.6989 46.525 88.7081 55.8796 87.2266C65.2373 85.7452 71.5477 84.7325 76.311 83.4979C80.9211 82.3008 83.0464 81.135 84.4185 79.9349C86.4372 78.1695 88.0321 75.9721 89.0849 73.5057C89.8037 71.8304 90.2569 69.4488 89.9694 64.6918C89.6725 59.7848 88.6817 53.4619 87.2002 44.1041C85.7187 34.7464 84.7092 28.4298 83.4746 23.6696C82.2775 19.0564 81.1086 16.9311 79.9115 15.559C78.1475 13.5395 75.9511 11.9434 73.4855 10.8895C71.8103 10.1706 69.4286 9.7174 64.6716 10.005C59.7646 10.3019 53.448 11.2927 44.0933 12.7741C34.7356 14.2588 28.4221 15.2683 23.662 16.5029C19.0487 17.6999 16.9265 18.8689 15.5544 20.0659C13.5347 21.831 11.9387 24.0285 10.8849 26.4951C10.1692 28.1703 9.71598 30.552 10.0035 35.309C10.3004 40.2191 11.2881 46.5389 12.7727 55.8966C14.2542 65.2544 15.2637 71.571 16.4983 76.3312C17.6954 80.9444 18.8612 83.0697 20.0614 84.4418C21.8255 86.4612 24.0219 88.0572 26.4874 89.1113C28.1627 89.8302 30.5381 90.2834 35.2982 89.9958Z" fill="url(#paint1_linear_755_13195)"/>
<defs>
<linearGradient id="paint0_linear_755_13195" x1="39.1614" y1="0.00029914" x2="55.0358" y2="99.1817" gradientUnits="userSpaceOnUse">
<stop stop-color="#66E3FF"/>
<stop offset="1" stop-color="#7064F9"/>
</linearGradient>
<linearGradient id="paint1_linear_755_13195" x1="39.1613" y1="0.000229824" x2="55.0357" y2="99.1817" gradientUnits="userSpaceOnUse">
<stop stop-color="#66E3FF"/>
<stop offset="1" stop-color="#7064F9"/>
</linearGradient>
</defs>
</svg>
