<svg width="100" height="100" viewBox="0 0 100 100" fill="none" xmlns="http://www.w3.org/2000/svg">
<path d="M50.2757 -0.000366211L7 25.0444L7.00543 75.0577L50.3789 99.9996L93.6539 74.9545L93.6546 24.9687L50.2754 -0.000366211H50.2757Z" fill="#0E83CD"/>
<path d="M29.9739 71.6531L29.9773 50.0264L29.9807 28.3991L33.9098 26.1013L37.6732 28.3285L37.714 37.1659L37.7547 46.0036H62.9034L62.9442 37.172L62.9849 28.34L66.8067 26.1315L70.6812 28.3994L70.6792 50.0118L70.6775 71.6246L66.8417 73.7669L62.9846 71.5967L62.9438 62.8086L62.9031 54.0201H37.7547L37.714 62.8059L37.7255 71.6358L33.8687 73.8979L29.9746 71.6531H29.9739Z" fill="white"/>
</svg>
