<svg width="100" height="100" viewBox="0 0 100 100" fill="none" xmlns="http://www.w3.org/2000/svg">
<path d="M0 50C0 22.3858 22.3858 0 50 0C77.6142 0 100 22.3858 100 50C100 77.6142 77.6142 100 50 100C22.3858 100 0 77.6142 0 50Z" fill="white"/>
<path d="M75.3167 60.4833C75.2838 54.4705 74.2705 48.5033 72.3167 42.8167C70.8167 38.4833 73.8167 33.3167 73.8167 33.3167C73.8167 33.3167 72.3167 33.4833 69.15 36.3167C67.216 38.1608 66.0293 40.6528 65.8167 43.3167C61.8167 34.15 53.8167 28.15 50.8167 24.15C47.8167 20.15 50 15 50 15C44 17.6667 41 24 40 31.6667C39.7728 35.8772 37.6217 39.7493 34.1667 42.1667C33.3333 35 25.1667 33.3333 25.1667 33.3333C26.8333 33.8333 29.8333 42 26.6667 48.1667C24.6148 52.0238 23.4745 56.3 23.3333 60.6667C23.3333 74.6667 32.3333 86.15 49.15 86.15C56.0825 86.4223 62.8202 83.8225 67.7731 78.9643C72.7259 74.1061 75.4552 67.4198 75.3167 60.4833Z" fill="url(#paint0_radial_147648_783)"/>
<path d="M58.4833 62.4834C60.5084 62.4834 62.15 60.1702 62.15 57.3167C62.15 54.4632 60.5084 52.15 58.4833 52.15C56.4583 52.15 54.8167 54.4632 54.8167 57.3167C54.8167 60.1702 56.4583 62.4834 58.4833 62.4834Z" fill="#333333"/>
<path d="M40 62.4834C42.025 62.4834 43.6667 60.1702 43.6667 57.3167C43.6667 54.4632 42.025 52.15 40 52.15C37.975 52.15 36.3333 54.4632 36.3333 57.3167C36.3333 60.1702 37.975 62.4834 40 62.4834Z" fill="#333333"/>
<path d="M49.15 82.2999C38.7225 82.4113 30.1645 74.0768 30 63.6499C30 62.7295 30.7462 61.9833 31.6667 61.9833C32.1172 61.9535 32.5586 62.1195 32.8779 62.4387C33.1971 62.758 33.3631 63.1994 33.3333 63.6499C33.4703 72.2832 40.5325 79.1967 49.1667 79.1499C53.3231 79.1988 57.3282 77.5922 60.2986 74.6843C63.2689 71.7765 64.9604 67.8065 65 63.6499C65 62.7295 65.7462 61.9833 66.6667 61.9833C67.1172 61.9535 67.5586 62.1195 67.8779 62.4387C68.1971 62.758 68.3631 63.1994 68.3333 63.6499C68.2808 68.6728 66.2257 73.467 62.6241 76.9684C59.0225 80.4699 54.1723 82.389 49.15 82.2999V82.2999Z" fill="#333333"/>
<defs>
<radialGradient id="paint0_radial_147648_783" cx="0" cy="0" r="1" gradientUnits="userSpaceOnUse" gradientTransform="translate(54.4033 77.4987) scale(77.5 106.094)">
<stop offset="0.05" stop-color="#EFAC00"/>
<stop offset="0.17" stop-color="#EB9100"/>
<stop offset="0.4" stop-color="#E15600"/>
<stop offset="0.63" stop-color="#C82400"/>
<stop offset="0.72" stop-color="#B91200"/>
<stop offset="0.81" stop-color="#AE0500"/>
<stop offset="0.9" stop-color="#AA0000"/>
</radialGradient>
</defs>
</svg>
