<svg width="100" height="100" viewBox="0 0 100 100" fill="none" xmlns="http://www.w3.org/2000/svg">
<g clip-path="url(#clip0_755_13214)">
<path fill-rule="evenodd" clip-rule="evenodd" d="M44.5055 18.5716C44.7786 9.90479 41.859 4.7952 33.466 1.41992C31.0804 9.76457 40.9291 17.4587 44.5055 18.5716Z" fill="#D1D3D4" stroke="black" stroke-width="1.76753" stroke-linejoin="round"/>
<path fill-rule="evenodd" clip-rule="evenodd" d="M67.2668 33.2594C67.5399 26.1428 65.7425 23.2705 64.3934 21.2166C63.0248 19.3008 59.7406 16.2897 55.7056 16.1635C51.8897 16.0439 50.972 18.1532 47.4517 18.2805C46.8746 11.8701 51.7126 8.35242 51.7126 8.35242C51.7126 8.35242 50.3897 6.48267 49.2952 6.02585C47.7211 7.42474 43.3882 12.0908 44.3908 18.0952C41.1517 17.476 38.8654 15.6222 35.4628 16.2915C30.8273 17.2037 27.0063 20.0063 24.8285 26.1561C22.651 32.3063 25.5971 39.4812 26.2377 41.5303C26.8786 43.5812 31.6192 52.2919 35.3347 53.5738C39.0495 54.8561 39.0506 54.2782 41.0366 53.51C43.0229 52.7413 46.0329 51.3321 50.4543 52.934C54.8731 54.5351 55.4495 54.9188 58.2034 53.1255C60.9595 51.3325 64.5458 45.7594 65.3779 44.1576C66.2107 42.5565 66.6595 41.7233 66.9167 40.8908C69.5941 39.5546 67.0211 39.6373 67.2668 33.2594Z" fill="#D1D3D4" stroke="black" stroke-width="1.76753" stroke-linejoin="round"/>
<path d="M74.4591 85.2705C75.3333 85.2736 76.1995 85.1041 77.008 84.7718C77.8165 84.4394 78.5515 83.9507 79.1708 83.3337C79.79 82.7167 80.2814 81.9835 80.6167 81.1762C80.952 80.3689 81.1247 79.5033 81.1248 78.6292C81.1255 71.8864 81.1255 61.4668 81.1255 54.7055C81.1255 52.944 80.4257 51.2545 79.1801 50.0089C77.9345 48.7633 76.245 48.0635 74.4834 48.0635H69.0082C68.6167 48.0635 68.2413 47.908 67.9645 47.6312C67.6877 47.3544 67.5322 46.9789 67.5322 46.5875V43.1078H24.3477L24.4565 94.1089C24.457 94.3565 24.5198 94.6 24.6391 94.817C24.7584 95.034 24.9304 95.2174 25.1392 95.3506C27.0624 96.4642 33.2281 98.5793 46.1739 98.5793C59.3934 98.5793 65.3026 95.7476 66.9945 94.469C67.1605 94.3312 67.2942 94.1586 67.3859 93.9633C67.4776 93.768 67.5251 93.5549 67.5251 93.3391C67.5322 91.9277 67.5322 88.6572 67.5322 86.7251C67.5321 86.5287 67.5713 86.3342 67.6474 86.1531C67.7235 85.9721 67.8349 85.808 67.9753 85.6706C68.1156 85.5331 68.2819 85.4251 68.4646 85.3528C68.6472 85.2804 68.8424 85.2453 69.0388 85.2495C70.6628 85.2723 72.6085 85.2757 74.4591 85.2705ZM67.5322 55.8218C67.5322 55.3325 67.7266 54.8631 68.0724 54.517C68.4185 54.1711 68.8878 53.9768 69.3772 53.9768H74.0775C74.5668 53.9768 75.0362 54.1712 75.3823 54.517C75.7282 54.8632 75.9225 55.3324 75.9226 55.8218V77.2923C75.9225 77.7816 75.7282 78.2509 75.3823 78.5971C75.0362 78.9429 74.5669 79.1372 74.0775 79.1373H69.3772C68.8878 79.1372 68.4185 78.9429 68.0724 78.5971C67.7265 78.2509 67.5322 77.7816 67.5322 77.2923V55.8218Z" fill="white" stroke="black" stroke-width="1.76753" stroke-linejoin="round"/>
<path fill-rule="evenodd" clip-rule="evenodd" d="M28.6047 42.6797V88.431C28.6047 88.9591 28.8867 89.4469 29.3439 89.7103C31.2114 90.6004 36.6291 92.7247 46.1276 92.7247C55.6892 92.7247 60.9461 90.1436 62.7062 89.0797C62.913 88.9464 63.0831 88.7634 63.2009 88.5474C63.3187 88.3313 63.3804 88.0892 63.3804 87.8432C63.3844 81.7764 63.3844 42.6797 63.3844 42.6797H28.6047Z" fill="#FBB040"/>
<path d="M33.7169 50.429V85.7853" stroke="#FFDB96" stroke-width="4.06719" stroke-linecap="round"/>
<path fill-rule="evenodd" clip-rule="evenodd" d="M53.3671 52.0683C53.3671 51.3303 52.9328 50.4491 52.2195 50.0066C51.05 49.2976 50.149 48.2203 49.6579 46.9439C40.2147 47.2616 31.5955 45.6033 27.2535 44.4325C26.1386 44.1165 25.0093 43.8542 23.8693 43.6465C21.2704 43.131 19.2952 40.8487 19.2952 38.1048C19.2952 35.0845 21.6915 32.6303 24.6856 32.5229C25.2631 29.3284 28.0513 26.9033 31.4121 26.9033C35.1915 26.9033 38.2549 29.9675 38.2549 33.7465C38.2549 34.5417 38.1114 35.303 37.8623 36.0137L37.8826 36.017C38.7265 33.3775 41.1974 31.4649 44.1173 31.4649C47.0184 31.4649 49.476 33.355 50.3343 35.9697C50.3094 35.7311 50.2969 35.4913 50.297 35.2513C50.297 31.3207 53.483 28.1347 57.4129 28.1347C60.5944 28.1347 63.287 30.2229 64.1981 33.1022L64.8184 32.9406C65.6549 32.4674 66.5998 32.2188 67.5609 32.2192C70.649 32.2192 73.1527 34.7229 73.1516 37.8103C73.1516 40.6391 71.0516 42.9768 68.3254 43.3498C67.708 43.4373 67.1026 43.5945 66.5206 43.8185C64.9003 44.4292 63.2435 44.9354 61.5697 45.3531C61.4885 46.1585 61.2492 46.9398 60.8653 47.6524C60.1863 48.9264 59.8818 50.3665 59.9871 51.8063C59.9863 51.8934 59.9896 52.3494 59.9896 52.4373C59.9896 54.2661 58.5077 55.379 56.6775 55.379C56.2427 55.379 55.8122 55.2933 55.4106 55.127C55.0089 54.9606 54.644 54.7167 54.3366 54.4093C54.0292 54.1018 53.7853 53.7369 53.619 53.3352C53.4527 52.9335 53.3671 52.503 53.3671 52.0683Z" fill="white" stroke="black" stroke-width="1.76753" stroke-linecap="round" stroke-linejoin="round"/>
</g>
<defs>
<clipPath id="clip0_755_13214">
<rect width="66.4207" height="100" fill="white" transform="translate(17 -0.000366211)"/>
</clipPath>
</defs>
</svg>
