<svg width="100" height="100" viewBox="0 0 100 100" fill="none" xmlns="http://www.w3.org/2000/svg">
<path d="M0 50C0 22.3858 22.3858 0 50 0C77.6142 0 100 22.3858 100 50C100 77.6142 77.6142 100 50 100C22.3858 100 0 77.6142 0 50Z" fill="white"/>
<path d="M28.1606 77.3356L23.3333 23.3334H76.3768L71.5444 77.3271L49.8226 83.3334L28.1606 77.3356Z" fill="#E44D26"/>
<path d="M49.8551 78.5507L67.4537 73.709L71.5942 27.6812H49.8551V78.5507Z" fill="#F16529"/>
<path d="M49.8551 47.5892H41.1363L40.5341 40.8167H49.8551V34.2029H49.8323H33.3333L33.4911 35.9773L35.1105 54.2029H49.8551V47.5892Z" fill="#EBEBEB"/>
<path d="M49.8551 65.0409L49.8264 65.0487L42.5403 63.0314L42.0746 57.6812H38.5341H35.5072L36.4238 68.2142L49.825 72.029L49.8551 72.0204V65.0409Z" fill="#EBEBEB"/>
<path d="M49.8551 47.6812V54.3731H57.9164L57.1566 63.0522L49.8551 65.0667V72.029L63.2759 68.2267L63.3744 67.0961L64.9127 49.4782L65.0725 47.6812H63.3083H49.8551Z" fill="white"/>
<path d="M49.8551 34.2029V38.2534V40.7087V40.7246H65.7651V40.7246H65.7863L65.9186 39.2587L66.2191 35.9526L66.3768 34.2029H49.8551Z" fill="white"/>
</svg>
