<svg width="100" height="100" viewBox="0 0 100 100" fill="none" xmlns="http://www.w3.org/2000/svg">
<g clip-path="url(#clip0_755_13232)">
<path d="M98.7619 67.0309V70.4912L98.7143 73.4277C98.685 75.5503 98.494 77.6675 98.1429 79.7611C97.625 82.9364 96.3587 85.9429 94.4487 88.5319C92.5387 91.1209 90.0398 93.218 87.1587 94.6499C85.2419 95.6126 83.1933 96.2865 81.0794 96.6499C78.9524 97.015 76.7937 97.142 74.6667 97.2055C70.5397 97.2531 69.381 97.2531 68.2064 97.2531H30.5556C26.0794 97.2531 25.0952 97.2372 24.1111 97.2055C21.9683 97.142 19.8095 97.015 17.6984 96.6499C15.5736 96.2896 13.5141 95.6155 11.5873 94.6499C8.7203 93.1991 6.23497 91.094 4.3323 88.5047C2.42963 85.9154 1.16302 82.9147 0.634921 79.7452C0.283077 77.6464 0.0920456 75.5238 0.0634921 73.396C0.0419852 72.4279 0.0314025 71.4596 0.031746 70.4912L0 67.0309V32.2055V28.7452L0.047619 25.8245C0.111111 23.7134 0.238095 21.5864 0.619048 19.4753C1.13638 16.3039 2.40086 13.3011 4.30804 10.715C6.21521 8.12885 8.71034 6.03359 11.5873 4.60232C13.51 3.6437 15.564 2.97507 17.6825 2.61819C19.7937 2.25311 21.9524 2.12613 24.0952 2.06264C28.2222 1.99915 29.3968 1.99915 30.5556 1.99915H67.254H53.0476H68.2064C72.6984 1.99915 73.6825 2.01502 74.6667 2.04676C76.7937 2.11026 78.9524 2.23724 81.0794 2.60232C83.2222 2.98327 85.2222 3.61819 87.1746 4.60232C90.0434 6.04864 92.5313 8.15022 94.4368 10.7369C96.3424 13.3236 97.612 16.3226 98.1429 19.4912C98.5238 21.5864 98.6508 23.7134 98.7143 25.8404C98.746 26.7928 98.746 27.7769 98.7619 28.7452V67.0309Z" fill="black"/>
<mask id="mask0_755_13232" style="mask-type:luminance" maskUnits="userSpaceOnUse" x="0" y="1" width="99" height="97">
<path d="M98.7619 67.0309V70.4912L98.7143 73.4277C98.685 75.5503 98.494 77.6675 98.1429 79.7611C97.625 82.9364 96.3587 85.9429 94.4487 88.5319C92.5387 91.1209 90.0398 93.218 87.1587 94.6499C85.2419 95.6126 83.1933 96.2865 81.0794 96.6499C78.9524 97.015 76.7937 97.142 74.6667 97.2055C70.5397 97.2531 69.381 97.2531 68.2064 97.2531H30.5556C26.0794 97.2531 25.0952 97.2372 24.1111 97.2055C21.9683 97.142 19.8095 97.015 17.6984 96.6499C15.5736 96.2896 13.5141 95.6155 11.5873 94.6499C8.7203 93.1991 6.23497 91.094 4.3323 88.5047C2.42963 85.9154 1.16302 82.9147 0.634921 79.7452C0.283077 77.6464 0.0920456 75.5238 0.0634921 73.396C0.0419852 72.4279 0.0314025 71.4596 0.031746 70.4912L0 67.0309V32.2055V28.7452L0.047619 25.8245C0.111111 23.7134 0.238095 21.5864 0.619048 19.4753C1.13638 16.3039 2.40086 13.3011 4.30804 10.715C6.21521 8.12885 8.71034 6.03359 11.5873 4.60232C13.51 3.6437 15.564 2.97507 17.6825 2.61819C19.7937 2.25311 21.9524 2.12613 24.0952 2.06264C28.2222 1.99915 29.3968 1.99915 30.5556 1.99915H67.254H53.0476H68.2064C72.6984 1.99915 73.6825 2.01502 74.6667 2.04676C76.7937 2.11026 78.9524 2.23724 81.0794 2.60232C83.2222 2.98327 85.2222 3.61819 87.1746 4.60232C90.0434 6.04864 92.5313 8.15022 94.4368 10.7369C96.3424 13.3236 97.612 16.3226 98.1429 19.4912C98.5238 21.5864 98.6508 23.7134 98.7143 25.8404C98.746 26.7928 98.746 27.7769 98.7619 28.7452V67.0309Z" fill="white"/>
</mask>
<g mask="url(#mask0_755_13232)">
<path d="M96.1429 85.7928L91.2064 83.2531L96.127 85.7928H96.1429ZM92.3651 90.9198L96.2699 94.8881L92.381 90.888L92.3651 90.9198ZM81.0794 96.65L80.1111 91.1738L81.0635 96.65H81.0794ZM74.6667 97.2055L74.7302 102.761H74.8095L74.6508 97.2055H74.6667ZM30.5556 97.2373L30.5397 102.793H30.5556V97.2373ZM6.39684 90.9039L2.49208 94.8722L6.39684 90.888V90.9039ZM0.0635056 73.396L5.61906 73.2531L0.0635056 73.4119V73.396ZM0.0317597 28.7452L5.58732 28.7928V28.7769L1.38283e-05 28.7452H0.0317597ZM0.634934 19.4753L-4.84126 18.4912L0.634934 19.4912V19.4753ZM6.41271 8.33249L10.3175 12.2849L6.41271 8.31662V8.33249ZM24.1111 2.04678L24.0476 -3.50878H23.9524L24.1111 2.04678ZM67.254 1.99916V7.55472V-3.5564V1.99916ZM53.0476 1.99916V-3.5564V7.55472V1.99916ZM68.2064 1.99916L68.2222 -3.5564V1.99916H68.2064ZM81.0794 2.60233L80.1111 8.07852L81.0635 2.60233H81.0794ZM92.3651 8.33249L88.4603 12.269L92.381 8.34837L92.3651 8.33249ZM96.1429 13.4595L91.2064 15.9992L96.127 13.4595H96.1429ZM98.7143 25.8404L93.1587 25.9833L98.7143 25.8246V25.8404ZM93.2064 67.0309V70.4595L104.317 70.523V67.0309H93.2064ZM93.2064 70.4595C93.2064 71.4119 93.1905 72.3325 93.1587 73.2531L104.27 73.5706L104.317 70.523L93.2064 70.4595ZM93.1587 73.2531C93.1111 75.269 93 77.0785 92.6826 78.7452L103.619 80.7452C104.079 78.2373 104.206 75.7611 104.254 73.5547L93.1587 73.2531ZM92.6826 78.7611C92.4197 80.3192 91.922 81.8285 91.2064 83.2373L101.079 88.3166C102.349 85.8404 103.143 83.3325 103.619 80.7452L92.6826 78.7611ZM91.2064 83.2373C90.4937 84.6178 89.5669 85.8768 88.4603 86.9674L96.2699 94.8563C98.2064 92.9515 99.8413 90.7293 101.079 88.3166L91.2064 83.2373ZM88.4603 86.9674C87.3492 88.0627 86.0794 88.9833 84.6825 89.6658L89.6667 99.6023C92.1025 98.3756 94.3307 96.774 96.2699 94.8563L88.4603 86.9674ZM84.6667 89.6658C83.2699 90.396 81.7937 90.8563 80.1111 91.1579L82.0476 102.11C84.6969 101.654 87.2643 100.809 89.6667 99.6023L84.6667 89.6817V89.6658ZM80.1111 91.1579C78.3968 91.4753 76.5556 91.5865 74.5079 91.6341L74.8095 102.745C77.0318 102.682 79.5238 102.555 82.0476 102.11L80.1111 91.1579ZM74.5873 91.6341C70.4921 91.6817 69.3492 91.6817 68.2064 91.6817V102.793C69.3968 102.793 70.5873 102.793 74.7143 102.745L74.5873 91.6341ZM68.2064 91.6817H43.9683V102.793H68.2222V91.6817H68.2064ZM43.9524 91.6817H30.5556V102.793H43.9524V91.6817ZM30.5714 91.6817C26.0635 91.6817 25.1587 91.6658 24.254 91.6341L23.9524 102.745C25.0159 102.777 26.0794 102.777 30.5397 102.793L30.5714 91.6817ZM24.254 91.6341C22.2064 91.5865 20.3651 91.4753 18.6667 91.1579L16.7143 102.11C19.254 102.555 21.7302 102.682 23.9524 102.745L24.2699 91.6341H24.254ZM18.6667 91.1579C17.0781 90.8954 15.5374 90.3979 14.0953 89.6817L9.09525 99.6023C11.4985 100.803 14.0658 101.643 16.7143 102.094L18.6667 91.1579ZM14.0953 89.6817C12.6962 88.9814 11.416 88.0655 10.3016 86.9674L2.49208 94.8563C4.42977 96.7801 6.65807 98.387 9.09525 99.6182L14.0953 89.6817ZM10.3016 86.9674C9.19567 85.8763 8.26892 84.6174 7.55557 83.2373L-2.31745 88.3166C-1.06837 90.736 0.554782 92.9431 2.49208 94.8563L10.3016 86.9674ZM7.57144 83.2373C6.85013 81.8238 6.34707 80.3093 6.07938 78.7452L-4.85713 80.7452C-4.38094 83.3325 -3.58729 85.8404 -2.31745 88.3166L7.57144 83.2373ZM6.07938 78.7452C5.77779 77.0785 5.66668 75.2849 5.60319 73.2531L-5.50792 73.5706C-5.44443 75.7611 -5.30157 78.2373 -4.85713 80.7452L6.09525 78.7452H6.07938ZM5.60319 73.2531L5.57144 70.4595L-5.53967 70.523C-5.53967 71.523 -5.53967 72.5388 -5.50792 73.5547L5.60319 73.2373V73.2531ZM5.57144 70.4436L5.55557 67.0309H-5.55554V70.523L5.55557 70.4436H5.57144ZM5.55557 67.0309V55.5547H-5.55554V67.0309H5.55557ZM5.55557 55.5547V43.6817H-5.55554V55.5547H5.55557ZM5.55557 43.6817V32.2055H-5.55554V43.6817H5.55557ZM5.55557 32.2055V28.7928L-5.55554 28.6976V32.2055H5.55557ZM5.55557 28.7769C5.55557 27.8246 5.58731 26.9039 5.60319 25.9833L-5.50792 25.6658L-5.53967 28.7134L5.57144 28.7769H5.55557ZM5.60319 25.9833C5.66668 23.9515 5.77779 22.1579 6.07938 20.4754L-4.85713 18.4912C-5.25192 20.8683 -5.46418 23.2722 -5.49205 25.6817L5.61906 25.9833H5.60319ZM6.07938 20.4912C6.34707 18.9271 6.85013 17.4126 7.57144 15.9992L-2.31745 10.9198C-3.58729 13.396 -4.38094 15.9039 -4.85713 18.4912L6.09525 20.4912H6.07938ZM7.57144 15.9992C8.28048 14.6252 9.20186 13.3717 10.3016 12.2849L2.49208 4.36424C0.552618 6.28159 -1.0707 8.49423 -2.31745 10.9198L7.57144 15.9992ZM10.3016 12.269C11.4127 11.1738 12.6826 10.269 14.0953 9.57059L9.09525 -0.381793C6.65766 0.848699 4.42926 2.45572 2.49208 4.38011L10.3016 12.269ZM14.0953 9.57059C15.5079 8.84043 16.9683 8.38011 18.6667 8.07852L16.7143 -2.87386C14.1111 -2.39767 11.5873 -1.61989 9.09525 -0.36592L14.0953 9.55472V9.57059ZM18.6667 8.07852C20.3651 7.76106 22.2064 7.64995 24.254 7.60233L23.9524 -3.50878C21.7302 -3.44529 19.2381 -3.3183 16.7143 -2.87386L18.6667 8.07852ZM24.1746 7.60233C28.2699 7.55471 29.4127 7.55472 30.5556 7.55472V-3.5564C29.3651 -3.5564 28.1746 -3.5564 24.0476 -3.50878L24.1746 7.60233ZM30.5556 7.55472H43.9524V-3.5564H30.5556V7.55472ZM43.9524 7.55472H67.254V-3.5564H43.9683V7.55472H43.9524ZM67.254 -3.5564H53.0476V7.55472H67.254V-3.5564ZM53.0476 7.55472H68.2064V-3.5564H53.0476V7.55472ZM68.1905 7.55472C72.6984 7.55472 73.6032 7.57059 74.5079 7.60233L74.8254 -3.50878C73.746 -3.54052 72.6826 -3.54052 68.2222 -3.5564L68.1905 7.55472ZM74.5079 7.60233C76.5714 7.64995 78.3968 7.76106 80.1111 8.07852L82.0476 -2.87386C79.6541 -3.2655 77.2347 -3.47773 74.8095 -3.50878L74.5079 7.60233ZM80.1111 8.07852C81.7937 8.38011 83.2699 8.84043 84.6667 9.55472L89.6667 -0.36592C87.2635 -1.56696 84.6961 -2.4067 82.0476 -2.85798L80.1111 8.07852ZM84.6825 9.55472C86.0761 10.2562 87.3509 11.1721 88.4603 12.269L96.2699 4.38011C94.3323 2.45612 92.104 0.849152 89.6667 -0.381793L84.6825 9.55472ZM88.4603 12.2849C89.5714 13.3642 90.4921 14.6341 91.2064 15.9992L101.079 10.9198C99.8333 8.4938 98.2099 6.28107 96.2699 4.36424L88.4603 12.2849ZM91.2064 15.9992C91.9206 17.3801 92.381 18.8246 92.6826 20.4754L103.619 18.4912C103.143 15.9039 102.349 13.396 101.079 10.9198L91.2064 15.9992ZM92.6826 20.4754C93 22.1579 93.1111 23.9674 93.1587 25.9833L104.27 25.6658C104.206 23.4753 104.079 20.9992 103.619 18.4912L92.6826 20.4754ZM93.1587 25.9833C93.1905 26.9039 93.1905 27.8246 93.2064 28.7769L104.317 28.7134L104.27 25.6817L93.1587 25.9992V25.9833ZM93.2064 28.7769V32.2055H104.317V28.7134L93.2064 28.7769ZM93.2064 32.2055V43.6817H104.317V32.2055H93.2064ZM93.2064 43.6817V55.5547H104.317V43.6817H93.2064ZM93.2064 55.5547V67.0309H104.317V55.5547H93.2064Z" fill="url(#paint0_linear_755_13232)"/>
</g>
<path fill-rule="evenodd" clip-rule="evenodd" d="M38.8572 42.9999C38.8572 42.5713 39.2064 42.2062 39.6509 42.2062H54.254C54.6985 42.2062 55.0477 42.5713 55.0477 42.9999V44.5872C55.0477 44.7977 54.9641 44.9995 54.8152 45.1484C54.6664 45.2972 54.4645 45.3808 54.254 45.3808H39.6509C39.4404 45.3808 39.2385 45.2972 39.0897 45.1484C38.9408 44.9995 38.8572 44.7977 38.8572 44.5872V42.9999ZM33.4128 34.0475C33.4698 33.9952 33.5132 33.9298 33.5392 33.8569C33.5652 33.784 33.5731 33.7059 33.5622 33.6293C33.5512 33.5527 33.5218 33.48 33.4764 33.4173C33.431 33.3546 33.371 33.304 33.3017 33.2697L27.635 30.2539C27.5293 30.1992 27.4479 30.107 27.4067 29.9954C27.3656 29.8838 27.3678 29.7608 27.4128 29.6507L31.3175 19.9364C31.4921 19.4761 30.9207 19.0793 30.5556 19.4126L18.254 30.5237C18.1975 30.5716 18.1529 30.6321 18.1239 30.7003C18.0948 30.7685 18.0821 30.8426 18.0867 30.9166C18.0914 30.9906 18.1132 31.0625 18.1505 31.1265C18.1878 31.1906 18.2396 31.2451 18.3016 31.2856L23.762 34.984C23.8519 35.045 23.9183 35.135 23.95 35.2389C23.9818 35.3429 23.9771 35.4546 23.9366 35.5554L20.381 44.6189C20.1905 45.0951 20.762 45.4761 21.1429 45.1427L33.4128 34.0316V34.0475Z" fill="white"/>
</g>
<defs>
<linearGradient id="paint0_linear_755_13232" x1="51.1429" y1="1.99916" x2="51.1429" y2="102.523" gradientUnits="userSpaceOnUse">
<stop stop-color="#F743B6"/>
<stop offset="1" stop-color="#FCC043"/>
</linearGradient>
<clipPath id="clip0_755_13232">
<rect width="100" height="95.2381" fill="white" transform="translate(0 1.99915)"/>
</clipPath>
</defs>
</svg>
