<svg width="100" height="100" viewBox="0 0 100 100" fill="none" xmlns="http://www.w3.org/2000/svg">
<path d="M62.7129 10.3622V29.1824L83.8618 83.501C83.8618 83.501 90.3183 96.767 71.8519 99.9996H29.7244C29.7244 99.9996 12.5126 98.2036 16.6389 84.5752L38.8641 29.1831V10.3622H62.7129Z" fill="#009688"/>
<path d="M63.1593 8.17392H37.7891C35.7343 8.17392 34.0629 6.34598 34.0629 4.0875C34.0629 1.82758 35.7336 -0.000366211 37.7891 -0.000366211H63.1593C65.2235 -0.000366211 66.892 1.82758 66.892 4.0875C66.892 6.34598 65.2228 8.17392 63.1593 8.17392Z" fill="#004D40"/>
<path d="M56.4667 41.0915C59.189 41.0915 61.4091 43.7515 61.4091 47.0457C61.4091 50.3254 59.1876 52.992 56.4667 52.992C53.7378 52.992 51.5243 50.3254 51.5243 47.0457C51.5243 43.7501 53.7378 41.0915 56.4667 41.0915Z" fill="white"/>
<path d="M41.2942 56.5374C43.5951 56.5374 45.4603 54.2893 45.4603 51.516C45.4603 48.7428 43.5951 46.4946 41.2942 46.4946C38.9933 46.4946 37.1281 48.7428 37.1281 51.516C37.1281 54.2893 38.9933 56.5374 41.2942 56.5374Z" fill="white"/>
<path d="M64.5938 27.935V18.9837C64.5938 18.9837 75.9449 16.481 81.6179 29.684C81.6179 29.684 72.7768 36.1253 64.5938 27.935Z" fill="#004D40"/>
<path d="M36.7919 27.935V18.9837C36.7919 18.9837 25.4394 16.481 19.7693 29.684C19.7693 29.684 28.6017 36.1253 36.7919 27.935Z" fill="#004D40"/>
<path d="M71.4184 64.978C52.9599 59.252 37.4413 62.3259 29.8562 64.6496L22.2074 83.0602C18.7639 94.0511 33.1425 95.4956 33.1425 95.4956H68.3279C83.7509 92.89 78.3605 82.1977 78.3605 82.1977L71.4184 64.978Z" fill="white"/>
<path d="M44.8167 71.8185C44.8167 73.8037 42.1488 75.4185 38.8625 75.4185C35.5763 75.4185 32.9163 73.803 32.9163 71.8185C32.9163 69.8253 35.5763 68.2162 38.8625 68.2162C42.1502 68.2177 44.8167 69.8253 44.8167 71.8185Z" fill="#004D40"/>
<path d="M65.9913 71.8185C65.9913 73.8037 63.3233 75.4185 60.045 75.4185C56.7494 75.4185 54.0908 73.803 54.0908 71.8185C54.0908 69.8253 56.7494 68.2162 60.045 68.2162C63.3248 68.2177 65.9913 69.8253 65.9913 71.8185Z" fill="#004D40"/>
</svg>
