<svg width="100" height="100" viewBox="0 0 100 100" fill="none" xmlns="http://www.w3.org/2000/svg">
<path d="M0 50C0 22.3858 22.3858 0 50 0C77.6142 0 100 22.3858 100 50C100 77.6142 77.6142 100 50 100C22.3858 100 0 77.6142 0 50Z" fill="white"/>
<path fill-rule="evenodd" clip-rule="evenodd" d="M34.5526 36.1984C33.4292 36.1984 32.4182 35.1687 32.4182 34.0246C32.4182 31.3932 38.9339 29.4482 46.3484 29.4482C47.0225 29.4482 47.4718 29.4482 47.4718 28.8762C47.4718 27.8465 45.225 27.5033 45.225 25.7871C45.225 23.9566 47.3595 22.8125 50.0557 22.8125C52.7518 22.8125 54.8863 23.9566 54.8863 25.7871C54.8863 27.5033 52.6395 27.7321 52.6395 28.8762C52.6395 29.2194 52.9765 29.4482 53.7629 29.4482C61.1774 29.4482 67.8055 31.2788 67.8055 34.0246C67.8055 35.1687 66.9068 36.1984 65.671 36.1984H34.5526ZM68.1425 46.6096C70.8387 48.3257 71.8498 51.4147 71.4004 54.275L68.2549 71.5507C67.5808 74.983 64.66 77.5 61.1774 77.5H50.168H39.1586C35.676 77.5 32.7552 74.983 32.0811 71.5507L28.9356 54.275C28.4862 51.5292 29.6096 48.4401 32.3058 46.724C33.8786 45.5799 34.2156 43.6349 32.3058 42.9485C29.6096 41.9188 30.1713 38.6009 32.8675 38.6009H49.2693C51.8531 38.6009 54.9986 40.5459 54.9986 46.8384C54.9986 53.1309 52.0778 52.5588 52.0778 57.0208C52.0778 58.9657 53.6506 61.0251 55.5604 61.2539C58.8182 61.5971 60.728 60.3387 60.728 55.7623C60.728 51.0715 58.0319 48.8978 58.0319 45.0078C58.0319 40.3171 60.9527 38.4865 62.8625 38.4865H67.5808C70.277 38.4865 70.8387 41.8044 68.1425 42.8341C66.2327 43.6349 66.5698 45.5799 68.1425 46.6096Z" fill="#16A5F3"/>
</svg>
