<svg width="101" height="100" viewBox="0 0 101 100" fill="none" xmlns="http://www.w3.org/2000/svg">
<path d="M38.0249 19.8105L38.0317 19.804C43.5077 15.8153 50.2495 13.4622 57.5423 13.4622C61.6181 13.4622 65.4939 14.0961 69.0939 15.4511C69.3276 15.5354 69.6367 15.5885 69.7772 15.5885C70.638 15.5885 71.2699 14.9977 71.275 14.1611C71.277 13.5924 70.9951 13.1183 70.6305 12.7819C61.094 4.00119 50.9638 0.375366 50.9638 0.375366C28.3558 9.41562 11.7313 31.2777 11.2548 56.2626C11.0504 63.3701 12.7478 70.6187 16.5641 77.2286C18.8278 81.1513 21.6623 84.5425 24.8966 87.3555C18.7064 84.5999 13.3005 79.9382 9.65257 73.6242C7.614 70.0926 6.22264 66.4205 5.59549 62.6283C5.554 62.3845 5.44755 62.0886 5.37579 61.9689C4.9476 61.2241 4.11843 60.9693 3.39197 61.3883C2.89576 61.6665 2.62912 62.1508 2.52233 62.6317C-0.316843 75.2805 1.61018 85.8682 1.61018 85.8682C21.0212 101.145 48.7922 104.487 70.8278 91.7703C81.1927 85.7828 87.8431 75.8308 89.9592 64.9373L89.9663 64.9512C90.6812 71.691 89.3443 78.6992 85.6994 85.0203C83.6622 88.5485 81.1767 91.5884 78.2059 94.034C78.0131 94.1925 77.8121 94.433 77.742 94.5524C77.3125 95.2951 77.508 96.1403 78.2297 96.5624C78.7229 96.8514 79.2722 96.8399 79.7432 96.6892C92.1192 92.8253 100.322 85.8651 100.322 85.8651C103.788 61.8383 93.2354 36.5806 71.9617 23.6414C61.9722 17.4369 49.4884 15.8446 38.0249 19.8105V19.8105ZM83.2816 49.9932C83.6006 51.5873 83.7782 53.2259 83.7782 54.892C83.7782 70.5704 69.0891 83.2742 50.9654 83.2742C32.8407 83.2742 18.1517 70.5701 18.1517 54.892C18.1517 53.2259 18.3272 51.5873 18.6479 49.9932C25.4585 43.0092 37.3808 38.3682 50.9651 38.3682C64.5471 38.3682 76.4707 43.0092 83.2816 49.9932Z" fill="black"/>
<path d="M44.9041 43.0504C47.427 43.9364 49.2377 46.3382 49.2377 49.1651C49.2377 52.7447 46.3414 55.641 42.7622 55.641C39.9353 55.641 37.5321 53.834 36.6488 51.3053C35.8362 53.2233 35.4192 55.2856 35.4228 57.3687C35.4228 65.9573 42.3826 72.9097 50.9658 72.9097C59.5506 72.9097 66.5081 65.9573 66.5081 57.3687C66.5081 48.7838 59.5486 41.824 50.9658 41.824C48.8835 41.8227 46.8222 42.2397 44.9041 43.0504V43.0504Z" fill="black"/>
</svg>
