<svg width="100" height="100" viewBox="0 0 100 100" fill="none" xmlns="http://www.w3.org/2000/svg">
<path d="M17.7083 1.00049H82.2917C92.0833 1.00049 100 8.91715 100 18.7088V80.7922C100 90.5838 92.0833 98.5005 82.2917 98.5005H17.7083C7.91667 98.5005 0 90.5838 0 80.7922V18.7088C0 8.91715 7.91667 1.00049 17.7083 1.00049Z" fill="#49021F"/>
<path d="M36.3334 26.5005V69.4171C36.3334 69.8755 36.125 70.0838 35.75 70.0838H27.5834C27.2084 70.0838 27.0417 69.8755 27.0417 69.4171V26.5005C27.0417 26.1255 27.25 25.9588 27.625 25.9588H35.75C36 25.9172 36.25 26.0838 36.2917 26.3755C36.3334 26.4172 36.3334 26.4588 36.3334 26.5005Z" fill="#FF3366"/>
<path d="M60.4166 70.5838C57.3333 70.6255 54.25 70.0005 51.4583 68.7088C48.8333 67.5005 46.6666 65.5005 45.1666 63.0421C43.625 60.5005 42.875 57.3338 42.875 53.5421C42.8333 50.4588 43.625 47.4171 45.1666 44.7505C46.75 42.0421 49.0416 39.7921 51.7916 38.2921C54.7083 36.6671 58.2083 35.8755 62.3333 35.8755C62.5416 35.8755 62.8333 35.8755 63.2083 35.9171C63.5833 35.9588 64 35.9588 64.5 36.0005V22.8338C64.5 22.5421 64.625 22.3755 64.9166 22.3755H73.375C73.5833 22.3338 73.75 22.5005 73.7916 22.6671V22.7505V62.4171C73.7916 63.1671 73.8333 64.0005 73.875 64.9171C73.9583 65.7921 74 66.6255 74.0416 67.3338C74.0416 67.6255 73.9166 67.8755 73.625 68.0005C71.4583 68.9171 69.1666 69.5838 66.8333 70.0005C64.75 70.3755 62.5833 70.5838 60.4166 70.5838ZM64.5 62.2505V43.9171C64.125 43.8338 63.75 43.7505 63.375 43.7088C62.9166 43.6671 62.4583 43.6255 62 43.6255C60.375 43.6255 58.75 43.9588 57.2916 44.7088C55.875 45.4171 54.6666 46.4588 53.75 47.7921C52.8333 49.1255 52.375 50.9171 52.375 53.0838C52.3333 54.5421 52.5833 56.0005 53.0833 57.3755C53.5 58.5005 54.125 59.5005 54.9583 60.3338C55.75 61.0838 56.7083 61.6671 57.7916 62.0005C58.9166 62.3755 60.0833 62.5421 61.25 62.5421C61.875 62.5421 62.4583 62.5005 63 62.4588C63.5416 62.5005 64.0416 62.4171 64.5 62.2505Z" fill="#FF3366"/>
</svg>
