<svg width="100" height="100" viewBox="0 0 100 100" fill="none" xmlns="http://www.w3.org/2000/svg">
<path d="M100 52.4043C100 44.4988 97.9563 37.0722 94.3719 30.6183C109.649 -3.95753 78.0024 1.10654 76.2402 1.45146C69.5356 2.76357 63.3324 4.86982 57.6109 7.54014C56.7672 7.49248 55.918 7.46631 55.0629 7.46631C33.7093 7.46631 15.8351 22.3601 11.2605 42.3261C22.5152 29.6999 30.3914 24.6054 35.1082 22.5671C34.3604 23.2361 33.622 23.9156 32.8933 24.6054C32.6519 24.8331 32.4195 25.0644 32.1816 25.2933C31.7038 25.7506 31.2301 26.2123 30.7605 26.6781C30.4832 26.9542 30.2136 27.2327 29.9402 27.5113C29.5276 27.9295 29.1181 28.3507 28.7117 28.7749C28.4249 29.0757 28.1453 29.3769 27.864 29.6781C27.488 30.0795 27.1149 30.4836 26.7449 30.8906C26.4597 31.2058 26.1785 31.5206 25.898 31.8367C25.2653 32.5482 24.6408 33.267 24.0245 33.9929C23.7034 34.3722 23.3843 34.7533 23.0675 35.1363C22.7886 35.4738 22.5105 35.8105 22.2374 36.1476C21.9447 36.5099 21.6538 36.8737 21.3648 37.239C21.0851 37.5913 20.8058 37.9429 20.5327 38.2949C20.2726 38.6296 20.0202 38.9632 19.766 39.2972C19.4788 39.6749 19.1894 40.0523 18.9101 40.4277C18.7101 40.6964 18.5183 40.9628 18.3218 41.2304C16.6285 43.5403 15.0067 45.9019 13.4589 48.3117C13.455 48.3171 13.4511 48.3226 13.4484 48.3285C13.0697 48.9191 12.6953 49.5125 12.3253 50.1086C12.3058 50.1402 12.2855 50.1722 12.2659 50.2046C11.9077 50.7826 11.5537 51.363 11.2038 51.9461L11.1671 52.0066C10.2899 53.4677 9.43855 54.9442 8.61359 56.4355C4.56632 63.7699 2.596 68.8941 2.51085 69.1984C-10.2696 114.89 29.6187 95.5949 35.1847 92.7145C41.1781 95.6754 47.925 97.3418 55.0629 97.3418C74.6024 97.3418 91.227 84.8691 97.4153 67.4515H73.8035C70.3098 73.3539 63.5836 77.3519 55.8562 77.3519C44.5343 77.3519 35.3566 68.7738 35.3566 58.1918H99.6301C99.8739 56.2968 100 54.3652 100 52.4043ZM91.6055 8.18272C95.4754 10.7948 98.5789 14.8964 93.2489 28.7101C88.1364 20.4882 80.4449 14.0386 71.3031 10.4937C75.4617 8.48545 85.7602 4.2374 91.6055 8.18272ZM9.36711 92.6227C6.21476 89.3902 5.65773 81.5176 12.6132 67.1719C16.123 77.2637 23.1273 85.7195 32.1804 91.0859C27.6781 93.5645 15.7249 99.1442 9.36711 92.6227ZM35.2574 45.9035C35.6168 35.6187 44.5675 27.3839 55.5648 27.3839C66.5621 27.3839 75.5133 35.6187 75.8727 45.9035H35.2574Z" fill="#1EBBEE"/>
</svg>
