<svg width="100" height="100" viewBox="0 0 100 100" fill="none" xmlns="http://www.w3.org/2000/svg">
<path d="M49.9999 97.4583C76.2102 97.4583 97.4577 76.2108 97.4577 50.0005C97.4577 23.7905 76.2102 2.54297 49.9999 2.54297C23.7899 2.54297 2.54236 23.7905 2.54236 50.0005C2.54236 76.2108 23.7899 97.4583 49.9999 97.4583Z" fill="white"/>
<path d="M50.0002 0.000488281C22.386 0.000488281 0.000244141 22.3862 0.000244141 50.0005C0.000244141 77.6149 22.386 100 50.0002 100C77.6146 100 100 77.6149 100 50.0005C100 22.3862 77.6146 0.000488281 50.0002 0.000488281ZM50.0002 5.08524C74.8062 5.08524 94.9156 25.1945 94.9156 50.0005C94.9156 74.8064 74.8062 94.9158 50.0002 94.9158C25.1942 94.9158 5.08499 74.8064 5.08499 50.0005C5.08499 25.1945 25.1942 5.08524 50.0002 5.08524Z" fill="#4000BF"/>
<path fill-rule="evenodd" clip-rule="evenodd" d="M50.5652 14.4075C70.223 14.4075 86.1587 30.343 86.1587 50.0008C86.1587 69.6583 70.223 85.5939 50.5652 85.5939C30.9078 85.5939 14.9722 69.6583 14.9722 50.0008C14.9722 45.1964 15.9239 40.6146 17.6493 36.4333C20.1685 39.8639 24.2312 42.0911 28.814 42.0911C36.4587 42.0911 42.6559 35.8939 42.6559 28.2493C42.6559 23.6665 40.4287 19.6038 36.9977 17.0847C41.1793 15.3593 45.7612 14.4075 50.5652 14.4075Z" fill="url(#paint0_linear_755_13299)"/>
<defs>
<linearGradient id="paint0_linear_755_13299" x1="50.5652" y1="85.5939" x2="50.5652" y2="14.4075" gradientUnits="userSpaceOnUse">
<stop stop-color="#7400E1"/>
<stop offset="1" stop-color="#4000BF"/>
</linearGradient>
</defs>
</svg>
