<svg width="100" height="100" viewBox="0 0 100 100" fill="none" xmlns="http://www.w3.org/2000/svg">
<path d="M50.0036 0C36.4243 0 34.7202 0.059376 29.3868 0.302084C24.0638 0.545834 20.4304 1.38854 17.2512 2.625C13.9626 3.90208 11.173 5.61042 8.39384 8.39063C5.61256 11.1698 3.90421 13.9594 2.62294 17.2469C1.38335 20.4271 0.539589 24.0615 0.300003 29.3823C0.0625008 34.7156 0 36.4208 0 50C0 63.5792 0.0604183 65.2781 0.302087 70.6115C0.546882 75.9344 1.3896 79.5677 2.62503 82.7469C3.90317 86.0354 5.61152 88.825 8.39175 91.6042C11.1699 94.3854 13.9595 96.0979 17.246 97.375C20.4273 98.6115 24.0617 99.4542 29.3836 99.6979C34.717 99.9406 36.4202 100 49.9984 100C63.5788 100 65.2778 99.9406 70.6112 99.6979C75.9341 99.4542 79.5717 98.6115 82.753 97.375C86.0405 96.0979 88.8259 94.3854 91.6041 91.6042C94.3854 88.825 96.0937 86.0354 97.375 82.7479C98.6042 79.5677 99.4479 75.9333 99.6979 70.6125C99.9375 65.2792 100 63.5792 100 50C100 36.4208 99.9375 34.7167 99.6979 29.3833C99.4479 24.0604 98.6042 20.4271 97.375 17.2479C96.0937 13.9594 94.3854 11.1698 91.6041 8.39063C88.8228 5.60938 86.0415 3.90104 82.7498 2.625C79.5623 1.38854 75.9268 0.545834 70.6039 0.302084C65.2705 0.059376 63.5725 0 49.9891 0H50.0036ZM45.5182 9.01042C46.8494 9.00833 48.3349 9.01042 50.0036 9.01042C63.3538 9.01042 64.9361 9.05833 70.208 9.29792C75.0831 9.52083 77.7289 10.3354 79.4915 11.0198C81.8248 11.926 83.4884 13.0094 85.2374 14.7594C86.9874 16.5094 88.0707 18.176 88.9791 20.5094C89.6634 22.2698 90.4791 24.9156 90.7009 29.7906C90.9405 35.0615 90.9926 36.6448 90.9926 49.9885C90.9926 63.3323 90.9405 64.9156 90.7009 70.1865C90.478 75.0615 89.6634 77.7073 88.9791 79.4677C88.0728 81.801 86.9874 83.4625 85.2374 85.2115C83.4873 86.9615 81.8259 88.0448 79.4915 88.951C77.731 89.6385 75.0831 90.451 70.208 90.674C64.9371 90.9135 63.3538 90.9656 50.0036 90.9656C36.6525 90.9656 35.0702 90.9135 29.7993 90.674C24.9242 90.449 22.2784 89.6344 20.5148 88.95C18.1814 88.0438 16.5148 86.9604 14.7647 85.2104C13.0147 83.4604 11.9314 81.7979 11.023 79.4635C10.3387 77.7031 9.52302 75.0573 9.30114 70.1823C9.06155 64.9115 9.01364 63.3281 9.01364 49.976C9.01364 36.624 9.06155 35.049 9.30114 29.7781C9.52406 24.9031 10.3387 22.2573 11.023 20.4948C11.9293 18.1615 13.0147 16.4948 14.7647 14.7448C16.5148 12.9948 18.1814 11.9115 20.5148 11.0031C22.2773 10.3156 24.9242 9.50313 29.7993 9.27917C34.4118 9.07083 36.1993 9.00833 45.5182 8.99792V9.01042Z" fill="url(#paint0_radial_147648_827)"/>
<path d="M76.586 17.1897C75.3992 17.1897 74.2391 17.5416 73.2523 18.201C72.2656 18.8604 71.4965 19.7976 71.0425 20.8941C70.5884 21.9905 70.4697 23.197 70.7014 24.361C70.9331 25.5249 71.5047 26.594 72.344 27.4331C73.1834 28.2721 74.2527 28.8434 75.4167 29.0746C76.5807 29.3059 77.7872 29.1868 78.8836 28.7324C79.9799 28.2779 80.9168 27.5086 81.5759 26.5216C82.2349 25.5346 82.5865 24.3744 82.5861 23.1876C82.5861 19.8751 79.8985 17.1876 76.586 17.1876V17.1897Z" fill="url(#paint1_radial_147648_827)"/>
<path fill-rule="evenodd" clip-rule="evenodd" d="M49.8961 24.2001C35.7158 24.2001 24.2188 35.697 24.2188 49.8772C24.2188 64.0574 35.7158 75.5491 49.8961 75.5491C64.0765 75.5491 75.5704 64.0574 75.5704 49.8772C75.5704 35.697 64.0765 24.2001 49.8961 24.2001ZM50 66.4064C59.0609 66.4064 66.4063 59.061 66.4063 50.0001C66.4063 40.9392 59.0609 33.5938 50 33.5938C40.9391 33.5938 33.5938 40.9392 33.5938 50.0001C33.5938 59.061 40.9391 66.4064 50 66.4064Z" fill="url(#paint2_radial_147648_827)"/>
<path d="M50.0036 0C36.4243 0 34.7202 0.059376 29.3868 0.302084C24.0638 0.545834 20.4304 1.38854 17.2512 2.625C13.9626 3.90208 11.173 5.61042 8.39384 8.39063C5.61256 11.1698 3.90421 13.9594 2.62294 17.2469C1.38335 20.4271 0.539589 24.0615 0.300003 29.3823C0.0625008 34.7156 0 36.4208 0 50C0 63.5792 0.0604183 65.2781 0.302087 70.6115C0.546882 75.9344 1.3896 79.5677 2.62503 82.7469C3.90317 86.0354 5.61152 88.825 8.39175 91.6042C11.1699 94.3854 13.9595 96.0979 17.246 97.375C20.4273 98.6115 24.0617 99.4542 29.3836 99.6979C34.717 99.9406 36.4202 100 49.9984 100C63.5788 100 65.2778 99.9406 70.6112 99.6979C75.9341 99.4542 79.5717 98.6115 82.753 97.375C86.0405 96.0979 88.8259 94.3854 91.6041 91.6042C94.3854 88.825 96.0937 86.0354 97.375 82.7479C98.6042 79.5677 99.4479 75.9333 99.6979 70.6125C99.9375 65.2792 100 63.5792 100 50C100 36.4208 99.9375 34.7167 99.6979 29.3833C99.4479 24.0604 98.6042 20.4271 97.375 17.2479C96.0937 13.9594 94.3854 11.1698 91.6041 8.39063C88.8228 5.60938 86.0415 3.90104 82.7498 2.625C79.5623 1.38854 75.9268 0.545834 70.6039 0.302084C65.2705 0.059376 63.5725 0 49.9891 0H50.0036ZM45.5182 9.01042C46.8494 9.00833 48.3349 9.01042 50.0036 9.01042C63.3538 9.01042 64.9361 9.05833 70.208 9.29792C75.0831 9.52083 77.7289 10.3354 79.4915 11.0198C81.8248 11.926 83.4884 13.0094 85.2374 14.7594C86.9874 16.5094 88.0707 18.176 88.9791 20.5094C89.6634 22.2698 90.4791 24.9156 90.7009 29.7906C90.9405 35.0615 90.9926 36.6448 90.9926 49.9885C90.9926 63.3323 90.9405 64.9156 90.7009 70.1865C90.478 75.0615 89.6634 77.7073 88.9791 79.4677C88.0728 81.801 86.9874 83.4625 85.2374 85.2115C83.4873 86.9615 81.8259 88.0448 79.4915 88.951C77.731 89.6385 75.0831 90.451 70.208 90.674C64.9371 90.9135 63.3538 90.9656 50.0036 90.9656C36.6525 90.9656 35.0702 90.9135 29.7993 90.674C24.9242 90.449 22.2784 89.6344 20.5148 88.95C18.1814 88.0438 16.5148 86.9604 14.7647 85.2104C13.0147 83.4604 11.9314 81.7979 11.023 79.4635C10.3387 77.7031 9.52302 75.0573 9.30114 70.1823C9.06155 64.9115 9.01364 63.3281 9.01364 49.976C9.01364 36.624 9.06155 35.049 9.30114 29.7781C9.52406 24.9031 10.3387 22.2573 11.023 20.4948C11.9293 18.1615 13.0147 16.4948 14.7647 14.7448C16.5148 12.9948 18.1814 11.9115 20.5148 11.0031C22.2773 10.3156 24.9242 9.50313 29.7993 9.27917C34.4118 9.07083 36.1993 9.00833 45.5182 8.99792V9.01042Z" fill="url(#paint3_radial_147648_827)"/>
<path d="M76.586 17.1897C75.3992 17.1897 74.2391 17.5416 73.2523 18.201C72.2656 18.8604 71.4965 19.7976 71.0425 20.8941C70.5884 21.9905 70.4697 23.197 70.7014 24.361C70.9331 25.5249 71.5047 26.594 72.344 27.4331C73.1834 28.2721 74.2527 28.8434 75.4167 29.0746C76.5807 29.3059 77.7872 29.1868 78.8836 28.7324C79.9799 28.2779 80.9168 27.5086 81.5759 26.5216C82.2349 25.5346 82.5865 24.3744 82.5861 23.1876C82.5861 19.8751 79.8985 17.1876 76.586 17.1876V17.1897Z" fill="url(#paint4_radial_147648_827)"/>
<path fill-rule="evenodd" clip-rule="evenodd" d="M49.8961 24.2001C35.7158 24.2001 24.2188 35.697 24.2188 49.8772C24.2188 64.0574 35.7158 75.5491 49.8961 75.5491C64.0765 75.5491 75.5704 64.0574 75.5704 49.8772C75.5704 35.697 64.0765 24.2001 49.8961 24.2001ZM50 66.4064C59.0609 66.4064 66.4063 59.061 66.4063 50.0001C66.4063 40.9392 59.0609 33.5938 50 33.5938C40.9391 33.5938 33.5938 40.9392 33.5938 50.0001C33.5938 59.061 40.9391 66.4064 50 66.4064Z" fill="url(#paint5_radial_147648_827)"/>
<defs>
<radialGradient id="paint0_radial_147648_827" cx="0" cy="0" r="1" gradientUnits="userSpaceOnUse" gradientTransform="translate(26.5626 107.702) rotate(-90) scale(99.1074 92.1777)">
<stop stop-color="#FFDD55"/>
<stop offset="0.1" stop-color="#FFDD55"/>
<stop offset="0.5" stop-color="#FF543E"/>
<stop offset="1" stop-color="#C837AB"/>
</radialGradient>
<radialGradient id="paint1_radial_147648_827" cx="0" cy="0" r="1" gradientUnits="userSpaceOnUse" gradientTransform="translate(26.5626 107.702) rotate(-90) scale(99.1074 92.1777)">
<stop stop-color="#FFDD55"/>
<stop offset="0.1" stop-color="#FFDD55"/>
<stop offset="0.5" stop-color="#FF543E"/>
<stop offset="1" stop-color="#C837AB"/>
</radialGradient>
<radialGradient id="paint2_radial_147648_827" cx="0" cy="0" r="1" gradientUnits="userSpaceOnUse" gradientTransform="translate(26.5626 107.702) rotate(-90) scale(99.1074 92.1777)">
<stop stop-color="#FFDD55"/>
<stop offset="0.1" stop-color="#FFDD55"/>
<stop offset="0.5" stop-color="#FF543E"/>
<stop offset="1" stop-color="#C837AB"/>
</radialGradient>
<radialGradient id="paint3_radial_147648_827" cx="0" cy="0" r="1" gradientUnits="userSpaceOnUse" gradientTransform="translate(-16.7505 7.20383) rotate(78.6806) scale(44.3014 182.612)">
<stop stop-color="#3771C8"/>
<stop offset="0.128" stop-color="#3771C8"/>
<stop offset="1" stop-color="#6600FF" stop-opacity="0"/>
</radialGradient>
<radialGradient id="paint4_radial_147648_827" cx="0" cy="0" r="1" gradientUnits="userSpaceOnUse" gradientTransform="translate(-16.7505 7.20383) rotate(78.6806) scale(44.3014 182.612)">
<stop stop-color="#3771C8"/>
<stop offset="0.128" stop-color="#3771C8"/>
<stop offset="1" stop-color="#6600FF" stop-opacity="0"/>
</radialGradient>
<radialGradient id="paint5_radial_147648_827" cx="0" cy="0" r="1" gradientUnits="userSpaceOnUse" gradientTransform="translate(-16.7505 7.20383) rotate(78.6806) scale(44.3014 182.612)">
<stop stop-color="#3771C8"/>
<stop offset="0.128" stop-color="#3771C8"/>
<stop offset="1" stop-color="#6600FF" stop-opacity="0"/>
</radialGradient>
</defs>
</svg>
