<svg width="100" height="100" viewBox="0 0 100 100" fill="none" xmlns="http://www.w3.org/2000/svg">
<path d="M0 50C0 22.3858 22.3858 0 50 0C77.6142 0 100 22.3858 100 50C100 77.6142 77.6142 100 50 100C22.3858 100 0 77.6142 0 50Z" fill="#1F8DED"/>
<path fill-rule="evenodd" clip-rule="evenodd" d="M47.7273 27.2727C47.7273 26.0176 48.7449 25 50.0001 25C51.2552 25 52.2728 26.0176 52.2728 27.2727V60.2273C52.2728 61.4824 51.2552 62.5 50.0001 62.5C48.7449 62.5 47.7273 61.4824 47.7273 60.2273V27.2727ZM38.6364 26.15C37.3813 26.15 36.3637 27.1676 36.3637 28.4227V58.7852C36.3637 60.0403 37.3813 61.058 38.6364 61.058C39.8915 61.058 40.9092 60.0403 40.9092 58.7852V28.4227C40.9092 27.1676 39.8915 26.15 38.6364 26.15ZM72.7273 55.6818C73.9824 55.6818 75.0001 54.6642 75.0001 53.4091V32.9682C75.0001 31.7131 73.9824 30.6955 72.7273 30.6955C71.4722 30.6955 70.4546 31.7131 70.4546 32.9682V53.4091C70.4546 54.6642 71.4722 55.6818 72.7273 55.6818ZM50.0001 75C65.4364 75 73.8557 67.9352 74.2069 67.6347C75.1597 66.8176 75.2699 65.3829 74.4529 64.4295C73.6364 63.4761 72.1989 63.3665 71.2478 64.1835C71.1751 64.246 63.7728 70.4545 50.0001 70.4545C36.3978 70.4545 28.8802 64.2903 28.7466 64.179C27.7932 63.3659 26.362 63.4784 25.5472 64.4295C24.7302 65.3829 24.841 66.8176 25.7932 67.6347C26.1444 67.9352 34.5637 75 50.0001 75ZM25.0001 32.9682C25.0001 31.7131 26.0177 30.6955 27.2728 30.6955C28.5279 30.6955 29.5455 31.7131 29.5455 32.9682V53.4091C29.5455 54.6642 28.5279 55.6818 27.2728 55.6818C26.0177 55.6818 25.0001 54.6642 25.0001 53.4091V32.9682ZM61.3637 26.15C60.1086 26.15 59.091 27.1676 59.091 28.4227V58.7852C59.091 60.0403 60.1086 61.058 61.3637 61.058C62.6188 61.058 63.6364 60.0403 63.6364 58.7852V28.4227C63.6364 27.1676 62.6188 26.15 61.3637 26.15Z" fill="white"/>
</svg>
