<svg width="100" height="100" viewBox="0 0 100 100" fill="none" xmlns="http://www.w3.org/2000/svg">
<path d="M0 50C0 22.3858 22.3858 0 50 0C77.6142 0 100 22.3858 100 50C100 77.6142 77.6142 100 50 100C22.3858 100 0 77.6142 0 50Z" fill="#FF3366"/>
<path fill-rule="evenodd" clip-rule="evenodd" d="M38.8108 30.3166C38.8108 27.3016 36.3506 25 33.4134 25C30.4766 25 28.0164 27.3016 28.0164 30.3166C28.0164 33.3339 30.4766 35.6358 33.4134 35.6358C36.3506 35.6358 38.8108 33.3339 38.8108 30.3166ZM61.4276 68.1775C61.4276 72.6239 64.046 75.8764 69.5228 75.8764C74.206 75.8764 77.9365 72.8617 80 65.6385L76.5082 64.2904C74.7619 69.1296 73.2536 70.0049 72.0634 70.0049C70.8725 70.0049 70.2369 69.212 70.2369 67.6251C70.2369 66.911 70.3968 66.1191 70.6339 65.1647L73.1744 56.0417C73.8094 53.8994 74.0475 52.0027 74.0475 50.2573C74.0475 43.4314 69.9198 39.8769 64.9194 39.8769C60.2368 39.8769 55.4741 44.1161 53.0934 48.5616L54.8391 40.6134H41.2664L39.3615 47.6617H45.7113L41.8015 63.2799C38.7304 70.1058 33.0899 70.1795 32.3821 70.0209C31.2198 69.7588 30.4766 69.325 30.4766 67.8151C30.4766 66.9434 30.6351 65.7071 31.0321 64.1978L36.9856 40.6134H21.9049L20 47.6617H26.27L22.2221 64.1484C21.9049 65.4979 21.7457 66.9053 21.7457 68.0938C21.7457 72.7777 24.2856 75.869 29.683 75.869C34.1599 75.869 37.7888 73.1747 40.4014 68.8823L38.806 75.2138H47.6954L52.7756 54.9095C54.0452 49.7499 56.5057 47.1443 60.2368 47.1443C63.1736 47.1443 64.9991 48.9707 64.9991 51.9858C64.9991 52.8594 64.9193 53.8109 64.6022 54.8432L61.9825 64.209C61.5855 65.5584 61.4276 66.9088 61.4276 68.1775Z" fill="white"/>
</svg>
