<svg width="100" height="100" viewBox="0 0 100 100" fill="none" xmlns="http://www.w3.org/2000/svg">
<path fill-rule="evenodd" clip-rule="evenodd" d="M95.1022 28.2998L95.5103 29.2522C98.5034 35.8508 100 42.7896 100 50.0005C100 77.5514 77.5509 100 50 100C22.449 100 0 77.5514 0 50.0005C0 22.4495 22.449 0.000488281 50 0.000488281C58.0953 0.000488281 65.7822 1.90525 72.8572 5.44268L73.8094 5.91886L72.9931 6.59911C70.9525 8.23177 69.3878 10.2726 68.3675 12.6536L68.0953 13.3338L67.4831 13.0617C61.9728 10.4767 56.1225 9.11615 50 9.11615C27.415 9.11615 9.11566 27.4155 9.11566 50.0005C9.11566 72.5855 27.415 90.8849 50 90.8849C72.585 90.8849 90.8844 72.5174 90.8844 50.0005C90.8844 44.6264 89.8641 39.3202 87.755 34.3542L87.4831 33.6739L88.1631 33.4017C90.5441 32.5174 92.7209 31.0209 94.4219 29.1161L95.1022 28.2998ZM82.7209 29.2523C88.4694 29.2523 93.1294 24.5924 93.1294 18.8441C93.1294 13.0958 88.4694 8.43593 82.7209 8.43593C76.9728 8.43593 72.3128 13.0958 72.3128 18.8441C72.3128 24.5924 76.9728 29.2523 82.7209 29.2523ZM49.9997 27.2115C37.4147 27.2115 27.2106 37.4155 27.2106 50.0008C27.2106 62.5858 37.4147 72.7899 49.9997 72.7899C62.5847 72.7899 72.7887 62.5858 72.7887 50.0008C72.7887 37.4155 62.5847 27.2115 49.9997 27.2115Z" fill="#3880FF"/>
</svg>
