<svg width="100" height="100" viewBox="0 0 100 100" fill="none" xmlns="http://www.w3.org/2000/svg">
<path d="M89.8776 49.2363C89.8776 44.0958 85.7101 39.9284 80.5697 39.9284C80.2388 39.9284 79.9128 39.9461 79.5911 39.9801L92.3755 2.2738H38.0461L50.8128 39.9472C50.6244 39.9353 50.4357 39.9291 50.247 39.9287C45.1066 39.9287 40.9391 44.0955 40.9391 49.2366C40.9391 53.3917 43.6624 56.9097 47.4206 58.1066C45.4357 61.5448 42.9378 64.6419 40.1019 67.3177C36.2455 70.9555 31.8321 73.7142 27.0588 75.4138C21.3756 72.4943 18.692 66.0014 21.1134 60.3086C21.3869 59.6655 21.6661 59.014 21.9329 58.3652C26.05 57.4043 29.1184 53.7134 29.1184 49.3032C29.1184 44.1624 24.951 39.9953 19.8102 39.9953C14.6694 39.9953 10.5023 44.1624 10.5023 49.3032C10.5023 52.4556 12.0705 55.2401 14.4682 56.9238C12.1644 62.1691 8.77785 67.6589 7.7227 74.0214C6.45814 81.6462 7.71845 89.7402 14.3133 94.3113C29.6722 104.956 46.3442 87.7121 63.9225 83.3771C70.2931 81.8064 77.2862 82.0594 82.899 78.8089C87.1139 76.3676 89.8928 72.3217 90.6812 67.7797C91.4607 63.2927 90.3247 58.8251 87.7127 55.2026C89.114 53.5306 89.8806 51.4178 89.8776 49.2363Z" fill="#99425B"/>
<path d="M88.4415 67.3907C87.757 71.3342 85.3214 74.7785 81.7598 76.8417C78.4395 78.7646 74.4609 79.3386 70.2481 79.9459C67.9914 80.2711 65.6579 80.6081 63.3782 81.17C57.3506 82.6564 51.5122 85.5564 45.8665 88.3609C34.5674 93.9732 24.8095 98.8196 15.6087 92.4426C8.86887 87.7716 9.17996 79.1292 9.96512 74.3934C10.6929 70.0055 12.6604 65.9645 14.5627 62.0568C14.8868 61.3927 15.2083 60.7272 15.5272 60.0606C16.4861 60.4439 17.4923 60.6963 18.5187 60.811C16.582 67.2025 19.6277 74.1521 26.0199 77.4359L26.895 77.8855L27.8212 77.5556C32.8748 75.7557 37.5316 72.868 41.6619 68.9709C44.3316 66.4521 46.6273 63.6654 48.514 60.6877C49.0876 60.7743 49.6669 60.8177 50.2469 60.8178C56.1141 60.8178 60.9724 56.4317 61.7243 50.7669C64.1259 50.679 66.6766 50.6783 69.0919 50.7662C69.8431 56.4317 74.7022 60.8181 80.5693 60.8181C83.0226 60.8181 85.298 60.0492 87.1727 58.7432C88.4741 61.4073 88.9599 64.4049 88.4415 67.3907ZM19.8105 42.2686C23.6895 42.2686 26.8451 45.4245 26.8451 49.3035C26.8451 50.6967 26.4362 51.996 25.7343 53.0901C24.5651 54.9138 22.5774 56.1638 20.2938 56.3197C20.134 56.3303 19.9728 56.3381 19.8105 56.3381C18.946 56.3381 18.1179 56.1805 17.3523 55.8942C15.8102 55.3143 14.5189 54.2145 13.701 52.7843C13.0937 51.7249 12.7746 50.5247 12.7756 49.3035C12.7756 45.4245 15.9314 42.2686 19.8105 42.2686ZM43.2127 49.2366C43.2127 45.7122 45.818 42.7859 49.2031 42.2799C49.544 42.2286 49.8926 42.202 50.2473 42.202C52.5025 42.202 54.5104 43.2703 55.798 44.9256C56.1205 45.3384 56.396 45.7858 56.6193 46.2596C57.0566 47.1911 57.2828 48.2076 57.2819 49.2366C57.2819 49.7989 57.2139 50.3456 57.0888 50.87C56.4032 53.7399 53.9559 55.9339 50.957 56.2357C50.7239 56.2591 50.4872 56.2712 50.2473 56.2712C48.8942 56.2723 47.5698 55.8808 46.4349 55.1441C44.4982 53.8895 43.2127 51.7108 43.2127 49.2366ZM72.5731 40.8712C71.0423 42.3324 69.9406 44.1847 69.3874 46.2274C66.7359 46.1296 64.0817 46.1296 61.4302 46.2274C60.835 44.0193 59.6012 42.0713 57.9413 40.5916L65.2207 25.8726L72.5731 40.8712ZM41.2168 4.54778H89.2043L77.8701 37.9757C77.3825 38.0925 76.903 38.241 76.4348 38.4204L65.2384 15.5801L54.0101 38.284C53.5207 38.116 53.0204 37.9811 52.5128 37.8804L41.2168 4.54778ZM87.6039 49.2369C87.6039 49.942 87.4987 50.623 87.3048 51.2661C86.845 52.7801 85.8901 54.0959 84.5933 55.0024C83.4146 55.8296 82.0093 56.2728 80.5693 56.2715C77.3213 56.2715 74.5814 54.0581 73.7756 51.0606C73.6157 50.4659 73.5346 49.8528 73.5347 49.2369C73.5347 48.2753 73.7289 47.3584 74.0797 46.5229C74.2607 46.0954 74.4835 45.6869 74.745 45.3033C76.011 43.4347 78.1472 42.2024 80.5693 42.2024C80.7915 42.2024 81.0104 42.2137 81.2276 42.2342C84.7991 42.5669 87.6042 45.5797 87.6042 49.2369H87.6039ZM92.1508 49.2369C92.1508 43.5828 88.0769 38.865 82.7111 37.8574L95.5466 0.000488281H34.8753L47.7306 37.9339C42.5512 39.0865 38.6661 43.7149 38.6661 49.2366C38.6661 53.3828 40.8572 57.0244 44.141 59.071C42.5615 61.4243 40.6886 63.6388 38.5421 65.6641C35.1378 68.8753 31.3456 71.3108 27.2572 72.9134C23.1389 70.3265 21.3982 65.448 23.2059 61.1983L23.3476 60.8652L23.6134 60.2402C28.1366 58.6624 31.3917 54.3575 31.3917 49.3035C31.3917 42.9174 26.1963 37.722 19.8105 37.722C13.4247 37.722 8.22862 42.9174 8.22862 49.3035C8.22862 52.5268 9.55376 55.4456 11.686 57.5474C11.2883 58.39 10.8847 59.2298 10.475 60.0666C8.52518 64.0707 6.31567 68.6092 5.47984 73.6493C3.82022 83.6587 6.49743 91.6603 13.0186 96.1796C16.9756 98.922 20.9943 100 25.0381 100C32.6523 100 40.3551 96.1749 47.889 92.4327C53.3146 89.7381 58.9252 86.9514 64.4671 85.5844C66.5292 85.076 68.6508 84.7699 70.8972 84.446C75.352 83.8033 79.9581 83.139 84.0384 80.776C88.7682 78.0364 92.0056 73.441 92.9211 68.1687C93.707 63.6424 92.7613 59.1089 90.4547 55.2639C91.5661 53.4501 92.1532 51.3638 92.1508 49.2366V49.2369Z" fill="white"/>
</svg>
