<svg width="100" height="100" viewBox="0 0 100 100" fill="none" xmlns="http://www.w3.org/2000/svg">
<path d="M0 50C0 22.3858 22.3858 0 50 0C77.6142 0 100 22.3858 100 50C100 77.6142 77.6142 100 50 100C22.3858 100 0 77.6142 0 50Z" fill="white"/>
<path d="M72.7847 25H48.7708C48.7708 27.875 49.9129 30.6323 51.9459 32.6652C53.9788 34.6982 56.7361 35.8403 59.6111 35.8403H64.0347V40.1111C64.0385 46.0926 68.8865 50.9406 74.868 50.9444V27.0833C74.868 25.9327 73.9353 25 72.7847 25Z" fill="#2684FF"/>
<path d="M60.9028 36.9653H36.8889C36.8927 42.9468 41.7407 47.7948 47.7222 47.7987H52.1458V52.0834C52.1535 58.0649 57.0046 62.9098 62.9861 62.9098V39.0487C62.9861 37.8981 62.0534 36.9653 60.9028 36.9653Z" fill="url(#paint0_linear_147648_726)"/>
<path d="M49.0139 48.9236H25C25 54.9105 29.8534 59.7639 35.8403 59.7639H40.2778V64.0347C40.2816 70.0108 45.1211 74.8565 51.0972 74.868V51.0069C51.0972 49.8563 50.1645 48.9236 49.0139 48.9236Z" fill="url(#paint1_linear_147648_726)"/>
<defs>
<linearGradient id="paint0_linear_147648_726" x1="57.1738" y1="31.9293" x2="47.0207" y2="42.5236" gradientUnits="userSpaceOnUse">
<stop offset="0.18" stop-color="#0052CC"/>
<stop offset="1" stop-color="#2684FF"/>
</linearGradient>
<linearGradient id="paint1_linear_147648_726" x1="785.061" y1="729.039" x2="348.864" y2="1160.72" gradientUnits="userSpaceOnUse">
<stop offset="0.18" stop-color="#0052CC"/>
<stop offset="1" stop-color="#2684FF"/>
</linearGradient>
</defs>
</svg>
