<svg width="100" height="100" viewBox="0 0 100 100" fill="none" xmlns="http://www.w3.org/2000/svg">
<path d="M81.2498 0H18.7498C8.39442 0 -0.000244141 8.39466 -0.000244141 18.75V81.25C-0.000244141 91.6053 8.39442 100 18.7498 100H81.2498C91.6051 100 99.9998 91.6053 99.9998 81.25V18.75C99.9998 8.39466 91.6051 0 81.2498 0Z" fill="#FAEBD7"/>
<path d="M15.5271 0.3125C11.699 0.996094 8.49585 2.63672 5.70288 5.35156C3.22241 7.75391 1.54272 10.6445 0.546631 14.2578L0.0974121 15.918V50V84.082L0.5271 85.7227C2.38257 92.6172 7.32397 97.5586 14.2576 99.4531L15.9177 99.9023H49.9998H84.0818L85.7419 99.4531C92.6169 97.5781 97.6169 92.5781 99.4529 85.7422L99.9021 84.082V50C99.9021 12.1484 99.9998 15.2148 98.613 11.7383C96.6013 6.67969 92.0115 2.46094 86.7185 0.800781C84.1208 0 84.1208 0 49.824 0.0195312C22.363 0.0390625 16.8357 0.078125 15.5271 0.3125ZM84.1404 5C84.9998 5.17578 86.4255 5.68359 87.4998 6.19141C89.0623 6.95312 89.6091 7.34375 91.1326 8.86719C92.656 10.3906 93.0466 10.9375 93.8083 12.5C95.4294 15.8594 95.3318 13.2227 95.2732 50.6836C95.1951 87.8516 95.3318 84.4336 93.7498 87.6172C92.4216 90.3516 89.4529 93.1055 86.6208 94.2773C84.0623 95.3516 85.3318 95.3125 49.9998 95.3125C14.6677 95.3125 15.9373 95.3516 13.3787 94.2773C10.5466 93.1055 7.57788 90.3516 6.24976 87.6172C4.66772 84.4336 4.80444 87.8516 4.72632 50.6836C4.66772 13.2031 4.57007 15.8203 6.19116 12.5C6.95288 10.9375 7.36304 10.3711 8.86694 8.86719C10.3904 7.34375 10.9373 6.95312 12.4998 6.19141C15.7615 4.60938 13.1443 4.72656 49.863 4.70703C78.8279 4.6875 82.8123 4.72656 84.1404 5Z" fill="#2F4F4F"/>
<path d="M34.1404 31.6797L34.0818 48.3398L29.9412 48.3984L25.781 48.4375V42.1875V35.9375H21.5818H17.3826V41.2695V46.582L20.3708 49.5703L23.3396 52.5391H29.9802H36.6208L39.5115 49.6484L42.3826 46.7773V30.8984V15.0391H38.281H34.1794L34.1404 31.6797Z" fill="#2F4F4F"/>
<path d="M53.7498 18.0273L50.781 20.9961V25.293V29.5898L57.031 35.8398L63.281 42.0898V45.2539V48.4375H61.3279H59.3748L55.2732 46.3867C53.0271 45.2539 51.0935 44.3359 50.9763 44.3359C50.8591 44.3359 50.781 44.8438 50.781 45.4688V46.582L53.7693 49.5703L56.738 52.5391H61.2302H65.7224L68.7107 49.5508L71.6794 46.582V42.2852V37.9883L65.4294 31.7383L59.1794 25.4883V22.3242V19.1406H61.2302H63.281L67.3826 21.1914C69.6287 22.3242 71.5232 23.2422 71.5818 23.2422C71.6404 23.2422 71.6794 22.7344 71.6794 22.1094V20.9961L68.6912 18.0078L65.7224 15.0391H61.2302H56.738L53.7498 18.0273Z" fill="#2F4F4F"/>
<path d="M16.406 73.4374V87.4999H24.2185H32.031V85.9374V84.3749H27.3435H22.656V71.8749V59.3749H19.531H16.406V73.4374Z" fill="#2F4F4F"/>
<path d="M38.281 60.9375V62.5H41.406H44.531V60.9375V59.375H41.406H38.281V60.9375Z" fill="#2F4F4F"/>
<path d="M75.781 62.4999V65.6249H74.2185H72.656V67.1874V68.7499H74.2185H75.781V75.9374V83.1054L77.988 85.3124L80.1755 87.4999H82.6755H85.156V85.9374V84.3749H83.5935H82.031V76.5624V68.7499H83.5935H85.156V67.1874V65.6249H83.5935H82.031V62.4999V59.3749H78.906H75.781V62.4999Z" fill="#2F4F4F"/>
<path d="M38.281 76.5624V87.4999H41.406H44.531V76.5624V65.6249H41.406H38.281V76.5624Z" fill="#2F4F4F"/>
<path d="M50.781 76.5624V87.4999H53.906H57.031V78.1249V68.7499H60.156H63.281V78.1249V87.4999H66.406H69.531V78.7499V70.0195L67.324 67.8124L65.1365 65.6249H57.949H50.781V76.5624Z" fill="#2F4F4F"/>
</svg>
