<svg width="100" height="100" viewBox="0 0 100 100" fill="none" xmlns="http://www.w3.org/2000/svg">
<path d="M0 50C0 22.3858 22.3858 0 50 0C77.6142 0 100 22.3858 100 50C100 77.6142 77.6142 100 50 100C22.3858 100 0 77.6142 0 50Z" fill="#E94543"/>
<path d="M73.321 41.6399C63.146 41.7716 61.441 37.8033 61.006 35.9383C60.4843 33.6966 60.6526 34.3666 59.3043 27.5099C57.7843 17.6166 51.8076 19.8866 51.8076 19.8866C47.2443 20.6499 40.5426 27.0883 39.0226 29.3699C36.741 31.6549 36.3643 33.8549 29.8926 30.8416C17.461 23.9866 18.4926 36.5016 18.4926 36.5016C19.896 45.9649 23.1643 50.0866 26.6226 53.3983C24.5743 62.1133 25.0876 67.5582 26.3043 72.8782C28.621 82.9949 34.916 78.3916 37.0793 76.8066C39.241 75.2183 44.066 70.1782 44.066 70.1782C44.066 70.1782 46.711 73.5849 53.4726 77.6366C65.5826 84.8932 68.131 78.5499 67.8426 73.3582C67.6076 69.1266 65.4193 60.3032 65.4193 60.3032C73.1076 58.7816 77.311 53.6549 77.311 53.6549C88.651 42.1216 73.321 41.6399 73.321 41.6399" fill="#A32025"/>
<path d="M72.6975 40.1173C62.6125 40.2473 60.9225 36.314 60.4925 34.4656C59.9741 32.244 60.1425 32.9073 58.8041 26.1123C57.2975 16.3073 51.3741 18.5556 51.3741 18.5556C46.8491 19.3123 40.2091 25.694 38.7025 27.9556C36.4408 30.2206 36.0658 32.4006 29.6525 29.4156C17.3308 22.619 18.3541 35.0256 18.3541 35.0256C19.7458 44.404 22.9841 48.4906 26.4125 51.7723C24.3808 60.4106 24.8875 65.809 26.0958 71.0806C28.3925 81.1073 34.6308 76.544 36.7741 74.974C38.9175 73.4006 43.7025 68.404 43.7025 68.404C43.7025 68.404 46.3225 71.7806 53.0241 75.7956C65.0275 82.989 67.5541 76.7006 67.2675 71.5573C67.0358 67.3623 64.8658 58.6156 64.8658 58.6156C72.4875 57.109 76.6508 52.0273 76.6508 52.0273C87.8925 40.594 72.6975 40.1173 72.6975 40.1173" fill="#F5D53A"/>
<path d="M32.6878 49.573C32.6878 49.573 34.4645 57.3247 42.0111 60.133C49.3945 62.8813 57.5961 55.5197 57.5961 55.5197C57.5961 55.5197 50.6345 65.8347 41.0528 62.443C33.6478 59.8213 32.6878 49.573 32.6878 49.573" fill="#764921"/>
<path d="M47.8798 42.0606C46.6765 46.5589 43.4948 49.6156 40.7748 48.8872C38.0548 48.1589 36.8265 43.9222 38.0315 39.4239C39.2331 34.9272 42.4165 31.8689 45.1365 32.5972C47.8565 33.3272 49.0865 37.5622 47.8798 42.0606" fill="white"/>
<path d="M57.4713 44.4745C56.2663 48.9729 53.0863 52.0295 50.3663 51.3012C47.6447 50.5729 46.4163 46.3362 47.6213 41.8379C48.8247 37.3412 52.0063 34.2829 54.7263 35.0112C57.4463 35.7412 58.6763 39.9762 57.4713 44.4745" fill="white"/>
<path d="M56.8675 41.1157C56.4925 43.4007 55.1092 45.0757 53.7775 44.8574C52.4458 44.6407 51.6675 42.6124 52.0408 40.3257C52.4142 38.0407 53.7958 36.3657 55.1292 36.5841C56.4625 36.8024 57.2408 38.8291 56.8675 41.1157" fill="#313638"/>
<path d="M47.0644 39.0837C46.6911 41.3687 45.3078 43.0437 43.9744 42.8271C42.6428 42.6087 41.8644 40.5804 42.2378 38.2954C42.6111 36.0104 43.9944 34.3337 45.3261 34.5521C46.6594 34.7704 47.4394 36.7971 47.0644 39.0837" fill="#313638"/>
<path d="M46.6411 37.9267C46.6411 38.5567 46.1945 39.07 45.6445 39.07C45.0961 39.07 44.6511 38.5567 44.6511 37.9267C44.6511 37.295 45.0961 36.7833 45.6445 36.7833C46.1945 36.7833 46.6411 37.295 46.6411 37.9267" fill="white"/>
<path d="M56.4443 39.8324C56.4443 40.4641 55.9976 40.9758 55.4493 40.9758C54.8993 40.9758 54.4543 40.4641 54.4543 39.8324C54.4543 39.2024 54.8993 38.6891 55.4493 38.6891C55.9976 38.6891 56.4443 39.2024 56.4443 39.8324" fill="white"/>
<path d="M34.859 43.2302C34.859 45.5269 33.124 47.3902 30.9856 47.3902C28.8456 47.3902 27.1123 45.5269 27.1123 43.2302C27.1123 40.9319 28.8456 39.0702 30.9856 39.0702C33.124 39.0702 34.859 40.9319 34.859 43.2302" fill="#EF7B1D"/>
<path d="M66.1073 51.0101C66.1073 53.3068 64.3723 55.1701 62.234 55.1701C60.094 55.1701 58.3607 53.3068 58.3607 51.0101C58.3607 48.7118 60.094 46.8501 62.234 46.8501C64.3723 46.8501 66.1073 48.7118 66.1073 51.0101" fill="#EF7B1D"/>
</svg>
