<svg width="100" height="100" viewBox="0 0 100 100" fill="none" xmlns="http://www.w3.org/2000/svg">
<path d="M0 50C0 22.3858 22.3858 0 50 0C77.6142 0 100 22.3858 100 50C100 77.6142 77.6142 100 50 100C22.3858 100 0 77.6142 0 50Z" fill="#FFE812"/>
<path d="M50 22.9167C31.5904 22.9167 16.6667 34.6838 16.6667 49.1988C16.6667 58.5829 22.9058 66.8173 32.291 71.4671C31.7804 73.2279 29.01 82.7952 28.8996 83.5469C28.8996 83.5469 28.8333 84.1115 29.199 84.3269C29.5648 84.5423 29.9948 84.375 29.9948 84.375C31.0435 84.2286 42.156 76.4227 44.0796 75.0673C46.001 75.3394 47.9796 75.4809 50 75.4809C68.4096 75.4809 83.3333 63.7142 83.3333 49.1988C83.3333 34.6838 68.4096 22.9167 50 22.9167Z" fill="#381F1F"/>
<path fill-rule="evenodd" clip-rule="evenodd" d="M31.5704 58.3735C30.5098 58.3735 29.6473 57.5498 29.6473 56.5369V45.1123H26.6467C25.606 45.1123 24.7596 44.2673 24.7596 43.2292C24.7596 42.191 25.6062 41.3463 26.6467 41.3463H36.4942C37.5348 41.3463 38.3812 42.191 38.3812 43.2292C38.3812 44.2673 37.5346 45.1123 36.4942 45.1123H33.4935V56.5369C33.4935 57.5498 32.631 58.3735 31.5704 58.3735ZM48.4331 58.3485C47.6312 58.3485 47.0179 58.0229 46.8329 57.4992L45.8806 55.0063L40.0165 55.0058L39.0637 57.5004C38.8794 58.0231 38.2662 58.3485 37.4644 58.3485C37.0425 58.349 36.6254 58.2583 36.2419 58.0831C35.7117 57.8385 35.2021 57.166 35.786 55.3523L40.386 43.2446C40.7102 42.3238 41.6944 41.375 42.9471 41.3465C44.2031 41.3748 45.1873 42.3238 45.5121 43.2465L50.1102 55.3488C50.6954 57.1667 50.1858 57.8396 49.6556 58.0833C49.2719 58.2583 48.855 58.3488 48.4331 58.3485ZM42.9485 46.1431L44.8694 51.5998H41.0277L42.9485 46.1431ZM53.205 58.0931C52.1885 58.0931 51.3621 57.3021 51.3621 56.3302V43.2694C51.3621 42.2088 52.2427 41.3463 53.3252 41.3463C54.4075 41.3463 55.2883 42.2088 55.2883 43.2694V54.5673H59.3748C60.3913 54.5673 61.2179 55.3583 61.2179 56.3302C61.2179 57.3021 60.3913 58.0931 59.3748 58.0931H53.205ZM61.9658 56.4254C61.9658 57.486 62.8283 58.3485 63.889 58.3485C64.399 58.3477 64.8879 58.1448 65.2485 57.7842C65.6092 57.4235 65.8121 56.9346 65.8127 56.4244V52.2285L66.48 51.5613L70.99 57.5369C71.1685 57.7754 71.4004 57.9688 71.6673 58.1017C71.934 58.2344 72.2281 58.3027 72.526 58.3015C72.944 58.3023 73.3504 58.166 73.6829 57.9131C73.885 57.7617 74.055 57.5717 74.1831 57.354C74.311 57.1363 74.3948 56.8952 74.429 56.645C74.465 56.3948 74.4508 56.1402 74.3873 55.8956C74.324 55.651 74.2127 55.4215 74.0598 55.2202L69.326 48.9492L73.7085 44.5673C74.0098 44.2658 74.1608 43.85 74.1329 43.3965C74.1052 42.9469 73.9044 42.514 73.5675 42.1773C73.2062 41.8165 72.7242 41.6094 72.2442 41.6094C71.8325 41.6094 71.4533 41.7613 71.1775 42.0373L65.8121 47.4027V43.2694C65.8121 42.2088 64.9496 41.3463 63.889 41.3463C62.8283 41.3463 61.9658 42.2088 61.9658 43.2694V56.4254Z" fill="#FFE812"/>
</svg>
