<svg width="100" height="100" viewBox="0 0 100 100" fill="none" xmlns="http://www.w3.org/2000/svg">
<path d="M50 100C77.6142 100 100 77.6142 100 50C100 22.3858 77.6142 0 50 0C22.3858 0 0 22.3858 0 50C0 77.6142 22.3858 100 50 100Z" fill="#2BDE73"/>
<path d="M44.5785 42.0396L53.7481 28.7544C55.4818 26.2515 57.7195 25 60.4636 25C62.7019 25 64.6383 25.794 66.2761 27.3824C67.9122 28.9709 68.7303 30.8722 68.7303 33.0864C68.7303 34.7231 68.2979 36.1674 67.4311 37.4189L59.1634 49.4406L69.2722 62.2567C70.2831 63.5323 70.7883 65.0249 70.7883 66.7333C70.7883 68.9963 69.9949 70.9387 68.4059 72.5633C66.8174 74.1885 64.8909 75 62.6296 75C60.1502 75 58.2615 74.1945 56.9612 72.5814L44.5785 57.1303V65.6506C44.5785 68.0818 44.1577 69.9705 43.3149 71.3184C41.7747 73.7726 39.5364 75 36.6006 75C33.9288 75 31.8582 74.0976 30.3908 72.2927C29.0188 70.6319 28.3333 68.4292 28.3333 65.6868V34.0973C28.3333 31.4979 29.0303 29.3566 30.427 27.6717C31.8949 25.8909 33.9162 25 36.4915 25C38.9468 25 40.9922 25.8909 42.6289 27.6717C43.5434 28.658 44.1209 29.6569 44.3615 30.6678C44.5061 31.2941 44.5785 32.4607 44.5785 34.1697V42.0396" fill="white"/>
</svg>
