<svg width="102" height="100" viewBox="0 0 102 100" fill="none" xmlns="http://www.w3.org/2000/svg">
<path d="M95.8535 63.8084C95.8535 68.5115 92.0054 72.3596 87.3023 72.3596H15.4291C10.726 72.3596 6.87793 68.5115 6.87793 63.8084V36.5756C6.87793 31.8724 10.726 28.0244 15.4291 28.0244H87.3023C92.0054 28.0244 95.8535 31.8724 95.8535 36.5756V63.8084Z" fill="url(#paint0_linear_755_13372)"/>
<path d="M80.8182 49.6103C84.5747 50.9245 86.4522 53.1763 86.4522 56.3622C86.4522 58.4592 85.6736 60.1237 84.1198 61.3548C82.5675 62.5867 80.3532 63.3512 77.471 63.3512C74.5887 63.3512 71.9227 62.5161 69.4672 61.1451C69.4937 60.4181 69.6859 59.6204 70.0387 58.7546C70.3914 57.8887 70.8089 57.2008 71.2873 56.6983C73.5441 57.8711 75.5079 58.4585 77.1749 58.4585C77.9628 58.4585 78.5723 58.3263 78.9966 58.06C79.4217 57.7947 79.633 57.4387 79.633 56.9912C79.633 56.1503 78.9817 55.5213 77.6832 55.1022L75.3508 54.2212C71.8223 52.9352 70.0579 50.8399 70.0579 47.9293C70.0579 45.804 70.7991 44.1195 72.2814 42.8734C73.7638 41.629 75.7617 40.5576 78.2739 40.5576C79.5167 40.5576 80.885 40.7323 82.3822 41.0817C83.8778 41.432 85.1065 42.2946 86.0664 42.7686C86.123 43.5521 85.9657 44.4122 85.6006 45.3488C85.2329 46.2862 84.7822 46.95 84.2439 47.3419C81.8708 46.2788 79.8961 45.7473 78.3139 45.7473C77.7475 45.7473 77.3208 45.8729 77.0213 46.1258C76.7251 46.3779 76.5795 46.6988 76.5795 47.0907C76.5795 47.762 77.1152 48.2927 78.189 48.6845L80.8182 49.6103Z" fill="#F6F6F6"/>
<path d="M62.0557 49.6103C65.8122 50.9245 67.6888 53.1763 67.6888 56.3622C67.6888 58.4592 66.9102 60.1237 65.3589 61.3548C63.8051 62.5867 61.5899 63.3512 58.7085 63.3512C55.8288 63.3512 53.1594 62.5161 50.7047 61.1451C50.7313 60.4181 50.9235 59.6204 51.2769 58.7546C51.6297 57.8887 52.0455 57.2008 52.5256 56.6983C54.7849 57.8711 56.7479 58.4585 58.414 58.4585C59.2026 58.4585 59.8123 58.3263 60.2349 58.06C60.6584 57.7947 60.8713 57.4387 60.8713 56.9912C60.8713 56.1503 60.22 55.5213 58.9215 55.1022L56.5907 54.2212C53.0613 52.9352 51.2962 50.8399 51.2962 47.9293C51.2962 45.804 52.0374 44.1195 53.5213 42.8734C55.0028 41.629 56.9999 40.5576 59.512 40.5576C60.754 40.5576 62.1257 40.7323 63.6196 41.0817C65.1169 41.432 66.3439 42.2946 67.3046 42.7686C67.3611 43.5521 67.2039 44.4122 66.8388 45.3488C66.4719 46.2862 66.0203 46.95 65.483 47.3419C63.1089 46.2788 61.1342 45.7473 59.5513 45.7473C58.9856 45.7473 58.5573 45.8729 58.2594 46.1258C57.9641 46.3779 57.8169 46.6988 57.8169 47.0907C57.8169 47.762 58.3534 48.2927 59.4273 48.6845L62.0557 49.6103Z" fill="#F6F6F6"/>
<path d="M48.373 49.9063C48.373 48.6203 48.1684 47.4316 47.7592 46.3402C47.3508 45.2489 46.7643 44.313 46.0023 43.5295C45.2395 42.7459 44.3154 42.1311 43.229 41.6836C42.1409 41.2369 40.9198 40.5631 39.5648 40.5631C37.9551 40.5631 36.5503 41.2918 35.3508 41.8516C34.1513 42.4107 33.1631 43.1792 32.3869 44.1583C31.6092 45.1381 31.0302 46.2911 30.6493 47.6195C30.2683 48.9479 30.0778 50.3952 30.0778 51.9607C30.0778 53.5812 30.2325 55.08 30.5436 56.45C30.8539 57.8183 31.3836 59.0062 32.1316 60.0144C32.8802 61.0209 33.8542 61.8037 35.0545 62.3618C36.2549 62.9209 37.7446 63.3501 39.5231 63.3501C42.798 63.3501 45.5646 62.4018 47.8238 60.8089C47.6001 59.1884 47.0228 57.8999 46.0953 56.9491C44.9416 57.3824 43.9209 57.6927 43.0359 57.8833C42.15 58.0714 41.3689 58.1662 40.6943 58.1662C39.3442 58.1662 38.3727 57.8226 37.783 57.129C37.1939 56.4377 36.8708 55.62 36.8136 54.3781H47.8255C48.1892 53.2019 48.373 51.6124 48.373 49.9063ZM36.7716 50.1967C36.8555 48.7692 37.116 47.242 37.5494 46.6132C37.9837 45.9836 38.6483 45.6691 39.5457 45.6691C40.47 45.6691 41.1636 46.0035 41.6253 46.6748C42.0879 47.3461 42.319 48.6986 42.319 49.7333L42.3198 50.1967H36.7716Z" fill="#F6F6F6"/>
<path d="M98.0703 52.9874C96.8734 54.033 96.1788 55.5378 96.1788 57.5051V64.8317C96.1788 67.2673 95.43 69.1198 93.739 70.3933C92.0495 71.6652 90.0798 72.2948 87.8314 72.3555L86.4989 72.3455V68.6946C87.6734 68.3519 88.1558 67.9536 88.6233 67.501C89.4701 66.7358 90.1189 65.4905 90.1189 63.7611V57.8461C90.1505 55.8356 90.3052 54.2601 91.0372 53.1222C91.7718 51.9842 93.2016 50.9893 95.3269 50.1301C92.9795 49.0554 91.4031 47.652 90.5996 45.921C90.1272 44.8929 90.118 43.5055 90.118 41.7602V36.3359C90.118 34.5441 89.5315 33.289 88.8103 32.5727C88.3413 32.1052 87.7955 31.7318 86.4971 31.4498V28.0227C88.0851 28.0393 88.8869 28.0211 89.8119 28.0227C91.236 28.011 92.4289 28.7897 93.4669 29.6006C94.5974 30.4898 95.4009 31.6919 95.8717 33.2049C96.1395 34.0791 96.1778 34.9143 96.1778 35.7095V41.9831C96.1778 44.199 96.8325 45.8461 97.9513 46.9216C98.5819 47.5455 99.4719 48.1161 101 48.6311V51.4651C99.6459 51.8395 98.7957 52.3469 98.0703 52.9874Z" fill="#F6F6F6" stroke="#404040" stroke-width="0.538843" stroke-miterlimit="10"/>
<path d="M13.8374 28.0245V28.0294C13.3824 28.0269 12.9706 28.0252 12.6413 28.0261C11.2163 28.0136 10.0236 28.7922 8.98635 29.604C7.85424 30.4932 6.88523 31.6537 6.58165 33.2083C6.40862 34.12 6.44523 34.9168 6.44523 35.7129V41.9866C6.44523 44.2017 5.62089 45.8479 4.50291 46.9251C3.87315 47.5489 2.5289 48.1187 1 48.6336V51.4675C2.35503 51.841 3.65943 52.3467 4.38303 52.9889C5.58083 54.0354 6.44419 55.541 6.44419 57.5082V64.8348C6.44419 67.2688 7.02488 69.1229 8.71425 70.3947C10.4037 71.6657 12.3726 72.2979 14.621 72.3594L16.1258 72.3494V68.696C14.952 68.3525 14.3 67.954 13.83 67.5031C12.984 66.737 12.5048 65.4926 12.5048 63.7641V57.8483C12.4724 55.8362 12.148 54.2623 11.4152 53.1235C10.6824 51.9872 9.25248 50.9907 7.12468 50.1322C9.473 49.0567 11.0484 47.6542 11.852 45.924C12.3253 44.8951 12.505 43.5076 12.505 41.7625V36.3382C12.505 34.5464 12.9208 33.2912 13.6412 32.5742C14.0322 32.185 14.7275 31.8647 15.6934 31.6052L17.2206 31.6159C17.2206 30.3014 17.2206 29.4785 17.2206 28.0242H13.8376V28.0245H13.8374Z" fill="#F6F6F6" stroke="#404040" stroke-width="0.538843" stroke-miterlimit="10"/>
<path d="M27.9177 57.7487H26.774C25.5305 57.7487 25.0622 57.0949 25.0622 55.7815V31.6429C25.0622 30.1915 24.643 29.1724 24.1063 28.5852C23.5698 27.9996 22.6382 28.0055 21.3114 28.0055H18.7286L18.4241 27.9996V28.0245L18.4216 31.6172V56.9495C18.4216 58.9641 18.8742 60.4382 19.6793 61.3764C20.4853 62.313 21.847 62.7805 23.7669 62.7805C25.0945 62.7805 26.6051 62.6408 28.2986 62.3604C28.3835 62.0775 28.4259 61.472 28.4259 60.5429C28.4259 59.6112 28.2564 58.682 27.9177 57.7487Z" fill="#F6F6F6"/>
<defs>
<linearGradient id="paint0_linear_755_13372" x1="51.3657" y1="28.0244" x2="51.3657" y2="72.3596" gradientUnits="userSpaceOnUse">
<stop offset="0.1497" stop-color="#2A4F84"/>
<stop offset="0.3884" stop-color="#294E82"/>
<stop offset="1" stop-color="#172E4E"/>
</linearGradient>
</defs>
</svg>
