<svg width="100" height="100" viewBox="0 0 100 100" fill="none" xmlns="http://www.w3.org/2000/svg">
<path d="M17.7067 1.00049H82.2933C92.0827 1.00049 100 8.91781 100 18.7072V80.7977C100 90.5871 92.0827 98.5044 82.2933 98.5044H17.7067C7.91732 98.5044 0 90.5871 0 80.7977V18.7072C0 8.91781 7.91732 1.00049 17.7067 1.00049Z" fill="#001E36"/>
<path d="M52.4961 69.9162H26.092C25.624 69.9162 25.429 69.6822 25.429 69.1752V26.5855C25.39 26.3125 25.585 26.0395 25.897 26.0005C25.936 26.0005 25.975 26.0005 26.053 26.0005H34.2044C34.3994 25.9615 34.6724 26.1175 34.6724 26.3515C34.6724 26.3905 34.6724 26.4295 34.6724 26.4685V61.4529H53.9392C54.3682 61.4529 54.4852 61.6479 54.4072 62.0379L53.1981 69.2922C53.1981 69.4872 53.0811 69.6822 52.9641 69.7992C52.8081 69.8772 52.6521 69.9162 52.4961 69.9162Z" fill="#31A8FF"/>
<path d="M59.1654 36.5699H66.4587C66.8877 36.5699 67.1997 36.8429 67.3167 37.2329C67.4727 37.5059 67.5897 37.8569 67.6677 38.208C67.7457 38.637 67.8237 39.066 67.8627 39.495C67.9017 39.963 67.9407 40.47 67.9407 40.9771C69.1888 39.534 70.7098 38.325 72.3869 37.3889C74.298 36.3359 76.4431 35.8289 78.5882 35.9069C78.8612 35.8679 79.1342 36.0629 79.1732 36.3749C79.1732 36.4139 79.1732 36.4529 79.1732 36.5309V44.6822C79.1732 45.0332 78.9782 45.1502 78.5101 45.1502C75.819 44.9942 73.0889 45.5012 70.6318 46.5543C69.8128 46.9443 68.9938 47.4123 68.3697 48.1143V69.3702C68.3697 69.7992 68.2137 69.9552 67.8237 69.9552H59.7114C59.3604 69.9942 59.0874 69.7992 59.0484 69.4482C59.0484 69.4092 59.0484 69.3312 59.0484 69.2922V46.2033C59.0484 45.1892 59.0484 44.1752 59.0094 43.0831C58.9704 41.9911 58.9704 40.8991 58.9314 39.846C58.8924 38.91 58.8144 38.0129 58.6974 37.0769C58.6584 36.8819 58.7754 36.6479 58.9704 36.6089C59.0484 36.5309 59.0874 36.5309 59.1654 36.5699Z" fill="#31A8FF"/>
</svg>
