<svg width="100" height="100" viewBox="0 0 100 100" fill="none" xmlns="http://www.w3.org/2000/svg">
<path d="M0 25C0 11.1929 11.1929 0 25 0H75C88.8071 0 100 11.1929 100 25V75C100 88.8071 88.8071 100 75 100H25C11.1929 100 0 88.8071 0 75V25Z" fill="#06C755"/>
<path d="M50.8331 23.3333C33.833 23.3333 20 34.4769 20 48.1744C20 60.4541 30.9693 70.7381 45.7864 72.6828C46.7907 72.8976 48.1572 73.34 48.503 74.1921C48.8139 74.9661 48.7064 76.1785 48.6023 76.9601C48.6023 76.9601 48.2406 79.1202 48.1626 79.5802C48.0284 80.3543 47.5431 82.607 50.8331 81.2304C54.1242 79.8537 68.5902 70.8502 75.059 63.458C79.5264 58.5933 81.6667 53.6564 81.6667 48.1744C81.6667 34.4769 67.8354 23.3333 50.8331 23.3333Z" fill="white"/>
<path d="M42.2623 41.6666C41.9337 41.6666 41.6667 41.9422 41.6667 42.2809V56.0522C41.6667 56.3915 41.9337 56.6666 42.2623 56.6666H44.405C44.7336 56.6666 45 56.3915 45 56.0522V42.2809C45 41.9422 44.7336 41.6666 44.405 41.6666H42.2623Z" fill="#06C755"/>
<path d="M59.3737 41.6666H57.1179C56.7721 41.6666 56.4916 41.9422 56.4916 42.2809V50.4625L50.0703 41.9398C50.0555 41.918 50.0389 41.8974 50.0216 41.8774L50.0173 41.8738C50.0049 41.8598 49.9926 41.8477 49.9797 41.8356C49.976 41.832 49.9723 41.8289 49.968 41.8253C49.9575 41.8156 49.9464 41.8065 49.9347 41.798C49.9297 41.7932 49.9242 41.7896 49.9186 41.7853C49.9075 41.778 49.8971 41.7702 49.886 41.7635C49.8798 41.7593 49.8736 41.7556 49.8669 41.7526C49.8558 41.7459 49.8447 41.7393 49.8336 41.7338C49.8268 41.7308 49.8206 41.7272 49.8138 41.7247C49.8021 41.7193 49.7904 41.7138 49.7781 41.7096C49.7707 41.7072 49.7645 41.7047 49.7577 41.7023C49.7454 41.6981 49.7331 41.6938 49.7201 41.6908C49.7133 41.6884 49.7059 41.6872 49.6986 41.6847C49.6862 41.6823 49.6745 41.6793 49.6628 41.6769C49.6542 41.6757 49.6449 41.6744 49.6363 41.6738C49.6252 41.6714 49.6141 41.6708 49.603 41.6696C49.5925 41.6684 49.582 41.6684 49.5709 41.6678C49.5629 41.6678 49.5568 41.6666 49.5487 41.6666H47.2936C46.9478 41.6666 46.6667 41.9422 46.6667 42.2809V56.0522C46.6667 56.3915 46.9478 56.6666 47.2936 56.6666H49.5487C49.8952 56.6666 50.1757 56.3915 50.1757 56.0522V47.873L56.605 56.4066C56.6494 56.4684 56.7043 56.5187 56.7641 56.5587C56.7659 56.5599 56.7684 56.5618 56.7702 56.5636C56.7832 56.5714 56.7961 56.5793 56.8091 56.5866C56.8153 56.5902 56.8208 56.5927 56.827 56.5957C56.8362 56.6011 56.8467 56.606 56.8566 56.6102C56.867 56.6145 56.8763 56.6187 56.8874 56.6229C56.8935 56.6254 56.8997 56.6278 56.9059 56.6296C56.9207 56.6351 56.9342 56.6393 56.9484 56.6435C56.9515 56.6435 56.9546 56.6448 56.9577 56.6454C57.0088 56.6587 57.0625 56.6666 57.1179 56.6666H59.3737C59.7201 56.6666 60 56.3915 60 56.0522V42.2809C60 41.9422 59.7201 41.6666 59.3737 41.6666Z" fill="#06C755"/>
<path d="M39.3909 53.2181H33.4186V42.2821C33.4186 41.9422 33.1453 41.6666 32.8089 41.6666H30.6103C30.2733 41.6666 30 41.9422 30 42.2821V56.0504V56.0516C30 56.217 30.0655 56.3667 30.1706 56.4769C30.173 56.48 30.1754 56.483 30.179 56.486C30.182 56.4891 30.185 56.4915 30.188 56.4945C30.298 56.6011 30.4457 56.6666 30.6097 56.6666H39.3909C39.7279 56.6666 40 56.3903 40 56.0504V53.8337C40 53.4938 39.7279 53.2181 39.3909 53.2181Z" fill="#06C755"/>
<path d="M71.0576 45.115C71.3946 45.115 71.6667 44.84 71.6667 44.4995V42.2827C71.6667 41.9428 71.3946 41.6666 71.0576 41.6666H62.277H62.2758C62.1112 41.6666 61.9628 41.7332 61.8529 41.8404C61.8505 41.8429 61.8475 41.8447 61.8457 41.8471C61.8421 41.8507 61.8391 41.8544 61.8361 41.858C61.7316 41.9683 61.6667 42.1173 61.6667 42.2821V42.2827V56.051V56.0516C61.6667 56.217 61.7322 56.3667 61.8373 56.4769C61.8397 56.48 61.8427 56.4836 61.8457 56.486C61.8481 56.4891 61.8517 56.4921 61.8547 56.4945C61.964 56.6005 62.1124 56.6666 62.2758 56.6666H71.0576C71.3946 56.6666 71.6667 56.3903 71.6667 56.051V53.8337C71.6667 53.4944 71.3946 53.2181 71.0576 53.2181H65.0859V50.8905H71.0576C71.3946 50.8905 71.6667 50.6148 71.6667 50.275V48.0582C71.6667 47.7183 71.3946 47.442 71.0576 47.442H65.0859V45.115H71.0576Z" fill="#06C755"/>
</svg>
