<svg width="100" height="100" viewBox="0 0 100 100" fill="none" xmlns="http://www.w3.org/2000/svg">
<path d="M0 34C0 29.5817 7.44973 26 16.6394 26H81.2772C90.4669 26 97.9167 29.5817 97.9167 34V66C97.9167 70.4183 90.4669 74 81.2772 74H16.6394C7.44973 74 0 70.4183 0 66V34Z" fill="#0077B5"/>
<path d="M68.9245 67.2526H83.669V52.9553C83.669 45.8942 74.7783 43.4858 66.5509 43.4858C58.9434 43.4858 53.7754 45.9154 52.3486 47.3385V44.1356H38.1687V67.2526H52.9132V54.7193C52.9132 51.3775 57.2019 49.7523 61.5771 49.7523C65.7153 49.7523 68.9245 50.9012 68.9245 54.6265V67.2526Z" fill="white"/>
<path d="M13.4384 36.7377C13.4384 39.1511 17.2442 40.9148 21.9388 40.9148C26.6341 40.9148 30.4399 39.1511 30.4399 36.7377C30.4399 34.3246 26.6341 32.5589 21.9388 32.5589C17.2442 32.5589 13.4384 34.3246 13.4384 36.7377Z" fill="white"/>
<path d="M14.5669 67.2347H29.3107V44.1177H14.5669V67.2347Z" fill="white"/>
</svg>
