<svg width="100" height="100" viewBox="0 0 100 100" fill="none" xmlns="http://www.w3.org/2000/svg">
<path fill-rule="evenodd" clip-rule="evenodd" d="M39.0941 11.2698C41.898 6.7876 45.6173 2.94747 50.0057 -0.000366211C54.3378 2.87867 58.009 6.64584 60.7776 11.0488C68.0868 21.1849 71.7725 33.4829 71.2453 45.9684C73.5175 47.801 75.8587 49.5605 78.0936 51.4284C81.2978 54.2846 82.7884 58.5959 82.0358 62.8197C80.956 68.0253 79.9219 73.2413 78.7816 78.4345C78.0248 80.7047 75.5669 81.9327 73.2945 81.1737C72.8984 81.0403 72.5253 80.8526 72.1812 80.6129C68.514 77.6673 64.9409 74.6194 61.2864 71.6713C58.4655 74.3127 54.8172 75.8972 50.9625 76.1536C46.5137 76.3704 42.1629 74.8028 38.8751 71.7965C36.2484 73.729 33.8071 76.0515 31.2387 78.1258C30.113 79.2308 28.86 80.1959 27.5028 81.0027C25.2701 81.868 22.7579 80.761 21.8907 78.5281C21.849 78.4198 21.8114 78.3113 21.7781 78.201C20.6044 73.1224 19.3765 68.0606 18.2403 62.976C17.3563 58.5605 18.9491 54.0116 22.3973 51.1138C24.3924 49.5042 26.4125 47.924 28.4472 46.3605C29.0122 46.0727 28.7287 45.4265 28.7579 44.9282C28.4868 32.8907 32.1206 21.0869 39.1128 11.2865M42.7111 27.0055C40.0552 30.4266 40.3741 35.2966 43.4596 38.3403C47.0098 41.8053 52.6388 41.9221 56.3287 38.6051C58.9534 36.239 59.856 32.5031 58.5989 29.1988C57.3252 26.0195 54.3711 23.8222 50.9583 23.5178C47.7937 23.1884 44.6813 24.5038 42.7091 27.0013" fill="#754ABC"/>
<path d="M37.8268 82.4363C37.9123 81.248 38.9442 80.3536 40.1326 80.437C40.4453 80.4599 40.7497 80.5495 41.0248 80.7018C46.6974 83.4453 53.3144 83.4453 58.9892 80.7018C60.0442 80.1243 61.368 80.5121 61.9452 81.5691C62.0724 81.7984 62.1558 82.0485 62.1914 82.3092C62.2081 85.4882 62.2081 88.6676 62.1914 91.8469C62.0724 93.029 61.0177 93.8921 59.8356 93.7711C59.4749 93.7357 59.1309 93.6085 58.8329 93.4042C57.88 92.5954 57.0212 91.6863 56.1059 90.8357C54.6509 93.5563 53.2873 96.3144 51.8238 99.0267C51.1589 100.03 49.8057 100.301 48.803 99.6356C48.5695 99.4793 48.3674 99.2811 48.2088 99.0496C46.7412 96.3311 45.384 93.5563 43.9019 90.8399C42.999 91.6948 42.138 92.6016 41.1833 93.4084C40.1993 94.0775 38.8588 93.8211 38.1895 92.8371C37.9873 92.5389 37.8622 92.1929 37.8268 91.8322C37.8018 88.6967 37.8268 85.5592 37.8268 82.4237" fill="#754ABC"/>
<path d="M49.9362 36.6377C52.3443 36.694 54.3392 34.7864 54.3955 32.3805V32.3534C54.3559 29.9475 52.3734 28.0275 49.9675 28.0651L49.9362 28.0671C47.5305 28.0131 45.5353 29.9206 45.4833 32.3263L45.4811 32.3534C45.5229 34.7613 47.5076 36.6793 49.9133 36.6377H49.9362Z" fill="#754ABC"/>
</svg>
