<svg width="100" height="100" viewBox="0 0 100 100" fill="none" xmlns="http://www.w3.org/2000/svg">
<path d="M93.1626 27.611C98.5305 38.1464 99.8854 50.2739 96.9748 61.7341C94.0642 73.1943 87.0867 83.2056 77.3422 89.9028C67.5976 96.5999 55.7507 99.5262 44.0087 98.1364C32.2666 96.7466 21.4302 91.1355 13.5184 82.3485C5.60657 73.5616 1.15895 62.198 1.00418 50.375C0.849406 38.5519 4.99803 27.0758 12.6771 18.0847C20.3562 9.09367 31.042 3.20084 42.7437 1.50414C54.4453 -0.192557 66.3648 2.42261 76.2813 8.86239" stroke="#808080" stroke-width="1.1309" stroke-dasharray="4.25 4.25"/>
<path d="M49.7372 87.4333C70.5562 87.4333 87.4333 70.5562 87.4333 49.7372C87.4333 28.9182 70.5562 12.041 49.7372 12.041C28.9182 12.041 12.041 28.9182 12.041 49.7372C12.041 70.5562 28.9182 87.4333 49.7372 87.4333Z" fill="#000080"/>
<path d="M65.3515 45.1638C71.4493 45.1638 76.3925 40.2205 76.3925 34.1228C76.3925 28.025 71.4493 23.0818 65.3515 23.0818C59.2538 23.0818 54.3105 28.025 54.3105 34.1228C54.3105 40.2205 59.2538 45.1638 65.3515 45.1638Z" fill="white"/>
<path d="M87.4333 23.0821C93.5311 23.0821 98.4744 18.1389 98.4744 12.041C98.4744 5.9432 93.5311 0.999939 87.4333 0.999939C81.3355 0.999939 76.3922 5.9432 76.3922 12.041C76.3922 18.1389 81.3355 23.0821 87.4333 23.0821Z" fill="#000080"/>
<path d="M39.5255 68.5848V65.8028H27.3118V43.8521H24.1566V68.5848H39.5255Z" fill="white"/>
<path d="M56.4816 68.5847V50.807H53.6657V60.6119C53.6657 64.2421 51.7658 66.617 48.8142 66.617C46.575 66.617 45.15 65.2599 45.15 63.1225V50.807H42.3341V64.2421C42.3341 67.1937 44.5394 69.0936 47.9999 69.0936C50.6123 69.0936 52.2747 68.1776 53.9371 65.8366V68.5847H56.4816Z" fill="white"/>
<path d="M77.1648 68.5169V66.3795C76.8595 66.4474 76.7238 66.4474 76.5541 66.4474C75.5703 66.4474 75.0274 65.9385 75.0274 65.0564V55.1497C75.0274 51.9945 72.7204 50.2982 68.3438 50.2982C64.0351 50.2982 61.3888 51.9606 61.2192 56.0657H64.069C64.3065 53.8944 65.5957 52.9105 68.242 52.9105C70.7866 52.9105 72.2115 53.8605 72.2115 55.5568V56.3032C72.2115 57.4907 71.499 57.9996 69.2598 58.271C65.2565 58.7799 64.6458 58.9156 63.5601 59.3566C61.4906 60.2048 60.4388 61.7994 60.4388 63.9707C60.4388 67.1938 62.678 69.0937 66.2743 69.0937C68.5474 69.0937 70.7526 68.1437 72.3133 66.4813C72.6186 67.8384 73.84 68.8223 75.231 68.8223C75.8077 68.8223 76.2488 68.7544 77.1648 68.5169ZM72.2115 62.444C72.2115 64.9885 69.633 66.617 66.885 66.617C64.6797 66.617 63.3905 65.8367 63.3905 63.9029C63.3905 62.0369 64.6458 61.2226 67.6653 60.7816C70.6508 60.3745 71.2615 60.2387 72.2115 59.7977V62.444Z" fill="white"/>
</svg>
