<svg width="100" height="100" viewBox="0 0 100 100" fill="none" xmlns="http://www.w3.org/2000/svg">
<path d="M0.00012207 39.9996C0.00012207 25.9986 0.00012207 18.9976 2.72512 13.6496C5.12192 8.94579 8.94628 5.12143 13.6501 2.72463C18.9981 -0.000366211 26.0001 -0.000366211 40.0001 -0.000366211H60.0001C74.0011 -0.000366211 81.0021 -0.000366211 86.3501 2.72463C91.054 5.12143 94.8783 8.94579 97.2751 13.6496C100 18.9976 100 25.9996 100 39.9996V59.9996C100 74.0006 100 81.0016 97.2751 86.3496C94.8783 91.0535 91.054 94.8778 86.3501 97.2746C81.0021 99.9996 74.0001 99.9996 60.0001 99.9996H40.0001C25.9991 99.9996 18.9981 99.9996 13.6501 97.2746C8.94628 94.8778 5.12192 91.0535 2.72512 86.3496C0.00012207 81.0016 0.00012207 73.9996 0.00012207 59.9996V39.9996Z" fill="#179DE3"/>
<path d="M77.4801 34.6187C75.2169 33.7787 73.1616 32.4602 71.4546 30.7532C69.7475 29.0462 68.4291 26.9909 67.5891 24.7277C66.7483 26.9903 65.4294 29.045 63.7225 30.7517C62.0156 32.4584 59.9608 33.777 57.6981 34.6177C59.9606 35.459 62.0152 36.7781 63.7219 38.4851C65.4286 40.1921 66.7473 42.247 67.5881 44.5097C68.429 42.2468 69.7479 40.1918 71.455 38.4849C73.1621 36.778 75.2172 35.4593 77.4801 34.6187Z" fill="white"/>
<path d="M50.1221 24.9996H25.1221V74.9996H75.1121V49.9996L50.1221 74.9896V24.9996Z" fill="white"/>
</svg>
