<svg width="100" height="100" viewBox="0 0 100 100" fill="none" xmlns="http://www.w3.org/2000/svg">
<path d="M0 50C0 22.3858 22.3858 0 50 0C77.6142 0 100 22.3858 100 50C100 77.6142 77.6142 100 50 100C22.3858 100 0 77.6142 0 50Z" fill="#005FF9"/>
<path fill-rule="evenodd" clip-rule="evenodd" d="M20.8333 49.9173C20.8333 33.8804 33.9172 20.8334 49.9996 20.8334C66.082 20.8334 79.166 33.8804 79.166 49.9173C79.166 52.1892 78.9764 54.0283 78.5516 55.8744L78.5454 55.905C78.5443 55.9105 78.3335 56.7614 78.2171 57.1327C77.4963 59.4316 76.1912 61.3464 74.4427 62.6699C72.7471 63.9536 70.6447 64.6607 68.523 64.6607C68.2609 64.6607 67.9969 64.6501 67.7384 64.6293C64.7254 64.3881 62.0762 62.8071 60.4517 60.286C57.6577 63.0875 53.9508 64.6288 49.9996 64.6288C41.8649 64.6288 35.2467 58.0293 35.2467 49.9173C35.2467 41.8055 41.8649 35.2062 49.9996 35.2062C58.1343 35.2062 64.7524 41.8055 64.7524 49.9173V54.6596C64.7647 57.4266 66.6268 58.5577 68.2175 58.6857C69.8003 58.8075 71.9066 57.8882 72.6404 54.8876C73.0023 53.2421 73.1862 51.5694 73.1862 49.9173C73.1862 37.1682 62.7847 26.7961 49.9996 26.7961C37.2145 26.7961 26.8131 37.1682 26.8131 49.9173C26.8131 62.6664 37.2145 73.0386 49.9996 73.0386C54.45 73.0386 58.7783 71.7711 62.5165 69.3731L62.5834 69.3301L66.5127 73.8854L66.4284 73.943C61.5727 77.2523 55.8916 79.0015 49.9996 79.0015C33.9172 79.0015 20.8333 65.9544 20.8333 49.9173ZM49.9996 58.6658C54.837 58.6658 58.7727 54.7413 58.7727 49.9173C58.7727 45.0935 54.837 41.1691 49.9996 41.1691C45.162 41.1691 41.2265 45.0935 41.2265 49.9173C41.2265 54.7413 45.162 58.6658 49.9996 58.6658Z" fill="#FF9E00"/>
</svg>
