<svg width="100" height="100" viewBox="0 0 100 100" fill="none" xmlns="http://www.w3.org/2000/svg">
<path d="M50 100C77.6142 100 100 77.6142 100 50C100 22.3858 77.6142 0 50 0C22.3858 0 0 22.3858 0 50C0 77.6142 22.3858 100 50 100Z" fill="white"/>
<path fill-rule="evenodd" clip-rule="evenodd" d="M77.4496 62.8753L77.4441 62.895C77.2624 63.5598 72.767 80.005 55.8847 80C41.0571 79.9954 34.029 66.9562 34.029 66.9562C32.9484 67.0172 31.9057 66.8435 30.9439 66.4861C26.5937 64.8692 24.5064 59.834 26.0074 55.6096L23.6165 53.761C14.3548 46.6231 40.5915 13.9594 49.8692 21.3505C49.9161 21.3878 52.0839 23.1532 52.0839 23.1532C55.4151 21.1065 58.7142 20.0001 61.396 20C63.3004 19.9998 64.8932 20.5576 65.9658 21.7327C68.3739 24.3705 67.5085 29.4078 64.2202 34.5077C64.9275 35.187 65.5136 36.1102 65.932 37.0267C66.9774 37.8428 67.655 39.0834 67.9916 40.7968C68.1998 41.855 68.3164 43.1626 68.4191 44.316C68.5014 45.2391 68.5749 46.0634 68.6795 46.5818C68.9013 46.6831 69.0439 46.7474 69.148 46.7942C69.2459 46.8383 69.3096 46.8669 69.3729 46.8966C69.4908 46.952 69.6072 47.0108 69.9405 47.1794C69.9981 47.2085 70.0622 47.2409 70.1339 47.2772C71.1197 47.7756 72.3201 48.3826 73.6467 49.674C76.0048 50.2717 76.9052 52.8082 75.5255 54.5392C75.4884 54.5856 75.3218 54.7854 75.1493 54.9841C75.1556 55.0009 75.1715 55.0325 75.1951 55.0794L75.1952 55.0794C75.326 55.3389 75.6927 56.0663 75.9692 57.3446C76.9463 57.5781 77.7247 58.1867 78.1331 59.0694C78.8396 60.7969 77.4496 62.8753 77.4496 62.8753ZM70.6498 75.6965V76.4071H70.9188V75.6965H71.1939V75.4723H70.3783V75.6965H70.6498ZM71.2762 76.4071V75.4723H71.6595L71.8277 76.0102L71.9933 75.4723H72.3769V76.4071H72.1316V75.7303L71.9312 76.4071H71.7219L71.5215 75.7321V76.4071H71.2762Z" fill="#5B453E"/>
<path fill-rule="evenodd" clip-rule="evenodd" d="M75.9425 61.8702C75.7296 62.667 74.6863 66.5726 70.51 69.8663C64.7094 74.4417 57.088 73.9787 54.2095 71.4146C52.6719 69.9709 52.0062 67.9061 52.0062 67.9061C52.0062 67.9061 51.8322 69.0697 51.8024 69.5267C50.6424 67.5465 50.7405 65.1279 50.7405 65.1279C50.7405 65.1279 50.1217 66.286 49.8385 66.9348C48.9848 64.7538 49.4258 62.5017 49.4258 62.5017L48.7505 63.5122C48.7505 63.5122 48.4337 61.0438 49.2113 58.9877C50.0423 56.7906 51.6536 55.1945 51.972 54.9956C50.7496 54.6055 49.3412 53.4874 49.3388 53.4854C49.3388 53.4854 49.8988 53.5226 50.2881 53.4329C50.2881 53.4329 47.8164 51.6555 47.3831 48.936C47.7412 49.3802 48.4925 49.882 48.4925 49.882C48.2493 49.1703 48.1021 47.587 48.3294 46.0287L48.3302 46.0271C48.7978 43.0503 51.2419 41.1118 54.0103 41.1362C54.5393 41.1409 55.037 41.1647 55.5118 41.1875C57.6827 41.2916 59.3762 41.3727 61.4035 39.4962C61.4321 39.4698 61.4603 39.4436 61.4883 39.4176C61.9729 38.9674 62.3839 38.5856 63.0777 38.4313C63.0915 38.4282 63.1088 38.4232 63.1301 38.4169C63.2295 38.388 63.4169 38.3334 63.741 38.3334C64.1396 38.3334 64.5236 38.4233 64.8748 38.6333C66.215 39.4339 66.5038 41.5221 66.6479 43.0533C66.9734 46.5246 67.0195 47.4964 67.5289 47.9948C67.8529 48.3118 68.3645 48.4372 69.2549 48.8925C69.3603 48.9462 69.4669 48.9997 69.5749 49.0539C70.5858 49.561 71.7097 50.1248 72.9716 51.4811C72.9787 51.4886 72.9887 51.4931 72.999 51.4934C74.177 51.5217 74.7842 52.4527 74.2407 53.1305C70.2878 57.8688 64.7672 60.1378 58.6145 60.3276C58.418 60.3326 58.0321 60.3417 57.8654 60.3456C57.8164 60.3467 57.7864 60.3474 57.7857 60.3475C55.3007 60.423 54.4916 63.6499 56.0508 65.5906C57.0362 66.8172 58.9317 67.2203 60.4918 67.2263L60.5139 67.2184C67.241 67.3552 73.9993 62.577 75.1666 59.9421C75.175 59.9231 75.2463 59.7553 75.2463 59.7553C75.2463 59.7553 75.1842 59.8284 75.1092 59.8902C75.1055 59.8926 75.0878 59.9089 75.0563 59.9377C74.4188 60.5224 68.1628 66.2588 60.4608 66.0421C60.4608 66.0421 59.5903 66.024 58.7706 65.8324C57.6896 65.58 56.8684 65.1033 56.5541 64.0218C56.4607 63.8237 56.4071 63.1384 56.5312 62.6772C56.8692 61.5414 57.4354 61.5315 58.3114 61.5161C58.4425 61.5139 58.5805 61.5114 58.7257 61.5051H58.7259C62.7107 61.3719 65.9261 60.3662 68.3359 59.2178C70.9056 57.9932 72.864 56.4153 73.5696 55.6189C74.4848 57.1657 74.4793 59.1518 74.4793 59.1518C74.4793 59.1518 74.8383 59.0259 75.3135 59.0259C76.807 59.026 77.1144 60.3669 75.9838 61.728C75.9768 61.7417 75.9638 61.7903 75.9425 61.8702ZM38.8141 54.5788C38.8141 54.5788 38.6282 55.3514 38.2592 56.2928C37.9049 53.2798 36.6452 52.6423 36.6452 52.6424C35.9153 52.303 35.1084 52.1145 34.26 52.1145C30.9867 52.1145 28.3333 54.9185 28.3333 58.3775C28.3333 61.8364 30.9867 64.6404 34.26 64.6404C37.9468 64.6404 40.7452 61.1169 40.0939 57.2677C40.0939 57.2677 39.7179 58.1485 39.3678 58.6161C39.4526 57.2382 39.2365 55.875 38.8141 54.5788Z" fill="#F2D8B4"/>
<path d="M26.4594 53.3334C26.4358 53.3273 24.208 51.7416 23.8911 51.2195C22.0167 48.1517 25.2777 41.8504 27.5984 38.2687C33.3332 29.4167 42.8789 22.4308 47.2144 23.4284L51.6666 25.6574C49.9379 26.6436 48.266 27.855 47.2644 28.6607L46.317 29.4312C46.317 29.4312 43.5504 31.2377 42.1744 32.3766C36.6585 36.9414 31.2275 44.0082 29.2134 50.8295C29.2134 50.8293 27.5586 51.6261 26.4594 53.3334" fill="#207EAC"/>
<path d="M48.3333 23.4365V23.4365C43.9139 22.3541 34.1841 29.9331 28.3384 39.5369C28.3367 39.5397 28.335 39.5426 28.3333 39.5453L28.3569 39.5479L33.0148 43.3334C38.1292 34.953 44.5571 30.6318 44.7384 30.5049L43.9999 25.3756L45.3834 24.6918L48.16 25.62L47.9476 24.6624L48.3333 23.4365" fill="#4FB1D3"/>
<path d="M55 24.6812L49.9421 28.0695L49.5882 28.3333L45.103 24.8431L45 24.1831L46.5595 23.472C46.6395 23.4967 49.5657 24.3992 49.6892 24.4372L49.7414 22.5867L49.8847 22.1666L51.2546 21.6666C51.2565 21.6679 54.9948 24.677 55 24.6812" fill="#FACD55"/>
<path d="M60.5623 21.6666C57.7049 21.6666 54.4971 23.2512 52.0362 24.8091C51.6911 25.0232 51.3486 25.2473 51.0131 25.4758L49.7255 24.3377L50.1931 26.0514C50.0163 26.1794 49.8437 26.3071 49.6748 26.434L47.0143 25.5775L48.7747 27.1312C48.3727 27.4524 48.0137 27.7531 47.7158 28.0134L43.4942 24.3381L43.7178 25.9853L46.786 28.8357C46.786 28.8357 44.0707 30.763 42.7203 31.9782C37.3068 36.8486 31.9767 44.3886 30 51.6666L30.1123 51.6C30.1276 51.5911 30.143 51.5837 30.1583 51.5748C30.2133 51.5436 30.268 51.5139 30.323 51.4847C30.3583 51.466 30.3934 51.4471 30.4287 51.4292C30.4853 51.4006 30.5419 51.3739 30.5985 51.3477C30.6319 51.3321 30.6654 51.3157 30.6989 51.3011C30.7602 51.2739 30.8213 51.2494 30.8826 51.2249C30.911 51.2136 30.9393 51.2012 30.9676 51.1906C31.0569 51.1568 31.1458 51.1257 31.2345 51.0979C32.5783 50.6752 34.4066 50.4034 36.5469 51.3617C37.6217 48.5033 38.9058 45.5952 40.9294 42.8009C42.5702 40.5351 44.1474 38.5124 46.0405 37.3999C49.6249 33.8497 59.2857 30.085 62.3808 33.3482C63.1126 32.086 63.7477 30.8911 64.271 29.3931C65.5624 25.7909 65.5859 21.6666 60.5623 21.6666" fill="#131B23"/>
<path d="M50 25L48.9505 23.3334L48.3333 24.1637L48.7027 24.8164L50 25" fill="#131B23"/>
<path fill-rule="evenodd" clip-rule="evenodd" d="M59.7061 21.6666C58.1372 21.8312 56.5015 22.402 54.9754 23.1244C49.8235 25.6054 46.2277 29.2652 45.7964 29.7042C45.7779 29.7231 45.7652 29.736 45.7585 29.7426C45.3306 30.1641 44.904 30.6007 44.4809 31.05C43.222 32.3865 41.9922 33.8338 40.8397 35.3222C38.8019 37.9536 37.9539 39.1816 36.6667 41.6829C36.6665 41.6832 36.6752 41.6724 36.6925 41.6512C37.1573 41.0797 43.767 32.9539 45.4583 31.2312C48.6769 27.953 53.9449 24.3021 53.9998 24.2695C56.2493 22.8561 58.148 22.0266 59.7061 21.6666ZM72.4465 54.6636C73.3332 56.1966 73.3278 58.1651 73.3278 58.1651C73.3431 58.73 73.325 59.0416 73.2942 59.4786C71.4959 61.0376 66.1343 65.1781 59.7459 64.994C59.7459 64.994 58.9024 64.9762 58.1082 64.7863C57.0666 64.5375 56.2739 64.0687 55.9657 63.0091L55.9608 62.9919L55.9602 62.9906C55.9554 62.9797 55.9157 62.8842 55.8902 62.6786L55.8892 62.6705L55.8884 62.6628C55.8826 62.6116 55.8778 62.557 55.8744 62.5002L55.8733 62.4803L55.873 62.4737C55.8684 62.3828 55.8673 62.2787 55.8711 62.1604C55.8727 62.1189 55.8752 62.0775 55.8785 62.0362L55.8789 62.0363L55.8794 62.0232C55.8902 61.8954 55.9092 61.7706 55.9386 61.6591C56.2662 60.5334 56.8147 60.5236 57.6634 60.5084C57.7904 60.5061 57.9242 60.5037 58.0649 60.4974H58.065C61.9257 60.3654 65.0411 59.3686 67.3758 58.2305C69.8654 57.0168 71.7628 55.453 72.4465 54.6636Z" fill="#FFFFFE"/>
<path fill-rule="evenodd" clip-rule="evenodd" d="M65.8458 44.7687C66.126 47.7544 66.1925 48.4634 66.7843 48.8841C66.8005 48.9 66.8172 48.9136 66.8339 48.9246C66.4366 49.0406 66.081 49.1496 65.7657 49.2493C65.1847 48.4616 64.378 47.7252 62.7196 47.8449C60.5218 48.0335 58.7752 49.9984 59.0915 51.9495C58.0471 52.4764 57.0744 53.0227 56.1697 53.5789C54.6771 53.7389 52.8588 54.2543 51.2551 55.597C50.0462 55.2163 48.6535 54.125 48.6511 54.1231C48.6511 54.1231 49.2049 54.1594 49.5898 54.0718C49.5898 54.0718 49.5632 54.0528 49.515 54.0159L49.514 54.0146L49.5107 54.011L49.5076 54.0084C49.4748 53.9827 49.4413 53.9571 49.4073 53.9313C48.8324 53.4691 47.0746 51.8954 46.7172 49.6828C47.0713 50.1163 47.8143 50.6059 47.8143 50.6059C47.8053 50.5804 47.7967 50.5537 47.7881 50.5259C47.7894 50.5219 47.7901 50.5175 47.7901 50.5131C47.7901 50.5131 47.6869 50.2191 47.6146 49.6522C47.5947 49.493 47.5784 49.3234 47.5661 49.1457C47.5583 49.0259 47.5523 48.8988 47.5488 48.764C47.6397 47.6456 47.9249 46.7058 48.6355 45.8168C49.6716 44.5207 51.0933 43.9939 52.7335 44.0193C53.1851 44.025 53.6413 44.0716 54.1169 44.1202C54.5735 44.1668 55.0479 44.2153 55.553 44.2311C56.9618 44.2751 58.3188 44.0429 59.7467 43.4027C61.1575 42.7364 61.9552 41.9675 62.7901 40.7737C63.0843 40.4518 63.6031 39.9806 64.0621 40.0006C64.3665 40.0006 64.5777 40.1501 64.728 40.2802C65.4546 41.2522 65.6557 42.7652 65.7678 43.9415C65.7957 44.2351 65.8216 44.5105 65.8458 44.7687ZM61.5567 50.5278C61.8958 49.445 63.4338 48.9243 64.3623 49.5786C63.9474 49.8177 63.8196 50.511 64.0727 50.9131C63.5479 50.9034 63.0084 51.1089 62.629 51.4727C62.6642 50.9574 62.0941 50.5546 61.5567 50.5278ZM67.1639 71.6667C67.994 71.2341 68.8072 70.7181 69.587 70.1109C73.7162 66.8967 74.7483 63.0853 74.959 62.3069C74.9802 62.2288 74.9931 62.1812 75 62.1679C73.0884 64.6166 70.5878 66.5626 67.912 67.9097C65.712 69.0181 64.066 69.4037 64.066 69.4037C64.066 69.4037 65.2442 70.9438 67.1639 71.6667ZM54.6196 62.7916C54.9121 61.713 55.7382 60.8586 57.0044 60.8205C57.0074 60.8204 57.5724 60.8075 57.8239 60.8012C63.9081 60.6159 69.3673 58.4013 73.2761 53.7768C73.8136 53.1152 73.2132 52.2066 72.0483 52.179C72.0437 52.1788 72.0317 52.179 72.0317 52.179C71.931 52.2845 71.8725 52.4346 71.7959 52.6314C71.7226 52.8195 71.6328 53.0503 71.4735 53.3255C70.2846 55.372 68.6401 56.3078 66.4473 57.3935C62.8827 59.1517 60.228 59.5439 58.3118 59.827C56.614 60.0779 55.4961 60.2431 54.8388 61.1969C54.4321 61.7944 54.4245 62.4618 54.6196 62.7916ZM67.5776 62.0253C67.5609 62.0257 67.5436 62.0293 67.5159 62.0355C67.4292 62.0554 67.2368 62.1176 66.9583 62.2076L66.9582 62.2077C65.1082 62.8059 59.4562 64.6337 55.7025 63.4656C55.6831 63.6998 55.6893 64.1917 55.7861 64.4055L55.7866 64.4067C56.4399 64.5365 57.2668 64.6194 58.2265 64.6194C63.9097 64.6194 68.0054 62.0594 67.5776 62.0253ZM35.7873 61.4963L35.7824 61.4996C33.1117 61.6947 30.6423 58.3134 32.1003 56.4489C32.2999 56.3 32.4708 56.2143 32.5383 56.1805C32.5501 56.1746 32.5588 56.1702 32.5639 56.1674C32.6029 56.1469 32.6428 56.1302 32.6843 56.1129C32.713 56.1009 32.7425 56.0886 32.7729 56.0745C32.8021 56.0624 32.8357 56.0523 32.8727 56.0419C32.9911 56.0089 33.0166 55.9995 33.0426 55.9921C33.0685 55.9848 33.095 55.9793 33.2147 55.9542H33.2144C34.5114 55.6819 35.4265 56.2506 35.8248 56.8097C36.0083 57.067 36.0477 57.2605 36.0763 57.4008C36.0856 57.4464 36.0938 57.4864 36.1054 57.5212L36.1056 57.5229C35.795 57.0937 35.394 56.9996 35.394 56.9996C35.0559 56.8662 34.4062 57.07 34.3638 57.7949C34.3442 58.0736 34.428 58.386 34.6688 58.6606L34.6705 58.6627C34.6791 58.6724 34.6879 58.6822 34.6969 58.6918C34.7052 58.7008 34.7137 58.7097 34.7222 58.7183C34.9195 58.921 35.154 59.0684 35.378 59.2092C35.7623 59.4507 36.1155 59.6727 36.1962 60.1204C36.2784 60.6129 36.1333 61.1278 35.7873 61.4963Z" fill="#E2B986"/>
<path fill-rule="evenodd" clip-rule="evenodd" d="M62.2093 33.0179C60.06 31.3375 53.7868 31.8133 47.5065 35.9526C44.631 37.8477 42.5224 39.9207 40.8971 42.0744C40.8971 42.0744 43.406 37.2245 48.9189 34.0166C48.5346 33.9538 47.6309 34.0637 47.3717 34.0952C47.3539 34.0974 47.3392 34.0992 47.3279 34.1005C48.3294 33.2246 50.19 32.6398 51.4756 32.374C51.0993 32.1305 50.2032 32.069 49.7583 32.057C49.637 32.0538 49.6289 32.0541 49.5063 32.0594C49.496 32.0598 49.4849 32.0603 49.4728 32.0608C50.682 31.3732 52.9242 30.9698 54.9624 31.3343C54.7063 30.9885 54.1254 30.7362 53.7182 30.6135C53.6826 30.6027 53.5227 30.5623 53.5227 30.5623C53.5227 30.5623 53.659 30.5296 53.6762 30.5262C54.9041 30.2857 56.3384 30.5453 57.473 31.0086C57.3442 30.7045 57.0293 30.3504 56.7926 30.1262C56.7684 30.1033 56.627 30 56.627 30C57.8141 30.2502 58.9517 30.7767 59.8076 31.3745C59.6913 31.1459 59.4035 30.7611 59.2044 30.551C60.3387 30.881 61.6121 31.7035 62.1578 32.8826C62.1704 32.9076 62.2017 32.995 62.2086 33.0143L62.2096 33.0172L62.2093 33.0179ZM57.1748 48.7562C57.2973 48.9383 57.3301 49.0759 57.2806 49.1331C57.1918 49.2386 56.8973 49.1209 56.4596 48.9458C56.411 48.9264 56.3607 48.9063 56.3087 48.8857C54.9763 48.3803 53.9946 48.3033 52.2569 48.9721L52.1181 49.0262C51.7516 49.1694 51.4897 49.2718 51.3565 49.2516C51.1127 49.2148 51.3487 48.7612 51.8813 48.3211C52.953 47.4517 54.4248 47.1819 55.6825 47.6579C56.233 47.8639 56.8513 48.2752 57.1748 48.7562ZM56.9108 50.1422C56.5455 49.8584 55.8728 49.6682 55.1744 49.7889C55.0653 49.8058 54.9625 49.8357 54.862 49.8648L54.862 49.8648L54.862 49.8649L54.8618 49.8649C54.8274 49.8749 54.7933 49.8848 54.7593 49.8941C54.7104 49.9063 54.6637 49.9239 54.6182 49.9433C54.3295 50.0671 54.0795 50.2003 53.8369 50.4367C53.5586 50.7102 53.4795 50.9642 53.56 51.0267C53.6289 51.0826 53.784 51.0177 54.0196 50.9191L54.062 50.9013L54.1294 50.8734C55.1266 50.4518 55.8324 50.4406 56.5048 50.4883L56.5526 50.4916C56.8504 50.5122 57.0486 50.5258 57.0964 50.4405C57.132 50.3795 57.0675 50.2637 56.9108 50.1422ZM35.4353 55.3434L35.4351 55.3432C34.8901 54.8962 34.1176 54.6847 33.2201 54.8781H33.2203L33.2038 54.8817C33.0988 54.9043 33.0737 54.9097 33.0491 54.9169C33.0414 54.9192 33.0337 54.9216 33.0237 54.9248L33.0237 54.9248C32.9999 54.9323 32.9628 54.9441 32.8799 54.9678C32.843 54.9783 32.8095 54.9888 32.7806 55.001C32.7505 55.0153 32.7214 55.0278 32.693 55.04L32.6929 55.04L32.6928 55.0401C32.6514 55.0578 32.6115 55.0749 32.5725 55.096C32.5675 55.0989 32.559 55.1033 32.5473 55.1092C32.4324 55.1682 32.0143 55.3829 31.6681 55.8136C31.483 56.047 31.3409 56.3066 31.2371 56.5735C31.0497 57.0667 30.9796 57.6072 30.9997 58.1265C31.0272 58.8354 31.2127 59.261 31.2821 59.4202C31.2903 59.4392 31.297 59.4544 31.3015 59.4658C31.4788 59.8531 31.0636 59.9326 30.6848 59.5165L30.6839 59.5155C30.3809 59.1894 30.1869 58.6927 30.0919 58.2515V58.2513C30.0359 57.9891 30 57.6949 30 57.3783C30 57.0111 30.0484 56.6136 30.1698 56.2019L30.17 56.2013L30.1701 56.201C30.4986 55.1195 31.2368 54.3027 32.3586 53.858C32.4298 53.8295 32.5091 53.8084 32.5833 53.7887C32.6169 53.7797 32.6495 53.7711 32.6799 53.7621L32.6788 53.7624C32.8678 53.705 33.5444 53.5657 34.2322 53.6745C34.6303 53.7373 34.9924 53.8713 35.3044 54.048C35.6158 54.2243 35.8777 54.4433 36.0766 54.6783L36.0774 54.6794C36.4026 55.0552 36.6479 55.5856 36.6043 56.0576L36.6041 56.0587C36.5878 56.255 36.5024 56.5363 36.3285 56.6093C36.2637 56.6361 36.1989 56.6219 36.1535 56.5765C36.1026 56.5259 36.0883 56.4536 36.0689 56.3563C36.0405 56.2129 36.0012 56.0151 35.8184 55.7522C35.7249 55.6172 35.5994 55.476 35.4357 55.3436L35.4353 55.3434ZM35.2436 57.1055C35.1196 57.0057 35.0621 56.9204 35.0278 56.7893C34.9772 56.5503 35.0036 56.4115 35.2045 56.268C35.248 56.2376 35.2892 56.2117 35.3259 56.1886C35.4194 56.1297 35.4837 56.0892 35.4841 56.0406C35.491 55.9125 34.9736 55.7807 34.6118 56.1428C34.3114 56.4682 34.2166 57.1466 34.6958 57.6753C34.8976 57.8967 35.1417 58.0541 35.3742 58.204C35.7567 58.4506 36.1079 58.6771 36.1883 59.1349C36.2053 59.2392 36.2179 59.3553 36.209 59.4699C36.2106 59.5876 36.1762 59.7515 36.1674 59.7934L36.1654 59.8029C36.005 60.5139 35.3414 61.1923 34.2473 61.0194L34.1997 61.0123C34.0252 60.986 33.912 60.9689 33.8762 61.021C33.7918 61.1403 34.2607 61.6859 35.1191 61.6661C35.959 61.648 36.7922 61.0086 37.0593 60.0475L37.0611 60.0406C37.0736 59.9949 37.1416 59.7446 37.1476 59.5185C37.1627 59.3376 37.1498 59.1516 37.1167 58.957C36.9533 58.0353 36.2393 57.6606 35.7014 57.3783C35.5192 57.2827 35.3571 57.1976 35.2436 57.1055ZM63.7844 49.0377C63.8555 48.5749 64.182 48.2424 64.5139 48.2951C64.8457 48.3478 65.0573 48.7656 64.9863 49.2284C64.9152 49.6913 64.5886 50.0237 64.2568 49.9711C63.9248 49.9184 63.7133 49.5005 63.7844 49.0377ZM60.8673 49.6451C60.6848 49.9836 60.907 50.4643 61.3635 50.7186C61.8199 50.973 62.3379 50.9048 62.5204 50.5662C62.7027 50.2278 62.4807 49.7471 62.024 49.4928C61.5675 49.2385 61.0496 49.3066 60.8673 49.6451Z" fill="#916D53"/>
<path d="M61.6672 46.3802C61.6605 45.9219 61.714 45.1645 62.033 45.0237C62.0333 45.0235 62.0331 45.0235 62.0336 45.0234C62.5786 44.7676 63.3002 46.6564 63.3333 48.3333C62.9027 48.0415 62.3966 47.9177 61.8762 47.9787C61.7454 47.4389 61.6827 46.9303 61.6672 46.3802" fill="#5B453E"/>
</svg>
