<svg width="100" height="100" viewBox="0 0 100 100" fill="none" xmlns="http://www.w3.org/2000/svg">
<path d="M50 100C77.6142 100 100 77.6142 100 50C100 22.3858 77.6142 0 50 0C22.3858 0 0 22.3858 0 50C0 77.6142 22.3858 100 50 100Z" fill="#1FB6FF"/>
<path d="M45.4541 39.7373C48.8905 39.7744 42.8406 57.5128 43.4901 65.2243C44.1452 73.0044 52.8022 70.7644 52.2528 66.2856C51.3179 58.6715 56.4185 34.8127 61.5913 34.8127C65.2207 34.8127 57.5715 51.2605 59.0765 61.793C60.0724 68.7613 69.1111 66.344 68.1925 62.2123C65.1541 48.5383 74.5681 35.3968 73.5131 26.0859C73.0517 22.012 70.5879 20.0197 68.1234 20.0002C59.4946 19.9342 52.8293 37.5306 52.8293 37.5306C52.8293 37.5306 53.5233 27.5294 46.8171 27.1622C36.5493 26.5995 26.3847 52.1526 26.6726 74.969C26.7644 82.248 35.8748 81.0082 35.3957 75.2048C34.5048 64.4121 40.556 39.6851 45.4541 39.7373V39.7373Z" fill="white"/>
</svg>
