<svg width="100" height="100" viewBox="0 0 100 100" fill="none" xmlns="http://www.w3.org/2000/svg">
<path d="M50 100C77.6142 100 100 77.6142 100 50C100 22.3858 77.6142 0 50 0C22.3858 0 0 22.3858 0 50C0 77.6142 22.3858 100 50 100Z" fill="white"/>
<path d="M79.9561 50.241C79.9561 60.4971 71.6576 68.8113 61.4209 68.8113C51.1842 68.8113 42.8857 60.4971 42.8857 50.241C42.8857 39.9849 51.1842 31.6707 61.4209 31.6707C71.6576 31.6707 79.9561 39.9849 79.9561 50.241V50.241Z" fill="#F79F1A"/>
<path d="M57.0901 50.241C57.0901 60.4971 48.7916 68.8113 38.5549 68.8113C28.3182 68.8113 20.0197 60.4971 20.0197 50.241C20.0197 39.9849 28.3182 31.6707 38.5549 31.6707C48.7916 31.6707 57.0901 39.9849 57.0901 50.241V50.241Z" fill="#EA001B"/>
<path d="M49.9879 35.6223C45.6632 39.0219 42.8871 44.3047 42.8871 50.2392C42.8871 56.1738 45.6632 61.4606 49.9879 64.8602C54.3126 61.4606 57.0887 56.1738 57.0887 50.2392C57.0887 44.3047 54.3126 39.0219 49.9879 35.6223V35.6223Z" fill="#FF5F01"/>
</svg>
