<svg width="100" height="100" viewBox="0 0 100 100" fill="none" xmlns="http://www.w3.org/2000/svg">
<path fill-rule="evenodd" clip-rule="evenodd" d="M50 100C77.6142 100 100 77.6142 100 50C100 22.3858 77.6142 0 50 0C22.3858 0 0 22.3858 0 50C0 77.6142 22.3858 100 50 100Z" fill="#12100E"/>
<path d="M24.5721 33.9665C24.6549 33.1289 24.3428 32.3011 23.7317 31.7374L17.507 24.063V22.9166H36.8348L51.7741 56.4484L64.9082 22.9166H83.3334V24.063L78.0112 29.2854C77.5524 29.6434 77.3248 30.2317 77.4199 30.8139V69.186C77.3248 69.7682 77.5524 70.3565 78.0112 70.7145L83.2089 75.9369V77.0833H57.0651V75.9369L62.4494 70.5871C62.9785 70.0458 62.9785 69.8865 62.9785 69.0586V38.0425L48.0081 76.9559H45.9851L28.5559 38.0425V64.1228C28.4106 65.2193 28.7664 66.3232 29.5207 67.1161L36.5235 75.8095V76.9559H16.6667V75.8095L23.6695 67.1161C24.4183 66.3219 24.7534 65.2106 24.5721 64.1228V33.9665Z" fill="white"/>
</svg>
