<svg width="100" height="100" viewBox="0 0 100 100" fill="none" xmlns="http://www.w3.org/2000/svg">
<path d="M0 50C0 22.3858 22.3858 0 50 0C77.6142 0 100 22.3858 100 50C100 77.6142 77.6142 100 50 100C22.3858 100 0 77.6142 0 50Z" fill="white"/>
<path d="M50 0C22.3852 0 0 22.3852 0 50C0 77.6148 22.3852 100 50 100C77.6148 100 100 77.6148 100 50C100 22.3852 77.6148 0 50 0ZM75.9546 67.6812C75.9546 68.539 75.2629 69.2308 74.4051 69.2308H67.8749C67.0172 69.2308 66.3254 68.539 66.3254 67.6812V47.565C66.3254 47.399 66.1317 47.316 65.9934 47.4267L52.1583 61.2618C50.9685 62.4516 49.0039 62.4516 47.8141 61.2618L33.979 47.4267C33.8683 47.316 33.6469 47.399 33.6469 47.565V67.6812C33.6469 68.539 32.9552 69.2308 32.0974 69.2308H25.5672C24.7095 69.2308 24.0177 68.539 24.0177 67.6812V32.3188C24.0177 31.461 24.7095 30.7692 25.5672 30.7692H30.0498C30.8522 30.7692 31.6547 31.1013 32.2358 31.6823L49.4466 48.8932C49.751 49.1976 50.2214 49.1976 50.5257 48.8932L67.7366 31.6823C68.3177 31.1013 69.0924 30.7692 69.9225 30.7692H74.4051C75.2629 30.7692 75.9546 31.461 75.9546 32.3188V67.6812V67.6812Z" fill="#D9272E"/>
</svg>
