<svg width="100" height="100" viewBox="0 0 100 100" fill="none" xmlns="http://www.w3.org/2000/svg">
<path d="M49.9956 0C21.8356 0 0 20.6357 0 48.4957C0 63.0694 5.97447 75.6683 15.6986 84.3675C16.511 85.0925 17.011 86.1174 17.036 87.2173L17.311 96.1165C17.3985 98.9537 20.3232 100.804 22.923 99.6537L32.8471 95.2791C33.6845 94.9041 34.6344 94.8416 35.5219 95.0791C40.0839 96.329 44.9335 97.0039 49.9956 97.0039C78.1556 97.0039 99.9911 76.3682 99.9911 48.5082C99.9911 20.6482 78.1556 0 49.9956 0Z" fill="url(#paint0_radial_147648_891)"/>
<path d="M19.9732 62.6819L34.6594 39.384C36.9967 35.6718 41.9963 34.7594 45.5085 37.3842L57.1949 46.1459C58.2698 46.9458 59.7447 46.9458 60.8071 46.1334L76.5807 34.1594C78.6805 32.5596 81.4303 35.0844 80.0304 37.3217L65.3317 60.6071C62.9944 64.3193 57.9949 65.2317 54.4827 62.6069L42.7962 53.8452C41.7213 53.0453 40.2464 53.0453 39.184 53.8577L23.4104 65.8316C21.3106 67.4315 18.5609 64.9192 19.9732 62.6819Z" fill="white"/>
<defs>
<radialGradient id="paint0_radial_147648_891" cx="0" cy="0" r="1" gradientUnits="userSpaceOnUse" gradientTransform="translate(19.2483 99.4466) scale(108.95 108.95)">
<stop stop-color="#0099FF"/>
<stop offset="0.6098" stop-color="#A033FF"/>
<stop offset="0.9348" stop-color="#FF5280"/>
<stop offset="1" stop-color="#FF7061"/>
</radialGradient>
</defs>
</svg>
