<svg width="100" height="100" viewBox="0 0 100 100" fill="none" xmlns="http://www.w3.org/2000/svg">
<g clip-path="url(#clip0_755_15174)">
<path d="M10.8012 60.8036C10.8012 64.622 11.6395 67.5536 12.7348 69.327C14.1711 71.6501 16.3129 72.6341 18.4969 72.6341C21.3137 72.6341 23.8906 71.9349 28.8563 65.0669C32.8348 59.5622 37.5227 51.8349 40.6766 46.9907L46.0184 38.7837C49.7289 33.0841 54.0234 26.7481 58.948 22.4532C62.9672 18.9478 67.3039 17.0005 71.668 17.0005C78.9953 17.0005 85.9746 21.2466 91.3164 29.2103C97.1621 37.9317 100 48.9173 100 60.254C100 66.9935 98.6719 71.9454 96.4113 75.8579C94.2273 79.6415 89.9707 83.4216 82.8105 83.4216V72.6341C88.9414 72.6341 90.4715 67.0005 90.4715 60.5532C90.4715 51.3657 88.3293 41.1692 83.6105 33.8841C80.2613 28.7161 75.9215 25.5587 71.1469 25.5587C65.9828 25.5587 61.827 29.4532 57.1566 36.3985C54.6738 40.088 52.1246 44.5845 49.2629 49.6579L46.1121 55.2396C39.7828 66.4614 38.1797 69.0173 35.0152 73.2356C29.4684 80.6224 24.7324 83.4216 18.4969 83.4216C11.1004 83.4216 6.42266 80.2185 3.52617 75.3919C1.16133 71.4587 0 66.2981 0 60.4177L10.8012 60.8036Z" fill="#0081FB"/>
<path d="M8.51636 29.9716C13.4687 22.3388 20.6148 17.0005 28.8113 17.0005C33.5585 17.0005 38.2773 18.4056 43.205 22.429C48.5949 26.8278 54.3398 34.0716 61.507 46.0103L64.0773 50.2942C70.2808 60.6298 73.8105 65.9466 75.8761 68.4544C78.5332 71.6743 80.3937 72.6341 82.8105 72.6341C88.9414 72.6341 90.4714 67.0005 90.4714 60.5532L100 60.254C100 66.9935 98.6718 71.9454 96.4113 75.8579C94.2273 79.6415 89.9707 83.4216 82.8105 83.4216C78.3593 83.4216 74.416 82.4548 70.055 78.3407C66.7027 75.1833 62.7836 69.5739 59.7683 64.5313L50.7996 49.5501C46.3 42.0317 42.1718 36.4263 39.7832 33.8872C37.2136 31.1575 33.9097 27.8606 28.6378 27.8606C24.371 27.8606 20.7472 30.8552 17.7148 35.4349L8.51636 29.9716Z" fill="url(#paint0_linear_755_15174)"/>
<path d="M28.6375 27.8606C24.3707 27.8606 20.7469 30.8552 17.7145 35.4349C13.427 41.9067 10.8012 51.5462 10.8012 60.8036C10.8012 64.622 11.6395 67.5536 12.7348 69.327L3.52617 75.3919C1.16133 71.4587 0 66.2981 0 60.4177C0 49.7239 2.93516 38.5786 8.51641 29.9716C13.4688 22.3388 20.6148 17.0005 28.8113 17.0005L28.6375 27.8606Z" fill="url(#paint1_linear_755_15174)"/>
</g>
<defs>
<linearGradient id="paint0_linear_755_15174" x1="1278.13" y1="3732.2" x2="8155.45" y2="4079.55" gradientUnits="userSpaceOnUse">
<stop stop-color="#0064E1"/>
<stop offset="0.4" stop-color="#0064E1"/>
<stop offset="0.83" stop-color="#0073EE"/>
<stop offset="1" stop-color="#0082FB"/>
</linearGradient>
<linearGradient id="paint1_linear_755_15174" x1="1564.89" y1="4850.76" x2="1564.89" y2="2312.19" gradientUnits="userSpaceOnUse">
<stop stop-color="#0082FB"/>
<stop offset="1" stop-color="#0064E0"/>
</linearGradient>
<clipPath id="clip0_755_15174">
<rect width="100" height="66.7969" fill="white" transform="translate(0 17.0005)"/>
</clipPath>
</defs>
</svg>
