<svg width="102" height="100" viewBox="0 0 102 100" fill="none" xmlns="http://www.w3.org/2000/svg">
<path d="M96.0196 4.16666L57 33.147L64.2157 16.049L96.0196 4.16666Z" fill="#E2761B" stroke="#E2761B" stroke-linecap="round" stroke-linejoin="round"/>
<path d="M5.94116 4.16666L44.647 33.4216L37.7843 16.049L5.94116 4.16666Z" fill="#E4761B" stroke="#E4761B" stroke-linecap="round" stroke-linejoin="round"/>
<path d="M81.9804 71.3431L71.5882 87.2646L93.8235 93.3823L100.216 71.696L81.9804 71.3431Z" fill="#E4761B" stroke="#E4761B" stroke-linecap="round" stroke-linejoin="round"/>
<path d="M1.82352 71.696L8.17646 93.3823L30.4118 87.2646L20.0196 71.3431L1.82352 71.696Z" fill="#E4761B" stroke="#E4761B" stroke-linecap="round" stroke-linejoin="round"/>
<path d="M29.1569 44.4412L22.9608 53.8138L45.0392 54.7942L44.2549 31.0687L29.1569 44.4412Z" fill="#E4761B" stroke="#E4761B" stroke-linecap="round" stroke-linejoin="round"/>
<path d="M72.8039 44.4411L57.5098 30.7941L57 54.7941L79.0392 53.8137L72.8039 44.4411Z" fill="#E4761B" stroke="#E4761B" stroke-linecap="round" stroke-linejoin="round"/>
<path d="M30.4118 87.2647L43.6667 80.7941L32.2157 71.853L30.4118 87.2647Z" fill="#E4761B" stroke="#E4761B" stroke-linecap="round" stroke-linejoin="round"/>
<path d="M58.2941 80.7941L71.5882 87.2647L69.7451 71.853L58.2941 80.7941Z" fill="#E4761B" stroke="#E4761B" stroke-linecap="round" stroke-linejoin="round"/>
<path d="M71.5882 87.2648L58.2941 80.7942L59.3529 89.4609L59.2353 93.1079L71.5882 87.2648Z" fill="#D7C1B3" stroke="#D7C1B3" stroke-linecap="round" stroke-linejoin="round"/>
<path d="M30.4118 87.2647L42.7647 93.1078L42.6863 89.4607L43.6667 80.7941L30.4118 87.2647Z" fill="#D7C1B3" stroke="#D7C1B3" stroke-linecap="round" stroke-linejoin="round"/>
<path d="M42.9608 66.1275L31.9019 62.8725L39.7059 59.3039L42.9608 66.1275Z" fill="#233447" stroke="#233447" stroke-linecap="round" stroke-linejoin="round"/>
<path d="M59 66.1275L62.2549 59.3039L70.098 62.8725L59 66.1275Z" fill="#233447" stroke="#233447" stroke-linecap="round" stroke-linejoin="round"/>
<path d="M30.4118 87.2649L32.2941 71.3434L20.0196 71.6963L30.4118 87.2649Z" fill="#CD6116" stroke="#CD6116" stroke-linecap="round" stroke-linejoin="round"/>
<path d="M69.7059 71.3434L71.5883 87.2649L81.9804 71.6963L69.7059 71.3434Z" fill="#CD6116" stroke="#CD6116" stroke-linecap="round" stroke-linejoin="round"/>
<path d="M79.0392 53.8139L57 54.7943L59.0392 66.1277L62.2941 59.3041L70.1373 62.8728L79.0392 53.8139Z" fill="#CD6116" stroke="#CD6116" stroke-linecap="round" stroke-linejoin="round"/>
<path d="M31.902 62.8728L39.7451 59.3041L42.9608 66.1277L45.0392 54.7943L22.9608 53.8139L31.902 62.8728Z" fill="#CD6116" stroke="#CD6116" stroke-linecap="round" stroke-linejoin="round"/>
<path d="M22.9608 53.8138L32.2157 71.853L31.902 62.8726L22.9608 53.8138Z" fill="#E4751F" stroke="#E4751F" stroke-linecap="round" stroke-linejoin="round"/>
<path d="M70.1372 62.8728L69.7451 71.8531L79.0392 53.8139L70.1372 62.8728Z" fill="#E4751F" stroke="#E4751F" stroke-linecap="round" stroke-linejoin="round"/>
<path d="M45.0392 54.7943L42.9608 66.1276L45.549 79.5002L46.1372 61.8923L45.0392 54.7943Z" fill="#E4751F" stroke="#E4751F" stroke-linecap="round" stroke-linejoin="round"/>
<path d="M57 54.7943L55.9411 61.8531L56.4117 79.5002L59.0392 66.1276L57 54.7943Z" fill="#E4751F" stroke="#E4751F" stroke-linecap="round" stroke-linejoin="round"/>
<path d="M59.0392 66.1275L56.4118 79.5001L58.2941 80.7942L69.7451 71.853L70.1373 62.8726L59.0392 66.1275Z" fill="#F6851B" stroke="#F6851B" stroke-linecap="round" stroke-linejoin="round"/>
<path d="M31.9019 62.8726L32.2157 71.853L43.6667 80.7942L45.549 79.5001L42.9608 66.1275L31.9019 62.8726Z" fill="#F6851B" stroke="#F6851B" stroke-linecap="round" stroke-linejoin="round"/>
<path d="M59.2353 93.1078L59.353 89.4608L58.3726 88.598H43.5882L42.6863 89.4608L42.7647 93.1078L30.4118 87.2647L34.7255 90.7941L43.4706 96.8725H58.4902L67.2745 90.7941L71.5882 87.2647L59.2353 93.1078Z" fill="#C0AD9E" stroke="#C0AD9E" stroke-linecap="round" stroke-linejoin="round"/>
<path d="M58.2941 80.7941L56.4118 79.5H45.549L43.6667 80.7941L42.6863 89.4608L43.5882 88.5981H58.3726L59.3529 89.4608L58.2941 80.7941Z" fill="#161616" stroke="#161616" stroke-linecap="round" stroke-linejoin="round"/>
<path d="M97.6667 35.0294L101 19.0294L96.0196 4.16666L58.2941 32.1667L72.8039 44.4412L93.3137 50.4412L97.8627 45.1471L95.902 43.7353L99.0392 40.8725L96.6078 38.9902L99.7451 36.598L97.6667 35.0294Z" fill="#763D16" stroke="#763D16" stroke-linecap="round" stroke-linejoin="round"/>
<path d="M1 19.0294L4.33333 35.0294L2.21569 36.598L5.35294 38.9902L2.96078 40.8725L6.09804 43.7353L4.13725 45.1471L8.64706 50.4412L29.1569 44.4412L43.6667 32.1667L5.94118 4.16666L1 19.0294Z" fill="#763D16" stroke="#763D16" stroke-linecap="round" stroke-linejoin="round"/>
<path d="M93.3137 50.4412L72.8039 44.4412L79.0392 53.8138L69.7451 71.853L81.9804 71.6961H100.216L93.3137 50.4412Z" fill="#F6851B" stroke="#F6851B" stroke-linecap="round" stroke-linejoin="round"/>
<path d="M29.1569 44.4412L8.64708 50.4412L1.82355 71.6961H20.0196L32.2157 71.853L22.9608 53.8138L29.1569 44.4412Z" fill="#F6851B" stroke="#F6851B" stroke-linecap="round" stroke-linejoin="round"/>
<path d="M57 54.794L58.2941 32.1666L64.2549 16.049H37.7843L43.6667 32.1666L45.0392 54.794L45.5098 61.9313L45.549 79.4999H56.4118L56.4902 61.9313L57 54.794Z" fill="#F6851B" stroke="#F6851B" stroke-linecap="round" stroke-linejoin="round"/>
</svg>
