<svg width="100" height="100" viewBox="0 0 100 100" fill="none" xmlns="http://www.w3.org/2000/svg">
<path d="M0 50C0 22.3858 22.3858 0 50 0C77.6142 0 100 22.3858 100 50C100 77.6142 77.6142 100 50 100C22.3858 100 0 77.6142 0 50Z" fill="#FF6700"/>
<path fill-rule="evenodd" clip-rule="evenodd" d="M51.4258 33.3334H23.8939C23.5837 33.3334 23.3333 33.5783 23.3333 33.8776V66.4762C23.3333 66.7756 23.5837 67.0205 23.8939 67.0205H31.1211C31.4313 67.0205 31.6816 66.7756 31.6816 66.4762V40.8926C31.6816 40.5987 31.932 40.3538 32.2422 40.3538H47.8177C52.1986 40.3538 53.4395 43.6681 53.4395 45.8068V66.4762C53.4395 66.7756 53.6898 67.0205 54 67.0205H61.2218C61.532 67.0205 61.7823 66.7756 61.7823 66.4762V43.3524C61.7823 41.4422 61.5483 38.6994 59.0612 36.2885C56.4599 33.7687 54.0816 33.3334 51.4258 33.3334ZM76.1061 33.3334H68.8789C68.5687 33.3334 68.3184 33.5783 68.3184 33.8776V66.4762C68.3184 66.7756 68.5687 67.0205 68.8789 67.0205H76.1061C76.4163 67.0205 76.6667 66.7756 76.6667 66.4762V33.8776C76.6667 33.5783 76.4109 33.3334 76.1061 33.3334ZM38.7728 46.3184H46.3646C46.6748 46.3184 46.9252 46.5633 46.9252 46.8572V66.4817C46.9252 66.781 46.6694 67.0259 46.3646 67.0259H38.7728C38.468 67.0259 38.2122 66.781 38.2122 66.4817V46.8626C38.2122 46.5633 38.4626 46.3184 38.7728 46.3184Z" fill="white"/>
</svg>
