<svg width="100" height="100" viewBox="0 0 100 100" fill="none" xmlns="http://www.w3.org/2000/svg">
<path d="M62.7907 48.3527L23.2558 41.376V92.9272C23.2558 95.2814 25.1643 97.1899 27.5186 97.1899H95.7372C98.0915 97.1899 100 95.2814 100 92.9272V73.9341L62.7907 48.3527Z" fill="#185C37"/>
<path d="M62.7907 4.16663H27.5186C25.1643 4.16663 23.2558 6.07513 23.2558 8.42941V27.4224L62.7907 50.6783L83.7209 57.655L100 50.6783V27.4224L62.7907 4.16663Z" fill="#21A366"/>
<path d="M23.2558 27.4225H62.7907V50.6783H23.2558V27.4225Z" fill="#107C41"/>
<path opacity="0.1" d="M51.5512 22.7712H23.2558V80.9108H51.5512C53.9022 80.9031 55.8063 78.9991 55.8139 76.648V27.034C55.8063 24.6829 53.9022 22.7789 51.5512 22.7712Z" fill="black"/>
<path opacity="0.2" d="M49.2256 25.0968H23.2558V83.2363H49.2256C51.5767 83.2287 53.4807 81.3246 53.4884 78.9736V29.3596C53.4807 27.0085 51.5767 25.1044 49.2256 25.0968Z" fill="black"/>
<path opacity="0.2" d="M49.2256 25.0968H23.2558V78.5852H49.2256C51.5767 78.5775 53.4807 76.6735 53.4884 74.3224V29.3596C53.4807 27.0085 51.5767 25.1044 49.2256 25.0968Z" fill="black"/>
<path opacity="0.2" d="M46.9 25.0968H23.2558V78.5852H46.9C49.2511 78.5775 51.1551 76.6735 51.1628 74.3224V29.3596C51.1551 27.0085 49.2511 25.1044 46.9 25.0968Z" fill="black"/>
<path d="M4.26278 25.0968H46.9C49.2542 25.0968 51.1627 27.0053 51.1627 29.3596V71.9968C51.1627 74.351 49.2542 76.2595 46.9 76.2595H4.26278C1.90851 76.2596 0 74.3511 0 71.9968V29.3596C0 27.0053 1.90851 25.0968 4.26278 25.0968Z" fill="url(#paint0_linear_147648_1454)"/>
<path d="M13.2023 64.5341L22.1698 50.6387L13.9535 36.8201H20.5628L25.0465 45.6573C25.4605 46.4968 25.7442 47.1201 25.8977 47.5317H25.9558C26.2504 46.8619 26.5605 46.2115 26.8861 45.5805L31.6791 36.8247H37.7465L29.3209 50.562L37.9605 64.534H31.5047L26.3256 54.834C26.0816 54.4213 25.8746 53.9878 25.707 53.5387H25.6303C25.4786 53.9787 25.2773 54.4 25.0303 54.7945L19.6977 64.5341H13.2023Z" fill="white"/>
<path d="M95.7372 4.16663H62.7907V27.4224H100V8.42941C100 6.07513 98.0915 4.16663 95.7372 4.16663Z" fill="#33C481"/>
<path d="M62.7907 50.6782H100V73.934H62.7907V50.6782Z" fill="#107C41"/>
<defs>
<linearGradient id="paint0_linear_147648_1454" x1="8.88801" y1="21.7659" x2="42.2748" y2="79.5904" gradientUnits="userSpaceOnUse">
<stop stop-color="#18884F"/>
<stop offset="0.5" stop-color="#117E43"/>
<stop offset="1" stop-color="#0B6631"/>
</linearGradient>
</defs>
</svg>
