<svg width="100" height="100" viewBox="0 0 100 100" fill="none" xmlns="http://www.w3.org/2000/svg">
<path d="M95.7371 4.16663H27.5186C25.1643 4.16663 23.2558 6.07514 23.2558 8.42943V27.4224L62.7907 39.0503L99.9999 27.4224V8.42943C99.9999 6.07514 98.0914 4.16663 95.7371 4.16663Z" fill="#41A5EE"/>
<path d="M99.9999 27.4225H23.2558V50.6783L62.7907 57.655L99.9999 50.6783V27.4225Z" fill="#2B7CD3"/>
<path d="M23.2558 50.6782V73.934L60.4651 78.5852L99.9999 73.934V50.6782H23.2558Z" fill="#185ABD"/>
<path d="M27.5186 97.1899H95.7372C98.0915 97.1899 100 95.2814 100 92.9271V73.9341H23.2558V92.9271C23.2558 95.2814 25.1643 97.1899 27.5186 97.1899Z" fill="#103F91"/>
<path opacity="0.1" d="M51.5511 22.7712H23.2558V80.9107H51.5511C53.9022 80.9031 55.8063 78.999 55.8139 76.6479V27.034C55.8063 24.6829 53.9022 22.7789 51.5511 22.7712Z" fill="black"/>
<path opacity="0.2" d="M49.2255 25.0968H23.2558V83.2363H49.2255C51.5766 83.2286 53.4807 81.3246 53.4883 78.9735V29.3596C53.4807 27.0085 51.5766 25.1045 49.2255 25.0968Z" fill="black"/>
<path opacity="0.2" d="M49.2255 25.0968H23.2558V78.5851H49.2255C51.5766 78.5775 53.4807 76.6734 53.4883 74.3223V29.3596C53.4807 27.0085 51.5766 25.1045 49.2255 25.0968Z" fill="black"/>
<path opacity="0.2" d="M46.9 25.0968H23.2558V78.5851H46.9C49.2511 78.5775 51.1551 76.6734 51.1628 74.3223V29.3596C51.1551 27.0085 49.2511 25.1045 46.9 25.0968Z" fill="black"/>
<path d="M4.2628 25.0968H46.9C49.2543 25.0968 51.1628 27.0053 51.1628 29.3596V71.9968C51.1628 74.3511 49.2543 76.2596 46.9 76.2596H4.2628C1.90852 76.2596 0 74.3511 0 71.9968V29.3596C0 27.0053 1.90852 25.0968 4.2628 25.0968Z" fill="url(#paint0_linear_147648_1467)"/>
<path d="M17.493 57.7898C17.5768 58.448 17.6326 59.0201 17.6581 59.5108H17.7558C17.793 59.0457 17.8705 58.4852 17.9883 57.8294C18.1062 57.1735 18.2124 56.6193 18.307 56.1666L22.7907 36.8224H28.5884L33.2395 55.8759C33.5098 57.0606 33.7032 58.2616 33.8186 59.4712H33.8954C33.9821 58.2993 34.1437 57.1342 34.3791 55.9829L38.0884 36.8131H43.3651L36.8488 64.534H30.6837L26.2651 46.1759C26.1372 45.648 25.9907 44.9573 25.8303 44.1084C25.6698 43.2596 25.5698 42.6386 25.5302 42.248H25.4535C25.4023 42.6991 25.3023 43.3689 25.1535 44.2573C25.0046 45.1456 24.8852 45.803 24.7953 46.2293L20.6418 64.5293H14.372L7.82091 36.8224H13.193L17.2325 56.2061C17.3233 56.6038 17.4093 57.134 17.493 57.7898Z" fill="white"/>
<defs>
<linearGradient id="paint0_linear_147648_1467" x1="8.88801" y1="21.7659" x2="42.2748" y2="79.5904" gradientUnits="userSpaceOnUse">
<stop stop-color="#2368C4"/>
<stop offset="0.5" stop-color="#1A5DBE"/>
<stop offset="1" stop-color="#1146AC"/>
</linearGradient>
</defs>
</svg>
