<svg width="100" height="100" viewBox="0 0 100 100" fill="none" xmlns="http://www.w3.org/2000/svg">
<path d="M0 50C0 22.3858 22.3858 0 50 0C77.6142 0 100 22.3858 100 50C100 77.6142 77.6142 100 50 100C22.3858 100 0 77.6142 0 50Z" fill="white"/>
<path d="M80 47.2091C80 34.9446 67.6897 25 52.5008 25C37.3137 25 25 34.9446 25 47.2091C25 59.4737 37.3137 69.4183 52.5008 69.4183C53.9418 69.4183 55.3457 69.3002 56.7277 69.1281C59.2208 73.3428 64.0065 76.3022 69.5986 76.6667C68.1459 74.6842 67.2941 72.3153 67.2941 69.7659C67.2941 68.195 67.5735 66.8351 68.1577 65.4533C75.3102 61.4444 80 54.7714 80 47.2091" fill="#4CB350"/>
<path d="M53.5914 40H53.4653H49.1023H45.8993H41.5364H38.3333V43.2817V55H41.5364V43.2817H44.1295C45.0759 43.2817 45.8314 44.05 45.8815 45.0117L45.8993 45.105V55H49.1023V43.2817H51.6955C52.6419 43.2817 53.3973 44.05 53.4475 45.0117L53.4653 45.105V55H56.6667V43.1617C56.6618 41.415 55.2884 40 53.5914 40" fill="white"/>
<path d="M65 41.1785C65 42.3703 64.2541 43.3333 63.3333 43.3333C62.4126 43.3333 61.6667 42.3703 61.6667 41.1785V40.4881C61.6667 39.2983 62.4126 38.3333 63.3333 38.3333C64.2541 38.3333 65 39.2983 65 40.4881V41.1785Z" fill="white"/>
<path d="M61.6667 55H65V45H61.6667V55Z" fill="white"/>
<path d="M23.9578 48.3493C23.9578 47.7828 24.0119 47.2247 24.0642 46.6667C22.5379 49.0024 21.6667 51.6586 21.6667 54.4828C21.6667 60.2431 25.2596 65.3215 30.7334 68.3356C30.8128 68.8055 30.8735 69.2804 30.8735 69.7961C30.8735 71.7179 30.2319 73.504 29.1379 75C32.6531 74.7693 35.7463 73.1732 37.7639 70.8019C39.243 71.0716 40.7743 71.2294 42.3547 71.2294C44.4331 71.2294 46.4373 70.9749 48.3333 70.5119C34.6134 69.2245 23.9578 59.7987 23.9578 48.3493" fill="#4CB351"/>
</svg>
