<svg width="100" height="100" viewBox="0 0 100 100" fill="none" xmlns="http://www.w3.org/2000/svg">
<path d="M21.6632 -0.000366211H78.3368C90.293 -0.000366211 100 9.70665 100 21.6628V78.3364C100 90.2926 90.293 99.9996 78.3368 99.9996H21.6632C9.70702 99.9996 0 90.2926 0 78.3364V21.6628C0 9.70665 9.70702 -0.000366211 21.6632 -0.000366211Z" fill="#FFD02F"/>
<path d="M69.488 12.4886H58.5084L67.6531 28.5584L47.5288 12.4886H36.5492L46.6114 32.1394L25.5697 12.4886H14.5901L25.5697 37.496L14.5901 87.5108H25.5697L46.6114 33.915L36.5492 87.5108H47.5288L67.6531 30.3637L58.5084 87.5108H69.488L89.6123 24.9775L69.488 12.4886Z" fill="#050038"/>
</svg>
