<svg width="100" height="100" viewBox="0 0 100 100" fill="none" xmlns="http://www.w3.org/2000/svg">
<path d="M91.3462 76.9454L52.6989 99.2752C51.8841 99.7497 50.958 99.9996 50.0151 99.9996C49.0721 99.9996 48.146 99.7497 47.3312 99.2752L8.68389 76.9454C7.01991 75.9792 6 74.2083 6 72.3294V27.6699C6 25.7377 7.01991 24.0201 8.68389 23.0538L47.3312 0.724087C48.146 0.249609 49.0721 -0.000366211 50.0151 -0.000366211C50.958 -0.000366211 51.8841 0.249609 52.6989 0.724087L91.3462 23.0538C93.0106 24.0201 94.0301 25.7913 94.0301 27.6699V72.3294C93.9765 74.2079 92.9566 75.9792 91.3462 76.9454Z" fill="#8D6748"/>
<path d="M49.9615 6.78992C49.1565 6.78992 48.3511 7.00449 47.6534 7.43398L14.2663 26.704C12.8169 27.5093 11.9583 29.0657 11.9583 30.6757V69.216C11.9583 70.88 12.8169 72.383 14.2663 73.1884L47.6534 92.4584C48.3511 92.8878 49.1561 93.1024 49.9615 93.1024C50.7661 93.1024 51.5718 92.8878 52.2695 92.4584L85.6567 73.188C87.1061 72.383 87.9647 70.8263 87.9647 69.2163V30.6757C87.9647 29.012 87.1061 27.5093 85.6567 26.704L52.2695 7.43364C51.5715 7.00449 50.7665 6.78992 49.9615 6.78992ZM49.9615 8.40025C50.4979 8.40025 50.9814 8.56118 51.4642 8.82974L84.8513 28.0997C85.7639 28.6362 86.354 29.6564 86.354 30.73V69.27C86.354 70.3435 85.7639 71.3631 84.8513 71.8999L51.4645 91.1699C50.9814 91.4381 50.4982 91.5994 49.9615 91.5994C49.4304 91.5972 48.9103 91.4484 48.4584 91.1695L15.0713 71.9002C14.1587 71.3634 13.5682 70.3439 13.5682 69.2703V30.73C13.5682 29.6564 14.1587 28.6365 15.0709 28.0994L48.4581 8.82974C48.9412 8.56118 49.478 8.39991 49.9608 8.39991L49.9615 8.40025ZM46.8749 42.002H51.3837C51.545 42.002 51.6523 41.948 51.7596 41.8407C54.4434 38.8349 54.712 32.5545 54.712 30.676C54.712 30.4078 54.4971 30.1392 54.1752 30.1392H44.0837C43.8155 30.1392 43.547 30.3538 43.547 30.676C43.547 32.5009 43.8155 38.7813 46.4994 41.8407C46.6067 41.948 46.714 42.002 46.8749 42.002ZM45.6404 31.8032H52.7258C52.994 31.8032 53.2626 32.0178 53.2626 32.34C53.2626 33.843 52.994 38.0833 51.1691 40.284C51.0082 40.3916 50.9009 40.4453 50.7396 40.4453H47.573C47.4117 40.4453 47.3044 40.3916 47.1971 40.284C45.3719 38.1372 45.1573 33.843 45.1037 32.34C45.1037 32.0718 45.3182 31.8032 45.6404 31.8032ZM50.1492 29.066C50.1492 29.066 52.0818 27.9385 50.9006 25.899C50.2029 24.8251 49.881 23.9128 50.1492 23.537C49.4515 24.3959 48.2707 25.3082 49.5588 27.2408C49.9886 27.7239 50.2029 28.7435 50.1492 29.0657V29.066ZM48.0021 29.2266C48.0021 29.2266 49.2902 28.4752 48.4852 27.0795C48.0021 26.3818 47.7875 25.7377 48.0021 25.5228C47.519 26.1132 46.7676 26.7036 47.6263 28.0458C47.8948 28.314 48.0021 29.012 48.0021 29.2266ZM47.8412 39.8012H50.5251C50.6324 39.8012 50.7396 39.7476 50.8469 39.6403C51.7596 38.5667 52.189 36.9028 52.4036 35.4533C52.4036 35.4533 52.35 35.9365 51.0619 36.4196C49.2909 37.0637 46.1772 36.6342 46.1772 36.6342C46.4454 37.7614 46.8753 38.8349 47.519 39.6403C47.5726 39.7476 47.7339 39.8012 47.8412 39.8012ZM27.6586 54.8843V44.1491H25.6727L22.3984 49.1946L19.1241 44.1491H17.1379V54.9379H19.0165V47.2621L22.3444 52.254H22.3981L25.78 47.2085V54.8843H27.6586ZM39.6826 44.3636C38.9845 44.0954 38.2332 43.9342 37.4282 43.9342C36.6228 43.9342 35.8715 44.0414 35.1734 44.364C34.4754 44.6322 33.8853 45.0614 33.4022 45.5445C32.8948 46.0506 32.4934 46.6528 32.2213 47.3158C31.9531 48.0138 31.7915 48.7112 31.7915 49.4629V49.5165C31.7915 50.2679 31.9531 51.0196 32.2213 51.6636C32.4896 52.3617 32.8654 52.9517 33.3485 53.4349C33.8317 53.918 34.4221 54.3475 35.1195 54.6157C35.8175 54.8843 36.5692 55.0456 37.3742 55.0456C38.1795 55.0456 38.9309 54.9379 39.6289 54.6157C40.3266 54.3475 40.9171 53.918 41.3999 53.4349C41.9073 52.9289 42.3088 52.3269 42.581 51.664C42.8493 50.9659 43.0105 50.2679 43.0105 49.5165V49.4629C43.0105 48.7112 42.8489 47.9602 42.5807 47.3158C42.3125 46.618 41.937 46.0276 41.4538 45.5448C40.9707 45.0614 40.3803 44.6319 39.6826 44.3636ZM40.9707 49.5701C40.9707 50.0533 40.8634 50.5364 40.7021 51.0196C40.4876 51.4487 40.273 51.8782 39.9508 52.2004C39.6211 52.5279 39.2404 52.7998 38.8236 53.0054C38.3938 53.2203 37.911 53.3276 37.3742 53.3276C36.8914 53.3276 36.3546 53.2203 35.9251 53.0054C35.5084 52.7999 35.1277 52.5282 34.7979 52.2007C34.4757 51.8245 34.2075 51.4487 34.0462 50.9663C33.8853 50.4828 33.778 50 33.778 49.4629V49.4092C33.778 48.9261 33.8853 48.443 34.0462 47.9598C34.2612 47.5303 34.4757 47.1012 34.7979 46.779C35.1276 46.4513 35.5083 46.1793 35.9251 45.9736C36.3546 45.7591 36.8374 45.6518 37.3742 45.6518C37.9106 45.6518 38.3941 45.7591 38.8236 45.9736C39.2404 46.1793 39.6211 46.4513 39.9508 46.779C40.273 47.1548 40.5412 47.5303 40.7021 48.0135C40.8634 48.4966 40.9704 48.9797 40.9704 49.5165V49.5701H40.9707ZM48.9147 47.9598C49.1293 47.5303 49.3442 47.1008 49.6661 46.779C49.9959 46.4515 50.3766 46.1795 50.7933 45.9736C51.2228 45.7591 51.6523 45.6518 52.189 45.6518C52.8331 45.6518 53.3699 45.7591 53.853 46.0273C54.3362 46.2958 54.7656 46.618 55.1948 46.9935L56.4296 45.5981C56.1611 45.3299 55.8928 45.115 55.6243 44.9001C55.3561 44.6855 55.0339 44.5246 54.712 44.3636C54.3362 44.256 54.014 44.1487 53.5845 44.0414C53.1553 43.9878 52.7258 43.9342 52.2427 43.9342C51.3837 43.9342 50.686 44.0951 49.9883 44.3633C49.2906 44.6319 48.7002 45.0614 48.217 45.5445C47.7432 46.0665 47.362 46.6655 47.0898 47.3158C46.8085 47.9968 46.6626 48.726 46.6603 49.4629V49.5165C46.6603 50.2679 46.8213 50.9656 47.0898 51.6636C47.358 52.3617 47.7339 52.9517 48.217 53.4349C48.7002 53.918 49.2906 54.3475 49.9346 54.6157C50.614 54.9023 51.3444 55.0486 52.0818 55.0456C52.5649 55.0456 53.0477 55.0456 53.5308 54.9379C53.9067 54.8843 54.3362 54.723 54.658 54.5621C54.9802 54.4011 55.3024 54.2399 55.6243 53.9717C55.9465 53.7034 56.2147 53.4885 56.4833 53.1663L55.2488 51.9318C54.7656 52.3617 54.2825 52.6835 53.853 52.9517C53.4235 53.2203 52.8331 53.3276 52.189 53.3276C51.7059 53.3276 51.2228 53.1663 50.7933 53.0054C50.3641 52.8445 49.9883 52.5223 49.6661 52.2007C49.3442 51.8245 49.0757 51.4487 48.9147 50.9656C48.7538 50.4828 48.6462 49.9996 48.6462 49.4629V49.4092C48.6462 48.9261 48.7538 48.443 48.9147 47.9598ZM60.2407 44.1491V54.8843H62.1193V50.3755H67.2725V54.8843H69.151V44.1487H67.2725V48.6042H62.1193V44.1487H60.2407V44.1491ZM80.8525 52.308L81.926 54.8846H83.9119L79.1885 44.0954H77.4705L72.7472 54.8843H74.6797L75.8066 52.3077H80.8525V52.308ZM78.3295 46.3498L80.1544 50.6441H76.5046L78.3295 46.3498ZM15.7962 58.856H84.2341V58.2655H15.7962V58.856ZM55.1415 38.0829C55.1415 38.2975 55.0875 38.4588 55.0875 38.6737H84.2341V38.0829H55.1412H55.1415ZM43.1715 38.0829H15.7962V38.6737H43.2251C43.2251 38.4591 43.1711 38.2978 43.1711 38.0829H43.1715Z" fill="white"/>
</svg>
