<svg width="100" height="100" viewBox="0 0 100 100" fill="none" xmlns="http://www.w3.org/2000/svg">
<path d="M87.028 54.2597C87.028 55.1101 87.4376 55.7842 88.5836 55.7842C89.9318 55.7842 91.3681 54.8163 91.4545 52.6194C90.8254 52.5185 90.1902 52.4608 89.5532 52.4465C88.1998 52.4448 87.028 52.8251 87.028 54.2597Z" fill="white"/>
<path d="M0 34.0005V66.0703H100V34.0005H0ZM28.3087 58.1868H22.7776V50.7441C22.7776 48.459 22.0154 47.5793 20.522 47.5793C18.7054 47.5793 17.9725 48.8687 17.9725 50.7147V55.3193H19.7217V58.1903H14.1906V50.7441C14.1906 48.459 13.4301 47.5793 11.935 47.5793C10.1184 47.5793 9.38553 48.8687 9.38553 50.7147V55.3193H11.8987V58.1903H3.84063V55.3193H5.59848V47.8437H3.69717V44.9727H9.37862V46.9639C10.1702 45.5587 11.5478 44.7083 13.3921 44.7083C15.2934 44.7083 17.0547 45.6175 17.6994 47.5516C18.4323 45.7938 19.9257 44.7083 22.0067 44.7083C24.3799 44.7083 26.5491 46.1446 26.5491 49.2801V55.3193H28.307L28.3087 58.1868ZM36.7176 58.4789C32.6454 58.4789 29.8315 55.9882 29.8315 51.769C29.8315 47.9008 32.1753 44.7066 36.9181 44.7066C41.661 44.7066 43.9806 47.9008 43.9806 51.5927C43.9841 55.8136 40.9368 58.4806 36.7176 58.4806V58.4789ZM57.7564 58.1868H46.2103L45.8301 56.1939L53.0896 47.842H48.9586L48.3726 49.8937L45.6469 49.6016L46.1153 44.971H57.7305L58.0226 46.9639L50.694 55.3193H54.965L55.5803 53.2676L58.5688 53.5597L57.7564 58.1868ZM64.9053 58.1868H60.9489V53.4405H64.9053V58.1868ZM64.9053 49.7174H60.9489V44.9727H64.9053V49.7174ZM66.9795 58.1868L72.699 38.0347H76.4203L70.7061 58.1868H66.9795ZM74.6573 58.1868L80.3733 38.0347H84.0947L78.3839 58.1868H74.6573ZM94.3479 58.4789C92.5901 58.4789 91.6239 57.4522 91.4476 55.8413C90.6853 57.1895 89.3371 58.4789 87.199 58.4789C85.2977 58.4789 83.1268 57.4522 83.1268 54.6988C83.1268 51.4458 86.2622 50.6853 89.2801 50.6853C90.0049 50.6791 90.7294 50.7183 91.4493 50.8028V50.3638C91.4493 49.0156 91.4199 47.4047 89.2801 47.4047C88.4884 47.4047 87.8731 47.4635 87.2578 47.7849L86.7686 49.6603L83.7507 49.3371L84.3367 45.9096C86.6511 44.971 87.823 44.6996 89.9922 44.6996C92.8355 44.6996 95.2381 46.1654 95.2381 49.1833V54.9269C95.2381 55.6892 95.5302 55.9536 96.1472 55.9536C96.336 55.9508 96.5234 55.9212 96.7038 55.8655L96.7332 57.8584C96.0023 58.2565 95.1853 58.4701 94.3531 58.4806L94.3479 58.4789Z" fill="white"/>
<path d="M36.8628 47.6086C34.9287 47.6086 33.7274 49.0433 33.7274 51.5357C33.7274 53.8207 34.7818 55.5786 36.8386 55.5786C38.8022 55.5786 40.0916 53.997 40.0916 51.4769C40.0864 48.8099 38.6518 47.6086 36.8628 47.6086Z" fill="white"/>
</svg>
