<svg width="100" height="100" viewBox="0 0 100 100" fill="none" xmlns="http://www.w3.org/2000/svg">
<path d="M50.3968 15.9997C50.3968 15.9997 46.565 19.0277 42.6587 22.0353C38.6403 21.9077 30.7587 22.8074 26.4881 24.3606C22.554 21.8682 19.0972 19.1164 19.0972 19.1164C19.0972 19.1164 16.1433 24.1983 14.2857 27.1805C11.5307 28.6457 8.76477 30.2937 6.29958 32.4741C3.4323 31.3355 0.108483 29.9474 0 29.9015C3.79713 37.5605 6.34974 45.2295 13.2936 49.839C24.3486 32.3794 75.7204 33.9886 87.004 49.74C94.2962 45.9365 97.1322 37.7534 100 30.1983C99.6855 30.3019 95.7835 31.6083 93.254 32.573C91.7437 30.9288 88.1839 28.4008 86.1607 27.1805C84.2415 23.6662 81.4484 18.9186 81.4484 18.9186C81.4484 18.9186 78.1401 21.3791 74.3055 24.0637C69.1251 23.1074 62.8592 21.9455 57.5892 22.2332C54.0017 19.2845 50.3968 15.9997 50.3968 15.9997Z" fill="#F3D400"/>
<path d="M3.92596 46.178C3.92596 46.178 9.30786 59.2092 13.0456 68.2642C28.8841 89.1601 69.3292 90.6127 86.9611 68.6688C91.1336 59.2657 96.7626 46.0511 96.7626 46.0511C92.2392 52.7523 84.8775 57.3782 80.3436 59.87C77.1218 61.635 69.6881 62.7018 69.6881 62.7018L50.1716 52.5882L30.5431 62.4995C30.5431 62.4995 23.2082 61.3211 19.8876 59.7688C13.1857 56.1912 8.67813 51.9644 3.92596 46.178Z" fill="#FFE953"/>
</svg>
