<svg width="100" height="100" viewBox="0 0 100 100" fill="none" xmlns="http://www.w3.org/2000/svg">
<path d="M0 50C0 22.3858 22.3858 0 50 0C77.6142 0 100 22.3858 100 50C100 77.6142 77.6142 100 50 100C22.3858 100 0 77.6142 0 50Z" fill="#E8442E"/>
<path fill-rule="evenodd" clip-rule="evenodd" d="M25.4683 34.8563C26.7669 29.875 30.8861 26.0858 36.0058 25.1704C36.6764 25.0533 38.1985 25.0214 43.265 25.0107C49.5023 25.0001 49.6832 25.0107 49.7897 25.2023C49.8642 25.3513 49.8961 33.4833 49.8961 50.7477C49.8961 74.0366 49.8855 76.0909 49.7258 76.2505C49.5662 76.4102 48.9488 76.4208 42.9882 76.3783C37.2299 76.3463 36.3358 76.3144 35.6333 76.1547C30.2474 74.8988 26.4582 71.0989 25.2767 65.7663C25.0639 64.7764 25.0532 64.4784 25.0213 51.6631C24.9681 37.7089 25 36.6552 25.4683 34.8563ZM45.6386 72.2803L45.6386 50.7158L45.6386 29.1512L41.5194 29.1618C36.9638 29.1725 36.3145 29.2364 34.9095 29.8005C32.1101 30.9181 30.0346 33.3981 29.3959 36.3891C29.1724 37.4428 29.1724 63.9249 29.4066 64.9999C30.1197 68.4379 32.6636 71.0776 36.091 71.961C36.8893 72.1633 37.315 72.1846 41.3065 72.2271L45.6386 72.2803Z" fill="white"/>
<path d="M36.9212 35.6546C36.2506 35.7824 35.2288 36.2933 34.686 36.7722C33.5684 37.7408 33.0149 39.1139 33.1 40.7318C33.1426 41.5726 33.1958 41.7962 33.5364 42.4774C34.0367 43.5098 34.7924 44.2656 35.8249 44.7765C36.538 45.1277 36.719 45.1703 37.645 45.2022C38.4858 45.2342 38.7839 45.2022 39.348 45.0106C41.6577 44.2336 43.0521 41.9878 42.6583 39.6887C42.2006 36.9532 39.6035 35.1224 36.9212 35.6546Z" fill="white"/>
<path fill-rule="evenodd" clip-rule="evenodd" d="M55.0052 50.7158C55.0052 36.6445 55.0371 25.1065 55.0797 25.0746C55.1116 25.032 57.2404 25.0001 59.795 25.0001C63.499 25.0001 64.6486 25.032 65.3937 25.1597C70.9498 26.1177 75.1754 30.3007 76.2292 35.8462C76.3782 36.6232 76.3995 38.4433 76.3995 50.6519C76.3995 63.6943 76.415 65.2284 76.0038 66.638C75.9327 66.8815 75.849 67.1213 75.7502 67.4161C75.5692 67.9376 75.218 68.7785 74.9519 69.2787C72.8763 73.1851 69.0658 75.8141 64.7444 76.3037C63.7226 76.4102 55.4629 76.4527 55.1755 76.3463C55.0158 76.2824 55.0052 73.9301 55.0052 50.7158ZM70.0238 51.5779C69.4703 49.96 68.1079 48.6934 66.4474 48.257C63.7864 47.5652 61.019 49.0979 60.2207 51.7056C59.9546 52.5359 59.944 53.8983 60.1781 54.7072C60.9552 57.3469 63.7864 58.9541 66.4474 58.2623C68.0866 57.8259 69.3638 56.6444 70.0131 54.9627C70.3644 54.0473 70.375 52.5784 70.0238 51.5779Z" fill="white"/>
</svg>
