<svg width="100" height="100" viewBox="0 0 100 100" fill="none" xmlns="http://www.w3.org/2000/svg">
<path d="M100 50C100 77.6142 77.6142 100 50 100C22.3858 100 0 77.6142 0 50C0 22.3858 22.3858 0 50 0C77.6142 0 100 22.3858 100 50Z" fill="white"/>
<path d="M39.2422 41.8938L48.4603 19.7745L62.8811 54.8354L68.7883 44.2461L86.993 84.7211C95.2677 75.3093 99.9924 63.3087 99.9924 50.6012C100.468 23.3042 78.4819 0.47791 50.8227 0.00744586C23.171 -0.463018 0.47298 21.4198 0 48.9583V50.8377C0 63.3113 4.49079 75.3118 13.0019 84.7261L34.9854 35.0734L39.2422 41.8938Z" fill="#4687FF"/>
</svg>
