<svg width="100" height="100" viewBox="0 0 100 100" fill="none" xmlns="http://www.w3.org/2000/svg">
<path d="M50 100C77.6142 100 100 77.6142 100 50C100 22.3858 77.6142 0 50 0C22.3858 0 0 22.3858 0 50C0 77.6142 22.3858 100 50 100Z" fill="white"/>
<path fill-rule="evenodd" clip-rule="evenodd" d="M59.2921 18.8925L24.605 21.445C21.8081 21.6871 20.8333 23.5104 20.8333 25.6963V63.6076C20.8333 65.3109 21.4409 66.7667 22.902 68.7125L31.056 79.284C32.3953 80.9862 33.6125 81.3504 36.17 81.2285L76.4518 78.7978C79.8588 78.556 80.8333 76.9752 80.8333 74.3022V31.651C80.8333 30.2692 80.2862 29.8701 78.6733 28.6934C78.5846 28.6287 78.4926 28.5616 78.3973 28.4919L67.3248 20.7154C64.6476 18.772 63.5516 18.5275 59.2921 18.8925ZM37.0834 30.9514C33.7946 31.1733 33.0473 31.2237 31.1797 29.7076L26.4303 25.9409C25.9459 25.4538 26.1888 24.8462 27.405 24.7257L60.7527 22.2952C63.5511 22.0516 65.0112 23.0253 66.1072 23.8755L71.8268 28.0073C72.0703 28.1283 72.6778 28.8564 71.9473 28.8564L37.5079 30.9228L37.0834 30.9514ZM33.2474 73.9369V37.7276C33.2474 36.1483 33.7342 35.4187 35.1938 35.2961L74.7463 32.9882C76.0878 32.8667 76.6953 33.7179 76.6953 35.2961V71.2624C76.6953 72.8433 76.4513 74.1818 74.2598 74.3022L36.411 76.4905C34.2206 76.611 33.2474 75.883 33.2474 73.9369ZM70.6117 39.67C70.8543 40.7647 70.6117 41.8584 69.5142 41.9814L67.6905 42.3445V69.0766C66.1072 69.9269 64.6471 70.4131 63.4304 70.4131C61.4825 70.4131 60.9946 69.805 59.5355 67.9834L47.6069 49.2708V67.3758L51.3815 68.2269C51.3815 68.2269 51.3815 70.4131 48.3362 70.4131L39.9407 70.8997C39.6968 70.4131 39.9407 69.199 40.7923 68.9557L42.9831 68.349V44.4109L39.9412 44.1673C39.6973 43.0727 40.3049 41.4943 42.0099 41.3718L51.0164 40.7652L63.4304 59.7213V42.9521L60.2653 42.5891C60.0224 41.2508 60.9946 40.2791 62.2118 40.1586L70.6117 39.67Z" fill="black"/>
</svg>
