<svg width="100" height="100" viewBox="0 0 100 100" fill="none" xmlns="http://www.w3.org/2000/svg">
<path d="M51.8812 83.6333C51.6832 82.8412 52.0792 81.8511 51.6832 81.0591C51.4851 80.267 50.8911 80.267 50.6931 79.6729C49.901 78.0888 48.9109 76.3066 48.9109 74.3264C48.9109 72.7422 48.3168 71.1581 48.1188 69.5739C48.1188 68.7818 48.1188 67.9898 48.1188 67.1977C48.1188 66.8016 48.1188 66.4056 47.9208 66.0096C47.9208 65.8115 47.9208 65.4155 47.7228 65.4155L47.9208 64.8214C47.9208 64.6234 49.703 64.6234 50.297 64.6234C51.2871 64.6234 52.0792 64.6234 53.0693 64.8214C55.0495 64.8214 56.6337 64.8214 58.6139 64.6234C62.7723 64.0294 64.5545 62.2472 65.5446 61.6531C69.3069 59.0789 71.0891 54.5244 71.0891 54.5244C71.6832 53.1383 71.6832 50.564 73.0693 49.5739C74.6535 48.1878 77.2277 48.3858 79.0099 47.5937C80 47.1977 80.7921 46.8016 81.9802 46.9997C82.7723 47.1977 84.1584 48.1878 84.5545 46.8016C84.3564 46.6036 84.1584 46.4056 83.9604 46.2076C85.5446 46.0096 83.9604 42.6432 83.3663 41.8511C82.3762 40.861 80.9901 40.267 79.4059 39.8709C77.4258 39.2769 75.6436 38.6828 73.8614 39.0789C70.6931 39.6729 70.8911 37.8907 69.1089 37.8907C66.9307 37.8907 62.9703 38.0888 62.1782 40.267C61.7822 41.2571 61.5842 41.2571 60.9901 42.0492C60.5941 42.6432 60.9901 43.2373 60.7921 44.0294C60.5941 44.8214 60.198 47.5937 59.802 48.5838C59.2079 50.168 58.4158 52.1482 57.0297 52.1482C55.0495 52.3462 53.4653 52.5442 51.8812 51.9502C50.8911 51.5541 49.3069 50.9601 48.5149 50.762C44.7525 49.1779 44.1584 47.5937 44.1584 47.5937C43.7624 46.9997 42.7723 45.8115 42.3762 44.4254C41.9802 42.8412 41.1881 41.6531 40.9901 40.861C40.5941 40.069 40 38.6828 39.4059 37.2967C38.6139 35.5145 37.6238 34.1284 36.8317 33.5343C35.6436 32.5442 34.6535 30.9601 32.2772 31.3561C31.8812 31.3561 30.297 31.5541 29.1089 32.5442C28.3168 33.1383 28.1188 34.5244 27.3267 35.7125C26.9307 36.3066 26.1386 38.2868 25.5446 39.8709C25.1485 41.0591 24.9505 41.8511 24.3564 42.2472C23.9604 42.6432 23.5644 43.0393 22.9703 42.8412C22.5743 42.6432 22.1782 42.4452 21.7822 42.2472C21.1881 41.8511 20 39.6729 19.2079 38.2868C18.6139 36.9006 17.2277 34.9204 16.4356 33.9304C15.2475 32.3462 14.6535 31.9502 12.8713 31.9502C9.30693 31.9502 8.91089 33.9304 7.32673 36.9006C6.53465 38.2868 6.33663 40.267 4.9505 41.8511C4.35644 42.6432 1.78218 46.4056 0 46.9997V74.3264V74.1284C0.19802 73.7323 0.19802 73.3363 0.39604 73.1383C1.18812 71.7521 2.77228 70.366 3.56436 68.7818C3.9604 67.9898 4.55446 67.1977 4.9505 66.2076C5.14851 65.6135 5.34653 64.4254 5.74257 63.8313C6.13861 63.0393 6.93069 62.8412 7.72277 62.6432C9.10891 62.4452 10.099 64.4254 11.6832 65.2175C12.2772 65.6135 15.4455 66.6036 16.4356 66.8016C18.0198 67.1977 19.604 67.3957 21.1881 67.7917C21.9802 67.9898 22.7723 67.9898 23.7624 68.1878C24.5545 68.1878 27.5248 68.3858 27.5248 68.5838C26.1386 69.3759 25.1485 71.3561 24.5545 72.9402C23.9604 74.5244 23.5644 76.3066 22.9703 77.6927C22.1782 79.2769 20.5941 80.069 20.7921 82.0492C20.7921 82.8412 20.9901 83.6333 20.7921 84.4254C20.5941 85.4155 20.198 86.0096 20 86.9997C19.604 88.1878 19.2079 91.9502 18.8119 92.9403L21.9802 92.5442C22.3762 91.7521 22.5743 88.1878 22.7723 87.7917C23.3663 86.0096 24.1584 84.6234 25.3465 83.2373C26.5347 81.8511 26.5347 80.267 27.1287 78.6828C27.9208 76.9006 28.9109 75.7125 29.901 74.1284C31.6832 71.3561 32.8713 67.5937 36.4356 66.8016C36.8317 66.8016 39.0099 68.3858 40 69.3759C41.1881 70.564 42.3762 71.7521 43.1683 73.3363C44.5545 76.3066 45.9406 80.663 46.3366 82.8412C46.5347 84.2274 46.7327 84.2274 47.7228 85.4155C48.1188 85.8115 48.9109 87.3957 49.3069 87.9898C49.505 88.5838 50.099 89.97 50.297 90.762C50.495 91.1581 51.0891 92.5442 51.4851 93.7323H54.4554C53.2673 90.366 52.2772 86.9997 51.8812 83.6333Z" fill="white"/>
<path d="M50.2971 90.564C49.9011 89.7719 49.505 88.3858 49.307 87.7917C49.109 87.1976 48.1189 85.6135 47.7229 85.2174C46.7328 84.2273 46.5347 84.0293 46.3367 82.6432C45.9407 80.2669 44.5545 75.9105 43.1684 73.1382C42.3763 71.5541 41.1882 70.366 40.0001 69.1778C39.01 68.1877 36.8318 66.6036 36.4357 66.6036C32.6734 67.3957 31.6833 70.96 29.9011 73.9303C28.911 75.5145 27.9209 76.9006 27.1288 78.4848C26.3367 80.0689 26.5347 81.8511 25.3466 83.0392C24.1585 84.4254 23.3664 85.8115 22.7724 87.5937C22.5743 87.9897 22.3763 91.5541 21.9803 92.3461L27.5248 91.9501C32.6734 92.3462 31.0892 94.3264 39.208 93.9303L51.8813 93.5343C51.0892 92.3462 50.4951 90.96 50.2971 90.564Z" fill="url(#paint0_linear_755_15271)"/>
<path d="M87.1287 6.99963H12.4752C5.54455 6.99963 0 12.7422 0 19.6729V47.1977C1.78218 46.4056 4.35644 42.6432 5.14852 41.6531C6.53465 40.0689 6.73267 37.8907 7.52475 36.7026C9.10891 33.7323 9.50495 31.7521 13.0693 31.7521C14.8515 31.7521 15.4455 32.1481 16.6337 33.7323C17.4257 34.7224 18.8119 36.7026 19.4059 37.8907C20.198 39.4749 21.3861 41.4551 21.9802 41.8511C22.3762 42.2472 22.7723 42.4452 23.1683 42.4452C23.7624 42.6432 24.1584 42.2472 24.5545 41.8511C25.1485 41.4551 25.3465 40.663 25.7426 39.4749C26.3366 37.8907 27.1287 35.9105 27.5248 35.3165C28.3168 34.1283 28.5149 32.7422 29.3069 32.1481C30.495 31.158 31.8812 31.1581 32.4752 30.96C34.8515 30.564 35.8416 32.1481 37.0297 33.1382C37.8218 33.7323 38.8119 35.1184 39.604 36.9006C40.198 38.2868 40.9901 39.6729 41.1881 40.465C41.3861 41.2571 42.1782 42.4452 42.5743 44.0293C42.9703 45.4155 43.9604 46.4056 44.3564 47.1977C44.3564 47.1977 44.9505 48.9798 48.7129 50.366C49.505 50.762 51.0891 51.1581 52.0792 51.5541C53.6634 52.1481 55.2475 52.1482 57.2277 51.7521C58.6139 51.7521 59.4059 49.7719 60 48.1878C60.396 47.1977 60.7921 44.4254 60.9901 43.6333C61.1881 42.8412 60.5941 42.2472 61.1881 41.6531C61.7822 40.861 61.9802 40.861 62.3762 39.8709C62.9703 37.6927 67.1287 37.4947 69.3069 37.4947C71.0891 37.4947 70.8911 39.2769 74.0594 38.6828C75.8416 38.2868 77.6238 38.8808 79.604 39.4749C81.1881 39.8709 82.7723 40.465 83.5644 41.4551C84.1584 42.0491 85.5446 45.6135 84.1584 45.8115C84.3564 46.0095 84.3564 46.2076 84.7525 46.4056C84.3564 47.7917 82.9703 46.8016 82.1782 46.6036C81.1881 46.4056 80.396 46.6036 79.2079 47.1977C77.4257 47.9897 74.6535 47.9897 73.2673 49.1778C71.8812 50.366 71.8812 52.7422 71.2871 54.1283C71.2871 54.1283 69.505 58.6828 65.7426 61.2571C64.7525 62.0491 62.9703 63.6333 58.8119 64.2274C57.0297 64.4254 55.2475 64.6234 53.2673 64.4254C52.2772 64.4254 51.4851 64.4254 50.495 64.2274C49.901 64.2274 48.1188 64.2274 48.1188 64.4254L47.9208 65.0194C47.9208 65.2175 47.9208 65.6135 48.1188 65.6135C48.1188 66.0095 48.1188 66.4056 48.3168 66.8016C48.3168 67.5937 48.3168 68.3858 48.3168 69.1779C48.3168 70.762 48.9109 72.3462 49.1089 73.9303C49.1089 75.7125 50.099 77.6927 50.8911 79.2769C51.2871 79.8709 51.6832 79.8709 51.8812 80.663C52.0792 81.4551 51.8812 82.2472 52.0792 83.2373C52.4752 86.6036 53.4653 89.9699 55.0495 93.1382C56.8317 92.7422 58.8119 92.1481 61.1881 91.7521C65.5446 91.1581 71.6832 91.3561 75.6436 91.1581C85.5446 90.168 91.0891 95.3165 100 93.1382V19.6729C99.802 12.7422 94.2574 6.99963 87.1287 6.99963Z" fill="url(#paint1_linear_755_15271)"/>
<path d="M22.9703 77.6927C23.7624 76.1086 24.1584 74.5244 24.5545 72.9403C25.1485 71.3561 25.9406 69.3759 27.5248 68.5838C27.3267 68.3858 24.3564 68.1878 23.7624 68.1878C22.9703 68.1878 22.1782 67.9898 21.1881 67.7917C19.604 67.3957 17.8218 67.1977 16.4356 66.8016C15.4455 66.6036 12.4752 65.4155 11.6832 65.2175C10.099 64.4254 9.10891 62.4452 7.72277 62.6432C6.93069 62.8412 6.13861 63.0393 5.74257 63.8313C5.34653 64.4254 5.14851 65.6135 4.9505 66.4056C4.55446 67.1977 4.15842 68.1878 3.56436 68.9799C2.57426 70.564 0.990099 71.9502 0.39604 73.3363C0.19802 73.7323 0.19802 73.9304 0 74.3264V91.3561C0.792079 91.5541 1.58416 91.7521 2.57426 91.9502C9.50495 93.7323 11.2871 93.9304 18.2178 93.1383H18.8119C19.4059 91.9502 19.802 88.3858 20 87.1977C20.198 86.4056 20.5941 85.6135 20.7921 84.6234C20.9901 83.8313 20.7921 83.0393 20.7921 82.2472C20.5941 80.069 22.1782 79.2769 22.9703 77.6927Z" fill="url(#paint2_linear_755_15271)"/>
<defs>
<linearGradient id="paint0_linear_755_15271" x1="36.6082" y1="66.6628" x2="36.6082" y2="93.9806" gradientUnits="userSpaceOnUse">
<stop stop-color="#F29100"/>
<stop offset="1" stop-color="#EC670F"/>
</linearGradient>
<linearGradient id="paint1_linear_755_15271" x1="49.885" y1="7.04023" x2="49.885" y2="94.0335" gradientUnits="userSpaceOnUse">
<stop stop-color="#F29100"/>
<stop offset="1" stop-color="#EC670F"/>
</linearGradient>
<linearGradient id="paint2_linear_755_15271" x1="13.7537" y1="62.5941" x2="13.7537" y2="93.4329" gradientUnits="userSpaceOnUse">
<stop stop-color="#F29100"/>
<stop offset="1" stop-color="#EC670F"/>
</linearGradient>
</defs>
</svg>
