<svg width="100" height="100" viewBox="0 0 100 100" fill="none" xmlns="http://www.w3.org/2000/svg">
<path d="M0 50C0 22.3858 22.3858 0 50 0C77.6142 0 100 22.3858 100 50C100 77.6142 77.6142 100 50 100C22.3858 100 0 77.6142 0 50Z" fill="#F68634"/>
<path d="M55.4083 61.334L62.8805 68.5476C64.4112 70.0221 64.4112 72.4169 62.8805 73.8929C61.3513 75.369 58.8728 75.369 57.3453 73.8929L49.9986 66.8044L42.6584 73.8929C41.893 74.6302 40.8901 74.9992 39.8872 74.9992C38.8859 74.9992 37.8846 74.6302 37.1192 73.8929C35.59 72.4169 35.59 70.0236 37.1176 68.5476L44.5906 61.334C41.8698 60.7356 39.2458 59.695 36.8289 58.2313C34.9998 57.118 34.4504 54.7858 35.6028 53.0187C36.7521 51.2492 39.169 50.7166 41.0013 51.8298C46.4733 55.1525 53.5224 55.1533 58.9976 51.8298C60.8299 50.7166 63.246 51.2492 64.3976 53.0187C65.5501 54.7843 64.9991 57.118 63.17 58.2313C60.7531 59.6965 58.1291 60.7356 55.4083 61.334Z" fill="white"/>
<path fill-rule="evenodd" clip-rule="evenodd" d="M36.5995 37.9033C36.5995 45.0166 42.5946 50.8027 49.9661 50.8027C57.3391 50.8027 63.3326 45.0166 63.3326 37.9033C63.3326 30.7877 57.3391 25 49.9661 25C42.5946 25 36.5995 30.7877 36.5995 37.9033ZM55.5004 37.9033C55.5004 34.9573 53.018 32.5618 49.9661 32.5618C46.9165 32.5618 44.4317 34.9573 44.4317 37.9033C44.4317 40.847 46.9165 43.244 49.9661 43.244C53.018 43.244 55.5004 40.847 55.5004 37.9033Z" fill="white"/>
</svg>
