<svg width="100" height="100" viewBox="0 0 100 100" fill="none" xmlns="http://www.w3.org/2000/svg">
<path d="M58.9442 53.3113C58.9442 53.3113 80.3776 41.3012 80.7471 41.486C78.6983 33.483 73.5623 26.6177 66.4632 22.3929C59.3642 18.1681 50.8805 16.928 42.8692 18.944C35.3324 20.8469 28.7964 25.5343 24.5769 32.0627C24.7617 32.0627 58.9442 53.3113 58.9442 53.3113Z" fill="#0364B8"/>
<path d="M38.0652 35.7581C34.1165 33.3407 29.5764 32.0618 24.9465 32.0627H24.577C17.9628 32.1648 11.6595 34.8882 7.05181 39.6345C2.4441 44.3808 -0.0913061 50.7619 0.00251405 57.3762C0.0829034 62.3888 1.62404 67.2691 4.43701 71.4188L38.8043 67.9081L58.9443 48.5073L38.0652 35.7581Z" fill="#0F78D4"/>
<path d="M80.9321 41.486H79.6387C76.9018 41.4657 74.1925 42.0328 71.6935 43.1489L59.1292 48.3225L72.8022 63.4737L97.5614 71.234C98.8328 68.8825 99.6264 66.3027 99.8964 63.6432C100.166 60.9836 99.9076 58.297 99.1347 55.7379C98.3618 53.1789 97.0903 50.798 95.3932 48.7326C93.6962 46.6671 91.6072 44.9578 89.2467 43.7032C86.6457 42.4306 83.8214 41.6775 80.9321 41.486Z" fill="#1490DF"/>
<path d="M79.6386 60.7021L74.465 57.561L62.6397 50.5397L58.9443 48.3224L49.521 52.3874L31.2287 60.1478L22.9141 63.4736L4.43701 71.234C6.74752 74.5322 9.81646 77.2272 13.3856 79.0921C16.9547 80.9571 20.9196 81.9374 24.9465 81.9507H79.4538C83.1266 81.9302 86.7267 80.9252 89.8789 79.0403C93.0312 77.1555 95.6203 74.4597 97.3765 71.234L79.6386 60.7021Z" fill="#28A8EA"/>
</svg>
