<svg width="100" height="100" viewBox="0 0 100 100" fill="none" xmlns="http://www.w3.org/2000/svg">
<path d="M49.995 0C22.3803 0 0 22.3903 0 50.005C0 76.8236 21.1165 98.7063 47.6266 99.9502C48.4227 99.9901 49.2089 100.01 50.005 100.01C62.8122 100.01 74.485 95.1936 83.3317 87.2823C77.4704 91.1733 70.614 93.4023 63.2899 93.4023C51.3782 93.4023 40.7205 87.4913 33.5456 78.1769C28.0127 71.6589 24.4303 62.0062 24.1915 51.1792C24.1915 51.1494 24.1915 48.8506 24.1915 48.8208C24.4303 38.0038 28.0127 28.3511 33.5357 21.8231C40.7105 12.5087 51.3782 6.60762 63.2899 6.60762C70.614 6.60762 77.4704 8.84665 83.3317 12.7376C74.5248 4.85621 62.9217 0.0497562 50.1841 0C50.1244 0 50.0547 0 49.995 0Z" fill="url(#paint0_linear_147648_933)"/>
<path d="M33.5357 21.8233C38.1332 16.4098 44.0542 13.1458 50.5325 13.1458C65.0911 13.1458 76.8933 29.6549 76.8933 50.0052C76.8933 70.3654 65.0911 86.8646 50.5325 86.8646C44.0542 86.8646 38.1332 83.6006 33.5457 78.1871C40.7205 87.5015 51.3783 93.4125 63.2899 93.4125C70.614 93.4125 77.4705 91.1735 83.3317 87.2925C93.5616 78.1274 100 64.8226 100 50.0052C100 35.1978 93.5616 21.883 83.3218 12.7279C77.4605 8.83693 70.614 6.60785 63.2899 6.60785C51.3783 6.60785 40.7205 12.5189 33.5457 21.8332" fill="url(#paint1_linear_147648_933)"/>
<defs>
<linearGradient id="paint0_linear_147648_933" x1="1.28147" y1="1.63153" x2="1.28147" y2="98.5532" gradientUnits="userSpaceOnUse">
<stop stop-color="#FF1B2D"/>
<stop offset="0.3" stop-color="#FF1B2D"/>
<stop offset="0.61" stop-color="#FF1B2D"/>
<stop offset="1" stop-color="#A70014"/>
</linearGradient>
<linearGradient id="paint1_linear_147648_933" x1="33.9534" y1="7.34436" x2="33.9534" y2="93.0668" gradientUnits="userSpaceOnUse">
<stop stop-color="#9C0000"/>
<stop offset="0.7" stop-color="#FF4B4B"/>
<stop offset="1" stop-color="#FF4B4B"/>
</linearGradient>
</defs>
</svg>
