<svg width="100" height="100" viewBox="0 0 100 100" fill="none" xmlns="http://www.w3.org/2000/svg">
<path d="M99.9999 53.0037C100.005 52.2218 99.6013 51.494 98.9348 51.0851H98.9231L98.8813 51.0619L64.2301 30.5503C64.0805 30.4492 63.9252 30.3568 63.765 30.2735C62.4271 29.5833 60.8378 29.5833 59.4999 30.2735C59.3396 30.3568 59.1844 30.4492 59.0347 30.5503L24.3837 51.0619L24.3419 51.0851C23.2828 51.7437 22.9581 53.1362 23.6167 54.1952C23.8107 54.5073 24.078 54.7672 24.3953 54.9526L59.0465 75.4642C59.1966 75.5644 59.3519 75.6568 59.5116 75.741C60.8495 76.4312 62.4388 76.4312 63.7767 75.741C63.9365 75.6568 64.0917 75.5645 64.2419 75.4642L98.893 54.9526C99.5852 54.549 100.008 53.8051 99.9999 53.0037Z" fill="#0A2767"/>
<path d="M28.4232 39.3085H51.1627V60.1526H28.4232V39.3085ZM95.3488 18.1201V8.58521C95.4034 6.20127 93.5164 4.22375 91.1325 4.16663H32.1233C29.7393 4.22375 27.8523 6.20127 27.907 8.58521V18.1201L62.7906 27.4224L95.3488 18.1201Z" fill="#0364B8"/>
<path d="M27.9069 18.1201H51.1627V39.0503H27.9069V18.1201Z" fill="#0078D4"/>
<path d="M74.4185 18.1201H51.1627V39.0503L74.4185 59.9805H95.3488V39.0503L74.4185 18.1201Z" fill="#28A8EA"/>
<path d="M51.1627 39.0503H74.4185V59.9805H51.1627V39.0503Z" fill="#0078D4"/>
<path d="M51.1627 59.9806H74.4185V80.9108H51.1627V59.9806Z" fill="#0364B8"/>
<path d="M28.4232 60.1526H51.1627V79.1014H28.4232V60.1526Z" fill="#14447D"/>
<path d="M74.4186 59.9806H95.3488V80.9108H74.4186V59.9806Z" fill="#0078D4"/>
<path d="M98.9348 54.8247L98.8906 54.848L64.2395 74.3363C64.0883 74.4293 63.9348 74.5177 63.7743 74.5968C63.1858 74.877 62.5466 75.0353 61.8953 75.0619L60.0022 73.9549C59.8423 73.8746 59.687 73.7853 59.5371 73.6875L24.4209 53.6456H24.4046L23.2558 53.0038V92.4549C23.2737 95.087 25.4213 97.2065 28.0534 97.1898H95.2766C95.3162 97.1898 95.3511 97.1712 95.3929 97.1712C95.9489 97.1357 96.4969 97.0213 97.0208 96.8317C97.2472 96.7358 97.4657 96.6222 97.6743 96.4922C97.8301 96.4038 98.0975 96.2108 98.0975 96.2108C99.2888 95.3292 99.994 93.937 99.9998 92.455V53.0038C99.9991 53.7584 99.5921 54.4541 98.9348 54.8247Z" fill="url(#paint0_linear_147648_937)"/>
<path opacity="0.5" d="M98.1395 52.8479V55.2666L61.907 80.213L24.3953 53.6619C24.3953 53.6491 24.3849 53.6386 24.3721 53.6386L20.9302 51.5689V49.8247L22.3488 49.8014L25.3488 51.5223L25.4185 51.5456L25.6743 51.7084C25.6743 51.7084 60.9301 71.8247 61.0232 71.8712L62.372 72.6618C62.4883 72.6153 62.6045 72.5688 62.7441 72.5223C62.8139 72.4758 97.744 52.8246 97.744 52.8246L98.1395 52.8479Z" fill="#0A2767"/>
<path d="M98.9348 54.8247L98.8906 54.8503L64.2395 74.3386C64.0883 74.4316 63.9348 74.52 63.7743 74.5991C62.4286 75.2565 60.8549 75.2565 59.5092 74.5991C59.3498 74.5202 59.1946 74.4332 59.0441 74.3386L24.393 54.8503L24.3512 54.8247C23.6822 54.462 23.2628 53.7648 23.2558 53.0038V92.4549C23.2725 95.0866 25.4194 97.2064 28.051 97.1898C28.051 97.1898 28.0511 97.1898 28.0512 97.1898H95.2046C97.8363 97.2066 99.9832 95.0868 99.9999 92.4551C99.9999 92.4551 99.9999 92.455 99.9999 92.4549V53.0038C99.9991 53.7584 99.5921 54.4541 98.9348 54.8247Z" fill="#1490DF"/>
<path opacity="0.1" d="M64.7441 74.0503L64.2255 74.341C64.0752 74.4367 63.92 74.5244 63.7604 74.6038C63.189 74.8842 62.5678 75.0487 61.9325 75.0875L75.1162 90.6782L98.1139 96.22C98.7441 95.744 99.2453 95.1181 99.5721 94.3991L64.7441 74.0503Z" fill="black"/>
<path opacity="0.05" d="M67.093 72.7294L64.2255 74.341C64.0752 74.4367 63.92 74.5244 63.7604 74.6038C63.189 74.8842 62.5678 75.0486 61.9325 75.0875L68.1092 92.1177L98.1208 96.213C99.3032 95.3254 99.9992 93.9334 99.9999 92.4549V91.9456L67.093 72.7294Z" fill="black"/>
<path d="M28.1163 97.1898H95.1976C96.2298 97.195 97.2366 96.869 98.0697 96.2596L59.9999 73.9596C59.84 73.8793 59.6847 73.79 59.5348 73.6922L24.4186 53.6503H24.4023L23.2558 53.0038V92.32C23.2532 95.007 25.4293 97.1872 28.1163 97.1898C28.1162 97.1898 28.1162 97.1898 28.1163 97.1898Z" fill="#28A8EA"/>
<path opacity="0.1" d="M55.8139 27.0341V76.6388C55.8098 78.378 54.7522 79.9412 53.1395 80.5923C52.6399 80.807 52.1018 80.9178 51.5581 80.9179H23.2558V25.0969H27.907V22.7714H51.5581C53.9075 22.7803 55.8088 24.6847 55.8139 27.0341Z" fill="black"/>
<path opacity="0.2" d="M53.4883 29.3596V78.9642C53.4942 79.526 53.3751 80.0821 53.1395 80.5921C52.4936 82.184 50.9504 83.2284 49.2325 83.2363H23.2558V25.0969H49.2325C49.9073 25.0901 50.5723 25.2584 51.1627 25.5853C52.5883 26.3035 53.4878 27.7634 53.4883 29.3596Z" fill="black"/>
<path opacity="0.2" d="M53.4883 29.3596V74.3131C53.477 76.6614 51.5808 78.5648 49.2326 78.5852H23.2558V25.0969H49.2325C49.9073 25.0901 50.5723 25.2584 51.1627 25.5853C52.5883 26.3035 53.4878 27.7634 53.4883 29.3596Z" fill="black"/>
<path opacity="0.2" d="M51.1627 29.3597V74.3132C51.1602 76.6652 49.2589 78.5737 46.9069 78.5852H23.2558V25.0969H46.9069C49.2586 25.0982 51.164 27.0057 51.1627 29.3574C51.1627 29.3582 51.1627 29.3589 51.1627 29.3597Z" fill="black"/>
<path d="M4.26277 25.0969H46.9C49.2542 25.0969 51.1627 27.0055 51.1627 29.3597V71.9969C51.1627 74.3512 49.2542 76.2596 46.9 76.2596H4.26277C1.90849 76.2596 0 74.3511 0 71.9969V29.3597C0 27.0055 1.90854 25.0969 4.26277 25.0969Z" fill="url(#paint1_linear_147648_937)"/>
<path d="M13.3232 42.9759C14.3739 40.7375 16.0697 38.8642 18.193 37.5969C20.5445 36.2506 23.2218 35.5795 25.9302 35.6573C28.4405 35.6029 30.9175 36.2392 33.0907 37.4968C35.134 38.7153 36.7796 40.5007 37.8279 42.6364C38.9695 44.9896 39.5385 47.5794 39.4884 50.1945C39.5437 52.9275 38.9583 55.6354 37.7791 58.1014C36.7058 60.3134 35.008 62.1624 32.8954 63.42C30.6384 64.7162 28.0694 65.3693 25.4675 65.3084C22.9036 65.3703 20.372 64.7268 18.1488 63.4479C16.0879 62.2278 14.4216 60.4404 13.3489 58.2991C12.2005 55.9799 11.6247 53.4192 11.6698 50.8317C11.622 48.122 12.1872 45.4365 13.3232 42.9759ZM18.5139 55.6038C19.0741 57.0189 20.024 58.2462 21.2535 59.1433C22.5057 60.0186 24.0052 60.4701 25.5325 60.4317C27.159 60.496 28.7623 60.0291 30.1 59.1015C31.3138 58.2072 32.2388 56.9765 32.7604 55.5619C33.3435 53.9821 33.6313 52.3085 33.6092 50.6247C33.6273 48.9248 33.3568 47.2342 32.8092 45.6247C32.3256 44.1717 31.4305 42.8904 30.2325 41.9364C28.9284 40.9648 27.3294 40.4721 25.7046 40.541C24.1442 40.5006 22.6111 40.9557 21.3255 41.841C20.0753 42.7419 19.1074 43.9801 18.5348 45.4108C17.2648 48.6902 17.2582 52.3244 18.5162 55.6084L18.5139 55.6038Z" fill="white"/>
<path d="M74.4186 18.1201H95.3488V39.0503H74.4186V18.1201Z" fill="#50D9FF"/>
<defs>
<linearGradient id="paint0_linear_147648_937" x1="61.6279" y1="53.0038" x2="61.6279" y2="97.1899" gradientUnits="userSpaceOnUse">
<stop stop-color="#35B8F1"/>
<stop offset="1" stop-color="#28A8EA"/>
</linearGradient>
<linearGradient id="paint1_linear_147648_937" x1="8.888" y1="21.7661" x2="42.2747" y2="79.5905" gradientUnits="userSpaceOnUse">
<stop stop-color="#1784D9"/>
<stop offset="0.5" stop-color="#107AD5"/>
<stop offset="1" stop-color="#0A63C9"/>
</linearGradient>
</defs>
</svg>
