<svg width="100" height="100" viewBox="0 0 100 100" fill="none" xmlns="http://www.w3.org/2000/svg">
<path d="M1 11.458C1 5.12969 6.13008 -0.000366211 12.4583 -0.000366211H88.5001C94.8282 -0.000366211 99.9583 5.12969 99.9583 11.458V88.5412C99.9583 94.8696 94.8282 99.9996 88.5001 99.9996H12.4583C6.13008 99.9996 1 94.8696 1 88.5412V11.458Z" fill="#F6E458"/>
<path d="M64.4168 22.3522C58.957 20.7839 53.388 20.5707 47.713 21.0783C44.5371 21.4083 41.484 22.0387 38.5389 23.1449C32.1734 25.536 27.3941 29.6771 24.5441 35.9123C22.501 40.3824 21.7626 45.1307 21.6856 50.0029C21.6043 55.1515 22.2495 60.2292 23.2748 65.2634C24.2041 69.8263 25.4417 74.3 27.2092 78.6185C27.3771 79.0288 27.5863 79.1671 28.0345 79.1662C33.6245 79.1542 39.2148 79.1542 44.8051 79.1542C46.4598 79.1542 48.1148 79.1542 49.7698 79.1539C49.8965 79.1539 50.0232 79.147 50.169 79.139C50.2433 79.1351 50.3226 79.1306 50.4094 79.1267C50.3759 79.0467 50.346 78.9734 50.3175 78.9045C50.2624 78.7692 50.2142 78.6515 50.1603 78.5362C49.7561 77.6714 49.3434 76.8105 48.9308 75.9493C48.0358 74.0814 47.141 72.2135 46.3316 70.309C43.8765 64.5337 41.9966 58.587 41.4229 52.2924C41.1698 49.5151 41.2049 46.7537 41.9756 44.0473C42.8563 40.9538 44.7464 38.7699 47.8801 37.8569C50.7577 37.0188 53.6755 37.0242 56.5372 37.9498C59.0915 38.7756 60.7567 40.5205 61.4652 43.1328C62.0092 45.1391 62.0089 47.1669 61.5975 49.1896C61.2804 50.7467 60.6426 52.1679 59.4942 53.3046C57.4341 55.3438 54.8615 55.8127 52.101 55.6564C51.6099 55.6285 51.1203 55.5749 50.6158 55.5192C50.3795 55.4935 50.1399 55.4671 49.8953 55.4429C49.9022 55.521 49.9061 55.5929 49.91 55.6603C49.9169 55.7929 49.9231 55.9079 49.9504 56.0178C50.0681 56.4906 50.1804 56.9652 50.2924 57.4399C50.5625 58.5831 50.8326 59.7264 51.1796 60.8457C51.8617 63.0436 52.6544 65.1888 53.5533 67.2831C59.9608 66.7831 65.8622 65.1903 72.1259 61.4302C72.2199 61.371 72.3056 61.3174 72.3912 61.264C75.0817 59.589 77.2592 57.4162 78.761 54.6104C81.193 50.0667 81.667 45.2076 80.9445 40.1923C80.1989 35.0161 77.8761 30.6715 73.8773 27.2636C71.1042 24.8999 67.8972 23.352 64.4168 22.3522Z" fill="black"/>
</svg>
