<svg width="100" height="100" viewBox="0 0 100 100" fill="none" xmlns="http://www.w3.org/2000/svg">
<path d="M50 100C77.6142 100 100 77.6142 100 50C100 22.3858 77.6142 0 50 0C22.3858 0 0 22.3858 0 50C0 77.6142 22.3858 100 50 100Z" fill="#F76754"/>
<path d="M26.6667 71.6667H35V28.3334H26.6667V71.6667Z" fill="#002C49"/>
<path d="M56.6927 28.3334C65.8683 28.3334 73.3333 35.821 73.3333 45.0251C73.3333 54.2013 65.8683 61.6667 56.6927 61.6667C47.4882 61.6667 40 54.2013 40 45.0251C40 35.821 47.4882 28.3334 56.6927 28.3334Z" fill="white"/>
</svg>
