<svg width="100" height="100" viewBox="0 0 100 100" fill="none" xmlns="http://www.w3.org/2000/svg">
<path d="M0 50C0 22.3858 22.3858 0 50 0C77.6142 0 100 22.3858 100 50C100 77.6142 77.6142 100 50 100C22.3858 100 0 77.6142 0 50Z" fill="white"/>
<path d="M42.11 75.2567L42.9817 69.72L41.04 69.675H31.7683L38.2117 28.82C38.2317 28.6967 38.2967 28.5817 38.3917 28.5C38.4867 28.4183 38.6083 28.3733 38.735 28.3733H54.3683C59.5583 28.3733 63.14 29.4533 65.01 31.585C65.8867 32.585 66.445 33.63 66.715 34.78C66.9983 35.9867 67.0033 37.4283 66.7267 39.1867L66.7067 39.315V40.4417L67.5833 40.9383C68.3217 41.33 68.9083 41.7783 69.3583 42.2917C70.1083 43.1467 70.5933 44.2333 70.7983 45.5217C71.01 46.8467 70.94 48.4233 70.5933 50.2083C70.1933 52.2617 69.5467 54.05 68.6733 55.5133C67.87 56.8617 66.8467 57.98 65.6317 58.8467C64.4717 59.67 63.0933 60.295 61.535 60.695C60.025 61.0883 58.3033 61.2867 56.415 61.2867H55.1983C54.3283 61.2867 53.4833 61.6 52.82 62.1617C52.155 62.735 51.715 63.5183 51.58 64.375L51.4883 64.8733L49.9483 74.6317L49.8783 74.99C49.86 75.1033 49.8283 75.16 49.7817 75.1983C49.74 75.2333 49.68 75.2567 49.6217 75.2567H42.11V75.2567Z" fill="#253B80"/>
<path d="M68.4133 39.445V39.445V39.445C68.3667 39.7433 68.3133 40.0483 68.2533 40.3617C66.1917 50.9467 59.1383 54.6033 50.13 54.6033H45.5433C44.4417 54.6033 43.5133 55.4033 43.3417 56.49V56.49V56.49L40.9933 71.3833L40.3283 75.605C40.2167 76.3183 40.7667 76.9617 41.4867 76.9617H49.6217C50.585 76.9617 51.4033 76.2617 51.555 75.3117L51.635 74.8983L53.1667 65.1783L53.265 64.645C53.415 63.6917 54.235 62.9917 55.1983 62.9917H56.415C64.2967 62.9917 70.4667 59.7917 72.27 50.5317C73.0233 46.6633 72.6333 43.4333 70.64 41.1617C70.0367 40.4767 69.2883 39.9083 68.4133 39.445V39.445Z" fill="#179BD7"/>
<path d="M66.2567 38.585C65.9417 38.4933 65.6167 38.41 65.2833 38.335C64.9483 38.2617 64.605 38.1967 64.2517 38.14C63.015 37.94 61.66 37.845 60.2083 37.845H47.955C47.6533 37.845 47.3667 37.9133 47.11 38.0367C46.545 38.3083 46.125 38.8433 46.0233 39.4983L43.4167 56.0083L43.3417 56.49C43.5133 55.4033 44.4417 54.6033 45.5433 54.6033H50.13C59.1383 54.6033 66.1917 50.945 68.2533 40.3617C68.315 40.0483 68.3667 39.7433 68.4133 39.445C67.8917 39.1683 67.3267 38.9317 66.7183 38.73C66.5683 38.68 66.4133 38.6317 66.2567 38.585V38.585Z" fill="#222D65"/>
<path d="M47.11 38.0383C47.3683 37.915 47.6533 37.8467 47.955 37.8467H60.2083C61.66 37.8467 63.015 37.9417 64.2517 38.1417C64.605 38.1983 64.9483 38.2633 65.2833 38.3367C65.6167 38.4117 65.9417 38.495 66.2567 38.5867C66.4133 38.6333 66.5683 38.6817 66.72 38.73C67.3283 38.9317 67.8933 39.17 68.415 39.445C69.0283 35.5333 68.41 32.87 66.295 30.4583C63.9633 27.8033 59.755 26.6667 54.37 26.6667H38.7367C37.6367 26.6667 36.6983 27.4667 36.5283 28.555L30.0167 69.83C29.8883 70.6467 30.5183 71.3833 31.3417 71.3833H40.9933L43.4167 56.0083L46.0233 39.4983C46.125 38.8433 46.545 38.3083 47.11 38.0383Z" fill="#253B80"/>
</svg>
