<svg width="100" height="100" viewBox="0 0 100 100" fill="none" xmlns="http://www.w3.org/2000/svg">
<path d="M50 100C77.6142 100 100 77.6142 100 50C100 22.3858 77.6142 0 50 0C22.3858 0 0 22.3858 0 50C0 77.6142 22.3858 100 50 100Z" fill="#34A4C6"/>
<path d="M50.9735 79.4492C55.624 79.4492 74.0548 58.5466 74.0548 44.5326C74.0548 31.1181 63.5729 20 50.9735 20C37.714 20 27.2327 31.1181 27.2327 44.5326C27.2327 58.5466 45.6635 79.4492 50.9735 79.4492Z" fill="white"/>
<path d="M51.051 57.2815C58.5137 57.2815 64.894 50.9662 64.894 43.5783C64.894 35.3843 58.5137 29.0685 51.051 29.0685C42.7733 29.0685 36.3935 35.3843 36.3935 43.5783C36.3935 50.9662 42.7733 57.2815 51.051 57.2815Z" fill="#D85444"/>
<path d="M45.0453 40.1521C48.137 40.1521 50.6435 37.6711 50.6435 34.6106C50.6435 31.5494 48.137 29.0685 45.0453 29.0685C41.9536 29.0685 39.4472 31.5494 39.4472 34.6106C39.4472 37.6711 41.9536 40.1521 45.0453 40.1521Z" fill="white"/>
</svg>
