<svg width="100" height="100" viewBox="0 0 100 100" fill="none" xmlns="http://www.w3.org/2000/svg">
<path d="M50 99.5902C77.6142 99.5902 100 77.2961 100 49.7951C100 22.294 77.6142 0 50 0C22.3858 0 0 22.294 0 49.7951C0 77.2961 22.3858 99.5902 50 99.5902Z" fill="white"/>
<path d="M50 0C22.3868 0 0 22.2951 0 49.7951C0 70.9016 13.1687 88.9344 31.7695 96.1885C31.3169 92.2541 30.9465 86.1885 31.9342 81.8852C32.8395 77.9918 37.7778 57.1311 37.7778 57.1311C37.7778 57.1311 36.2963 54.1393 36.2963 49.7541C36.2963 42.8279 40.3292 37.6639 45.3498 37.6639C49.6296 37.6639 51.6872 40.8607 51.6872 44.6721C51.6872 48.9344 48.9712 55.3279 47.5309 61.2705C46.3374 66.2295 50.0412 70.2869 54.9383 70.2869C63.8272 70.2869 70.6584 60.9426 70.6584 47.5C70.6584 35.5738 62.0576 27.2541 49.7531 27.2541C35.5144 27.2541 27.1605 37.8689 27.1605 48.8525C27.1605 53.1148 28.8066 57.7049 30.8642 60.2049C31.2757 60.6967 31.3169 61.1475 31.1934 61.6393C30.823 63.1967 29.9588 66.5984 29.7942 67.2951C29.5885 68.1967 29.0535 68.4016 28.107 67.9508C21.8519 65.041 17.9424 55.9836 17.9424 48.6475C17.9424 32.9508 29.3827 18.5246 50.9877 18.5246C68.3128 18.5246 81.8107 30.8197 81.8107 47.2951C81.8107 64.4672 70.9465 78.2787 55.8848 78.2787C50.823 78.2787 46.0494 75.6557 44.4444 72.541C44.4444 72.541 41.9342 82.0492 41.3169 84.3852C40.2058 88.7295 37.1605 94.1393 35.1029 97.459C39.7942 98.8934 44.7325 99.6721 49.9177 99.6721C77.5309 99.6721 99.9177 77.377 99.9177 49.877C100 22.2951 77.6132 0 50 0Z" fill="#E60019"/>
</svg>
