<svg width="100" height="100" viewBox="0 0 100 100" fill="none" xmlns="http://www.w3.org/2000/svg">
<path d="M50.2752 -0.000366211C29.6881 -0.000366211 13 16.6878 13 37.2748C13 37.6783 13.007 38.0783 13.0209 38.4783V74.2997C13.0209 74.2997 13.0209 74.3031 13.0209 74.3066V77.9482C13.0209 77.9482 13.0209 77.9482 13.0243 77.9447V86.9496C13.0243 87.0192 13.0209 87.0853 13.0209 87.1549C13.0209 87.2244 13.0243 87.294 13.0278 87.3635V87.5305H13.0313C13.2296 94.4485 18.8954 99.9961 25.8622 99.9961C32.8289 99.9961 38.5539 94.4485 38.7522 87.5305V74.3066H49.4022C49.6909 74.3136 49.9831 74.317 50.2718 74.317C70.8589 74.317 87.547 57.862 87.547 37.2748C87.547 16.6878 70.8624 -0.000366211 50.2752 -0.000366211ZM50.2752 48.5788C47.9971 48.5788 42.2233 48.5788 39.8269 48.5788H38.7626V37.2783C38.7626 30.9447 43.9415 25.8074 50.2752 25.8074C56.6089 25.8074 61.7461 30.9447 61.7461 37.2783C61.7461 43.612 56.6089 48.5823 50.2752 48.5823V48.5788Z" fill="#E72264"/>
<path opacity="0.15" d="M25.5387 74.3135H38.7348V87.5339H38.6756C38.4774 94.452 32.8115 99.9996 25.8448 99.9996C18.8781 99.9996 13.2087 94.452 13.0104 87.5339H13.007V87.367C13.007 87.2974 13 87.2279 13 87.1583C13 87.0887 13.0035 87.0227 13.0035 86.9531V86.021C13.4 79.8333 19.2398 74.3135 25.5352 74.3135H25.5387Z" fill="#1D1D1B"/>
<g opacity="0.05">
<path opacity="0.5" d="M13.0209 58.4115V74.3066C13.0209 60.3036 24.7874 48.7771 38.7556 48.5858V43.5146C28.3734 44.6068 19.1807 50.1962 13.0209 58.4115Z" fill="black"/>
<path d="M13.0417 86.268C16.0747 84.042 19.7546 82.7307 23.7266 82.7307H38.7591V74.3066H25.8796C19.0763 74.3066 13.5148 79.583 13.0417 86.268Z" fill="black"/>
</g>
<g opacity="0.05">
<path opacity="0.5" d="M38.7556 48.5858V43.9807C28.2864 45.0068 19.0485 50.7179 13.0209 59.1037V74.3066C13.0209 60.3036 24.7874 48.7771 38.7556 48.5858Z" fill="black"/>
<path d="M25.8796 74.3066C19.2607 74.3066 13.8139 79.3047 13.0905 85.7323C16.1199 83.3672 19.8624 81.969 23.9214 81.969H38.7557V74.3101H25.8761L25.8796 74.3066Z" fill="black"/>
</g>
<g opacity="0.05">
<path opacity="0.5" d="M38.7556 48.5858V44.4433C28.1925 45.3998 18.8955 51.25 13.0209 59.8236V74.3031C13.0209 60.3001 24.7874 48.7736 38.7556 48.5823V48.5858Z" fill="black"/>
<path d="M25.8796 74.3066C19.445 74.3066 14.12 79.0265 13.16 85.1932C16.1721 82.6924 19.9772 81.2003 24.1162 81.2003H38.7557V74.3066H25.8761H25.8796Z" fill="black"/>
</g>
<g opacity="0.05">
<path opacity="0.5" d="M38.7556 48.5858V44.9094C28.0847 45.7928 18.725 51.803 13.0209 60.5853V74.3066C13.0209 60.3036 24.7874 48.7771 38.7556 48.5858Z" fill="black"/>
<path d="M25.8796 74.3066C19.6293 74.3066 14.4226 78.7621 13.2539 84.668C16.2416 82.0281 20.0989 80.4351 24.3144 80.4351H38.7591V74.3066H25.8796Z" fill="black"/>
</g>
<g opacity="0.05">
<path opacity="0.5" d="M38.7556 48.5858V45.3789C27.9595 46.1789 18.5268 52.3769 13.0209 61.3888V74.3066C13.0209 60.3036 24.7874 48.7771 38.7556 48.5858Z" fill="black"/>
<path d="M25.8796 74.3066C19.8172 74.3066 14.7391 78.4977 13.3722 84.1358C16.3182 81.3602 20.2241 79.6664 24.5092 79.6664H38.7557V74.3031H25.8761L25.8796 74.3066Z" fill="black"/>
</g>
<g opacity="0.05">
<path opacity="0.5" d="M38.7556 48.5857V45.8484C27.8169 46.5649 18.2937 52.9752 13.0209 62.2514V74.3066C13.0209 60.3036 24.7874 48.777 38.7556 48.5857Z" fill="black"/>
<path d="M25.8796 74.3066C20.0085 74.3066 15.0625 78.2369 13.5148 83.6037C16.4086 80.6925 20.3528 78.9012 24.7074 78.9012H38.7591V74.3066H25.8796Z" fill="black"/>
</g>
<g opacity="0.05">
<path opacity="0.5" d="M38.7556 48.5857V46.3215C27.6499 46.9441 18.019 53.6117 13.0209 63.187V74.3066C13.0209 60.3036 24.7874 48.777 38.7556 48.5857Z" fill="black"/>
<path d="M25.8795 74.3066C20.2067 74.3066 15.3929 77.9795 13.6782 83.075C16.5059 80.0316 20.4884 78.136 24.8987 78.136H38.7556V74.3066H25.8761H25.8795Z" fill="black"/>
</g>
<g opacity="0.05">
<path opacity="0.5" d="M38.7556 48.5857V46.798C27.4447 47.3197 17.6851 54.3003 13.0209 64.2269V74.3066C13.0209 60.3036 24.7874 48.777 38.7556 48.5857Z" fill="black"/>
<path d="M25.8796 74.3066C20.4015 74.3066 15.7269 77.7325 13.8661 82.5567C16.6173 79.3777 20.6241 77.3708 25.097 77.3708H38.7591V74.3066H25.8796Z" fill="black"/>
</g>
<g opacity="0.05">
<path opacity="0.5" d="M38.7556 48.5857V47.2849C27.1839 47.6988 17.2573 55.0725 13.0209 65.4339V74.3066C13.0209 60.3036 24.7874 48.777 38.7556 48.5857Z" fill="black"/>
<path d="M25.8795 74.3066C20.5997 74.3066 16.0642 77.4891 14.0817 82.0385C16.7355 78.7238 20.7701 76.6056 25.2952 76.6056H38.7591V74.3066H25.8795Z" fill="black"/>
</g>
</svg>
