<svg width="100" height="100" viewBox="0 0 100 100" fill="none" xmlns="http://www.w3.org/2000/svg">
<path d="M35.4449 54.5253C32.2234 55.4396 30.1099 57.0426 28.7176 58.6443C30.0511 57.4773 31.8374 56.4063 34.2469 55.7233C36.7114 55.0248 38.8139 55.0298 40.5511 55.3651V54.0066C39.0691 53.8711 37.3701 53.9791 35.4449 54.5253ZM28.5704 43.1053L16.6063 46.2573C16.6063 46.2573 16.8243 46.5653 17.2281 46.9763L27.3721 44.3033C27.3721 44.3033 27.2284 46.1556 25.9801 47.8126C28.3414 46.0261 28.5704 43.1053 28.5704 43.1053ZM38.5851 71.2231C21.7484 75.7578 12.8407 56.2458 10.1438 46.1183C8.89779 41.4436 8.35387 37.9031 8.20889 35.6183C8.19332 35.3811 8.20052 35.1811 8.21729 34.9978C7.34389 35.0506 6.92574 35.5046 7.01082 36.8166C7.15579 39.1001 7.69972 42.6403 8.94572 47.3166C11.6414 57.4426 20.5504 76.9546 37.3871 72.4198C41.0519 71.4326 43.8051 69.6343 45.8719 67.3388C43.9669 69.0593 41.5826 70.4143 38.5851 71.2231ZM41.7491 31.1638V32.3621H48.3531C48.2176 31.9378 48.0811 31.5556 47.9456 31.1638H41.7491Z" fill="#2D4552"/>
<path d="M49.8292 41.0324C52.7992 41.8759 54.3699 43.9581 55.2002 45.8009L58.5117 46.7414C58.5117 46.7414 58.0599 40.2921 52.2264 38.6351C46.7692 37.0846 43.4109 41.6674 43.0024 42.2604C44.5899 41.1294 46.9082 40.2034 49.8292 41.0324ZM76.1894 45.8306C70.7272 44.2731 67.3702 48.8654 66.9677 49.4501C68.5564 48.3204 70.8734 47.3941 73.7932 48.2269C76.7584 49.0716 78.3279 51.1514 79.1607 52.9953L82.4769 53.9394C82.4769 53.9394 82.0179 47.4888 76.1894 45.8306ZM72.8994 62.8351L45.3519 55.1339C45.3519 55.1339 45.6502 56.6459 46.7944 58.6036L69.9882 65.0876C71.8977 63.9828 72.8994 62.8351 72.8994 62.8351ZM53.8007 79.4118C31.9884 73.5638 34.6254 45.7721 38.1549 32.6026C39.6082 27.1754 41.1022 23.1414 42.3412 20.4374C41.6019 20.2852 40.9897 20.6746 40.3847 21.905C39.0692 24.5731 37.3869 28.9173 35.7589 34.9988C32.2304 48.1681 29.5934 75.9589 51.4047 81.8069C61.6854 84.5611 69.6944 80.3751 75.6647 73.8011C69.9977 78.9338 62.7624 81.8116 53.8007 79.4118Z" fill="#2D4552"/>
<path d="M41.7492 64.7104V59.1021L26.167 63.5206C26.167 63.5206 27.3185 56.8306 35.445 54.5254C37.9095 53.8269 40.0122 53.8316 41.7492 54.1671V31.1639H49.5512C48.7017 28.5389 47.88 26.5179 47.1897 25.1136C46.048 22.7894 44.8774 24.3301 42.2202 26.5526C40.3487 28.1161 35.6187 31.4516 28.5009 33.3696C21.3831 35.2889 15.6287 34.7799 13.2277 34.3641C9.82397 33.7769 8.04362 33.0294 8.21017 35.6184C8.35512 37.9019 8.89907 41.4424 10.1451 46.1184C12.8407 56.2446 21.7497 75.7566 38.5864 71.2219C42.9844 70.0369 46.0887 67.6946 48.2405 64.7091H41.7492V64.7104ZM16.6051 46.2574L28.5704 43.1054C28.5704 43.1054 28.2217 47.7084 23.7361 48.8909C19.2493 50.0721 16.6051 46.2574 16.6051 46.2574Z" fill="#E2574C"/>
<path d="M86.7804 31.4299C83.6701 31.9751 76.2084 32.6544 66.9869 30.1826C57.7629 27.7124 51.6429 23.392 49.2181 21.3612C45.7809 18.4822 44.2689 16.4814 42.7809 19.5078C41.4654 22.1771 39.7831 26.5214 38.1549 32.6029C34.6266 45.7721 31.9896 73.5629 53.8006 79.4109C75.6071 85.2539 87.2164 59.8664 90.7449 46.6959C92.3731 40.6156 93.0871 36.0114 93.2836 33.0426C93.5076 29.6796 91.1976 30.6559 86.7804 31.4299ZM42.9581 42.3254C42.9581 42.3254 46.3954 36.9794 52.2251 38.6364C58.0586 40.2934 58.5104 46.7426 58.5104 46.7426L42.9581 42.3254ZM57.1889 66.3146C46.9346 63.3109 45.3531 55.1339 45.3531 55.1339L72.8994 62.8354C72.8994 62.8341 67.3391 69.2809 57.1889 66.3146ZM66.9281 49.5101C66.9281 49.5101 70.3606 44.1679 76.1894 45.8296C82.0179 47.4891 82.4769 53.9384 82.4769 53.9384L66.9281 49.5101Z" fill="#2EAD33"/>
<path d="M36.3039 60.6464L26.167 63.5194C26.167 63.5194 27.2682 57.2464 34.7357 54.7604L28.9957 33.2189L28.4997 33.3696C21.3819 35.2891 15.6275 34.7799 13.2265 34.3641C9.82278 33.7771 8.04243 33.0294 8.20895 35.6186C8.35393 37.9021 8.89785 41.4424 10.1439 46.1186C12.8396 56.2446 21.7485 75.7566 38.5852 71.2219L39.0812 71.0661L36.3039 60.6464ZM16.6051 46.2576L28.5704 43.1054C28.5704 43.1054 28.2217 47.7084 23.7361 48.8909C19.2493 50.0721 16.6051 46.2576 16.6051 46.2576Z" fill="#D65348"/>
<path d="M57.6514 66.4271L57.1876 66.3144C46.9334 63.3109 45.3519 55.1339 45.3519 55.1339L59.5564 59.1044L67.0766 30.2066L66.9856 30.1826C57.7616 27.7124 51.6419 23.392 49.2169 21.3612C45.7796 18.4822 44.2676 16.4814 42.7796 19.5078C41.4654 22.1771 39.7831 26.5214 38.1549 32.6029C34.6266 45.7721 31.9896 73.5628 53.8006 79.4106L54.2476 79.5114L57.6514 66.4271ZM42.9581 42.3254C42.9581 42.3254 46.3954 36.9794 52.2251 38.6364C58.0586 40.2934 58.5104 46.7426 58.5104 46.7426L42.9581 42.3254Z" fill="#1D8D22"/>
<path d="M36.8203 60.4991L34.1018 61.2706C34.7441 64.8911 35.8761 68.3656 37.6528 71.4351C37.9621 71.3668 38.2688 71.3081 38.5838 71.2218C39.4093 70.9991 40.1748 70.7233 40.9118 70.4226C38.9266 67.4766 37.6133 64.0836 36.8203 60.4991ZM35.7588 34.9991C34.3618 40.2131 33.1121 47.7178 33.4561 55.2453C34.0718 54.9781 34.7223 54.7291 35.4448 54.5241L35.9481 54.4116C35.3346 46.3711 36.6608 38.1776 38.1548 32.6028C38.5336 31.1926 38.9133 29.8808 39.2918 28.6576C38.6821 29.0456 38.0256 29.4433 37.2778 29.8531C36.7736 31.4096 36.2643 33.1108 35.7588 34.9991Z" fill="#C04B41"/>
</svg>
