<svg width="100" height="100" viewBox="0 0 100 100" fill="none" xmlns="http://www.w3.org/2000/svg">
<path d="M38.8889 10.4167L38.8889 82.984L54.377 88.1945L54.377 27.3267C54.377 24.4771 55.5828 22.5723 57.5055 23.2341C60.0381 23.9763 60.5328 26.6054 60.5328 29.455L60.5328 53.7633C70.1799 58.6995 77.7778 53.7604 77.7778 40.7075C77.7778 27.3267 73.3337 21.389 60.218 16.6167C55.0628 14.7746 45.4692 11.7074 38.8889 10.4167" fill="black"/>
<path d="M58.3333 78.9865L83.5862 69.8651C86.4424 68.8282 86.8871 67.3609 84.5639 66.5897C82.2351 65.8157 78.0191 66.041 75.1543 67.0808L58.3333 73.0827V63.5223L59.3025 63.1931C59.3025 63.1931 64.1655 61.4514 71.004 60.686C77.8395 59.9206 86.2115 60.7842 92.7792 63.3086C100.188 65.6857 101.023 69.1777 99.1444 71.5837C97.2574 73.9896 92.6452 75.7082 92.6452 75.7082L58.3333 88.1945V78.9865" fill="black"/>
<path d="M7.92704 74.362C-0.399649 72.1263 -1.78795 67.4705 1.99946 64.7883C5.51545 62.3086 11.4711 60.4361 11.4711 60.4361L36.1111 52.083V61.6031L18.3845 67.661C15.246 68.7386 14.7687 70.2479 17.3113 71.0457C19.8602 71.8435 24.4712 71.6173 27.6066 70.5396L36.1111 67.6015V76.1213C35.5683 76.2165 34.9661 76.3059 34.4139 76.3952C25.9032 77.7228 16.8465 77.1721 7.92704 74.362" fill="black"/>
</svg>
