<svg width="100" height="100" viewBox="0 0 100 100" fill="none" xmlns="http://www.w3.org/2000/svg">
<path d="M50.3018 0.000488281L93.6035 25.0005V75.0005L50.3018 100L7 75.0005V25.0005L50.3018 0.000488281Z" fill="#673AB8"/>
<path d="M18.7946 74.5871C24.5511 81.9551 42.8457 76.3411 60.1174 62.8469C77.389 49.353 87.2621 32.9602 81.5057 25.5918C75.749 18.2238 57.4546 23.8381 40.183 37.332C22.9113 50.8266 13.0382 67.219 18.7946 74.5871ZM21.254 72.6656C19.3447 70.2224 20.1789 65.4254 23.8159 59.3865C27.6461 53.0275 34.1478 46.0076 42.1042 39.7914C50.0609 33.5752 58.4448 28.9646 65.5416 26.7867C72.2811 24.7187 77.1373 25.0698 79.0463 27.5133C80.9556 29.9568 80.1214 34.7539 76.4844 40.7928C72.6542 47.1517 66.1525 54.1713 58.1962 60.3878C50.2395 66.604 41.8552 71.2146 34.7588 73.3922C28.0192 75.4606 23.163 75.1091 21.254 72.6656Z" fill="white"/>
<path d="M81.5057 74.5871C87.2625 67.219 77.389 50.8263 60.1174 37.332C42.8457 23.8381 24.5507 18.2238 18.7946 25.5918C13.0379 32.9599 22.9113 49.353 40.183 62.8469C57.4546 76.3411 75.749 81.9555 81.5057 74.5871ZM79.0463 72.6656C77.1373 75.1094 72.2811 75.4606 65.5416 73.3922C58.4448 71.2146 50.0609 66.604 42.1045 60.3878C34.1478 54.1713 27.6458 47.1517 23.8163 40.7928C20.1789 34.7539 19.3447 29.9572 21.2537 27.5133C23.163 25.0698 28.0193 24.7187 34.7584 26.7867C41.8552 28.9646 50.2395 33.5752 58.1958 39.7914C66.1525 46.0076 72.6542 53.0275 76.4841 59.3865C80.1214 65.425 80.9557 70.2217 79.0463 72.6656Z" fill="white"/>
<path d="M50.1502 56.7214C53.8129 56.7214 56.7818 53.7522 56.7818 50.0895C56.7818 46.4271 53.8129 43.4579 50.1502 43.4579C46.4875 43.4579 43.5182 46.4271 43.5182 50.0895C43.5182 53.7522 46.4875 56.7214 50.1502 56.7214Z" fill="white"/>
</svg>
