<svg width="100" height="100" viewBox="0 0 100 100" fill="none" xmlns="http://www.w3.org/2000/svg">
<path d="M57.5898 16.547C59.3475 14.7892 59.3475 11.9394 57.5898 10.1817C55.8321 8.42395 52.9822 8.42395 51.2245 10.1817C49.4668 11.9394 49.4668 14.7892 51.2245 16.547C52.9822 18.3047 55.8321 18.3047 57.5898 16.547Z" fill="white"/>
<path d="M70.3168 29.2733C72.2697 27.3204 72.2697 24.1542 70.3168 22.2013C68.3639 20.2484 65.1977 20.2484 63.2448 22.2013C61.2919 24.1542 61.2919 27.3204 63.2448 29.2733C65.1977 31.2262 68.3639 31.2262 70.3168 29.2733Z" fill="white"/>
<path d="M83.0418 42.0017C85.1896 39.854 85.1896 36.3717 83.0418 34.224C80.894 32.0762 77.4118 32.0762 75.264 34.224C73.1162 36.3717 73.1162 39.854 75.264 42.0017C77.4118 44.1495 80.894 44.1495 83.0418 42.0017Z" fill="white"/>
<path d="M95.757 54.7149C98.0999 52.372 98.0999 48.5733 95.757 46.2304C93.414 43.8875 89.6154 43.8875 87.2725 46.2304C84.9295 48.5733 84.9295 52.372 87.2725 54.7149C89.6154 57.0578 93.414 57.0578 95.757 54.7149Z" fill="white"/>
<path d="M32.5031 16.1941C34.0659 14.6312 34.0659 12.0974 32.5031 10.5346C30.9402 8.97173 28.4064 8.97173 26.8435 10.5346C25.2807 12.0974 25.2807 14.6312 26.8435 16.1941C28.4064 17.7569 30.9402 17.7569 32.5031 16.1941Z" fill="white"/>
<path d="M45.228 28.9199C46.9857 27.1622 46.9857 24.3124 45.228 22.5547C43.4703 20.7969 40.6204 20.7969 38.8627 22.5547C37.105 24.3124 37.105 27.1622 38.8627 28.9199C40.6204 30.6777 43.4703 30.6777 45.228 28.9199Z" fill="white"/>
<path d="M57.9439 41.6357C59.8967 39.6829 59.8967 36.5166 57.9439 34.5637C55.991 32.6108 52.8247 32.6108 50.8718 34.5637C48.919 36.5166 48.919 39.6829 50.8718 41.6357C52.8247 43.5886 55.991 43.5886 57.9439 41.6357Z" fill="white"/>
<path d="M70.6649 54.355C72.8126 52.2072 72.8126 48.7249 70.6649 46.5772C68.5171 44.4294 65.0349 44.4294 62.8871 46.5772C60.7393 48.725 60.7393 52.2072 62.8871 54.355C65.0349 56.5027 68.5171 56.5027 70.6649 54.355Z" fill="white"/>
<path d="M83.3952 67.0905C85.7381 64.7476 85.7381 60.9489 83.3952 58.606C81.0523 56.2631 77.2536 56.2631 74.9107 58.606C72.5678 60.9489 72.5678 64.7476 74.9107 67.0905C77.2536 69.4334 81.0523 69.4334 83.3952 67.0905Z" fill="white"/>
<path d="M7.42872 15.8539C8.7964 14.4862 8.7964 12.2688 7.42872 10.9011C6.06105 9.53343 3.84361 9.53343 2.47594 10.9011C1.10826 12.2688 1.10826 14.4862 2.47594 15.8539C3.84361 17.2216 6.06105 17.2216 7.42872 15.8539Z" fill="white"/>
<path d="M20.1373 28.5611C21.7002 26.9983 21.7002 24.4645 20.1373 22.9016C18.5745 21.3388 16.0407 21.3388 14.4778 22.9016C12.915 24.4645 12.915 26.9983 14.4778 28.5611C16.0407 30.124 18.5745 30.124 20.1373 28.5611Z" fill="white"/>
<path d="M32.8682 41.2955C34.6259 39.5378 34.6259 36.6879 32.8682 34.9302C31.1105 33.1725 28.2606 33.1725 26.5029 34.9302C24.7452 36.6879 24.7452 39.5378 26.5029 41.2955C28.2606 43.0532 31.1105 43.0532 32.8682 41.2955Z" fill="white"/>
<path d="M45.5887 54.0153C47.5415 52.0624 47.5415 48.8961 45.5887 46.9432C43.6358 44.9904 40.4695 44.9904 38.5167 46.9432C36.5638 48.8961 36.5638 52.0624 38.5167 54.0153C40.4695 55.9681 43.6358 55.9681 45.5887 54.0153Z" fill="white"/>
<path d="M58.3077 66.7378C60.4555 64.5901 60.4555 61.1078 58.3077 58.9601C56.1599 56.8123 52.6777 56.8123 50.5299 58.9601C48.3821 61.1078 48.3821 64.5901 50.5299 66.7378C52.6777 68.8856 56.1599 68.8856 58.3077 66.7378Z" fill="white"/>
<path d="M71.0202 79.4424C73.3632 77.0995 73.3632 73.3009 71.0202 70.9579C68.6773 68.615 64.8787 68.615 62.5357 70.9579C60.1928 73.3009 60.1928 77.0995 62.5357 79.4424C64.8787 81.7854 68.6773 81.7854 71.0202 79.4424Z" fill="white"/>
<path d="M32.5044 65.6596C34.0672 64.0968 34.0672 61.5629 32.5044 60.0001C30.9415 58.4372 28.4077 58.4372 26.8449 60.0001C25.282 61.5629 25.282 64.0968 26.8449 65.6596C28.4077 67.2224 30.9415 67.2224 32.5044 65.6596Z" fill="white"/>
<path d="M17.3096 79.199C19.5198 79.199 21.3115 77.4073 21.3115 75.1971C21.3115 72.987 19.5198 71.1953 17.3096 71.1953C15.0994 71.1953 13.3077 72.987 13.3077 75.1971C13.3077 77.4073 15.0994 79.199 17.3096 79.199Z" fill="white"/>
<path d="M4.94649 91.5739C7.15667 91.5739 8.94837 89.7822 8.94837 87.5721C8.94837 85.3619 7.15667 83.5702 4.94649 83.5702C2.73631 83.5702 0.944611 85.3619 0.944611 87.5721C0.944611 89.7822 2.73631 91.5739 4.94649 91.5739Z" fill="white"/>
<path d="M29.6766 91.5674C31.8868 91.5674 33.6785 89.7757 33.6785 87.5655C33.6785 85.3553 31.8868 83.5636 29.6766 83.5636C27.4664 83.5636 25.6747 85.3553 25.6747 87.5655C25.6747 89.7757 27.4664 91.5674 29.6766 91.5674Z" fill="white"/>
<path d="M57.2431 90.4042C58.8059 88.8414 58.8059 86.3075 57.2431 84.7447C55.6802 83.1819 53.1464 83.1819 51.5835 84.7447C50.0207 86.3075 50.0207 88.8414 51.5835 90.4042C53.1464 91.967 55.6802 91.967 57.2431 90.4042Z" fill="white"/>
<path d="M44.8714 78.0253C46.4342 76.4625 46.4342 73.9286 44.8714 72.3658C43.3086 70.803 40.7747 70.803 39.2119 72.3658C37.6491 73.9286 37.6491 76.4625 39.2119 78.0253C40.7747 79.5881 43.3086 79.5881 44.8714 78.0253Z" fill="white"/>
</svg>
