<svg width="100" height="100" viewBox="0 0 100 100" fill="none" xmlns="http://www.w3.org/2000/svg">
<path fill-rule="evenodd" clip-rule="evenodd" d="M9.77386 68.639C8.75652 67.0344 8.74115 64.9904 9.73424 63.3703L47.1259 2.37686C49.2057 -1.01557 54.2275 -0.718944 55.8935 2.89469L90.0526 76.9939C91.3198 79.7433 89.861 82.9781 86.961 83.8481L33.824 99.7893C31.686 100.43 29.3825 99.5711 28.1874 97.6859L9.77386 68.639ZM51.4401 20.2108C51.8004 18.4165 54.2589 18.1578 54.985 19.8377L78.5475 74.36C78.9908 75.3866 78.4389 76.5705 77.3673 76.8902L40.6538 87.8497C39.3043 88.2524 38.0116 87.0734 38.2889 85.6924L51.4401 20.2108Z" fill="white"/>
</svg>
