<svg width="100" height="100" viewBox="0 0 100 100" fill="none" xmlns="http://www.w3.org/2000/svg">
<path d="M100 50C100 77.6142 77.6142 100 50 100C22.3858 100 0 77.6142 0 50C0 22.3858 22.3858 0 50 0C77.6142 0 100 22.3858 100 50" fill="#DA552F"/>
<path fill-rule="evenodd" clip-rule="evenodd" d="M32.8125 25L57.2812 25.0004V25C67.0671 25 75 32.835 75 42.5C75 52.165 67.0671 60 57.2812 60V60.0004H42.9375V75H32.8125V25ZM57.2813 50.0004V50C61.4751 50 64.875 46.6421 64.875 42.5C64.875 38.3579 61.4751 35 57.2813 35V35.0004H42.9375V50.0004H57.2813Z" fill="white"/>
</svg>
