<svg width="100" height="100" viewBox="0 0 100 100" fill="none" xmlns="http://www.w3.org/2000/svg">
<path d="M17.7083 1.00049H82.2917C92.0833 1.00049 100 8.91715 100 18.7088V80.7922C100 90.5838 92.0833 98.5005 82.2917 98.5005H17.7083C7.91667 98.5005 0 90.5838 0 80.7922V18.7088C0 8.91715 7.91667 1.00049 17.7083 1.00049Z" fill="#001E36"/>
<path d="M22.5 69.3755V26.5005C22.5 26.2088 22.625 26.0422 22.9167 26.0422C23.625 26.0422 24.2917 26.0422 25.25 26.0005C26.25 25.9588 27.2917 25.9588 28.4167 25.9172C29.5417 25.8755 30.75 25.8755 32.0417 25.8338C33.3333 25.7922 34.5833 25.7922 35.8333 25.7922C39.25 25.7922 42.0833 26.2088 44.4167 27.0838C46.5 27.7922 48.4167 28.9588 50 30.5005C51.3333 31.8338 52.375 33.4588 53.0417 35.2505C53.6667 37.0005 54 38.7922 54 40.6672C54 44.2505 53.1667 47.2088 51.5 49.5422C49.8333 51.8755 47.5 53.6255 44.7917 54.6255C41.9583 55.6672 38.8333 56.0422 35.4167 56.0422C34.4167 56.0422 33.75 56.0422 33.3333 56.0005C32.9167 55.9588 32.3333 55.9588 31.5417 55.9588V69.3338C31.5833 69.6255 31.375 69.8755 31.0833 69.9172C31.0417 69.9172 31 69.9172 30.9167 69.9172H23C22.6667 69.9172 22.5 69.7505 22.5 69.3755ZM31.5833 34.0838V48.0838C32.1667 48.1255 32.7083 48.1672 33.2083 48.1672H35.4167C37.0417 48.1672 38.6667 47.9172 40.2083 47.4172C41.5417 47.0422 42.7083 46.2505 43.625 45.2088C44.5 44.1672 44.9167 42.7505 44.9167 40.9172C44.9583 39.6255 44.625 38.3338 43.9583 37.2088C43.25 36.1255 42.25 35.2922 41.0417 34.8338C39.5 34.2088 37.8333 33.9588 36.125 34.0005C35.0417 34.0005 34.0833 34.0005 33.2917 34.0422C32.4583 34.0005 31.875 34.0422 31.5833 34.0838Z" fill="#31A8FF"/>
<path d="M80 45.5422C78.75 44.8755 77.4167 44.4172 76 44.1255C74.4583 43.7922 72.9167 43.5838 71.3333 43.5838C70.5 43.5422 69.625 43.6672 68.8333 43.8755C68.2917 44.0005 67.8333 44.2922 67.5417 44.7088C67.3333 45.0422 67.2083 45.4588 67.2083 45.8338C67.2083 46.2088 67.375 46.5838 67.625 46.9172C68 47.3755 68.5 47.7505 69.0417 48.0422C70 48.5422 71 49.0005 72 49.4172C74.25 50.1672 76.4167 51.2088 78.4167 52.4588C79.7917 53.3338 80.9167 54.5005 81.7083 55.9172C82.375 57.2505 82.7083 58.7088 82.6667 60.2088C82.7083 62.1672 82.125 64.1255 81.0417 65.7505C79.875 67.4172 78.25 68.7088 76.375 69.4588C74.3333 70.3338 71.8333 70.7922 68.8333 70.7922C66.9167 70.7922 65.0417 70.6255 63.1667 70.2505C61.7083 70.0005 60.25 69.5422 58.9167 68.9172C58.625 68.7505 58.4167 68.4588 58.4583 68.1255V60.8755C58.4583 60.7505 58.5 60.5838 58.625 60.5005C58.75 60.4172 58.875 60.4588 59 60.5422C60.625 61.5005 62.3333 62.1672 64.1667 62.5838C65.75 63.0005 67.4167 63.2088 69.0833 63.2088C70.6667 63.2088 71.7917 63.0005 72.5417 62.6255C73.2083 62.3338 73.6667 61.6255 73.6667 60.8755C73.6667 60.2922 73.3333 59.7505 72.6667 59.2088C72 58.6672 70.625 58.0422 68.5833 57.2505C66.4583 56.5005 64.5 55.5005 62.6667 54.2505C61.375 53.3338 60.2917 52.1255 59.5 50.7088C58.8333 49.3755 58.5 47.9172 58.5417 46.4588C58.5417 44.6672 59.0417 42.9588 59.9583 41.4172C61 39.7505 62.5417 38.4172 64.3333 37.5838C66.2917 36.5838 68.75 36.1255 71.7083 36.1255C73.4167 36.1255 75.1667 36.2505 76.875 36.5005C78.125 36.6672 79.3333 37.0005 80.4583 37.4588C80.625 37.5005 80.7917 37.6672 80.875 37.8338C80.9167 38.0005 80.9583 38.1672 80.9583 38.3338V45.1255C80.9583 45.2922 80.875 45.4588 80.75 45.5422C80.375 45.6255 80.1667 45.6255 80 45.5422Z" fill="#31A8FF"/>
</svg>
