<svg width="100" height="100" viewBox="0 0 100 100" fill="none" xmlns="http://www.w3.org/2000/svg">
<path d="M83.6781 38.2006C83.522 34.7664 83.9903 31.7225 82.4293 29.1469C78.6829 22.7469 69.317 19.0005 50.5852 19.0005V19.5468H50.195H50.5852V19.0005C31.8534 19.0005 22.0192 22.7469 18.2729 29.2249C16.7899 31.8786 16.946 34.8445 16.7119 38.2787C16.5558 41.0104 15.307 43.8982 15.8533 47.0202C16.4777 51.0788 16.7119 55.1373 17.3363 58.8837C17.8046 61.9276 22.0192 64.5032 22.4095 67.3911C23.5022 75.3521 31.7754 79.0204 50.5072 79.0204V79.6448H50.0389H50.5852V79.0204C69.317 79.0204 77.2781 75.3521 78.2927 67.3911C78.6829 64.4252 82.5854 61.9276 83.0537 58.8837C83.6781 55.1373 83.9122 51.0788 84.5366 47.0202C85.083 43.8982 83.8342 40.9323 83.6781 38.2006Z" fill="#EFCCA3"/>
<path d="M50.2731 41.0103C53.6292 41.0883 55.9707 43.1956 58.156 45.1469C60.7317 47.4103 65.1024 48.9713 66.8976 50.9225C68.6927 52.8737 71.0342 54.825 71.8927 57.8689C72.7513 60.9128 72.9854 64.8153 72.9854 65.8299C72.9854 66.8446 73.5318 66.6104 75.0928 65.8299C78.7611 64.0348 82.8196 59.1957 82.8196 59.1957C82.3513 62.2397 78.3708 64.9714 77.9806 67.8592C77.044 75.8202 69.3171 79.6447 50.195 79.6447H50.117H50.5853" fill="#CCAC8D"/>
<path d="M62.6049 34.9224C63.3073 37.342 65.8049 45.5371 60.9658 42.8054C60.9658 42.8054 62.9951 43.9761 64.2439 48.425C65.5707 52.8738 68.7707 53.4201 68.7707 53.4201C68.7707 53.4201 74 54.4348 77.9025 51.0786C81.1806 48.2689 81.7269 43.2737 80.322 39.4493C78.9171 35.7029 76.4196 34.5322 72.7512 33.7517C69.0829 32.8931 61.7463 32.1907 62.6049 34.9224Z" fill="#CCAC8D"/>
<path d="M71.8927 50.6884C75.686 50.6884 78.7611 47.6133 78.7611 43.82C78.7611 40.0267 75.686 36.9517 71.8927 36.9517C68.0995 36.9517 65.0244 40.0267 65.0244 43.82C65.0244 47.6133 68.0995 50.6884 71.8927 50.6884Z" fill="black"/>
<path d="M70.0977 42.5712C71.0891 42.5712 71.8928 41.7675 71.8928 40.7761C71.8928 39.7847 71.0891 38.981 70.0977 38.981C69.1062 38.981 68.3025 39.7847 68.3025 40.7761C68.3025 41.7675 69.1062 42.5712 70.0977 42.5712Z" fill="white"/>
<path d="M61.4341 43.5078C61.4341 43.5078 67.6 47.7225 70.9561 51.8591C74.3122 55.9957 74.2342 56.7762 74.2342 56.7762L71.8147 57.8689C71.8147 57.8689 68.3805 51.3908 64.1658 48.9713C59.8731 46.5517 59.4048 44.5225 59.4048 44.5225L61.4341 43.5078Z" fill="#EFCCA3"/>
<path d="M50.5072 41.0103C47.1511 41.0883 44.6535 43.1956 42.3901 45.1469C39.8145 47.4103 35.2876 48.9713 33.4925 50.9225C31.6973 52.8737 29.2778 54.825 28.4193 57.8689C27.5607 60.9128 27.2485 64.8153 27.2485 65.8299C27.2485 66.8446 27.4046 66.9226 25.1412 65.8299C21.4729 64.1129 17.4143 59.1957 17.4143 59.1957C17.8826 62.2397 21.8631 64.9714 22.2534 67.8592C23.3461 75.8202 31.0729 79.6447 50.195 79.6447H50.5853" fill="#CCAC8D"/>
<path d="M68.6147 54.2006C64.8683 49.5957 58.8585 45.303 50.5073 45.303H50.4292C42.0779 45.303 36.0681 49.5957 32.3217 54.2006C28.4193 58.9616 28.7315 60.8348 28.7315 65.3616C28.7315 81.7519 34.5071 77.069 38.3315 79.0983C42.234 81.0495 46.2926 80.4251 50.4292 80.4251H50.5073C54.7219 80.4251 58.7024 80.9714 62.6049 79.0202C66.4293 77.069 72.205 81.908 72.205 65.5177C72.283 60.9909 72.5172 58.9616 68.6147 54.2006Z" fill="#56332B"/>
<path d="M50.117 49.3616C50.117 49.3616 49.5707 56.9325 48.478 58.4154L50.5073 57.9471L50.117 49.3616Z" fill="#442823"/>
<path d="M50.6633 49.3616C50.6633 49.3616 51.2096 56.9325 52.3023 58.4154L50.2731 57.9471L50.6633 49.3616Z" fill="#442823"/>
<path d="M44.1072 47.5664C43.3267 45.7713 46.1365 42.8835 50.5853 42.8054C55.0341 42.8054 57.8439 45.6932 57.0634 47.5664C56.2829 49.4396 53.4731 49.9859 50.5853 50.064C47.7755 49.9859 44.8877 49.4396 44.1072 47.5664Z" fill="#56332B"/>
<path d="M50.5852 49.3616C50.5852 49.0494 53.2389 48.9713 54.6438 48.0347C54.6438 48.0347 51.756 48.9713 51.1316 48.5811C50.5072 48.2689 50.3511 47.3323 50.3511 47.3323C50.3511 47.3323 50.1169 48.2689 49.6487 48.5811C49.1023 48.8933 45.8243 48.0347 45.8243 48.0347C45.8243 48.0347 50.195 49.1274 50.195 49.3616C50.195 49.5957 50.1169 50.3762 50.1169 50.9225C50.1169 52.8738 50.1169 57.7128 50.4291 58.1031C50.8974 58.8055 50.7413 52.8738 50.7413 50.9225C50.6633 50.2981 50.6633 49.6738 50.5852 49.3616Z" fill="black"/>
<path d="M50.7414 59.8201C52.0682 59.8201 54.4097 60.7567 56.517 62.2396C54.4877 59.9762 52.0682 58.4153 50.7414 58.4153C49.3365 58.4153 46.3706 60.1323 44.2633 62.6298C46.4487 60.9128 49.2584 59.8201 50.7414 59.8201Z" fill="#7F4A41"/>
<path d="M50.195 73.6348C47.2292 73.6348 44.3413 72.6982 41.6877 71.9958C41.1413 71.8397 40.595 72.2299 40.0486 72.0738C35.1315 70.5128 31.151 67.8591 28.7315 64.503V65.2835C28.7315 81.6739 34.5071 77.069 38.3315 79.0202C42.234 80.9715 46.2926 80.3471 50.4292 80.3471H50.5072C54.7219 80.3471 58.7024 80.8934 62.6049 78.9422C66.4293 76.991 72.2049 81.752 72.2049 65.3615C72.2049 64.7371 72.2049 64.1128 72.283 63.5664C70.0196 67.2347 65.8829 70.1226 60.7317 71.8397C60.2634 71.9958 59.1707 71.6055 58.7024 71.6836C55.8926 72.6202 53.3951 73.6348 50.195 73.6348Z" fill="#442823"/>
<path d="M42.7804 64.8154C42.7804 64.8154 40.8291 70.6692 42.156 73.2448L40.3608 72.4643C40.3608 72.4643 41.6877 66.5325 42.7804 64.8154ZM58.2341 64.8154C58.2341 64.8154 60.1854 70.6692 58.8585 73.2448L60.6537 72.4643C60.6537 72.4643 59.2488 66.5325 58.2341 64.8154Z" fill="#442823"/>
<path d="M37.7852 34.9224C37.0827 37.342 34.5852 45.5371 39.4242 42.8054C39.4242 42.8054 37.3949 43.9761 36.1461 48.425C34.8974 52.8738 31.6193 53.4201 31.6193 53.4201C31.6193 53.4201 26.39 54.4348 22.4875 51.0786C19.2094 48.2689 18.6631 43.2737 20.068 39.4493C21.4729 35.6249 23.9705 34.5322 27.6388 33.7517C31.3071 32.8931 38.5657 32.1907 37.7852 34.9224Z" fill="#CCAC8D"/>
<path d="M50.5072 58.4152C52.6145 58.4152 59.1706 62.942 59.2487 68.4835V68.1713C59.2487 62.3957 53.9414 57.7908 50.5072 57.7908C47.073 57.7908 41.7657 62.4737 41.7657 68.1713V68.4835C41.8437 62.942 48.3999 58.4152 50.5072 58.4152Z" fill="black"/>
<path d="M52.2111 47.6088C52.545 47.5227 52.6848 46.9453 52.5233 46.3193C52.3617 45.6932 51.9601 45.2555 51.6262 45.3416C51.2923 45.4277 51.1525 46.0051 51.314 46.6312C51.4756 47.2573 51.8772 47.695 52.2111 47.6088Z" fill="#331712"/>
<path d="M48.1993 47.5971C48.5287 47.6992 48.951 47.2815 49.1426 46.6639C49.3342 46.0464 49.2225 45.463 48.8931 45.3608C48.5637 45.2586 48.1414 45.6764 47.9498 46.2939C47.7583 46.9115 47.87 47.4949 48.1993 47.5971Z" fill="#331712"/>
<path d="M28.8876 50.6884C32.6808 50.6884 35.7559 47.6133 35.7559 43.82C35.7559 40.0267 32.6808 36.9517 28.8876 36.9517C25.0943 36.9517 22.0192 40.0267 22.0192 43.82C22.0192 47.6133 25.0943 50.6884 28.8876 50.6884Z" fill="black"/>
<path d="M30.6827 42.5712C31.6741 42.5712 32.4778 41.7675 32.4778 40.7761C32.4778 39.7847 31.6741 38.981 30.6827 38.981C29.6913 38.981 28.8876 39.7847 28.8876 40.7761C28.8876 41.7675 29.6913 42.5712 30.6827 42.5712Z" fill="white"/>
<path d="M52.5365 43.8981C52.5365 43.82 50.7414 44.6785 50.2731 44.7566C49.8048 44.6785 48.0096 43.82 48.0096 43.8981H52.5365Z" fill="#7F4A41"/>
<path d="M38.8779 43.5078C38.8779 43.5078 32.712 47.7225 29.3559 51.8591C25.9997 55.9957 26.0778 56.7762 26.0778 56.7762L28.4973 57.8689C28.4973 57.8689 31.9315 51.3908 36.1461 48.9713C40.3608 46.5517 40.9071 44.5225 40.9071 44.5225L38.8779 43.5078Z" fill="#EFCCA3"/>
<path d="M25.3753 31.0201C25.3753 31.0201 23.268 36.7957 18.5851 39.2152C18.5851 39.2152 25.9217 38.3567 25.3753 31.0201ZM74.6245 31.0201C74.6245 31.0201 76.7318 36.7957 81.4147 39.2152C81.4147 39.2152 74.0781 38.3567 74.6245 31.0201ZM61.278 41.7909C61.278 41.7909 56.6731 36.9518 50.5072 36.7957H50.5853H50.6633C44.4194 36.9518 39.8925 41.7909 39.8925 41.7909C45.2779 38.0445 49.8828 38.1225 50.6633 38.1225C50.5853 38.1225 55.8926 38.0445 61.278 41.7909ZM55.8926 31.6444C55.8926 31.6444 53.5511 28.3664 50.4292 28.2883H50.5853C48.2438 28.3664 45.1999 31.6444 45.1999 31.6444C47.8535 29.0688 50.5853 29.1469 50.5853 29.1469C50.5853 29.1469 53.1609 29.0688 55.8926 31.6444ZM28.8876 55.6056C28.8876 55.6056 25.2192 57.4007 22.5656 56.308H22.4875C20.146 54.9812 18.9753 51.0007 18.9753 51.0007C18.9753 51.0007 21.3168 58.0251 28.8876 55.6056ZM71.6586 55.6056C71.6586 55.6056 75.3269 57.4007 77.9806 56.308C81.1025 54.9812 81.5708 51.0007 81.5708 51.0007C81.5708 51.0007 79.2294 58.0251 71.6586 55.6056Z" fill="#CCAC8D"/>
<path d="M33.1022 30.6296C35.1315 30.2394 38.4877 30.1613 41.1413 31.0199C44.4974 32.1906 41.7657 36.4833 42.4682 36.7175C43.1706 36.9516 44.1072 33.7516 50.3511 34.0638C56.6731 34.376 57.3756 37.1857 58.2341 36.7175C59.0927 36.2492 57.3756 28.9125 66.8195 30.6296C66.8195 30.6296 56.9073 27.9759 57.3756 35.1565C57.3756 35.1565 51.678 30.7857 43.717 34.6882C43.795 34.6882 45.8243 27.9759 33.1022 30.6296ZM67.6781 30.6296C67.8342 30.6296 67.9122 30.7077 67.9903 30.7077C68.0683 30.7077 67.9122 30.6296 67.6781 30.6296ZM30.3705 21.0295C30.3705 21.0295 21.9412 31.6442 20.6924 35.7028C19.4436 39.8394 18.507 56.7761 17.4143 59.1957L13.5119 42.4931L20.6924 25.0881L30.3705 21.0295ZM70.0196 21.0295C70.0196 21.0295 78.4489 31.6442 79.6977 35.7028C80.9465 39.8394 81.8831 56.7761 82.9758 59.1957L86.8782 42.4931L79.6977 25.0881L70.0196 21.0295Z" fill="#CCAC8D"/>
<path d="M69.6293 21.0297C69.6293 21.0297 78.6831 28.6005 81.3368 37.342C83.9905 46.0836 82.8978 56.6983 84.9271 58.0251C87.8149 59.8983 91.093 48.7372 92.1857 47.5665C93.9028 45.6933 99.6004 40.9323 99.9907 40.0738C100.381 39.2152 88.4393 26.181 83.21 23.6054C76.8879 20.6395 69.083 20.4053 69.6293 21.0297Z" fill="#56332B"/>
<path d="M77.3562 25.7126C77.3562 25.7126 88.049 39.3712 87.8929 56.386L92.1856 47.6445C92.1075 47.6445 88.3612 36.4834 77.3562 25.7126Z" fill="#442823"/>
<path d="M30.3705 21.0297C30.3705 21.0297 21.3168 28.6005 18.6631 37.342C16.0094 46.0836 17.1021 56.6983 15.0729 58.0251C12.185 59.8983 8.90696 48.7372 7.81427 47.5665C6.09719 45.6933 0.399586 40.9323 0.00933904 40.0738C-0.380908 39.2152 11.5606 26.181 16.7899 23.6054C23.1119 20.6395 30.9169 20.4053 30.3705 21.0297Z" fill="#56332B"/>
<path d="M22.6437 25.7126C22.6437 25.7126 11.9509 39.3712 12.107 56.386L7.8923 47.6445C7.8923 47.6445 11.6387 36.4834 22.6437 25.7126Z" fill="#442823"/>
<path d="M16.868 56.6981C16.868 56.6981 17.6485 60.9127 18.8973 62.2396C20.1461 63.5664 19.2875 61.2249 19.2875 61.2249C19.2875 61.2249 17.9607 60.5225 18.1948 55.1371C18.429 49.7517 16.868 56.6981 16.868 56.6981ZM83.444 56.6981C83.444 56.6981 82.6635 60.9127 81.4147 62.2396C80.166 63.5664 81.0245 61.2249 81.0245 61.2249C81.0245 61.2249 82.3513 60.5225 82.1172 55.1371C81.8831 49.7517 83.444 56.6981 83.444 56.6981Z" fill="#CCAC8D"/>
<path d="M42.3901 54.1227C42.7349 54.1227 43.0145 53.8431 43.0145 53.4982C43.0145 53.1534 42.7349 52.8738 42.3901 52.8738C42.0453 52.8738 41.7657 53.1534 41.7657 53.4982C41.7657 53.8431 42.0453 54.1227 42.3901 54.1227Z" fill="#442823"/>
<path d="M38.7999 57.8689C39.1447 57.8689 39.4243 57.5893 39.4243 57.2445C39.4243 56.8997 39.1447 56.6201 38.7999 56.6201C38.455 56.6201 38.1754 56.8997 38.1754 57.2445C38.1754 57.5893 38.455 57.8689 38.7999 57.8689Z" fill="#442823"/>
<path d="M37.6291 54.1227C37.974 54.1227 38.2535 53.8431 38.2535 53.4982C38.2535 53.1534 37.974 52.8738 37.6291 52.8738C37.2843 52.8738 37.0047 53.1534 37.0047 53.4982C37.0047 53.8431 37.2843 54.1227 37.6291 54.1227Z" fill="#442823"/>
<path d="M57.6098 54.1227C57.9547 54.1227 58.2342 53.8431 58.2342 53.4982C58.2342 53.1534 57.9547 52.8738 57.6098 52.8738C57.2649 52.8738 56.9853 53.1534 56.9853 53.4982C56.9853 53.8431 57.2649 54.1227 57.6098 54.1227Z" fill="#442823"/>
<path d="M61.2 57.8689C61.5448 57.8689 61.8243 57.5893 61.8243 57.2445C61.8243 56.8997 61.5448 56.6201 61.2 56.6201C60.8551 56.6201 60.5756 56.8997 60.5756 57.2445C60.5756 57.5893 60.8551 57.8689 61.2 57.8689Z" fill="#442823"/>
<path d="M62.3707 54.1227C62.7155 54.1227 62.9951 53.8431 62.9951 53.4982C62.9951 53.1534 62.7155 52.8738 62.3707 52.8738C62.0259 52.8738 61.7463 53.1534 61.7463 53.4982C61.7463 53.8431 62.0259 54.1227 62.3707 54.1227Z" fill="#442823"/>
</svg>
