<svg width="100" height="100" viewBox="0 0 100 100" fill="none" xmlns="http://www.w3.org/2000/svg">
<path d="M75.5 31.7991L68.9 38.3992C79.7 49.1992 79.7 66.5992 68.9 77.1992C58.1 87.9992 40.7 87.9992 30.1 77.1992C19.3 66.3992 19.3 48.9992 30.1 38.3992L47.2 21.2991L49.6 18.8992V5.99915L23.8 31.7991C9.4 46.1991 9.4 69.3991 23.8 83.7991C38.2 98.1991 61.4 98.1991 75.5 83.7991C89.9 69.2991 89.9 46.1991 75.5 31.7991Z" fill="white"/>
<path d="M62.5998 30.1988C65.2508 30.1988 67.3998 28.0498 67.3998 25.3988C67.3998 22.7478 65.2508 20.5988 62.5998 20.5988C59.9488 20.5988 57.7998 22.7478 57.7998 25.3988C57.7998 28.0498 59.9488 30.1988 62.5998 30.1988Z" fill="white"/>
</svg>
