<svg width="100" height="100" viewBox="0 0 100 100" fill="none" xmlns="http://www.w3.org/2000/svg">
<path d="M0 50C0 22.3858 22.3858 0 50 0C77.6142 0 100 22.3858 100 50C100 77.6142 77.6142 100 50 100C22.3858 100 0 77.6142 0 50Z" fill="white"/>
<path d="M72.0173 78.9032C71.6323 81.9465 66.6657 83.8198 60.929 83.0915C55.194 82.3598 50.8557 79.2998 51.2457 76.2548C51.6323 73.2115 56.5973 71.3365 62.3323 72.0682C68.0707 72.7982 72.404 75.8598 72.0173 78.9032" fill="#E48013"/>
<path d="M28.7287 78.6094C29.1803 81.6611 34.3387 83.6144 40.257 82.9761C46.1737 82.3344 50.602 79.3411 50.1503 76.2877C49.7003 73.2377 44.5353 71.2827 38.6203 71.9244C32.7037 72.5644 28.272 75.5577 28.7287 78.6094" fill="#E48013"/>
<path d="M71.5039 38.9317C71.5039 50.305 62.2122 59.5284 50.7455 59.5284C39.2855 59.5284 29.9922 50.305 29.9922 38.9317C29.9922 27.5534 39.2855 18.3334 50.7455 18.3334C62.2122 18.3334 71.5039 27.5534 71.5039 38.9317" fill="black"/>
<path d="M28.5465 78.0024C28.9982 81.054 34.1565 83.0074 40.0748 82.369C45.9915 81.7274 50.4198 78.734 49.9682 75.6807C49.5182 72.6307 44.3532 70.6757 38.4382 71.3174C32.5215 71.9574 28.0898 74.9507 28.5465 78.0024" fill="#F5A519"/>
<path d="M72.2517 78.1659C71.8667 81.2092 66.9 83.0825 61.1633 82.3542C55.4283 81.6225 51.09 78.5625 51.48 75.5175C51.8667 72.4742 56.8317 70.5992 62.5667 71.3309C68.305 72.0609 72.6383 75.1225 72.2517 78.1659" fill="#F5A519"/>
<path d="M70.4662 61.7425C70.4662 70.9575 61.4978 78.4275 50.4395 78.4275C39.3812 78.4275 30.4162 70.9575 30.4162 61.7425C30.4162 52.5275 39.3812 45.0575 50.4395 45.0575C61.4978 45.0575 70.4662 52.5275 70.4662 61.7425" fill="black"/>
<path d="M33.693 58.427C30.753 64.2954 26.1413 68.0104 24.7713 67.282C22.9597 66.3154 22.5213 60.387 25.463 54.5204C28.408 48.6554 33.1547 44.897 35.428 46.0354C37.6963 47.177 36.6347 52.5604 33.693 58.427" fill="black"/>
<path d="M67.5023 59.1661C70.1923 64.4977 74.0673 68.6361 75.724 68.2711C77.0607 67.9777 78.0157 61.7427 75.5673 55.7711C73.079 49.6994 68.5657 45.3394 66.2907 46.4794C64.019 47.6194 64.5457 53.3077 67.5023 59.1661" fill="black"/>
<path d="M35.7502 51.2607C34.5135 53.7974 33.8052 56.6807 33.8052 59.7441C33.8052 69.8574 41.4235 78.0557 50.8218 78.0557C60.2202 78.0557 67.8368 69.8574 67.8368 59.7441C67.8368 56.7641 67.1618 53.9591 65.9885 51.4724C57.3285 55.8874 41.4718 52.6524 35.7502 51.2607" fill="white"/>
<path d="M49.318 34.1823C49.318 36.929 47.4997 39.1557 45.2547 39.1557C43.0113 39.1557 41.193 36.929 41.193 34.1823C41.193 31.4357 43.0113 29.209 45.2547 29.209C47.4997 29.209 49.318 31.4357 49.318 34.1823" fill="white"/>
<path d="M60.9838 34.21C60.9838 36.9567 59.1655 39.1834 56.9205 39.1834C54.6788 39.1834 52.8588 36.9567 52.8588 34.21C52.8588 31.4634 54.6788 29.2367 56.9205 29.2367C59.1655 29.2367 60.9838 31.4634 60.9838 34.21" fill="white"/>
<path d="M51.4559 40.5438C45.7992 40.5438 40.8592 41.8655 38.1175 43.8372C38.8042 45.4555 40.8792 46.7155 42.9142 47.8855C45.3725 49.2988 49.4109 50.2555 51.4425 50.2555C53.3175 50.2555 57.9592 48.9922 60.4659 47.3538C62.2292 46.2038 64.0892 45.1888 64.7659 43.8172C62.0192 41.8572 57.0942 40.5438 51.4559 40.5438" fill="#F5A519"/>
<path d="M48.6897 34.2101C48.6897 35.9484 47.5514 37.3584 46.1497 37.3584C44.7464 37.3584 43.608 35.9484 43.608 34.2101C43.608 32.4718 44.7464 31.0618 46.1497 31.0618C47.5514 31.0618 48.6897 32.4718 48.6897 34.2101" fill="black"/>
<path d="M47.7417 33.4939C47.7417 34.1956 47.265 34.7656 46.6767 34.7656C46.0884 34.7656 45.6117 34.1956 45.6117 33.4939C45.6117 32.7939 46.0884 32.2256 46.6767 32.2256C47.265 32.2256 47.7417 32.7939 47.7417 33.4939" fill="white"/>
<path d="M54.9332 35.0279C54.6948 35.0279 54.4848 34.8562 54.4415 34.6145C54.4148 34.4629 54.4015 34.3045 54.4015 34.1429C54.4015 32.8129 55.3448 31.7312 56.5032 31.7312C57.6615 31.7312 58.6048 32.8129 58.6048 34.1429C58.6048 34.2595 58.5982 34.3729 58.5848 34.4845C58.5498 34.7579 58.2965 34.9512 58.0248 34.9179C57.7515 34.8829 57.5582 34.6329 57.5915 34.3595C57.6015 34.2895 57.6065 34.2162 57.6065 34.1429C57.6065 33.3645 57.1115 32.7312 56.5032 32.7312C55.8948 32.7312 55.3998 33.3645 55.3998 34.1429C55.3998 34.2445 55.4098 34.3445 55.4265 34.4395C55.4748 34.7129 55.2932 34.9712 55.0215 35.0195C54.9915 35.0245 54.9632 35.0279 54.9332 35.0279" fill="black"/>
<path d="M40.1195 43.0154C40.1195 43.0154 43.2428 45.6904 46.1162 46.4887C49.4762 47.422 54.3312 46.982 56.1712 46.3654C59.5162 45.242 63.0712 42.822 63.0712 42.822C63.0712 42.822 59.9295 45.2254 56.6895 47.3437C55.0612 48.407 53.2778 49.922 49.5245 49.1087C48.5728 48.9037 46.8695 47.7504 46.3278 47.437C43.5545 45.832 40.7695 43.662 40.1195 43.0154" fill="#8A3322"/>
<path d="M43.5668 57.2716V66.3299C43.5668 66.3299 39.8235 68.1016 36.4702 64.9016C35.1852 63.6766 37.1585 54.9583 37.1585 54.9583L43.5668 57.2716Z" fill="#D42E19"/>
<path d="M36.6512 55.5202L43.5129 61.0152C43.5129 61.0152 43.6279 57.5802 43.4795 56.6018C43.3295 55.6252 36.6512 55.0352 36.6512 55.0352" fill="#B82C22"/>
<path d="M51.455 58.8161C42.8167 58.8161 34.6733 55.7461 28.2433 50.1194C28.0867 49.9827 28.135 49.5461 28.135 49.5461C28.135 49.5461 28.3817 48.5894 28.7917 46.2977C29.0783 44.6961 29.7283 42.7311 30.0733 42.7311C30.2933 42.9127 30.5583 43.1544 30.82 43.3994C31.2917 43.8411 31.7483 44.2961 31.8983 44.4377C37.2217 49.4194 44.1183 52.1494 51.455 52.1494C58.755 52.1494 65.675 49.4194 70.9983 44.4494C71.0417 44.4094 72.1967 45.9061 72.715 47.4277C73.27 49.0577 73.8317 50.8311 73.32 51.2361C67.1117 56.1461 59.47 58.8161 51.455 58.8161" fill="#D42E19"/>
</svg>
