<svg width="100" height="100" viewBox="0 0 100 100" fill="none" xmlns="http://www.w3.org/2000/svg">
<path d="M0 50C0 22.3858 22.3858 0 50 0C77.6142 0 100 22.3858 100 50C100 77.6142 77.6142 100 50 100C22.3858 100 0 77.6142 0 50Z" fill="#A82400"/>
<path fill-rule="evenodd" clip-rule="evenodd" d="M71.9776 77.0062L72.7155 82.2843L72.7112 82.2877C64.6369 85.43 59.295 80.9966 55.975 75.5359C52.88 76.5126 45.07 76.2267 42.0115 75.6042C28.6068 72.7384 20.8333 62.2568 20.8333 47.0179C20.8333 41.9598 21.6587 37.8897 23.2614 34.1506C28.126 22.7999 39.4244 15.9937 51.9479 16.7194C65.1806 17.486 74.1498 24.629 77.1668 36.6438C78.3102 41.2004 78.6943 49.1551 77.1718 54.3544C75.1872 61.526 71.4066 67.2547 64.5982 71.8142C65.92 75.8635 69.0767 77.2191 71.9776 77.0062ZM35.3308 37.9721C34.3004 42.1131 34.1993 52.1334 35.145 56.3489L35.1476 56.3445C37.5477 65.1711 42.2977 70.121 53.1447 68.4883C52.9455 65.8861 49.0524 63.1631 46.2052 63.8156L45.4873 58.8177C50.6027 56.889 57.4298 59.0462 60.4324 63.9603C61.6518 61.8246 62.6052 59.4703 63.2609 57.0695C65.1457 50.3923 64.9029 42.7155 63.4155 36.1493C61.7978 30.5696 59.2014 27.0082 55.463 25.245C52.024 23.6424 47.4187 23.8968 43.7061 25.5417C39.5228 27.8129 36.8862 31.7247 35.3308 37.9721Z" fill="white"/>
</svg>
