<svg width="100" height="100" viewBox="0 0 100 100" fill="none" xmlns="http://www.w3.org/2000/svg">
<path d="M85.7856 99.9996L67.8297 82.1454L67.5553 82.1846V81.9888L29.3696 44.2834L38.7789 35.1997L33.251 3.48492L7.02286 35.9828C2.55349 40.4855 1.73019 47.8073 4.945 53.2105L21.3327 80.3835C23.8418 84.573 28.3895 87.0788 33.2902 87.0396L41.4057 86.9612L85.7856 99.9996Z" fill="#18B6F6"/>
<path d="M95.5854 35.356L91.9785 28.6999L90.0966 25.2936L89.3518 23.9623L89.2734 24.0407L79.3936 6.93032C76.9238 2.62338 72.2977 -0.0390973 67.2794 5.98449e-05L58.6151 0.234962L32.7789 0.313276C27.8784 0.352434 23.4091 2.9366 20.9391 7.12609L5.2179 38.2926L33.3279 3.40645L70.1806 43.8916L63.6332 50.5087L67.5538 82.1844L67.593 82.106V82.1844H67.5146L67.593 82.2626L70.651 85.2383L85.5097 99.7645C86.137 100.352 87.1564 99.6471 86.725 98.9031L77.5512 80.8531L93.5468 51.2919L94.0563 50.7045C94.2523 50.4695 94.4483 50.2347 94.6053 49.9998C97.7417 45.7319 98.1729 40.0155 95.5854 35.356Z" fill="#AC7EF4"/>
<path d="M70.2977 43.7352L33.3274 3.44568L38.5809 35.0039L29.1716 44.1268L67.4749 82.1453L64.0249 50.5871L70.2977 43.7352Z" fill="white"/>
</svg>
