<svg width="100" height="100" viewBox="0 0 100 100" fill="none" xmlns="http://www.w3.org/2000/svg">
<path d="M87.0422 62.589V67.1608H95.3018C96.9942 67.1608 99.8989 65.9232 100 62.4627V60.6946C100 57.7393 97.5751 55.9964 95.3018 55.9964H91.1846V53.8747H99.3432V49.2775H91.513C89.4923 49.2775 86.7896 50.9446 86.7896 54.0515V55.6428C86.7896 58.7496 89.467 60.3409 91.513 60.3409C97.1962 60.3662 90.149 60.3409 95.4029 60.3409V62.5637L87.0422 62.589ZM42.7886 61.4776C42.7886 61.4776 47.2089 61.0987 47.2089 55.3902C47.2089 49.6817 41.854 49.1512 41.854 49.1512H32.2051V67.1608H37.0548V62.8163L41.2478 67.1608H48.4213L42.7886 61.4776ZM40.9194 57.7898H37.0548V53.6726H40.9447C40.9447 53.6726 42.0308 54.0767 42.0308 55.7186C42.0308 57.3604 40.9194 57.7898 40.9194 57.7898ZM59.1816 49.2775H54.2561C50.7451 49.2775 49.5579 52.4602 49.5579 53.9757V67.1608H54.4834V64.0035H59.1058V67.1608H63.8797V53.9757C63.8797 50.1363 60.394 49.2775 59.1816 49.2775ZM59.1058 58.9012H54.4582V54.5314C54.4582 54.5314 54.4582 53.5463 55.999 53.5463H57.6913C59.0553 53.5463 59.0806 54.5314 59.0806 54.5314V58.9012H59.1058ZM66.1278 49.2775H71.2553V67.1608H66.1278V49.2775ZM78.4541 62.5385V49.2775H73.3518V67.1608H85.3498V62.5385H78.4541Z" fill="#CC0000"/>
<path d="M1.76807 67.1609H21.7226C21.7226 67.1609 17.9085 49.7575 30.538 42.7103C33.2912 41.3716 42.056 36.3703 56.4031 46.979C56.8577 46.6002 57.2871 46.297 57.2871 46.297C57.2871 46.297 44.1525 33.1877 29.5276 34.6527C22.1773 35.3094 13.1346 42.003 7.8302 50.8437C2.52583 59.6843 1.76807 67.1609 1.76807 67.1609Z" fill="#CC0000"/>
<path d="M1.76807 67.1609H21.7226C21.7226 67.1609 17.9085 49.7575 30.538 42.7103C33.2912 41.3716 42.056 36.3703 56.4031 46.979C56.8577 46.6002 57.2871 46.297 57.2871 46.297C57.2871 46.297 44.1525 33.1877 29.5276 34.6527C22.1773 35.3094 13.1346 42.003 7.8302 50.8437C2.52583 59.6843 1.76807 67.1609 1.76807 67.1609Z" fill="#CC0000"/>
<path d="M1.76807 67.1608H21.7226C21.7226 67.1608 17.9085 49.7575 30.538 42.7102C33.2912 41.3715 42.056 36.3702 56.4031 46.979C56.8577 46.6001 57.2871 46.297 57.2871 46.297C57.2871 46.297 44.1525 33.1876 29.5276 34.6526C22.152 35.3094 13.1093 42.003 7.80495 50.8436C2.50057 59.6842 1.76807 67.1608 1.76807 67.1608ZM43.3442 36.0671L43.4453 34.3748C43.2179 34.2485 42.5865 33.9454 40.9952 33.4907L40.8941 35.1578C41.7277 35.4357 42.5359 35.7388 43.3442 36.0671Z" fill="#CC0000"/>
<path d="M40.9447 41.4221L40.8437 43.0134C41.6772 43.0386 42.5107 43.1397 43.3443 43.3165L43.4453 41.7504C42.5865 41.5736 41.753 41.4726 40.9447 41.4221ZM31.5989 33.5413H31.8515L31.3463 32.0005C30.5633 32.0005 29.755 32.051 28.9214 32.152L29.4014 33.6423C30.1339 33.5665 30.8664 33.5413 31.5989 33.5413ZM32.8113 42.8366L33.3923 44.5794C34.1248 44.2258 34.8573 43.9227 35.5898 43.6954L35.0341 42.0283C34.1753 42.2809 33.4428 42.5587 32.8113 42.8366ZM21.3438 36.1935L20.2071 34.4506C19.5757 34.779 18.9189 35.1326 18.2369 35.5367L19.3988 37.3049C20.0556 36.9007 20.687 36.5218 21.3438 36.1935ZM26.5219 47.56L27.7343 49.3786C28.1637 48.7471 28.6689 48.1662 29.2246 47.5852L28.0879 45.8676C27.507 46.3981 26.9765 46.979 26.5219 47.56ZM22.8593 55.6933L24.9053 57.3099C25.0063 56.3248 25.1831 55.3397 25.4357 54.3546L23.6171 52.9149C23.2887 53.8494 23.0614 54.784 22.8593 55.6933ZM11.7959 43.6954L10.0025 42.1293C9.3458 42.7608 8.71432 43.3923 8.13337 44.0237L10.0783 45.6908C10.6087 45.0088 11.1897 44.3268 11.7959 43.6954ZM4.16772 54.9861L1.26295 53.9252C0.783026 55.0114 0.252589 56.2743 0 56.9563L2.90477 58.0172C3.23314 57.1584 3.76358 55.9207 4.16772 54.9861ZM22.4804 62.1091C22.5309 63.4478 22.6572 64.534 22.7835 65.2917L25.8146 66.3779C25.5873 65.3928 25.3599 64.2814 25.2084 63.0942L22.4804 62.1091Z" fill="#CC0000"/>
</svg>
