<svg width="100" height="100" viewBox="0 0 100 100" fill="none" xmlns="http://www.w3.org/2000/svg">
<path d="M50 100C77.6142 100 100 77.6142 100 50C100 22.3858 77.6142 0 50 0C22.3858 0 0 22.3858 0 50C0 77.6142 22.3858 100 50 100Z" fill="#FF4500"/>
<path d="M83.3742 49.9999C83.3742 45.9508 80.1227 42.6993 76.0736 42.6993C74.1104 42.6993 72.3313 43.4968 71.0429 44.7238C66.0736 41.1042 59.2024 38.7729 51.5337 38.5275L54.8466 22.8833L65.7055 25.2146C65.8282 27.9754 68.0981 30.184 70.9202 30.184C73.8037 30.184 76.135 27.8527 76.135 24.9692C76.135 22.0858 73.8037 19.7545 70.9202 19.7545C68.8957 19.7545 67.1165 20.9202 66.2576 22.638L54.1104 20.0613C53.8037 19.9999 53.4356 20.0613 53.1288 20.2453C52.8221 20.4294 52.638 20.7361 52.5767 21.0429L48.8957 38.4662C41.1043 38.7116 34.1718 40.9815 29.0797 44.6625C27.7914 43.4355 26.0122 42.638 24.0491 42.638C20 42.638 16.7484 45.8895 16.7484 49.9386C16.7484 52.8833 18.5276 55.46 21.0429 56.5643C20.9202 57.3005 20.8589 58.0367 20.8589 58.7729C20.8589 69.9999 33.9264 79.0797 50.0613 79.0797C66.1963 79.0797 79.2638 69.9999 79.2638 58.7729C79.2638 58.0367 79.2024 57.3005 79.0797 56.5643C81.5951 55.5214 83.3742 53.0061 83.3742 49.9999ZM33.3742 55.2146C33.3742 52.3312 35.7055 49.9999 38.5889 49.9999C41.4724 49.9999 43.8037 52.3312 43.8037 55.2146C43.8037 58.0981 41.4724 60.4294 38.5889 60.4294C35.7055 60.4294 33.3742 58.0981 33.3742 55.2146ZM62.3926 68.957C58.8343 72.5152 52.0245 72.7606 50 72.7606C47.9754 72.7606 41.1656 72.5152 37.6073 68.957C37.0552 68.4048 37.0552 67.5459 37.6073 67.0551C38.1595 66.503 39.0184 66.503 39.5092 67.0551C41.7791 69.3251 46.5644 70.0613 49.9386 70.0613C53.3129 70.0613 58.1595 69.2637 60.4294 66.9938C60.9816 66.4416 61.8405 66.4416 62.3313 66.9938C62.9448 67.6073 62.9448 68.4662 62.3926 68.957ZM61.4724 60.4294C58.5889 60.4294 56.2576 58.0981 56.2576 55.2146C56.2576 52.3312 58.5889 49.9999 61.4724 49.9999C64.3558 49.9999 66.6871 52.3312 66.6871 55.2146C66.6871 58.0981 64.3558 60.4294 61.4724 60.4294Z" fill="white"/>
</svg>
