<svg width="100" height="100" viewBox="0 0 100 100" fill="none" xmlns="http://www.w3.org/2000/svg">
<path d="M66.7034 55.5983C73.2755 55.5983 82.7843 54.2429 82.7843 46.4257C82.804 45.8224 82.7493 45.219 82.6215 44.629L78.7076 27.6287C77.804 23.8883 77.0108 22.1914 70.4439 18.908C65.348 16.3022 54.2474 11.9996 50.964 11.9996C47.9065 11.9996 47.0186 15.9397 43.3727 15.9397C39.8634 15.9397 37.2577 12.9978 33.9743 12.9978C30.8222 12.9978 28.7681 15.1465 27.1815 19.5646C27.1815 19.5646 22.7633 32.0259 22.196 33.8331C22.1058 34.165 22.0668 34.5086 22.0804 34.8523C22.0804 39.696 41.1505 55.5773 66.7034 55.5773M83.793 49.5988C84.7019 53.9014 84.7019 54.3532 84.7019 54.9206C84.7019 62.2754 76.4329 66.3574 65.5634 66.3574C40.9982 66.3732 19.4799 51.9786 19.4799 42.4646C19.4785 41.1403 19.7485 39.8297 20.2732 38.6138C11.4368 39.0551 0 40.6311 0 50.7283C0 67.2663 39.1857 87.6498 70.2128 87.6498C94.0005 87.6498 100 76.8906 100 68.3958C100 61.7133 94.2212 54.1273 83.8035 49.5988" fill="#EE0000"/>
<path d="M83.7931 49.5988C84.7019 53.9014 84.7019 54.3532 84.7019 54.9206C84.7019 62.2755 76.433 66.3574 65.5635 66.3574C40.9982 66.3732 19.48 51.9786 19.48 42.4646C19.4786 41.1403 19.7485 39.8297 20.2733 38.6138L22.196 33.8541C22.108 34.1792 22.069 34.5157 22.0805 34.8523C22.0805 39.696 41.1506 55.5773 66.7035 55.5773C73.2756 55.5773 82.7844 54.2219 82.7844 46.4047C82.8041 45.8014 82.7494 45.1979 82.6216 44.608L83.7931 49.5988Z" fill="black"/>
</svg>
