<svg width="100" height="100" viewBox="0 0 100 100" fill="none" xmlns="http://www.w3.org/2000/svg">
<path d="M96.082 72.7657C90.7453 75.5474 63.1 86.9142 57.2145 89.9825C51.3289 93.0513 48.0594 93.0216 43.4098 90.7989C38.7605 88.5763 9.34102 76.6927 4.04141 74.1595C1.39297 72.8938 0 71.8251 0 70.8157V60.7079C0 60.7079 38.3008 52.37 44.484 50.1517C50.6668 47.9333 52.8121 47.8532 58.0738 49.7806C63.3363 51.7087 94.7996 57.3852 100 59.2899L99.9977 69.2548C99.9984 70.254 98.7984 71.3501 96.082 72.7657Z" fill="#912626"/>
<path d="M96.0801 62.7177C90.7438 65.4981 63.0993 76.8653 57.2137 79.9333C51.3285 83.0024 48.059 82.9723 43.4098 80.7497C38.7602 78.5286 9.34183 66.6431 4.04261 64.1114C-1.25661 61.5782 -1.36754 59.8349 3.83792 57.7966C9.04339 55.7575 38.3004 44.279 44.4844 42.0607C50.6672 39.8431 52.8121 39.7622 58.0739 41.6904C63.336 43.6177 90.8157 54.5556 96.0153 56.4599C101.217 58.3665 101.416 59.9364 96.0801 62.7177Z" fill="#C6302B"/>
<path d="M96.082 56.4106C90.7453 59.1926 63.1 70.5591 57.2145 73.6286C51.3289 76.6962 48.0594 76.6665 43.4098 74.4438C38.7602 72.2223 9.34102 60.3376 4.04141 57.8044C1.39297 56.5387 0 55.4716 0 54.4618V44.3528C0 44.3528 38.3008 36.0153 44.484 33.7969C50.6668 31.5786 52.8121 31.4981 58.0738 33.4259C63.3367 35.3536 94.8 41.029 100 42.9341L99.9977 52.9001C99.9984 53.8989 98.7984 54.995 96.082 56.4106Z" fill="#912626"/>
<path d="M96.0801 46.3625C90.7438 49.1438 63.0993 60.5102 57.2137 63.5793C51.3285 66.6473 48.059 66.6172 43.4098 64.3946C38.7602 62.1735 9.34183 50.2883 4.04261 47.7563C-1.25661 45.2239 -1.36754 43.4801 3.83792 41.4411C9.04339 39.4032 38.3008 27.9239 44.4844 25.7059C50.6672 23.4879 52.8121 23.4075 58.0739 25.3352C63.336 27.2625 90.8157 38.1997 96.0153 40.1047C101.217 42.011 101.416 43.5813 96.0801 46.3625Z" fill="#C6302B"/>
<path d="M96.082 39.4493C90.7453 42.2305 63.1 53.5977 57.2145 56.6673C51.3289 59.7353 48.0594 59.7052 43.4098 57.4825C38.7602 55.261 9.34102 43.3759 4.04141 40.8438C1.39297 39.577 0 38.5094 0 37.5008V27.3915C0 27.3915 38.3008 19.0543 44.484 16.8364C50.6668 14.6176 52.8121 14.5379 58.0738 16.4653C63.3367 18.393 94.8 24.0684 100 25.9735L99.9977 35.9391C99.9984 36.9372 98.7984 38.0333 96.082 39.4493Z" fill="#912626"/>
<path d="M96.08 29.4013C90.7437 32.1825 63.0992 43.5497 57.2136 46.6177C51.3285 49.6857 48.0589 49.6556 43.4097 47.4341C38.7605 45.2114 9.34176 33.3271 4.04293 30.7946C-1.25668 28.2626 -1.36723 26.5185 3.83785 24.4798C9.04332 22.4415 38.3007 10.9638 44.4843 8.74501C50.6671 6.52665 52.8121 6.44696 58.0738 8.3747C63.3359 10.3024 90.8156 21.2395 96.0152 23.1446C101.217 25.0493 101.416 26.62 96.08 29.4013Z" fill="#C6302B"/>
<path d="M62.22 19.568L53.6223 20.4606L51.6977 25.0918L48.5891 19.9238L38.6613 19.0317L46.0692 16.3602L43.8465 12.2594L50.7821 14.9719L57.3204 12.8313L55.5532 17.0715L62.22 19.568ZM51.1844 42.0359L35.1387 35.3808L58.1309 31.8516L51.1844 42.0359ZM28.9383 22.1422C35.7254 22.1422 41.2273 24.275 41.2273 26.9055C41.2273 29.5367 35.7254 31.6691 28.9383 31.6691C22.1511 31.6691 16.6492 29.5363 16.6492 26.9055C16.6492 24.275 22.1511 22.1422 28.9383 22.1422Z" fill="white"/>
<path d="M72.3809 20.834L85.9887 26.2114L72.3926 31.5836L72.3809 20.8336" fill="#621B1C"/>
<path d="M57.3262 26.7892L72.3809 20.8341L72.3926 31.5838L70.9164 32.1611L57.3262 26.7892Z" fill="#9A2928"/>
</svg>
