<svg width="100" height="100" viewBox="0 0 100 100" fill="none" xmlns="http://www.w3.org/2000/svg">
<g clip-path="url(#clip0_755_15594)">
<path d="M50.7835 56.5885C50.7835 58.6475 49.2519 60.3476 47.2661 60.6146C44.912 66.1024 40.117 71.4564 33.5475 75.2493C28.0338 78.4325 22.1909 79.9859 16.9498 79.9859C10.2844 79.9859 4.5919 77.4745 1.78333 72.6099C-2.77792 64.7096 1.66645 53.6864 12.2003 46.2375C12.2007 47.9391 12.3338 49.4993 12.6319 50.8837C11.7819 51.6003 11.0094 52.214 10.2556 53.0044C8.31581 55.0379 6.76504 57.1448 5.70405 59.3946C3.72502 63.5906 3.59126 67.5571 5.32719 70.5639C7.28282 73.9511 11.5191 75.8938 16.9498 75.8938C21.6555 75.8938 26.8234 74.4063 31.5015 71.7054C34.2255 70.1328 36.6477 68.244 38.7008 66.0915C40.6406 64.0579 42.1621 61.886 43.2232 59.6362C43.3157 59.4402 43.4029 59.2449 43.4869 59.0502C42.9659 58.3669 42.6558 57.5141 42.6558 56.5885C42.6558 54.3442 44.4753 52.5249 46.7196 52.5249C48.964 52.5249 50.7835 54.3442 50.7835 56.5885ZM32.6477 18.9996C41.7209 18.9996 49.2406 28.587 50.5974 41.117C49.1821 40.2665 47.7004 39.5577 46.1489 38.9977C45.964 38.0293 45.7347 37.0781 45.4614 36.1468C44.6701 33.4501 43.55 31.0466 42.1321 29.0027C39.4879 25.1909 36.1195 23.0917 32.6477 23.0917C29.176 23.0917 25.8076 25.1909 23.1633 29.0027C21.7454 31.0466 20.6254 33.4501 19.8341 36.1468C18.9966 39.0012 18.5719 42.0432 18.5719 45.1886C18.5719 48.334 18.9966 51.3761 19.8341 54.2303C20.6254 56.927 21.7454 59.3306 23.1633 61.3746C23.3103 61.5862 23.4595 61.7923 23.6108 61.9934C23.853 61.9484 24.1023 61.9238 24.3575 61.9238C26.602 61.9238 28.4213 63.7432 28.4213 65.9875C28.4213 68.2319 26.602 70.0513 24.3575 70.0513C22.1132 70.0513 20.2938 68.2319 20.2938 65.9875C20.2938 65.528 20.3711 65.0867 20.5118 64.6748C16.8095 59.8805 14.4798 52.9274 14.4798 45.1886C14.4798 30.7248 22.6139 18.9996 32.6477 18.9996ZM48.3068 75.893C53.29 75.893 57.2676 74.2572 59.4001 71.3705C60.64 72.0258 62.0182 72.4244 63.4729 72.6265C60.6482 77.437 54.934 79.9851 48.3068 79.9851C44.2086 79.9851 39.7436 79.0357 35.3549 77.0999C37.0627 76.1568 38.5757 75.2455 39.6964 74.398C42.5972 75.3759 45.5322 75.893 48.3068 75.893ZM55.0301 52.9386C52.9769 50.786 50.5548 48.8973 47.8309 47.3246C43.1528 44.6236 37.9852 43.1361 33.2805 43.1361H33.2799C32.2517 43.1363 31.2663 43.206 30.3312 43.3418C30.3074 43.3452 30.2844 43.3497 30.2607 43.3533C29.8359 45.1435 28.2278 46.4758 26.3076 46.4758C24.0633 46.4758 22.2439 44.6563 22.2439 42.4121C22.2439 40.1677 24.0633 38.3483 26.3076 38.3483C27.3615 38.3483 28.3214 38.7494 29.0436 39.4074C29.0491 39.4063 29.0544 39.4051 29.0601 39.404C30.4063 39.1648 31.8195 39.0442 33.2791 39.0441C38.5207 39.0438 44.3624 40.5969 49.8768 43.7808C58.9494 49.0189 64.6443 57.2341 65.1884 64.6677C63.5406 64.4823 62.1464 63.9355 60.8645 63.2285C60.6069 61.9873 60.1693 60.7017 59.5525 59.3938C58.4914 57.1439 56.9699 54.9721 55.0301 52.9386Z" fill="#999999"/>
<path d="M96.488 46.766C98.2883 49.477 94.6226 51.5976 92.9809 48.8716C91.9801 47.1634 90.4451 45.5657 88.4329 44.1698C86.3891 42.7519 83.9854 41.6319 81.2888 40.8407C78.4345 40.0031 75.3924 39.5784 72.2471 39.5784C69.1017 39.5784 66.0597 40.0031 63.2053 40.8407C62.7141 40.9848 62.2338 41.1411 61.7625 41.3069C61.7042 43.5003 59.909 45.2608 57.7015 45.2608C55.4572 45.2608 53.6377 43.4414 53.6377 41.1971C53.6377 38.9527 55.4572 37.1333 57.7015 37.1333C58.4483 37.1333 59.1474 37.3357 59.7487 37.6871C63.4635 36.2848 67.7204 35.4863 72.2471 35.4863C83.1964 35.4863 92.5762 40.1478 96.488 46.766ZM99.9046 56.5884C99.9046 58.6262 98.4048 60.3131 96.4492 60.6067C92.5145 67.1907 83.1608 71.8222 72.2471 71.8222C63.7245 71.8222 56.1527 68.998 51.3704 64.6253C49.0571 62.2998 51.8416 59.5979 53.9992 61.4855C54.6172 62.0618 55.3054 62.6145 56.0612 63.1387C58.105 64.5566 60.5086 65.6767 63.2053 66.468C66.0596 67.3054 69.1017 67.7301 72.2471 67.7301C75.3924 67.7301 78.4346 67.3054 81.2888 66.468C83.9855 65.6767 86.3892 64.5566 88.4329 63.1387C90.2062 61.9085 91.6075 60.5214 92.6006 59.0404C92.0841 58.3588 91.777 57.5097 91.777 56.5884C91.777 54.3441 93.5965 52.5248 95.841 52.5248C98.0852 52.5248 99.9046 54.3441 99.9046 56.5884Z" fill="#89D96D"/>
</g>
<defs>
<clipPath id="clip0_755_15594">
<rect width="100" height="61.3281" fill="white" transform="translate(0.00012207 18.9996)"/>
</clipPath>
</defs>
</svg>
