<svg width="100" height="100" viewBox="0 0 100 100" fill="none" xmlns="http://www.w3.org/2000/svg">
<path d="M0 50C0 22.3858 22.3858 0 50 0C77.6142 0 100 22.3858 100 50C100 77.6142 77.6142 100 50 100C22.3858 100 0 77.6142 0 50Z" fill="white"/>
<path d="M37.9703 30L37.967 44.3383C37.967 44.3383 38.3537 50.33 41.842 55.5067C45.147 60.41 48.317 62.2683 49.972 62.9517C53.0737 59.4333 54.957 54.815 54.957 49.7567C54.957 39.7383 47.5853 31.4433 37.9703 30" fill="#0661A7"/>
<path d="M38.43 62.3332C35.4383 58.6532 34.6717 55.0848 34.6717 55.0848C34.6717 55.0848 33.9817 58.8048 31.6033 61.9498C30.11 63.9265 27.07 66.2948 25.5933 67.3932C28.3917 68.8865 31.585 69.7332 34.9783 69.7332C38.325 69.7332 41.4783 68.9065 44.25 67.4515C42.5267 66.1065 39.54 63.6998 38.43 62.3332" fill="#0661A7"/>
<path d="M31.4167 44.655L31.4117 30.1C22.0783 31.7833 15 39.94 15 49.7566C15 54.7616 16.8467 59.3366 19.89 62.8416C21.5133 61.8433 24.9633 59.4816 27.1933 56.2183C30.6467 51.175 31.4167 44.655 31.4167 44.655" fill="#0661A7"/>
<path d="M68.0508 30.1107L68.0492 44.4491C68.0492 44.4491 68.4342 50.4407 71.9242 55.6174C75.2275 60.5207 78.3975 62.3791 80.0525 63.0624C83.1542 59.5424 85.0375 54.9257 85.0375 49.8657C85.0375 39.8474 77.6658 31.5541 68.0508 30.1107" fill="#0661A7"/>
<path d="M68.5107 62.4439C65.5207 58.7622 64.754 55.1956 64.754 55.1956C64.754 55.1956 64.064 58.9156 61.684 62.0606C60.1907 64.0356 57.1507 66.4056 55.674 67.5039C58.474 68.9956 61.6673 69.8439 65.059 69.8439C68.4057 69.8439 71.559 69.0172 74.3323 67.5606C72.6073 66.2156 69.6223 63.8089 68.5107 62.4439" fill="#0661A7"/>
<path d="M61.4982 44.7657L61.4915 30.2107C52.1598 31.894 45.0815 40.049 45.0815 49.8657C45.0815 54.8724 46.9265 59.4457 49.9715 62.9524C51.5948 61.954 55.0432 59.5907 57.2748 56.329C60.7265 51.2857 61.4982 44.7657 61.4982 44.7657" fill="#0661A7"/>
<path d="M45.1602 49.799C45.1602 54.824 46.9235 59.429 49.9718 62.9524C53.0185 59.429 54.9502 54.824 54.9502 49.799C54.9502 44.7757 53.1018 40.1857 50.0552 36.6624C47.0068 40.1857 45.1602 44.7757 45.1602 49.799" fill="#CE392C"/>
</svg>
