<svg width="100" height="100" viewBox="0 0 100 100" fill="none" xmlns="http://www.w3.org/2000/svg">
<path d="M0.000366211 60.6207H4.41915V53.698H8.13094L11.607 60.6207H16.4971L12.4319 52.6669C14.5823 51.6359 15.9669 49.5149 15.9669 46.8636C15.9669 42.6805 12.9327 39.9998 8.39604 39.9998H0.000366211V60.6207ZM8.04253 43.682C10.1341 43.682 11.4598 44.9193 11.4598 46.8636C11.4598 48.7784 10.1341 50.0156 8.04253 50.0156H4.41915V43.682H8.04253ZM25.2827 60.7974C29.3185 60.7974 31.9403 58.4408 32.4116 55.495H28.3169C27.9634 56.9089 26.7851 57.6454 25.1059 57.6454C23.0144 57.6454 21.6298 56.3492 21.5414 54.1987V53.9926H32.5295C32.6178 53.5212 32.6473 53.0204 32.6473 52.5785C32.5884 48.1303 29.5247 45.3023 24.9881 45.3023C20.3042 45.3023 17.2111 48.366 17.2111 53.0794C17.2111 57.7632 20.2453 60.7974 25.2827 60.7974ZM21.6298 51.2824C21.8655 49.4854 23.2206 48.3954 25.0176 48.3954C26.9029 48.3954 28.1696 49.4265 28.4642 51.2824H21.6298ZM34.0952 55.5833C34.2719 58.8238 37.1294 60.7974 41.3419 60.7974C45.4072 60.7974 48.2352 58.8827 48.2352 55.8779C48.2352 52.4607 45.3483 51.6653 41.8722 51.3118C39.6922 51.0467 38.3961 50.9289 38.3961 49.78C38.3961 48.8078 39.4566 48.2187 41.0768 48.2187C42.756 48.2187 43.9048 48.9551 44.0227 50.1629H47.9995C47.7933 47.0698 44.9948 45.2729 40.9295 45.2729C37.041 45.2434 34.4192 47.2171 34.4192 50.2218C34.4192 53.3445 37.1588 54.1398 40.6939 54.5523C43.1389 54.8763 44.1699 54.9647 44.1699 56.2019C44.1699 57.2625 43.1095 57.8221 41.3714 57.8221C39.3387 57.8221 38.1898 56.9089 38.0426 55.5833H34.0952ZM57.9057 60.7974C61.9415 60.7974 64.5633 58.4408 65.0347 55.495H60.9399C60.5864 56.9089 59.4081 57.6454 57.7289 57.6454C55.6373 57.6454 54.2528 56.3492 54.1644 54.1987V53.9926H65.1525C65.2408 53.5212 65.2703 53.0204 65.2703 52.5785C65.2114 48.1303 62.1477 45.3023 57.6111 45.3023C52.9272 45.3023 49.834 48.366 49.834 53.0794C49.834 57.7632 52.8683 60.7974 57.9057 60.7974ZM54.2528 51.2824C54.4885 49.4854 55.8436 48.3954 57.6405 48.3954C59.5259 48.3954 60.7926 49.4265 61.0872 51.2824H54.2528ZM76.2304 45.3023C73.9036 45.3023 72.5186 46.1861 71.5468 47.3644L71.1635 45.479H67.5402V60.6207H71.6936V52.8731C71.6936 50.2513 72.9311 48.7195 75.0813 48.7195C77.173 48.7195 78.1455 50.0746 78.1455 52.6374V60.6207H82.299V52.2251C82.299 47.0403 79.5005 45.3023 76.2304 45.3023ZM95.8468 47.3644C94.8744 46.1271 93.3718 45.3023 91.2808 45.3023C87.2448 45.3023 84.2697 48.3365 84.2697 53.0204C84.2697 57.8221 87.2448 60.7974 91.31 60.7974C93.4901 60.7974 94.9627 59.8253 95.9644 58.5292L96.3769 60.6207H100V39.9998H95.8468V47.3644ZM92.2234 57.4097C89.955 57.4097 88.5115 55.6422 88.5115 53.0499C88.5115 50.4575 89.955 48.69 92.2234 48.69C94.4918 48.69 95.9053 50.487 95.9053 53.0794C95.9053 55.6422 94.4918 57.4097 92.2234 57.4097Z" fill="white"/>
</svg>
