<svg width="100" height="100" viewBox="0 0 100 100" fill="none" xmlns="http://www.w3.org/2000/svg">
<path d="M0 50C0 22.3858 22.3858 0 50 0C77.6142 0 100 22.3858 100 50C100 77.6142 77.6142 100 50 100C22.3858 100 0 77.6142 0 50Z" fill="#F8991D"/>
<path fill-rule="evenodd" clip-rule="evenodd" d="M76.6667 70H67.7784C67.7784 49.1684 50.8319 32.2217 30.0005 32.2217V23.3334C55.7319 23.3334 76.6667 44.2684 76.6667 70ZM30.0005 63.3334C30.0005 59.6517 32.9855 56.6667 36.6671 56.6667C40.3487 56.6667 43.3337 59.6517 43.3337 63.3334C43.3337 67.015 40.3487 70 36.6671 70C32.9855 70 30.0005 67.015 30.0005 63.3334ZM52.2231 70H61.1113C61.1113 52.845 47.1548 38.8884 30 38.8884V47.7784C42.2532 47.7784 52.2231 57.7467 52.2231 70Z" fill="white"/>
</svg>
