<svg width="100" height="100" viewBox="0 0 100 100" fill="none" xmlns="http://www.w3.org/2000/svg">
<path d="M77.4744 65.8212L20.3809 99.7234L94.3066 94.7066L99.9999 20.1641L77.474 65.8208L77.4744 65.8212Z" fill="url(#paint0_linear_755_15613)"/>
<path d="M94.4274 94.6555L88.0735 50.8008L70.7661 73.6547L94.4274 94.6559V94.6555Z" fill="url(#paint1_linear_755_15613)"/>
<path d="M94.5134 94.6556L47.9637 91.0017L20.6277 99.6277L94.5134 94.6556Z" fill="url(#paint2_linear_755_15613)"/>
<path d="M20.6937 99.6375L32.3227 61.5411L6.73267 67.0123L20.6934 99.6371L20.6937 99.6375Z" fill="url(#paint3_linear_755_15613)"/>
<path d="M70.7618 73.7803L60.0615 31.8688L29.4404 60.5725L70.7618 73.781V73.7803Z" fill="url(#paint4_linear_755_15613)"/>
<path d="M97.5724 32.4588L68.6267 8.81787L60.5664 34.8764L97.5724 32.4588Z" fill="url(#paint5_linear_755_15613)"/>
<path d="M84.0361 0.388881L67.012 9.79723L56.2712 0.262939L84.0361 0.389273V0.388881Z" fill="url(#paint6_linear_755_15613)"/>
<path d="M0 79.7917L7.13159 66.7852L1.3626 51.29L0 79.7917Z" fill="url(#paint7_linear_755_15613)"/>
<path d="M0.979248 50.8009L6.78355 67.2647L32.0044 61.6063L60.7984 34.8459L68.9246 9.03494L56.1295 0.000488281L34.3761 8.14157C27.5223 14.5163 14.2231 27.1293 13.7437 27.3663C13.269 27.6088 4.96151 43.3107 0.979248 50.8009Z" fill="white"/>
<path d="M21.3599 21.2237C36.214 6.496 55.363 -2.20535 62.7115 5.20912C70.0562 12.6236 62.2674 30.6419 47.4134 45.3649C32.5593 60.0875 13.6477 69.2683 6.30381 61.8538C-1.04474 54.4444 6.50587 35.9467 21.3599 21.2237Z" fill="url(#paint8_linear_755_15613)"/>
<path d="M20.6936 99.6223L32.2316 61.4047L70.5496 73.7148C56.6952 86.7064 41.286 97.6892 20.6936 99.6223Z" fill="url(#paint9_linear_755_15613)"/>
<path d="M60.8491 34.7706L70.6863 73.7352C82.2596 61.5663 92.6464 48.4841 97.7335 32.3027L60.8495 34.7706H60.8491Z" fill="url(#paint10_linear_755_15613)"/>
<path d="M97.6329 32.4993C101.57 20.6184 102.478 3.57393 83.9143 0.409302L68.6816 8.82306L97.6329 32.4993Z" fill="url(#paint11_linear_755_15613)"/>
<path d="M0 79.6203C0.545355 99.2291 14.6924 99.5214 20.7188 99.6933L6.79849 67.1838L0 79.6203Z" fill="#9E1209"/>
<path d="M60.9041 34.8313C69.7973 40.2974 87.7206 51.2751 88.0839 51.4768C88.6489 51.7946 95.8111 39.399 97.4365 32.3933L60.9041 34.8313Z" fill="url(#paint12_radial_755_15613)"/>
<path d="M32.2163 61.4047L47.6404 91.163C56.7608 86.2167 63.903 80.1904 70.4437 73.7352L32.2163 61.4047Z" fill="url(#paint13_radial_755_15613)"/>
<path d="M6.73808 67.2243L4.55273 93.2475C8.67624 98.8803 14.3495 99.37 20.2998 98.931C15.9946 88.2157 7.39407 66.7903 6.73808 67.2243Z" fill="url(#paint14_linear_755_15613)"/>
<path d="M68.5916 8.88857L99.2334 13.1886C97.5977 6.2591 92.5758 1.78719 84.0157 0.389282L68.5916 8.88857Z" fill="url(#paint15_linear_755_15613)"/>
<defs>
<linearGradient id="paint0_linear_755_15613" x1="87.858" y1="108.792" x2="66.7861" y2="71.5332" gradientUnits="userSpaceOnUse">
<stop stop-color="#FB7655"/>
<stop offset="0.41" stop-color="#E42B1E"/>
<stop offset="0.99" stop-color="#990000"/>
<stop offset="1" stop-color="#990000"/>
</linearGradient>
<linearGradient id="paint1_linear_755_15613" x1="98.3673" y1="77.5042" x2="68.7456" y2="71.7178" gradientUnits="userSpaceOnUse">
<stop stop-color="#871101"/>
<stop offset="0.99" stop-color="#911209"/>
<stop offset="1" stop-color="#911209"/>
</linearGradient>
<linearGradient id="paint2_linear_755_15613" x1="76.6139" y1="109.921" x2="76.2322" y2="91.1326" gradientUnits="userSpaceOnUse">
<stop stop-color="#871101"/>
<stop offset="0.99" stop-color="#911209"/>
<stop offset="1" stop-color="#911209"/>
</linearGradient>
<linearGradient id="paint3_linear_755_15613" x1="19.5308" y1="64.297" x2="28.3381" y2="90.1225" gradientUnits="userSpaceOnUse">
<stop stop-color="white"/>
<stop offset="0.23" stop-color="#E57252"/>
<stop offset="0.46" stop-color="#DE3B20"/>
<stop offset="0.99" stop-color="#A60003"/>
<stop offset="1" stop-color="#A60003"/>
</linearGradient>
<linearGradient id="paint4_linear_755_15613" x1="48.5202" y1="38.7206" x2="50.1176" y2="66.6731" gradientUnits="userSpaceOnUse">
<stop stop-color="white"/>
<stop offset="0.23" stop-color="#E4714E"/>
<stop offset="0.56" stop-color="#BE1A0D"/>
<stop offset="0.99" stop-color="#A80D00"/>
<stop offset="1" stop-color="#A80D00"/>
</linearGradient>
<linearGradient id="paint5_linear_755_15613" x1="74.2457" y1="12.8814" x2="76.5816" y2="33.1824" gradientUnits="userSpaceOnUse">
<stop stop-color="white"/>
<stop offset="0.18" stop-color="#E46342"/>
<stop offset="0.4" stop-color="#C82410"/>
<stop offset="0.99" stop-color="#A80D00"/>
<stop offset="1" stop-color="#A80D00"/>
</linearGradient>
<linearGradient id="paint6_linear_755_15613" x1="60.0498" y1="5.82582" x2="63.3432" y2="-8.13915" gradientUnits="userSpaceOnUse">
<stop stop-color="white"/>
<stop offset="0.54" stop-color="#C81F11"/>
<stop offset="0.99" stop-color="#BF0905"/>
<stop offset="1" stop-color="#BF0905"/>
</linearGradient>
<linearGradient id="paint7_linear_755_15613" x1="1.97003" y1="57.3139" x2="10.5828" y2="62.7125" gradientUnits="userSpaceOnUse">
<stop stop-color="white"/>
<stop offset="0.31" stop-color="#DE4024"/>
<stop offset="0.99" stop-color="#BF190B"/>
<stop offset="1" stop-color="#BF190B"/>
</linearGradient>
<linearGradient id="paint8_linear_755_15613" x1="-9.36545" y1="78.2849" x2="68.0316" y2="-1.52788" gradientUnits="userSpaceOnUse">
<stop stop-color="#BD0012"/>
<stop offset="0.07" stop-color="white"/>
<stop offset="0.17" stop-color="white"/>
<stop offset="0.27" stop-color="#C82F1C"/>
<stop offset="0.33" stop-color="#820C01"/>
<stop offset="0.46" stop-color="#A31601"/>
<stop offset="0.72" stop-color="#B31301"/>
<stop offset="0.99" stop-color="#E82609"/>
<stop offset="1" stop-color="#E82609"/>
</linearGradient>
<linearGradient id="paint9_linear_755_15613" x1="50.0049" y1="86.3244" x2="28.1021" y2="77.125" gradientUnits="userSpaceOnUse">
<stop stop-color="#8C0C01"/>
<stop offset="0.54" stop-color="#990C00"/>
<stop offset="0.99" stop-color="#A80D0E"/>
<stop offset="1" stop-color="#A80D0E"/>
</linearGradient>
<linearGradient id="paint10_linear_755_15613" x1="90.1055" y1="58.3032" x2="67.544" y2="42.2778" gradientUnits="userSpaceOnUse">
<stop stop-color="#7E110B"/>
<stop offset="0.99" stop-color="#9E0C00"/>
<stop offset="1" stop-color="#9E0C00"/>
</linearGradient>
<linearGradient id="paint11_linear_755_15613" x1="97.7257" y1="24.1951" x2="87.1158" y2="13.4246" gradientUnits="userSpaceOnUse">
<stop stop-color="#79130D"/>
<stop offset="0.99" stop-color="#9E120B"/>
<stop offset="1" stop-color="#9E120B"/>
</linearGradient>
<radialGradient id="paint12_radial_755_15613" cx="0" cy="0" r="1" gradientUnits="userSpaceOnUse" gradientTransform="translate(72.5948 40.0692) scale(25.4167 13.2811)">
<stop stop-color="#A80D00"/>
<stop offset="0.99" stop-color="#7E0E08"/>
<stop offset="1" stop-color="#7E0E08"/>
</radialGradient>
<radialGradient id="paint13_radial_755_15613" cx="0" cy="0" r="1" gradientUnits="userSpaceOnUse" gradientTransform="translate(37.3957 73.5639) scale(33.7877 26.3022)">
<stop stop-color="#A30C00"/>
<stop offset="0.99" stop-color="#800E08"/>
<stop offset="1" stop-color="#800E08"/>
</radialGradient>
<linearGradient id="paint14_linear_755_15613" x1="13.4608" y1="99.6003" x2="-5.56183" y2="83.8099" gradientUnits="userSpaceOnUse">
<stop stop-color="#8B2114"/>
<stop offset="0.43" stop-color="#9E100A"/>
<stop offset="0.99" stop-color="#B3100C"/>
<stop offset="1" stop-color="#B3100C"/>
</linearGradient>
<linearGradient id="paint15_linear_755_15613" x1="78.0507" y1="4.94572" x2="83.4499" y2="18.6046" gradientUnits="userSpaceOnUse">
<stop stop-color="#B31000"/>
<stop offset="0.44" stop-color="#910F08"/>
<stop offset="0.99" stop-color="#791C12"/>
<stop offset="1" stop-color="#791C12"/>
</linearGradient>
</defs>
</svg>
