<svg width="100" height="100" viewBox="0 0 100 100" fill="none" xmlns="http://www.w3.org/2000/svg">
<path d="M99.3168 48.7751L95.1187 46.1762C95.0833 45.7683 95.0434 45.3607 94.9992 44.9536L98.607 41.5884C98.7874 41.4207 98.9219 41.2097 98.9974 40.9753C99.073 40.7409 99.0872 40.4911 99.0387 40.2497C98.9913 40.0081 98.8827 39.7827 98.7234 39.595C98.564 39.4074 98.3592 39.2637 98.1285 39.1778L93.5164 37.4532C93.4006 37.0549 93.2801 36.658 93.1551 36.2626L96.032 32.2669C96.1761 32.0671 96.2668 31.8338 96.2953 31.5892C96.3239 31.3446 96.2894 31.0967 96.1952 30.8691C96.101 30.6416 95.9502 30.4418 95.757 30.289C95.5639 30.1361 95.3349 30.0352 95.0918 29.9958L90.2285 29.2048C90.0394 28.836 89.8426 28.4727 89.6441 28.1126L91.6875 23.627C91.7904 23.4032 91.834 23.1567 91.8143 22.9112C91.7946 22.6656 91.7122 22.4292 91.575 22.2247C91.4388 22.0195 91.2522 21.8527 91.0331 21.7404C90.8139 21.628 90.5695 21.5739 90.3234 21.5833L85.3875 21.7551C85.1326 21.4358 84.8726 21.1206 84.6078 20.8094L85.7422 16.0016C85.7989 15.7618 85.7933 15.5115 85.7259 15.2745C85.6585 15.0375 85.5315 14.8217 85.357 14.6477C85.183 14.4735 84.9673 14.3467 84.7305 14.2793C84.4937 14.2119 84.2436 14.2061 84.0039 14.2626L79.1973 15.3958C78.8852 15.1312 78.5693 14.8713 78.2496 14.6161L78.4223 9.68053C78.4315 9.43447 78.3775 9.19016 78.2653 8.97097C78.1531 8.75177 77.9866 8.56502 77.7816 8.42858C77.577 8.29156 77.3407 8.20922 77.0952 8.18939C76.8497 8.16956 76.6033 8.2129 76.3793 8.31529L71.8949 10.3598C71.5332 10.1602 71.1691 9.96486 70.8027 9.77389L70.0098 4.90982C69.9701 4.66694 69.869 4.43822 69.7162 4.24533C69.5633 4.05243 69.3638 3.90177 69.1364 3.8076C68.909 3.71343 68.6613 3.67889 68.4169 3.70724C68.1724 3.73558 67.9392 3.82589 67.7394 3.96959L63.741 6.84654C63.3476 6.72154 62.9519 6.60084 62.5527 6.48639L60.8281 1.87349C60.7423 1.6424 60.5987 1.43717 60.411 1.27741C60.2233 1.11766 59.9977 1.00871 59.7559 0.960995C59.5146 0.913515 59.2652 0.928263 59.0312 1.00385C58.7972 1.07944 58.5863 1.21337 58.4184 1.39303L55.0531 5.00357C54.6462 4.95796 54.2386 4.91812 53.8305 4.88404L51.2316 0.684823C51.1021 0.475576 50.9213 0.302881 50.7064 0.183116C50.4914 0.0633518 50.2494 0.000488281 50.0033 0.000488281C49.7572 0.000488281 49.5152 0.0633518 49.3003 0.183116C49.0853 0.302881 48.9045 0.475576 48.775 0.684823L46.1762 4.88404C45.7677 4.91807 45.3597 4.95792 44.9523 5.00357L41.5863 1.39303C41.4186 1.2127 41.2075 1.07831 40.9731 1.00263C40.7387 0.926947 40.4889 0.912498 40.2473 0.960656C40.0058 1.00881 39.7806 1.11798 39.5932 1.27776C39.4058 1.43754 39.2623 1.64262 39.1766 1.87349L37.4523 6.48639C37.0527 6.60084 36.6574 6.72232 36.2629 6.84654L32.2652 3.96959C32.0655 3.82523 31.8321 3.73452 31.5874 3.70613C31.3426 3.67775 31.0946 3.71265 30.8672 3.80748C30.64 3.90186 30.4405 4.05261 30.2878 4.24549C30.135 4.43838 30.034 4.66702 29.9941 4.90982L29.2012 9.77389C28.834 9.96412 28.4711 10.1598 28.109 10.3598L23.6242 8.3149C23.4004 8.21245 23.154 8.16911 22.9086 8.18901C22.6632 8.20891 22.4271 8.29139 22.2227 8.42858C22.0175 8.56493 21.8509 8.75164 21.7386 8.97084C21.6262 9.19004 21.5721 9.4344 21.5812 9.68053L21.7531 14.6161C21.4338 14.8718 21.1179 15.1317 20.8055 15.3958L15.9988 14.263C15.7591 14.2068 15.5089 14.2126 15.272 14.2799C15.0351 14.3473 14.8193 14.4738 14.6449 14.6477C14.4705 14.8217 14.3435 15.0375 14.2761 15.2745C14.2086 15.5115 14.203 15.7618 14.2598 16.0016L15.3922 20.8094C15.1293 21.1208 14.8695 21.436 14.6145 21.7551L9.67852 21.5833C9.43271 21.5755 9.18895 21.6302 8.97006 21.7424C8.75117 21.8545 8.5643 22.0203 8.42695 22.2243C8.28998 22.4289 8.20763 22.6652 8.18774 22.9107C8.16784 23.1561 8.21106 23.4026 8.31328 23.6266L10.3578 28.1126C10.159 28.4727 9.9625 28.836 9.77187 29.2048L4.90898 29.9958C4.66597 30.0354 4.43711 30.1364 4.24411 30.2893C4.05111 30.4422 3.90037 30.6419 3.80619 30.8694C3.71201 31.0969 3.6775 31.3447 3.70595 31.5892C3.7344 31.8338 3.82486 32.0671 3.96875 32.2669L6.8457 36.263C6.7207 36.6575 6.59922 37.0536 6.48438 37.4532L1.87188 39.1778C1.64152 39.2643 1.43707 39.4082 1.27785 39.5958C1.11863 39.7835 1.00992 40.0086 0.962012 40.25C0.9141 40.4913 0.92857 40.7409 1.00405 40.9751C1.07953 41.2093 1.21353 41.4204 1.39336 41.5884L5.00156 44.9532C4.95664 45.3594 4.9168 45.7684 4.88242 46.1762L0.683594 48.7751C0.47438 48.9046 0.301753 49.0855 0.182109 49.3005C0.0624656 49.5155 -0.000222061 49.7575 5.91039e-07 50.0036C5.91039e-07 50.5052 0.258985 50.9696 0.683985 51.2313L4.88242 53.8302C4.9168 54.2391 4.95664 54.6473 5.00156 55.0532L1.39297 58.4192C1.21282 58.587 1.07854 58.798 1.00288 59.0322C0.927217 59.2665 0.912687 59.5162 0.96067 59.7576C1.00865 59.999 1.11755 60.2242 1.27703 60.4117C1.43651 60.5992 1.64127 60.7429 1.87188 60.829L6.48438 62.5536C6.59922 62.9528 6.7207 63.3493 6.8457 63.7438L3.96875 67.7403C3.82459 67.9401 3.73394 68.1734 3.70542 68.4181C3.67691 68.6628 3.71147 68.9107 3.80583 69.1382C3.90018 69.3658 4.05119 69.5654 4.24449 69.7181C4.43779 69.8708 4.66694 69.9715 4.91016 70.0106L9.77226 70.8017C9.9625 71.1704 10.1574 71.5337 10.3582 71.8954L8.31328 76.3798C8.21087 76.6038 8.16755 76.8503 8.18745 77.0957C8.20735 77.3412 8.28981 77.5775 8.42695 77.7821C8.56331 77.9871 8.74998 78.1537 8.96911 78.2659C9.18823 78.3781 9.43249 78.4323 9.67852 78.4231L14.6121 78.2505C14.8695 78.5712 15.1285 78.8856 15.3922 79.1981L14.2598 84.0067C14.2031 84.2461 14.2087 84.496 14.2761 84.7325C14.3436 84.9691 14.4705 85.1844 14.6449 85.3579C14.8188 85.5325 15.0346 85.6595 15.2717 85.7267C15.5088 85.794 15.7592 85.7992 15.9988 85.7419L20.8055 84.6099C21.118 84.8755 21.4344 85.1333 21.7535 85.3872L21.5816 90.3243C21.5728 90.5703 21.627 90.8145 21.7391 91.0336C21.8513 91.2528 22.0176 91.4396 22.2223 91.5763C22.427 91.713 22.6633 91.7951 22.9087 91.8147C23.1541 91.8343 23.4004 91.7908 23.6242 91.6884L28.109 89.645C28.4701 89.8457 28.8342 90.0409 29.2012 90.2306L29.9941 95.0919C30.0333 95.3351 30.1341 95.5642 30.2869 95.7573C30.4398 95.9505 30.6395 96.1013 30.8672 96.1954C31.0947 96.2896 31.3425 96.3243 31.5871 96.2961C31.8318 96.2678 32.0652 96.1777 32.2652 96.0341L36.2609 93.1552C36.6555 93.2802 37.0519 93.4024 37.4512 93.5173L39.1758 98.1282C39.2616 98.359 39.4053 98.5639 39.5929 98.7233C39.7806 98.8827 40.006 98.9913 40.2477 99.0388C40.489 99.0875 40.7388 99.0733 40.9731 98.9976C41.2074 98.922 41.4183 98.7874 41.5855 98.6067L44.9516 94.9981C45.3578 95.045 45.7664 95.0841 46.1754 95.1204L48.7742 99.3188C48.9039 99.5278 49.0846 99.7002 49.2995 99.8198C49.5143 99.9394 49.7561 100.002 50.0019 100.002C50.248 100.002 50.4899 99.9396 50.7048 99.8199C50.9198 99.7003 51.1007 99.5279 51.2305 99.3188L53.8293 95.1204C54.2383 95.0841 54.6465 95.045 55.0523 94.9981L58.4176 98.6067C58.5849 98.7872 58.7957 98.9217 59.0299 98.9974C59.2641 99.073 59.5138 99.0873 59.7551 99.0388C59.9966 98.9912 60.222 98.8825 60.4096 98.7231C60.5972 98.5637 60.7409 98.3589 60.8269 98.1282L62.5516 93.5173C62.9508 93.4024 63.3476 93.2802 63.7422 93.1552L67.7387 96.0341C67.9386 96.1778 68.1719 96.2681 68.4165 96.2963C68.6611 96.3246 68.9089 96.2898 69.1363 96.1955C69.3637 96.1011 69.5632 95.9502 69.716 95.757C69.8687 95.5639 69.9696 95.3349 70.009 95.0919L70.8019 90.2306C71.1687 90.0403 71.5316 89.8427 71.8937 89.6446L76.3785 91.6884C76.6023 91.7911 76.8488 91.8349 77.0943 91.8154C77.3398 91.7959 77.5763 91.7139 77.7811 91.5771C77.9859 91.4404 78.1523 91.2534 78.2644 91.0341C78.3765 90.8148 78.4306 90.5704 78.4215 90.3243L78.2496 85.3876C78.5692 85.1334 78.8847 84.8741 79.1961 84.6099L84.0031 85.7419C84.4914 85.8567 85.0031 85.7145 85.3559 85.3579C85.5302 85.1844 85.6572 84.9691 85.7246 84.7325C85.7921 84.496 85.7977 84.2461 85.741 84.0067L84.609 79.1981C84.8726 78.8856 85.1324 78.5712 85.3863 78.2505L90.3223 78.4231C90.5683 78.4324 90.8125 78.3784 91.0317 78.2662C91.2508 78.1541 91.4375 77.9875 91.5738 77.7825C91.7112 77.5779 91.7937 77.3414 91.8135 77.0957C91.8332 76.85 91.7896 76.6034 91.6867 76.3794L89.643 71.8958C89.8426 71.5337 90.0387 71.1704 90.2277 70.802L95.091 70.0106C95.3341 69.9716 95.5632 69.8708 95.7562 69.7178C95.9492 69.5649 96.0997 69.365 96.1933 69.1372C96.2876 68.9098 96.3222 68.6622 96.2939 68.4177C96.2655 68.1732 96.1751 67.94 96.0312 67.7403L93.1543 63.7442C93.2785 63.3493 93.4 62.9528 93.5156 62.5536L98.1273 60.829C98.3582 60.7431 98.5631 60.5994 98.7225 60.4117C98.882 60.224 98.9905 59.9984 99.0379 59.7567C99.0865 59.5154 99.0723 59.2657 98.9966 59.0315C98.921 58.7973 98.7864 58.5865 98.6058 58.4192L94.9984 55.0532C95.0422 54.647 95.0824 54.2384 95.1176 53.8305L99.316 51.2313C99.5253 51.1021 99.698 50.9214 99.8178 50.7065C99.9375 50.4916 100 50.2496 100 50.0036C100 49.5032 99.7422 49.038 99.3168 48.7751ZM71.2183 83.6017C69.6152 83.256 68.5957 81.6759 68.9398 80.0677C69.2828 78.4614 70.8617 77.4391 72.4644 77.7849C74.0676 78.1282 75.0887 79.711 74.7449 81.3161C74.4012 82.9216 72.8207 83.945 71.2183 83.6017ZM69.7918 73.9536C69.4439 73.879 69.0848 73.8737 68.7348 73.938C68.3849 74.0024 68.0511 74.1351 67.7526 74.3285C67.454 74.5219 67.1964 74.7724 66.9947 75.0654C66.793 75.3585 66.651 75.6884 66.5769 76.0364L65.0863 82.9923C60.4867 85.0798 55.3793 86.2395 50 86.2395C44.4977 86.2395 39.2789 85.0224 34.5977 82.8458L33.1078 75.8903C32.7945 74.4266 31.3555 73.4942 29.8937 73.8083L23.7531 75.127C22.6119 73.9524 21.5511 72.7022 20.5781 71.3848H50.457C50.7949 71.3848 51.0203 71.3235 51.0203 71.0157V60.4466C51.0203 60.1391 50.7949 60.0778 50.4566 60.0778H41.7187V53.3786H51.1699C52.0324 53.3786 55.7828 53.6247 56.9816 58.4184C57.3574 59.8927 58.1816 64.688 58.7457 66.2231C59.3074 67.945 61.5945 71.3845 64.032 71.3845H78.9207C79.0898 71.3845 79.2703 71.3653 79.4605 71.3309C78.4275 72.7339 77.2959 74.0615 76.0742 75.3036L69.7922 73.9536H69.7918ZM28.4676 83.4563C26.8641 83.8024 25.2855 82.7802 24.9406 81.1739C24.5977 79.5649 25.6172 77.9856 27.2203 77.6399C28.8238 77.297 30.4031 78.3192 30.7469 79.9251C31.0898 81.5306 30.0695 83.1126 28.4672 83.4563H28.4676ZM17.1328 37.4954C17.798 38.9962 17.1211 40.7551 15.6223 41.4192C14.1234 42.0852 12.3691 41.4075 11.7043 39.9055C11.0391 38.4036 11.7156 36.6477 13.2148 35.9817C13.5714 35.8236 13.9557 35.7372 14.3457 35.7277C14.7356 35.7182 15.1236 35.7856 15.4875 35.9262C15.8514 36.0667 16.184 36.2776 16.4663 36.5468C16.7486 36.816 16.9751 37.1382 17.1328 37.495V37.4954ZM13.6492 45.7532L20.0461 42.9106C20.7028 42.6185 21.2166 42.0776 21.4747 41.4068C21.7329 40.7361 21.7141 39.9902 21.4227 39.3333L20.1055 36.3544H25.2867V59.7091H14.8332C13.9066 56.447 13.4378 53.072 13.4402 49.6809C13.4402 48.3536 13.5117 47.0419 13.6492 45.7528V45.7532ZM41.7203 43.4848V36.6008H54.0586C54.6961 36.6008 58.5586 37.3376 58.5586 40.2259C58.5586 42.6239 55.5961 43.4837 53.1598 43.4837H41.7203V43.4848ZM86.5609 49.6809C86.5609 50.5942 86.5273 51.4981 86.4605 52.395H82.7094C82.334 52.395 82.1828 52.6419 82.1828 53.0095V54.7321C82.1828 58.7868 79.8965 59.6688 77.893 59.8934C75.9851 60.1083 73.8695 59.0946 73.609 57.927C72.4832 51.5966 70.6078 50.2446 67.6461 47.9083C71.3219 45.5743 75.1461 42.1309 75.1461 37.5216C75.1461 32.545 71.7344 29.4102 69.4086 27.8731C66.1461 25.7223 62.5336 25.2911 61.559 25.2911H22.7652C28.0258 19.42 35.1555 15.261 43.2191 13.7477L47.7918 18.5446C48.0371 18.8021 48.3308 19.0087 48.6561 19.1525C48.9813 19.2963 49.3318 19.3745 49.6873 19.3827C50.0429 19.3909 50.3966 19.3289 50.7281 19.2003C51.0597 19.0716 51.3626 18.8788 51.6195 18.6329L56.7359 13.7391C67.4566 15.7352 76.5336 22.4087 81.7644 31.5645L78.2617 39.4759C77.657 40.845 78.2742 42.4462 79.6394 43.0528L86.3832 46.0481C86.4996 47.2454 86.5609 48.4548 86.5609 49.6809ZM47.7937 9.66686C48.9785 8.53209 50.8578 8.57701 51.9922 9.76334C53.1242 10.9532 53.0812 12.8344 51.8937 13.9684C50.709 15.1036 48.8297 15.0594 47.6953 13.8708C47.1518 13.2998 46.8569 12.5366 46.8753 11.7485C46.8938 10.9604 47.2241 10.2118 47.7937 9.66686ZM82.5527 37.6395C82.7103 37.2828 82.9367 36.9606 83.219 36.6914C83.5013 36.4223 83.8338 36.2114 84.1977 36.0709C84.5615 35.9304 84.9495 35.8631 85.3394 35.8727C85.7293 35.8823 86.1134 35.9688 86.4699 36.127C87.9691 36.7919 88.6457 38.5501 87.9805 40.0509C87.8229 40.4078 87.5965 40.7301 87.3143 40.9994C87.032 41.2688 86.6994 41.4798 86.3354 41.6204C85.9715 41.761 85.5834 41.8284 85.1934 41.8188C84.8034 41.8092 84.4191 41.7228 84.0625 41.5645C82.5652 40.8993 81.8887 39.1427 82.5527 37.6395Z" fill="white"/>
</svg>
