<svg width="100" height="100" viewBox="0 0 100 100" fill="none" xmlns="http://www.w3.org/2000/svg">
<path d="M96.7702 49.4269C96.7702 55.6439 95.5456 61.8004 93.1665 67.5444C90.7871 73.2883 87.3 78.5075 82.9038 82.9037C78.5075 87.3 73.2883 90.7873 67.5444 93.1664C61.8004 95.5456 55.644 96.7702 49.4267 96.7702C36.8704 96.7702 24.8285 91.7823 15.9499 82.9037C7.07127 74.025 2.08334 61.9831 2.08334 49.4269C2.08334 36.8706 7.07127 24.8285 15.9499 15.9499C24.8285 7.07127 36.8704 2.08331 49.4267 2.08331C55.644 2.08331 61.8004 3.3079 67.5444 5.68713C73.2883 8.06636 78.5075 11.5536 82.9038 15.9499C87.3 20.3461 90.7871 25.5652 93.1665 31.3091C95.5456 37.0531 96.7702 43.2096 96.7702 49.4269V49.4269Z" fill="url(#paint0_linear_147648_1570)"/>
<path d="M93.0596 49.4268C93.0596 60.9993 88.4625 72.0977 80.2796 80.2806C72.0967 88.4635 60.9983 93.0606 49.4258 93.0606C37.8535 93.0606 26.7552 88.4635 18.5722 80.2806C10.3893 72.0977 5.79223 60.9993 5.79223 49.4268C5.79223 37.8545 10.3893 26.7562 18.5722 18.5732C26.7552 10.3903 37.8535 5.79321 49.4258 5.79321C60.9983 5.79321 72.0967 10.3903 80.2796 18.5732C88.4625 26.7562 93.0596 37.8545 93.0596 49.4268Z" fill="url(#paint1_radial_147648_1570)"/>
<path fill-rule="evenodd" clip-rule="evenodd" d="M48.7917 8.70499C48.7917 8.35254 49.0752 8.06885 49.4277 8.06885C49.7802 8.06885 50.064 8.35254 50.064 8.70499V16.0429C50.064 16.3953 49.7802 16.679 49.4277 16.679C49.0752 16.679 48.7917 16.3953 48.7917 16.0429V8.70499ZM45.1367 8.33241C45.1804 8.32735 45.2238 8.32735 45.266 8.33189H45.2658C45.5608 8.36051 45.8035 8.59239 45.8356 8.89912L46.156 11.969C46.1927 12.3195 45.94 12.6311 45.5894 12.6677C45.2388 12.7043 44.9271 12.4515 44.8906 12.101L44.57 9.03114C44.5333 8.6806 44.786 8.36899 45.1367 8.33241ZM53.6185 8.33491C53.3235 8.36331 53.0808 8.59516 53.0485 8.90185L52.7258 11.9714C52.689 12.322 52.9417 12.6339 53.2921 12.6707C53.6427 12.7076 53.9544 12.4551 53.9913 12.1046L54.3142 9.03474C54.351 8.68422 54.0981 8.37256 53.7477 8.3357C53.7038 8.33118 53.6608 8.33118 53.6185 8.33493V8.33491ZM40.8623 8.96543C40.9054 8.95635 40.9485 8.95216 40.9908 8.95183V8.95143C41.2873 8.94912 41.5527 9.15437 41.6165 9.45608L43.1363 16.635C43.2092 16.9798 42.9904 17.3159 42.6456 17.3889C42.3008 17.4619 41.9644 17.2431 41.8915 16.8983L40.3717 9.71964C40.2988 9.37485 40.5175 9.03843 40.8623 8.96543ZM57.8935 8.95789C57.5971 8.95487 57.3317 9.16031 57.2675 9.46195L55.7425 16.6398C55.6694 16.9845 55.8879 17.321 56.2327 17.3943C56.5775 17.4676 56.914 17.2489 56.9871 16.9042L58.5121 9.72633C58.5854 9.3816 58.3667 9.04508 58.0221 8.97185C57.979 8.96279 57.9358 8.95824 57.8935 8.95824V8.95789ZM36.6596 10.1316C36.7433 10.1037 36.8285 10.0947 36.9108 10.1022V10.1022C37.1579 10.1232 37.3794 10.2884 37.461 10.5398L38.4148 13.4754C38.5238 13.8106 38.3419 14.1681 38.0067 14.2771C37.6715 14.386 37.314 14.2038 37.205 13.8686L36.251 10.933C36.1421 10.5978 36.3244 10.2405 36.6596 10.1316ZM61.9504 10.1037C61.7033 10.1247 61.4819 10.29 61.4002 10.5414L60.4458 13.4767C60.3369 13.8119 60.519 14.1695 60.8542 14.2784C61.1892 14.3874 61.5469 14.2053 61.6558 13.8702L62.6102 10.9346C62.7192 10.5994 62.5371 10.2418 62.2019 10.1328C62.1181 10.1056 62.0327 10.0967 61.9504 10.1037V10.1037ZM32.6294 11.6341C32.7098 11.5983 32.7935 11.5802 32.8762 11.5787C33.1242 11.5739 33.3617 11.7155 33.469 11.957L36.4496 18.6623C36.5927 18.9844 36.4483 19.3588 36.1265 19.5019C35.8044 19.6451 35.43 19.5011 35.2869 19.179L32.3065 12.4737C32.1633 12.1517 32.3075 11.7773 32.6294 11.6341ZM66.0306 11.6012C65.7827 11.5966 65.545 11.7373 65.4373 11.9787L62.4479 18.6799C62.3044 19.0017 62.4479 19.3765 62.7698 19.52C63.0917 19.6636 63.4663 19.5201 63.6098 19.1983L66.5994 12.4971C66.7429 12.1752 66.5994 11.8005 66.2775 11.6569C66.1971 11.6211 66.1133 11.603 66.0306 11.6012ZM28.7688 13.6445C28.8831 13.5783 29.0092 13.5511 29.1313 13.5602V13.5602C29.3348 13.5745 29.5275 13.6866 29.6377 13.8773L31.181 16.5505C31.3573 16.8557 31.2535 17.2432 30.9483 17.4194C30.6429 17.5956 30.2554 17.4918 30.0792 17.1866L28.5358 14.5135C28.3598 14.2083 28.4635 13.8207 28.7688 13.6445ZM69.7244 13.5602C69.5208 13.5738 69.3281 13.6865 69.2179 13.8773L67.6744 16.5504C67.4981 16.8556 67.6023 17.2432 67.9075 17.4194C68.2127 17.5956 68.6002 17.4918 68.7765 17.1866L70.3198 14.5135C70.496 14.2082 70.3923 13.8207 70.0871 13.6445C69.9725 13.5784 69.8465 13.5517 69.7244 13.5601V13.5602ZM25.1427 15.9497C25.2496 15.8721 25.3723 15.8328 25.4946 15.8283V15.8284C25.6985 15.8214 25.9017 15.9128 26.031 16.0911L30.34 22.0306C30.5471 22.316 30.484 22.7123 30.1988 22.9192C29.9135 23.126 29.5169 23.0629 29.31 22.7777L25.0013 16.8382C24.7944 16.5529 24.8575 16.1566 25.1427 15.9497ZM73.4065 15.8607C73.2025 15.8531 72.9992 15.9445 72.8696 16.1226L68.5527 22.0565C68.3454 22.3415 68.4079 22.7377 68.6931 22.9452C68.9781 23.1525 69.3744 23.09 69.5817 22.8052L73.8983 16.8714C74.1058 16.5864 74.0431 16.19 73.7581 15.9826C73.6513 15.905 73.5288 15.865 73.4065 15.8607ZM21.785 18.7174C21.916 18.5995 22.0817 18.5453 22.2442 18.5543V18.5543C22.4065 18.5628 22.5658 18.6336 22.6838 18.7646L24.7488 21.0585C24.9846 21.3204 24.9635 21.7215 24.7015 21.9571C24.4396 22.1931 24.039 22.1721 23.8031 21.91L21.7379 19.6158C21.5021 19.3539 21.5231 18.9532 21.785 18.7174ZM76.6161 18.5589C76.4536 18.568 76.2944 18.6382 76.1765 18.7692L74.1113 21.0629C73.8754 21.3248 73.8963 21.7256 74.1581 21.9615C74.4202 22.1973 74.8208 22.1762 75.0567 21.9144L77.1221 19.6207C77.3579 19.3587 77.3369 18.9579 77.075 18.7221C76.944 18.6042 76.7786 18.5505 76.6163 18.559L76.6161 18.5589ZM18.6894 21.7573C18.8073 21.6262 18.9663 21.556 19.1287 21.5469L19.1286 21.5471C19.291 21.5385 19.4566 21.5923 19.5876 21.71L25.0415 26.6194C25.3035 26.8552 25.3244 27.2558 25.0885 27.5179C24.8527 27.7798 24.4521 27.8008 24.1902 27.565L18.7366 22.6556C18.4747 22.4198 18.4536 22.0192 18.6894 21.7573ZM79.7465 21.5683C79.5842 21.5594 79.4183 21.6133 79.2873 21.7312L73.8304 26.6367C73.5683 26.8723 73.5467 27.2729 73.7823 27.5352C74.0179 27.7973 74.4187 27.8185 74.6808 27.5829L80.1381 22.6773C80.4002 22.4417 80.4215 22.041 80.1858 21.779C80.0679 21.6479 79.909 21.5771 79.7465 21.5683ZM16.0012 25.1406C16.1307 24.9625 16.334 24.8706 16.5379 24.8781H16.538C16.6603 24.8825 16.7831 24.9221 16.8899 24.9998L19.3871 26.8142C19.6721 27.0212 19.7348 27.4177 19.5276 27.7029C19.3205 27.9881 18.9243 28.0506 18.6392 27.8435L16.1421 26.0292C15.8569 25.8221 15.794 25.4258 16.0012 25.1406ZM82.3348 24.9012C82.2125 24.9058 82.0898 24.945 81.9829 25.0227L79.4846 26.8354C79.1994 27.0423 79.1363 27.4387 79.3431 27.7242C79.5502 28.0094 79.9465 28.0721 80.2317 27.8652L82.7302 26.0527C83.0154 25.8456 83.0783 25.4494 82.8713 25.1642C82.7419 24.9858 82.5387 24.8944 82.3348 24.9015V24.9012ZM13.6106 28.7487C13.7208 28.5579 13.9133 28.4452 14.1169 28.4317V28.4315C14.239 28.4231 14.3652 28.4498 14.4796 28.5158L20.8344 32.1848C21.1396 32.361 21.2433 32.7485 21.0671 33.0537C20.8908 33.359 20.5033 33.4629 20.1981 33.2867L13.8434 29.6177C13.5382 29.4415 13.4344 29.054 13.6106 28.7487ZM84.7385 28.4317C84.6165 28.4225 84.4904 28.4498 84.3758 28.516L78.0212 32.185C77.716 32.361 77.6121 32.7487 77.7883 33.054C77.9646 33.3592 78.3521 33.4629 78.6573 33.2867L85.0123 29.6177C85.3175 29.4417 85.4215 29.054 85.2452 28.7487C85.135 28.5581 84.9421 28.4458 84.7385 28.4317ZM11.6931 32.5965C11.8007 32.355 12.0385 32.2131 12.2864 32.2192C12.369 32.2208 12.4528 32.2387 12.5332 32.2746L15.3521 33.5321C15.674 33.6756 15.8178 34.0504 15.6742 34.3723C15.5306 34.6942 15.1559 34.8377 14.834 34.694L12.0149 33.4365C11.693 33.2929 11.5495 32.9183 11.6931 32.5965ZM86.5815 32.2454C86.4987 32.2469 86.4148 32.265 86.3344 32.3008L83.5146 33.556C83.1927 33.6996 83.0485 34.074 83.1919 34.396C83.3354 34.7179 83.7102 34.8619 84.0321 34.7185L86.8519 33.4629C87.1738 33.3198 87.3175 32.945 87.1742 32.6231C87.0667 32.3817 86.8294 32.2404 86.5815 32.2454ZM10.1045 36.615C10.1864 36.3635 10.4079 36.1985 10.655 36.1779C10.7373 36.171 10.8228 36.1798 10.9065 36.2073L17.8833 38.4806C18.2185 38.5898 18.4001 38.9475 18.291 39.2825C18.1818 39.6175 17.8241 39.7994 17.489 39.6902L10.5122 37.4169C10.177 37.3077 9.99538 36.95 10.1045 36.615ZM88.2098 36.205C88.1275 36.1975 88.0425 36.2067 87.9585 36.2344L80.9802 38.5027C80.645 38.6117 80.4629 38.9694 80.5719 39.3046C80.6808 39.6396 81.0383 39.8217 81.3735 39.7127L88.3519 37.4444C88.6869 37.3354 88.8694 36.9779 88.7604 36.6427C88.6785 36.3912 88.4569 36.226 88.2098 36.205ZM9.01225 40.8377C9.07638 40.536 9.34219 40.3304 9.63856 40.3333V40.334C9.68088 40.334 9.72398 40.3385 9.76706 40.3477L12.7861 40.9892C13.1308 41.0625 13.3495 41.399 13.2762 41.7437C13.2029 42.0885 12.8664 42.3071 12.5217 42.2337L9.50236 41.5923C9.15767 41.519 8.93896 41.1825 9.01225 40.8377ZM89.2183 40.3394C89.176 40.3398 89.1333 40.3454 89.0902 40.3529L86.0708 40.9944C85.726 41.0677 85.5075 41.4037 85.5806 41.7485C85.654 42.0933 85.9904 42.3121 86.3352 42.239L89.3542 41.5975C89.699 41.5244 89.9179 41.1879 89.8446 40.8431C89.7806 40.5415 89.5148 40.3362 89.2183 40.3387V40.3394ZM8.29896 45.0796C8.33138 44.7729 8.57421 44.5415 8.86923 44.5133C8.9114 44.5092 8.95446 44.5092 8.99827 44.5137L16.2955 45.2854C16.646 45.3223 16.8984 45.6344 16.8614 45.9848C16.8244 46.3354 16.5123 46.5877 16.1618 46.5508L8.86456 45.7792C8.51408 45.7423 8.26194 45.4302 8.29896 45.0796ZM89.9931 44.5681C89.951 44.5635 89.9075 44.5635 89.8637 44.5685L82.5656 45.3302C82.2152 45.3669 81.9625 45.6785 81.999 46.029C82.0356 46.3796 82.3471 46.6323 82.6977 46.5956L89.9958 45.8342C90.3463 45.7975 90.599 45.4858 90.5625 45.1354C90.5304 44.8285 90.2881 44.5967 89.9931 44.5681ZM8.10954 49.4281C8.10954 49.0756 8.39321 48.7919 8.74567 48.7919H11.8323C12.1847 48.7919 12.4687 49.0756 12.4687 49.4281C12.4687 49.7806 12.1847 50.0642 11.8323 50.0642H8.74567C8.39321 50.0642 8.10954 49.7806 8.10954 49.4281ZM87.0231 48.7919C86.6708 48.7919 86.3871 49.0756 86.3871 49.4281C86.3871 49.7806 86.6708 50.0642 87.0231 50.0642H90.1098C90.4623 50.0642 90.746 49.7806 90.746 49.4281C90.746 49.0756 90.4623 48.7919 90.1098 48.7919H87.0231ZM16.1579 52.2604C16.2018 52.2554 16.2449 52.2554 16.287 52.26H16.287C16.582 52.2885 16.8246 52.5204 16.8567 52.8271C16.8932 53.1777 16.6406 53.4894 16.29 53.5258L8.99165 54.2875C8.64111 54.3242 8.3295 54.0714 8.29292 53.7208C8.25638 53.3702 8.50904 53.0585 8.85958 53.0221L16.1579 52.2604ZM82.5646 52.305C82.2696 52.3331 82.0267 52.5648 81.9944 52.8715C81.9573 53.2219 82.2094 53.534 82.56 53.571L89.8573 54.3425C90.2077 54.3796 90.5198 54.1271 90.5569 53.7767C90.5938 53.426 90.3415 53.114 89.9908 53.0771L82.694 52.3054C82.6502 52.301 82.6067 52.301 82.5646 52.305ZM12.5206 56.6162C12.5637 56.6071 12.6068 56.6029 12.6491 56.6027L12.6491 56.6023C12.9455 56.5998 13.211 56.805 13.2751 57.1067C13.3483 57.4512 13.1298 57.7877 12.7851 57.861L9.76571 58.5021C9.42096 58.5754 9.0845 58.3569 9.01119 58.0121C8.93798 57.6673 9.15654 57.3308 9.50129 57.2575L12.5206 56.6162ZM86.2056 56.6087C85.9092 56.6056 85.6437 56.811 85.5796 57.1127C85.5062 57.4575 85.7246 57.7939 86.0694 57.8673L89.0888 58.5089C89.4335 58.5823 89.77 58.3637 89.8431 58.0192C89.9165 57.6744 89.6977 57.3375 89.3531 57.2644L86.334 56.6227C86.291 56.6135 86.2479 56.6092 86.2056 56.6092V56.6087ZM17.4822 59.1435C17.566 59.1158 17.651 59.1067 17.7334 59.1144V59.1142C17.9805 59.1352 18.2021 59.3004 18.2839 59.5519C18.3928 59.8871 18.2105 60.2446 17.8754 60.3535L10.8971 62.6221C10.5619 62.731 10.2044 62.549 10.0954 62.2137C9.98646 61.8785 10.1685 61.521 10.5037 61.4121L17.4822 59.1435ZM81.1152 59.1369C80.8681 59.1575 80.6467 59.3225 80.5648 59.5739C80.4556 59.9089 80.6373 60.2667 80.9725 60.3758L87.9494 62.6494C88.2844 62.7583 88.6421 62.5767 88.7513 62.2414C88.8606 61.9064 88.6788 61.5487 88.3435 61.4396L81.3667 59.1662C81.2829 59.1387 81.1977 59.13 81.1152 59.1369ZM14.8236 64.1379C14.9041 64.1021 14.9878 64.0844 15.0704 64.0827C15.3184 64.0777 15.556 64.219 15.6635 64.4604C15.8068 64.7825 15.6631 65.1571 15.3411 65.3004L12.5211 66.5556C12.1992 66.699 11.8247 66.5554 11.6813 66.2333C11.5379 65.9115 11.6816 65.5367 12.0036 65.3935L14.8236 64.1379ZM83.7748 64.1069C83.5269 64.1008 83.2892 64.2427 83.1815 64.4842C83.0379 64.806 83.1815 65.1808 83.5033 65.3244L86.3223 66.5819C86.6442 66.7254 87.019 66.5819 87.1625 66.26C87.306 65.9381 87.1625 65.5635 86.8406 65.4198L84.0217 64.1623C83.9412 64.1264 83.8575 64.1085 83.7748 64.1069ZM20.1981 65.5698C20.3126 65.5035 20.4387 65.4765 20.5608 65.4854V65.4856C20.7644 65.4998 20.9569 65.6119 21.0671 65.8027C21.2433 66.1079 21.1396 66.4956 20.8344 66.6719L14.4796 70.3406C14.1744 70.5169 13.7868 70.4129 13.6106 70.1077C13.4344 69.8025 13.5382 69.415 13.8434 69.2387L20.1981 65.5698ZM78.295 65.4854C78.0915 65.4992 77.8985 65.6119 77.7883 65.8027C77.6121 66.1079 77.716 66.4956 78.0212 66.6719L84.3758 70.3406C84.681 70.5167 85.069 70.4129 85.2452 70.1077C85.4215 69.8025 85.3175 69.415 85.0123 69.2387L78.6573 65.5698C78.5429 65.5037 78.4171 65.4771 78.295 65.4854ZM18.6238 70.9912C18.7308 70.9135 18.8533 70.8742 18.9758 70.8696C19.1797 70.8625 19.3832 70.9544 19.5125 71.1325C19.7195 71.4179 19.6564 71.8142 19.3711 72.021L16.8726 73.8337C16.5873 74.0408 16.1911 73.9777 15.9841 73.6923C15.7772 73.4071 15.8403 73.0108 16.1256 72.8039L18.6238 70.9912ZM79.8646 70.891C79.6606 70.8835 79.4573 70.9754 79.3279 71.1535C79.1206 71.4387 79.1835 71.8352 79.4688 72.0423L81.9658 73.8567C82.251 74.0637 82.6471 74.0008 82.8544 73.7156C83.0615 73.4306 82.9987 73.0344 82.7138 72.8273L80.2167 71.0129C80.1098 70.9352 79.9871 70.8954 79.8646 70.891ZM24.1748 71.2735C24.3058 71.1558 24.4715 71.1017 24.634 71.1106C24.7963 71.1194 24.9554 71.1902 25.0731 71.3212C25.3088 71.5833 25.2875 71.984 25.0254 72.2196L19.5683 77.1252C19.3062 77.3608 18.9055 77.3396 18.6699 77.0775C18.4343 76.8154 18.4556 76.4146 18.7177 76.1792L24.1748 71.2735ZM74.2065 71.1283C74.0442 71.1373 73.8848 71.2075 73.7669 71.3385C73.5311 71.6004 73.5523 72.001 73.8142 72.2369L79.2677 77.1462C79.5296 77.3821 79.9304 77.361 80.1663 77.0992C80.4021 76.8373 80.3811 76.4367 80.1192 76.2008L74.6652 71.2915C74.5342 71.1735 74.369 71.1198 74.2065 71.1283ZM29.274 76.0506C29.4035 75.8723 29.6071 75.781 29.811 75.7885C29.9333 75.7929 30.0558 75.8327 30.1627 75.9104C30.4477 76.1177 30.51 76.5142 30.3027 76.7992L25.986 82.7329C25.7788 83.0179 25.3823 83.0804 25.0973 82.8731C24.8123 82.6658 24.75 82.2694 24.9573 81.9844L29.274 76.0506ZM69.009 75.8152C68.8867 75.8198 68.7642 75.859 68.6571 75.9367C68.3719 76.1435 68.3088 76.5398 68.5156 76.825L72.8242 82.7646C73.0312 83.05 73.4275 83.1129 73.7127 82.906C73.9981 82.6992 74.061 82.3029 73.8542 82.0177L69.5456 76.0781C69.4163 75.8998 69.2129 75.8083 69.009 75.8152ZM23.799 76.9421C23.9169 76.811 24.076 76.7408 24.2385 76.7317C24.401 76.7231 24.5665 76.7769 24.6975 76.8948C24.9594 77.1306 24.9804 77.5314 24.7446 77.7933L22.679 80.0871C22.4433 80.349 22.0427 80.3702 21.7806 80.1344C21.5188 79.8985 21.4979 79.4977 21.7338 79.2356L23.799 76.9421ZM74.6131 76.7348C74.4508 76.7256 74.2852 76.78 74.1544 76.8979C73.8923 77.1335 73.8712 77.5342 74.1071 77.7962L76.1721 80.0904C76.4077 80.3523 76.8083 80.3733 77.0704 80.1375C77.3323 79.9017 77.3533 79.5008 77.1175 79.239L75.0525 76.945C74.9346 76.814 74.7754 76.7431 74.6129 76.7346L74.6131 76.7348ZM35.2458 79.6567C35.3535 79.4152 35.591 79.2733 35.839 79.2794C35.9217 79.281 36.0056 79.2987 36.086 79.3348C36.4079 79.4783 36.5515 79.8531 36.4079 80.175L33.4181 86.8762C33.2746 87.1979 32.9 87.3415 32.5781 87.1979C32.2563 87.0544 32.1127 86.6796 32.2563 86.3577L35.2458 79.6567ZM62.9763 79.2977C62.8935 79.2994 62.8096 79.3171 62.7292 79.3529C62.4073 79.496 62.2631 79.8704 62.4063 80.1925L65.3865 86.8979C65.5296 87.2198 65.9044 87.364 66.2265 87.2208C66.5483 87.0777 66.6925 86.7031 66.5494 86.381L63.569 79.6758C63.4617 79.4344 63.2242 79.2931 62.9763 79.2977ZM30.0792 81.6683C30.1894 81.4775 30.3821 81.3648 30.5856 81.3512C30.7077 81.3427 30.8338 81.3694 30.9483 81.4354C31.2535 81.6117 31.3573 81.9992 31.181 82.3044L29.6377 84.9775C29.4615 85.2827 29.074 85.3867 28.7688 85.2104C28.4635 85.0342 28.3598 84.6467 28.5358 84.3415L30.0792 81.6683ZM68.27 81.3512C68.1479 81.3421 68.0221 81.3696 67.9075 81.4356C67.6023 81.6117 67.4985 81.9994 67.6748 82.3046L69.2179 84.9777C69.3942 85.2829 69.7819 85.3867 70.0871 85.2104C70.3923 85.0342 70.496 84.6467 70.3198 84.3415L68.7765 81.6683C68.6663 81.4777 68.4735 81.3654 68.27 81.3512ZM41.8685 81.951C41.9327 81.6494 42.1981 81.444 42.4946 81.4471V81.4475C42.5369 81.4475 42.58 81.4521 42.6231 81.461C42.9677 81.5344 43.1865 81.8708 43.1131 82.2156L41.5883 89.3933C41.515 89.7381 41.1785 89.9567 40.8338 89.8833C40.489 89.8102 40.2704 89.4737 40.3438 89.129L41.8685 81.951ZM56.3383 81.4517C56.296 81.4519 56.2533 81.456 56.2102 81.4652C55.8654 81.5381 55.6467 81.8744 55.7196 82.2192L57.2394 89.3979C57.3123 89.7427 57.6488 89.9617 57.9935 89.8887C58.3383 89.8156 58.5571 89.4792 58.4842 89.1344L56.9642 81.956C56.9002 81.6544 56.6348 81.4492 56.3385 81.4514L56.3383 81.4517ZM48.7917 82.8117C48.7917 82.4594 49.0752 82.1756 49.4277 82.1756C49.7802 82.1756 50.064 82.4594 50.064 82.8117V90.1496C50.064 90.5021 49.7802 90.7858 49.4277 90.7858C49.0752 90.7858 48.7917 90.5021 48.7917 90.1496V82.8117ZM37.7502 84.5467C37.5031 84.5677 37.2815 84.7329 37.1998 84.9844L36.2456 87.92C36.1367 88.255 36.3188 88.6127 36.654 88.7217C36.989 88.8306 37.3467 88.6481 37.4556 88.3131L38.4096 85.3777C38.5185 85.0427 38.3365 84.685 38.0015 84.576C37.9177 84.5487 37.8325 84.5398 37.7502 84.5467ZM60.8492 84.5773C60.9329 84.5498 61.0179 84.5406 61.1004 84.5481V84.5483C61.3475 84.5692 61.569 84.7346 61.6506 84.9858L62.6048 87.9215C62.7135 88.2567 62.5312 88.614 62.1962 88.7229C61.861 88.8319 61.5033 88.6498 61.3944 88.3146L60.4406 85.3792C60.3317 85.044 60.514 84.6862 60.8492 84.5773ZM45.4346 86.1831C45.1396 86.2117 44.8965 86.4431 44.8644 86.7498L44.5417 89.8198C44.5048 90.1702 44.7573 90.4819 45.1079 90.5187C45.4583 90.5556 45.7702 90.3031 45.8071 89.9527L46.1298 86.8831C46.1667 86.5325 45.9142 86.2206 45.5635 86.1837C45.5198 86.1792 45.4767 86.1792 45.4346 86.1831ZM53.266 86.1867C53.3098 86.1817 53.3533 86.1817 53.3954 86.1862C53.6904 86.2148 53.9331 86.4467 53.965 86.7535L54.2854 89.8233C54.3221 90.1738 54.0694 90.4854 53.7188 90.5221C53.3683 90.5587 53.0567 90.306 53.02 89.9556L52.6994 86.8854C52.6627 86.535 52.9154 86.2233 53.266 86.1867Z" fill="#F4F2F3"/>
<g opacity="0.409">
<path d="M79.2446 23.9812L44.439 44.2033L22.4325 78.8479L54.6263 55.0022L79.2446 23.9812Z" fill="black"/>
</g>
<path d="M54.4152 54.6506L44.4388 44.2031L79.8288 20.3963L54.4152 54.6506Z" fill="#FF5150"/>
<path d="M54.4146 54.6504L44.4381 44.2029L19.0246 78.4573L54.4146 54.6504Z" fill="#F1F1F1"/>
<path opacity="0.243" d="M19.0247 78.4577L54.4146 54.6508L79.8283 20.3964L19.0247 78.4577Z" fill="black"/>
<defs>
<linearGradient id="paint0_linear_147648_1570" x1="96.7703" y1="96.7702" x2="96.7703" y2="2.08331" gradientUnits="userSpaceOnUse">
<stop stop-color="#BDBDBD"/>
<stop offset="1" stop-color="white"/>
</linearGradient>
<radialGradient id="paint1_radial_147648_1570" cx="0" cy="0" r="1" gradientUnits="userSpaceOnUse" gradientTransform="translate(49.6246 43.0652) scale(47.3437 47.3438)">
<stop stop-color="#06C2E7"/>
<stop offset="0.25" stop-color="#0DB8EC"/>
<stop offset="0.5" stop-color="#12AEF1"/>
<stop offset="0.75" stop-color="#1F86F9"/>
<stop offset="1" stop-color="#107DDD"/>
</radialGradient>
</defs>
</svg>
