<svg width="100" height="100" viewBox="0 0 100 100" fill="none" xmlns="http://www.w3.org/2000/svg">
<path fill-rule="evenodd" clip-rule="evenodd" d="M18.0933 37.2103C18.9655 38.4126 26.3209 40.6805 37.2927 43.0427C48.2644 45.1456 59.6747 53.4487 68.5482 50.8884C74.5504 49.1533 81.0618 33.6929 81.0618 31.3967V31.161C81.0618 29.5579 79.8595 28.2707 77.8179 27.2004C69.4488 22.9239 67.8646 21.3491 64.7621 22.2025C48.6558 26.6487 20.2197 24.3761 18.0933 37.2103Z" fill="#380D09"/>
<path fill-rule="evenodd" clip-rule="evenodd" d="M18.0933 68.6026C18.9655 69.8238 26.3209 72.0728 37.2927 74.4397C49.5516 76.6746 60.2122 83.9593 69.0905 81.3943C75.0926 79.6592 81.0618 65.0899 81.0618 62.789V62.5627C81.0618 60.9643 79.8595 59.6724 77.8179 58.6068C71.4338 55.2121 62.9987 51.4731 59.901 52.3265C43.7663 56.7633 22.2 57.7393 18.0933 68.6026Z" fill="#380D09"/>
<path fill-rule="evenodd" clip-rule="evenodd" d="M18.0036 43.9574V44.1837C17.9988 44.1084 17.9988 44.0328 18.0036 43.9574Z" fill="#555555"/>
<path fill-rule="evenodd" clip-rule="evenodd" d="M69.0669 6.06781C54.2336 10.3537 30.7011 12.7725 18.0225 12.7725V36.9839C18.0266 37.0672 18.0581 37.1468 18.1121 37.2102C26.7641 37.2102 53.4744 34.3813 69.5902 29.9492C72.4009 29.2338 75.1567 28.3184 77.8367 27.2098C79.8076 26.3234 81.0806 25.3898 81.0806 24.4185V-0.000366211C81.0618 2.30054 75.069 4.33741 69.0669 6.06781Z" fill="#DE3423"/>
<path fill-rule="evenodd" clip-rule="evenodd" d="M69.0669 37.4649C60.1886 40.0251 48.2078 41.93 37.2926 43.0427C29.9656 43.7924 23.1194 44.1838 18.0225 44.1838V68.3763C18.0266 68.4596 18.0581 68.5392 18.1121 68.6026C26.7641 68.6026 53.4744 65.7736 69.5902 61.3463C72.4002 60.6288 75.156 59.7134 77.8367 58.6069C79.8076 57.7157 81.0806 56.7869 81.0806 55.8156V31.3967C81.0618 33.6929 75.069 35.7298 69.0669 37.4649Z" fill="#DE3423"/>
<path fill-rule="evenodd" clip-rule="evenodd" d="M69.0669 68.8808C60.1886 71.441 48.2078 73.3412 37.2926 74.4586C29.9561 75.2083 23.1006 75.5997 18.0037 75.5997V99.9997C26.5661 99.9997 53.4131 97.1943 69.5714 92.7433C75.5264 91.1025 81.0618 89.2354 81.0618 87.2079V62.7891C81.0618 65.1088 75.069 67.1268 69.0669 68.8808Z" fill="#DE3423"/>
</svg>
