<svg width="100" height="100" viewBox="0 0 100 100" fill="none" xmlns="http://www.w3.org/2000/svg">
<path fill-rule="evenodd" clip-rule="evenodd" d="M82.3254 18.68C82.679 18.739 83.1504 18.9747 83.2093 19.505C83.2446 19.8229 87.1531 46.2581 90.2797 67.4047C92.3701 81.5432 94.1109 93.3176 94.1109 93.3412L63.2329 100L6.25 89.3341C6.25 89.3341 13.557 32.7637 13.8516 30.7012C14.2052 28.0495 14.3231 27.9906 17.0927 27.1067C17.3481 27.0428 18.5033 26.6848 20.305 26.1264L20.3058 26.1262C21.829 25.6541 23.8142 25.0389 26.1086 24.3371C28.0532 16.1461 34.1816 0.0589275 47.0868 0C48.7367 0 50.6813 0.94284 52.2724 3.0053H52.7438C58.283 3.0053 61.4651 7.7195 63.174 12.8462C65.0007 12.2569 66.1204 11.9034 66.1793 11.9034C66.6507 11.7855 67.7703 11.6087 68.3596 12.198C68.8899 12.7873 74.2523 18.0907 74.2523 18.0907C74.2523 18.0907 81.9719 18.6211 82.3254 18.68ZM56.5485 14.9254L56.5485 14.9254L56.5486 14.9254C57.8142 14.55 58.9979 14.1991 60.0508 13.8481C58.8723 10.1356 56.9277 6.89462 54.0402 6.48213C54.7474 8.48567 55.2188 11.0785 55.2188 14.2606V15.3213C55.67 15.1859 56.1135 15.0544 56.5474 14.9257L56.5484 14.9254L56.5485 14.9254ZM50.5635 7.13004C51.3296 9.13358 51.8599 11.9621 51.8599 15.7924V16.3227C48.7372 17.2655 45.3199 18.326 41.9025 19.3865L41.9024 19.3866L41.9012 19.387C43.8458 12.08 47.4403 8.48538 50.5635 7.13004ZM48.3832 4.0659C47.8528 3.71233 47.2636 3.53555 46.7332 3.53555C37.4816 3.53555 32.296 15.6746 30.0567 23.0995C32.5317 22.3334 35.2424 21.5084 37.953 20.6835C39.8387 10.9015 44.2583 6.01051 48.3832 4.0659Z" fill="#95BF47"/>
<path d="M82.3254 18.68C81.9719 18.621 74.2524 18.0907 74.2524 18.0907C74.2524 18.0907 68.89 12.7872 68.3596 12.1979C68.1239 11.9622 67.8293 11.8444 67.5346 11.8444L63.2329 99.9999L94.1109 93.3411C94.1109 93.3411 83.2683 20.0353 83.2093 19.5639C83.1504 19.0335 82.679 18.7389 82.3254 18.68Z" fill="#5E8E3E"/>
<path d="M52.7438 35.7691L48.9135 47.0831C48.9135 47.0831 45.5546 45.3153 41.4886 45.3153C35.478 45.3153 35.1834 49.0867 35.1834 50.0295C35.1834 55.2151 48.6778 57.1597 48.6778 69.2988C48.6778 78.8451 42.6083 84.9735 34.4763 84.9735C24.6943 84.9735 19.6855 78.904 19.6855 78.904L22.2783 70.2417C22.2783 70.2417 27.405 74.6612 31.7656 74.6612C34.5941 74.6612 35.7727 72.422 35.7727 70.772C35.7727 63.9953 24.6943 63.7007 24.6943 52.6223C24.6943 43.3118 31.412 34.2369 44.9064 34.2369C50.2099 34.2959 52.7438 35.7691 52.7438 35.7691Z" fill="white"/>
</svg>
