<svg width="100" height="100" viewBox="0 0 100 100" fill="none" xmlns="http://www.w3.org/2000/svg">
<path d="M0 50C0 22.3858 22.3858 0 50 0C77.6142 0 100 22.3858 100 50C100 77.6142 77.6142 100 50 100C22.3858 100 0 77.6142 0 50Z" fill="#FF1A03"/>
<path fill-rule="evenodd" clip-rule="evenodd" d="M33.2734 30.8954H46.3316L46.3318 20H33.2734C25.9547 20 20 25.9547 20 33.2734V45.8348H30.8954V33.2734C30.8954 31.962 31.962 30.8954 33.2734 30.8954ZM66.7266 79.6243C74.0453 79.6243 80 73.6697 80 66.3509V53.7896H69.1046V66.3509C69.1046 67.6624 68.038 68.729 66.7266 68.729H53.6682V79.6243H66.7266Z" fill="white"/>
</svg>
