<svg width="100" height="100" viewBox="0 0 100 100" fill="none" xmlns="http://www.w3.org/2000/svg">
<path d="M8 0C3.58172 0 0 3.58172 0 8V92C0 96.4183 3.58172 100 8 100H92C96.4183 100 100 96.4183 100 92V8C100 3.58172 96.4183 0 92 0H8Z" fill="#3A76F0"/>
<path d="M41.748 16.6309L42.5195 19.7559C39.4789 20.5074 36.5686 21.7123 33.8867 23.3301L32.2363 20.5664C35.1884 18.7787 38.3958 17.4516 41.748 16.6309V16.6309ZM58.2519 16.6309L57.4804 19.7559C60.5211 20.5074 63.4313 21.7123 66.1133 23.3301L67.7832 20.5664C64.8233 18.7803 61.6097 17.4533 58.2519 16.6309V16.6309ZM20.5664 32.2266C18.7803 35.183 17.4533 38.3934 16.6308 41.7481L19.7558 42.5196C20.5073 39.4789 21.7122 36.5687 23.33 33.8868L20.5664 32.2266ZM18.8476 50C18.8474 48.4374 18.9649 46.877 19.1992 45.3321L16.0156 44.8438C15.498 48.2585 15.498 51.7318 16.0156 55.1465L19.1992 54.668C18.9653 53.123 18.8478 51.5626 18.8476 50V50ZM67.7636 79.4239L66.1133 76.67C63.4355 78.2893 60.5283 79.4943 57.4902 80.2442L58.2617 83.3692C61.6098 82.5406 64.8133 81.2105 67.7636 79.4239ZM81.1523 50C81.1522 51.5626 81.0347 53.123 80.8008 54.668L83.9843 55.1465C84.5019 51.7318 84.5019 48.2585 83.9843 44.8438L80.8008 45.3321C81.035 46.877 81.1526 48.4374 81.1523 50V50ZM83.3691 58.2422L80.2441 57.4707C79.4944 60.515 78.2894 63.4287 76.6699 66.1133L79.4336 67.7735C81.2214 64.8145 82.5484 61.6006 83.3691 58.2422V58.2422ZM54.6679 80.8008C51.5736 81.2696 48.4263 81.2696 45.332 80.8008L44.8535 83.9844C48.2649 84.502 51.735 84.502 55.1465 83.9844L54.6679 80.8008ZM75.0781 68.4766C73.2219 70.9936 70.9963 73.216 68.4765 75.0684L70.3906 77.6661C73.166 75.6229 75.6214 73.1774 77.6758 70.4102L75.0781 68.4766ZM68.4765 24.9219C70.9966 26.7779 73.2221 29.0034 75.0781 31.5235L77.6758 29.5899C75.6287 26.8202 73.1798 24.3713 70.4101 22.3243L68.4765 24.9219ZM24.9218 31.5235C26.7778 29.0034 29.0034 26.7779 31.5234 24.9219L29.5898 22.3243C26.8201 24.3713 24.3713 26.8202 22.3242 29.5899L24.9218 31.5235ZM79.4336 32.2266L76.6699 33.8868C78.2892 36.5645 79.4943 39.4717 80.2441 42.5098L83.3691 41.7383C82.5465 38.3867 81.2196 35.1796 79.4336 32.2266V32.2266ZM45.332 19.1993C48.4263 18.7304 51.5736 18.7304 54.6679 19.1993L55.1465 16.0157C51.735 15.498 48.2649 15.498 44.8535 16.0157L45.332 19.1993ZM26.5722 78.5254L19.9218 80.0684L21.4746 73.418L18.3398 72.6856L16.7871 79.336C16.6899 79.7483 16.675 80.1757 16.7432 80.5938C16.8114 81.0119 16.9613 81.4124 17.1845 81.7725C17.4076 82.1326 17.6995 82.4452 18.0435 82.6923C18.3876 82.9395 18.777 83.1164 19.1894 83.2129C19.6718 83.3204 20.1719 83.3204 20.6543 83.2129L27.3047 81.6797L26.5722 78.5254ZM19.0039 69.8145L22.1484 70.5371L23.2226 65.9278C21.6539 63.2963 20.4855 60.4461 19.7558 57.4707L16.6308 58.2422C17.3337 61.0903 18.397 63.837 19.7949 66.4161L19.0039 69.8145ZM34.0429 76.7871L29.4336 77.8614L30.166 81.0059L33.5547 80.2149C36.1317 81.617 38.879 82.6805 41.7285 83.3789L42.5 80.2539C39.5339 79.5147 36.6937 78.3398 34.0722 76.7676L34.0429 76.7871ZM50 22.0703C34.5703 22.0801 22.08 34.5899 22.08 50.0098C22.0885 55.2619 23.5741 60.4057 26.3672 64.8536L23.6816 76.3184L35.1367 73.6329C48.1933 81.8457 65.4394 77.9297 73.6523 64.8829C81.8652 51.836 77.959 34.5899 64.9121 26.3672C60.4456 23.5584 55.2762 22.0689 50 22.0703" fill="white"/>
</svg>
