<svg width="100" height="100" viewBox="0 0 100 100" fill="none" xmlns="http://www.w3.org/2000/svg">
<path fill-rule="evenodd" clip-rule="evenodd" d="M0.496507 36.6328L20.8181 9.04722C21.0259 8.76574 21.2898 8.53031 21.593 8.35577C21.8963 8.18123 22.2324 8.07135 22.5802 8.03305L49.7221 5.01587C49.9074 4.99536 50.0945 4.99536 50.2799 5.01587L77.4218 8.02988C77.7696 8.06818 78.1057 8.17806 78.4089 8.3526C78.7122 8.52714 78.976 8.76257 79.1839 9.04405L99.5086 36.6328C99.8486 37.0959 100.021 37.6608 99.9982 38.2349C99.9752 38.809 99.7578 39.3582 99.3818 39.7926L51.443 95.23C51.2645 95.4366 51.0436 95.6023 50.7953 95.7159C50.547 95.8295 50.2772 95.8883 50.0041 95.8883C49.7311 95.8883 49.4613 95.8295 49.213 95.7159C48.9647 95.6023 48.7438 95.4366 48.5653 95.23L0.61694 39.7926C0.241395 39.3578 0.0246389 38.8084 0.00218281 38.2343C-0.0202733 37.6603 0.152902 37.0956 0.493338 36.6328H0.496507ZM56.9924 13.1705L76.1572 31.2735C76.3429 31.4495 76.5775 31.5651 76.8302 31.6052C77.0828 31.6454 77.3417 31.6081 77.5728 31.4984C77.8039 31.3887 77.9964 31.2116 78.125 30.9905C78.2536 30.7693 78.3123 30.5145 78.2933 30.2593L77.3742 17.411C77.3613 17.2538 77.4075 17.0975 77.5037 16.9725C77.5999 16.8475 77.7393 16.7629 77.8945 16.7352C78.0498 16.7075 78.2098 16.7386 78.3433 16.8226C78.4768 16.9065 78.5743 17.0372 78.6166 17.1892L82.8191 31.901C82.9605 32.3964 83.2206 32.8499 83.5768 33.2221C83.933 33.5943 84.3746 33.8741 84.8633 34.0372L93.8324 37.0258C93.9755 37.0728 94.0971 37.1693 94.1756 37.2979C94.254 37.4264 94.2841 37.5787 94.2605 37.7275C94.2368 37.8762 94.161 38.0117 94.0465 38.1096C93.9321 38.2075 93.7865 38.2615 93.6359 38.2618H85.0154C84.4826 38.2621 83.9585 38.3968 83.4915 38.6532C83.0246 38.9097 82.6298 39.2798 82.3437 39.7292L58.8465 76.6516C58.715 76.853 58.512 76.9971 58.2785 77.0548C58.045 77.1126 57.7982 77.0796 57.588 76.9627C57.3778 76.8457 57.2198 76.6534 57.1457 76.4245C57.0716 76.1957 57.0871 75.9472 57.1889 75.7293L74.0306 40.9938C74.1713 40.7038 74.2361 40.3828 74.2187 40.061C74.2014 39.7392 74.1025 39.427 73.9314 39.1539C73.7603 38.8808 73.5226 38.6556 73.2405 38.4996C72.9585 38.3435 72.6415 38.2617 72.3192 38.2618H27.6828C27.3605 38.2617 27.0434 38.3435 26.7614 38.4996C26.4794 38.6556 26.2417 38.8808 26.0706 39.1539C25.8995 39.427 25.8006 39.7392 25.7832 40.061C25.7659 40.3828 25.8306 40.7038 25.9713 40.9938L42.813 75.7293C42.9188 75.9476 42.9372 76.1982 42.8643 76.4296C42.7914 76.661 42.6327 76.8558 42.4209 76.9741C42.209 77.0924 41.96 77.1252 41.7247 77.0658C41.4895 77.0064 41.2858 76.8594 41.1555 76.6547L17.6583 39.7324C17.3723 39.2819 16.9771 38.9109 16.5095 38.6539C16.0419 38.3968 15.517 38.2619 14.9834 38.2618H6.09983C5.94921 38.2615 5.80364 38.2075 5.68919 38.1096C5.57474 38.0117 5.4989 37.8762 5.47525 37.7275C5.4516 37.5787 5.4817 37.4264 5.56014 37.2979C5.63858 37.1693 5.76025 37.0728 5.90333 37.0258L15.1197 34.0308C15.6135 33.8699 16.0603 33.5901 16.4206 33.2159C16.781 32.8418 17.0438 32.3848 17.186 31.8852L21.3854 17.1892C21.4277 17.0372 21.5251 16.9065 21.6586 16.8226C21.7921 16.7386 21.9522 16.7075 22.1074 16.7352C22.2627 16.7629 22.402 16.8475 22.4982 16.9725C22.5944 17.0975 22.6406 17.2538 22.6277 17.411L21.7086 30.2593C21.6897 30.5145 21.7484 30.7693 21.877 30.9905C22.0056 31.2116 22.1981 31.3887 22.4292 31.4984C22.6603 31.6081 22.9191 31.6454 23.1718 31.6052C23.4244 31.5651 23.659 31.4495 23.8447 31.2735L43.0095 13.1705C43.1253 13.0536 43.282 12.9862 43.4466 12.9828C43.6111 12.9793 43.7705 13.04 43.8911 13.152C44.0117 13.2639 44.0841 13.4184 44.0928 13.5827C44.1016 13.7471 44.0461 13.9084 43.9381 14.0325L31.0802 29.8568C30.9295 30.0427 30.8344 30.2675 30.806 30.5052C30.7776 30.7428 30.8171 30.9837 30.9199 31.1999C31.0226 31.416 31.1845 31.5987 31.3868 31.7267C31.589 31.8547 31.8234 31.9228 32.0627 31.9232H67.9392C68.1786 31.9228 68.4129 31.8547 68.6152 31.7267C68.8174 31.5987 68.9793 31.416 69.0821 31.1999C69.1849 30.9837 69.2243 30.7428 69.196 30.5052C69.1676 30.2675 69.0725 30.0427 68.9217 29.8568L56.0638 14.0325C55.9558 13.9084 55.9003 13.7471 55.9091 13.5827C55.9179 13.4184 55.9902 13.2639 56.1108 13.152C56.2314 13.04 56.3909 12.9793 56.5554 12.9828C56.7199 12.9862 56.8766 13.0536 56.9924 13.1705Z" fill="white"/>
</svg>
