<svg width="100" height="100" viewBox="0 0 100 100" fill="none" xmlns="http://www.w3.org/2000/svg">
<path d="M50 100C77.6142 100 100 77.6142 100 50C100 22.3858 77.6142 0 50 0C22.3858 0 0 22.3858 0 50C0 77.6142 22.3858 100 50 100Z" fill="white"/>
<mask id="mask0_147648_1086" style="mask-type:luminance" maskUnits="userSpaceOnUse" x="20" y="26" width="60" height="55">
<path fill-rule="evenodd" clip-rule="evenodd" d="M33.0811 28.4529L49.9776 26.6666L66.874 28.4529L79.9551 46.0132L49.9776 80.9217L20 46.0132L33.0811 28.4529Z" fill="white"/>
</mask>
<g mask="url(#mask0_147648_1086)">
<path d="M19.2376 81.6842H80.7175V25.9043H19.2376V81.6842Z" fill="#FDB300"/>
</g>
<mask id="mask1_147648_1086" style="mask-type:luminance" maskUnits="userSpaceOnUse" x="20" y="46" width="30" height="35">
<path fill-rule="evenodd" clip-rule="evenodd" d="M32.1424 46.0132L49.9776 80.9217L20 46.0132H32.1424Z" fill="white"/>
</mask>
<g mask="url(#mask1_147648_1086)">
<path d="M19.2376 81.6842H50.7399V45.2509H19.2376V81.6842Z" fill="#EA6C00"/>
</g>
<mask id="mask2_147648_1086" style="mask-type:luminance" maskUnits="userSpaceOnUse" x="49" y="46" width="31" height="35">
<path fill-rule="evenodd" clip-rule="evenodd" d="M67.8127 46.0132L49.9776 80.9217L79.9551 46.0132H67.8127Z" fill="white"/>
</mask>
<g mask="url(#mask2_147648_1086)">
<path d="M49.2152 81.6842H80.7175V45.2509H49.2152V81.6842Z" fill="#EA6C00"/>
</g>
<mask id="mask3_147648_1086" style="mask-type:luminance" maskUnits="userSpaceOnUse" x="32" y="46" width="36" height="35">
<path fill-rule="evenodd" clip-rule="evenodd" d="M32.1424 46.0132H67.8127L49.9776 80.9217L32.1424 46.0132Z" fill="white"/>
</mask>
<g mask="url(#mask3_147648_1086)">
<path d="M31.38 81.6842H68.5751V45.2509H31.38V81.6842Z" fill="#FDAD00"/>
</g>
<mask id="mask4_147648_1086" style="mask-type:luminance" maskUnits="userSpaceOnUse" x="32" y="26" width="18" height="21">
<path fill-rule="evenodd" clip-rule="evenodd" d="M49.9776 26.6666L33.0811 28.4529L32.1424 46.0132L49.9776 26.6666Z" fill="white"/>
</mask>
<g mask="url(#mask4_147648_1086)">
<path d="M31.38 46.7756H50.7399V25.9043H31.38V46.7756Z" fill="#FDD231"/>
</g>
<mask id="mask5_147648_1086" style="mask-type:luminance" maskUnits="userSpaceOnUse" x="49" y="26" width="19" height="21">
<path fill-rule="evenodd" clip-rule="evenodd" d="M49.9776 26.6666L66.874 28.4529L67.8127 46.0132L49.9776 26.6666Z" fill="white"/>
</mask>
<g mask="url(#mask5_147648_1086)">
<path d="M49.2152 46.7756H68.5751V25.9043H49.2152V46.7756Z" fill="#FDD231"/>
</g>
<mask id="mask6_147648_1086" style="mask-type:luminance" maskUnits="userSpaceOnUse" x="66" y="28" width="14" height="19">
<path fill-rule="evenodd" clip-rule="evenodd" d="M79.9551 46.0131L66.874 28.4529L67.8127 46.0131H79.9551Z" fill="white"/>
</mask>
<g mask="url(#mask6_147648_1086)">
<path d="M66.1116 46.7756H80.7175V27.6906H66.1116V46.7756Z" fill="#FDAD00"/>
</g>
<mask id="mask7_147648_1086" style="mask-type:luminance" maskUnits="userSpaceOnUse" x="20" y="28" width="14" height="19">
<path fill-rule="evenodd" clip-rule="evenodd" d="M20 46.0131L33.0811 28.4529L32.1424 46.0131H20Z" fill="white"/>
</mask>
<g mask="url(#mask7_147648_1086)">
<path d="M19.2376 46.7756H33.8435V27.6906H19.2376V46.7756Z" fill="#FDAD00"/>
</g>
<mask id="mask8_147648_1086" style="mask-type:luminance" maskUnits="userSpaceOnUse" x="32" y="26" width="36" height="21">
<path fill-rule="evenodd" clip-rule="evenodd" d="M49.9776 26.6666L32.1424 46.0132H67.8127L49.9776 26.6666Z" fill="white"/>
</mask>
<g mask="url(#mask8_147648_1086)">
<path d="M31.38 46.7756H68.5751V25.9043H31.38V46.7756Z" fill="#FEEEB7"/>
</g>
</svg>
