<svg width="100" height="100" viewBox="0 0 100 100" fill="none" xmlns="http://www.w3.org/2000/svg">
<path d="M79.5202 36.6849L87.8462 35.2031V67.1488H79.5202V36.6849ZM91.674 36.6849V67.1312H100V35.2031L91.674 36.6849ZM67.6839 67.1312H76.0099V43.7761H67.6839V67.1312ZM12.6654 47.0747C11.607 47.0042 9.17269 46.8454 9.17269 44.6581C9.17269 42.0121 12.683 42.0121 13.9884 42.0121C16.2992 42.0121 19.2979 42.7001 21.4324 43.3351C21.4324 43.3351 22.6319 43.7584 23.6373 44.1818L23.7255 44.1994V44.1112V36.9671L23.602 36.9318C21.0796 36.0499 18.1514 35.2031 12.7007 35.2031C3.31628 35.2031 0 40.6715 0 45.346C0 48.0449 1.16423 54.3952 11.9069 55.1361C12.8241 55.189 15.2408 55.3302 15.2408 57.6057C15.2408 59.4755 13.2651 60.5868 9.93121 60.5868C6.27977 60.5868 2.75181 59.6519 0.599753 58.7699V66.2315C3.8102 67.0783 7.44399 67.5016 11.6952 67.5016C20.8679 67.5016 24.978 62.3332 24.978 57.2C24.978 51.3788 20.3916 47.6039 12.6654 47.0747ZM62.9917 43.4409C55.3008 43.6879 51.4024 47.1453 51.4024 54.0072V67.1488H59.7989V56.4238C59.7989 52.3138 60.3281 50.5498 65.2143 50.391V43.5468C64.3676 43.388 62.9917 43.4409 62.9917 43.4409ZM40.4128 43.7584C40.2364 44.2171 38.8958 47.992 35.6677 51.8904V35.2031L27.0771 36.8966V67.1312H35.6677V57.7821C38.1549 61.5217 39.3897 67.1312 39.3897 67.1312H49.6737C48.6506 62.8976 44.2053 55.1008 44.2053 55.1008C48.1919 50.0382 49.9559 44.6404 50.2381 43.7408H40.4128V43.7584ZM71.8293 41.5358C74.0871 41.5358 75.9393 39.7013 75.9393 37.4434C75.9393 35.1855 74.1048 33.3333 71.8293 33.3333C69.5714 33.3333 67.7368 35.1679 67.7368 37.4434C67.7368 39.7013 69.5714 41.5358 71.8293 41.5358Z" fill="url(#paint0_linear_147648_976)"/>
<defs>
<linearGradient id="paint0_linear_147648_976" x1="0.0176398" y1="50.4063" x2="100.002" y2="50.4063" gradientUnits="userSpaceOnUse">
<stop stop-color="#872166"/>
<stop offset="1" stop-color="#4F2455"/>
</linearGradient>
</defs>
</svg>
