<svg width="100" height="100" viewBox="0 0 100 100" fill="none" xmlns="http://www.w3.org/2000/svg">
<path d="M29 58C45.0163 58 58 45.0163 58 29C58 12.9838 45.0163 0 29 0C12.9838 0 0 12.9838 0 29C0 45.0163 12.9838 58 29 58Z" fill="#28A8EA"/>
<path d="M71.0004 100C87.0167 100 100 87.0163 100 71C100 54.9838 87.0167 42 71.0004 42C54.9842 42 42.0004 54.9838 42.0004 71C42.0004 87.0163 54.9842 100 71.0004 100Z" fill="#28A8EA"/>
<path d="M50 98C76.5096 98 98 76.5096 98 50C98 23.4902 76.5096 1.99994 50 1.99994C23.4902 1.99994 1.99991 23.4902 1.99991 50C1.99991 76.5096 23.4902 98 50 98Z" fill="#28A8EA"/>
<path fill-rule="evenodd" clip-rule="evenodd" d="M37.5517 49.0888C35.6752 47.8525 34.1096 46.1996 32.9773 44.2588C31.8831 42.2094 31.3429 39.91 31.4102 37.5877C31.3269 34.6406 32.3325 31.7661 34.2348 29.5136C36.2112 27.2515 38.7517 25.5533 41.5977 24.5921C44.6937 23.499 47.9556 22.95 51.239 22.97C53.3875 22.9496 55.5337 23.1142 57.6542 23.4621C59.1708 23.6965 60.6606 24.0813 62.1012 24.6104C63.4246 25.0586 64.6194 25.8217 65.5825 26.834C66.2923 27.6665 66.6746 28.7292 66.6577 29.8233C66.6833 30.3915 66.5967 30.9592 66.4027 31.494C66.2087 32.0288 65.9114 32.5202 65.5277 32.94C65.1642 33.3269 64.7229 33.6325 64.2329 33.8367C63.7429 34.0411 63.2152 34.1392 62.6844 34.1248C61.954 34.1194 61.2331 33.9577 60.5704 33.6506C58.9387 32.9204 57.2577 32.3054 55.54 31.81C53.9583 31.3933 52.3279 31.1911 50.6923 31.2086C48.5623 31.1296 46.4548 31.6675 44.6231 32.7577C43.8494 33.2275 43.2162 33.8967 42.7898 34.6952C42.3635 35.4936 42.1594 36.3919 42.1992 37.2963C42.1877 38.4823 42.6387 39.6265 43.4567 40.4856C44.4292 41.494 45.5781 42.3156 46.8467 42.9098C48.2683 43.615 50.3885 44.5506 53.2073 45.7169C53.5196 45.8156 53.8244 45.9375 54.1185 46.0815C56.8692 47.1692 59.5062 48.5244 61.9919 50.1277C63.9554 51.4081 65.611 53.1073 66.8398 55.1036C68.0492 57.2006 68.6548 59.5915 68.5894 62.0113C68.691 64.9754 67.8417 67.8942 66.1652 70.3408C64.4585 72.6571 62.0973 74.4092 59.3858 75.3715C56.1185 76.5383 52.6662 77.1004 49.1977 77.0302C44.431 77.1979 39.6869 76.3013 35.3104 74.4056C34.1904 73.9073 33.2083 73.1442 32.449 72.1819C31.8196 71.3006 31.4933 70.2388 31.5194 69.1563C31.4879 68.585 31.5808 68.0138 31.7917 67.4821C32.0025 66.9502 32.326 66.4704 32.7402 66.0758C33.6096 65.3144 34.7385 64.9165 35.8931 64.9642C37.1783 64.9819 38.4406 65.3069 39.5746 65.9119C40.9835 66.6171 42.0954 67.1456 42.91 67.4979C43.8404 67.8875 44.8044 68.1925 45.7898 68.409C47.0044 68.6758 48.2454 68.8042 49.489 68.7917C51.6877 68.9481 53.8756 68.3642 55.7042 67.1333C56.3887 66.5975 56.9358 65.9065 57.3004 65.1173C57.6648 64.3279 57.836 63.4633 57.7998 62.5948C57.8025 61.3619 57.3331 60.1748 56.4879 59.2773C55.3708 58.1267 54.064 57.1773 52.6242 56.4706C50.9229 55.5717 48.5292 54.4781 45.4431 53.1898C42.6823 52.0898 40.0385 50.7161 37.5517 49.0888" fill="white"/>
<path opacity="0.1" fill-rule="evenodd" clip-rule="evenodd" d="M38.0598 1.46002C36.7917 1.03545 35.4952 0.701282 34.1798 0.460022C26.2829 2.99435 19.1043 7.37555 13.2398 13.24C7.37534 19.1045 2.99414 26.2831 0.459808 34.18C0.701113 35.4954 1.03528 36.7918 1.45981 38.06C1.81436 39.2081 2.26253 40.3252 2.7998 41.4C4.53707 31.8006 9.16424 22.9606 16.0623 16.0625C22.9604 9.16445 31.8004 4.53728 41.3998 2.80001C40.325 2.2628 39.2079 1.81464 38.0598 1.46002V1.46002Z" fill="black"/>
<path opacity="0.1" fill-rule="evenodd" clip-rule="evenodd" d="M38.0608 1.46002C29.2033 3.64463 21.1117 8.20918 14.6608 14.66C8.20995 21.1108 3.64541 29.2025 1.46078 38.06C1.81534 39.2081 2.26351 40.3252 2.80078 41.4C4.53805 31.8006 9.16522 22.9606 16.0633 16.0625C22.9613 9.16445 31.8015 4.53728 41.4008 2.80003C40.3261 2.2628 39.209 1.81464 38.0608 1.46002V1.46002Z" fill="black"/>
<path opacity="0.1" fill-rule="evenodd" clip-rule="evenodd" d="M98.5398 61.9402C98.1852 60.7921 97.7371 59.675 97.1998 58.6002C95.4627 68.1996 90.8354 77.0396 83.9373 83.9377C77.0394 90.8356 68.1994 95.4629 58.5998 97.2002C59.6746 97.7373 60.7917 98.1856 61.9398 98.5402C63.2079 98.9646 64.5046 99.2988 65.8198 99.5402C73.7169 97.0058 80.8954 92.6246 86.7598 86.76C92.6244 80.8956 97.0056 73.7171 99.5398 65.8202C99.2985 64.5048 98.9644 63.2081 98.5398 61.9402Z" fill="black"/>
<path opacity="0.1" fill-rule="evenodd" clip-rule="evenodd" d="M97.1998 58.6002C95.4627 68.1996 90.8354 77.0396 83.9373 83.9377C77.0394 90.8356 68.1994 95.4629 58.5998 97.2002C59.6746 97.7373 60.7917 98.1856 61.9398 98.5402C70.7973 96.3554 78.889 91.7911 85.3398 85.3402C91.7906 78.8892 96.3552 70.7975 98.5398 61.9402C98.1852 60.7921 97.7371 59.675 97.1998 58.6002Z" fill="black"/>
</svg>
