<svg width="100" height="100" viewBox="0 0 100 100" fill="none" xmlns="http://www.w3.org/2000/svg">
<path d="M0 50C0 22.3858 22.3858 0 50 0C77.6142 0 100 22.3858 100 50C100 77.6142 77.6142 100 50 100C22.3858 100 0 77.6142 0 50Z" fill="white"/>
<path d="M34.4489 57.0766C34.4489 60.1781 31.9153 62.7117 28.8139 62.7117C25.7124 62.7117 23.1788 60.1781 23.1788 57.0766C23.1788 53.9751 25.7124 51.4415 28.8139 51.4415H34.4489V57.0766Z" fill="#E01E5A"/>
<path d="M37.2883 57.0766C37.2883 53.9751 39.8219 51.4415 42.9234 51.4415C46.0249 51.4415 48.5585 53.9751 48.5585 57.0766V71.1862C48.5585 74.2876 46.0249 76.8212 42.9234 76.8212C39.8219 76.8212 37.2883 74.2876 37.2883 71.1862V57.0766Z" fill="#E01E5A"/>
<path d="M42.9234 34.4489C39.8219 34.4489 37.2883 31.9153 37.2883 28.8139C37.2883 25.7124 39.8219 23.1788 42.9234 23.1788C46.0249 23.1788 48.5585 25.7124 48.5585 28.8139V34.4489H42.9234Z" fill="#36C5F0"/>
<path d="M42.9234 37.2883C46.0249 37.2883 48.5585 39.8219 48.5585 42.9234C48.5585 46.0249 46.0249 48.5585 42.9234 48.5585H28.8139C25.7124 48.5585 23.1788 46.0249 23.1788 42.9234C23.1788 39.8219 25.7124 37.2883 28.8139 37.2883H42.9234Z" fill="#36C5F0"/>
<path d="M65.5511 42.9234C65.5511 39.8219 68.0847 37.2883 71.1862 37.2883C74.2876 37.2883 76.8212 39.8219 76.8212 42.9234C76.8212 46.0249 74.2876 48.5585 71.1862 48.5585H65.5511V42.9234Z" fill="#2EB67D"/>
<path d="M62.7117 42.9234C62.7117 46.0249 60.1781 48.5585 57.0766 48.5585C53.9751 48.5585 51.4415 46.0249 51.4415 42.9234V28.8139C51.4415 25.7124 53.9751 23.1788 57.0766 23.1788C60.1781 23.1788 62.7117 25.7124 62.7117 28.8139V42.9234Z" fill="#2EB67D"/>
<path d="M57.0766 65.5511C60.1781 65.5511 62.7117 68.0847 62.7117 71.1862C62.7117 74.2876 60.1781 76.8212 57.0766 76.8212C53.9751 76.8212 51.4415 74.2876 51.4415 71.1862V65.5511H57.0766Z" fill="#ECB22E"/>
<path d="M57.0766 62.7117C53.9751 62.7117 51.4415 60.1781 51.4415 57.0766C51.4415 53.9751 53.9751 51.4415 57.0766 51.4415H71.1862C74.2876 51.4415 76.8212 53.9751 76.8212 57.0766C76.8212 60.1781 74.2876 62.7117 71.1862 62.7117H57.0766Z" fill="#ECB22E"/>
</svg>
