<svg width="100" height="100" viewBox="0 0 100 100" fill="none" xmlns="http://www.w3.org/2000/svg">
<path d="M0 50C0 22.3858 22.3858 0 50 0C77.6142 0 100 22.3858 100 50C100 77.6142 77.6142 100 50 100C22.3858 100 0 77.6142 0 50Z" fill="#FFE400"/>
<path d="M76.8152 64.3228C67.1367 59.6376 65.5942 52.4038 65.5254 51.8674C65.4425 51.2174 65.3483 50.7063 66.0652 50.0453C66.7567 49.4065 69.8242 47.508 70.6754 46.9138C72.0821 45.9303 72.7017 44.9482 72.245 43.7409C71.9256 42.9057 71.1479 42.5911 70.3288 42.5911C70.0704 42.5919 69.8129 42.6209 69.5608 42.6774C68.015 43.0128 66.514 43.7871 65.6452 43.9965C65.5409 44.0234 65.4338 44.0378 65.3258 44.0394C64.8627 44.0394 64.6871 43.8336 64.7319 43.2763C64.8404 41.5867 65.0704 38.2892 64.8038 35.209C64.4381 30.9709 63.0711 28.8711 61.4502 27.0138C60.6663 26.1132 57.0254 22.244 49.9994 22.244C42.9731 22.244 39.3371 26.1132 38.5579 27.0028C36.9323 28.8599 35.5669 30.9596 35.2044 35.1978C34.9377 38.2782 35.1773 41.574 35.2763 43.2651C35.3081 43.7953 35.1454 44.0284 34.6823 44.0284C34.5744 44.0265 34.4673 44.0119 34.3629 43.9853C33.4958 43.7761 31.9948 43.0015 30.449 42.6663C30.1969 42.6096 29.9394 42.5809 29.6809 42.5801C28.8586 42.5801 28.084 42.8994 27.7646 43.7296C27.3079 44.9369 27.9244 45.919 29.3361 46.9028C30.1871 47.4967 33.2546 49.3938 33.9461 50.034C34.6615 50.6953 34.569 51.2063 34.4858 51.8561C34.4171 52.4007 32.8729 59.6344 23.1961 64.3115C22.6292 64.5863 21.6648 65.1676 23.3654 66.1065C26.0352 67.5819 27.8125 67.4238 29.194 68.3134C30.3661 69.0686 29.6729 70.6973 30.5256 71.2851C31.5731 72.0084 34.6694 71.234 38.6696 72.5546C42.0229 73.6596 44.0606 76.7815 50.0073 76.7815C55.954 76.7815 58.0506 73.6453 61.345 72.5546C65.3371 71.234 68.4398 72.0084 69.489 71.2851C70.34 70.6973 69.6486 69.0686 70.8206 68.3134C72.2019 67.4238 73.9777 67.5819 76.6492 66.1065C78.3467 65.1786 77.3821 64.5973 76.8152 64.3228Z" fill="white"/>
<path fill-rule="evenodd" clip-rule="evenodd" d="M78.8229 61.434C79.765 61.9577 80.5923 62.59 81.0265 63.7717C81.5135 65.094 81.215 66.5917 80.0269 67.8629L80.011 67.8821C79.5315 68.4125 78.9644 68.8567 78.3342 69.1946C77.084 69.881 75.754 70.411 74.3742 70.7723C74.11 70.8429 73.8594 70.9573 73.6331 71.1108C73.3968 71.3199 73.2986 71.5801 73.1764 71.9042C73.0838 72.1496 72.9775 72.4316 72.7869 72.7556C72.4596 73.3258 72.0102 73.8167 71.471 74.1927C70.1806 75.0837 68.7308 75.1398 67.1946 75.1987L67.19 75.1989C65.8034 75.2516 64.232 75.3113 62.4375 75.9046C61.7142 76.1442 60.946 76.6152 60.0567 77.1612L60.0511 77.1647C57.8847 78.4915 54.9201 80.3071 49.9965 80.3071C45.0685 80.3071 42.124 78.4979 39.9731 77.1756C39.0773 76.62 38.3044 76.1442 37.5602 75.8981C35.7637 75.3058 34.1908 75.245 32.8031 75.1925H32.803C31.267 75.1333 29.817 75.0775 28.5269 74.1865C28.0715 73.8702 27.6794 73.4717 27.3706 73.011C27.071 72.5768 26.933 72.2097 26.8167 71.9007C26.6945 71.5756 26.5964 71.3148 26.3598 71.1077C26.1185 70.9465 25.8519 70.8273 25.571 70.7548C24.2098 70.3946 22.8975 69.8696 21.6635 69.1915C21.0704 68.8758 20.5314 68.4677 20.0667 67.9827C18.8004 66.6827 18.4746 65.1402 18.9728 63.7844C19.5371 62.2511 20.7597 61.638 22.042 60.9948C22.2621 60.8845 22.484 60.7732 22.7046 60.6562C25.5471 59.1121 27.7731 57.1831 29.3283 54.9075C29.7719 54.2654 30.1571 53.5852 30.4798 52.8748C30.6315 52.4596 30.6283 52.2344 30.526 52.0252C30.4165 51.8544 30.2717 51.709 30.1012 51.599C29.6142 51.2762 29.1177 50.9538 28.7775 50.7333C28.6518 50.651 28.5312 50.5723 28.4162 50.4971C27.9558 50.1964 27.5847 49.9541 27.3292 49.7752C26.1235 48.9321 25.2804 48.0362 24.7519 47.035C24.3848 46.3421 24.1715 45.5783 24.126 44.7954C24.0804 44.0127 24.2042 43.2292 24.4883 42.4983C25.2835 40.3969 27.2717 39.0923 29.6781 39.0923C30.1854 39.0919 30.6912 39.1454 31.1871 39.2521C31.3198 39.2808 31.4506 39.311 31.58 39.3446C31.5592 37.9154 31.5912 36.3904 31.719 34.8973C32.1725 29.6533 34.0104 26.8971 35.9267 24.7031C37.1548 23.3244 38.6031 22.1587 40.2125 21.254C43.1235 19.5931 46.4052 18.75 49.9996 18.75C53.5942 18.75 56.8917 19.5931 59.7996 21.254C61.405 22.1585 62.8504 23.3219 64.0775 24.6967C65.9938 26.8908 67.8317 29.6421 68.2852 34.891C68.4129 36.384 68.445 37.901 68.4225 39.3383C68.5519 39.3048 68.6844 39.2744 68.8171 39.2456C69.3129 39.139 69.8188 39.0854 70.326 39.0858C72.7308 39.0858 74.7158 40.3906 75.5142 42.4921C75.7973 43.2225 75.9196 44.0054 75.8729 44.7873C75.8265 45.5694 75.6121 46.3321 75.2444 47.024C74.7173 48.0252 73.8742 48.921 72.6685 49.7642C72.3492 49.9914 71.854 50.312 71.2289 50.7166L71.2202 50.7223C70.8673 50.9506 70.3469 51.2892 69.8423 51.6229C69.6912 51.7258 69.5635 51.859 69.4669 52.0142C69.3696 52.2152 69.3631 52.4356 69.499 52.8237C69.826 53.5494 70.2177 54.2442 70.6694 54.8996C72.2598 57.2277 74.5529 59.1919 77.4896 60.749C77.6388 60.8264 77.7884 60.9017 77.9373 60.9767C78.0736 61.0453 78.2094 61.1137 78.3437 61.1831C78.4827 61.2471 78.6456 61.3302 78.8229 61.434ZM72.9812 67.5201C73.9892 67.2516 75.1835 66.9335 76.6465 66.1254C78.3471 65.1785 77.3825 64.5973 76.8108 64.3115C67.1323 59.6342 65.5898 52.4004 65.521 51.856C65.5182 51.834 65.5154 51.8121 65.5126 51.7903C65.4327 51.1712 65.3683 50.6726 66.0608 50.034C66.531 49.5985 68.0996 48.5822 69.3232 47.7894C69.8991 47.4163 70.3986 47.0927 70.671 46.9025C72.081 45.919 72.6973 44.9369 72.2406 43.7296C71.9212 42.8992 71.1469 42.5798 70.3244 42.5798C70.066 42.5806 69.8085 42.6096 69.5565 42.666C68.6453 42.8637 67.7497 43.214 66.99 43.511C66.4608 43.718 65.9975 43.8991 65.6408 43.985C65.5365 44.0121 65.4294 44.0265 65.3215 44.0281C64.8583 44.0281 64.6908 43.8223 64.7275 43.265C64.7313 43.2056 64.7353 43.1443 64.7394 43.0811C64.8516 41.344 65.0567 38.1697 64.7994 35.1975C64.4369 30.9596 63.07 28.8596 61.4458 27.0025C60.6667 26.1131 56.9954 22.2598 49.9933 22.2598C42.991 22.2598 39.3296 26.1292 38.5502 27.0217C36.9279 28.8787 35.5625 30.9787 35.1969 35.2167C34.9518 38.0479 35.1343 41.0611 35.2423 42.8432C35.2518 43 35.2607 43.1474 35.2687 43.2842C35.3006 43.8142 35.1377 44.0473 34.6746 44.0473C34.5669 44.0454 34.4598 44.031 34.3552 44.0042C33.9997 43.9184 33.5376 43.7376 33.0095 43.531C32.2497 43.2338 31.3533 42.8831 30.4415 42.6852C30.1894 42.6287 29.9317 42.5998 29.6733 42.599C28.8558 42.599 28.0765 42.9135 27.7571 43.7487C27.3004 44.956 27.92 45.9381 29.3283 46.9217C29.6011 47.1121 30.1015 47.4364 30.6784 47.8104C31.9016 48.6033 33.4687 49.6191 33.9385 50.0531C34.6308 50.6927 34.5664 51.1919 34.4864 51.8125C34.4837 51.8332 34.481 51.8541 34.4783 51.8752C34.4096 52.4117 32.8654 59.6454 23.1885 64.3306C22.6217 64.6052 21.6571 65.1865 23.3577 66.1254C24.8168 66.9274 26.0089 67.2439 27.0157 67.5112C27.8512 67.733 28.5591 67.9209 29.1862 68.3244C29.82 68.7327 29.9089 69.3965 29.9915 70.013C30.0616 70.5366 30.1272 71.0261 30.5181 71.296C30.9728 71.6095 31.8132 71.6417 32.9445 71.685C34.4236 71.7417 36.4 71.8173 38.6621 72.5656C39.7975 72.9398 40.7841 73.5461 41.8229 74.1844C43.8519 75.4313 46.0798 76.8004 50.0044 76.8004C53.9434 76.8004 56.1952 75.4184 58.2289 74.1702C59.2589 73.538 60.233 72.9402 61.3421 72.5735C63.6083 71.8254 65.5844 71.7497 67.0622 71.6931C68.193 71.6497 69.032 71.6176 69.486 71.304C69.8777 71.0341 69.9429 70.5446 70.0127 70.0209C70.0948 69.4045 70.1833 68.7407 70.8179 68.3323C71.4428 67.9299 72.1484 67.742 72.9812 67.5201Z" fill="black"/>
</svg>
