<svg width="100" height="100" viewBox="0 0 100 100" fill="none" xmlns="http://www.w3.org/2000/svg">
<path d="M100 22.7156C100 22.7156 66.6666 -1.8127 40.8805 3.84768L38.9937 4.47661C35.2201 5.73447 32.0754 7.62127 30.1887 10.137L28.9308 12.0238L19.4968 28.376L35.849 31.5206C42.7673 35.9232 51.5723 37.81 59.7484 35.9232L88.6792 41.5835L100 22.7156Z" fill="#76B3E1"/>
<path opacity="0.3" d="M100 22.7156C100 22.7156 66.6666 -1.8127 40.8805 3.84768L38.9937 4.47661C35.2201 5.73447 32.0754 7.62127 30.1887 10.137L28.9308 12.0238L19.4968 28.376L35.849 31.5206C42.7673 35.9232 51.5723 37.81 59.7484 35.9232L88.6792 41.5835L100 22.7156Z" fill="url(#paint0_linear_755_15696)"/>
<path d="M30.1886 22.7156L27.6729 23.3445C16.981 26.4892 13.8364 36.5521 19.4968 45.3571C25.7861 53.5332 38.9936 57.9357 49.6854 54.7911L88.6792 41.5835C88.6792 41.5835 55.3458 17.0552 30.1886 22.7156Z" fill="#518AC8"/>
<path opacity="0.3" d="M30.1886 22.7156L27.6729 23.3445C16.981 26.4892 13.8364 36.5521 19.4968 45.3571C25.7861 53.5332 38.9936 57.9357 49.6854 54.7911L88.6792 41.5835C88.6792 41.5835 55.3458 17.0552 30.1886 22.7156Z" fill="url(#paint1_linear_755_15696)"/>
<path d="M81.761 51.0175C78.2398 46.6184 73.4857 43.3706 68.1075 41.6899C62.7293 40.0092 56.9718 39.9722 51.5723 41.5835L12.5786 54.1621L0 76.1747L70.4403 88.1244L83.0189 65.4829C85.5346 61.0804 84.9057 56.0489 81.761 51.0175Z" fill="url(#paint2_linear_755_15696)"/>
<path d="M69.1824 73.03C65.6612 68.631 60.9071 65.3832 55.5289 63.7025C50.1506 62.0218 44.3931 61.9847 38.9937 63.5961L0 76.1747C0 76.1747 33.3333 101.332 59.1195 95.0426L61.0063 94.4137C71.6981 91.269 75.4717 81.2062 69.1824 73.03Z" fill="url(#paint3_linear_755_15696)"/>
<defs>
<linearGradient id="paint0_linear_755_15696" x1="14.7798" y1="2.58982" x2="93.0817" y2="40.6401" gradientUnits="userSpaceOnUse">
<stop offset="0.1" stop-color="#76B3E1"/>
<stop offset="0.3" stop-color="#DCF2FD"/>
<stop offset="1" stop-color="#76B3E1"/>
</linearGradient>
<linearGradient id="paint1_linear_755_15696" x1="57.7358" y1="21.2062" x2="44.0251" y2="66.8666" gradientUnits="userSpaceOnUse">
<stop stop-color="#76B3E1"/>
<stop offset="0.5" stop-color="#4377BB"/>
<stop offset="1" stop-color="#1F3B77"/>
</linearGradient>
<linearGradient id="paint2_linear_755_15696" x1="9.05661" y1="41.0804" x2="88.239" y2="94.9169" gradientUnits="userSpaceOnUse">
<stop stop-color="#315AA9"/>
<stop offset="0.5" stop-color="#518AC8"/>
<stop offset="1" stop-color="#315AA9"/>
</linearGradient>
<linearGradient id="paint3_linear_755_15696" x1="44.7799" y1="47.5583" x2="12.8302" y2="164.728" gradientUnits="userSpaceOnUse">
<stop stop-color="#4377BB"/>
<stop offset="0.5" stop-color="#1A336B"/>
<stop offset="1" stop-color="#1A336B"/>
</linearGradient>
</defs>
</svg>
