<svg width="100" height="100" viewBox="0 0 100 100" fill="none" xmlns="http://www.w3.org/2000/svg">
<path fill-rule="evenodd" clip-rule="evenodd" d="M0 49.9991C0 22.3856 22.3862 0 49.9997 0C77.6144 0 100 22.3856 100 49.9991C100 77.6156 77.6144 100 49.9997 100C22.3862 100 0 77.6156 0 49.9991ZM78.3769 43.6577C62.5028 34.2304 36.3187 33.3636 21.1649 37.9629C18.7309 38.7015 16.1576 37.3278 15.4207 34.8944C14.6833 32.4592 16.0553 29.8876 18.4904 29.1478C35.8865 23.8676 64.8039 24.8873 83.0785 35.7353C85.2679 37.0349 85.9853 39.8617 84.688 42.047C83.3896 44.2357 80.5604 44.9573 78.3769 43.6577ZM72.5757 58.8851C74.3805 59.9948 76.7433 59.4279 77.8571 57.6208C78.9668 55.8178 78.3987 53.4538 76.5939 52.3423C61.3937 43.001 39.1585 40.3723 21.2726 45.8001C19.2455 46.4176 18.1006 48.5581 18.7122 50.5881C19.329 52.6152 21.4737 53.7596 23.5037 53.1462C39.1608 48.3935 59.342 50.7504 72.5757 58.8851ZM67.6107 72.0516C69.0567 72.9361 70.9462 72.4815 71.8312 71.0302C72.7157 69.5835 72.2599 67.6929 70.8127 66.8091C57.8324 58.8773 41.7412 57.0319 22.9821 61.3201C21.3267 61.697 20.2952 63.3436 20.6739 64.9955C21.0503 66.6468 22.6968 67.6817 24.3487 67.303C41.4907 63.3877 56.0465 64.9837 67.6107 72.0516Z" fill="#1ED760"/>
</svg>
