<svg width="100" height="100" viewBox="0 0 100 100" fill="none" xmlns="http://www.w3.org/2000/svg">
<path d="M91.0588 5.74655C89.6221 9.23928 87.7643 12.3357 85.7083 15.1101C76.642 5.8704 63.9592 -0.000366211 49.9635 -0.000366211C22.4675 -0.000366211 0 22.3432 0 49.9383C0 64.3551 6.16802 77.3353 15.9526 86.5006L17.8105 88.1603C26.4556 95.4678 37.7017 99.9018 49.9387 99.9018C76.1961 99.9018 97.8214 79.416 99.6792 53.5549C101.165 40.9959 97.3507 24.9194 91.0588 5.74655ZM23.1858 86.9217C21.7491 88.7795 19.0738 88.9777 17.216 87.541C15.3581 86.1042 15.16 83.429 16.5967 81.5711C18.0334 79.7133 20.7087 79.5151 22.5665 80.9518C24.3253 82.3886 24.6225 85.0639 23.1858 86.9217ZM90.7616 71.9847C78.4999 88.3584 52.1433 82.8097 35.3485 83.6271C35.3485 83.6271 32.3512 83.8253 29.3786 84.2464C29.3786 84.2464 30.5181 83.7262 31.9548 83.206C43.7954 79.094 49.369 78.2518 56.5774 74.5609C70.0777 67.6497 83.5532 52.5145 86.2532 36.8591C81.1008 51.8952 65.4454 64.8753 51.2268 70.1268C41.4422 73.7434 23.8299 77.2362 23.8299 77.2362L23.1115 76.8151C11.1718 70.9443 10.7507 44.9841 32.5989 36.6362C42.1853 32.9205 51.2516 34.9765 61.6555 32.5242C72.6786 29.948 85.4606 21.6992 90.5882 10.899C96.3103 28.3131 103.321 55.2889 90.7616 71.9847Z" fill="#6CB52D"/>
<path d="M23.1858 86.9217C21.7491 88.7795 19.0738 88.9777 17.216 87.5409C15.3581 86.1042 15.16 83.4289 16.5967 81.5711C18.0334 79.7132 20.7087 79.5151 22.5666 80.9518C24.3253 82.3885 24.6226 85.0638 23.1858 86.9217Z" fill="#6CB52D"/>
</svg>
