<svg width="100" height="100" viewBox="0 0 100 100" fill="none" xmlns="http://www.w3.org/2000/svg">
<path d="M49.9463 100C77.5897 100 100 77.6137 100 50C100 22.3858 77.5897 0 49.9463 0C23.4196 0 1.71429 20.6133 0 46.6781C3.23914 52.1116 4.50311 55.4721 1.99403 64.382C8.17744 84.9871 27.3066 100 49.9463 100Z" fill="white"/>
<path fill-rule="evenodd" clip-rule="evenodd" d="M47.17 37.4124V37.4122C47.17 26.8917 55.655 18.3334 66.085 18.3334C76.5192 18.3334 85 26.8917 85 37.4122C85 47.9317 76.5192 56.4978 66.085 56.4978C65.9439 56.4978 65.7986 56.4935 65.6575 56.4892L48.2215 69.0371C48.2728 70.9741 47.918 72.9155 47.1572 74.7665C44.2334 81.8475 36.1292 85.218 29.1005 82.2607C24.8046 80.4571 21.8927 76.7078 20.9429 72.4334L2.0262 64.5732C-0.532853 56.9914 0.0552213 46.8396 0.0649003 46.6725L0.0650196 46.6704L26.8234 57.7634C27.5514 57.2812 28.3272 56.8637 29.1552 56.5236C31.0335 55.7445 33.0143 55.3958 34.9883 55.4862L47.1743 37.6601C47.17 37.581 47.17 37.4967 47.17 37.4124ZM30.3128 79.325C35.7398 81.6021 41.9832 79.0065 44.2462 73.5354C45.3405 70.8923 45.3448 67.9652 44.2633 65.3136C43.1818 62.662 41.1411 60.5872 38.511 59.4852C35.9022 58.3918 33.1101 58.4263 30.6539 59.3647L37.0192 62.0206C41.0193 63.6994 42.9125 68.3311 41.2437 72.3645C39.5801 76.3936 34.9883 78.3048 30.986 76.6261L24.8285 74.0562C25.9189 76.3506 27.8092 78.2747 30.3128 79.325ZM66.085 50.127C59.1388 50.127 53.4835 44.4235 53.4835 37.4122C53.4835 30.4064 59.1388 24.7011 66.085 24.7011C73.0355 24.7011 78.6907 30.4064 78.6907 37.4122C78.6907 44.4235 73.0355 50.127 66.085 50.127ZM66.1064 27.8405C60.8828 27.8405 56.6425 32.1184 56.6425 37.3928C56.6425 42.6676 60.8828 46.9416 66.1064 46.9416C71.3342 46.9416 75.5746 42.6676 75.5746 37.3928C75.5746 32.1184 71.3342 27.8405 66.1064 27.8405Z" fill="black"/>
</svg>
