<svg width="100" height="100" viewBox="0 0 100 100" fill="none" xmlns="http://www.w3.org/2000/svg">
<path d="M13.1032 92.1496L10.0032 9.59981C9.95642 8.2887 10.4237 7.0112 11.3055 6.03976C12.1873 5.06833 13.4137 4.47984 14.7232 4.39982L84.923 0.00983372C85.6089 -0.0339339 86.2965 0.063465 86.9432 0.296008C87.59 0.528551 88.1822 0.891294 88.6831 1.36181C89.1841 1.83232 89.5832 2.4006 89.8558 3.03151C90.1284 3.66242 90.2687 4.34254 90.268 5.02982V94.9746C90.2673 95.6537 90.1292 96.3256 89.8618 96.9498C89.5945 97.5741 89.2035 98.1377 88.7125 98.6068C88.2215 99.0759 87.6405 99.4406 87.0047 99.6792C86.3689 99.9177 85.6914 100.025 85.013 99.9946L17.9032 96.9796C16.6424 96.9228 15.4491 96.3941 14.56 95.4985C13.6708 94.6029 13.1508 93.4107 13.1032 92.1496Z" fill="#FF4785"/>
<path fill-rule="evenodd" clip-rule="evenodd" d="M79.4035 0.354858L69.7436 0.954857L69.2736 12.2898C69.2678 12.4317 69.3024 12.5722 69.3733 12.6951C69.4443 12.8181 69.5486 12.9184 69.6743 12.9843C69.8 13.0503 69.9418 13.0793 70.0833 13.0679C70.2248 13.0564 70.3601 13.0051 70.4736 12.9198L74.8735 9.57984L78.5935 12.5098C78.7058 12.5987 78.8413 12.6536 78.9838 12.668C79.1263 12.6823 79.2699 12.6556 79.3977 12.5909C79.5255 12.5262 79.6321 12.4263 79.7049 12.3029C79.7777 12.1796 79.8137 12.038 79.8085 11.8948L79.4035 0.354858ZM71.8836 38.3048C70.1186 39.6798 56.9386 40.6148 56.9386 38.6598C57.2186 31.1948 53.8786 30.8698 52.0186 30.8698C50.2586 30.8698 47.2886 31.3998 47.2886 35.3998C47.2886 39.4748 51.6286 41.7748 56.7236 44.4748C63.9586 48.3097 72.7235 52.9547 72.7235 64.6347C72.7235 75.8347 63.6236 82.0147 52.0236 82.0147C40.0486 82.0147 29.5837 77.1697 30.7636 60.3747C31.2286 58.4047 46.4536 58.8747 46.4536 60.3747C46.2636 67.3047 47.8436 69.3447 51.8336 69.3447C54.8986 69.3447 56.2886 67.6547 56.2886 64.8147C56.2886 60.5097 51.7686 57.9697 46.5636 55.0497C39.5186 51.0947 31.2286 46.4397 31.2286 35.7548C31.2286 25.0948 38.5586 17.9848 51.6486 17.9848C64.7386 17.9848 71.8836 24.9848 71.8836 38.3048Z" fill="white"/>
</svg>
