<svg width="100" height="100" viewBox="0 0 100 100" fill="none" xmlns="http://www.w3.org/2000/svg">
<path d="M2.94118 -0.000854492C1.31681 -0.000854492 0 1.31596 0 2.94033V26.9271C0 28.3908 0 29.1225 0.288421 29.5123C0.54605 29.8605 0.914989 30.0665 1.34658 30.103C1.82977 30.144 2.47005 29.749 3.7506 28.9593C17.1987 20.6661 33.0406 15.8815 50 15.8815C66.9593 15.8815 82.8013 20.6661 96.2492 28.9593C97.5299 29.749 98.1701 30.144 98.6534 30.103C99.0849 30.0665 99.4539 29.8605 99.7116 29.5123C99.9999 29.1225 99.9999 28.3908 99.9999 26.9271V2.94033C99.9999 1.31595 98.6831 -0.000854492 97.0587 -0.000854492H2.94118Z" fill="#E76057"/>
<path d="M10.5882 99.9991C11.4118 99.9991 11.8236 99.9991 12.1381 99.8388C12.4149 99.6978 12.6398 99.4729 12.7808 99.1961C12.9411 98.8816 12.9411 98.4698 12.9411 97.6461V43.9942C12.9411 42.6708 12.9411 42.0092 12.6456 41.6163C12.3949 41.2832 11.983 41.0605 11.5669 41.0332C11.0765 41.001 10.5403 41.3518 9.46796 42.0535C6.40352 44.059 3.49665 46.2852 0.769948 48.7096C0.4923 48.9565 0.353477 49.08 0.249214 49.2355C0.15834 49.3708 0.0876951 49.5283 0.0468281 49.6862C-6.10352e-05 49.8673 -6.10352e-05 50.0585 -6.10352e-05 50.4408V97.0579C-6.10352e-05 98.6823 1.31675 99.9991 2.94112 99.9991H10.5882Z" fill="#E76057"/>
<path d="M32.3526 99.9994C33.1761 99.9994 33.5879 99.9994 33.9026 99.8391C34.1793 99.6981 34.4043 99.4733 34.5453 99.1964C34.7054 98.8819 34.7054 98.4701 34.7054 97.6464V34.477C34.7054 33.4891 34.7054 32.9951 34.4924 32.6436C34.3098 32.3425 34.0046 32.1045 33.6679 32.0008C33.2753 31.8798 32.8108 31.9965 31.8818 32.2298C28.9221 32.9735 26.0329 33.895 23.2266 34.9826C22.7114 35.1823 22.4538 35.2821 22.2541 35.4606C22.0809 35.6156 21.9406 35.8205 21.8588 36.038C21.7643 36.2886 21.7643 36.5731 21.7643 37.1421V97.6464C21.7643 98.4701 21.7643 98.8819 21.9246 99.1964C22.0656 99.4733 22.2906 99.6981 22.5673 99.8391C22.8818 99.9994 23.2936 99.9994 24.1173 99.9994H32.3526Z" fill="#E76057"/>
<path d="M54.1177 99.9992C54.9414 99.9992 55.3531 99.9992 55.6677 99.8389C55.9444 99.6979 56.1694 99.473 56.3104 99.1962C56.4707 98.8817 56.4707 98.4699 56.4707 97.6462V32.4361C56.4707 31.6756 56.4707 31.2954 56.3217 30.9901C56.1931 30.7266 55.9756 30.4963 55.7197 30.3528C55.4236 30.1864 55.0551 30.1653 54.3181 30.1229C52.8892 30.0409 51.4496 29.9993 50.0001 29.9993C48.5506 29.9993 47.1109 30.0409 45.6821 30.1229C44.9451 30.1653 44.5766 30.1864 44.2804 30.3528C44.0246 30.4963 43.8071 30.7266 43.6784 30.9901C43.5294 31.2954 43.5294 31.6756 43.5294 32.4361V97.6462C43.5294 98.4699 43.5294 98.8817 43.6898 99.1962C43.8308 99.473 44.0558 99.6979 44.3324 99.8389C44.6471 99.9992 45.0588 99.9992 45.8824 99.9992H54.1177Z" fill="#E76057"/>
<path d="M75.8819 99.9994C76.7055 99.9994 77.1174 99.9994 77.4319 99.8391C77.7085 99.6981 77.9335 99.4733 78.0745 99.1964C78.2349 98.8819 78.2349 98.4701 78.2349 97.6464V37.1421C78.2349 36.5731 78.2349 36.2886 78.1404 36.038C78.0584 35.8205 77.9182 35.6156 77.745 35.4606C77.5454 35.2821 77.2877 35.1823 76.7725 34.9826C73.9662 33.895 71.077 32.9735 68.1174 32.2298C67.1884 31.9965 66.7239 31.8798 66.3312 32.0008C65.9945 32.1045 65.6894 32.3425 65.5067 32.6436C65.2937 32.9951 65.2937 33.4891 65.2937 34.477V97.6464C65.2937 98.4701 65.2937 98.8819 65.4539 99.1964C65.5949 99.4733 65.8199 99.6981 66.0965 99.8391C66.4112 99.9994 66.823 99.9994 67.6465 99.9994H75.8819Z" fill="#E76057"/>
<path d="M100 50.4408C100 50.0585 100 49.8673 99.9532 49.6862C99.9122 49.5283 99.8417 49.3708 99.7507 49.2355C99.6465 49.08 99.5077 48.9565 99.23 48.7096C96.5033 46.2852 93.5963 44.059 90.532 42.0535C89.4597 41.3518 88.9235 41.001 88.433 41.0332C88.017 41.0605 87.605 41.2832 87.3543 41.6163C87.0588 42.0092 87.0588 42.6708 87.0588 43.9942V97.6461C87.0588 98.4698 87.0588 98.8816 87.2192 99.1961C87.3602 99.4729 87.585 99.6978 87.8618 99.8388C88.1763 99.9991 88.5882 99.9991 89.4118 99.9991H97.0588C98.6832 99.9991 100 98.6823 100 97.0579V50.4408Z" fill="#E76057"/>
</svg>
