<svg width="100" height="100" viewBox="0 0 100 100" fill="none" xmlns="http://www.w3.org/2000/svg">
<path fill-rule="evenodd" clip-rule="evenodd" d="M65.2091 41.6433L97.1098 39.4961C99.257 39.4961 100.791 41.6433 99.5637 43.177L77.1719 73.8507C76.5584 74.1575 75.9449 74.7709 75.0247 74.7709H24.7197C24.3383 74.7248 23.9731 74.5897 23.6534 74.3766C23.3337 74.1635 23.0686 73.8783 22.8793 73.544L0.487418 43.177C-0.739533 41.6433 0.487418 39.1894 2.63458 39.4961L34.5353 41.6433L48.0318 26.9198C48.952 25.6929 51.0992 25.6929 51.7126 26.9198L65.2091 41.3365V41.6433ZM71.9573 69.8631L51.0992 62.1947V69.8631H71.9573ZM48.6453 69.8631V62.1947L27.7871 69.8631H48.952H48.6453ZM46.1914 60.661L25.0264 68.3295L9.68955 46.8578L46.4981 60.3543L46.1914 60.661ZM53.5531 60.661L75.0247 68.3295L90.3616 46.8578L53.5531 60.3543V60.661ZM48.6453 58.8206V33.3613L31.4679 52.3791L48.6453 58.5138V58.8206ZM51.0992 58.8206V33.3613L68.5832 52.3791L51.0992 58.5138V58.8206ZM26.2534 50.5387L30.241 46.2443L10.6098 45.0174L26.2534 50.5387ZM73.491 50.5387L69.5034 46.2443L88.8279 45.0174L73.491 50.5387Z" fill="#006CFF"/>
</svg>
