<svg width="100" height="100" viewBox="0 0 100 100" fill="none" xmlns="http://www.w3.org/2000/svg">
<path d="M100 50C100 77.6142 77.6142 100 50 100C22.3858 100 0 77.6142 0 50C0 22.3858 22.3858 0 50 0C77.6142 0 100 22.3858 100 50V50Z" fill="#EB4823"/>
<path fill-rule="evenodd" clip-rule="evenodd" d="M37 40.3333C37 33.3376 42.671 27.6666 49.6667 27.6666C56.6623 27.6666 62.3333 33.3376 62.3333 40.3333V44L56.6667 45.8333L52.6667 44V40.3333C52.6667 38.6763 51.3237 37.3333 49.6667 37.3333C48.0097 37.3333 46.6667 38.6763 46.6667 40.3333V58.6666C46.6667 65.6623 40.9957 71.3333 34 71.3333C27.0044 71.3333 21.3333 65.6623 21.3333 58.6666V50.3333H31V58.3333C31 59.9903 32.3431 61.3333 34 61.3333C35.657 61.3333 37 59.9903 37 58.3333V40.3333ZM52.6667 58.6666V50.5L56.6667 52.3333L62.3333 50.5V58.6666C62.3333 60.3236 63.6763 61.6666 65.3333 61.6666C66.9903 61.6666 68.3333 60.3236 68.3333 58.6666V50.6666H78V58.6666C78 65.6623 72.329 71.3333 65.3333 71.3333C58.3377 71.3333 52.6667 65.6623 52.6667 58.6666Z" fill="white"/>
</svg>
