<svg width="100" height="100" viewBox="0 0 100 100" fill="none" xmlns="http://www.w3.org/2000/svg">
<path d="M96.128 99.9772H3.87198C1.74575 99.9772 0 98.2315 0 96.1053V3.87161C0 1.74538 1.74575 -0.000366211 3.87198 -0.000366211H96.128C98.2542 -0.000366211 100 1.74538 100 3.87161V96.1277C99.9776 98.2539 98.2542 99.9772 96.128 99.9772Z" fill="#4D4D4E"/>
<path d="M23.0529 30.1921L75.3805 13.5851C75.3805 13.5851 79.0958 11.6379 78.2006 15.2413L78.3349 31.244C78.3349 31.244 78.9839 33.5941 75.761 34.176L54.4987 40.8233L23.0529 30.1921Z" fill="#F89820"/>
<path d="M23.0528 30.1921C23.0528 30.1921 20.9937 30.6845 21.598 34.1984L21.4861 49.6192C21.4861 49.6192 21.3071 51.5664 25 52.3497L76.8577 69.0462C76.8577 69.0462 78.6034 69.74 78.402 67.5914L78.4244 50.4025C78.4244 50.4025 78.9168 48.6344 75.6938 47.4706L54.4987 40.8233L23.0528 30.1921Z" fill="#F89820"/>
<path d="M45.9043 59.0641L23.8362 65.8009C23.8362 65.8009 21.1729 65.8904 21.4862 70.8815C21.7995 75.8725 21.4638 85.9217 21.4638 85.9217C21.4638 85.9217 21.6876 87.7794 24.2391 86.7051L76.5668 70.0086C76.5668 70.0086 78.4244 69.5386 76.8577 69.0238C75.291 68.5314 45.9043 59.0641 45.9043 59.0641Z" fill="url(#paint0_linear_755_15736)"/>
<defs>
<linearGradient id="paint0_linear_755_15736" x1="24.5251" y1="76.7763" x2="77.4578" y2="58.462" gradientUnits="userSpaceOnUse">
<stop offset="0.233" stop-color="#F89822"/>
<stop offset="1" stop-color="#C27818"/>
</linearGradient>
</defs>
</svg>
