<svg width="100" height="100" viewBox="0 0 100 100" fill="none" xmlns="http://www.w3.org/2000/svg">
<path d="M57.8941 98.3382C55.3394 101.555 50.1596 99.7927 50.0981 95.6848L49.198 35.6028H89.5971C96.9144 35.6028 100.995 44.0544 96.4454 49.7852L57.8941 98.3382Z" fill="url(#paint0_linear_755_15742)"/>
<path d="M57.8941 98.3382C55.3394 101.555 50.1596 99.7927 50.0981 95.6848L49.198 35.6028H89.5971C96.9144 35.6028 100.995 44.0544 96.4454 49.7852L57.8941 98.3382Z" fill="url(#paint1_linear_755_15742)" fill-opacity="0.2"/>
<path d="M41.464 1.66122C44.0187 -1.55626 49.1986 0.206684 49.2601 4.31457L49.6546 64.3965H9.76106C2.44348 64.3965 -1.63767 55.9449 2.91262 50.2141L41.464 1.66122Z" fill="#3ECF8E"/>
<defs>
<linearGradient id="paint0_linear_755_15742" x1="49.198" y1="48.9245" x2="85.1033" y2="63.9831" gradientUnits="userSpaceOnUse">
<stop stop-color="#249361"/>
<stop offset="1" stop-color="#3ECF8E"/>
</linearGradient>
<linearGradient id="paint1_linear_755_15742" x1="33.2794" y1="27.1292" x2="49.6541" y2="57.9537" gradientUnits="userSpaceOnUse">
<stop/>
<stop offset="1" stop-opacity="0"/>
</linearGradient>
</defs>
</svg>
