<svg width="100" height="100" viewBox="0 0 100 100" fill="none" xmlns="http://www.w3.org/2000/svg">
<path d="M85.9509 13.2313C76.6601 -0.0588785 58.3089 -3.99819 45.0421 4.45131L21.7434 19.2955C20.176 20.2803 18.7138 21.4254 17.3835 22.7124C16.0514 23.9993 14.858 25.4215 13.8214 26.9555C12.7848 28.4895 11.9101 30.127 11.2108 31.8412C10.5131 33.5563 9.99506 35.3391 9.66507 37.161C9.38966 38.6883 9.23943 40.2373 9.2194 41.7897C9.1977 43.3437 9.3062 44.8961 9.54155 46.4301C9.77691 47.9657 10.1391 49.4797 10.6232 50.9553C11.1073 52.4308 11.7132 53.863 12.4343 55.2384C11.9382 55.9923 11.4803 56.7706 11.0622 57.5703C10.6432 58.3699 10.266 59.1911 9.93048 60.0291C9.59497 60.867 9.30286 61.7216 9.05415 62.5896C8.80544 63.4576 8.60179 64.3373 8.44155 65.2253C7.77571 68.9596 7.86368 72.7893 8.70028 76.4891C9.11758 78.3335 9.71682 80.1329 10.4913 81.8589C11.2658 83.5848 12.2089 85.2307 13.3106 86.7697C22.6014 100.06 40.9509 103.999 54.2177 95.5497L77.5164 80.7672C79.0838 79.7807 80.5427 78.634 81.873 77.3454C83.2032 76.0577 84.3964 74.6358 85.4334 73.1022C86.47 71.5699 87.3447 69.9324 88.0441 68.2182C88.7435 66.5056 89.2626 64.7229 89.5948 62.9018C89.8702 61.3744 90.0187 59.8271 90.0388 58.2747C90.0588 56.7224 89.9503 55.17 89.7133 53.636C89.4779 52.102 89.1157 50.5897 88.63 49.1141C88.1442 47.6402 87.5383 46.2081 86.8172 44.8326C87.313 44.0798 87.772 43.3003 88.191 42.5008C88.6083 41.7012 88.9872 40.88 89.3227 40.042C89.6582 39.2041 89.952 38.3495 90.2023 37.4815C90.4511 36.6152 90.658 35.7355 90.8199 34.8475C91.1505 32.9846 91.294 31.0934 91.2506 29.2022C91.2072 27.311 90.9752 25.4298 90.5579 23.5837C90.1406 21.7392 89.5413 19.9398 88.7668 18.2139C87.9933 16.4876 87.05 14.8426 85.9509 13.3031" fill="#FF3E00"/>
<path d="M42.7655 88.055C40.942 88.5287 39.0569 88.7212 37.1753 88.6259C35.2941 88.529 33.438 88.1485 31.672 87.4925C29.9059 86.8375 28.25 85.9172 26.7612 84.7633C25.2736 83.6087 23.9706 82.2342 22.897 80.6871C22.2343 79.7607 21.6668 78.7726 21.2027 77.7343C20.7374 76.6967 20.3767 75.6153 20.1261 74.5061C19.8774 73.3961 19.7372 72.2643 19.7122 71.1276C19.6871 69.9909 19.7756 68.8542 19.9759 67.7341C20.0076 67.5522 20.0443 67.3702 20.0844 67.19C20.1228 67.008 20.1662 66.8277 20.2129 66.6491C20.258 66.4689 20.3081 66.2903 20.3615 66.1117C20.4132 65.9347 20.47 65.7578 20.5284 65.5825L20.9674 64.2421L22.1642 65.1352C22.8502 65.6359 23.558 66.1083 24.2841 66.549C25.0102 66.9913 25.7547 67.402 26.5158 67.7792C27.2753 68.1581 28.0531 68.5053 28.8427 68.8174C29.6322 69.1312 30.4351 69.41 31.2497 69.6554L32.1427 69.9141L32.0626 70.8071C32.0195 71.4149 32.0828 72.0255 32.2495 72.6115C32.3313 72.9053 32.4398 73.1891 32.5717 73.4628C32.7035 73.7366 32.8588 73.9986 33.0357 74.2457C33.3599 74.7116 33.7534 75.1254 34.2025 75.4725C34.6498 75.8197 35.1489 76.0968 35.6814 76.2938C36.2139 76.4908 36.7714 76.6043 37.3389 76.6326C37.9048 76.6627 38.4723 76.6043 39.0214 76.4607C39.1483 76.4273 39.2718 76.3889 39.3953 76.3455C39.5189 76.3021 39.6407 76.2554 39.7592 76.202C39.8794 76.1502 39.9963 76.0935 40.1131 76.0317C40.2283 75.9716 40.3401 75.9065 40.4503 75.8364L63.7139 60.9905C63.9991 60.8117 64.2648 60.6036 64.5068 60.3696C64.7488 60.1342 64.9641 59.8755 65.1528 59.5968C65.3414 59.318 65.4983 59.0192 65.6251 58.7071C65.7503 58.3949 65.8438 58.0711 65.9039 57.7406C65.9623 57.4018 65.9874 57.0596 65.979 56.7157C65.9707 56.3735 65.9273 56.033 65.8505 55.6975C65.7754 55.3637 65.6652 55.0382 65.5233 54.7244C65.3831 54.4122 65.2095 54.1151 65.0092 53.8363C64.6854 53.3706 64.2931 52.9583 63.8441 52.6112C63.3951 52.264 62.896 51.9869 62.3652 51.7899C61.8332 51.5929 61.2743 51.4781 60.7077 51.4494C60.1402 51.421 59.5726 51.4794 59.0235 51.6213C58.8983 51.6547 58.7731 51.6931 58.6496 51.7365C58.526 51.7799 58.4059 51.8266 58.2857 51.8784C58.1655 51.9318 58.0487 51.9885 57.9335 52.0503C57.8183 52.1104 57.7048 52.1772 57.5946 52.2473L48.6611 57.9192C48.2972 58.1496 47.9233 58.3666 47.5427 58.5702C47.1605 58.7722 46.7732 58.9608 46.3776 59.1344C45.982 59.308 45.5797 59.4666 45.1724 59.6084C44.7652 59.752 44.3529 59.8789 43.9356 59.9907C42.1145 60.4614 40.2333 60.6517 38.3554 60.5549C36.4776 60.4581 34.6264 60.0758 32.8638 59.4232C31.1011 58.7688 29.4486 57.8491 27.963 56.6974C26.4774 55.5456 25.1754 54.1752 24.1021 52.6312C23.4428 51.7048 22.877 50.7149 22.4146 49.6767C21.9505 48.6384 21.5917 47.5568 21.343 46.4485C21.0942 45.3384 20.9574 44.2067 20.934 43.07C20.909 41.9349 20.9974 40.7982 21.1994 39.6798C21.594 37.4779 22.4434 35.3825 23.6932 33.5272C24.9439 31.6719 26.5682 30.0982 28.4621 28.9068L51.7975 14.0626C52.1597 13.8322 52.5303 13.6152 52.9092 13.4116C53.2881 13.2096 53.6754 13.021 54.0676 12.8474C54.4607 12.6737 54.8605 12.5156 55.2661 12.3734C55.67 12.2298 56.0807 12.1013 56.4963 11.9894C58.3191 11.5171 60.2036 11.3234 62.0831 11.4186C63.9643 11.5154 65.8188 11.896 67.5848 12.552C69.3508 13.2063 71.005 14.1277 72.4939 15.2811C73.981 16.4364 75.2834 17.8115 76.3564 19.359C77.0174 20.2837 77.5866 21.2719 78.0523 22.3101C78.518 23.3484 78.8786 24.4283 79.1306 25.5384C79.381 26.6484 79.5212 27.7801 79.5463 28.9168C79.573 30.0536 79.4862 31.1903 79.2859 32.3103C79.2508 32.4939 79.2141 32.6775 79.1724 32.8595C79.1323 33.0414 79.0889 33.2234 79.0422 33.4036C78.9971 33.5856 78.947 33.7659 78.8953 33.9445C78.8435 34.1247 78.7901 34.3033 78.7317 34.4803L78.286 35.8206L77.0975 34.9276C76.4098 34.4219 75.7004 33.9478 74.9727 33.5021C74.2449 33.0581 73.4971 32.6442 72.7343 32.2619C71.2071 31.5001 69.6185 30.868 67.9854 30.3724L67.0907 30.1136L67.1725 29.2206C67.1975 28.9152 67.1959 28.608 67.1675 28.3042C67.1408 28.0004 67.0857 27.6983 67.0056 27.4029C66.9238 27.1091 66.8186 26.8203 66.6868 26.5449C66.5566 26.2678 66.4013 26.0041 66.2244 25.7537C65.8987 25.2962 65.5053 24.8909 65.0576 24.5519C64.6106 24.2112 64.1141 23.941 63.5854 23.7506C62.5229 23.3652 61.3681 23.3134 60.2754 23.6021C60.1485 23.6355 60.0233 23.6739 59.9015 23.7156C59.7779 23.759 59.6561 23.8074 59.5359 23.8591C59.4174 23.9109 59.2989 23.9693 59.1837 24.0294C59.0685 24.0912 58.955 24.1563 58.8449 24.2264L35.5378 39.0455C35.2541 39.2241 34.9887 39.4328 34.7483 39.6665C34.5079 39.9002 34.2909 40.1589 34.1023 40.436C33.9153 40.7147 33.757 41.0117 33.6299 41.3223C33.5031 41.6345 33.4096 41.9566 33.3495 42.2871C33.2911 42.626 33.266 42.9698 33.2744 43.3137C33.2944 44.002 33.4492 44.6797 33.7301 45.3084C33.8717 45.6214 34.0433 45.9199 34.2425 46.1997C34.5647 46.6604 34.9553 47.0711 35.401 47.4149C35.8457 47.7604 36.3405 48.0362 36.8682 48.2328C37.9294 48.6273 39.0852 48.6908 40.1832 48.4148C40.3084 48.3797 40.4336 48.3413 40.5571 48.2979C40.679 48.2545 40.8008 48.2061 40.921 48.1544C41.0406 48.1024 41.1581 48.0456 41.2732 47.9841C41.3884 47.924 41.5019 47.8589 41.612 47.7888L50.5456 42.1269C50.9112 41.8932 51.2834 41.6729 51.6656 41.4692C52.0462 41.2639 52.4351 41.0753 52.8324 40.9C53.2284 40.7263 53.6309 40.5682 54.0392 40.426C54.4482 40.2824 54.8621 40.1556 55.2811 40.0454C57.1039 39.5713 58.9867 39.3777 60.8679 39.4712C62.7491 39.5663 64.6036 39.9469 66.3696 40.6012C68.1339 41.2556 69.7898 42.1753 71.2771 43.3304C72.766 44.4838 74.068 45.8576 75.1412 47.4049C75.8022 48.3313 76.3698 49.3195 76.8355 50.3577C77.3012 51.3954 77.6624 52.4768 77.9138 53.586C78.1642 54.6943 78.3044 55.826 78.3311 56.9628C78.3578 58.1012 78.2693 59.2379 78.0707 60.3562C77.8739 61.4543 77.5634 62.5289 77.1443 63.5628C76.7255 64.5969 76.1996 65.5843 75.5752 66.5089C74.9526 67.4337 74.2349 68.2916 73.4337 69.0678C72.6324 69.844 71.7528 70.535 70.808 71.1293L47.4993 85.9735C47.1338 86.2055 46.7599 86.4242 46.3793 86.6278C45.997 86.8315 45.6081 87.0201 45.2108 87.1937C44.8152 87.3689 44.413 87.5275 44.004 87.6711C43.5967 87.8146 43.1828 87.9432 42.7655 88.055Z" fill="white"/>
</svg>
