<svg width="101" height="101" viewBox="0 0 101 101" fill="none" xmlns="http://www.w3.org/2000/svg">
<path d="M50.6168 98.2313C24.3613 98.2313 3.00003 76.872 3.00003 50.6154C3.00003 24.3589 24.3613 2.99963 50.6168 2.99963C76.8724 2.99963 98.2337 24.3609 98.2337 50.6164C98.2337 76.872 76.8724 98.2313 50.6168 98.2313Z" fill="#85EA2D"/>
<path d="M49.9995 5.76601C74.9818 5.76601 95.2326 26.0169 95.2326 50.9991C95.2326 75.9804 74.9818 96.2323 49.9995 96.2323C25.0182 96.2323 4.76638 75.9804 4.76638 50.9991C4.76638 26.0179 25.0182 5.76601 49.9995 5.76601ZM49.9995 0.999634C22.4297 0.999634 0 23.4293 0 50.9991C0 78.569 22.4297 100.999 49.9995 100.999C77.5693 100.999 100 78.569 100 50.9991C100 23.4293 77.5693 0.999634 49.9995 0.999634Z" fill="#173647"/>
<path d="M31.9194 34.3882C31.7655 36.0993 31.9764 37.8683 31.8625 39.5984C31.7275 41.3294 31.5157 43.0405 31.1698 44.7515C30.6891 47.1932 29.1699 49.0392 27.0751 50.5773C31.1519 53.2309 31.6126 57.3446 31.8814 61.5173C32.0164 63.7671 31.9584 66.0358 32.1893 68.2656C32.3622 69.9957 33.0348 70.4384 34.8238 70.4954C35.5544 70.5144 36.303 70.4954 37.1506 70.4954V75.8405C31.8635 76.744 27.4989 75.2448 26.4215 70.7652C26.0746 69.1311 25.8438 67.4581 25.7678 65.766C25.6519 63.978 25.8438 62.19 25.7098 60.4019C25.3251 55.4986 24.6904 53.8455 20 53.6147V47.52C20.3458 47.4431 20.6726 47.3851 21.0184 47.3471C23.595 47.2122 24.6904 46.4236 25.2481 43.886C25.518 42.4638 25.6719 41.0216 25.7288 39.5604C25.9217 36.7729 25.8448 33.9275 26.3245 31.159C26.9971 27.1792 29.4588 25.2563 33.5545 25.0254C34.7079 24.9674 35.8812 25.0254 37.2075 25.0254V30.4864C36.6498 30.5254 36.1691 30.6013 35.6694 30.6013C32.3432 30.4854 32.1693 31.6198 31.9194 34.3882ZM38.3219 47.0393H38.245C36.322 46.9433 34.6689 48.4425 34.572 50.3655C34.476 52.3074 35.9752 53.9615 37.8981 54.0564H38.129C40.033 54.1724 41.6661 52.7102 41.782 50.8072V50.6153C41.821 48.6734 40.2638 47.0783 38.3219 47.0393ZM50.3773 47.0393C48.5123 46.9813 46.9542 48.4425 46.8972 50.2885C46.8972 50.4044 46.8972 50.5004 46.9172 50.6153C46.9172 52.7112 48.3394 54.0574 50.4932 54.0574C52.6081 54.0574 53.9353 52.6732 53.9353 50.5004C53.9153 48.4045 52.5111 47.0203 50.3773 47.0393ZM62.7215 47.0393C60.7606 47.0003 59.1255 48.5585 59.0685 50.5194C59.0685 52.4803 60.6446 54.0564 62.6056 54.0564H62.6445C64.4136 54.3643 66.2016 52.6532 66.3175 50.5963C66.4125 48.6924 64.6824 47.0393 62.7215 47.0393ZM79.6602 47.3271C77.4294 47.2312 76.314 46.4816 75.7573 44.3658C75.4105 43.0205 75.1996 41.6163 75.1227 40.232C74.9688 37.6555 74.9877 35.0599 74.8148 32.4833C74.4111 26.3697 69.9895 24.2358 63.567 25.2923V30.5993C64.5855 30.5993 65.374 30.5993 66.1626 30.6183C67.5278 30.6373 68.5663 31.157 68.7002 32.6762C68.8351 34.0604 68.8351 35.4637 68.9701 36.8679C69.2399 39.6564 69.3928 42.4818 69.8736 45.2313C70.2973 47.5 71.8545 49.1921 73.7954 50.5763C70.3933 52.8641 69.3928 56.1323 69.2199 59.8053C69.124 62.3239 69.066 64.8615 68.9321 67.4001C68.8161 69.7068 68.0096 70.4564 65.6829 70.5144C65.0292 70.5334 64.3946 70.5913 63.664 70.6303V76.0713C65.0292 76.0713 66.2785 76.1483 67.5278 76.0713C71.4117 75.8404 73.7574 73.9565 74.527 70.1876C74.8538 68.1107 75.0457 66.0159 75.1037 63.92C75.2376 61.9971 75.2196 60.0551 75.4115 58.1522C75.6993 55.1718 77.0646 53.9415 80.045 53.7496C80.3338 53.7106 80.6026 53.6537 80.8725 53.5577V47.4621C80.3718 47.4041 80.025 47.3471 79.6602 47.3271Z" fill="#173647"/>
</svg>
