<svg width="100" height="100" viewBox="0 0 100 100" fill="none" xmlns="http://www.w3.org/2000/svg">
<path d="M22.2179 0.000488281H77.5869C80.2812 0.000488281 82.8974 0.430176 85.4354 1.32861C89.1059 2.65674 92.4249 5.00049 94.9239 8.04736C97.462 11.0942 99.141 14.8442 99.7267 18.7505C99.961 20.1958 100 21.6411 100 23.0864V77.1099C100 78.8286 99.922 80.5864 99.5705 82.2661C98.7896 86.1333 96.9544 89.7661 94.2992 92.6958C91.683 95.6255 88.2468 97.813 84.5374 98.9849C82.2726 99.688 79.9298 100 77.5479 100C76.4936 100 22.0618 100 21.2418 99.9614C17.2589 99.7661 13.3152 98.4771 9.99616 96.2505C6.75524 94.063 4.10002 91.0161 2.38195 87.5005C0.89815 84.4927 0.156253 81.1333 0.156253 77.7739V22.2271C0.0781581 18.9067 0.781008 15.6255 2.22576 12.6567C3.90479 9.14111 6.52095 6.05518 9.76188 3.86768C13.0809 1.60205 16.9856 0.273926 20.9684 0.0786133C21.3589 0.000488281 21.7884 0.000488281 22.2179 0.000488281Z" fill="url(#paint0_linear_755_15756)"/>
<path d="M84.342 81.7974C83.9905 81.2505 83.6001 80.7036 83.1705 80.1958C82.1944 79.0239 81.062 78.0083 79.8125 77.1489C78.2506 76.0942 76.4154 75.4302 74.5411 75.3521C73.2135 75.2739 71.8859 75.5083 70.6364 75.9771C69.3869 76.4067 68.1764 77.0317 67.005 77.6567C65.6384 78.3599 64.2717 79.063 62.8269 79.6489C61.1089 80.3521 59.3127 80.8989 57.4775 81.2896C55.1737 81.7192 52.8309 81.8755 50.5271 81.8364C46.349 81.7583 42.171 81.1333 38.1882 79.9614C34.6739 78.9067 31.3159 77.4614 28.153 75.6255C25.3807 74.0239 22.8036 72.188 20.3826 70.1177C18.3912 68.3989 16.556 66.563 14.8379 64.6099C13.6665 63.2427 12.5342 61.7974 11.4799 60.313C11.0504 59.727 10.6599 59.1021 10.3085 58.4771L0 47.3442V22.1489C0 9.92236 9.87894 0.000488281 22.1007 0.000488281H41.8196L56.4232 14.8442C89.379 37.2661 78.7192 61.9927 78.7192 61.9927C78.7192 61.9927 88.0905 72.5396 84.342 81.7974Z" fill="url(#paint1_linear_755_15756)"/>
<path d="M56.5012 14.8442C89.457 37.2661 78.7971 61.9927 78.7971 61.9927C78.7971 61.9927 88.1685 72.5786 84.3809 81.8364C84.3809 81.8364 80.5152 75.352 74.0334 75.352C67.7859 75.352 64.1154 81.8364 51.5422 81.8364C23.5455 81.8364 10.3085 58.438 10.3085 58.438C35.5329 75.0396 52.7527 63.2817 52.7527 63.2817C41.39 56.6802 17.2198 25.1177 17.2198 25.1177C38.2662 43.0474 47.3642 47.7739 47.3642 47.7739C41.9367 43.2817 26.7083 21.3286 26.7083 21.3286C38.891 33.6724 63.1002 50.8989 63.1002 50.8989C69.9725 31.8364 56.5012 14.8442 56.5012 14.8442Z" fill="white"/>
<defs>
<linearGradient id="paint0_linear_755_15756" x1="59.4655" y1="-3.56787" x2="40.5652" y2="103.578" gradientUnits="userSpaceOnUse">
<stop stop-color="#FAAE42"/>
<stop offset="1" stop-color="#EF3E31"/>
</linearGradient>
<linearGradient id="paint1_linear_755_15756" x1="51.0003" y1="1.61611" x2="37.1675" y2="80.035" gradientUnits="userSpaceOnUse">
<stop stop-color="#E39F3A"/>
<stop offset="1" stop-color="#D33929"/>
</linearGradient>
</defs>
</svg>
