<svg width="100" height="100" viewBox="0 0 100 100" fill="none" xmlns="http://www.w3.org/2000/svg">
<path d="M0 50C0 22.3858 22.3858 0 50 0C77.6142 0 100 22.3858 100 50C100 77.6142 77.6142 100 50 100C22.3858 100 0 77.6142 0 50Z" fill="#DE572C"/>
<path d="M30.6287 37.3991C33.6753 37.3991 36.142 35.1807 36.142 32.4591C36.142 29.7374 33.6753 27.5157 30.6287 27.5157C27.587 27.5157 25.1203 29.7374 25.1203 32.4591C25.1203 35.1807 27.587 37.3991 30.6287 37.3991" fill="white"/>
<path d="M26.06 39.3947L22.6017 44.728L29.005 48.7213C29.005 48.7213 33.2683 50.8997 31.2433 54.9913C29.325 58.868 20 67.353 20 67.353L28.3617 72.568C34.135 60.028 33.7733 61.6997 35.2267 57.1947C36.7183 52.588 37.035 49.0763 34.515 46.5463C31.2533 43.2813 30.8917 42.9797 26.06 39.3947" fill="white"/>
<path d="M80.2673 37.9933C80.2673 37.9933 78.474 23.875 47.5657 32.6266C48.8757 30.33 49.5257 28.825 49.5257 28.825L41.8007 26.6666C41.8007 26.6666 38.689 36.815 33.139 41.5566C33.139 41.5566 38.5073 44.65 38.4507 44.5633C39.9873 43.0283 41.359 41.46 42.5707 39.945C43.7973 39.4016 44.9907 38.9016 46.1507 38.4266C44.7307 41.0016 42.419 44.8433 40.109 47.2733L43.3607 50.1166C43.3607 50.1166 45.5707 47.9883 47.9957 45.4166H50.7623V50.16H39.9873V53.9466H50.7623V63.035C50.624 63.03 50.4823 63.03 50.3507 63.0133C49.1657 62.9583 47.304 62.7616 46.5907 61.6216C45.7123 60.2316 46.3507 57.68 46.4007 56.105H38.9757L38.704 56.2466C38.704 56.2466 35.9957 68.4316 46.5623 68.1616C56.4457 68.4283 62.1157 65.41 64.834 63.3233L65.9207 67.3533L72.0207 64.82L67.9007 54.7066L62.939 56.2466L63.869 59.715C62.594 60.66 61.124 61.3683 59.5557 61.8966V53.9466H70.0557V50.16H59.5557V45.4166H70.1007V41.63H51.369C52.7157 39.9833 53.774 38.4866 54.0607 37.5233L50.799 36.6416C64.8007 31.635 72.6023 32.4883 72.5307 40.7083V62.3616C72.5307 62.3616 73.3623 69.8133 64.834 69.2716L60.229 68.2783L59.149 72.66C59.149 72.66 79.049 78.34 80.679 63.0433C82.304 47.7466 80.2673 37.9933 80.2673 37.9933" fill="white"/>
</svg>
