<svg width="100" height="100" viewBox="0 0 100 100" fill="none" xmlns="http://www.w3.org/2000/svg">
<path d="M89.5507 0H10.3321C4.58455 0.0740222 -0.0275304 4.70791 0.000123713 10.3809V89.6191C-0.0273082 95.3144 4.62019 99.9576 10.3907 100H89.6093C95.3798 99.9576 100.027 95.3144 99.9999 89.6191V10.3809C100.013 7.63552 98.9186 4.99789 96.9581 3.05025C94.9976 1.1026 92.3324 0.00509128 89.5507 0V0Z" fill="url(#paint0_linear_147648_1191)"/>
<path d="M49.9609 91.3475C26.9918 91.1725 8.50861 72.6675 8.66221 49.9999C8.50861 27.3323 26.9918 8.82723 49.9609 8.65222C72.9416 8.81135 91.4425 27.3211 91.289 49.9999C91.4425 72.6787 72.9416 91.1884 49.9609 91.3475V91.3475Z" fill="white"/>
<path d="M88.8889 49.995L59.8104 36.1112L62.1466 45.0073H37.8534L40.1896 36.1112L11.1111 50.0052L40.2095 63.889L37.8733 54.9929H62.1664L59.8302 63.889L88.8889 50.0052" fill="url(#paint1_linear_147648_1191)"/>
<defs>
<linearGradient id="paint0_linear_147648_1191" x1="100.119" y1="100.283" x2="100.119" y2="-0.03166" gradientUnits="userSpaceOnUse">
<stop stop-color="#096FD2"/>
<stop offset="1" stop-color="#0E8EE9"/>
</linearGradient>
<linearGradient id="paint1_linear_147648_1191" x1="79.1259" y1="63.916" x2="79.1247" y2="36.125" gradientUnits="userSpaceOnUse">
<stop stop-color="#096FD2"/>
<stop offset="1" stop-color="#0E8EE9"/>
</linearGradient>
</defs>
</svg>
