<svg width="100" height="100" viewBox="0 0 100 100" fill="none" xmlns="http://www.w3.org/2000/svg">
<path d="M50 100C77.6142 100 100 77.6142 100 50C100 22.3858 77.6142 0 50 0C22.3858 0 0 22.3858 0 50C0 77.6142 22.3858 100 50 100Z" fill="url(#paint0_linear_147648_1196)"/>
<path d="M18.6213 52.4458C24.4662 49.2262 30.9908 46.5391 37.0871 43.8383C47.575 39.4146 58.1046 35.0675 68.7404 31.0204C70.8098 30.3308 74.5279 29.6564 74.8925 32.7231C74.6929 37.0639 73.8717 41.3794 73.3083 45.6948C71.8785 55.1848 70.226 64.6423 68.6146 74.101C68.0594 77.2516 64.1125 78.8827 61.5871 76.8664C55.5179 72.7669 49.4021 68.7073 43.4104 64.5127C41.4477 62.5183 43.2677 59.6544 45.0206 58.2302C50.0194 53.3039 55.3206 49.1185 60.0581 43.9377C61.336 40.8516 57.5602 43.4525 56.3148 44.2494C49.4715 48.9652 42.7956 53.9689 35.5806 58.1135C31.8952 60.1423 27.5998 58.4085 23.916 57.2764C20.6131 55.9089 15.773 54.5312 18.621 52.446L18.6213 52.4458Z" fill="white"/>
<defs>
<linearGradient id="paint0_linear_147648_1196" x1="37.5058" y1="4.17" x2="12.5058" y2="62.5" gradientUnits="userSpaceOnUse">
<stop stop-color="#37AEE2"/>
<stop offset="1" stop-color="#1E96C8"/>
</linearGradient>
</defs>
</svg>
