<svg width="100" height="100" viewBox="0 0 100 100" fill="none" xmlns="http://www.w3.org/2000/svg">
<path d="M50 100C77.6142 100 100 77.6142 100 50C100 22.3858 77.6142 0 50 0C22.3858 0 0 22.3858 0 50C0 77.6142 22.3858 100 50 100Z" fill="#26A17B"/>
<path d="M55.3296 54.6142V54.6061C54.9839 54.6302 53.1994 54.7347 49.2283 54.7347C46.0531 54.7347 43.8264 54.6463 43.0386 54.6061V54.6142C30.828 54.0756 21.7203 51.9534 21.7203 49.4052C21.7203 46.865 30.836 44.7347 43.0386 44.1961V52.5C43.8344 52.5563 46.1254 52.6929 49.2846 52.6929C53.0788 52.6929 54.9759 52.5322 55.3296 52.5V44.2042C67.5161 44.7508 76.5997 46.873 76.5997 49.4132C76.5997 51.9534 67.508 54.0756 55.3296 54.6222V54.6142ZM55.3296 43.3441V35.9164H72.3312V24.59H26.045V35.9164H43.0466V43.3441C29.2283 43.9791 18.8424 46.7122 18.8424 49.992C18.8424 53.2717 29.2363 56.0048 43.0466 56.6479V80.4582H55.3376V56.6479C69.1318 56.0129 79.5016 53.2797 79.5016 50C79.5016 46.7283 69.1318 43.9871 55.3376 43.3521" fill="white"/>
</svg>
