<svg width="100" height="100" viewBox="0 0 100 100" fill="none" xmlns="http://www.w3.org/2000/svg">
<path d="M50 100C77.6142 100 100 77.6142 100 50C100 22.3858 77.6142 0 50 0C22.3858 0 0 22.3858 0 50C0 77.6142 22.3858 100 50 100Z" fill="white"/>
<path fill-rule="evenodd" clip-rule="evenodd" d="M29.9014 35H30.0252C30.6291 35.6928 31.2833 36.3349 31.9397 36.979L31.9397 36.979C32.3094 37.3418 32.6797 37.7053 33.042 38.0787L39.8801 44.9169V45.0406C38.2305 46.6827 36.5845 48.3325 34.9385 49.9823C33.2814 51.6433 31.6242 53.3043 29.9633 54.9575C28.3002 53.3021 26.6409 51.6429 24.9817 49.9837C23.3224 48.3244 21.6632 46.6651 20 45.0097C20.1161 44.7885 20.3035 44.6175 20.4895 44.4479C20.5767 44.3684 20.6636 44.2892 20.7426 44.2052C21.9618 42.9736 23.1884 41.7495 24.4145 40.5259C26.2535 38.6906 28.0914 36.8564 29.9014 35ZM59.979 44.7891C60.9402 43.8514 61.887 42.8993 62.8339 41.9471L62.8347 41.9463C63.4978 41.2794 64.161 40.6126 64.829 39.9507C65.4149 39.3593 66.0047 38.7739 66.5942 38.1887C67.6548 37.1359 68.7146 36.0839 69.7488 35H69.8726C70.2664 35.4726 70.704 35.9013 71.1417 36.33C71.3918 36.575 71.6419 36.8199 71.8838 37.0731L74.384 39.5732L74.4115 39.6007C76.0694 41.2585 77.725 42.9141 79.3872 44.5765C79.4222 44.6158 79.4633 44.6538 79.5053 44.6927L79.5054 44.6927C79.6124 44.7917 79.7254 44.8962 79.7585 45.0406C78.1342 46.62 76.5353 48.2284 74.9354 49.8377L74.9351 49.8379C73.2284 51.5547 71.5205 53.2726 69.7797 54.9575L60.2651 45.4429C60.2185 45.3916 60.1677 45.3446 60.1174 45.298C60.0672 45.2515 60.0174 45.2054 59.9727 45.156C59.9301 45.2013 59.8841 45.244 59.8382 45.2865L59.8382 45.2865C59.8044 45.3178 59.7708 45.349 59.7388 45.381C58.1459 46.9664 56.5566 48.5556 54.9674 50.1448C53.3618 51.7503 51.7562 53.3559 50.1468 54.9575C48.6616 53.4929 47.1887 52.0161 45.7157 50.5394C43.8744 48.6933 42.0332 46.8473 40.1681 45.0252C41.8828 43.2369 43.6449 41.4832 45.4067 39.7298L45.4067 39.7298C46.983 38.161 48.5589 36.5926 50.1004 35H50.2242C50.3173 35.1392 50.4098 35.263 50.5336 35.3868C51.8154 36.6562 53.0898 37.933 54.3646 39.2103C56.2268 41.0761 58.0901 42.9429 59.979 44.7891ZM43.5277 61.7133C42.4378 62.8014 41.3485 63.889 40.2609 64.9766C40.2454 65.0076 40.23 65.0462 40.2145 65.0849C40.199 65.1236 40.1835 65.1623 40.1681 65.1932C41.8587 66.8606 43.5318 68.5367 45.207 70.215C45.7546 70.7636 46.3025 71.3124 46.8512 71.8612C47.3094 72.2999 47.7568 72.7548 48.2046 73.2101C48.8307 73.8466 49.4575 74.4839 50.1159 75.0792C50.5888 74.6617 51.0451 74.1942 51.5015 73.7267C51.8062 73.4145 52.111 73.1023 52.4207 72.8049C53.6181 71.6154 54.8155 70.418 56.0129 69.2207C57.1981 68.0355 58.3833 66.8503 59.5683 65.6728C59.6275 65.6029 59.6942 65.5405 59.7605 65.4784C59.8851 65.3619 60.0084 65.2465 60.0788 65.0849C56.7681 61.8206 53.4882 58.5253 50.2084 55.23L50.0695 55.1681C47.8927 57.3552 45.709 59.5354 43.5277 61.7133Z" fill="black"/>
</svg>
