<svg width="100" height="100" viewBox="0 0 100 100" fill="none" xmlns="http://www.w3.org/2000/svg">
<path fill-rule="evenodd" clip-rule="evenodd" d="M40.6575 39.3752V35.4748C39.3038 35.2831 37.9388 35.1835 36.5715 35.1771C19.8522 35.1771 6.25 48.7816 6.25 65.501C6.25 75.7571 11.3757 84.8358 19.1949 90.3258C13.9593 84.7266 11.0486 77.3462 11.0528 69.6808C11.0528 53.1996 24.2679 39.76 40.6575 39.3752" fill="#00F2EA"/>
<path fill-rule="evenodd" clip-rule="evenodd" d="M41.3721 83.5279C48.8317 83.5279 54.9171 77.5938 55.1942 70.1983L55.2194 4.17983H67.2802C67.0227 2.80142 66.8925 1.40226 66.8908 0H50.419L50.3915 66.0208C50.1167 73.414 44.029 79.3458 36.5717 79.3458C34.3327 79.3467 32.1275 78.8012 30.1473 77.7565C31.4258 79.5402 33.1108 80.9942 35.0627 81.9977C37.0146 83.0015 39.1773 83.5258 41.3721 83.5279V83.5279ZM89.8102 26.5883V22.9192C85.3777 22.9233 81.0404 21.634 77.3302 19.2089C80.5831 22.9544 84.9629 25.5435 89.8125 26.5883" fill="#00F2EA"/>
<path fill-rule="evenodd" clip-rule="evenodd" d="M77.3292 19.2065C73.6931 15.046 71.6904 9.7074 71.6927 4.18195H67.2794C67.8508 7.23599 69.036 10.1423 70.7635 12.7248C72.491 15.3073 74.7246 17.5124 77.3292 19.2065V19.2065ZM36.5706 51.6511C32.8994 51.6555 29.3798 53.1157 26.7838 55.7117C24.1879 58.3075 22.7277 61.8271 22.7233 65.4984C22.7258 68.0238 23.4183 70.5007 24.7263 72.6611C26.0342 74.8213 27.9075 76.5832 30.144 77.7563C28.441 75.408 27.5242 72.5813 27.524 69.6807C27.5275 66.009 28.9875 62.4888 31.5835 59.8923C34.1796 57.2959 37.6996 55.8352 41.3713 55.8311C42.7981 55.8311 44.1654 56.0669 45.4571 56.4723V39.6544C44.1035 39.4627 42.7383 39.3632 41.3713 39.3567C41.1306 39.3567 40.8948 39.3705 40.6567 39.375V52.2925C39.3352 51.8719 37.9573 51.6557 36.5706 51.6511" fill="#FF004F"/>
<path fill-rule="evenodd" clip-rule="evenodd" d="M89.8108 26.5881V39.391C81.2679 39.391 73.3548 36.6587 66.8915 32.0208V65.4985C66.8915 82.2177 53.2917 95.82 36.5723 95.82C30.1113 95.82 24.1198 93.7816 19.1956 90.3233C22.0267 93.3762 25.4577 95.8116 29.274 97.4769C33.0902 99.1419 37.2092 100.001 41.3727 99.9998C58.0921 99.9998 71.6944 86.3977 71.6944 69.6806V36.2029C78.3713 41.0041 86.3896 43.5827 94.6135 43.5731V27.0966C92.9646 27.0966 91.3613 26.9179 89.8108 26.5858" fill="#FF004F"/>
<path fill-rule="evenodd" clip-rule="evenodd" d="M66.8915 65.4984V32.0209C73.5681 36.8225 81.5867 39.4011 89.8108 39.3911V26.5882C84.9619 25.5423 80.5827 22.9523 77.3308 19.2065C74.7263 17.5124 72.4925 15.3073 70.765 12.7248C69.0377 10.1423 67.8523 7.23599 67.2808 4.18195H55.22L55.1948 70.2005C54.9177 77.5936 48.8323 83.5279 41.3727 83.5279C39.1779 83.5257 37.0152 83.0009 35.0633 81.9973C33.1117 80.9938 31.4267 79.54 30.1479 77.7563C27.911 76.5836 26.0371 74.8219 24.7288 72.6615C23.4204 70.5011 22.7275 68.0242 22.725 65.4984C22.7292 61.8271 24.1894 58.3075 26.7854 55.7117C29.3813 53.1157 32.901 51.6554 36.5723 51.6511C37.9969 51.6511 39.3642 51.8848 40.6581 52.2925V39.375C24.2685 39.7598 11.0535 53.1994 11.0535 69.6807C11.0535 77.6509 14.15 84.9067 19.1956 90.3255C24.2821 93.9063 30.3519 95.8254 36.5723 95.82C53.2917 95.82 66.8915 82.2177 66.8915 65.4984" fill="white"/>
</svg>
