<svg width="100" height="100" viewBox="0 0 100 100" fill="none" xmlns="http://www.w3.org/2000/svg">
<path d="M45 80.0807H52.2581V44.2742L45 41.8549V80.0807Z" fill="white"/>
<path d="M66.2903 28.4677C66.2096 33.3064 64.6774 35.8064 61.4516 35.8064C58.1451 35.8064 54.758 34.0322 50.2419 31.8548C44.1129 28.9516 41.2097 28.1451 37.4193 28.1451C31.2097 28.1451 26.3709 33.3064 26.6935 42.1774H32.0967C32.1774 36.5322 34.1935 34.0322 37.4193 34.0322C40.6451 34.0322 44.0322 35.7258 48.2258 37.8226C54.4355 40.6451 57.6613 41.9355 61.2903 41.9355C66.8548 41.9355 72.0161 38.9516 71.6129 28.4677H66.2903Z" fill="white"/>
<path fill-rule="evenodd" clip-rule="evenodd" d="M0 49.9194C0 22.4194 22.4194 0 49.9194 0C77.5 0 99.8387 22.4194 99.8387 49.9194C99.8387 77.4194 77.4194 99.8387 49.9194 99.8387C22.4194 99.8387 0 77.4194 0 49.9194ZM3.22581 49.9194C3.22581 75.7258 24.1935 96.6129 49.9194 96.6129C75.6452 96.6129 96.6129 75.6452 96.6129 49.9194C96.6129 24.1935 75.6452 3.22581 49.9194 3.22581C24.1935 3.22581 3.22581 24.1129 3.22581 49.9194Z" fill="white"/>
</svg>
