<svg width="100" height="100" viewBox="0 0 100 100" fill="none" xmlns="http://www.w3.org/2000/svg">
<path d="M50 100C77.6142 100 100 77.6142 100 50C100 22.3858 77.6142 0 50 0C22.3858 0 0 22.3858 0 50C0 77.6142 22.3858 100 50 100Z" fill="white"/>
<path d="M39.0856 43.9561C51.2346 39.8434 53.3025 29.1303 51.7515 19.2803C51.7515 18.9249 52.0617 18.671 52.3719 18.7726C64.0039 24.3576 77.0834 36.5432 77.0834 54.8215C77.0834 68.8349 66.0201 81.2236 49.9421 81.2236C38.1403 81.7506 27.4765 74.3522 24.0381 63.2516C20.5998 52.1511 25.262 40.1737 35.3634 34.1568C35.6736 33.9537 36.0872 34.1568 36.0872 34.5122C36.2423 36.3909 36.7593 41.1128 38.8789 43.9561H39.0856Z" fill="url(#paint0_linear_147648_1207)"/>
<defs>
<linearGradient id="paint0_linear_147648_1207" x1="60.2993" y1="-24.3838" x2="-21.4713" y2="26.9593" gradientUnits="userSpaceOnUse">
<stop stop-color="#FF7854"/>
<stop offset="1" stop-color="#FD267D"/>
</linearGradient>
</defs>
</svg>
