<svg width="101" height="100" viewBox="0 0 101 100" fill="none" xmlns="http://www.w3.org/2000/svg">
<g clip-path="url(#clip0_755_15772)">
<path fill-rule="evenodd" clip-rule="evenodd" d="M8.44262 52.9882H12.4182L14.8646 38.5132H10.8891L8.44262 52.9882ZM13.2337 36.6783C14.4569 36.6783 15.5782 35.7609 15.6801 34.6396C15.7821 33.5183 14.9666 32.6008 13.7433 32.6008C12.5201 32.6008 11.5007 33.5183 11.2969 34.6396C11.1949 35.7609 12.1123 36.6783 13.2337 36.6783ZM9.97168 38.5132H7.21938L7.831 35.0473H3.75353L3.24385 38.5132H1.30705L0.797363 41.5713H2.73416L1.51092 49.1146C1.00124 51.8669 2.63223 53.294 5.58839 53.1921C6.60776 53.1921 7.42326 52.9882 7.831 52.7843L7.72907 49.8281H7.62713L6.7097 49.9301C5.8942 49.9301 5.38452 49.6243 5.58839 48.503L6.7097 41.5713H9.46199L9.97168 38.5132ZM22.6118 41.6732C20.9809 41.6732 19.6557 42.7945 19.3499 44.6294L17.9227 52.9882H13.9472L16.3937 38.5132H20.1654L19.7576 41.0616H19.9615C20.8789 39.4306 22.6118 38.3093 24.7525 38.3093C27.7087 38.3093 29.4416 40.45 28.83 43.8139L27.3009 52.9882H23.3254L24.7525 44.5274C24.9564 42.6926 24.2428 41.6732 22.6118 41.6732ZM35.7617 54.5172C35.252 55.6385 34.5384 56.556 33.7229 57.1676H73.2744L76.3325 38.5132H80.3081L79.9003 40.9596H80.1042C80.8178 39.7364 82.2449 38.3093 84.6914 38.3093C87.8514 38.3093 90.094 40.8577 89.2785 45.7507C88.463 50.6436 85.5068 53.1921 82.1429 53.1921C79.7984 53.1921 78.881 51.8669 78.4732 50.6436H78.3713L77.25 57.1676H93.9676L89.5843 52.7843L92.1327 50.2359L100.593 58.6966L100.492 58.9005L100.593 59.0025L92.1327 67.4632L89.5843 64.9148L93.7637 60.7354H0.8993V57.1676H27.7087L28.728 54.925C30.0532 55.4347 30.9707 55.3327 31.7862 54.0076L32.1939 53.3959L29.4416 38.5132H33.5191L34.7423 49.2165H34.8443L39.6353 38.5132H44.1205L35.7617 54.5172ZM50.6445 41.6732C49.0135 41.6732 47.6883 42.7945 47.3825 44.6294L46.0573 52.9882H41.9798L45.2418 33.7221H49.1154L47.8922 41.0616H48.096C49.0135 39.3287 50.6445 38.3093 52.8871 38.3093C55.8432 38.3093 57.4742 40.348 56.9645 43.8139L55.4355 52.9882H51.358L52.7851 44.5274C53.0909 42.6926 52.2754 41.6732 50.6445 41.6732ZM66.7505 38.5132H64.2021L64.7117 35.0473H60.7362L60.1246 38.5132H58.1878L57.6781 41.5713H59.7168L58.3917 49.1146C57.882 51.8669 59.6149 53.294 62.5711 53.1921C63.5904 53.1921 64.4059 52.9882 64.8137 52.7843L64.7117 49.8281H64.6098L63.6924 49.9301C62.8769 49.9301 62.3672 49.6243 62.4691 48.503L63.6924 41.5713H68.2795L67.0563 49.1146C66.5466 51.8669 68.1776 53.294 71.1338 53.1921C72.1531 53.1921 72.9686 52.9882 73.3764 52.7843L73.2744 49.8281H73.1725L72.2551 49.9301C71.4396 49.9301 70.9299 49.6243 71.1338 48.503L72.2551 41.5713H75.0074L75.517 38.5132H72.7647L73.3764 35.0473H69.2989L68.7892 38.5132H66.7505ZM79.0848 45.7507C79.4926 43.2023 80.9197 41.5713 82.8565 41.5713C84.7933 41.5713 85.6088 43.3042 85.201 45.7507C84.6914 48.2991 83.3662 50.032 81.4294 50.032C79.4926 50.032 78.6771 48.2991 79.0848 45.7507Z" fill="url(#paint0_linear_755_15772)"/>
</g>
<defs>
<linearGradient id="paint0_linear_755_15772" x1="50.6852" y1="32.5906" x2="50.6852" y2="67.4836" gradientUnits="userSpaceOnUse">
<stop stop-color="#C75975"/>
<stop offset="1" stop-color="#9A84CD"/>
</linearGradient>
<clipPath id="clip0_755_15772">
<rect width="100" height="35.0663" fill="white" transform="translate(0.695435 32.4989)"/>
</clipPath>
</defs>
</svg>
