<svg width="100" height="100" viewBox="0 0 100 100" fill="none" xmlns="http://www.w3.org/2000/svg">
<path d="M0 50C0 22.3858 22.3858 0 50 0C77.6142 0 100 22.3858 100 50C100 77.6142 77.6142 100 50 100C22.3858 100 0 77.6142 0 50Z" fill="white"/>
<path d="M54.0232 20.3621L52.0882 27.8536C54.8292 22.5624 59.1826 18.581 64.1814 15.0706C60.5266 19.2093 57.1944 23.3485 55.1519 27.4872C58.5919 22.7719 63.2141 20.1526 68.4274 18.4237C61.4939 24.4487 55.9904 30.9137 51.798 37.4102L48.4659 35.9958C49.0566 30.809 51.0669 25.4967 54.0232 20.3621V20.3621Z" fill="#ABCD03"/>
<path d="M45.1244 34.6184L51.4668 37.1832C51.4668 38.7552 51.3357 43.55 52.3442 44.9643C62.8923 58.2062 61.1177 84.7497 50.2074 85.4306C33.5932 85.4306 27.257 74.4291 27.257 64.3175C27.257 55.0967 38.5974 48.967 45.3699 43.5186C47.0897 42.0517 46.7911 38.8097 45.1244 34.6184V34.6184Z" fill="#FFFCDB"/>
<path d="M51.4687 37.0909L53.7544 38.2275C53.5396 39.694 53.8619 42.9428 55.3664 43.7806C62.0315 47.8147 68.3196 52.2154 70.7922 56.6162C79.6068 72.124 64.6112 86.4787 51.658 85.1165C58.6989 80.0344 60.7414 69.6091 58.1078 58.24C57.0331 53.7867 55.3664 49.7527 52.4101 45.1946C51.1294 42.9572 51.5765 40.1825 51.4687 37.0909Z" fill="#7D4698"/>
<path d="M50.3684 36.708L55.098 37.3368C53.7005 41.8423 57.8394 44.9856 59.183 45.7194C62.1928 47.3436 65.0952 49.02 67.4065 51.0631C71.7603 54.9399 74.2326 60.3886 74.2326 66.1516C74.2326 71.862 71.5451 77.363 67.0303 81.0303C62.7843 84.4881 56.926 85.9551 51.2286 85.9551C47.6812 85.9551 44.51 85.7982 41.0704 84.6976C33.2235 82.1305 27.3648 75.5819 26.8811 67.7229C26.451 61.5932 27.8485 56.9304 32.7399 52.0582C35.2656 49.4911 40.3719 46.5572 43.8658 44.1996C45.586 43.0468 47.4132 39.7984 43.9193 33.6691L44.6183 33.1451L49.796 36.5255L45.4246 34.7693C45.8009 35.2933 46.8221 37.651 47.0374 38.3319C47.5211 40.2702 47.3062 42.1568 46.876 42.9946C44.6726 46.8718 40.9103 47.9194 38.1692 50.1198C33.3318 53.9966 28.0645 57.0877 28.6556 67.7229C28.9244 72.9618 33.1169 79.3535 39.405 82.3399C42.9524 84.0167 47.0374 84.6976 51.1759 84.907C54.8843 85.0643 61.9791 82.9161 65.8489 79.7728C69.9874 76.4201 72.2987 71.338 72.2987 66.1516C72.2987 60.9123 70.1488 55.9353 66.1177 52.4249C63.8064 50.3818 59.9906 47.9194 57.6257 46.6094C55.2609 45.2997 52.3046 41.6324 53.2719 38.1224L50.3684 36.708Z" fill="black"/>
<path d="M48.9174 44.4619C48.4337 46.8721 47.8961 51.2203 45.7462 52.8445C44.8324 53.4729 43.9186 54.102 42.9512 54.7304C39.0815 57.2979 35.2113 59.7073 33.438 65.8896C33.0618 67.1996 33.3845 68.614 33.7072 69.9236C34.6746 73.6956 37.4156 77.7822 39.5655 80.1924C39.5655 80.2972 39.9957 80.5592 39.9957 80.6639C41.7694 82.7074 42.307 83.2836 49.0252 84.7501L48.8638 85.484C44.8328 84.4363 41.5006 83.4934 39.4042 81.1354C39.4042 81.0832 39.028 80.7161 39.028 80.7161C36.7706 78.2011 34.0291 74.0102 33.0083 70.0809C32.632 68.5089 32.3097 67.3043 32.7395 65.6797C34.5667 59.2884 38.5443 56.7735 42.5754 54.1016C43.4892 53.5255 44.564 53.0011 45.4239 52.3202C47.0897 51.1156 48.0032 47.4479 48.9174 44.4619V44.4619Z" fill="black"/>
<path d="M50.6361 54.4157C50.69 57.1401 50.4172 58.5068 51.1157 60.4456C51.5454 61.5979 52.9976 63.1698 53.4278 64.6893C54.0189 66.7327 54.6627 68.9853 54.6084 70.3475C54.6084 71.9195 54.5076 74.852 53.809 77.9957C53.2763 80.5932 52.0486 82.8221 49.9843 84.0855C47.8696 83.6611 45.3868 82.9365 43.9212 81.7119C41.0727 79.3021 38.5498 75.2725 38.2271 71.7621C37.9587 68.8808 40.6957 64.6313 44.5115 62.4835C47.7362 60.6498 48.4863 58.56 49.1849 55.2069C48.2175 58.1408 47.309 60.6002 44.1917 62.1718C39.677 64.4769 37.3604 68.3465 37.5753 72.0138C37.8976 76.7287 39.8348 79.9236 43.6506 82.4911C45.263 83.5913 48.2753 84.7539 50.1564 85.0685V84.8287C51.583 84.5683 53.43 82.2844 54.3501 79.1945C55.1565 76.4179 55.4744 72.8642 55.4201 70.6112C55.3662 69.3016 54.7735 66.4652 53.6983 63.8981C53.1072 62.4837 52.1991 61.0694 51.6076 60.0739C50.9634 59.0777 50.9588 56.9303 50.6361 54.4157Z" fill="black"/>
<path d="M50.3163 64.6893C50.3698 66.5229 51.1254 68.8724 51.4478 71.2826C51.7169 73.0641 51.6001 74.8533 51.5461 76.4253C51.493 78.2449 50.8711 81.5052 50.0212 83.0906C49.2196 82.7322 48.9063 82.3236 48.3855 81.664C47.7408 80.7733 47.3029 79.8825 46.8728 78.8349C46.5505 78.0489 46.1736 77.1493 46.0119 76.1017C45.797 74.53 45.8572 72.0713 47.6845 69.5563C49.082 67.5654 49.4022 67.414 49.8859 65.1089C49.2405 67.152 48.7593 67.3603 47.254 69.0888C45.5882 70.975 45.3109 73.7532 45.3109 76.0058C45.3109 76.9491 45.6968 77.9956 46.0734 78.9907C46.5031 80.0387 46.872 81.0822 47.4631 81.8678C48.3517 83.1417 49.4891 83.8661 50.0457 84.0016C50.0493 84.0024 50.0544 84.0009 50.058 84.0016C50.0699 84.0043 50.0836 84.0114 50.0949 84.0136V83.9537C51.1377 82.8203 51.7653 81.6944 51.9765 80.5611C52.2453 79.1989 52.3071 77.8337 52.4685 76.2095C52.6294 74.8473 52.5126 73.0125 52.1364 71.1267C51.5992 68.7691 50.6925 66.3653 50.3163 64.6893L50.3163 64.6893Z" fill="black"/>
<path d="M50.4758 42.2615C50.5297 44.9855 50.7446 50.068 51.4971 52.0585C51.7119 52.7394 53.7005 55.7258 55.0976 59.3406C56.0653 61.8555 56.2802 64.1606 56.4416 64.8416C57.0866 67.828 56.2802 72.8575 55.205 77.625C54.6679 80.1921 52.8402 83.3879 50.7442 84.6454L50.3145 85.3789C51.4971 85.3263 54.3991 82.5497 55.4203 79.0919C57.1405 73.2242 57.839 70.4998 57.0331 64.0034C56.9256 63.3742 56.6568 61.2268 55.6356 58.9213C54.1307 55.4109 51.9807 52.0582 51.7123 51.3769C51.2283 50.2771 50.5832 45.5096 50.4758 42.2615V42.2615Z" fill="black"/>
<path d="M51.4843 38.5356C51.3248 41.3353 51.2822 42.3663 51.8194 44.4094C52.4105 46.6623 55.4207 49.9103 56.6568 53.6302C59.0216 60.7554 58.4305 70.0809 56.7104 77.363C56.0657 79.9297 53.0016 83.6499 49.9382 84.8545L52.1956 85.3785C53.4317 85.3259 56.6025 82.4446 57.839 79.1441C59.8272 73.9573 60.2039 67.7754 59.3975 61.279C59.3436 60.6502 58.2684 55.0446 57.2475 52.6869C55.7961 49.1769 53.2161 46.0332 52.9477 45.3527C52.4644 44.1999 51.4024 41.8067 51.4843 38.5356Z" fill="black"/>
<rect x="49.7755" y="36.5654" width="1.66667" height="48.342" fill="black"/>
</svg>
