<svg width="100" height="100" viewBox="0 0 100 100" fill="none" xmlns="http://www.w3.org/2000/svg">
<path d="M0 50C0 22.3858 22.3858 0 50 0C77.6142 0 100 22.3858 100 50C100 77.6142 77.6142 100 50 100C22.3858 100 0 77.6142 0 50Z" fill="#5FCF80"/>
<path d="M75.0234 34.5437C74.2954 34.1797 72.6573 33.4517 70.8372 32.3596C68.8351 31.2676 65.741 33.0876 63.7389 36.1818L60.2808 42.006C59.0068 44.5541 59.1888 47.2842 60.8268 49.6503L61.0088 49.8323C62.6469 52.1984 64.831 54.2005 65.377 54.9285C65.741 55.2925 66.105 56.0206 66.287 56.5666C66.8331 58.7507 65.741 60.7528 63.5569 61.2988C61.5549 61.8448 59.3708 60.5707 58.6427 58.5687C58.4607 58.0226 58.4607 57.4766 58.4607 56.9306C58.6427 56.0206 58.2787 54.5645 57.0047 53.4725C55.7306 52.0164 53.1825 54.7465 52.4545 57.2946V57.4766C51.7265 60.2067 51.1804 62.3908 51.3624 62.5728C51.3624 62.7548 51.5445 62.9368 51.5445 62.9368C52.6365 65.1209 51.9085 67.669 49.7244 68.7611C47.5403 69.8531 44.8102 69.1251 43.7181 66.941C42.6261 64.7569 43.3541 62.2088 45.5382 61.1168C45.7202 61.1168 45.7202 60.9348 45.9022 60.9348C46.0842 60.9348 46.4483 59.6607 46.9943 58.3867C47.3583 57.1126 47.7223 56.0206 47.7223 56.0206C47.7223 55.8386 47.7223 55.6565 47.9043 55.6565L50.0884 48.0122L47.9043 52.5624C47.5403 51.6524 47.1763 51.6524 46.0842 52.3804C45.5382 52.7444 44.4462 53.6545 44.0822 54.0185C43.1721 54.7465 42.4441 56.0206 42.0801 56.7486C41.8981 57.2946 41.5341 57.6586 41.17 58.0226C39.532 59.4787 36.9839 59.1147 35.7098 57.4766C34.4358 55.8386 34.7998 53.6545 36.4379 52.3804C36.9839 52.0164 37.5299 51.6524 38.0759 51.6524C38.986 51.4704 42.4441 49.2863 44.4462 48.0122C44.8102 47.8302 45.1742 47.4662 45.3562 47.2842L50.6344 43.4621L45.9022 46.0102H44.8102C43.3541 46.1922 41.5341 46.3742 41.17 46.9202C40.988 47.1022 40.806 47.4662 40.442 47.6482C38.986 48.3763 36.8019 48.0122 35.5278 46.5562C34.4358 44.9181 34.7998 42.916 36.2558 41.824C37.1659 41.278 37.8939 41.096 38.6219 41.096C39.896 41.096 43.1721 41.824 45.9022 41.278L46.6303 41.096C49.3604 40.5499 52.6365 38.3659 53.9105 35.8178C53.9105 35.8178 55.1846 33.4517 56.8227 30.9036C58.4607 28.1734 58.2787 25.2613 56.6407 24.1693L53.5465 22.3492C51.9085 21.4392 49.3604 21.4392 47.7223 22.3492L26.2454 34.1797C24.6074 35.0897 23.3333 37.4558 23.3333 39.2759V62.5728C23.3333 64.3929 24.6074 66.395 26.2454 67.305L47.9043 79.3175C49.5424 80.2275 52.0905 80.2275 53.7285 79.3175L75.0234 67.123C76.6615 66.213 77.9355 64.2109 77.9355 62.3908V39.2759C77.9355 37.4558 76.6615 35.4537 75.0234 34.5437V34.5437V34.5437Z" fill="white"/>
</svg>
