<svg width="100" height="100" viewBox="0 0 100 100" fill="none" xmlns="http://www.w3.org/2000/svg">
<path d="M50 100C77.6142 100 100 77.6142 100 50C100 22.3858 77.6142 0 50 0C22.3858 0 0 22.3858 0 50C0 77.6142 22.3858 100 50 100Z" fill="url(#paint0_linear_147648_1232)"/>
<path fill-rule="evenodd" clip-rule="evenodd" d="M20 30.0089C20 24.4811 24.4607 20 30.0089 20H69.9911C75.5189 20 80 24.4607 80 30.0089V69.9911C80 75.5189 75.5393 80 69.9911 80H30.0089C24.4811 80 20 75.5393 20 69.9911V30.0089ZM53.9 31.4018V50.4482C53.9 52.4376 55.5114 54.05 57.4991 54.05H68.6009C70.588 54.05 72.2 52.4374 72.2 50.4482V31.4018C72.2 29.4124 70.5886 27.8 68.6009 27.8H57.4991C55.512 27.8 53.9 29.4126 53.9 31.4018ZM27.8 65.4525V31.3975C27.8 29.4107 29.412 27.8 31.3991 27.8H42.5009C44.4886 27.8 46.1 29.4107 46.1 31.3975V65.4525C46.1 67.4394 44.488 69.05 42.5009 69.05H31.3991C29.4114 69.05 27.8 67.4393 27.8 65.4525Z" fill="white"/>
<defs>
<linearGradient id="paint0_linear_147648_1232" x1="0" y1="0" x2="0" y2="100" gradientUnits="userSpaceOnUse">
<stop stop-color="#0091E6"/>
<stop offset="1" stop-color="#0079BF"/>
</linearGradient>
</defs>
</svg>
