<svg width="100" height="100" viewBox="0 0 100 100" fill="none" xmlns="http://www.w3.org/2000/svg">
<path d="M0 50C0 22.3858 22.3858 0 50 0C77.6142 0 100 22.3858 100 50C100 77.6142 77.6142 100 50 100C22.3858 100 0 77.6142 0 50Z" fill="white"/>
<path d="M51.8422 57.4376C54.3867 64.4323 62.0533 68.0109 68.9489 65.4358C75.84 62.8426 79.3756 55.07 76.8222 48.073C74.2756 41.067 66.62 37.493 59.7156 40.0771C52.8156 42.6658 49.2933 50.4362 51.8422 57.4376V57.4376Z" fill="white"/>
<path d="M34.8156 66.2137C42.1695 66.2137 48.1311 60.1645 48.1311 52.7024C48.1311 45.2402 42.1695 39.191 34.8156 39.191C27.4616 39.191 21.5 45.2402 21.5 52.7024C21.5 60.1645 27.4616 66.2137 34.8156 66.2137Z" fill="white"/>
<path d="M37.0844 52.5603C37.0844 53.938 35.9822 55.0655 34.6244 55.0655C33.2622 55.0655 32.1622 53.938 32.1622 52.5603C32.1622 51.1848 33.2622 50.0709 34.6244 50.0709C35.9822 50.0686 37.0844 51.1848 37.0844 52.5603V52.5603Z" fill="#BE3538"/>
<path d="M66.76 52.5603C66.76 53.938 65.6622 55.0655 64.3044 55.0655C62.9378 55.0655 61.8422 53.938 61.8422 52.5603C61.8422 51.1848 62.9378 50.0709 64.3044 50.0709C65.6622 50.0686 66.76 51.1848 66.76 52.5603V52.5603Z" fill="#589442"/>
<path fill-rule="evenodd" clip-rule="evenodd" d="M34.6289 59.9834C30.5933 59.9834 27.3089 56.6575 27.3089 52.5603C27.3089 48.4722 30.5933 45.1484 34.6289 45.1462C38.6533 45.1462 41.9378 48.4744 41.9378 52.5603C41.9378 56.6575 38.6556 59.9834 34.6289 59.9834ZM34.6333 47.701C31.9889 47.701 29.8311 49.8815 29.8311 52.5603C29.8311 55.2504 31.9889 57.4331 34.6333 57.4309C37.2733 57.4309 39.42 55.2481 39.42 52.5603C39.42 49.8837 37.2733 47.701 34.6333 47.701Z" fill="black"/>
<path fill-rule="evenodd" clip-rule="evenodd" d="M64.3022 59.9834C60.2667 59.9834 56.9867 56.6575 56.9867 52.5603C56.9867 48.4722 60.2689 45.1484 64.3022 45.1462C68.3311 45.1462 71.6089 48.4744 71.6089 52.5603C71.6089 56.6575 68.3311 59.9834 64.3022 59.9834ZM64.3067 47.701C61.66 47.701 59.5089 49.8815 59.5089 52.5603C59.5089 55.2504 61.6578 57.4331 64.3067 57.4309C66.9467 57.4309 69.0911 55.2481 69.0911 52.5603C69.0911 49.8837 66.9467 47.701 64.3067 47.701Z" fill="black"/>
<path d="M59.2022 38.6543C60.7444 38.077 62.3222 37.7974 63.88 37.7546C59.6356 35.8244 54.8311 34.848 49.5089 34.848C44.2267 34.848 39.3533 35.8492 35.1111 37.6869C42.7889 37.8425 49.0311 43.9443 49.5689 51.6335C49.7 49.8679 50.1244 48.1226 50.8756 46.4698C52.5311 42.8168 55.4911 40.0433 59.2022 38.6543V38.6543Z" fill="#FFD881"/>
<path fill-rule="evenodd" clip-rule="evenodd" d="M69.2489 37.7839L79.1356 37.7907C79.1356 37.7907 76.9311 40.81 76.2378 43.8248C77.0511 44.941 77.7311 46.1812 78.2289 47.5499C81.0622 55.3135 77.1289 63.9791 69.4667 66.8564C65.7578 68.2454 61.7289 68.083 58.1333 66.4054C55.9711 65.3862 54.1267 63.8912 52.6978 62.0467L49.52 66.8812L46.3667 62.0895C43.6511 65.5192 39.4889 67.7268 34.82 67.7268C26.6533 67.7268 20.0089 60.9869 20.0089 52.7023C20.0089 49.3854 21.08 46.3277 22.8822 43.8428C22.1778 40.8483 20 37.8628 20 37.8628L29.2667 37.8561C34.78 34.1986 41.7711 32.2256 49.5133 32.2256C56.9733 32.2256 63.7044 34.1513 69.2489 37.7839ZM63.8822 37.7546C59.6378 35.8244 54.8333 34.848 49.5111 34.848C44.2267 34.848 39.3533 35.847 35.1133 37.6847C42.7911 37.8425 49.0333 43.9443 49.5756 51.6313C49.7067 49.8657 50.1311 48.1204 50.8822 46.4675C52.5333 42.8169 55.4933 40.0433 59.2044 38.6543C60.7467 38.0793 62.3222 37.7974 63.8822 37.7546ZM44.6044 59.4174C42.4778 62.5991 38.8822 64.6962 34.8156 64.6962C28.2956 64.6962 22.9911 59.3092 22.9911 52.7046C22.9911 46.0865 28.2978 40.7085 34.8156 40.7085C41.3333 40.7085 46.6378 46.0865 46.6378 52.7046C46.6378 52.9769 46.6024 53.2389 46.5671 53.5003C46.55 53.6265 46.533 53.7525 46.52 53.8794C46.3222 55.9088 45.68 57.8097 44.6044 59.4174ZM59.3844 63.6522C62.2533 64.9961 65.4667 65.1201 68.4289 64.0129C74.5444 61.7129 77.6844 54.8062 75.4267 48.6029C73.1667 42.3975 66.3578 39.2135 60.24 41.5023C57.2778 42.6117 54.9178 44.8282 53.5933 47.7393C52.7089 49.6875 52.4111 51.7959 52.6089 53.8772C52.7067 54.9031 52.8867 55.9224 53.2467 56.91C53.5622 57.7826 53.9933 58.5831 54.4822 59.3363C55.6822 61.1966 57.3489 62.6961 59.3844 63.6522Z" fill="black"/>
</svg>
