<svg width="100" height="100" viewBox="0 0 100 100" fill="none" xmlns="http://www.w3.org/2000/svg">
<rect x="0.09375" y="0.0649414" width="99.8125" height="99.6109" rx="49.8054" fill="#314358"/>
<path d="M65.6562 66.505C64.4965 67.056 62.2785 67.5354 60.6246 67.5766C55.6312 67.7097 54.6621 64.0829 54.6219 61.4537V42.1132H67.1473V32.7062H54.6652V16.8801C54.6652 16.8801 45.6777 16.8801 45.5312 16.8801C45.3809 16.8801 45.1184 17.0113 45.0812 17.3439C44.5469 22.1875 42.2719 30.6887 32.8094 34.0879V42.1128H39.1219V62.4113C39.1219 69.3618 44.2687 79.2362 57.8559 79.0031C62.4402 78.9249 67.5316 77.0136 68.6559 75.3634L65.6562 66.505" fill="white"/>
</svg>
