<svg width="100" height="101" viewBox="0 0 100 101" fill="none" xmlns="http://www.w3.org/2000/svg">
<path d="M50.1107 0C47.7669 0 45.4153 0.460937 43.2903 1.60937C41.0325 2.82422 39.181 4.76953 38.0442 7.06641C36.9036 9.36328 36.4583 11.8164 36.388 14.5195C36.2591 19.6523 36.5052 25.0352 36.8919 29.9141C36.9935 31.3984 37.181 32.2656 36.9896 33.793C36.3568 37.0352 33.5208 39.2148 32.0052 42.0625C30.3372 45.2031 29.6341 48.7539 28.3763 52.082C27.2239 55.125 25.6068 57.9805 24.5169 61.0469C22.9896 65.332 22.5325 70.043 23.5403 74.4805C24.3099 77.8633 25.9153 81.0351 28.0794 83.75C27.7669 84.3125 27.4622 84.8867 27.1419 85.4453C26.138 87.1758 24.9114 88.8203 24.3411 90.7383C24.056 91.6953 23.9427 92.7187 24.1263 93.7031C24.3099 94.6875 24.8099 95.6289 25.5911 96.2539C26.1028 96.6602 26.7239 96.9258 27.3607 97.0742C27.9974 97.2187 28.6575 97.2539 29.3138 97.2422C31.8021 97.1875 34.2161 96.4336 36.6224 95.8008C38.0521 95.4258 39.4896 95.0937 40.931 94.793C46.0638 93.7422 51.7903 94.1641 56.5521 94.8516C58.1653 95.0977 59.7669 95.4141 61.3528 95.8008C63.8372 96.4023 66.3099 97.168 68.8646 97.2422C69.5364 97.2617 70.2161 97.2305 70.8724 97.0859C71.5286 96.9375 72.1653 96.6719 72.6888 96.2539C73.4739 95.6289 73.9739 94.6836 74.1575 93.6992C74.3411 92.7148 74.2278 91.6875 73.9388 90.7266C73.3606 88.8047 72.1224 87.168 71.0989 85.4453C70.6927 84.7617 70.3177 84.0664 69.9153 83.3828C73.0013 79.918 75.4856 75.9101 76.9231 71.5078C78.4896 66.7031 78.7786 61.5273 78.1185 56.5156C77.4583 51.5039 75.8685 46.6445 73.7786 42.043C71.1536 36.2773 68.9466 34.1914 67.345 29.125C65.6185 23.6484 67.0442 17.168 65.7591 12.2031C65.3021 10.5156 64.5716 8.90234 63.6302 7.42578C62.5286 5.69531 61.1302 4.14844 59.47 2.94531C56.8216 1.02344 53.4935 0 50.1107 0V0Z" fill="#020204"/>
<path d="M40.806 28.9062C40.4544 29.3476 40.2278 29.8789 40.0872 30.4258C39.9505 30.9726 39.8997 31.539 39.8763 32.1055C39.8333 33.2344 39.9036 34.3828 39.6028 35.4726C39.2825 36.6367 38.5677 37.6484 37.8685 38.6289C36.6536 40.332 35.4271 42.082 34.8294 44.0859C34.4661 45.2969 34.345 46.582 34.4739 47.8437C33.1185 49.8359 31.9427 51.957 30.9661 54.164C29.4896 57.5117 28.4778 61.0742 28.1224 64.7148C27.6849 69.1719 28.2552 73.7578 30.0169 77.875C31.2864 80.8554 33.1849 83.5781 35.6341 85.7031C36.8763 86.7812 38.2591 87.6992 39.7356 88.4258C44.8567 90.9453 51.1849 90.9492 56.22 88.2656C58.8528 86.8633 61.0755 84.8125 63.2161 82.7383C64.5052 81.4883 65.7903 80.207 66.7747 78.707C68.6692 75.8125 69.3294 72.2969 69.7396 68.8633C70.4544 62.8633 70.4778 56.5195 67.845 51.0781C66.9388 49.2031 65.7317 47.4765 64.2825 45.9805C63.8997 43.3633 63.138 40.7969 62.0325 38.3945C61.2317 36.6562 60.2591 35.0039 59.5169 33.2461C59.2122 32.5234 58.9466 31.7812 58.6107 31.0742C58.2708 30.3672 57.8567 29.6875 57.2864 29.1445C56.7083 28.5898 55.9856 28.1953 55.2239 27.9453C54.4622 27.6914 53.6575 27.5781 52.8567 27.539C51.2513 27.457 49.6458 27.668 48.0403 27.6016C46.763 27.5508 45.4896 27.3281 44.2122 27.4023C43.5755 27.4414 42.9388 27.5547 42.345 27.7969C41.7513 28.0351 41.2044 28.4062 40.806 28.9062V28.9062Z" fill="#FDFDFB"/>
<g opacity="0.25" filter="url(#filter0_f_147648_571)">
<path d="M35.1575 44.9921C35.4974 45.5038 34.9427 47.2733 42.9153 46.1405C42.9153 46.1405 41.513 46.2928 40.1341 46.6132C37.9896 47.3319 36.1224 48.1327 34.677 49.1952C33.2513 50.2499 32.2044 51.621 30.8958 52.7968C30.8958 52.7968 33.0169 48.9218 33.5442 47.7538C34.0755 46.5858 33.4583 46.6405 33.8763 44.9218C34.2942 43.203 35.3177 41.5507 35.3177 41.5507C35.3177 41.5507 34.4817 43.9803 35.1575 44.9921V44.9921Z" fill="url(#paint0_radial_147648_571)"/>
</g>
<g opacity="0.42" filter="url(#filter1_f_147648_571)">
<path d="M60.7864 44.5273C59.1614 45.6602 58.2083 45.5273 56.2395 45.7461C54.2669 45.9688 48.9348 45.8867 48.9348 45.8867C48.9348 45.8867 49.7044 45.875 51.4192 46.1914C53.1302 46.5117 56.6184 46.8164 58.5833 47.5625C60.552 48.3125 61.2669 48.5273 62.4622 49.2813C64.1614 50.3555 65.4114 52.0391 67.0364 53.2188C67.0364 53.2188 67.1145 51.6563 66.4583 50.4883C65.802 49.3203 64.0364 47.4805 63.5169 45.7617C63.0013 44.043 62.7512 40.668 62.7512 40.668C62.7512 40.668 62.4075 43.3984 60.7864 44.5273V44.5273Z" fill="url(#paint1_radial_147648_571)"/>
</g>
<g opacity="0.2" filter="url(#filter2_f_147648_571)">
<path d="M45.5091 42.1132C45.4466 42.6014 45.3684 43.0897 45.2747 43.5741C45.2278 43.8124 45.1731 44.0507 45.0872 44.2772C44.9973 44.5038 44.8684 44.7225 44.6887 44.8827C44.5286 45.0272 44.3372 45.1249 44.1419 45.2147C43.3841 45.5585 42.5755 45.7889 41.7513 45.8944C42.0794 45.9178 42.4075 45.9491 42.7395 45.9843C42.9466 46.0077 43.1536 46.0311 43.3528 46.0819C43.5559 46.1366 43.7552 46.2147 43.9231 46.3358C44.1067 46.4725 44.2513 46.6561 44.3606 46.8593C44.5755 47.2577 44.6458 47.7186 44.6848 48.1757C44.7356 48.7538 44.7395 49.3397 44.6966 49.9178C44.7356 49.5311 44.8177 49.1444 44.9387 48.7772C45.1614 48.1053 45.513 47.4803 45.9895 46.9608C46.1809 46.7577 46.388 46.5663 46.6145 46.4061C47.3138 45.9139 48.2044 45.6991 49.052 45.8163C48.1887 45.8514 47.3177 45.5819 46.6302 45.0624C46.2786 44.7968 45.9739 44.4686 45.763 44.0858C45.4348 43.4921 45.3411 42.7694 45.5091 42.1132V42.1132Z" fill="url(#paint2_radial_147648_571)"/>
</g>
<g opacity="0.11" filter="url(#filter3_f_147648_571)">
<path d="M43.4309 53.5704C43.0169 55.1447 42.7317 56.754 42.5833 58.379C42.3684 60.672 42.4192 62.9806 42.2942 65.2814C42.1927 67.2306 41.9622 69.2032 42.302 71.129C42.4622 72.047 42.7513 72.9415 43.1614 73.7775C43.2239 73.4572 43.2747 73.1368 43.302 72.8126C43.4466 71.2501 43.1848 69.6837 43.095 68.1212C42.9388 65.379 43.3177 62.6368 43.4739 59.8947C43.5911 57.7892 43.5794 55.6759 43.4309 53.5704V53.5704Z" fill="black"/>
</g>
<g opacity="0.75" filter="url(#filter4_f_147648_571)">
<path d="M70.8646 51.2616C71.2669 51.1991 73.7318 53.2968 73.3958 54.078C73.0599 54.8554 72.4232 54.3866 71.97 54.3905C71.5169 54.3983 70.2786 54.9608 70.0716 54.6054C69.8607 54.2499 70.6185 53.4218 71.013 52.7265C71.3333 52.1679 70.4661 51.3241 70.8646 51.2616V51.2616Z" fill="#7C7C7C"/>
</g>
<g filter="url(#filter5_f_147648_571)">
<path d="M55.8021 4.34384C54.9388 4.95322 55.3138 5.71494 55.6849 6.47666C56.056 7.24228 54.8685 9.4415 54.8567 9.53525C54.845 9.629 57.1927 8.42197 57.8333 7.63291C58.5911 6.70712 60.5013 8.89072 60.3958 8.55869C60.3997 7.96494 56.6653 3.73837 55.8021 4.34384V4.34384Z" fill="#7C7C7C"/>
</g>
<g filter="url(#filter6_f_147648_571)">
<path d="M62.345 29.9336C61.6185 30.5977 62.6888 31.5938 63.1927 32.7618C63.5091 33.4883 64.3802 34.5157 65.2239 34.3516C65.8606 34.2266 66.2513 33.3126 66.1927 32.6719C66.0755 31.4297 65.0286 31.1368 64.2669 30.711C63.6653 30.3751 62.8567 29.4688 62.345 29.9336V29.9336Z" fill="#838384"/>
</g>
<path d="M33.3255 39.418C30.9427 42.1211 28.4935 44.7422 27.1497 47.668C26.4818 49.1523 26.1693 50.7656 25.7122 52.3281C25.1966 54.1016 24.4935 55.8203 23.7044 57.4922C22.974 59.0352 22.1693 60.543 21.3685 62.0469C20.7826 63.1445 20.1888 64.2617 19.9857 65.4883C19.8255 66.457 19.9154 67.457 20.1654 68.4062C20.4115 69.3555 20.806 70.2617 21.2552 71.1328C23.1615 74.8633 26.0247 78.0742 29.4154 80.5352C30.9544 81.6484 32.599 82.6133 34.3294 83.4062C35.2669 83.832 36.2513 84.2148 37.2826 84.2305C37.7982 84.2422 38.3177 84.1562 38.7904 83.9492C39.2591 83.7422 39.681 83.4102 39.9622 82.9766C40.306 82.4453 40.4232 81.7852 40.3529 81.1562C40.2826 80.5273 40.0365 79.9258 39.7083 79.3867C38.9036 78.0664 37.6341 77.1094 36.4115 76.1641C33.7708 74.1211 31.2201 71.9609 28.7747 69.6875C28.0872 69.043 27.3958 68.3828 26.9154 67.5703C26.4466 66.7812 26.1927 65.8828 26.0208 64.9805C25.5482 62.5078 25.6693 59.9062 26.5091 57.5312C26.8411 56.6016 27.2747 55.7148 27.6966 54.8242C28.4232 53.2813 29.1107 51.707 30.0677 50.293C31.2591 48.5313 32.8529 47.0391 33.8216 45.1484C34.6419 43.5508 34.974 41.7578 35.2904 39.9922C35.5404 38.6094 36.013 37.2578 36.2552 35.875C35.7826 36.7734 34.2591 38.2461 33.3255 39.418V39.418Z" fill="#020204"/>
<g opacity="0.95" filter="url(#filter7_f_147648_571)">
<path d="M30.5833 49.2579C29.8021 49.9766 29.1263 50.8087 28.5794 51.7227C27.681 53.2227 27.1537 54.9102 26.4974 56.5313C26.013 57.7384 25.4466 58.9532 25.3802 60.254C25.3451 60.922 25.4427 61.5899 25.4662 62.2579C25.4896 62.9259 25.4271 63.6212 25.099 64.2032C24.8255 64.6915 24.3685 65.0743 23.8412 65.2618C24.556 65.5001 25.1888 65.961 25.638 66.5626C26.013 67.0704 26.2552 67.6602 26.5794 68.1954C26.8451 68.6329 27.1693 69.0391 27.5716 69.3556C27.9701 69.6759 28.4505 69.9024 28.9544 69.9649C29.6537 70.0548 30.3802 69.8243 30.8958 69.3477C30.2474 63.2735 30.8412 57.0743 32.6302 51.2345C32.7435 50.8673 32.8607 50.4962 32.8919 50.1134C32.9193 49.7266 32.8451 49.3204 32.6107 49.0157C32.4896 48.8516 32.3216 48.7227 32.1302 48.6407C31.9427 48.5626 31.7318 48.5313 31.5287 48.5587C31.3255 48.5821 31.1263 48.6602 30.9622 48.7813C30.7982 48.9063 30.6654 49.0704 30.5833 49.2579V49.2579Z" fill="#7C7C7C"/>
</g>
<path d="M71.9115 49.6562C73.9583 51.3047 75.2591 53.793 75.6615 56.3906C75.974 58.4141 75.7708 60.4961 75.3138 62.4922C74.8568 64.4922 74.1536 66.4219 73.4505 68.3516C73.1732 69.1172 72.8919 69.8945 72.7825 70.7031C72.6693 71.5156 72.7396 72.3711 73.1302 73.0898C73.5794 73.9141 74.4154 74.4805 75.3138 74.7461C76.2005 75.0117 77.1575 75.0039 78.056 74.7812C78.9544 74.5586 80.4661 74.2695 81.1966 73.6992C83.0521 72.2578 83.4935 69.7539 83.9349 67.5586C84.3919 65.2656 84.1693 62.8633 83.7669 60.5469C83.2161 57.3867 82.2904 54.3008 81.1146 51.3203C80.2474 49.125 79.138 47.0312 77.8177 45.0859C76.5208 43.1758 74.6849 41.6875 73.3255 39.8203C72.8529 39.1719 72.2864 38.5 71.8255 37.8437C70.8255 36.4297 71.0521 36.6953 70.431 35.7773C69.9818 35.1133 69.2708 34.8867 68.5247 34.5976C67.7747 34.3086 66.9388 34.2226 66.1654 34.4375C65.1497 34.7226 64.3177 35.5273 63.8763 36.4844C63.4349 37.4453 63.3568 38.5469 63.5286 39.5898C63.7513 40.9336 64.3646 42.1836 65.0599 43.3555C65.8411 44.6797 66.7474 45.957 67.931 46.9414C69.1654 47.9687 70.6575 48.6484 71.9115 49.6562V49.6562Z" fill="#020204"/>
<g filter="url(#filter8_f_147648_571)">
<path d="M67.0911 46.4805C67.2552 46.6367 67.4271 46.7969 67.6029 46.9453C68.8607 47.9727 69.5286 49.125 70.806 50.1328C72.8919 51.7812 75.0052 54.625 75.4154 57.2227C75.7357 59.25 75.3138 60.3516 74.7982 62.7383C74.2825 65.1289 72.8216 68.5117 72.0286 70.8164C71.7161 71.7344 72.6693 71.3555 72.5443 72.3242C72.4818 72.8008 72.474 73.2813 72.5325 73.7578C72.5404 73.668 72.5443 73.5703 72.556 73.4805C72.7083 72.1602 73.1107 70.8906 73.5521 69.6445C74.3997 67.25 75.3724 64.8984 76.0443 62.4375C76.7161 59.9805 76.6419 58.2109 76.2904 56.0977C75.849 53.4375 74.3021 50.9844 72.1146 49.3633C70.5638 48.2188 68.7396 47.4844 67.0911 46.4805V46.4805Z" fill="#838384"/>
</g>
<path d="M21.9974 68.4882C22.5365 68.2656 23.1419 68.2226 23.7122 68.3281C24.2865 68.4335 24.8294 68.6835 25.3099 69.0078C26.2747 69.664 26.9896 70.6171 27.6732 71.5624C29.2474 73.7265 30.7591 75.9374 32.1341 78.2343C33.2474 80.1015 34.2669 82.0273 35.556 83.7734C36.3958 84.9179 37.3411 85.9765 38.1849 87.1132C39.0286 88.2538 39.7747 89.4882 40.1497 90.8554C40.638 92.6328 40.4466 94.5898 39.6029 96.2265C39.0091 97.3788 38.095 98.3671 36.9857 99.0351C35.8763 99.7031 34.7083 99.9999 33.4115 99.9999C31.3529 99.9999 29.3411 98.8945 27.4271 98.1328C23.5286 96.5781 19.2943 96.0937 15.2747 94.8828C14.0404 94.5117 12.8255 94.0703 11.5833 93.7304C11.0286 93.5781 10.47 93.4453 9.94661 93.207C9.42317 92.9726 8.93489 92.6171 8.64583 92.1249C8.42317 91.7421 8.33333 91.2929 8.33333 90.8515C8.33333 90.4062 8.4427 89.9687 8.59505 89.5546C8.89583 88.7226 9.38411 87.9687 9.71223 87.1445C10.2474 85.8007 10.345 84.3203 10.2708 82.8749C10.2005 81.4335 9.96614 79.9999 9.86848 78.5585C9.82161 77.914 9.80598 77.2617 9.93098 76.6249C10.0521 75.9921 10.3255 75.371 10.7904 74.9257C11.22 74.5117 11.7865 74.2656 12.3724 74.1445C12.9544 74.0234 13.556 74.0195 14.1497 74.0312C14.7435 74.0429 15.3411 74.0781 15.9349 74.0273C16.5286 73.9804 17.1263 73.8476 17.6419 73.5507C18.1341 73.2695 18.5365 72.8515 18.8685 72.3945C19.2005 71.9374 19.47 71.4374 19.7474 70.9414C20.0208 70.4492 20.306 69.957 20.6693 69.5195C21.0286 69.082 21.474 68.7031 21.9974 68.4882V68.4882Z" fill="url(#paint3_linear_147648_571)"/>
<g filter="url(#filter9_f_147648_571)">
<path d="M22.849 69.414C23.3372 69.2187 23.8919 69.1953 24.4037 69.3125C24.9193 69.4296 25.3997 69.6796 25.8138 70.0039C26.6497 70.6484 27.2279 71.5546 27.7865 72.4492C29.1224 74.6132 30.4271 76.8046 31.6615 79.0351C32.599 80.7187 33.4896 82.4336 34.638 83.9765C35.3997 85 36.2708 85.9414 37.0482 86.9531C37.8255 87.9648 38.5169 89.0664 38.8607 90.2968C39.306 91.8789 39.1263 93.6328 38.3607 95.0859C37.806 96.1328 36.9622 97.0234 35.9388 97.6171C34.9193 98.2109 33.724 98.5078 32.5443 98.4531C30.6615 98.3671 28.9388 97.4257 27.1654 96.789C23.763 95.5546 20.0794 95.3867 16.5872 94.4257C15.3372 94.0859 14.1185 93.6328 12.8646 93.3164C12.306 93.1757 11.7396 93.0586 11.2122 92.8359C10.6849 92.6132 10.1888 92.2695 9.89975 91.7734C9.68881 91.4023 9.60287 90.9687 9.61459 90.5429C9.63021 90.1171 9.73568 89.6953 9.88803 89.2968C10.1927 88.5 10.6693 87.7812 10.974 86.9843C11.4388 85.7812 11.4974 84.457 11.4115 83.1718C11.3255 81.8867 11.099 80.6093 11.0208 79.3242C10.9896 78.7461 10.9818 78.164 11.099 77.6015C11.2162 77.0351 11.4622 76.4882 11.8724 76.082C12.3177 75.6406 12.9271 75.4023 13.5482 75.3046C14.1654 75.2109 14.7943 75.2539 15.4154 75.3085C16.0404 75.3632 16.6654 75.4336 17.2904 75.3984C17.9154 75.3593 18.5482 75.207 19.0638 74.8554C19.5326 74.539 19.8841 74.0742 20.1537 73.5781C20.4232 73.082 20.6146 72.5468 20.8216 72.0234C21.0247 71.4961 21.2474 70.9726 21.5677 70.5039C21.888 70.039 22.3216 69.6289 22.849 69.414V69.414Z" fill="#D99A03"/>
</g>
<g filter="url(#filter10_f_147648_571)">
<path d="M22.3919 68.1913C22.8685 67.957 23.4271 67.9101 23.9466 68.0155C24.4661 68.121 24.9505 68.3749 25.3607 68.707C26.1771 69.371 26.7005 70.3202 27.1849 71.2499C28.2943 73.3827 29.3333 75.5624 30.6615 77.5741C31.6302 79.0312 32.7435 80.3866 33.72 81.8398C35.0443 83.8046 36.1224 85.9687 36.5677 88.2851C36.8646 89.8476 36.8568 91.5312 36.1068 92.9335C35.6107 93.8593 34.8099 94.6171 33.8607 95.0898C32.9154 95.5663 31.8255 95.7577 30.7669 95.664C29.099 95.5194 27.5872 94.6991 26.0169 94.1249C23.2318 93.1132 20.22 92.8671 17.3529 92.1015C16.1458 91.7812 14.9583 91.3632 13.7357 91.1093C13.1927 90.996 12.6419 90.914 12.1263 90.7187C11.6107 90.5234 11.1224 90.1991 10.8568 89.7226C10.6732 89.3866 10.6107 88.996 10.638 88.6132C10.6654 88.2343 10.7786 87.8632 10.9271 87.5077C11.2279 86.8046 11.6693 86.1562 11.8997 85.4296C12.2435 84.3554 12.1029 83.1952 11.845 82.0976C11.5911 81.0038 11.22 79.9296 11.1068 78.8124C11.056 78.3163 11.056 77.8085 11.1732 77.3202C11.2865 76.832 11.5169 76.3632 11.8802 76.0155C12.349 75.5663 13.0052 75.3398 13.6615 75.2773C14.3138 75.2148 14.97 75.3007 15.6185 75.3944C16.2669 75.4882 16.9232 75.5898 17.5755 75.5585C18.2318 75.5312 18.8997 75.3593 19.4115 74.9569C19.9193 74.5585 20.2396 73.9687 20.4232 73.3593C20.6068 72.746 20.6654 72.1093 20.7396 71.4765C20.8138 70.8437 20.9075 70.203 21.1536 69.6132C21.3997 69.0234 21.8138 68.4804 22.3919 68.1913V68.1913Z" fill="#F5BD0C"/>
</g>
<g filter="url(#filter11_f_147648_571)">
<path d="M28.3333 73.5195C29.2122 75.1055 29.7474 76.9258 30.6185 78.5273C31.4193 80 32.3294 81.5156 33.1419 82.8711C33.5052 83.4766 34.349 84.4062 35.2005 85.8477C35.974 87.1523 36.7552 88.9766 37.1927 89.5898C36.9427 88.8711 36.4271 86.9453 35.8099 85.5742C35.2357 84.293 34.5638 83.5625 34.1536 82.8711C33.3411 81.5156 32.4622 80.293 31.6263 79C30.474 77.2148 29.595 75.2187 28.3333 73.5195V73.5195Z" fill="url(#paint4_linear_147648_571)"/>
</g>
<g opacity="0.2" filter="url(#filter12_f_147648_571)">
<path d="M85.9505 84.2226C85.7942 84.7422 85.5521 85.2461 85.2435 85.707C84.5599 86.7187 83.5638 87.4843 82.5716 88.1875C80.8802 89.3867 79.1146 90.4883 77.5364 91.8515C76.4817 92.7656 75.5169 93.7929 74.6263 94.8711C73.8646 95.7929 73.1458 96.7617 72.2747 97.582C71.3958 98.4101 70.3646 99.082 69.2513 99.4453C67.8958 99.8867 66.4661 99.8672 65.1614 99.5312C64.2474 99.2969 63.3528 98.8906 62.7864 98.1523C62.22 97.414 62.0364 96.4179 61.97 95.4414C61.8528 93.7148 62.0599 91.9531 62.2474 90.1992C62.4036 88.7422 62.5482 87.2851 62.6067 85.832C62.7122 83.1875 62.5364 80.5703 62.181 78C62.1185 77.5664 62.056 77.1328 62.0911 76.6914C62.1263 76.2461 62.2747 75.7851 62.5872 75.4414C62.8763 75.125 63.2786 74.9375 63.6771 74.8476C64.0755 74.7539 64.4817 74.75 64.8841 74.7383C65.8333 74.7148 66.7825 74.6562 67.7161 74.7422C68.306 74.7929 68.8841 74.9023 69.47 74.957C70.4505 75.0508 71.47 75.0039 72.4544 74.7148C73.513 74.4023 74.5208 73.8203 75.5989 73.6601C76.0403 73.5937 76.4817 73.6015 76.9114 73.664C77.3489 73.7226 77.7864 73.8437 78.1224 74.1133C78.3802 74.3164 78.5677 74.5937 78.7122 74.8906C78.931 75.3359 79.0638 75.8242 79.1419 76.3281C79.2083 76.7734 79.2357 77.2304 79.3489 77.6601C79.5364 78.3672 79.9661 78.9687 80.4778 79.457C80.9935 79.9453 81.5911 80.332 82.1927 80.7148C82.7903 81.0937 83.3919 81.4687 84.0286 81.7812C84.3294 81.9297 84.638 82.0625 84.9232 82.2304C85.2122 82.4023 85.4778 82.6093 85.6692 82.8828C85.9271 83.2539 86.0286 83.7422 85.9505 84.2226V84.2226Z" fill="url(#paint5_linear_147648_571)"/>
</g>
<path d="M91.72 87.078C90.8372 88.1248 89.6107 88.8162 88.388 89.4412C86.306 90.4998 84.1458 91.4334 82.1888 92.7108C80.8763 93.5662 79.6653 94.5701 78.5325 95.6522C77.5638 96.578 76.6458 97.5662 75.5599 98.3514C74.4622 99.1444 73.1966 99.7186 71.8567 99.9178C71.4857 99.9725 71.1146 99.9998 70.7396 99.9998C69.4739 99.9998 68.2083 99.6951 67.0442 99.1873C65.9896 98.7303 64.9739 98.0701 64.3646 97.0936C63.7552 96.1092 63.6146 94.91 63.6146 93.7498C63.6107 91.7069 63.9896 89.6834 64.345 87.6678C64.6419 85.992 64.9232 84.3162 65.1067 82.6248C65.4388 79.5545 65.4349 76.449 65.2161 73.3631C65.1771 72.8475 65.1341 72.328 65.2122 71.8162C65.2903 71.3045 65.5013 70.7928 65.8919 70.4569C66.2552 70.1444 66.7396 70.0037 67.22 69.9803C67.6966 69.953 68.1732 70.0272 68.6458 70.0975C69.7591 70.2615 70.8841 70.3865 71.9739 70.6756C72.6614 70.8553 73.3333 71.0975 74.0169 71.285C75.1653 71.5936 76.3646 71.742 77.5403 71.6053C78.8099 71.4569 80.0442 70.9803 81.3216 71.0115C81.845 71.0233 82.3646 71.1209 82.8646 71.2811C83.3724 71.4412 83.8763 71.6717 84.2513 72.0545C84.5364 72.3436 84.7357 72.7069 84.8841 73.0858C85.1067 73.6483 85.2278 74.2498 85.2786 74.8514C85.3216 75.3865 85.3138 75.9295 85.4153 76.4569C85.5833 77.3201 86.0403 78.1131 86.6028 78.7889C87.1692 79.4686 87.845 80.0428 88.5208 80.6092C89.1966 81.1756 89.8724 81.7381 90.5989 82.2342C90.9388 82.4686 91.2903 82.6873 91.6146 82.9412C91.9388 83.1991 92.2357 83.4959 92.4388 83.8553C92.6146 84.1717 92.7083 84.5272 92.7083 84.8905C92.7083 85.0936 92.681 85.2967 92.6185 85.4998C92.4427 86.0584 92.1185 86.6014 91.72 87.078V87.078Z" fill="url(#paint6_linear_147648_571)"/>
<g filter="url(#filter13_f_147648_571)">
<path d="M91.6185 84.422C91.4115 84.9415 91.1185 85.4298 90.7513 85.8556C89.9427 86.8009 88.8255 87.422 87.7122 87.9806C85.806 88.9337 83.8372 89.7696 82.0482 90.9181C80.8529 91.6876 79.7435 92.5899 78.7083 93.5665C77.8255 94.3985 76.9857 95.2892 75.9935 95.9923C74.9896 96.7071 73.8333 97.2188 72.6146 97.3985C71.1302 97.6173 69.5989 97.336 68.22 96.7462C67.2591 96.3321 66.3294 95.7462 65.7708 94.8595C65.2161 93.9767 65.0872 92.8985 65.0872 91.8556C65.0794 90.0157 65.4271 88.1954 65.7552 86.3868C66.0286 84.8829 66.2864 83.3751 66.4505 81.8556C66.7474 79.0899 66.7357 76.3009 66.5482 73.5274C66.5169 73.0626 66.4818 72.5939 66.5521 72.1329C66.6224 71.672 66.8138 71.2149 67.1654 70.9103C67.4974 70.6251 67.9427 70.5001 68.3802 70.4806C68.8138 70.4571 69.2474 70.5274 69.681 70.5899C70.7005 70.7384 71.7239 70.8517 72.72 71.1095C73.3489 71.2735 73.9622 71.4923 74.5872 71.6564C75.6341 71.9376 76.7318 72.0704 77.806 71.9454C78.9661 71.8126 80.0911 71.3829 81.2552 71.4103C81.7357 71.422 82.2083 71.5118 82.6654 71.6524C83.1302 71.797 83.5911 72.004 83.9349 72.3478C84.1927 72.6095 84.3685 72.9376 84.513 73.2774C84.72 73.7814 84.8607 74.3204 84.8685 74.8673C84.8802 75.4376 84.7591 76.0079 84.8333 76.5743C84.8958 77.0314 85.0911 77.4649 85.3411 77.8556C85.5872 78.2462 85.888 78.6017 86.1888 78.9532C86.7669 79.6368 87.345 80.3321 88.0716 80.8556C88.8958 81.4532 89.8763 81.8048 90.7279 82.3595C90.9818 82.5274 91.2279 82.7149 91.4075 82.961C91.7122 83.3751 91.7904 83.9376 91.6185 84.422V84.422Z" fill="#CD8907"/>
</g>
<g filter="url(#filter14_f_147648_571)">
<path d="M91.5013 83.8321C91.2669 84.3595 90.9661 84.8478 90.6107 85.2813C89.7825 86.2892 88.6614 86.9806 87.4857 87.4259C85.5442 88.1603 83.4271 88.2579 81.5247 89.0938C80.3646 89.6017 79.3177 90.3673 78.2591 91.0938C77.4075 91.6759 76.5325 92.2423 75.595 92.6485C74.5325 93.1134 73.4075 93.3712 72.2747 93.5548C71.556 93.6681 70.8255 93.754 70.0989 93.7149C69.3724 93.6759 68.6458 93.504 68.0013 93.1329C67.5169 92.8517 67.0794 92.4493 66.8177 91.922C66.5325 91.3399 66.4817 90.6563 66.4857 89.9923C66.5052 88.2345 66.8841 86.4923 66.8724 84.7306C66.8607 83.1954 66.556 81.6837 66.47 80.1524C66.3021 77.2071 66.9349 74.2149 66.3763 71.3282C66.2903 70.8634 66.1693 70.4024 66.1732 69.9298C66.1771 69.6954 66.2122 69.4571 66.2943 69.2384C66.3802 69.0235 66.513 68.8243 66.6888 68.6837C66.8411 68.5704 67.0169 68.5001 67.2005 68.4649C67.3802 68.4337 67.5677 68.4415 67.7513 68.4688C68.1146 68.5274 68.4622 68.6681 68.8177 68.7735C69.8333 69.0782 70.9075 69.0704 71.9427 69.3009C72.5911 69.4415 73.2161 69.6798 73.8607 69.8517C74.9349 70.1485 76.0599 70.2735 77.1653 70.1446C78.3528 70.004 79.513 69.5743 80.7083 69.6056C81.2005 69.6173 81.6849 69.7071 82.1575 69.8477C82.6302 69.9884 83.1028 70.1876 83.4622 70.5509C83.7161 70.8126 83.9036 71.1446 84.0521 71.4884C84.2747 71.9923 84.4271 72.5392 84.4232 73.0938C84.4192 73.3829 84.3763 73.6681 84.3489 73.9571C84.3255 74.2462 84.3177 74.5392 84.3841 74.8165C84.4544 75.0978 84.5989 75.3517 84.763 75.5821C84.9271 75.8126 85.1146 76.0196 85.2864 76.2462C85.763 76.8751 86.1067 77.6095 86.4778 78.3165C86.8489 79.0235 87.2669 79.7227 87.8567 80.2345C88.6575 80.9259 89.6927 81.2032 90.5872 81.754C90.8489 81.9142 91.0989 82.1017 91.2825 82.3595C91.431 82.5626 91.5286 82.8087 91.5677 83.0665C91.6028 83.3204 91.5794 83.5899 91.5013 83.8321V83.8321Z" fill="#F5C021"/>
</g>
<g filter="url(#filter15_f_147648_571)">
<path d="M66.177 70.9296C67.2786 70.6327 68.2161 71.4687 69.0169 72.0976C69.5325 72.539 70.2825 72.4296 70.9153 72.4492C71.9661 72.414 73.0091 72.6249 74.0599 72.496C76.1302 72.3202 78.1575 71.8124 80.2356 71.7265C81.2278 71.664 82.345 71.6054 83.2005 72.1835C83.5481 72.4257 84.0599 73.4452 84.3997 73.0624C84.2591 71.9921 83.4661 70.957 82.4036 70.6718C81.5677 70.539 80.7239 70.7695 79.8802 70.6952C77.3841 70.6367 74.8997 70.1718 72.3958 70.3046C70.6536 70.3202 68.9153 70.2382 67.1731 70.1718C66.4896 70.0312 66.2474 70.6366 65.8763 70.871C65.9739 70.9452 66.0091 70.9687 66.177 70.9296V70.9296Z" fill="url(#paint7_linear_147648_571)"/>
</g>
<g opacity="0.35" filter="url(#filter16_f_147648_571)">
<path d="M80.7904 73.2853C80.6029 72.9143 80.2591 72.6369 79.8724 72.4768C79.4896 72.3166 79.0677 72.2619 78.6497 72.2658C77.8177 72.2736 76.9896 72.4885 76.1576 72.4182C75.4583 72.3557 74.7943 72.0939 74.1107 71.926C73.4036 71.7541 72.6536 71.6877 71.9544 71.8791C71.2044 72.0822 70.5443 72.5861 70.1302 73.2424C69.763 73.8205 69.5911 74.5041 69.5365 75.1877C69.4818 75.8713 69.5404 76.5549 69.6107 77.2385C69.6575 77.7307 69.7161 78.2228 69.8333 78.7033C69.9544 79.1838 70.138 79.6525 70.4271 80.0549C70.8451 80.633 71.4661 81.0471 72.1341 81.2932C73.2279 81.6955 74.47 81.676 75.5443 81.2346C77.4505 80.4064 79.0638 78.9221 80.0443 77.0939C80.3997 76.4377 80.6732 75.7385 80.849 75.0197C80.9193 74.7307 80.974 74.4377 80.974 74.1408C80.9779 73.8478 80.9271 73.5471 80.7904 73.2853Z" fill="url(#paint8_radial_147648_571)"/>
</g>
<g opacity="0.35" filter="url(#filter17_f_147648_571)">
<path d="M80.7904 72.2229C80.6029 71.9534 80.2591 71.7541 79.8724 71.6369C79.4896 71.5198 79.0677 71.4846 78.6497 71.4846C77.8177 71.4924 76.9896 71.6487 76.1576 71.594C75.4583 71.551 74.7943 71.3596 74.1107 71.2424C73.4036 71.1174 72.6536 71.0666 71.9544 71.2073C71.2044 71.3518 70.5443 71.7151 70.1302 72.1916C69.763 72.6096 69.5911 73.1057 69.5365 73.5979C69.4818 74.0901 69.5404 74.5862 69.6107 75.0784C69.6575 75.4338 69.7161 75.7932 69.8333 76.1409C69.9544 76.4885 70.138 76.8284 70.4271 77.1174C70.8451 77.5354 71.4661 77.8323 72.1341 78.012C73.2279 78.3049 74.47 78.2893 75.5443 77.969C77.4505 77.3713 79.0638 76.2971 80.0443 74.9768C80.3997 74.5002 80.6732 73.9963 80.849 73.4768C80.9193 73.2659 80.974 73.0549 80.974 72.844C80.9779 72.6291 80.9271 72.4104 80.7904 72.2229V72.2229Z" fill="url(#paint9_radial_147648_571)"/>
</g>
<path d="M82.3763 69.8126C82.2396 69.4415 81.9974 69.1133 81.7044 68.8477C81.4115 68.5821 81.0638 68.379 80.7005 68.2227C79.974 67.9141 79.181 67.7969 78.3997 67.6524C77.6693 67.5157 76.9388 67.3477 76.2044 67.2227C75.4388 67.0938 74.6497 67.0079 73.8919 67.1797C73.2318 67.3282 72.6185 67.6719 72.1185 68.129C71.6185 68.586 71.2279 69.1563 70.9466 69.7735C70.4505 70.8633 70.2943 72.086 70.388 73.2774C70.4583 74.1641 70.6849 75.0782 71.2669 75.7462C71.7396 76.2891 72.4075 76.629 73.095 76.8321C74.2825 77.1837 75.5755 77.1641 76.7513 76.7813C78.6927 76.129 80.4115 74.836 81.5755 73.1524C81.9583 72.5938 82.2865 71.9883 82.4349 71.3321C82.5482 70.8321 82.5521 70.293 82.3763 69.8126V69.8126Z" fill="#020204"/>
<g filter="url(#filter18_f_147648_571)">
<path d="M74.306 66.8243C74.1224 66.836 73.9427 66.8555 73.7591 66.8907C72.5911 67.0977 71.5208 67.836 70.9193 68.8555C70.4935 69.5782 70.3021 70.4298 70.3607 71.2657C70.388 70.6798 70.5404 70.1055 70.8255 69.5938C71.306 68.7227 72.181 68.0665 73.1615 67.8868C73.763 67.7774 74.3841 67.8438 74.9896 67.918C75.5755 67.9923 76.1615 68.0704 76.7357 68.1915C77.6263 68.3868 78.5052 68.6837 79.2513 69.2032C79.4232 69.3243 79.5872 69.461 79.7239 69.6251C79.8607 69.7852 79.9661 69.9727 80.0091 70.1798C80.0677 70.4844 79.9818 70.8048 79.8294 71.0743C79.6771 71.3477 79.47 71.5821 79.2513 71.8009C79.0716 71.9805 78.8841 72.1485 78.6927 72.3165C79.556 72.1485 80.4271 71.9141 81.1458 71.4141C81.4466 71.1993 81.7239 70.9454 81.9036 70.6251C82.0833 70.3009 82.1575 69.9102 82.0716 69.5509C82.0091 69.3087 81.8763 69.086 81.7122 68.8985C81.5482 68.711 81.3489 68.5587 81.1458 68.4141C80.2435 67.7813 79.1888 67.379 78.095 67.2462C77.3919 67.1173 76.6849 67.0079 75.9779 66.9219C75.4271 66.8516 74.8607 66.793 74.306 66.8243V66.8243Z" fill="url(#paint10_radial_147648_571)"/>
</g>
<g filter="url(#filter19_f_147648_571)">
<path d="M74.306 66.8243C74.1224 66.836 73.9427 66.8555 73.7591 66.8907C72.5911 67.0977 71.5208 67.836 70.9193 68.8555C70.4935 69.5782 70.3021 70.4298 70.3607 71.2657C70.388 70.6798 70.5404 70.1055 70.8255 69.5938C71.306 68.7227 72.181 68.0665 73.1615 67.8868C73.763 67.7774 74.3841 67.8438 74.9896 67.918C75.5755 67.9923 76.1615 68.0704 76.7357 68.1915C77.6263 68.3868 78.5052 68.6837 79.2513 69.2032C79.4232 69.3243 79.5872 69.461 79.7239 69.6251C79.8607 69.7852 79.9661 69.9727 80.0091 70.1798C80.0677 70.4844 79.9818 70.8048 79.8294 71.0743C79.6771 71.3477 79.47 71.5821 79.2513 71.8009C79.0716 71.9805 78.8841 72.1485 78.6927 72.3165C79.556 72.1485 80.4271 71.9141 81.1458 71.4141C81.4466 71.1993 81.7239 70.9454 81.9036 70.6251C82.0833 70.3009 82.1575 69.9102 82.0716 69.5509C82.0091 69.3087 81.8763 69.086 81.7122 68.8985C81.5482 68.711 81.3489 68.5587 81.1458 68.4141C80.2435 67.7813 79.1888 67.379 78.095 67.2462C77.3919 67.1173 76.6849 67.0079 75.9779 66.9219C75.4271 66.8516 74.8607 66.793 74.306 66.8243V66.8243Z" fill="url(#paint11_linear_147648_571)"/>
</g>
<path d="M41.3216 14.9534C40.7239 14.9846 40.1497 15.262 39.7122 15.6721C39.2708 16.0823 38.9622 16.6213 38.7708 17.1877C38.3919 18.3284 38.4778 19.5627 38.5638 20.762C38.6419 21.844 38.7239 22.9495 39.1302 23.9573C39.3333 24.4651 39.6185 24.9377 39.9974 25.3284C40.3763 25.7151 40.8568 26.0159 41.3841 26.1448C41.8763 26.2698 42.4075 26.2463 42.8919 26.094C43.3802 25.9377 43.8216 25.6604 44.1888 25.3049C44.72 24.7854 45.0755 24.1057 45.2825 23.3909C45.4896 22.676 45.5482 21.926 45.5364 21.1799C45.5208 20.2502 45.3997 19.3166 45.1107 18.4338C44.8177 17.551 44.3528 16.7151 43.7044 16.0471C43.3919 15.7229 43.0325 15.4416 42.6302 15.2424C42.2239 15.0432 41.7708 14.9299 41.3216 14.9534V14.9534Z" fill="url(#paint12_radial_147648_571)"/>
<path d="M39.8763 19.9181C39.7513 20.676 39.7474 21.4689 40.0052 22.1877C40.1771 22.6642 40.4622 23.0978 40.806 23.4689C41.0287 23.7111 41.2865 23.9299 41.5833 24.0744C41.8841 24.2189 42.2279 24.2775 42.5521 24.1994C42.849 24.1252 43.1068 23.9338 43.2982 23.6955C43.4896 23.4572 43.6185 23.172 43.7083 22.8791C43.9779 22.0158 43.9349 21.0744 43.6654 20.2111C43.474 19.5822 43.1497 18.9767 42.6497 18.5549C42.4076 18.3517 42.1263 18.1916 41.8216 18.1213C41.5169 18.047 41.1849 18.0666 40.8998 18.1955C40.5833 18.34 40.3372 18.6135 40.1771 18.922C40.0169 19.2306 39.9349 19.5744 39.8763 19.9181Z" fill="#020204"/>
<g filter="url(#filter20_f_147648_571)">
<path d="M41.474 19.3714C41.556 19.5862 41.8294 19.6644 41.9818 19.8362C42.1263 20.0003 42.2787 20.1761 42.3607 20.3831C42.513 20.7776 42.2083 21.3636 42.5287 21.6448C42.6263 21.7308 42.8294 21.7347 42.9271 21.6448C43.3138 21.2933 43.2279 20.5862 43.0755 20.0862C42.9349 19.637 42.5951 19.2073 42.1732 18.9925C41.9779 18.8909 41.6849 18.8089 41.5169 18.9495C41.4115 19.0433 41.4232 19.2386 41.474 19.3714V19.3714Z" fill="url(#paint13_linear_147648_571)"/>
</g>
<path d="M40.0286 17.3674C40.9349 16.8284 42.0325 16.7034 43.0833 16.801C44.1302 16.9026 45.1419 17.2073 46.1575 17.4846C46.9036 17.6877 47.6575 17.8752 48.3568 18.2034C49.0521 18.5315 49.7005 19.0159 50.0872 19.6877C50.1497 19.7932 50.2005 19.9065 50.2669 20.0119C50.3333 20.1174 50.4115 20.2151 50.5091 20.2893C50.6068 20.3635 50.7318 20.4143 50.8529 20.4065C50.9154 20.4026 50.9779 20.3869 51.0286 20.3557C51.0833 20.3244 51.1302 20.2776 51.1575 20.2229C51.1888 20.1604 51.2005 20.0862 51.1966 20.0159C51.1927 19.9455 51.1771 19.8752 51.1575 19.8049C50.9036 18.8791 50.3021 18.094 49.849 17.2463C49.5755 16.7385 49.349 16.2073 49.0755 15.6994C48.1263 13.9612 46.5677 12.5979 44.7982 11.7112C43.0286 10.8244 41.0521 10.3987 39.0755 10.2854C36.7865 10.1487 34.4935 10.4221 32.2357 10.8205C31.2552 10.9924 30.2591 11.1955 29.3958 11.6838C28.9622 11.926 28.5638 12.2385 28.2552 12.6291C27.9427 13.0159 27.724 13.4807 27.6497 13.9729C27.5833 14.4494 27.6536 14.9377 27.8216 15.3869C27.9857 15.8362 28.2435 16.2463 28.5482 16.6174C29.1497 17.3635 29.9271 17.9416 30.6419 18.5823C31.3568 19.219 32.0169 19.926 32.8177 20.4534C33.2161 20.719 33.6497 20.9377 34.1107 21.0666C34.5716 21.1955 35.0638 21.2307 35.5325 21.133C36.0169 21.0354 36.47 20.7971 36.8646 20.4924C37.2591 20.1916 37.599 19.8284 37.9232 19.4534C38.5716 18.6994 39.1771 17.8752 40.0286 17.3674V17.3674Z" fill="url(#paint14_radial_147648_571)"/>
<g filter="url(#filter21_f_147648_571)">
<path d="M43.7903 14.2853C44.6341 15.0744 45.2591 16.0509 45.6849 17.0822C45.4974 15.9455 45.2044 15.0275 44.4622 14.2853C44.0091 13.8595 43.4896 13.4845 42.9075 13.2228C42.3919 12.9924 41.8255 12.8478 41.4974 12.8439C41.1732 12.8361 41.095 12.8439 41.0286 12.8478C40.9583 12.8517 40.9075 12.8517 41.1185 12.8791C41.3294 12.9025 41.8021 13.0314 42.3099 13.258C42.8177 13.4845 43.3333 13.8595 43.7903 14.2853V14.2853Z" fill="url(#paint15_linear_147648_571)"/>
</g>
<path d="M51.931 14.9531C50.9974 15.5977 50.2122 16.4922 49.8294 17.5625C49.345 18.9102 49.5286 20.418 49.9974 21.7695C50.4739 23.1563 51.2747 24.4766 52.4817 25.3086C53.0833 25.7266 53.7825 26.0117 54.5091 26.0977C55.2396 26.1836 55.9935 26.0625 56.6458 25.7266C57.4349 25.3125 58.0403 24.5899 58.4153 23.7813C58.7903 22.9688 58.9505 22.0742 59.0013 21.1797C59.0638 20.0469 58.9544 18.8906 58.5794 17.8164C58.1732 16.6485 57.4388 15.5703 56.3997 14.8985C55.8841 14.5625 55.2943 14.332 54.681 14.2461C54.0677 14.1602 53.4349 14.2266 52.8568 14.4492C52.5286 14.5781 52.2239 14.7539 51.931 14.9531V14.9531Z" fill="url(#paint16_radial_147648_571)"/>
<path d="M54.0911 17.7814C53.7396 17.8048 53.3958 17.9259 53.095 18.1134C52.7982 18.3009 52.5443 18.5548 52.345 18.8478C51.9427 19.4298 51.7669 20.1407 51.7396 20.8478C51.7201 21.3751 51.7786 21.9103 51.9544 22.4103C52.1302 22.9103 52.4232 23.3751 52.8333 23.711C53.2513 24.0587 53.7786 24.2657 54.3216 24.2931C54.8646 24.3165 55.4115 24.1603 55.8568 23.8517C56.2122 23.6056 56.4974 23.2657 56.7005 22.8829C56.9036 22.504 57.0286 22.0821 57.0833 21.6524C57.181 20.8985 57.0716 20.1095 56.7201 19.4298C56.3724 18.7501 55.7786 18.1915 55.0638 17.9298C54.7513 17.8165 54.4193 17.7579 54.0911 17.7814V17.7814Z" fill="#020204"/>
<g filter="url(#filter22_f_147648_571)">
<path d="M56.2669 20.8437C56.6576 20.4531 55.9896 19.418 55.4661 18.9922C55.0872 18.6875 53.9896 18.3633 54.0365 18.6992C54.0833 19.0312 54.5794 19.4609 54.9076 19.7891C55.3177 20.1914 56.0794 21.0312 56.2669 20.8437V20.8437Z" fill="url(#paint17_linear_147648_571)"/>
</g>
<path d="M48.3958 18.3633C49.2005 17.6954 50.1341 17.1876 51.1302 16.879C53.181 16.2462 55.5052 16.4962 57.3177 17.6485C57.9427 18.043 58.5013 18.5352 59.0833 18.9962C59.6614 19.4532 60.2786 19.8829 60.9779 20.129C61.3568 20.2618 61.7591 20.3399 62.1575 20.2969C62.5169 20.2618 62.8646 20.1251 63.1614 19.9219C63.4583 19.7149 63.7083 19.4415 63.8958 19.1329C64.2708 18.5157 64.3919 17.7657 64.3255 17.0469C64.1966 15.6055 63.3841 14.336 62.7044 13.0587C62.4896 12.6602 62.2864 12.254 62.0286 11.8829C61.2435 10.7383 59.9857 9.98444 58.6693 9.54303C57.3529 9.10162 55.9622 8.94147 54.5833 8.76959C53.9661 8.69147 53.345 8.60944 52.7318 8.68365C52.0247 8.76959 51.3607 9.05475 50.6693 9.23053C50.3411 9.31647 50.0091 9.37506 49.6849 9.46881C49.3607 9.56256 49.0404 9.69147 48.7747 9.9024C48.3919 10.211 48.1497 10.6758 48.0443 11.1563C47.9388 11.6407 47.9622 12.1407 48.0404 12.629C48.1927 13.6055 48.5599 14.5547 48.5247 15.543C48.5013 16.2188 48.2864 16.8868 48.3138 17.5626C48.3216 17.7618 48.3607 18.168 48.3958 18.3633V18.3633Z" fill="url(#paint18_linear_147648_571)"/>
<g filter="url(#filter23_f_147648_571)">
<path d="M55.181 12.1798C55.0208 12.3829 54.8763 12.6017 54.763 12.8439C55.4857 13.0001 56.1732 13.297 56.7904 13.7072C57.9857 14.5001 58.8919 15.6564 59.5286 16.9454C59.6771 16.7814 59.8099 16.6056 59.9271 16.4103C59.2865 15.0665 58.3646 13.8517 57.1302 13.0314C56.5365 12.6407 55.8763 12.34 55.181 12.1798V12.1798Z" fill="url(#paint19_linear_147648_571)"/>
</g>
<g filter="url(#filter24_f_147648_571)">
<path d="M40.0208 34.8945C40.595 36.5586 41.7474 37.9766 43.1146 39.082C43.5677 39.4531 44.0481 39.793 44.5833 40.0313C45.1146 40.2734 45.7044 40.4102 46.2864 40.3594C46.8567 40.3125 47.3997 40.0859 47.8997 39.8047C48.3997 39.5234 48.8606 39.1836 49.345 38.8789C50.1731 38.3516 51.0599 37.9258 51.9231 37.457C52.9583 36.8906 53.9661 36.2461 54.8372 35.4492C55.2396 35.0859 55.6106 34.6875 56.0521 34.375C56.4935 34.0586 57.0247 33.832 57.5638 33.8711C57.97 33.8984 58.3489 34.0703 58.7474 34.1563C58.9466 34.1992 59.1497 34.2188 59.3528 34.1875C59.5521 34.1563 59.7474 34.0742 59.888 33.9258C60.0599 33.7461 60.138 33.4883 60.1263 33.2383C60.1185 32.9922 60.0325 32.75 59.9153 32.5313C59.6849 32.0899 59.3333 31.7109 59.1771 31.2383C59.0364 30.8164 59.0638 30.3633 59.0755 29.9219C59.0872 29.4766 59.0794 29.0156 58.8763 28.6211C58.72 28.3242 58.4583 28.0859 58.1614 27.9297C57.8646 27.7695 57.5286 27.6875 57.1927 27.6563C56.5208 27.5938 55.8489 27.7266 55.1731 27.7617C54.2825 27.8125 53.3841 27.7031 52.4896 27.7539C51.3763 27.8242 50.2825 28.1445 49.1653 28.1484C47.8919 28.1524 46.6185 27.7344 45.3606 27.9336C44.8177 28.0195 44.3021 28.2149 43.7864 28.3867C43.2669 28.5625 42.7317 28.7149 42.1849 28.707C41.5638 28.6953 40.9622 28.4805 40.3411 28.4375C40.0325 28.4141 39.7161 28.4375 39.4231 28.5469C39.1341 28.6563 38.8724 28.8555 38.7278 29.1328C38.6458 29.2891 38.6067 29.4688 38.5989 29.6445C38.5911 29.8242 38.6146 30 38.6575 30.1758C38.7435 30.5195 38.9036 30.8438 39.0325 31.1719C39.5013 32.3711 39.6028 33.6797 40.0208 34.8945V34.8945Z" fill="black" fill-opacity="0.258824"/>
</g>
<g opacity="0.3" filter="url(#filter25_f_147648_571)">
<path d="M38.4232 30.1561C39.5364 30.8436 40.5364 31.6913 41.3763 32.6522C42.1536 33.5467 42.8138 34.5624 43.8333 35.2225C44.5482 35.6913 45.4114 35.953 46.2864 36.035C47.3138 36.1288 48.3529 35.9764 49.345 35.7069C50.263 35.4608 51.1497 35.1092 51.9622 34.6483C53.513 33.7694 54.806 32.4803 56.513 31.9022C56.8841 31.7733 57.2708 31.6834 57.6302 31.5272C57.9896 31.3749 58.3294 31.1405 58.5013 30.8124C58.6654 30.492 58.6575 30.1288 58.7122 29.7811C58.7708 29.4061 58.8997 29.0467 58.97 28.6756C59.0404 28.3045 59.0482 27.91 58.8763 27.5702C58.7318 27.2889 58.47 27.0663 58.1693 26.9217C57.8685 26.7811 57.5286 26.7186 57.1888 26.703C56.5169 26.6717 55.8489 26.8319 55.1732 26.8866C54.2825 26.9608 53.3841 26.8553 52.4896 26.8827C51.3763 26.9139 50.2786 27.1444 49.1654 27.1952C47.8958 27.2499 46.6302 27.0624 45.3607 27.0233C44.8099 27.0038 44.2552 27.0116 43.7161 27.1014C43.1732 27.1874 42.6419 27.3553 42.1849 27.6366C41.7396 27.9061 41.3763 28.2772 40.97 28.5936C40.7669 28.7538 40.5482 28.8983 40.3138 29.0116C40.0755 29.1209 39.8138 29.1991 39.5482 29.2108C39.4114 29.2147 39.2708 29.2069 39.138 29.2264C38.9075 29.2577 38.6966 29.3788 38.5638 29.5506C38.431 29.7264 38.3802 29.9491 38.4232 30.1561V30.1561Z" fill="black"/>
</g>
<path d="M44.138 22.8633C44.7357 22.1953 45.1419 21.3789 45.7122 20.6914C45.9974 20.3477 46.3294 20.0313 46.7161 19.8086C47.1029 19.5859 47.556 19.4609 48.0013 19.5C48.4974 19.543 48.9622 19.7891 49.3255 20.1289C49.6888 20.4688 49.9583 20.8985 50.1732 21.3477C50.3802 21.7813 50.5443 22.2383 50.8411 22.6133C51.1575 23.0117 51.5989 23.2813 52.0013 23.5977C52.2005 23.7539 52.3958 23.9219 52.5521 24.1211C52.7122 24.3203 52.8333 24.5508 52.888 24.8008C52.9388 25.0547 52.9114 25.3203 52.8255 25.5625C52.7357 25.8047 52.5872 26.0234 52.3997 26.2031C52.0286 26.5625 51.5208 26.7578 51.0091 26.8281C49.9857 26.9727 48.9505 26.668 47.9154 26.6953C46.8724 26.7266 45.8489 27.0938 44.8021 27.0586C44.2825 27.0391 43.7513 26.9102 43.3216 26.6133C43.1068 26.4609 42.9193 26.2695 42.7825 26.0469C42.6497 25.8242 42.5677 25.5664 42.556 25.3047C42.5482 25.0547 42.6068 24.8047 42.7083 24.5781C42.806 24.3477 42.9466 24.1406 43.1029 23.9453C43.4193 23.5586 43.806 23.2383 44.138 22.8633Z" fill="url(#paint20_radial_147648_571)"/>
<path d="M38.4661 29.3163C38.4896 29.4178 38.5247 29.5116 38.5755 29.6014C38.6653 29.7499 38.7982 29.871 38.9388 29.9725C39.0794 30.078 39.2318 30.1639 39.3802 30.2538C40.1653 30.7499 40.806 31.4413 41.3763 32.1756C42.138 33.16 42.8138 34.2499 43.8333 34.9647C44.5521 35.4725 45.4114 35.7577 46.2864 35.8475C47.3138 35.9491 48.3528 35.785 49.345 35.492C50.263 35.2225 51.1497 34.8436 51.9622 34.3397C53.513 33.3866 54.806 31.9881 56.513 31.3592C56.8841 31.2225 57.2708 31.1249 57.6302 30.9569C57.9896 30.785 58.3294 30.535 58.5013 30.1756C58.6653 29.8319 58.6575 29.4334 58.7122 29.0545C58.7708 28.6522 58.8997 28.2616 58.97 27.8592C59.0403 27.4569 59.0482 27.0272 58.8763 26.6561C58.7317 26.3514 58.47 26.1092 58.1692 25.9569C57.8685 25.8006 57.5286 25.7303 57.1888 25.7147C56.5169 25.6834 55.8489 25.8553 55.1732 25.9178C54.2825 25.9999 53.3841 25.8827 52.4896 25.91C51.3763 25.9452 50.2786 26.1952 49.1653 26.2499C47.8958 26.3084 46.6302 26.1131 45.3607 26.0624C44.8099 26.0389 44.2552 26.0467 43.7122 26.1405C43.1692 26.2303 42.638 26.4178 42.1849 26.7303C41.7435 27.035 41.3919 27.4491 40.9857 27.8006C40.7825 27.9764 40.5638 28.1366 40.3216 28.2538C40.0833 28.3709 39.8177 28.4452 39.5482 28.4374C39.4114 28.4335 39.2669 28.4139 39.138 28.453C39.056 28.4803 38.9818 28.5311 38.9193 28.5897C38.8568 28.6522 38.806 28.7225 38.7591 28.7928C38.6458 28.9569 38.5482 29.1327 38.4661 29.3163V29.3163Z" fill="url(#paint21_radial_147648_571)"/>
<g filter="url(#filter26_f_147648_571)">
<path d="M43.4505 30.6875C43.3216 31.2227 43.3997 31.8086 43.6693 32.293C43.9349 32.7773 44.388 33.1523 44.9154 33.3281C45.5794 33.5508 46.3294 33.4414 46.9505 33.1172C47.3138 32.9297 47.6419 32.6641 47.8489 32.3125C47.9544 32.1406 48.0286 31.9453 48.056 31.7422C48.0794 31.543 48.0638 31.332 47.9935 31.1406C47.9154 30.9336 47.7747 30.75 47.6068 30.6055C47.4349 30.4609 47.2357 30.3555 47.0208 30.2852C46.5989 30.1445 45.9388 30.0273 45.4935 30.0195C44.7044 30.0039 43.5794 30.1523 43.4505 30.6875V30.6875Z" fill="#D9B30D"/>
</g>
<g filter="url(#filter27_f_147648_571)">
<path d="M41.2669 26.5078C40.8138 26.7735 40.3802 27.0664 39.9544 27.3672C39.7318 27.5274 39.5052 27.6953 39.388 27.9414C39.306 28.1133 39.2864 28.3086 39.2825 28.5C39.2825 28.6953 39.2943 28.8867 39.2669 29.0781C39.2513 29.2071 39.2161 29.336 39.2122 29.4649C39.2083 29.5313 39.2122 29.5977 39.2278 29.6602C39.2474 29.7227 39.2786 29.7852 39.3216 29.8321C39.3802 29.8946 39.4583 29.9336 39.5403 29.9571C39.6224 29.9805 39.7044 29.9922 39.7903 30.0117C40.1849 30.1055 40.5286 30.3477 40.8294 30.6211C41.1302 30.8906 41.4036 31.1992 41.72 31.4531C42.5716 32.1485 43.7005 32.4375 44.8021 32.4531C45.9036 32.4727 46.9935 32.2422 48.0677 32C48.9114 31.8086 49.7552 31.6133 50.5638 31.3125C51.8138 30.8516 52.97 30.1563 53.97 29.2852C54.4271 28.8906 54.8528 28.4571 55.3646 28.1367C55.8138 27.8516 56.3177 27.6641 56.7786 27.3946C56.8216 27.3711 56.8607 27.3438 56.8958 27.3164C56.9349 27.2852 56.9661 27.2461 56.9896 27.2071C57.0247 27.1328 57.0247 27.043 57.0013 26.9649C56.9778 26.8867 56.931 26.8164 56.8802 26.75C56.8216 26.6797 56.7591 26.6172 56.6888 26.5547C56.2083 26.1446 55.5599 25.9961 54.9271 25.9453C54.2982 25.8985 53.6614 25.9336 53.0403 25.8282C52.4544 25.7305 51.8997 25.5117 51.3333 25.3321C50.7396 25.1406 50.1341 24.9922 49.5208 24.8906C48.0716 24.6524 46.5833 24.6992 45.1497 24.9961C43.7864 25.2813 42.4661 25.7969 41.2669 26.5078V26.5078Z" fill="#604405"/>
</g>
<path d="M41.1224 24.9804C40.4739 25.4179 39.888 25.953 39.3919 26.5585C39.1107 26.9062 38.8528 27.2851 38.7122 27.7069C38.5989 28.0429 38.5599 28.3944 38.4896 28.7421C38.4622 28.871 38.431 28.9999 38.4349 29.1327C38.4349 29.1952 38.4427 29.2616 38.4622 29.328C38.4817 29.3905 38.5169 29.4491 38.5599 29.496C38.638 29.5741 38.7435 29.6171 38.8489 29.6405C38.9583 29.6601 39.0677 29.664 39.1771 29.6757C39.6653 29.7343 40.1146 29.9687 40.5208 30.2499C40.9271 30.5273 41.3021 30.8554 41.72 31.1171C42.638 31.6991 43.7357 31.9569 44.8255 31.9999C45.9114 32.0429 46.9974 31.8788 48.0677 31.664C48.9153 31.496 49.7591 31.2929 50.5638 30.9765C51.7982 30.4882 52.9114 29.7421 53.97 28.9491C54.4544 28.5897 54.931 28.2187 55.3646 27.8007C55.5091 27.6562 55.6536 27.5116 55.8099 27.3788C55.9661 27.2499 56.1419 27.1366 56.3372 27.0741C56.6341 26.9804 56.9544 27.0077 57.263 27.0585C57.4935 27.0976 57.7239 27.1483 57.9583 27.1405C58.0755 27.1327 58.1927 27.1132 58.3021 27.0702C58.4114 27.0273 58.513 26.9608 58.5872 26.8671C58.6849 26.7499 58.7357 26.5937 58.7357 26.4413C58.7357 26.2851 58.6888 26.1327 58.6107 25.9999C58.4544 25.7343 58.1849 25.5546 57.9036 25.4296C57.5169 25.2577 57.0989 25.1757 56.6888 25.0741C55.4271 24.7694 54.2005 24.3202 53.0403 23.7421C52.4622 23.4569 51.8997 23.1405 51.3333 22.8358C50.7474 22.5233 50.1536 22.2226 49.5208 22.0272C48.0989 21.5976 46.5521 21.7382 45.1497 22.2265C43.595 22.7655 42.1888 23.7265 41.1224 24.9804V24.9804Z" fill="url(#paint22_linear_147648_571)"/>
<g filter="url(#filter28_f_147648_571)">
<path d="M51.0872 25.2929C51.0091 25.1992 50.8997 25.1288 50.7825 25.0937C50.6653 25.0585 50.5403 25.0585 50.4192 25.0781C50.177 25.121 49.9583 25.2499 49.7552 25.3906C49.181 25.7851 48.6731 26.2734 48.2278 26.8124C47.6419 27.5273 47.1575 28.3515 46.9935 29.2617C46.9661 29.414 46.9505 29.5742 46.9661 29.7265C46.9856 29.8827 47.0442 30.0351 47.1575 30.1445C47.2513 30.2421 47.3841 30.3007 47.5169 30.3203C47.6536 30.3398 47.7942 30.3203 47.9231 30.2773C48.1809 30.1913 48.3958 30.0078 48.6028 29.8281C49.7239 28.8203 50.7395 27.6171 51.1458 26.164C51.1849 26.0195 51.22 25.871 51.22 25.7187C51.22 25.5663 51.1809 25.414 51.0872 25.2929V25.2929Z" fill="#F6DA4A"/>
</g>
<g opacity="0.8" filter="url(#filter29_f_147648_571)">
<path d="M44.5521 23.0704C44.2513 22.9727 43.7591 23.5001 43.9192 23.7696C43.9622 23.8438 44.0989 23.9376 44.1927 23.8868C44.3294 23.8126 44.4427 23.5391 44.5911 23.4337C44.6888 23.3633 44.6692 23.1055 44.5521 23.0704Z" fill="url(#paint23_radial_147648_571)"/>
</g>
<g opacity="0.8" filter="url(#filter30_f_147648_571)">
<path d="M48.3958 23.2111C48.4739 23.4611 48.8763 23.4181 49.1106 23.5392C49.3138 23.6447 49.4778 23.8751 49.7083 23.8829C49.9271 23.8868 50.2708 23.8048 50.2981 23.5861C50.3333 23.3009 49.9153 23.1173 49.6458 23.0118C49.2981 22.879 48.8528 22.8087 48.5286 22.9884C48.4544 23.0314 48.3724 23.129 48.3958 23.2111V23.2111Z" fill="url(#paint24_radial_147648_571)"/>
</g>
<g filter="url(#filter31_f_147648_571)">
<path d="M58.8294 27.0116C58.7932 27.3274 58.6572 27.6299 58.4513 27.8526C58.2455 28.0753 57.9866 28.1999 57.7317 28.1991C57.4771 28.1993 57.2469 28.0743 57.0917 27.8517C56.9364 27.6291 56.8688 27.3269 56.9036 27.0116C56.9212 26.855 56.9635 26.6998 57.0282 26.5551C57.0929 26.4104 57.1787 26.2789 57.2807 26.1683C57.3827 26.0576 57.4988 25.9699 57.6225 25.9101C57.7461 25.8504 57.8748 25.8198 58.0013 25.8202C58.1277 25.82 58.2494 25.8508 58.3594 25.9106C58.4695 25.9704 58.5657 26.0581 58.6426 26.1688C58.7195 26.2795 58.7756 26.4109 58.8077 26.5555C58.8397 26.7001 58.8471 26.8551 58.8294 27.0116V27.0116Z" fill="url(#paint25_linear_147648_571)"/>
</g>
<defs>
<filter id="filter0_f_147648_571" x="30.6558" y="41.3107" width="12.4995" height="11.7261" filterUnits="userSpaceOnUse" color-interpolation-filters="sRGB">
<feFlood flood-opacity="0" result="BackgroundImageFix"/>
<feBlend mode="normal" in="SourceGraphic" in2="BackgroundImageFix" result="shape"/>
<feGaussianBlur stdDeviation="0.12" result="effect1_foregroundBlur_147648_571"/>
</filter>
<filter id="filter1_f_147648_571" x="48.5673" y="40.3005" width="18.8394" height="13.2858" filterUnits="userSpaceOnUse" color-interpolation-filters="sRGB">
<feFlood flood-opacity="0" result="BackgroundImageFix"/>
<feBlend mode="normal" in="SourceGraphic" in2="BackgroundImageFix" result="shape"/>
<feGaussianBlur stdDeviation="0.18375" result="effect1_foregroundBlur_147648_571"/>
</filter>
<filter id="filter2_f_147648_571" x="41.4963" y="41.8582" width="7.81078" height="8.31469" filterUnits="userSpaceOnUse" color-interpolation-filters="sRGB">
<feFlood flood-opacity="0" result="BackgroundImageFix"/>
<feBlend mode="normal" in="SourceGraphic" in2="BackgroundImageFix" result="shape"/>
<feGaussianBlur stdDeviation="0.1275" result="effect1_foregroundBlur_147648_571"/>
</filter>
<filter id="filter3_f_147648_571" x="41.6544" y="53.1017" width="2.36742" height="21.1445" filterUnits="userSpaceOnUse" color-interpolation-filters="sRGB">
<feFlood flood-opacity="0" result="BackgroundImageFix"/>
<feBlend mode="normal" in="SourceGraphic" in2="BackgroundImageFix" result="shape"/>
<feGaussianBlur stdDeviation="0.234375" result="effect1_foregroundBlur_147648_571"/>
</filter>
<filter id="filter4_f_147648_571" x="69.3677" y="50.5928" width="4.72697" height="4.79777" filterUnits="userSpaceOnUse" color-interpolation-filters="sRGB">
<feFlood flood-opacity="0" result="BackgroundImageFix"/>
<feBlend mode="normal" in="SourceGraphic" in2="BackgroundImageFix" result="shape"/>
<feGaussianBlur stdDeviation="0.33375" result="effect1_foregroundBlur_147648_571"/>
</filter>
<filter id="filter5_f_147648_571" x="54.208" y="3.63592" width="6.8408" height="6.55324" filterUnits="userSpaceOnUse" color-interpolation-filters="sRGB">
<feFlood flood-opacity="0" result="BackgroundImageFix"/>
<feBlend mode="normal" in="SourceGraphic" in2="BackgroundImageFix" result="shape"/>
<feGaussianBlur stdDeviation="0.324375" result="effect1_foregroundBlur_147648_571"/>
</filter>
<filter id="filter6_f_147648_571" x="61.8072" y="29.5112" width="4.68374" height="5.15043" filterUnits="userSpaceOnUse" color-interpolation-filters="sRGB">
<feFlood flood-opacity="0" result="BackgroundImageFix"/>
<feBlend mode="normal" in="SourceGraphic" in2="BackgroundImageFix" result="shape"/>
<feGaussianBlur stdDeviation="0.14625" result="effect1_foregroundBlur_147648_571"/>
</filter>
<filter id="filter7_f_147648_571" x="23.4737" y="48.1815" width="9.79117" height="22.1701" filterUnits="userSpaceOnUse" color-interpolation-filters="sRGB">
<feFlood flood-opacity="0" result="BackgroundImageFix"/>
<feBlend mode="normal" in="SourceGraphic" in2="BackgroundImageFix" result="shape"/>
<feGaussianBlur stdDeviation="0.18375" result="effect1_foregroundBlur_147648_571"/>
</filter>
<filter id="filter8_f_147648_571" x="66.6449" y="46.0342" width="10.3552" height="28.1698" filterUnits="userSpaceOnUse" color-interpolation-filters="sRGB">
<feFlood flood-opacity="0" result="BackgroundImageFix"/>
<feBlend mode="normal" in="SourceGraphic" in2="BackgroundImageFix" result="shape"/>
<feGaussianBlur stdDeviation="0.223125" result="effect1_foregroundBlur_147648_571"/>
</filter>
<filter id="filter9_f_147648_571" x="8.34604" y="67.9738" width="32.0219" height="31.7531" filterUnits="userSpaceOnUse" color-interpolation-filters="sRGB">
<feFlood flood-opacity="0" result="BackgroundImageFix"/>
<feBlend mode="normal" in="SourceGraphic" in2="BackgroundImageFix" result="shape"/>
<feGaussianBlur stdDeviation="0.63375" result="effect1_foregroundBlur_147648_571"/>
</filter>
<filter id="filter10_f_147648_571" x="9.84438" y="67.1747" width="27.6933" height="29.3" filterUnits="userSpaceOnUse" color-interpolation-filters="sRGB">
<feFlood flood-opacity="0" result="BackgroundImageFix"/>
<feBlend mode="normal" in="SourceGraphic" in2="BackgroundImageFix" result="shape"/>
<feGaussianBlur stdDeviation="0.39375" result="effect1_foregroundBlur_147648_571"/>
</filter>
<filter id="filter11_f_147648_571" x="28.2133" y="73.3995" width="9.09937" height="16.3103" filterUnits="userSpaceOnUse" color-interpolation-filters="sRGB">
<feFlood flood-opacity="0" result="BackgroundImageFix"/>
<feBlend mode="normal" in="SourceGraphic" in2="BackgroundImageFix" result="shape"/>
<feGaussianBlur stdDeviation="0.06" result="effect1_foregroundBlur_147648_571"/>
</filter>
<filter id="filter12_f_147648_571" x="61.2046" y="72.8824" width="25.5029" height="27.6291" filterUnits="userSpaceOnUse" color-interpolation-filters="sRGB">
<feFlood flood-opacity="0" result="BackgroundImageFix"/>
<feBlend mode="normal" in="SourceGraphic" in2="BackgroundImageFix" result="shape"/>
<feGaussianBlur stdDeviation="0.365625" result="effect1_foregroundBlur_147648_571"/>
</filter>
<filter id="filter13_f_147648_571" x="63.5421" y="68.931" width="29.711" height="30.0865" filterUnits="userSpaceOnUse" color-interpolation-filters="sRGB">
<feFlood flood-opacity="0" result="BackgroundImageFix"/>
<feBlend mode="normal" in="SourceGraphic" in2="BackgroundImageFix" result="shape"/>
<feGaussianBlur stdDeviation="0.7725" result="effect1_foregroundBlur_147648_571"/>
</filter>
<filter id="filter14_f_147648_571" x="65.0031" y="67.2747" width="27.7505" height="27.6198" filterUnits="userSpaceOnUse" color-interpolation-filters="sRGB">
<feFlood flood-opacity="0" result="BackgroundImageFix"/>
<feBlend mode="normal" in="SourceGraphic" in2="BackgroundImageFix" result="shape"/>
<feGaussianBlur stdDeviation="0.585" result="effect1_foregroundBlur_147648_571"/>
</filter>
<filter id="filter15_f_147648_571" x="65.7225" y="69.9971" width="18.8309" height="3.30408" filterUnits="userSpaceOnUse" color-interpolation-filters="sRGB">
<feFlood flood-opacity="0" result="BackgroundImageFix"/>
<feBlend mode="normal" in="SourceGraphic" in2="BackgroundImageFix" result="shape"/>
<feGaussianBlur stdDeviation="0.076875" result="effect1_foregroundBlur_147648_571"/>
</filter>
<filter id="filter16_f_147648_571" x="68.5962" y="70.8443" width="13.2967" height="11.6554" filterUnits="userSpaceOnUse" color-interpolation-filters="sRGB">
<feFlood flood-opacity="0" result="BackgroundImageFix"/>
<feBlend mode="normal" in="SourceGraphic" in2="BackgroundImageFix" result="shape"/>
<feGaussianBlur stdDeviation="0.459375" result="effect1_foregroundBlur_147648_571"/>
</filter>
<filter id="filter17_f_147648_571" x="69.0949" y="70.7027" width="12.2992" height="7.93827" filterUnits="userSpaceOnUse" color-interpolation-filters="sRGB">
<feFlood flood-opacity="0" result="BackgroundImageFix"/>
<feBlend mode="normal" in="SourceGraphic" in2="BackgroundImageFix" result="shape"/>
<feGaussianBlur stdDeviation="0.21" result="effect1_foregroundBlur_147648_571"/>
</filter>
<filter id="filter18_f_147648_571" x="70.0203" y="66.4857" width="12.417" height="6.16085" filterUnits="userSpaceOnUse" color-interpolation-filters="sRGB">
<feFlood flood-opacity="0" result="BackgroundImageFix"/>
<feBlend mode="normal" in="SourceGraphic" in2="BackgroundImageFix" result="shape"/>
<feGaussianBlur stdDeviation="0.165" result="effect1_foregroundBlur_147648_571"/>
</filter>
<filter id="filter19_f_147648_571" x="70.0203" y="66.4857" width="12.417" height="6.16085" filterUnits="userSpaceOnUse" color-interpolation-filters="sRGB">
<feFlood flood-opacity="0" result="BackgroundImageFix"/>
<feBlend mode="normal" in="SourceGraphic" in2="BackgroundImageFix" result="shape"/>
<feGaussianBlur stdDeviation="0.165" result="effect1_foregroundBlur_147648_571"/>
</filter>
<filter id="filter20_f_147648_571" x="41.2713" y="18.7095" width="2.09788" height="3.1663" filterUnits="userSpaceOnUse" color-interpolation-filters="sRGB">
<feFlood flood-opacity="0" result="BackgroundImageFix"/>
<feBlend mode="normal" in="SourceGraphic" in2="BackgroundImageFix" result="shape"/>
<feGaussianBlur stdDeviation="0.0825" result="effect1_foregroundBlur_147648_571"/>
</filter>
<filter id="filter21_f_147648_571" x="40.9226" y="12.7956" width="4.80732" height="4.33158" filterUnits="userSpaceOnUse" color-interpolation-filters="sRGB">
<feFlood flood-opacity="0" result="BackgroundImageFix"/>
<feBlend mode="normal" in="SourceGraphic" in2="BackgroundImageFix" result="shape"/>
<feGaussianBlur stdDeviation="0.0225" result="effect1_foregroundBlur_147648_571"/>
</filter>
<filter id="filter22_f_147648_571" x="53.8663" y="18.388" width="2.68661" height="2.65134" filterUnits="userSpaceOnUse" color-interpolation-filters="sRGB">
<feFlood flood-opacity="0" result="BackgroundImageFix"/>
<feBlend mode="normal" in="SourceGraphic" in2="BackgroundImageFix" result="shape"/>
<feGaussianBlur stdDeviation="0.084375" result="effect1_foregroundBlur_147648_571"/>
</filter>
<filter id="filter23_f_147648_571" x="54.7143" y="12.1311" width="5.26156" height="4.86312" filterUnits="userSpaceOnUse" color-interpolation-filters="sRGB">
<feFlood flood-opacity="0" result="BackgroundImageFix"/>
<feBlend mode="normal" in="SourceGraphic" in2="BackgroundImageFix" result="shape"/>
<feGaussianBlur stdDeviation="0.024375" result="effect1_foregroundBlur_147648_571"/>
</filter>
<filter id="filter24_f_147648_571" x="37.9412" y="26.9835" width="22.8425" height="14.0426" filterUnits="userSpaceOnUse" color-interpolation-filters="sRGB">
<feFlood flood-opacity="0" result="BackgroundImageFix"/>
<feBlend mode="normal" in="SourceGraphic" in2="BackgroundImageFix" result="shape"/>
<feGaussianBlur stdDeviation="0.328125" result="effect1_foregroundBlur_147648_571"/>
</filter>
<filter id="filter25_f_147648_571" x="38.1082" y="26.399" width="21.2087" height="9.96377" filterUnits="userSpaceOnUse" color-interpolation-filters="sRGB">
<feFlood flood-opacity="0" result="BackgroundImageFix"/>
<feBlend mode="normal" in="SourceGraphic" in2="BackgroundImageFix" result="shape"/>
<feGaussianBlur stdDeviation="0.15" result="effect1_foregroundBlur_147648_571"/>
</filter>
<filter id="filter26_f_147648_571" x="43.1011" y="29.7297" width="5.2538" height="4.00401" filterUnits="userSpaceOnUse" color-interpolation-filters="sRGB">
<feFlood flood-opacity="0" result="BackgroundImageFix"/>
<feBlend mode="normal" in="SourceGraphic" in2="BackgroundImageFix" result="shape"/>
<feGaussianBlur stdDeviation="0.144375" result="effect1_foregroundBlur_147648_571"/>
</filter>
<filter id="filter27_f_147648_571" x="38.9671" y="24.4949" width="18.2943" height="8.2032" filterUnits="userSpaceOnUse" color-interpolation-filters="sRGB">
<feFlood flood-opacity="0" result="BackgroundImageFix"/>
<feBlend mode="normal" in="SourceGraphic" in2="BackgroundImageFix" result="shape"/>
<feGaussianBlur stdDeviation="0.121875" result="effect1_foregroundBlur_147648_571"/>
</filter>
<filter id="filter28_f_147648_571" x="46.6861" y="24.7912" width="4.80762" height="5.81044" filterUnits="userSpaceOnUse" color-interpolation-filters="sRGB">
<feFlood flood-opacity="0" result="BackgroundImageFix"/>
<feBlend mode="normal" in="SourceGraphic" in2="BackgroundImageFix" result="shape"/>
<feGaussianBlur stdDeviation="0.136875" result="effect1_foregroundBlur_147648_571"/>
</filter>
<filter id="filter29_f_147648_571" x="43.8505" y="23.021" width="0.840671" height="0.917773" filterUnits="userSpaceOnUse" color-interpolation-filters="sRGB">
<feFlood flood-opacity="0" result="BackgroundImageFix"/>
<feBlend mode="normal" in="SourceGraphic" in2="BackgroundImageFix" result="shape"/>
<feGaussianBlur stdDeviation="0.01875" result="effect1_foregroundBlur_147648_571"/>
</filter>
<filter id="filter30_f_147648_571" x="48.3542" y="22.8429" width="1.98351" height="1.07769" filterUnits="userSpaceOnUse" color-interpolation-filters="sRGB">
<feFlood flood-opacity="0" result="BackgroundImageFix"/>
<feBlend mode="normal" in="SourceGraphic" in2="BackgroundImageFix" result="shape"/>
<feGaussianBlur stdDeviation="0.01875" result="effect1_foregroundBlur_147648_571"/>
</filter>
<filter id="filter31_f_147648_571" x="56.8084" y="25.7339" width="2.11662" height="2.55141" filterUnits="userSpaceOnUse" color-interpolation-filters="sRGB">
<feFlood flood-opacity="0" result="BackgroundImageFix"/>
<feBlend mode="normal" in="SourceGraphic" in2="BackgroundImageFix" result="shape"/>
<feGaussianBlur stdDeviation="0.043125" result="effect1_foregroundBlur_147648_571"/>
</filter>
<radialGradient id="paint0_radial_147648_571" cx="0" cy="0" r="1" gradientUnits="userSpaceOnUse" gradientTransform="translate(32.2317 47.3397) scale(7.42188 7.03125)">
<stop/>
<stop offset="1" stop-opacity="0.25"/>
</radialGradient>
<radialGradient id="paint1_radial_147648_571" cx="0" cy="0" r="1" gradientUnits="userSpaceOnUse" gradientTransform="translate(57.4505 51.4063) scale(9.21875 7.03125)">
<stop/>
<stop offset="1" stop-opacity="0.25"/>
</radialGradient>
<radialGradient id="paint2_radial_147648_571" cx="0" cy="0" r="1" gradientUnits="userSpaceOnUse" gradientTransform="translate(45.1341 49.7928) scale(3.65234 3.90625)">
<stop/>
<stop offset="1" stop-opacity="0.25"/>
</radialGradient>
<linearGradient id="paint3_linear_147648_571" x1="17.388" y1="75.3945" x2="33.4544" y2="102.352" gradientUnits="userSpaceOnUse">
<stop stop-color="#B98309"/>
<stop offset="1" stop-color="#382605"/>
</linearGradient>
<linearGradient id="paint4_linear_147648_571" x1="33.5169" y1="82.3555" x2="38.5716" y2="91.8789" gradientUnits="userSpaceOnUse">
<stop stop-color="#EBC40C"/>
<stop offset="1" stop-color="#EBC40C" stop-opacity="0"/>
</linearGradient>
<linearGradient id="paint5_linear_147648_571" x1="65.7278" y1="82.7969" x2="67.0052" y2="92.082" gradientUnits="userSpaceOnUse">
<stop/>
<stop offset="1" stop-opacity="0"/>
</linearGradient>
<linearGradient id="paint6_linear_147648_571" x1="67.513" y1="98.8358" x2="83.7005" y2="72.5936" gradientUnits="userSpaceOnUse">
<stop stop-color="#3E2A06"/>
<stop offset="1" stop-color="#AD780A"/>
</linearGradient>
<linearGradient id="paint7_linear_147648_571" x1="71.931" y1="70.5742" x2="71.4544" y2="74.8593" gradientUnits="userSpaceOnUse">
<stop stop-color="#F3CD0C"/>
<stop offset="1" stop-color="#F3CD0C" stop-opacity="0"/>
</linearGradient>
<radialGradient id="paint8_radial_147648_571" cx="0" cy="0" r="1" gradientUnits="userSpaceOnUse" gradientTransform="translate(74.6263 75.9885) rotate(15) scale(7.67969 8.0625)">
<stop stop-color="#110800"/>
<stop offset="0.59" stop-color="#A65A00" stop-opacity="0.8"/>
<stop offset="1" stop-color="#FF921E" stop-opacity="0"/>
</radialGradient>
<radialGradient id="paint9_radial_147648_571" cx="0" cy="0" r="1" gradientUnits="userSpaceOnUse" gradientTransform="translate(74.6263 74.176) rotate(-2.42) scale(7.71094 5.80469)">
<stop stop-color="#110800"/>
<stop offset="0.59" stop-color="#A65A00" stop-opacity="0.8"/>
<stop offset="1" stop-color="#FF921E" stop-opacity="0"/>
</radialGradient>
<radialGradient id="paint10_radial_147648_571" cx="0" cy="0" r="1" gradientUnits="userSpaceOnUse" gradientTransform="translate(80.4622 68.9923) rotate(23.5) scale(2.71484 1.25391)">
<stop stop-color="#7C7C7C"/>
<stop offset="1" stop-color="#7C7C7C" stop-opacity="0.33"/>
</radialGradient>
<linearGradient id="paint11_linear_147648_571" x1="73.056" y1="67.8048" x2="74.0638" y2="67.7618" gradientUnits="userSpaceOnUse">
<stop stop-color="#7C7C7C"/>
<stop offset="1" stop-color="#7C7C7C" stop-opacity="0.33"/>
</linearGradient>
<radialGradient id="paint12_radial_147648_571" cx="0" cy="0" r="1" gradientUnits="userSpaceOnUse" gradientTransform="translate(42.1185 20.0823) rotate(-0.6) scale(4 6.125)">
<stop stop-color="#FEFEFC"/>
<stop offset="0.75" stop-color="#FEFEFC"/>
<stop offset="1" stop-color="#D4D4D4"/>
</radialGradient>
<linearGradient id="paint13_linear_147648_571" x1="41.2591" y1="18.219" x2="43.224" y2="21.7308" gradientUnits="userSpaceOnUse">
<stop stop-color="#757574" stop-opacity="0"/>
<stop offset="0.25" stop-color="#757574"/>
<stop offset="0.5" stop-color="#757574"/>
<stop offset="1" stop-color="#757574" stop-opacity="0"/>
</linearGradient>
<radialGradient id="paint14_radial_147648_571" cx="0" cy="0" r="1" gradientUnits="userSpaceOnUse" gradientTransform="translate(41.4935 17.0862) rotate(-9.35) scale(2.44141 2.25391)">
<stop stop-color="#C8C8C8"/>
<stop offset="1" stop-color="#797978"/>
</radialGradient>
<linearGradient id="paint15_linear_147648_571" x1="40.9857" y1="12.6994" x2="45.2396" y2="17.0431" gradientUnits="userSpaceOnUse">
<stop stop-color="#646464" stop-opacity="0"/>
<stop offset="0.31" stop-color="#646464" stop-opacity="0.58"/>
<stop offset="0.47" stop-color="#646464"/>
<stop offset="0.73" stop-color="#646464" stop-opacity="0.26"/>
<stop offset="1" stop-color="#646464" stop-opacity="0"/>
</linearGradient>
<radialGradient id="paint16_radial_147648_571" cx="0" cy="0" r="1" gradientUnits="userSpaceOnUse" gradientTransform="translate(54.4505 20.082) rotate(-1.8) scale(5.32813 6.125)">
<stop stop-color="#FEFEFC"/>
<stop offset="0.75" stop-color="#FEFEFC"/>
<stop offset="1" stop-color="#D4D4D4"/>
</radialGradient>
<linearGradient id="paint17_linear_147648_571" x1="54.3763" y1="18.457" x2="56.638" y2="21.1367" gradientUnits="userSpaceOnUse">
<stop stop-color="#949494" stop-opacity="0.39"/>
<stop offset="0.5" stop-color="#949494"/>
<stop offset="1" stop-color="#949494" stop-opacity="0.39"/>
</linearGradient>
<linearGradient id="paint18_linear_147648_571" x1="52.4349" y1="14.1524" x2="59.6302" y2="18.3633" gradientUnits="userSpaceOnUse">
<stop stop-color="#747474"/>
<stop offset="0.13" stop-color="#8C8C8C"/>
<stop offset="0.25" stop-color="#A4A4A4"/>
<stop offset="0.5" stop-color="#D4D4D4"/>
<stop offset="0.62" stop-color="#D4D4D4"/>
<stop offset="1" stop-color="#7C7C7C"/>
</linearGradient>
<linearGradient id="paint19_linear_147648_571" x1="54.8802" y1="12.3282" x2="59.6693" y2="16.8517" gradientUnits="userSpaceOnUse">
<stop stop-color="#646464" stop-opacity="0"/>
<stop offset="0.31" stop-color="#646464" stop-opacity="0.58"/>
<stop offset="0.47" stop-color="#646464"/>
<stop offset="0.73" stop-color="#646464" stop-opacity="0.26"/>
<stop offset="1" stop-color="#646464" stop-opacity="0"/>
</linearGradient>
<radialGradient id="paint20_radial_147648_571" cx="0" cy="0" r="1" gradientUnits="userSpaceOnUse" gradientTransform="translate(46.4739 23.4844) rotate(-36) scale(4.46875 4.05469)">
<stop stop-color="#020204"/>
<stop offset="0.73" stop-color="#020204"/>
<stop offset="1" stop-color="#5C5C5C"/>
</radialGradient>
<radialGradient id="paint21_radial_147648_571" cx="0" cy="0" r="1" gradientUnits="userSpaceOnUse" gradientTransform="translate(51.2122 27.5819) rotate(-22.4) scale(10.6055 7.44922)">
<stop stop-color="#D2940A"/>
<stop offset="0.75" stop-color="#D89C08"/>
<stop offset="0.87" stop-color="#B67E07"/>
<stop offset="1" stop-color="#946106"/>
</radialGradient>
<linearGradient id="paint22_linear_147648_571" x1="38.8372" y1="27.0546" x2="57.8528" y2="26.9062" gradientUnits="userSpaceOnUse">
<stop stop-color="#AD780A"/>
<stop offset="0.12" stop-color="#D89E08"/>
<stop offset="0.25" stop-color="#EDB80B"/>
<stop offset="0.39" stop-color="#EBC80D"/>
<stop offset="0.53" stop-color="#F5D838"/>
<stop offset="0.77" stop-color="#F6D811"/>
<stop offset="1" stop-color="#F5CD31"/>
</linearGradient>
<radialGradient id="paint23_radial_147648_571" cx="0" cy="0" r="1" gradientUnits="userSpaceOnUse" gradientTransform="translate(44.3138 23.3907) scale(0.515625 0.554687)">
<stop stop-color="#3A2903"/>
<stop offset="0.55" stop-color="#735208"/>
<stop offset="1" stop-color="#AC8C04"/>
</radialGradient>
<radialGradient id="paint24_radial_147648_571" cx="0" cy="0" r="1" gradientUnits="userSpaceOnUse" gradientTransform="translate(49.2122 23.3204) scale(1.08594 0.632813)">
<stop stop-color="#3A2903"/>
<stop offset="0.55" stop-color="#735208"/>
<stop offset="1" stop-color="#AC8C04"/>
</radialGradient>
<linearGradient id="paint25_linear_147648_571" x1="57.8411" y1="26.3632" x2="57.8411" y2="27.7694" gradientUnits="userSpaceOnUse">
<stop stop-color="#F5CE2D"/>
<stop offset="1" stop-color="#D79B08"/>
</linearGradient>
</defs>
</svg>
