<svg width="100" height="100" viewBox="0 0 100 100" fill="none" xmlns="http://www.w3.org/2000/svg">
<path d="M0 50C0 22.3858 22.3858 0 50 0C77.6142 0 100 22.3858 100 50C100 77.6142 77.6142 100 50 100C22.3858 100 0 77.6142 0 50Z" fill="#55ACEE"/>
<path d="M48.5025 40.6406L48.6074 42.3707L46.8587 42.1589C40.4935 41.3468 34.9326 38.5927 30.2111 33.9673L27.9028 31.6723L27.3083 33.3671C26.0492 37.1451 26.8536 41.1349 29.4767 43.8184C30.8756 45.3013 30.5609 45.5132 28.1477 44.6305C27.3083 44.348 26.5738 44.1362 26.5039 44.2421C26.2591 44.4892 27.0984 47.7023 27.7629 48.9734C28.6723 50.7388 30.5259 52.4689 32.5544 53.4929L34.2681 54.305L32.2396 54.3403C30.2811 54.3403 30.2111 54.3756 30.421 55.1171C31.1204 57.4121 33.8834 59.8484 36.9611 60.9077L39.1295 61.6491L37.2409 62.779C34.443 64.4032 31.1554 65.3212 27.8679 65.3918C26.294 65.4271 25 65.5684 25 65.6743C25 66.0274 29.2668 68.0047 31.75 68.7814C39.1994 71.0765 48.0478 70.0879 54.6929 66.1686C59.4144 63.3793 64.1359 57.8358 66.3392 52.4689C67.5283 49.609 68.7175 44.3833 68.7175 41.8764C68.7175 40.2522 68.8224 40.0404 70.7809 38.0984C71.9351 36.9685 73.0193 35.7328 73.2291 35.3797C73.5788 34.7088 73.5439 34.7088 71.7602 35.3091C68.7874 36.3683 68.3677 36.2271 69.8366 34.6382C70.9208 33.5083 72.2149 31.4604 72.2149 30.8602C72.2149 30.7543 71.6902 30.9308 71.0957 31.2486C70.4662 31.6017 69.0672 32.1313 68.018 32.4491L66.1294 33.0493L64.4157 31.8841C63.4714 31.2486 62.1423 30.5424 61.4429 30.3306C59.6592 29.8362 56.9312 29.9069 55.3224 30.4718C50.9507 32.0607 48.1877 36.1565 48.5025 40.6406Z" fill="white"/>
</svg>
