<svg width="100" height="100" viewBox="0 0 100 100" fill="none" xmlns="http://www.w3.org/2000/svg">
<path d="M50 100C77.6142 100 100 77.6142 100 50C100 22.3858 77.6142 0 50 0C22.3858 0 0 22.3858 0 50C0 77.6142 22.3858 100 50 100Z" fill="#DD4814"/>
<path fill-rule="evenodd" clip-rule="evenodd" d="M72.5008 24.7902C74.2855 21.6692 73.2284 17.6779 70.1397 15.875C67.0533 14.0734 63.1035 15.1431 61.3188 18.2641C59.5364 21.3851 60.5948 25.3776 63.6823 27.1792C66.7698 28.9833 70.7208 27.9123 72.5008 24.7902ZM18.1252 56.5262C21.6911 56.5262 24.5814 53.6059 24.5814 50.0002C24.5814 46.3957 21.6899 43.4729 18.1252 43.4729C14.5581 43.4729 11.6667 46.3957 11.6667 50.0002C11.6667 53.6047 14.5581 56.5262 18.1252 56.5262ZM70.1397 84.1241C67.0498 85.927 63.1035 84.8572 61.3188 81.7363C59.5364 78.6153 60.5948 74.6252 63.6823 72.8211C66.7698 71.0183 70.7184 72.0868 72.5008 75.209C74.2855 78.3312 73.2248 82.3225 70.1397 84.1241ZM68.9892 48.3502C68.1648 38.8428 60.2699 31.3867 50.6471 31.3867C47.8773 31.3867 45.248 32.0063 42.8893 33.1167L38.343 24.863C42.053 23.004 46.2308 21.9593 50.6471 21.9593C53.17 21.9593 55.6103 22.3008 57.9324 22.9372C58.3423 25.5889 59.8896 28.0377 62.3677 29.4835C64.8434 30.9294 67.7124 31.0607 70.1881 30.0948C74.8596 34.7799 77.8904 41.1352 78.3333 48.2033L68.9892 48.3502ZM32.2341 50.0002C32.2341 43.7022 35.3275 38.136 40.0628 34.7679L35.2649 26.6623C29.7076 30.4136 25.5665 36.1374 23.8207 42.8449C25.8877 44.5284 27.2106 47.1073 27.2106 50.0002C27.2106 52.8931 25.8877 55.472 23.8207 57.1555C25.5677 63.8642 29.7076 69.5867 35.2649 73.3393L40.0628 65.2336C35.3275 61.8655 32.2341 56.2982 32.2341 50.0002ZM42.8893 66.8861C45.248 67.994 47.8773 68.6149 50.6471 68.6149C60.2699 68.6149 68.1648 61.1575 68.9892 51.649L78.3333 51.7983C77.8904 58.8628 74.8596 65.2193 70.1881 69.9067C67.7124 68.942 64.8434 69.0722 62.3677 70.518C59.8896 71.9639 58.3423 74.4115 57.9324 77.0644C55.6103 77.7019 53.17 78.0422 50.6471 78.0422C46.2308 78.0422 42.053 76.9987 38.343 75.1398L42.8893 66.8861Z" fill="white"/>
</svg>
