<svg width="100" height="100" viewBox="0 0 100 100" fill="none" xmlns="http://www.w3.org/2000/svg">
<path d="M36.0938 12.2458C39.1708 10.5708 44.1563 10.5687 47.2396 12.2458L73.5938 26.5791C76.6708 28.2541 79.1667 32.4479 79.1667 35.9416V64.0791C79.1667 67.575 76.6771 71.7625 73.5938 73.4395L47.2396 87.7729C44.1625 89.4479 39.1771 89.4521 36.0938 87.7729L9.73959 73.4395C6.6625 71.7645 4.16667 67.5708 4.16667 64.0791V35.9416C4.16667 32.4458 6.65625 28.2583 9.73959 26.5791L36.0938 12.2458Z" fill="white"/>
<path d="M78.1208 46.2708C87.8986 46.2708 95.825 38.2446 95.825 28.3437C95.825 18.4429 87.8986 10.4166 78.1208 10.4166C68.3431 10.4166 60.4167 18.4429 60.4167 28.3437C60.4167 38.2446 68.3431 46.2708 78.1208 46.2708Z" fill="#2F8BE6"/>
<path fill-rule="evenodd" clip-rule="evenodd" d="M36.4229 62.5C43.5083 62.5 47.9958 58.3979 47.9958 50.0333V40.5375C47.9958 38.8417 46.7125 37.5 45.0917 37.5C43.4708 37.5 42.1896 38.8417 42.1896 40.5396V50.2688C42.1896 54.6479 40.0396 56.8979 36.4979 56.8979C32.9521 56.8979 30.8063 54.5708 30.8063 50.0729V40.5375C30.8063 38.8417 29.5229 37.5 27.9021 37.5C26.2813 37.5 25 38.8417 25 40.5375V50.2292C25 58.3583 29.3333 62.5 36.4229 62.5ZM52.5271 40.5375V59.2646C52.5271 60.9604 53.8104 62.3021 55.4313 62.3021C57.0521 62.3021 58.3333 60.9604 58.3333 59.2667V40.5375C58.3333 38.8417 57.0521 37.5 55.4313 37.5C53.8104 37.5 52.5271 38.8417 52.5271 40.5375Z" fill="#353535"/>
<path fill-rule="evenodd" clip-rule="evenodd" d="M78.125 35.4166C75.1354 35.4166 72.9167 33.7958 72.9167 31.3249V31.2833C72.9167 29.5624 73.6688 28.5499 75.0958 27.8624C74.0542 27.1937 73.3792 26.2812 73.3792 24.7624V24.7208C73.3792 22.5562 75.2708 20.8333 78.125 20.8333C80.9792 20.8333 82.8708 22.5353 82.8708 24.7228V24.7645C82.8708 26.2812 82.1958 27.1937 81.1542 27.8624C82.5229 28.6124 83.3333 29.5228 83.3333 31.2041V31.2458C83.3333 33.8749 81.1146 35.4166 78.125 35.4166ZM78.125 26.8291C79.3021 26.8291 80.0542 26.0999 80.0542 25.1062V25.0645C80.0542 24.1958 79.3396 23.4062 78.125 23.4062C76.9104 23.4062 76.1958 24.177 76.1958 25.0458V25.0874C76.1958 26.0791 76.9479 26.8291 78.125 26.8291ZM80.4583 31.0812C80.4583 32.0728 79.5917 32.8437 78.125 32.8437C76.6583 32.8437 75.7917 32.0541 75.7917 31.0833V31.0416C75.7917 29.9478 76.775 29.2999 78.125 29.2999C79.475 29.2999 80.4583 29.9478 80.4583 31.0416V31.0812Z" fill="white"/>
</svg>
