<svg width="100" height="100" viewBox="0 0 100 100" fill="none" xmlns="http://www.w3.org/2000/svg">
<path d="M99.9357 -0.000366211H0V99.9353H99.9357V-0.000366211Z" fill="black"/>
<path d="M99.9357 -0.000366211H0V99.9353H99.9357V-0.000366211Z" fill="white"/>
<path d="M99.6677 100.005C66.4464 100.005 33.2617 100.005 0.0770294 100.005C0.0743832 99.9956 0.0694179 99.9866 0.0694179 99.9778C0.06909 66.6777 0.0690918 33.3777 0.0690918 0.0732422C33.3777 0.0732422 66.6864 0.0732422 100 0.0732422C100 33.3772 100 66.6854 100 100.005C99.9047 100.005 99.8044 100.005 99.6677 100.005ZM82.4847 65.3776C82.3252 65.1955 82.1744 65.0051 82.0052 64.8329C80.1286 62.925 77.7658 62.5272 75.25 62.7544C73.0681 62.9515 71.1993 63.9119 69.5837 65.3774C69.4964 65.4565 69.4011 65.5268 69.2754 65.6291C69.2754 65.4249 69.2836 65.276 69.2741 65.1281C69.2271 64.403 68.8865 63.8536 68.2416 63.5231C67.6096 63.1995 66.9634 63.2303 66.3673 63.6112C65.7044 64.0348 65.478 64.6857 65.4788 65.4509C65.4835 71.1825 65.4813 76.9142 65.4813 82.6458C65.4813 83.0034 65.4742 83.3612 65.483 83.7184C65.505 84.6385 65.9928 85.3674 66.7337 85.6007C68.0334 86.0098 69.2732 85.1087 69.2751 83.7379C69.2802 79.8053 69.2792 75.8727 69.2754 71.94C69.2744 70.8324 69.5544 69.8169 70.2609 68.9523C71.9069 66.9376 74.0385 66.0866 76.6168 66.3803C77.8727 66.5235 78.8874 67.1063 79.5836 68.1826C80.2367 69.1926 80.4604 70.3327 80.4694 71.5068C80.494 74.747 80.4845 77.9878 80.488 81.2282C80.489 82.1161 80.4744 83.0046 80.4915 83.8922C80.5187 85.2808 82.0112 86.1402 83.2334 85.4805C84.0106 85.0611 84.2867 84.375 84.2857 83.5279C84.2809 79.8489 84.2917 76.17 84.2777 72.4912C84.2744 71.6176 84.2449 70.7385 84.1435 69.8717C83.9553 68.2644 83.5091 66.7367 82.4847 65.3776ZM58.562 63.3234C58.3336 63.3397 58.0959 63.3207 57.8787 63.3784C56.9735 63.6192 56.4746 64.3387 56.474 65.3839C56.4718 69.1322 56.4795 72.8806 56.4668 76.6288C56.4648 77.2486 56.4323 77.8779 56.3229 78.4861C56.0342 80.0918 55.1733 81.2945 53.6285 81.9038C52.1233 82.4974 50.5736 82.5179 49.0153 82.095C47.8332 81.7742 46.9268 81.0958 46.335 80.0183C45.9106 79.2458 45.7041 78.4035 45.6887 77.5324C45.6578 75.7684 45.6682 74.0035 45.6662 72.239C45.6637 69.9555 45.6692 67.6718 45.6639 65.3882C45.6614 64.2636 44.9144 63.3804 43.9372 63.3232C42.7266 63.2524 41.8732 64.0768 41.8719 65.3389C41.8677 69.191 41.8627 73.043 41.8745 76.8952C41.8789 78.2723 42.0268 79.6306 42.5511 80.9269C43.5456 83.3863 45.4018 84.8709 47.892 85.5934C49.4593 86.0481 51.0739 86.0756 52.6916 85.8854C53.9414 85.7383 55.1362 85.3972 56.2246 84.7646C58.7951 83.2709 60.1028 80.9481 60.1857 78.0478C60.3073 73.7955 60.2577 69.5379 60.2624 65.2826C60.2635 64.2147 59.6356 63.5063 58.562 63.3234Z" fill="#ECDC5A"/>
<path d="M82.4983 65.3981C83.5092 66.7365 83.9555 68.2642 84.1436 69.8715C84.245 70.7384 84.2745 71.6174 84.2778 72.4912C84.2918 76.17 84.2812 79.8489 84.2857 83.5277C84.2868 84.375 84.0108 85.0609 83.2333 85.4805C82.0113 86.14 80.5188 85.2806 80.4918 83.8922C80.4743 83.0044 80.4891 82.1161 80.4881 81.228C80.4846 77.9876 80.4941 74.747 80.4694 71.5066C80.4606 70.3327 80.2369 69.1926 79.5837 68.1824C78.8876 67.1061 77.8728 66.5233 76.6169 66.3804C74.0386 66.0866 71.907 66.9374 70.2609 68.9521C69.5546 69.8169 69.2743 70.8324 69.2755 71.94C69.2793 75.8725 69.2803 79.8051 69.2752 83.7377C69.2733 85.1085 68.0336 86.0098 66.734 85.6006C65.9929 85.3674 65.5052 84.6385 65.4829 83.7183C65.4744 83.361 65.4816 83.0034 65.4816 82.6458C65.4816 76.9141 65.4838 71.1823 65.4788 65.4507C65.4783 64.6855 65.7046 64.0346 66.3672 63.6112C66.9636 63.2303 67.6097 63.1995 68.2416 63.5231C68.8866 63.8534 69.2272 64.4029 69.2742 65.1279C69.2836 65.2758 69.2755 65.4249 69.2755 65.6291C69.4012 65.5268 69.4965 65.4563 69.5838 65.3772C71.1992 63.9118 73.0684 62.9515 75.2501 62.7544C77.7659 62.5271 80.1288 62.9248 82.0051 64.8329C82.1745 65.0051 82.3253 65.1955 82.4983 65.3981Z" fill="#111827"/>
<path d="M58.5928 63.325C59.6356 63.5062 60.2635 64.2148 60.2622 65.2826C60.2577 69.538 60.3074 73.7954 60.1858 78.0477C60.1028 80.9482 58.7952 83.2708 56.2246 84.7645C55.1362 85.3971 53.9415 85.7383 52.6916 85.8853C51.074 86.0757 49.4593 86.0481 47.892 85.5933C45.4018 84.8708 43.5456 83.3863 42.5511 80.927C42.0268 79.6305 41.8789 78.2724 41.8745 76.8951C41.8627 73.0431 41.8677 69.1909 41.8719 65.3389C41.8732 64.0769 42.7267 63.2524 43.9372 63.3233C44.9144 63.3805 45.6614 64.2637 45.6639 65.3882C45.6693 67.6717 45.6636 69.9554 45.6663 72.2389C45.6683 74.0035 45.6576 75.7683 45.6888 77.5324C45.7041 78.4035 45.9106 79.2459 46.335 80.0183C46.9268 81.0959 47.8332 81.7741 49.0153 82.0951C50.5736 82.518 52.1233 82.4975 53.6285 81.9037C55.1733 81.2946 56.0343 80.0917 56.3229 78.4862C56.4323 77.8778 56.4647 77.2487 56.4668 76.6288C56.4795 72.8805 56.4718 69.1323 56.474 65.384C56.4747 64.3389 56.9735 63.6191 57.8787 63.3785C58.0959 63.3207 58.3336 63.3398 58.5928 63.325Z" fill="#111827"/>
</svg>
