<svg width="100" height="100" viewBox="0 0 100 100" fill="none" xmlns="http://www.w3.org/2000/svg">
<path d="M35.5358 24.9124V45.2215C35.5358 48.5068 34.9298 50.8961 33.4148 52.3894C32.2028 53.8827 29.7788 54.7787 26.7488 54.7787C23.7187 54.7787 21.5977 54.1814 20.0827 52.688C18.8707 51.1947 17.9617 48.8054 17.9617 45.2215V24.9124H6.75061V45.2215C6.75061 51.1947 7.96262 55.6747 10.3866 58.96C10.6896 59.2586 10.9926 59.856 11.5986 60.1546C14.9317 63.4399 19.7797 64.9332 26.7488 64.9332C33.4148 64.9332 38.5659 63.4399 41.5959 60.1546C41.8989 59.856 42.2019 59.2586 42.8079 58.96C45.2319 55.6747 46.4439 51.1947 46.4439 45.2215V24.9124H35.5358Z" fill="url(#paint0_linear_147648_988)"/>
<path fill-rule="evenodd" clip-rule="evenodd" d="M53.716 24.9123V75.6851V75.9837H65.2301V65.2319V61.3492C65.2301 60.709 65.1431 60.0688 65.0623 59.4746C64.9923 58.9599 64.9271 58.4798 64.9271 58.0639C66.4421 60.4532 68.2601 62.2452 70.3811 63.4399C72.5021 64.6345 75.2292 65.2319 78.2592 65.2319C83.4102 65.2319 87.6523 63.4399 90.6823 59.5573C94.0153 55.6746 95.5303 50.5974 95.5303 44.3254C95.5303 37.7548 93.7123 32.6776 90.6823 29.0936C87.6523 25.5096 83.1072 23.7177 77.6532 23.7177C74.6232 23.7177 72.1991 24.315 70.0781 25.5096C67.9571 26.7043 66.1391 28.4963 64.6241 31.1842V24.9123H53.716ZM67.0481 52.0907C65.2301 50.2987 64.3211 47.6107 64.3211 44.0268C64.3211 40.4428 64.9271 37.7548 67.0481 35.6642C68.8661 33.5735 71.2901 32.6776 74.3202 32.6776C77.3502 32.6776 79.7742 33.5735 81.5922 35.6642C83.4102 37.7548 84.3192 40.4428 84.3192 44.0268C84.3192 47.3121 83.4102 50 81.5922 52.0907C79.7742 54.1813 77.3502 55.0773 74.3202 55.0773C71.2901 55.0773 68.8661 54.1813 67.0481 52.0907Z" fill="url(#paint1_linear_147648_988)"/>
<path d="M43.4139 75.3864C43.1109 75.0877 42.8079 74.4904 42.2019 74.1917C38.8689 70.9064 34.0208 69.4131 27.0518 69.4131C20.3857 69.4131 15.2347 70.9064 12.2047 74.1917C11.9017 74.4904 11.5987 75.0877 10.9926 75.3864H43.4139Z" fill="#3A3A3A"/>
<defs>
<linearGradient id="paint0_linear_147648_988" x1="17.9481" y1="99.5297" x2="111.888" y2="64.5657" gradientUnits="userSpaceOnUse">
<stop stop-color="#6A11CB"/>
<stop offset="1" stop-color="#2575FC"/>
</linearGradient>
<linearGradient id="paint1_linear_147648_988" x1="23.9868" y1="125.376" x2="117.284" y2="102.782" gradientUnits="userSpaceOnUse">
<stop stop-color="#6A11CB"/>
<stop offset="1" stop-color="#2575FC"/>
</linearGradient>
</defs>
</svg>
