<svg width="100" height="100" viewBox="0 0 100 100" fill="none" xmlns="http://www.w3.org/2000/svg">
<path d="M7.05859 48.0817C7.01953 48.7848 7 50.4449 7 51.1676C7 75.5621 26.1602 95.3278 49.793 95.3278C73.4258 95.3278 92.5859 75.5621 92.5859 51.1676C92.5859 50.4449 92.5664 49.7418 92.5274 49.0192L7.05859 48.0817Z" fill="url(#paint0_linear_755_15798)"/>
<path d="M53.7969 90.0153C75.2411 90.0153 92.625 72.6313 92.625 51.1871C92.625 29.743 75.2411 12.359 53.7969 12.359C32.3527 12.359 14.9688 29.743 14.9688 51.1871C14.9688 72.6313 32.3527 90.0153 53.7969 90.0153Z" fill="#007AFF"/>
<path d="M76.4531 12.6129C69.3438 7.43713 60.0469 3.99963 50.6719 3.99963C26.5508 3.99963 7.01953 24.1754 7.01953 49.0387H15.0469C15.7695 31.0699 30.6328 16.3043 48.9922 16.3043C56.6289 16.3043 63.6797 18.8239 69.3633 23.0621C72.2148 24.9567 76.082 24.234 78.0547 21.402C80.0273 18.5114 79.3242 14.5856 76.4531 12.6129Z" fill="url(#paint1_linear_755_15798)"/>
<path opacity="0.5" d="M92.1172 57.3981L74.1875 39.4684L62.7227 38.4918H52.2344L51.1797 52.1246L36.3164 37.2614L32.7031 42.4567L34.0508 64.8199L58.875 89.6442C75.8867 87.4371 89.4023 74.2145 92.1172 57.3981Z" fill="url(#paint2_linear_755_15798)"/>
<path d="M50.1641 35.8356V55.6793H50.1445C50.1445 59.3121 47.1953 62.2614 43.5625 62.2614C39.9297 62.2614 36.9805 59.3121 36.9805 55.6793V39.2145C36.9805 37.3981 35.4961 35.9137 33.6797 35.9137C31.8633 35.9137 30.3789 37.3785 30.3789 39.2145V55.7184C30.3789 62.984 36.2773 68.8824 43.5625 68.8824C50.8477 68.8824 56.7461 62.984 56.7461 55.7184V42.5153H66.6289C68.4258 42.5153 69.8906 43.9801 69.8906 45.777C69.8906 47.5739 68.4258 49.0387 66.6289 49.0387H63.4844C61.6484 49.0387 60.1445 50.5231 60.1445 52.359C60.1445 54.1559 61.5703 55.6207 63.3672 55.6793L70.3789 67.2809C70.9648 68.2574 72.0195 68.9215 73.25 68.9215C75.0859 68.9215 76.5898 67.4371 76.5898 65.6012C76.5898 64.859 76.3359 64.1559 75.9258 63.609L70.6328 54.859C74.1094 53.316 76.5312 49.8395 76.5312 45.7965C76.5312 40.3082 72.0781 35.8746 66.5898 35.8746L50.1641 35.8356Z" fill="white"/>
<path d="M72.8398 21.0699C74.7815 21.0699 76.3555 19.4959 76.3555 17.5543C76.3555 15.6127 74.7815 14.0387 72.8398 14.0387C70.8982 14.0387 69.3242 15.6127 69.3242 17.5543C69.3242 19.4959 70.8982 21.0699 72.8398 21.0699Z" fill="white"/>
<path d="M70.8671 20.4841C70.8671 20.4841 58.7382 9.78095 43.3866 11.8317C37.5663 12.7692 32.8983 14.527 28.3671 17.2419C23.8358 19.9567 30.3983 15.3474 32.3514 14.2927C34.3241 13.238 43.5038 7.53485 58.7577 9.83954C74.0116 12.1442 75.6913 15.5427 75.6913 15.5427L70.8671 20.4841Z" fill="white"/>
<defs>
<linearGradient id="paint0_linear_755_15798" x1="7" y1="71.7047" x2="92.5859" y2="71.7047" gradientUnits="userSpaceOnUse">
<stop stop-color="#FF3B30"/>
<stop offset="1" stop-color="#F7951E"/>
</linearGradient>
<linearGradient id="paint1_linear_755_15798" x1="7.01953" y1="26.5192" x2="79.1719" y2="26.5192" gradientUnits="userSpaceOnUse">
<stop stop-color="#FF3B30"/>
<stop offset="1" stop-color="#F7951E"/>
</linearGradient>
<linearGradient id="paint2_linear_755_15798" x1="42.3555" y1="40.3805" x2="81.2793" y2="79.3043" gradientUnits="userSpaceOnUse">
<stop/>
<stop offset="1" stop-opacity="0"/>
</linearGradient>
</defs>
</svg>
