<svg width="100" height="100" viewBox="0 0 100 100" fill="none" xmlns="http://www.w3.org/2000/svg">
<path d="M50 100C77.6142 100 100 77.6142 100 50C100 22.3858 77.6142 0 50 0C22.3858 0 0 22.3858 0 50C0 77.6142 22.3858 100 50 100Z" fill="white"/>
<path d="M20.0458 48.4054C20.6737 32.7775 35.4644 19.0472 51.1761 20.0519C67.8923 20.6938 82.3202 37.6054 79.097 54.3217C76.404 54.2938 73.7249 53.3031 72.2598 50.917C68.3668 45.0426 66.5807 38.0798 63.0365 32.01C60.497 32.4147 57.9714 32.9031 55.4598 33.4612C56.4226 40.2845 60.7063 45.9914 62.283 52.6193C61.5575 58.41 54.2737 61.6612 49.2505 58.9682C45.0784 57.3635 43.3621 52.9124 41.9109 49.0612C40.5156 45.0426 38.9389 41.0798 36.8179 37.3821C33.5947 37.3124 30.2737 37.41 27.3575 38.9728C29.9807 52.41 37.3342 64.3821 40.3761 77.7077C28.2365 73.8286 19.2784 61.2147 20.0458 48.4054Z" fill="#00853E"/>
<path d="M58.2086 65.1077C61.3342 63.4333 63.6644 60.6705 66.3296 58.3961C70.083 59.303 73.9063 59.8472 77.7575 60.0984C73.4877 69.9077 64.5435 77.5123 53.9528 79.5495C51.1063 75.3914 49.3063 70.6612 47.9109 65.8472C51.3435 65.8333 54.9156 66.2798 58.2086 65.1077Z" fill="#00853E"/>
</svg>
