<svg width="100" height="100" viewBox="0 0 100 100" fill="none" xmlns="http://www.w3.org/2000/svg">
<path d="M0 50C0 22.3858 22.3858 0 50 0C77.6142 0 100 22.3858 100 50C100 77.6142 77.6142 100 50 100C22.3858 100 0 77.6142 0 50Z" fill="#1A1919"/>
<path fill-rule="evenodd" clip-rule="evenodd" d="M58.6577 36.043C58.0462 34.2518 55.3396 26.7215 50.3493 18.3333C50.3493 18.3333 57.4325 23.0377 58.6525 35.9695C58.6525 35.9695 58.6547 35.9973 58.6577 36.043ZM58.6577 36.043C58.7699 37.661 60.604 67.2033 45 73.1279C45 73.1279 46.4354 73.3958 48.0541 73.3197C48.0541 73.3197 67.8944 60.7846 58.7927 36.4468C58.7927 36.4468 58.7475 36.3056 58.6577 36.043ZM75.2603 19.697C72.7265 25.0896 68.0354 26.0914 68.0354 26.0914C63.3436 27.285 61.7013 29.0982 61.7013 29.0982C57.0103 33.8221 60.7057 39.5515 60.7057 39.5515C70.8344 37.2429 74.5374 28.9049 74.5374 28.9049C74.0871 34.5062 62.0301 41.1238 62.0301 41.1238C66.0177 45.0362 69.8302 44.5645 72.3465 43.0645C75.6826 41.0755 77.2822 36.7196 77.2822 36.7196C80.5146 27.0463 75.2603 19.697 75.2603 19.697Z" fill="#E2652C"/>
<path d="M63.1205 56.8938C63.1205 59.8736 62.4203 62.6516 61.0211 65.2272C59.6204 67.8029 57.7298 69.7919 55.347 71.1935C52.9643 72.5947 50.3488 73.2953 47.4998 73.2953C44.6512 73.2953 42.0357 72.5947 39.653 71.1935C37.2703 69.7919 35.3797 67.8029 33.9797 65.2272C32.5798 62.6516 31.8792 59.8736 31.8792 56.8938C31.8792 52.2726 33.4149 48.3329 36.4849 45.0757C39.5541 41.8179 43.2265 40.1895 47.4998 40.1895C49.5332 40.1895 51.4301 40.5666 53.1964 41.3118C53.3727 39.4244 54.0249 37.6678 54.7468 36.2337C52.5246 35.4142 50.1168 35 47.5187 35C41.3403 35 36.2285 37.3106 32.1836 41.9318C28.5053 46.1238 26.6667 51.0734 26.6667 56.7806C26.6667 62.538 28.6097 67.5701 32.4953 71.8749C36.3812 76.1805 41.3887 78.3333 47.5187 78.3333C53.6228 78.3333 58.6188 76.1805 62.5044 71.8749C66.39 67.5701 68.3334 62.538 68.3334 56.7806C68.3334 53.6993 67.7973 50.8429 66.7346 48.2065C64.9506 49.3217 63.2551 49.9054 61.8511 50.203C62.6948 52.2471 63.1205 54.4764 63.1205 56.8938" fill="#FFFFFE"/>
</svg>
