<svg width="100" height="100" viewBox="0 0 100 100" fill="none" xmlns="http://www.w3.org/2000/svg">
<path d="M50 3.8147e-06C77.6142 3.8147e-06 100 22.3858 100 50C100 77.6142 77.6142 100 50 100C22.3858 100 0 77.6142 0 50C0 22.3858 22.3858 3.8147e-06 50 3.8147e-06Z" fill="#7360F2"/>
<path d="M51.5484 39.4771C51.574 38.9867 51.9923 38.6098 52.4828 38.6354C54.3177 38.7311 55.8444 39.2866 56.9317 40.4108C58.0149 41.5307 58.5458 43.0952 58.639 44.9742C58.6634 45.4647 58.2854 45.8821 57.7949 45.9064C57.3044 45.9308 56.887 45.5529 56.8627 45.0623C56.7829 43.4539 56.3416 42.3589 55.6533 41.6472C54.9691 40.9399 53.9251 40.4916 52.3901 40.4115C51.8996 40.3859 51.5228 39.9676 51.5484 39.4771Z" fill="white"/>
<path d="M51.1521 33.8643C50.6623 33.8285 50.2362 34.1965 50.2004 34.6863C50.1645 35.1761 50.5325 35.6023 51.0223 35.6381C54.4082 35.8859 56.9509 37.0191 58.77 39.0046C60.5946 40.9983 61.49 43.4835 61.4241 46.5286C61.4135 47.0196 61.8029 47.4263 62.2939 47.4369C62.7849 47.4475 63.1916 47.0581 63.2022 46.5671C63.277 43.1141 62.2477 40.1703 60.082 37.8039L60.0817 37.8035C57.8923 35.4136 54.8865 34.1376 51.1521 33.8643Z" fill="white"/>
<path d="M48.6305 30.1321C48.6339 29.641 49.0348 29.2456 49.5259 29.249C54.6866 29.285 59.0487 31.003 62.551 34.4172C66.0826 37.86 67.8291 42.547 67.8734 48.3681C67.8771 48.8592 67.482 49.2604 66.9909 49.2641C66.4998 49.2678 66.0987 48.8728 66.0949 48.3816C66.0534 42.9269 64.4306 38.7333 61.3095 35.6907C58.1591 32.6196 54.2475 31.0605 49.5135 31.0275C49.0224 31.0241 48.627 30.6232 48.6305 30.1321Z" fill="white"/>
<path d="M54.5356 56.2052C53.8626 57.0343 52.6126 56.9288 52.6126 56.9288C43.4763 54.5965 41.0312 45.3421 41.0312 45.3421C41.0312 45.3421 40.9214 44.0921 41.7548 43.4191L43.4057 42.1068C44.2242 41.476 44.7464 39.9454 43.9131 38.4507C43.2739 37.3286 42.5789 36.2394 41.8307 35.1869C41.1039 34.1942 39.4109 32.1615 39.4045 32.1552C38.5881 31.1921 37.3876 30.9685 36.1218 31.6277C36.118 31.6277 36.1127 31.6295 36.1076 31.6311C36.103 31.6326 36.0985 31.6341 36.0954 31.6341C34.8364 32.3595 33.7012 33.2811 32.7325 34.3641C32.7292 34.3707 32.7259 34.3738 32.7226 34.377C32.7196 34.3799 32.7165 34.3828 32.7135 34.3883C31.9315 35.3321 31.4839 36.2572 31.3706 37.1637C31.3471 37.2974 31.339 37.4333 31.3464 37.5688C31.3422 37.9691 31.4031 38.3674 31.5268 38.7481L31.57 38.7777C31.9645 40.1785 32.9519 42.5119 35.0975 46.4023C36.3248 48.6525 37.7402 50.7948 39.3286 52.8064C40.1244 53.8148 40.9775 54.7766 41.8835 55.6872C41.8944 55.6981 41.9052 55.709 41.9159 55.7199C41.9374 55.7416 41.9587 55.7632 41.9805 55.7843L42.2717 56.0754C43.1823 56.9815 44.1442 57.8345 45.1525 58.6303C47.1643 60.219 49.307 61.6344 51.5577 62.8614C55.447 65.007 57.7825 65.9944 59.1813 66.3889L59.2108 66.4322C59.5915 66.5562 59.9898 66.6175 60.3901 66.6136C60.5257 66.6202 60.6615 66.6117 60.7952 66.5883C61.7031 66.4807 62.6275 66.0338 63.5685 65.2475C63.5801 65.2412 63.5801 65.2349 63.5927 65.2286C64.6758 64.2596 65.5977 63.1244 66.3238 61.8656C66.3238 61.8631 66.3247 61.8595 66.3257 61.8556C66.3272 61.8499 66.3291 61.8436 66.3291 61.8393C66.9884 60.5734 66.7647 59.373 65.7964 58.5554C65.7951 58.5554 65.7161 58.4904 65.5824 58.3802C65.0336 57.928 63.5629 56.7162 62.7647 56.1292C61.7132 55.3812 60.625 54.6862 59.5041 54.0469C58.0083 53.2136 56.4808 53.7357 55.8479 54.5543L54.5356 56.2052Z" fill="white"/>
<path fill-rule="evenodd" clip-rule="evenodd" d="M75.8081 23.5232C74.0613 21.9113 67.0021 16.7868 51.2782 16.7171C51.2782 16.7171 32.7356 15.599 23.6965 23.8903C18.6647 28.9231 16.8947 36.2871 16.7079 45.417C16.5212 54.5469 16.2797 71.6569 32.7726 76.2963H32.7884L32.7778 83.3755C32.7778 83.3755 32.6724 86.2416 34.5595 86.826C36.4646 87.4176 37.7129 85.9983 39.3405 84.1476C39.6632 83.7807 40.0008 83.3969 40.3613 83.0084C41.5575 81.7194 43.2095 79.8259 44.4542 78.3786C55.734 79.328 64.4092 77.1581 65.3945 76.8374C65.5977 76.7715 65.8855 76.6983 66.2426 76.6075L66.2429 76.6074C69.8871 75.6808 80.7464 72.9196 82.6553 57.3392C84.8189 39.7049 81.6089 28.5507 75.8081 23.5232ZM77.7196 56.0744C76.1267 68.9368 67.4937 70.9456 64.3831 71.6693L64.3829 71.6694L64.3824 71.6695C64.0387 71.7495 63.7624 71.8138 63.5706 71.8753C62.751 72.139 55.1316 74.0346 45.5502 73.4091C45.5502 73.4091 38.4109 82.0221 36.1809 84.2616C35.8328 84.6118 35.4235 84.7532 35.1502 84.6835C34.7663 84.5897 34.6608 84.135 34.665 83.4704C34.6713 82.5211 34.7262 71.7065 34.7262 71.7065C21.2355 67.961 21.5501 54.2213 21.7287 46.4229L21.7287 46.4224C21.7348 46.1561 21.7408 45.8967 21.746 45.6449C21.9042 38.0192 23.3367 31.7723 27.5921 27.5707C35.2378 20.6455 50.9881 21.6803 50.9881 21.6803C64.289 21.7383 70.6625 25.7437 72.1404 27.0855C77.0476 31.287 79.5477 41.341 77.7196 56.0702V56.0744Z" fill="white"/>
</svg>
