<svg width="103" height="104" viewBox="0 0 103 104" fill="none" xmlns="http://www.w3.org/2000/svg">
<path d="M52.318 6.19116L6.5199 52.0508L52.1272 97.7194L97.9253 51.8597L52.318 6.19116Z" fill="#019833" stroke="black" stroke-width="0.267335"/>
<path d="M52.1272 6.38223V2.36951L2.32178 52.2419H6.51994L52.1272 6.38223Z" fill="#66FE98" stroke="black" stroke-width="0.267335"/>
<path d="M52.0127 6.38223V2.36951L101.818 52.2419H97.62L52.0127 6.38223Z" fill="#45FE02" stroke="black" stroke-width="0.267335"/>
<path d="M52.1272 97.9869V102L2.32178 52.1272H6.51994L52.1272 97.9869Z" fill="#017D17" stroke="black" stroke-width="0.267335"/>
<path d="M11.5615 7.43433H43.6757L45.6323 9.39349V15.4061L44.0805 17.2977H40.5723V47.1582L70.7975 17.2977H65.8049L64.0508 15.4061V9.05571L65.67 7.56944H98.189L99.8082 9.19082V15.1359L26.2693 90.6653H17.9034L15.4818 89.2654V17.0275H11.4265L9.94226 15.5412V9.19082L11.5615 7.43433Z" stroke="black" stroke-width="5.3467"/>
<path d="M52.0127 97.9869V102L101.818 52.1272H97.62L52.0127 97.9869Z" fill="#005D04" stroke="black" stroke-width="0.267335"/>
<path d="M51.9928 1.99963L2 52.0596L51.7845 101.911L101.777 51.851L51.9928 1.99963Z" stroke="black" stroke-width="1.60401"/>
<path d="M44.0171 10.4906L45.8299 9.53517L43.9694 7.67212H11.5768L9.93091 9.3202V15.5542L11.7557 17.3815L12.6263 15.5542L11.4814 14.4078V10.0129L12.3401 9.24854H43.2538L44.0171 10.4906Z" fill="#FEFEFE" stroke="black" stroke-width="0.267335"/>
<path d="M66.9185 9.05603L65.7747 10.2013V14.4063L66.7766 15.4095H72.0696V19.4724L37.0555 55.01V15.4597H42.8745L44.0683 14.2642V10.0091L42.9663 9.15635H12.3436L11.3418 10.1595V14.5066L12.3603 15.5265H17.6867V88.3574L18.6886 89.3606H24.7413L98.1173 13.5453V10.2013L96.9735 9.05603H66.9185Z" stroke="black" stroke-width="0.267335"/>
<path d="M17.6335 15.4062V88.3685L18.578 89.4494L17.8373 90.863L15.7444 88.7738V17.2979L17.6335 15.4062Z" fill="#FEFEFE" stroke="black" stroke-width="0.267335"/>
<path d="M12.4002 15.4062L11.8605 17.1627H15.7736L17.9325 15.4062H12.4002Z" fill="#808080" stroke="black" stroke-width="0.267335"/>
<path d="M66.1529 17.379L67.0116 15.6115L65.7712 14.465V10.5479L67.2024 9.11476H97.0666L98.2115 10.6434L99.8336 9.49692L98.1638 7.82495H66.0575L64.4593 9.42526V15.7071L66.1171 17.2716M40.1708 47.435L37.052 55.0126L72.2593 19.6625V15.4587L40.1708 47.435Z" fill="#FEFEFE"/>
<path d="M66.1529 17.379L67.0116 15.6115L65.7712 14.465V10.5479L67.2024 9.11476H97.0666L98.2115 10.6434L99.8336 9.49692L98.1638 7.82495H66.0575L64.4593 9.42526V15.7071L66.1171 17.2716M40.1708 47.435L37.052 55.0126L72.2593 19.6625V15.4587L40.1708 47.435Z" stroke="black" stroke-width="0.267335"/>
<path d="M43.9456 10.2719L45.4973 9.25854V15.4063L43.7095 17.1966H40.2349V47.4962L37.064 54.9951V15.4063H42.8661L43.9456 14.528V10.2719Z" fill="#808080" stroke="black" stroke-width="0.267335"/>
<path d="M66.9185 9.05603L65.7747 10.2013V14.4063L66.7766 15.4095H72.0696V19.4724L37.0555 55.01V15.4597H42.8745L44.0683 14.2642V10.0091L42.9663 9.15635H12.3436L11.3418 10.1595V14.5066L12.3603 15.5265H17.6867V88.3574L18.6886 89.3606H24.7413L98.1172 13.5453V10.2013L96.9735 9.05603H66.9185Z" fill="#CCCCCC" stroke="black" stroke-width="0.267335"/>
<path d="M98.2115 10.2995L99.8411 9.3573V15.2676L25.9258 90.8991H18.0784L18.8281 89.4073H24.8391L98.1161 13.6434L98.2115 10.2995Z" fill="#808080" stroke="black" stroke-width="0.267335"/>
<path d="M72.113 15.5076L70.4601 17.2303H66.1422L67.1542 15.5076C67.188 15.5076 72.113 15.5076 72.113 15.5076Z" fill="#808080" stroke="black" stroke-width="0.267335"/>
<path d="M54.4874 58.1487C54.4316 58.1603 54.3798 58.1862 54.3371 58.2239L52.9178 59.4444C52.8754 59.483 52.8437 59.532 52.826 59.5866L51.4067 63.5658C51.3858 63.6243 51.3817 63.6874 51.395 63.7481C51.4083 63.8087 51.4384 63.8643 51.4819 63.9086L52.5672 64.9954C52.6299 65.0557 52.7139 65.0888 52.8009 65.0873H57.184C57.2709 65.0888 57.355 65.0557 57.4177 64.9954L58.5615 63.8417C58.6009 63.8022 58.6296 63.7533 58.645 63.6996L59.8639 59.5113C59.8805 59.4545 59.8815 59.3942 59.8668 59.3368C59.8521 59.2795 59.8222 59.2271 59.7804 59.1853L58.837 58.2406C58.7742 58.1803 58.6902 58.1472 58.6032 58.1487H54.5541C54.5319 58.1464 54.5096 58.1464 54.4874 58.1487ZM46.456 69.3676C46.3958 69.3805 46.3404 69.4101 46.2961 69.4529C46.2519 69.4958 46.2205 69.5502 46.2055 69.61L45.6629 71.7668C45.6508 71.8153 45.6499 71.8658 45.6602 71.9146C45.6704 71.9635 45.6916 72.0093 45.7222 72.0488C45.7527 72.0882 45.7918 72.1202 45.8365 72.1423C45.8812 72.1644 45.9303 72.1761 45.9801 72.1765H48.5598L42.1648 90.4594C42.1483 90.5088 42.1436 90.5613 42.1513 90.6128C42.1589 90.6642 42.1786 90.7131 42.2087 90.7555C42.2388 90.7979 42.2785 90.8326 42.3246 90.8567C42.3707 90.8807 42.4217 90.8936 42.4737 90.8941H51.7824C51.8524 90.8951 51.9208 90.8738 51.9779 90.8332C52.0349 90.7926 52.0776 90.7349 52.0997 90.6684L52.7091 88.7039C52.7242 88.6544 52.7275 88.602 52.7187 88.551C52.7098 88.5 52.6891 88.4518 52.6583 88.4103C52.6274 88.3688 52.5872 88.3351 52.5409 88.3121C52.4946 88.289 52.4435 88.2772 52.3919 88.2775H50.288L56.6162 69.8023C56.6328 69.7529 56.6374 69.7004 56.6298 69.6489C56.6221 69.5975 56.6025 69.5486 56.5723 69.5062C56.5422 69.4638 56.5025 69.4291 56.4565 69.405C56.4104 69.3809 56.3593 69.3681 56.3074 69.3676H46.5228C46.5006 69.3653 46.4782 69.3653 46.456 69.3676ZM76.0769 69.4344C76.0053 69.4493 75.9407 69.4875 75.8932 69.5431L73.9563 71.7334H70.8757L68.8219 69.6016C68.7915 69.5702 68.7552 69.5452 68.7151 69.528C68.675 69.5108 68.6318 69.5017 68.5882 69.5013H61.233C61.1655 69.5015 61.0996 69.5224 61.0444 69.5613C60.9891 69.6002 60.9472 69.6551 60.9241 69.7187L60.2479 71.7418C60.2314 71.7911 60.2267 71.8436 60.2344 71.8951C60.242 71.9466 60.2617 71.9955 60.2918 72.0379C60.3219 72.0803 60.3616 72.1149 60.4077 72.139C60.4537 72.1631 60.5048 72.1759 60.5568 72.1765H62.5271L56.3992 90.2588C56.3827 90.3081 56.378 90.3607 56.3857 90.4121C56.3933 90.4636 56.413 90.5125 56.4431 90.5549C56.4732 90.5973 56.5129 90.6319 56.559 90.656C56.605 90.6801 56.6561 90.693 56.7081 90.6935H64.5391C64.6066 90.6933 64.6725 90.6724 64.7277 90.6335C64.783 90.5946 64.8249 90.5397 64.848 90.4761L65.4491 88.7122C65.4656 88.6629 65.4702 88.6103 65.4626 88.5589C65.455 88.5074 65.4353 88.4585 65.4052 88.4161C65.375 88.3737 65.3353 88.3391 65.2893 88.315C65.2432 88.2909 65.1921 88.278 65.1402 88.2775H63.771L67.6782 75.9635H74.7494L70.2913 90.2671C70.2761 90.3166 70.2729 90.369 70.2817 90.42C70.2905 90.471 70.3112 90.5192 70.3421 90.5607C70.373 90.6022 70.4132 90.6359 70.4595 90.6589C70.5058 90.682 70.5568 90.6939 70.6085 90.6935H78.164C78.2282 90.693 78.2908 90.6738 78.3442 90.6381C78.3976 90.6025 78.4394 90.552 78.4646 90.4929L79.1408 88.8711C79.1604 88.8215 79.1678 88.7678 79.1622 88.7148C79.1566 88.6617 79.1382 88.6108 79.1087 88.5665C79.0791 88.5221 79.0393 88.4855 78.9925 88.46C78.9458 88.4344 78.8935 88.4205 78.8403 88.4196H77.4711L81.445 75.8966H88.174L83.6491 90.2671C83.6339 90.3166 83.6306 90.369 83.6395 90.42C83.6483 90.471 83.669 90.5192 83.6999 90.5607C83.7308 90.6022 83.771 90.6359 83.8173 90.6589C83.8636 90.682 83.9146 90.6939 83.9663 90.6935H92.2648C92.3314 90.694 92.3965 90.6743 92.4516 90.637C92.5068 90.5997 92.5493 90.5465 92.5737 90.4845L93.25 88.7206C93.2681 88.6708 93.274 88.6173 93.2672 88.5647C93.2604 88.5122 93.241 88.462 93.2107 88.4185C93.1803 88.3751 93.14 88.3395 93.0931 88.315C93.0462 88.2904 92.994 88.2776 92.9411 88.2775H91.2964L96.2972 72.0176C96.3137 71.9671 96.3177 71.9134 96.309 71.861C96.3003 71.8086 96.279 71.7591 96.2471 71.7167L94.6943 69.6267C94.6625 69.5865 94.6219 69.5542 94.5755 69.5324C94.5291 69.5106 94.4783 69.5 94.4271 69.5013H88.4912C88.4462 69.5006 88.4014 69.5091 88.3598 69.5263C88.3182 69.5436 88.2805 69.5692 88.2491 69.6016L86.379 71.6582H83.1064L81.1695 69.5348C81.1382 69.5023 81.1005 69.4767 81.0588 69.4595C81.0172 69.4422 80.9725 69.4337 80.9274 69.4344H76.1437C76.1214 69.4322 76.0991 69.4322 76.0769 69.4344Z" fill="#CCCCCC" stroke="black" stroke-width="2.13868" stroke-miterlimit="10"/>
<path d="M54.5541 58.4747L53.1348 59.6953L51.7155 63.6745L52.8009 64.7613H57.1839L58.3276 63.6077L59.5465 59.4194L58.6031 58.4747H54.5541ZM46.5227 69.6936L45.98 71.8505H49.0189L42.4736 90.5681H51.7823L52.3918 88.6036H49.8288L56.3073 69.6936H46.5227ZM76.1436 69.7605L74.1149 72.0595H70.742L68.5881 69.8274H61.233L60.5567 71.8505H62.9862L56.708 90.3675H64.539L65.1401 88.6036H63.3201L67.436 75.6375H75.2002L70.6084 90.3675H78.1639L78.8402 88.7457H77.0202L81.2028 75.5706H88.6248L83.9662 90.3675H92.2647L92.941 88.6036H90.8455L95.9799 71.9173L94.427 69.8274H88.4912L86.5292 71.9842H82.956L80.9273 69.7605H76.1436Z" fill="#CCCCCC" stroke="black" stroke-width="0.267335" stroke-miterlimit="10"/>
</svg>
