<svg width="100" height="100" viewBox="0 0 100 100" fill="none" xmlns="http://www.w3.org/2000/svg">
<path d="M0 50C0 22.3858 22.3858 0 50 0C77.6142 0 100 22.3858 100 50C100 77.6142 77.6142 100 50 100C22.3858 100 0 77.6142 0 50Z" fill="#31AFD8"/>
<path d="M78.3042 40.3376C78.0371 46.1779 73.9584 54.1734 66.0673 64.3242C57.9098 74.9234 51.0075 80.2254 45.3637 80.2254C41.8647 80.2254 38.9055 76.9991 36.4873 70.5416C34.8731 64.6224 33.2603 58.7039 31.6454 52.7848C29.8493 46.3308 27.9244 43.1003 25.8639 43.1003C25.4149 43.1003 23.8443 44.0447 21.1549 45.9253L18.3333 42.2901C21.2947 39.6892 24.2152 37.0877 27.0886 34.4827C31.0379 31.0717 34.0048 29.2762 35.9809 29.0956C40.6484 28.6466 43.5225 31.8376 44.6012 38.6687C45.767 46.0402 46.5745 50.624 47.027 52.4181C48.3748 58.5337 49.8562 61.5885 51.4731 61.5885C52.7275 61.5885 54.615 59.6055 57.1308 55.6368C59.6416 51.6708 60.9881 48.6528 61.1694 46.5785C61.5285 43.1556 60.182 41.4397 57.1308 41.4397C55.6944 41.4397 54.213 41.7705 52.6895 42.4236C55.639 32.7668 61.2724 28.0765 69.5877 28.3442C75.7525 28.5248 78.6605 32.5226 78.3042 40.3376" fill="#FFFFFE"/>
</svg>
