<svg width="100" height="100" viewBox="0 0 100 100" fill="none" xmlns="http://www.w3.org/2000/svg">
<path d="M0 50C0 22.3858 22.3858 0 50 0C77.6142 0 100 22.3858 100 50C100 77.6142 77.6142 100 50 100C22.3858 100 0 77.6142 0 50Z" fill="#00B488"/>
<path d="M48.7302 81.282C46.3175 80.8982 44.2857 79.1071 41.492 76.2926C33.1111 68.3604 24.4762 47.1228 23.3333 29.2116H33.492C36.1586 48.0184 40.3492 60.8122 49.3651 71.1751C53.8095 66.9532 57.4919 61.068 60.0317 56.3343C55.0794 54.0314 52.2857 49.6815 50.762 45.7154C46.0635 33.4334 50.127 20.3838 63.4604 20C73.2381 20 76.5398 27.4203 76.6666 34.4569C76.5397 38.6788 75.9047 41.6214 74.6349 45.2037C71.8412 45.8433 68.9207 45.0758 67.1429 43.7965C65.7461 42.773 65.2381 43.2846 66.127 40.47C67.1429 36.8878 67.5238 29.0836 62.6985 28.9556C59.3968 29.2115 58.5081 33.3055 58.5081 36.1201C59.397 47.6345 66.762 52.752 76.5398 50.1933V57.6136C73.3652 58.3813 73.2381 58.3813 69.3016 58.5092C67.0159 63.8825 54.5714 82.4336 48.6033 81.282H48.7302V81.282Z" fill="white"/>
</svg>
