<svg width="100" height="100" viewBox="0 0 100 100" fill="none" xmlns="http://www.w3.org/2000/svg">
<path d="M50 100C77.6142 100 100 77.6142 100 50C100 22.3858 77.6142 0 50 0C22.3858 0 0 22.3858 0 50C0 77.6142 22.3858 100 50 100Z" fill="white"/>
<path fill-rule="evenodd" clip-rule="evenodd" d="M51.0527 48.0711C51.0186 50.7864 53.4532 52.3017 55.2872 53.2026C57.1716 54.127 57.8045 54.7197 57.7974 55.5463C57.783 56.8115 56.2942 57.3698 54.9006 57.3915C52.5353 57.4286 51.1334 56.7672 50.0242 56.2439L49.9325 56.2006L49.0569 60.3316C50.1843 60.8554 52.2718 61.3122 54.4367 61.3322C59.5181 61.3322 62.8428 58.8036 62.8608 54.8829C62.8726 51.9063 60.4268 50.6118 58.4697 49.5759C57.1554 48.8802 56.0614 48.3012 56.0802 47.4077C56.0964 46.7334 56.7347 46.0138 58.1336 45.8307C58.8259 45.7382 60.7372 45.6676 62.9039 46.6735L63.7544 42.6767C62.5892 42.249 61.0914 41.8393 59.2268 41.8393C54.4439 41.8393 51.0797 44.4023 51.0527 48.0711ZM71.9267 42.1837C70.9989 42.1837 70.2167 42.7293 69.8679 43.5667L62.609 61.0385H67.6868L68.6973 58.2235H74.9025L75.4887 61.0385L79.9641 61.0385L76.0587 42.1837H71.9267ZM74.1024 54.3572L72.6369 47.2772L70.089 54.3572H74.1024ZM44.8961 42.1837L40.8936 61.0385H45.7322L49.7329 42.1837H44.8961ZM32.7015 55.017L37.7379 42.1837H42.8193L34.9797 61.0385H29.8659L26.0072 45.992C25.7735 45.0658 25.5703 44.725 24.8583 44.3353C23.6949 43.6972 21.7746 43.1009 20.0844 42.7311L20.1994 42.1837H28.4329C29.4811 42.1837 30.4251 42.887 30.6643 44.1051L32.7015 55.017Z" fill="url(#paint0_linear_147648_1314)"/>
<defs>
<linearGradient id="paint0_linear_147648_1314" x1="20.1887" y1="47.8348" x2="37.1143" y2="23.9975" gradientUnits="userSpaceOnUse">
<stop stop-color="#222357"/>
<stop offset="1" stop-color="#254AA5"/>
</linearGradient>
</defs>
</svg>
