<svg width="100" height="100" viewBox="0 0 100 100" fill="none" xmlns="http://www.w3.org/2000/svg">
<path d="M75.0449 31.6591L51.1384 66.2247C50.885 66.5912 50.5184 66.8658 50.0944 67.0067C49.6704 67.1476 49.212 67.1463 48.7888 67.0047C48.3656 66.8625 48.0008 66.5866 47.7495 66.2194C47.4983 65.8516 47.3744 65.4124 47.3968 64.9685L48.3536 45.8847L32.9074 42.6089C32.5773 42.539 32.2698 42.389 32.012 42.1724C31.7542 41.9558 31.5541 41.6791 31.4294 41.367C31.3048 41.0548 31.2595 40.7167 31.2975 40.3827C31.3354 40.0488 31.4555 39.7291 31.6471 39.4521L55.5538 4.88649C55.8073 4.5198 56.1739 4.24533 56.5979 4.10462C57.0221 3.96391 57.4804 3.96464 57.9037 4.1068C58.3269 4.2489 58.6918 4.52463 58.9429 4.89218C59.1941 5.25966 59.318 5.69885 59.2955 6.14314L58.3388 25.2271L73.7847 28.5026C74.1148 28.5726 74.4224 28.7225 74.6804 28.9391C74.9384 29.1558 75.1382 29.4324 75.2626 29.7446C75.3876 30.0568 75.4326 30.3948 75.3949 30.7288C75.3572 31.0628 75.2368 31.3822 75.0449 31.6591Z" fill="#FCC72B"/>
<path d="M50.0096 95.2252C49.3737 95.2258 48.744 95.1015 48.1565 94.858C47.5691 94.6146 47.0355 94.2574 46.5865 93.8075L23.9975 71.2201C23.0939 70.3118 22.5873 69.082 22.589 67.8006C22.5907 66.5192 23.1005 65.2901 24.0067 64.3845C24.9128 63.4782 26.1413 62.9681 27.4228 62.9662C28.7043 62.9648 29.9342 63.4709 30.8428 64.3746L50.0096 83.5392L91.7645 41.7862C92.6748 40.8906 93.9019 40.3911 95.1787 40.3963C96.4561 40.4014 97.6793 40.911 98.5816 41.8139C99.4846 42.7169 99.9946 43.9401 99.9999 45.217C100.005 46.494 99.5051 47.7212 98.6094 48.6314L53.4317 93.8075C52.9828 94.258 52.4494 94.6146 51.8621 94.858C51.2748 95.1015 50.6452 95.2258 50.0096 95.2252Z" fill="#729B1B"/>
<path d="M49.9901 95.2252C50.626 95.2258 51.2557 95.1015 51.8431 94.858C52.4306 94.6146 52.9641 94.2574 53.4132 93.8075L76.0021 71.2201C76.9058 70.3118 77.4125 69.082 77.4105 67.8006C77.4092 66.5192 76.8992 65.2901 75.9929 64.3845C75.0866 63.4782 73.8581 62.9681 72.5767 62.9662C71.2953 62.9648 70.0655 63.4709 69.1566 64.3746L49.9901 83.5392L8.23524 41.7862C7.32497 40.8906 6.09769 40.3911 4.8208 40.3963C3.54384 40.4014 2.32067 40.911 1.41775 41.8139C0.514806 42.7169 0.00523984 43.9401 4.01847e-05 45.217C-0.00515947 46.494 0.494431 47.7212 1.38999 48.6314L46.5679 93.8075C47.0168 94.258 47.5503 94.6146 48.1376 94.858C48.7249 95.1015 49.3544 95.2258 49.9901 95.2252Z" fill="#729B1B" fill-opacity="0.5"/>
</svg>
