<svg width="100" height="100" viewBox="0 0 100 100" fill="none" xmlns="http://www.w3.org/2000/svg">
<path fill-rule="evenodd" clip-rule="evenodd" d="M34.6506 0H65.3494C93.3663 0 100 6.63372 100 34.6506V65.3494C100 93.3662 93.3663 100 65.3494 100H34.6506C6.63373 100 0 93.3662 0 65.3494V34.6506C0 6.63372 6.63373 0 34.6506 0Z" fill="#4680C2"/>
<path fill-rule="evenodd" clip-rule="evenodd" d="M81.7337 31.919C82.2277 30.3665 81.7337 29.2373 79.546 29.2373H72.2771C70.4423 29.2373 69.5954 30.2252 69.1014 31.284C69.1014 31.284 65.361 40.3171 60.1387 46.1744C58.445 47.8681 57.6687 48.4327 56.7514 48.4327C56.2573 48.4327 55.6223 47.8681 55.6223 46.3156V31.8484C55.6223 30.0136 55.0577 29.1667 53.505 29.1667H42.0725C40.9433 29.1667 40.2377 30.0136 40.2377 30.8604C40.2377 32.6248 42.8487 33.0481 43.131 37.9881V48.715C43.131 51.044 42.7077 51.4673 41.7902 51.4673C39.3202 51.4673 33.3216 42.3636 29.7225 31.9896C29.0166 29.9429 28.311 29.1667 26.4762 29.1667H19.1366C17.0195 29.1667 16.6667 30.1548 16.6667 31.2134C16.6667 33.1188 19.1366 42.7165 28.1698 55.4194C34.1685 64.0996 42.7077 68.7573 50.4 68.7573C55.0577 68.7573 55.6223 67.6988 55.6223 65.9346V59.3715C55.6223 57.2542 56.0456 56.9015 57.5277 56.9015C58.5862 56.9015 60.4916 57.4659 64.7964 61.6296C69.7364 66.5696 70.5833 68.8279 73.3356 68.8279H80.6046C82.7216 68.8279 83.7098 67.7694 83.1452 65.7227C82.51 63.6763 80.1106 60.7123 77.0054 57.1836C75.3116 55.2077 72.771 53.02 71.9948 51.9613C70.9362 50.55 71.2185 49.9854 71.9948 48.715C71.9244 48.715 80.8162 36.1534 81.7337 31.919Z" fill="white"/>
</svg>
