<svg width="100" height="100" viewBox="0 0 100 100" fill="none" xmlns="http://www.w3.org/2000/svg">
<path d="M61.4384 -0.000366211C61.4384 0.176181 61.4384 0.352728 61.4384 0.538567C61.4384 3.57961 60.2303 6.4961 58.08 8.64644C55.9297 10.7968 53.0132 12.0048 49.9721 12.0048C46.9311 12.0048 44.0146 10.7968 41.8643 8.64644C39.7139 6.4961 38.5059 3.57961 38.5059 0.538567C38.5059 0.352728 38.5059 0.176181 38.5059 -0.000366211H0V99.9996H100V-0.000366211H61.4384ZM47.7235 89.2953L42.8545 65.2013H42.7709L37.5023 89.2953H30.7935L23.1927 53.893H29.8179L34.3524 77.987H34.436L39.8997 53.893H46.0974L51.0035 78.2843H51.0872L56.2628 53.893H62.7671L54.3208 89.2953H47.7235ZM84.2037 89.2953L81.9457 81.4157H70.0242L68.2866 89.2953H61.6614L70.2286 53.893H80.682L91.0983 89.2953H84.2037Z" fill="#654FF0"/>
<path d="M74.2148 62.6182L71.325 75.6083H80.3196L77.0024 62.6182H74.2148Z" fill="#654FF0"/>
</svg>
