<svg width="100" height="100" viewBox="0 0 100 100" fill="none" xmlns="http://www.w3.org/2000/svg">
<path d="M50.1917 0.000488281L5.99999 25.0005V75.0005L50.1917 100.001L94.3833 75.0005V25.0005L50.1917 0.000488281Z" fill="white"/>
<path d="M13.8918 73.2754L48.7335 92.9838V77.6338L27.0251 65.6921L13.8918 73.2754ZM11.5085 71.1171V29.9004L24.2585 37.2588V63.7504L11.5085 71.1171ZM86.6335 73.2754L51.7918 92.9838V77.6338L73.5001 65.6921L86.6335 73.2754ZM89.0168 71.1171V29.9004L76.2668 37.2588V63.7504L89.0168 71.1171ZM87.5251 27.2338L51.7918 7.01709V21.8588L74.6835 34.4504L74.8585 34.5504L87.5251 27.2338ZM13.0001 27.2338L48.7335 7.01709V21.8588L25.8418 34.4504L25.6668 34.5504L13.0001 27.2338Z" fill="#8ED6FB"/>
<path d="M51.7917 74.1421L73.2083 62.3671V39.0338L51.7917 51.4005V74.1421ZM48.7333 74.1421L27.3167 62.3671V39.0338L48.7333 51.4005V74.1421ZM71.7583 36.3338L50.2583 24.5088L28.7583 36.3338L50.2583 48.7505L71.7583 36.3338Z" fill="#1C78C0"/>
</svg>
