<svg width="100" height="100" viewBox="0 0 100 100" fill="none" xmlns="http://www.w3.org/2000/svg">
<path d="M0 50C0 22.3858 22.3858 0 50 0C77.6142 0 100 22.3858 100 50C100 77.6142 77.6142 100 50 100C22.3858 100 0 77.6142 0 50Z" fill="url(#paint0_linear_147648_1328)"/>
<path fill-rule="evenodd" clip-rule="evenodd" d="M64.0067 40.2C63.675 40.1816 63.3417 40.1783 63.005 40.1783C51.0317 40.1783 41.3183 48.315 41.3183 58.3566C41.3183 60 41.5867 61.5916 42.075 63.1066C41.545 63.1333 41.0117 63.155 40.475 63.155C37.8433 63.155 35.3067 62.7983 32.9417 62.14C32.8067 62.1 32.5367 62.0233 32.5367 62.0233L23.93 66.4066L26.23 59.2016C26.23 59.2016 26.085 59.11 26.0117 59.0633C20.33 55.425 16.6667 49.6933 16.6667 43.245C16.6667 32.2483 27.325 23.3333 40.475 23.3333C52.385 23.3333 62.2533 30.645 64.0067 40.2ZM32.19 39.625C30.3433 39.625 28.8467 38.1733 28.8467 36.3866C28.8467 34.5983 30.3433 33.1516 32.19 33.1516C34.0367 33.1516 35.5367 34.5983 35.5367 36.3866C35.5367 38.1733 34.0367 39.625 32.19 39.625ZM48.76 33.1516C50.6067 33.1516 52.1017 34.5983 52.1017 36.3866C52.1017 38.1733 50.6067 39.625 48.76 39.625C46.9117 39.625 45.4183 38.1733 45.4183 36.3866C45.4183 34.5983 46.9117 33.1516 48.76 33.1516Z" fill="white"/>
<path fill-rule="evenodd" clip-rule="evenodd" d="M63.1868 75.2968C52.0768 75.2968 43.0685 67.7652 43.0685 58.4735C43.0685 49.1852 52.0768 41.6535 63.1868 41.6535C74.2918 41.6535 83.2968 49.1852 83.2968 58.4735C83.2968 63.9235 80.2002 68.7652 75.4018 71.8385L75.2168 71.9535L77.1602 78.0435L69.8918 74.3368C69.8918 74.3368 69.6635 74.4052 69.5485 74.4352C67.5518 74.9935 65.4085 75.2968 63.1868 75.2968ZM53.3602 52.6785C53.3602 51.1718 54.6268 49.9468 56.1852 49.9468C57.7468 49.9468 59.0118 51.1718 59.0118 52.6785C59.0118 54.1918 57.7468 55.4185 56.1852 55.4185C54.6268 55.4185 53.3602 54.1918 53.3602 52.6785ZM67.3585 52.6785C67.3585 51.1718 68.6218 49.9468 70.1818 49.9468C71.7435 49.9468 73.0068 51.1718 73.0068 52.6785C73.0068 54.1918 71.7435 55.4185 70.1818 55.4185C68.6218 55.4185 67.3585 54.1918 67.3585 52.6785Z" fill="white"/>
<defs>
<linearGradient id="paint0_linear_147648_1328" x1="50" y1="0" x2="50" y2="100" gradientUnits="userSpaceOnUse">
<stop stop-color="#25E273"/>
<stop offset="1" stop-color="#20C165"/>
</linearGradient>
</defs>
</svg>
