<svg width="100" height="100" viewBox="0 0 100 100" fill="none" xmlns="http://www.w3.org/2000/svg">
<path d="M50 100C77.6142 100 100 77.6142 100 50C100 22.3858 77.6142 0 50 0C22.3858 0 0 22.3858 0 50C0 77.6142 22.3858 100 50 100Z" fill="white"/>
<path d="M25 59.1666C25 66.0711 33.9568 71.6666 45 71.6666C56.0432 71.6666 65 66.0711 65 59.1666C65 52.2622 56.0432 46.6666 45 46.6666C33.9568 46.6666 25 52.2622 25 59.1666" fill="white"/>
<path fill-rule="evenodd" clip-rule="evenodd" d="M64.4703 49.8335L64.4912 49.8399C67.8909 50.9058 71.6748 53.4838 71.6667 58.0283C71.6667 65.5391 60.9525 74.9999 44.8444 74.9999C32.5612 74.9999 20 68.9764 20 59.0776C20 53.8969 23.2445 47.9064 28.8263 42.263C36.2878 34.7191 44.9916 31.2818 48.2606 34.5952C49.6989 36.0577 49.8379 38.5778 48.9144 41.5937C48.424 43.1058 50.32 42.2712 50.32 42.2712C56.3514 39.718 61.6145 39.5693 63.535 42.3456C64.5647 43.8329 64.4667 45.9068 63.5187 48.3113C63.0891 49.4092 63.6481 49.5809 64.4703 49.8335ZM25.9741 61.4408C26.6116 67.9435 35.0783 72.4302 44.8853 71.4469C54.6842 70.4719 62.1212 64.3988 61.4755 57.8878C60.8462 51.385 52.3795 46.8984 42.5725 47.8816C32.7736 48.8649 25.3367 54.9297 25.9741 61.4408Z" fill="#E6162D"/>
<path d="M75.7825 31.7468C71.7214 27.5109 65.7321 25.8983 60.2035 27.0055V27.0055C58.9237 27.2622 58.1132 28.4495 58.3862 29.6449C58.6592 30.8483 59.9134 31.6104 61.1932 31.3537C65.1263 30.5675 69.3837 31.7147 72.2674 34.7232C75.1511 37.7317 75.9361 41.8312 74.6989 45.4254V45.4254C74.298 46.5967 74.9805 47.8482 76.2261 48.2252C77.4718 48.6023 78.8027 47.9605 79.2037 46.7972V46.7892C80.9442 41.743 79.8436 35.9747 75.7825 31.7468" fill="#FF9933"/>
<path d="M69.5396 37.5896C67.4868 35.4285 64.4607 34.6044 61.6735 35.1762C60.5321 35.4032 59.8066 36.4796 60.0455 37.5643C60.2932 38.6491 61.417 39.3386 62.5495 39.1032V39.1032C63.9121 38.8257 65.3986 39.2293 66.3985 40.2804C67.3983 41.34 67.6726 42.7779 67.2391 44.0393V44.0393C66.8851 45.0904 67.4868 46.2256 68.6017 46.5704C69.7165 46.9067 70.9022 46.3349 71.265 45.2754C72.1409 42.6938 71.5924 39.7507 69.5396 37.5896" fill="#FF9933"/>
<path fill-rule="evenodd" clip-rule="evenodd" d="M34.1978 58.9691C36.3561 54.7912 41.9693 52.424 46.9386 53.6616C52.082 54.9324 54.7102 59.5589 52.6041 64.0607C50.4719 68.6539 44.3452 71.1125 39.1409 69.5094C34.1281 67.9645 31.996 63.2301 34.1978 58.9691ZM46.4774 60.4725C46.1119 61.0706 45.3025 61.353 44.6759 61.1038C44.0493 60.8629 43.8578 60.1901 44.2147 59.6087C44.5802 59.0273 45.3547 58.7449 45.9726 58.9775C46.5992 59.1934 46.8255 59.8662 46.4774 60.4725ZM43.1442 64.5425C42.1347 66.0791 39.9677 66.7518 38.3403 66.0458C36.739 65.3481 36.2603 63.5624 37.2698 62.059C38.2707 60.5639 40.3593 59.8994 41.978 60.5473C43.6142 61.2201 44.1363 62.9892 43.1442 64.5425Z" fill="black"/>
</svg>
