<svg width="100" height="100" viewBox="0 0 100 100" fill="none" xmlns="http://www.w3.org/2000/svg">
<path fill-rule="evenodd" clip-rule="evenodd" d="M48.869 6.07306C73.0348 6.07306 92.6405 25.6647 92.6405 49.8447C92.6405 74.0246 73.1756 94.0807 48.869 93.6162C39.9317 93.4473 33.8234 92.7999 27.1661 87.8598C22.0852 84.0738 2.01506 102.202 11.9376 72.5186C7.70115 65.791 5.18182 58.0641 5.0833 49.8447C4.81588 25.7773 24.689 6.07306 48.869 6.07306V6.07306Z" fill="#25D366"/>
<path fill-rule="evenodd" clip-rule="evenodd" d="M84.7026 14.8979C75.4556 5.66506 63.1827 0.570105 50.1075 0.55603C23.1549 0.55603 1.21282 22.4981 1.19875 49.4507C1.19875 58.0643 3.45066 66.4668 7.7293 73.884L0.790588 99.2181L26.7158 92.4201C33.8827 96.3284 41.916 98.3754 50.0794 98.3736H50.1075C77.0601 98.3736 98.9881 76.4456 99.0022 49.4789C99.0163 36.4178 93.9354 24.1448 84.7026 14.8979V14.8979ZM33.7108 73.124C34.0486 73.3351 34.7523 73.3351 36.3849 73.3351C43.2673 73.321 49.2067 73.307 53.4291 73.307C73.1615 73.307 72.6407 52.533 63.422 49.9433C64.7731 47.5507 70.9237 43.0469 67.1235 33.7577C63.3516 24.5671 47.166 26.6501 36.0894 26.6501C31.9937 26.6501 32.5989 29.6902 32.627 34.3911C32.6552 41.8505 32.627 62.0333 32.627 70.7595C32.627 72.5188 33.1619 72.8003 33.7108 73.124V73.124ZM42.2399 65.5097H52.275C56.5396 65.4956 60.3397 63.5111 60.2411 59.2606C60.1708 55.2635 57.5107 53.9405 53.8091 53.5746C50.2905 53.6168 46.2652 53.6168 42.2399 53.6168V65.5097ZM42.2399 45.5803C49.6712 45.4817 52.5283 45.8758 56.5818 44.8625C59.3685 43.2861 60.5789 37.4171 56.5958 35.4326C53.8232 34.0533 45.6459 34.5177 42.2399 34.6585V45.5803ZM50.1075 90.1119H50.0794C42.7888 90.1119 35.639 88.1555 29.404 84.4539L27.9121 83.5672L12.5287 87.6066L16.6384 72.6173L15.6673 71.0691C11.6003 64.5928 9.44853 57.0981 9.46046 49.4507C9.46046 27.0442 27.701 8.81774 50.1216 8.81774C60.973 8.81774 71.177 13.0542 78.8476 20.7388C86.5322 28.4094 90.7546 38.6275 90.7546 49.4789C90.7405 71.8854 72.5 90.1119 50.1075 90.1119Z" fill="#FEFEFE"/>
<path fill-rule="evenodd" clip-rule="evenodd" d="M0.642828 49.4504C0.657063 22.191 22.8478 0 50.1075 0H50.1078L50.1081 3.10198e-07C63.3306 0.0142333 75.7445 5.16779 85.0954 14.5044L84.7042 14.8962L85.096 14.505C94.4328 23.8561 99.5724 36.2704 99.5582 49.4794C99.5438 76.7526 77.3672 98.9294 50.1075 98.9294H50.0795C41.8969 98.9312 33.8434 96.8977 26.6441 93.0135L0 100L7.13206 73.96C2.87971 66.5077 0.642828 58.0836 0.642828 49.4506L0.642828 49.4504ZM84.3092 15.2906C75.1663 6.16201 63.0347 1.12587 50.1072 1.11188C23.4619 1.11205 1.76863 22.8052 1.75471 49.4509C1.75476 57.9671 3.98112 66.2736 8.21089 73.6061L8.32679 73.8071L1.58122 98.4359L26.7882 91.8263L26.9819 91.9319C34.0673 95.7956 42.009 97.8193 50.0794 97.8176H50.1075C76.7529 97.8176 98.4324 76.1385 98.4463 49.4785V49.4782C98.4602 36.5649 93.4381 24.4334 84.3092 15.2906ZM50.1216 9.37359C28.0077 9.37359 10.0164 27.3515 10.0164 49.4506V49.4511V49.4515C10.0047 56.994 12.127 64.3859 16.1381 70.7734L16.1383 70.7736L17.2392 72.5287L13.3197 86.824L27.9961 82.9703L29.6878 83.9758C29.6879 83.9758 29.688 83.9759 29.688 83.9759C35.8366 87.6261 42.8882 89.5558 50.0794 89.5558H50.1075C72.193 89.5558 90.1848 71.5782 90.1987 49.4784C90.1986 38.7743 86.0346 28.6981 78.4549 21.1322L78.4545 21.1318L78.4541 21.1315C70.8877 13.5512 60.8252 9.37359 50.1216 9.37359ZM8.90454 49.4502C8.90479 26.7364 27.3945 8.26171 50.1216 8.26171C61.1207 8.26171 71.466 12.5568 79.2407 20.3456C87.03 28.1208 91.3106 38.4804 91.3106 49.4788V49.4791C91.2963 72.1925 72.807 90.6677 50.1075 90.6677H50.0794C42.6895 90.6677 35.4416 88.6848 29.1202 84.9319L29.12 84.9318L27.8282 84.164L11.7377 88.389L16.0377 72.7057L15.1965 71.3647C11.0738 64.7997 8.89253 57.2023 8.90454 49.4502ZM54.4045 26.2045C60.3279 26.8348 65.6235 28.6384 67.6379 33.5465L67.638 33.5468L67.6381 33.5471C69.5998 38.3424 69.0025 41.9538 67.7064 44.6756C67.0649 46.0229 66.2594 47.1377 65.5426 48.0537C65.3634 48.2827 65.1889 48.5003 65.0245 48.7052L64.9952 48.7415C64.841 48.9336 64.6966 49.1135 64.5625 49.2847C64.4619 49.4131 64.3694 49.5338 64.2853 49.6476C66.4297 50.4902 68.0507 52.2712 69.0319 54.4588C70.1191 56.8826 70.4417 59.8431 69.8258 62.7128C69.2087 65.5885 67.6461 68.3856 64.9507 70.461C62.2544 72.5369 58.4616 73.8628 53.4291 73.8628C49.8751 73.8628 45.1042 73.8728 39.5775 73.8843C38.5393 73.8865 37.4745 73.8887 36.3861 73.8909H36.3616C35.5652 73.891 34.9672 73.891 34.5276 73.8635C34.1078 73.8372 33.7215 73.7832 33.4232 73.5997C33.4104 73.5922 33.3972 73.5844 33.3837 73.5765C33.1244 73.4247 32.7579 73.21 32.4888 72.7701C32.2094 72.3133 32.0711 71.6838 32.0711 70.7594C32.0711 68.1525 32.0736 64.524 32.0764 60.5181C32.0829 51.1122 32.0909 39.6252 32.0711 34.3941C32.0711 34.3938 32.0711 34.3934 32.0711 34.3931L32.6271 34.391L32.0711 34.3943C32.0711 34.3942 32.0711 34.3942 32.0711 34.3941C32.068 33.8704 32.057 33.346 32.0465 32.8413C32.0342 32.2557 32.0225 31.6967 32.0243 31.1963C32.0276 30.2426 32.0765 29.3618 32.2744 28.6152C32.4758 27.8552 32.8419 27.1962 33.5005 26.7411C34.1474 26.2941 35.0047 26.0941 36.0894 26.0941C37.7316 26.0941 39.5027 26.0471 41.3379 25.9984C45.6182 25.8849 50.2473 25.7621 54.4045 26.2045ZM33.7108 73.1239L34.0054 72.6525C34.044 72.6765 34.1757 72.7274 34.597 72.7538C34.9974 72.7788 35.5598 72.7791 36.3838 72.7791C37.4716 72.7768 38.5358 72.7746 39.5735 72.7724C45.1007 72.7609 49.8735 72.7509 53.4291 72.7509C58.2629 72.7509 61.8046 71.48 64.2723 69.58C66.7409 67.6793 68.1718 65.1211 68.7387 62.4795C69.3068 59.8321 69.004 57.1135 68.0174 54.9139C67.0308 52.7143 65.3812 51.0711 63.2716 50.4785L62.5895 50.2868L62.9379 49.6699C63.1289 49.3317 63.3952 48.9717 63.6872 48.599C63.8255 48.4224 63.9738 48.2377 64.1267 48.0473L64.1575 48.009C64.322 47.8041 64.4925 47.5914 64.6669 47.3685C65.3646 46.4769 66.1126 45.4365 66.7026 44.1976C67.8695 41.7471 68.4474 38.4622 66.6093 33.9687C64.8517 29.6862 60.1685 27.936 54.2869 27.3101C50.2056 26.8759 45.7063 26.9955 41.4588 27.1085C39.6023 27.1578 37.7938 27.2059 36.0894 27.2059C35.1262 27.2059 34.5233 27.3859 34.1326 27.6558C33.7537 27.9177 33.5049 28.3125 33.3492 28.9001C33.1899 29.5011 33.1394 30.2618 33.1362 31.2002C33.1344 31.7091 33.1456 32.2314 33.1576 32.7913C33.1683 33.2881 33.1796 33.8146 33.183 34.3876L33.183 34.3882L33.183 34.3889C33.2027 39.622 33.1948 51.1157 33.1883 60.5233C33.1855 64.5279 33.183 68.1546 33.183 70.7594C33.183 71.5943 33.3121 71.9852 33.4373 72.1899C33.5571 72.3856 33.7047 72.4749 33.9932 72.645L33.7108 73.1239ZM53.7296 34.158C54.9533 34.308 56.0623 34.5461 56.8435 34.9347L56.8438 34.9349C59.0939 36.056 59.8473 38.2751 59.6817 40.3448C59.5184 42.3848 58.4532 44.4425 56.8555 45.3463L56.7898 45.3834L56.7166 45.4017C53.6763 46.1618 51.2613 46.1487 47.276 46.127C45.8384 46.1191 44.1966 46.1102 42.2473 46.1361L41.684 46.1435V34.1249L42.217 34.1029C42.444 34.0935 42.693 34.0827 42.9607 34.071C44.6914 33.9955 47.207 33.8858 49.663 33.9195C51.0815 33.939 52.4921 34.0064 53.7296 34.158ZM42.7959 35.1911V45.0176C44.5791 44.999 46.0843 45.007 47.4001 45.014C51.2787 45.0347 53.5122 45.0466 56.3708 44.3419C57.5299 43.647 58.433 42.0094 58.5733 40.2561C58.7138 38.5011 58.0809 36.7935 56.348 35.9301C55.7428 35.6291 54.79 35.4081 53.5944 35.2616C52.4124 35.1168 51.046 35.0505 49.6478 35.0313C47.2266 34.998 44.7462 35.1061 43.0133 35.1817C42.9394 35.1849 42.8669 35.188 42.7959 35.1911ZM53.8332 53.0182L53.8638 53.0212C55.75 53.2077 57.4661 53.644 58.7263 54.6155C60.0189 55.612 60.7591 57.1134 60.797 59.2495C60.8502 61.57 59.8271 63.2997 58.213 64.4292C56.6219 65.5426 54.4838 66.0583 52.2768 66.0655L52.2759 66.0655H41.684V53.0607H42.2399C46.2661 53.0607 50.2878 53.0607 53.8025 53.0186L53.8332 53.0182ZM42.7959 54.1726V64.9537L52.2732 64.9537C52.2737 64.9537 52.2742 64.9537 52.2747 64.9537C54.3317 64.9466 56.2253 64.4631 57.5755 63.5182C58.9025 62.5896 59.7301 61.2024 59.6854 59.2734L59.6853 59.2719L59.6853 59.2703C59.6526 57.4099 59.0275 56.2516 58.0474 55.4961C57.0403 54.7197 55.5862 54.3117 53.7848 54.1307C50.4319 54.1707 46.6225 54.1725 42.7959 54.1726Z" fill="#25D366"/>
<path fill-rule="evenodd" clip-rule="evenodd" d="M33.5138 73.0816C33.8515 73.2927 34.5693 73.2928 36.1879 73.2928C43.0703 73.2787 49.0097 73.2646 53.2321 73.2646C72.9645 73.2646 72.4578 52.4907 63.225 49.901C64.5761 47.5083 70.7266 43.0045 66.9265 33.7153C63.1546 24.5247 46.9689 26.6077 35.8923 26.6077C31.7967 26.6077 32.416 29.6478 32.43 34.3487C32.4582 41.8082 32.4441 61.991 32.43 70.7171C32.43 72.4764 32.9649 72.7579 33.5138 73.0816V73.0816ZM42.057 65.4673H52.078C56.3425 65.4533 60.1427 63.4688 60.0441 59.2183C59.9738 55.2211 57.3137 53.8981 53.6121 53.5322C50.1076 53.5744 46.0823 53.5744 42.057 53.5744V65.4673ZM42.057 45.5379C49.4742 45.4394 52.3313 45.8335 56.3848 44.8201C59.1715 43.2438 60.3819 37.3747 56.3988 35.3902C53.6402 34.0109 45.4489 34.4754 42.057 34.6161V45.5379Z" fill="#FEFEFE"/>
</svg>
