<svg width="100" height="100" viewBox="0 0 100 100" fill="none" xmlns="http://www.w3.org/2000/svg">
<path d="M7.38576 91.8462L13.3319 70.1354C9.66454 63.7818 7.73507 56.5734 7.73743 49.1891C7.74682 26.0873 26.547 7.29266 49.6495 7.29266C60.8605 7.29813 71.3831 11.661 79.2972 19.5807C87.209 27.5003 91.5656 38.0268 91.5616 49.2229C91.5514 72.3231 72.7482 91.1209 49.6495 91.1209C49.6478 91.1209 49.6513 91.1209 49.6495 91.1209H49.6315C42.6177 91.118 35.7257 89.3586 29.6037 86.0201L7.38576 91.8462Z" fill="white"/>
<path d="M49.663 14.3699C30.4476 14.3699 14.8211 29.9908 14.814 49.1913C14.8112 55.771 16.6525 62.1795 20.1394 67.7245L20.9683 69.0418L17.4483 81.8918L30.6329 78.4347L31.906 79.1892C37.2533 82.3628 43.3839 84.041 49.6362 84.0442H49.6495C68.8499 84.0442 84.4765 68.4216 84.4843 49.2196C84.4878 39.9145 80.8681 31.1644 74.2908 24.5824C67.7135 18.0003 58.9681 14.3739 49.663 14.3699Z" fill="url(#paint0_linear_147648_1354)"/>
<path fill-rule="evenodd" clip-rule="evenodd" d="M39.1749 31.6731C38.3899 29.9297 37.5641 29.8944 36.8184 29.8638C36.2077 29.8379 35.5091 29.8394 34.8112 29.8394C34.1126 29.8394 32.9783 30.1016 32.0191 31.1496C31.059 32.1975 28.3532 34.7306 28.3532 39.8832C28.3532 45.0358 32.1062 50.0141 32.629 50.7135C33.1526 51.4121 39.8735 62.3232 50.5185 66.5205C59.3644 70.0089 61.1643 69.315 63.0852 69.1407C65.0052 68.9665 69.281 66.6076 70.1531 64.1624C71.026 61.7172 71.026 59.6221 70.7646 59.1841C70.5024 58.7469 69.8046 58.4855 68.7566 57.9619C67.7095 57.4383 62.5608 54.9044 61.6008 54.5551C60.6408 54.2058 59.9429 54.0316 59.2443 55.0795C58.5465 56.1274 56.5408 58.4855 55.9294 59.1841C55.3186 59.8835 54.7079 59.9707 53.66 59.4471C52.6128 58.9219 49.2398 57.8175 45.2388 54.2498C42.1256 51.4741 40.0242 48.0461 39.4127 46.9982C38.802 45.9502 39.3476 45.3835 39.8727 44.8615C40.3429 44.3921 40.9199 43.6385 41.4442 43.027C41.9663 42.4155 42.1413 41.9791 42.4898 41.2812C42.8391 40.5818 42.6649 39.9703 42.4027 39.4467C42.1413 38.9232 40.1059 33.7439 39.1749 31.6731" fill="white"/>
<defs>
<linearGradient id="paint0_linear_147648_1354" x1="48.9399" y1="18.5511" x2="49.2933" y2="78.0918" gradientUnits="userSpaceOnUse">
<stop stop-color="#57D163"/>
<stop offset="1" stop-color="#23B33A"/>
</linearGradient>
</defs>
</svg>
