<svg width="100" height="100" viewBox="0 0 100 100" fill="none" xmlns="http://www.w3.org/2000/svg">
<path d="M0 8C0 3.58172 3.58172 0 8 0H40C44.4183 0 48 3.58172 48 8V40C48 44.4183 44.4183 48 40 48H8C3.58172 48 0 44.4183 0 40V8Z" fill="#232F3E"/>
<path d="M53.9345 17.9291L58.9026 22.8972L29.5263 52.2734L24.5583 47.3053L53.9345 17.9291Z" fill="white"/>
<path d="M73.4467 17.8572L78.4147 22.8252L49.0385 52.2014L44.0705 47.2334L73.4467 17.8572Z" fill="white"/>
<path d="M32.3995 81.7207L30.3924 73.5324L28.3624 81.7207H25.1464L21.4286 70.0655H24.9411L26.8798 78.4818L28.9782 70.0655H31.9661L34.1102 78.5046L35.9348 70.0655H39.3561L35.6155 81.7207H32.3995Z" fill="white"/>
<path d="M41.1774 81.7207V70.0655H44.5075V81.7207H41.1774ZM42.8425 68.2636C42.2646 68.2636 41.8009 68.1039 41.4511 67.7846C41.1014 67.4653 40.9265 67.0319 40.9265 66.4845C40.9265 65.9371 41.1014 65.5037 41.4511 65.1844C41.8009 64.8651 42.2646 64.7054 42.8425 64.7054C43.4203 64.7054 43.8841 64.8651 44.2338 65.1844C44.5835 65.5037 44.7584 65.9371 44.7584 66.4845C44.7584 67.0319 44.5835 67.4653 44.2338 67.7846C43.8841 68.1039 43.4203 68.2636 42.8425 68.2636Z" fill="white"/>
<path d="M56.207 81.2189C55.7965 81.4622 55.3023 81.6446 54.7245 81.7663C54.1467 81.9031 53.546 81.9716 52.9226 81.9716C51.0675 81.9716 49.6458 81.4546 48.6574 80.4206C47.6842 79.3866 47.1977 77.8964 47.1977 75.9501C47.1977 74.019 47.7146 72.5136 48.7486 71.434C49.7826 70.3544 51.2196 69.8146 53.0595 69.8146C54.1695 69.8146 55.1959 70.0579 56.1386 70.5444V72.7569C55.2415 72.4984 54.4204 72.3691 53.6753 72.3691C52.6109 72.3691 51.8278 72.6428 51.326 73.1902C50.8242 73.7224 50.5733 74.574 50.5733 75.7448V76.0641C50.5733 77.2198 50.8166 78.0713 51.3032 78.6187C51.805 79.1509 52.5729 79.417 53.6069 79.417C54.352 79.417 55.2187 79.2801 56.207 79.0064V81.2189Z" fill="white"/>
<path d="M58.5713 81.7207V64.8423H61.8785V75.0377L65.9157 70.0655H69.8844L65.0718 75.6308L70.2493 81.7207H66.1894L61.8785 76.4063V81.7207H58.5713Z" fill="white"/>
<path d="M71.8466 81.7207V70.0655H74.5836L74.9942 71.7989C75.6024 71.1299 76.1726 70.6585 76.7049 70.3848C77.2523 70.0959 77.8301 69.9514 78.4383 69.9514C78.7272 69.9514 79.0313 69.9742 79.3506 70.0198V73.099C78.9249 73.0078 78.4535 72.9622 77.9365 72.9622C76.9481 72.9622 76.0282 73.137 75.1767 73.4868V81.7207H71.8466Z" fill="white"/>
</svg>
