<svg width="100" height="100" viewBox="0 0 100 100" fill="none" xmlns="http://www.w3.org/2000/svg">
<path d="M99.9964 19.8285C99.9964 20.1785 99.8893 20.4999 99.6607 20.7928C99.4393 21.0785 99.1965 21.2285 98.9286 21.2285C96.743 21.4356 94.9466 22.1463 93.5538 23.3534C92.161 24.5605 90.7218 26.864 89.2325 30.2639L66.5333 81.3942C66.3833 81.8692 65.9619 82.1084 65.2834 82.1084C65.0309 82.1132 64.782 82.0493 64.563 81.9235C64.3441 81.7977 64.1635 81.6147 64.0406 81.3942L51.2982 54.8308L36.6701 81.3835C36.5466 81.6051 36.3649 81.7887 36.1446 81.9146C35.9243 82.0405 35.6738 82.1038 35.4202 82.0977C34.7702 82.0977 34.3381 81.8584 34.1345 81.3835L11.8389 30.2639C10.4461 27.0711 8.9747 24.8426 7.43189 23.5748C5.89623 22.307 3.75345 21.5249 0.989267 21.2249C0.753562 21.2249 0.524999 21.0928 0.321435 20.8464C0.112769 20.6098 -0.00162717 20.3047 1.74902e-05 19.9892C1.74902e-05 19.1821 0.235723 18.775 0.714278 18.775C2.69992 18.775 4.78556 18.8643 6.94977 19.0428C8.96755 19.2214 10.8675 19.3 12.6496 19.3C14.4602 19.3 16.5958 19.2107 19.0636 19.0321C21.3455 18.8638 23.6325 18.7733 25.9205 18.7607C26.3919 18.7607 26.6276 19.1714 26.6276 19.9892C26.6276 20.8035 26.4848 21.2106 26.1848 21.2106C24.1956 21.3535 22.6313 21.8642 21.4885 22.7284C20.3457 23.5963 19.7743 24.7284 19.7743 26.1319C19.7743 26.8461 20.0136 27.739 20.4886 28.8104L38.6736 70.5231L49.3518 50.6667L39.595 30.246C37.8451 26.5747 36.4023 24.2105 35.2737 23.1534C34.1488 22.0927 32.4417 21.4463 30.1596 21.2071C29.9454 21.2071 29.7454 21.0821 29.5525 20.8356C29.3614 20.5914 29.2605 20.2886 29.2668 19.9785C29.2668 19.1714 29.4704 18.7643 29.8882 18.7643C31.8739 18.7643 33.6988 18.85 35.363 19.0286C36.963 19.2071 38.6701 19.2928 40.4807 19.2928C42.2592 19.2928 44.1413 19.2 46.1305 19.0214C48.1422 18.8435 50.1607 18.7529 52.1803 18.75C52.6553 18.75 52.8945 19.1607 52.8945 19.975C52.8945 20.7964 52.7446 21.1963 52.4481 21.1963C48.4733 21.4642 46.4841 22.5963 46.4841 24.5962C46.4841 25.489 46.9483 26.8819 47.8626 28.7604L54.3124 41.8492L60.7407 29.9032C61.6264 28.1997 62.0728 26.7676 62.0728 25.6033C62.0728 22.8606 60.0836 21.3999 56.1087 21.2213C55.7516 21.2213 55.573 20.8035 55.573 19.9857C55.573 19.7 55.6623 19.4143 55.8409 19.1571C56.0194 18.8929 56.198 18.7643 56.3766 18.7643C57.8051 18.7643 59.555 18.85 61.6264 19.0286C63.6156 19.2071 65.2477 19.2964 66.5191 19.2964C67.4405 19.2964 68.7904 19.225 70.5725 19.0821C72.8224 18.875 74.7152 18.7714 76.2223 18.7714C76.5794 18.7714 76.758 19.1178 76.758 19.8178C76.758 20.7464 76.4294 21.2178 75.7794 21.2178C73.476 21.4499 71.601 22.0892 70.2082 23.132C68.794 24.1784 67.0369 26.5497 64.9298 30.2389L56.3944 46.0597L67.9512 69.6303L85.0577 29.8889C85.6505 28.4247 85.9505 27.0818 85.9505 25.8605C85.9505 22.932 83.9577 21.3856 79.9864 21.2071C79.6293 21.2071 79.4507 20.7964 79.4507 19.9785C79.4507 19.1678 79.715 18.7643 80.2507 18.7643C81.7007 18.7643 83.4185 18.8536 85.4077 19.0321C87.2469 19.2036 88.7897 19.2928 90.0361 19.2928C91.3396 19.2928 92.8574 19.2 94.5716 19.025C96.3501 18.8464 97.9501 18.7536 99.375 18.7536C99.7929 18.7536 100 19.1 100 19.8L99.9964 19.8285Z" fill="#231F20"/>
</svg>
