<svg width="100" height="100" viewBox="0 0 100 100" fill="none" xmlns="http://www.w3.org/2000/svg">
<path d="M0 50C0 22.3858 22.3858 0 50 0C77.6142 0 100 22.3858 100 50C100 77.6142 77.6142 100 50 100C22.3858 100 0 77.6142 0 50Z" fill="white"/>
<path fill-rule="evenodd" clip-rule="evenodd" d="M47.9007 28.9542L74.9937 25V48.7772L47.9007 48.9923V28.9542ZM45.4334 29.3182L25 32.1011L25.0187 49.1442L45.4423 49.0279L45.4334 29.3182ZM45.4395 71.0257L45.4237 51.2989L25.0147 51.1665L25.0159 68.2178L45.4395 71.0257ZM74.9936 75.1545L75 51.4844L47.8627 51.4401L47.9006 71.3307L74.9936 75.1545Z" fill="#00ADEF"/>
</svg>
