<svg width="100" height="100" viewBox="0 0 100 100" fill="none" xmlns="http://www.w3.org/2000/svg">
<path d="M0 50C0 22.3858 22.3858 0 50 0C77.6142 0 100 22.3858 100 50C100 77.6142 77.6142 100 50 100C22.3858 100 0 77.6142 0 50Z" fill="white"/>
<path fill-rule="evenodd" clip-rule="evenodd" d="M61.6959 69.6458C69.4165 69.6458 75.6279 63.4102 75.6279 55.745L75.6282 28.7605H78.9225V55.7448C78.9225 65.2131 71.2156 72.9166 61.6786 72.9166C57.6352 72.9166 53.9719 71.5216 51.0236 69.2048C48.0752 71.5216 44.3252 72.9166 40.2819 72.9166C30.7449 72.9166 22.9167 65.2131 22.9167 55.7448V28.7605H26.2111V55.745C26.2111 63.41 32.5266 69.6458 40.2471 69.6458C43.357 69.6458 46.2579 68.6219 48.5842 66.9125C45.9834 63.9066 44.3306 60.0091 44.3306 55.745L44.3363 33.6251C44.3363 30.0179 47.2921 27.0833 50.9252 27.0833C54.5584 27.0833 57.514 30.0181 57.514 33.6251L57.5084 55.745C57.5084 60.0089 55.9598 63.9066 53.3588 66.9125C55.685 68.6219 58.5863 69.6458 61.6959 69.6458ZM47.625 55.7448C47.625 59.1477 48.8671 62.265 50.9194 64.6839C52.9717 62.265 54.2138 59.1477 54.2138 55.745L54.2196 33.6249C54.2196 31.821 52.7417 30.3541 50.9252 30.3541C49.1088 30.3541 47.6309 31.821 47.6309 33.6249L47.625 55.7448Z" fill="black"/>
</svg>
