<svg width="100" height="100" viewBox="0 0 100 100" fill="none" xmlns="http://www.w3.org/2000/svg">
<path d="M0 50C0 22.3858 22.3858 0 50 0C77.6142 0 100 22.3858 100 50C100 77.6142 77.6142 100 50 100C22.3858 100 0 77.6142 0 50Z" fill="white"/>
<path d="M25 50.3799C25 60.4748 31.1214 69.2001 40 73.3333L27.3045 40C25.8279 43.1718 25 46.6822 25 50.3799" fill="#3E3D3A"/>
<path d="M66.6613 49.5084C66.6613 46.3174 65.5346 44.1092 64.5694 42.3901C63.2834 40.263 62.077 38.4637 62.077 36.3366C62.077 33.9644 63.8455 31.7558 66.3379 31.7558C66.4505 31.7558 66.5571 31.7695 66.6667 31.7765C62.1525 27.5691 56.1383 25 49.5328 25C40.6681 25 32.8702 29.6269 28.3333 36.6334C28.9291 36.6528 29.4903 36.6647 29.9663 36.6647C32.6196 36.6647 36.7286 36.3366 36.7286 36.3366C38.0957 36.2552 38.2573 38.299 36.891 38.4637C36.891 38.4637 35.5158 38.6271 33.9871 38.7088L43.2263 66.6667L48.7797 49.7268L44.8269 38.7088C43.4598 38.6271 42.1655 38.4637 42.1655 38.4637C40.7981 38.3814 40.9584 36.2552 42.3265 36.3366C42.3265 36.3366 46.516 36.6647 49.009 36.6647C51.6618 36.6647 55.7716 36.3366 55.7716 36.3366C57.1393 36.2552 57.3006 38.299 55.9335 38.4637C55.9335 38.4637 54.557 38.6271 53.0298 38.7088L62.1994 66.4537L64.7306 57.8521C65.826 54.2805 66.6613 51.7172 66.6613 49.5084" fill="#3E3D3A"/>
<path d="M50.657 51.6667L43.3333 73.9582C45.5205 74.632 47.8329 75 50.2284 75C53.0705 75 55.7966 74.486 58.3333 73.5507C58.2684 73.4409 58.2078 73.3247 58.1584 73.1983L50.657 51.6667Z" fill="#3E3D3A"/>
<path d="M73.3824 38.3333C73.4976 39.1627 73.5626 40.0524 73.5626 41.0111C73.5626 43.6524 73.0532 46.6228 71.5235 50.3377L63.3333 73.3333C71.3054 68.8197 76.6667 60.4324 76.6667 50.8257C76.6667 46.2983 75.4756 42.0421 73.3824 38.3333" fill="#3E3D3A"/>
<path fill-rule="evenodd" clip-rule="evenodd" d="M20 49.9992C20 33.4574 33.4576 20 49.9997 20C66.5418 20 80 33.4574 80 49.9992C80 66.542 66.5418 80 49.9997 80C33.4576 80 20 66.542 20 49.9992ZM21.3758 49.9992C21.3758 65.7826 34.2167 78.6245 49.9997 78.6245C65.7827 78.6245 78.6239 65.7826 78.6239 49.9992C78.6239 34.2162 65.7827 21.3758 49.9997 21.3758C34.2167 21.3758 21.3758 34.2162 21.3758 49.9992Z" fill="#3E3D3A"/>
</svg>
