<svg width="100" height="100" viewBox="0 0 100 100" fill="none" xmlns="http://www.w3.org/2000/svg">
<path fill-rule="evenodd" clip-rule="evenodd" d="M28.854 4.99963C26.1532 5.00538 23.5095 6.54257 22.1499 8.8876L1.00382 45.7195C-0.334605 48.0708 -0.334605 51.1441 1.00382 53.4955L22.1499 90.3273C23.5096 92.6724 26.1532 94.21 28.854 94.2153H71.146C73.8468 94.2096 76.4904 92.6724 77.8502 90.3273L98.9962 53.4955C100.335 51.1441 100.335 48.0708 98.9962 45.7195L77.8502 8.8876C76.4904 6.54257 73.8468 5.00495 71.146 4.99963H28.854ZM29.2378 26.5467C29.2959 26.541 29.3569 26.541 29.4151 26.5467H36.7099C37.0328 26.5534 37.346 26.7406 37.5073 27.0216L49.8819 49.1326C49.9442 49.2419 49.9843 49.3637 49.9995 49.4887C50.0148 49.3637 50.0549 49.2419 50.1172 49.1326L62.4622 27.0216C62.6286 26.732 62.9565 26.5439 63.2891 26.5467H70.5838C71.2298 26.5525 71.7135 27.3683 71.4108 27.9417L59.3317 49.6075L71.4108 71.2436C71.7421 71.8203 71.2465 72.6739 70.5838 72.6682H63.2891C62.9507 72.6653 62.6208 72.4642 62.4622 72.1637L50.1172 50.0527C50.0549 49.9433 50.0148 49.8215 49.9995 49.6965C49.9843 49.8216 49.9442 49.9434 49.8819 50.0527L37.5073 72.1637C37.3533 72.4557 37.0385 72.6549 36.7099 72.6682H29.4151C28.7524 72.674 28.2569 71.8203 28.5883 71.2436L40.6674 49.6075L28.5883 27.9417C28.2987 27.4185 28.652 26.6584 29.2378 26.5467Z" fill="#3498DB"/>
</svg>
