<svg width="100" height="100" viewBox="0 0 100 100" fill="none" xmlns="http://www.w3.org/2000/svg">
<rect width="48" height="48" rx="8" fill="#107C10"/>
<path fill-rule="evenodd" clip-rule="evenodd" d="M38.58 26.1256C41.0214 26.7865 44.2933 28.0818 45.8511 29.004C47.7815 30.1469 48.6194 30.666 49.4299 30.6261C50.1106 30.5926 50.7719 30.1646 52.0449 29.3805C55.2221 27.4236 63.1579 25.0194 64.9793 25.4619C65.7971 25.6606 64.4367 24.8239 61.956 23.6026C55.5825 20.4645 47.0281 19.9525 39.8005 22.2764C37.0392 23.1643 34.6362 24.1233 34.4606 24.4075C34.2849 24.6916 36.1387 25.4648 38.58 26.1256ZM73.3552 66.5934C73.2754 60.8135 68.7523 52.0806 60.5637 41.8963L56.6052 36.973L60.1542 33.7162C62.1062 31.9249 64.88 29.8292 66.3181 29.059L68.9329 27.6586L71.8293 30.4816C73.4224 32.0343 75.7482 35.3768 76.9979 37.9094C78.9557 41.8774 79.3038 43.4191 79.5146 49.0567C79.7972 56.6179 78.6463 61.4995 75.4574 66.2641L73.3932 69.3483L73.3552 66.5934ZM20.1589 41.1291C17.3529 48.517 18.8647 59.8972 23.5702 66.8081C25.4252 69.5325 25.8474 69.8119 25.2459 67.9169C24.054 64.1613 30.215 51.7962 38.2145 41.8893L42.1956 36.9589L38.478 33.6293C36.4334 31.7979 33.6821 29.7188 32.364 29.009C30.1463 27.8147 29.8374 27.8036 28.2253 28.8598C25.9935 30.3222 21.8969 36.5533 20.1589 41.1291ZM26.9882 69.8573C26.9882 72.6474 35.0356 77.8158 42.252 79.6604C49.9404 81.6256 60.7221 79.5264 67.3158 74.7804C72.7828 70.8454 72.9666 69.4582 68.8454 63.2362C66.3054 59.4015 54.952 47.642 51.4038 45.1705L49.1449 43.5972L44.1085 47.9427C35.1557 55.6673 26.9882 66.122 26.9882 69.8573Z" fill="white"/>
</svg>
