<svg width="100" height="100" viewBox="0 0 100 100" fill="none" xmlns="http://www.w3.org/2000/svg">
<path d="M0 50C0 22.3858 22.3858 0 50 0C77.6142 0 100 22.3858 100 50C100 77.6142 77.6142 100 50 100C22.3858 100 0 77.6142 0 50Z" fill="#BF2519"/>
<path d="M28.2961 48.8412C27.2811 50.4681 26.8525 55.5908 27.205 58.9908C27.329 60.1129 27.5321 61.0489 27.8279 61.6072C28.234 62.3797 28.9163 62.8393 29.6944 62.8675C30.1936 62.8929 30.5036 62.8083 39.8863 59.7916C39.8863 59.7916 44.0561 58.4608 44.0732 58.4525C45.1134 58.1875 45.8125 57.2316 45.8802 56.0108C45.9479 54.7591 45.3023 53.6539 44.2365 53.2535C44.2365 53.2535 41.2961 52.0554 41.2904 52.0554C31.2084 47.8968 30.7546 47.7333 30.2471 47.7277C29.469 47.6966 28.7782 48.0885 28.2961 48.8412Z" fill="white"/>
<path d="M50.85 79.8258C51.0136 79.3521 51.0331 79.0279 51.0615 69.1715C51.0615 69.1715 51.084 64.8156 51.0867 64.7733C51.1544 63.7048 50.4638 62.7321 49.3331 62.2979C48.1688 61.8498 46.9142 62.126 46.2094 63.0027C46.2094 63.0027 44.1513 65.4444 44.1456 65.4444C37.0831 73.7417 36.7871 74.125 36.615 74.6156C36.5108 74.9031 36.4686 75.2133 36.5023 75.5206C36.5446 75.9604 36.7448 76.3946 37.0746 76.8006C38.7127 78.746 46.5673 81.6358 49.0767 81.2073C49.9477 81.0494 50.5821 80.5588 50.85 79.8258Z" fill="white"/>
<path d="M66.7848 76.3943C69.1529 75.45 74.3181 68.8781 74.6817 66.3491C74.8086 65.4696 74.5323 64.711 73.9263 64.2262C73.5286 63.9273 73.2269 63.8116 63.8498 60.7329C63.8498 60.7329 59.7365 59.3741 59.6829 59.3487C58.6877 58.9625 57.5515 59.3204 56.7875 60.2621C55.9923 61.2291 55.874 62.5064 56.5083 63.4706L58.1633 66.1658C63.7286 75.2046 64.1544 75.8446 64.5546 76.1575C65.175 76.6454 65.9644 76.7243 66.7848 76.3943Z" fill="white"/>
<path d="M61.9389 53.1235C72.596 50.541 73.0077 50.4058 73.4277 50.1293C74.0733 49.6952 74.3975 48.9679 74.3412 48.0827C74.3412 48.0543 74.3469 48.0233 74.3412 47.9925C74.0677 45.376 69.4835 38.5702 67.2252 37.465C66.4246 37.0816 65.6237 37.1068 64.9583 37.5525C64.5469 37.8202 64.2452 38.2262 58.5387 46.0302C58.5387 46.0302 55.9619 49.5402 55.9308 49.5739C55.2514 50.4002 55.2402 51.5841 55.9056 52.5991C56.5935 53.6508 57.755 54.1639 58.8208 53.8679C58.8208 53.8679 58.7785 53.9439 58.7671 53.9581C59.2914 53.7608 60.2304 53.5295 61.9389 53.1235Z" fill="white"/>
<path d="M51.2419 44.3248C51.0587 40.1015 49.7871 21.2965 49.6377 20.4253C49.4235 19.6359 48.806 19.072 47.9208 18.8493C45.2 18.1755 34.8023 21.088 32.8766 23.0755C32.2564 23.7211 32.0281 24.5161 32.2141 25.2211C32.5187 25.844 45.4002 46.1123 45.4002 46.1123C47.3033 49.1994 48.8566 48.7203 49.3671 48.5594C49.8716 48.4044 51.4166 47.925 51.2419 44.3248Z" fill="white"/>
</svg>
