<svg width="100" height="100" viewBox="0 0 100 100" fill="none" xmlns="http://www.w3.org/2000/svg">
<path d="M100 50C100 22.3858 77.6142 0 50 0C22.3858 0 0 22.3858 0 50C0 77.6142 22.3858 100 50 100C77.6142 100 100 77.6142 100 50Z" fill="#FF0000"/>
<path d="M49.9792 26.4076C49.9792 26.4076 28.9062 26.4076 23.6172 27.7819C20.7853 28.5732 18.4534 30.9051 17.6621 33.7787C16.2878 39.0677 16.2878 50.0209 16.2878 50.0209C16.2878 50.0209 16.2878 61.0156 17.6621 66.2214C18.4534 69.0949 20.7436 71.3852 23.6172 72.1765C28.9479 73.5924 49.9792 73.5925 49.9792 73.5925C49.9792 73.5925 71.0939 73.5925 76.3828 72.2181C79.2564 71.4269 81.5466 69.1783 82.2962 66.2631C83.7122 61.0156 83.7122 50.0625 83.7122 50.0625C83.7122 50.0625 83.7538 39.0677 82.2962 33.7787C81.5466 30.9051 79.2564 28.6149 76.3828 27.8653C71.0939 26.4077 49.9792 26.4076 49.9792 26.4076V26.4076ZM43.2741 39.9011L60.8073 50.0209L43.2741 60.099V39.9011V39.9011Z" fill="white"/>
</svg>
