<svg width="100" height="100" viewBox="0 0 100 100" fill="none" xmlns="http://www.w3.org/2000/svg">
<path d="M0 50C0 22.3858 22.3858 0 50 0C77.6142 0 100 22.3858 100 50C100 77.6142 77.6142 100 50 100C22.3858 100 0 77.6142 0 50Z" fill="white"/>
<path fill-rule="evenodd" clip-rule="evenodd" d="M32.1831 38.8608C40.6189 38.8608 47.4575 31.8291 47.4575 23.1552H16.9085C16.9085 31.8291 23.7471 38.8608 32.1831 38.8608ZM47.4575 74.6906V36.7672L16.9085 74.6906H47.4575ZM52.4902 74.6908C52.4902 66.0168 59.3289 58.9852 67.7648 58.9852C76.2006 58.9852 83.0392 66.0168 83.0392 74.6908H52.4902ZM52.4902 23.1552V61.0785L83.0425 23.1552H52.4902Z" fill="#03363D"/>
</svg>
