<svg width="100" height="100" viewBox="0 0 100 100" fill="none" xmlns="http://www.w3.org/2000/svg">
<path d="M0 50C0 22.3858 22.3858 0 50 0C77.6142 0 100 22.3858 100 50C100 77.6142 77.6142 100 50 100C22.3858 100 0 77.6142 0 50Z" fill="#9DBC7A"/>
<path d="M28.8532 58.2583C28.4131 58.7591 28.3411 59.5767 28.3411 59.5767V64.3539C28.3411 64.411 28.3359 64.7627 28.3333 65.1396C28.4876 65.9409 28.857 66.1025 29.069 66.1291H30.9318C35.5589 66.1291 39.5035 66.2504 43.7787 68.3694C47.0629 69.996 49.7767 72.601 52.9759 74.4132C56.0093 76.1306 59.4723 77.933 63.0248 78.3379C70.1758 79.1521 73.0497 70.8246 71.8597 65.4245C68.6741 67.8977 64.2304 67.8342 60.1581 66.7597C56.3249 65.5276 50.2265 61.7035 50.2265 61.7035V61.7054C47.4919 60.0587 44.2791 58.6988 41.0539 58.8396C41.0539 57.4356 41.096 57.3824 41.9814 56.3916C43.1999 55.033 44.4178 53.6724 45.6363 52.3125C49.4688 48.0322 53.3026 43.7539 57.1351 39.4743C60.3972 35.8325 63.6587 32.1913 66.9202 28.5489C67.2326 28.2011 68.3831 27.3057 68.4407 26.825C68.6391 25.1711 68.8374 23.5173 69.0364 21.8635C69.1751 20.717 67.9397 20.9921 67.9397 20.9921L67.9378 20.9863C62.6476 22.0224 57.2122 22.5629 51.8203 22.3248C48.8206 22.1931 45.6635 21.9173 42.8473 20.8383C42.7456 20.7994 42.1493 20.5061 41.5899 20.2109C40.7791 19.8061 40.2346 20.0675 39.9469 20.3024C39.7194 20.5755 39.4789 20.8383 39.2644 21.1193C37.8469 22.9827 36.5285 25.1724 36.2881 27.5114C36.2336 28.0331 36.1669 29.1335 36.4644 29.7959L36.4624 29.7966C36.4624 29.7966 36.4948 29.877 36.5843 30.0055C36.5998 30.0256 36.6115 30.0483 36.6277 30.0665C37.3024 30.9644 40.4103 33.6668 52.5462 31.3232C44.6492 40.3016 36.7515 49.2786 28.8544 58.2563C28.8532 58.257 28.8532 58.257 28.8532 58.2583" fill="white"/>
</svg>
