<svg width="100" height="100" viewBox="0 0 100 100" fill="none" xmlns="http://www.w3.org/2000/svg">
<path d="M50 100C77.6142 100 100 77.6142 100 50C100 22.3858 77.6142 0 50 0C22.3858 0 0 22.3858 0 50C0 77.6142 22.3858 100 50 100Z" fill="#2D8CFF"/>
<path fill-rule="evenodd" clip-rule="evenodd" d="M79.3478 33.1986L65.2174 43.5084V56.5313L79.3478 66.841C80.3477 67.6049 81.5217 67.841 81.5217 65.7558V34.2839C81.5217 32.4247 80.5797 32.191 79.3478 33.1986ZM17.3913 57.8264V34.3485C17.3913 33.3881 18.1769 32.6087 19.146 32.6087H53.3862C58.7178 32.6087 63.0435 36.891 63.0435 42.1736V65.6516C63.0435 66.6119 62.2579 67.3913 61.2888 67.3913H27.0485C21.717 67.3913 17.3913 63.109 17.3913 57.8264Z" fill="white"/>
</svg>
